<svg xmlns="http://www.w3.org/2000/svg" xmlns:xlink="http://www.w3.org/1999/xlink" width="288" height="663" viewBox="0 0 288 663">
  <defs>
    <clipPath id="clip-path">
      <rect id="Rectangle_3579" data-name="Rectangle 3579" width="119" height="119" transform="translate(21 92)" fill="#fff" stroke="#707070" stroke-width="1"/>
    </clipPath>
    <clipPath id="clip-path-2">
      <rect id="Rectangle_3580" data-name="Rectangle 3580" width="119" height="103.817" fill="none"/>
    </clipPath>
    <clipPath id="clip-path-3">
      <rect id="Rectangle_3579-2" data-name="Rectangle 3579" width="119" height="119" transform="translate(148 92)" fill="#fff" stroke="#707070" stroke-width="1"/>
    </clipPath>
    <clipPath id="clip-path-4">
      <rect id="Rectangle_3582" data-name="Rectangle 3582" width="69.254" height="119" fill="none"/>
    </clipPath>
    <clipPath id="clip-path-5">
      <rect id="Rectangle_3579-3" data-name="Rectangle 3579" width="119" height="119" transform="translate(275 92)" fill="#fff" stroke="#707070" stroke-width="1"/>
    </clipPath>
    <clipPath id="clip-path-6">
      <rect id="Rectangle_3584" data-name="Rectangle 3584" width="105.662" height="119" fill="none"/>
    </clipPath>
    <clipPath id="clip-path-7">
      <rect id="Rectangle_3579-4" data-name="Rectangle 3579" width="119" height="119" transform="translate(21 231)" fill="#fff" stroke="#707070" stroke-width="1"/>
    </clipPath>
    <clipPath id="clip-path-8">
      <rect id="Rectangle_3586" data-name="Rectangle 3586" width="106.057" height="119" fill="none"/>
    </clipPath>
    <clipPath id="clip-what_grows_on_the_tree">
      <rect width="288" height="663"/>
    </clipPath>
  </defs>
  <g id="what_grows_on_the_tree" data-name="what grows on the tree" clip-path="url(#clip-what_grows_on_the_tree)">
    <rect id="Rectangle_3560" data-name="Rectangle 3560" width="267" height="640" rx="27" transform="translate(8 10)" fill="#fff" opacity="0.899"/>
    <text id="What_would_you_like_to_grow_on_your_tree_" data-name="What would you like to grow on your tree?" transform="translate(45 37)" fill="#344951" font-size="18" font-family="GoodDogNew, GoodDog New"><tspan x="19.31" y="14">What would you like to </tspan><tspan x="30.56" y="34">grow on your tree?</tspan></text>
    <g id="Mask_Group_163" data-name="Mask Group 163" clip-path="url(#clip-path)">
      <g id="cherries" transform="translate(80.5 151.5)">
        <g id="cherries-2" data-name="cherries" transform="translate(-59.5 -51.909)" clip-path="url(#clip-path-2)">
          <path id="Path_602997" data-name="Path 602997" d="M45.993,200.985a53.487,53.487,0,0,1-6.548-.31C25.53,199.178,5.235,193.42,1,176.908c-3.077-12,1.44-24.669,8.44-31.98,3.161-3.3,6.8-5.5,10.472-6.1C39.9,135.7,30.356,148.8,36.453,146.96c3.867-1.157.339-5.476,7.565-8.637,8.722-3.782,19.758-6.887,30.766,10.585,8.637,13.69,5.927,51.54-28.819,52.048" transform="translate(-0.014 -97.17)" fill="#d46d5c"/>
          <path id="Path_602998" data-name="Path 602998" d="M96.02,57.511c4.347-7.452-2.371-20.266-3.867-28.819s-1.637-16.992-5.9-18.234c-2.315-.677-5.25,2.371-6.21,5.927-1.27,4.77,4.544,4.685,6.831,14.762,3.641,15.891.508,27.774,3.7,30,1.835,1.3,4.29-1.694,5.419-3.641" transform="translate(-57.322 -7.438)" fill="#5a4217"/>
          <path id="Path_602999" data-name="Path 602999" d="M200.018,168.228c4.234-.508,7.085,5.956,7.819,7.649.4.9,3.754,8.75.226,12.56-1.863,2.032-5.363,2.569-6.435,1.242s1.778-4.149.931-7.649c-1.1-4.516-7.254-4.573-7.593-8.129-.226-2.456,2.427-5.363,5.052-5.673" transform="translate(-139.925 -120.724)" fill="#f5dbd6"/>
          <path id="Path_603000" data-name="Path 603000" d="M179.557,215.066a5.093,5.093,0,0,0,.677-5.9,4.413,4.413,0,0,0-6.887-.254c-1.835,2.173-1.411,5.7.677,7.141s4.121.565,5.5-.988" transform="translate(-123.585 -148.849)" fill="#f5dbd6"/>
          <path id="Path_603001" data-name="Path 603001" d="M173.729,40.545c-3.274,5.419-5-10.641-17.726,5.081-7.536,9.315-3.472,31.02,11.516,40.927,14.226,9.4,33.137.056,44.456-8.157,33.306-24.19,8.044-57.468-8.468-62.1-19.9-5.589-26.024,4.093-29.948,12.758-3.246,7.169,2.258,8.016.169,11.488" transform="translate(-109.318 -10.512)" fill="#d46d5c"/>
          <path id="Path_603002" data-name="Path 603002" d="M131.634,28.729c-1.778-8.44-15.355-13.464-22.185-18.77S96.831-1.529,92.851.39c-2.2,1.044-2.315,5.278-.649,8.552,2.258,4.4,6.52.423,14.96,6.351,13.379,9.343,19,20.238,22.863,19.786,2.23-.282,2.06-4.121,1.609-6.323" transform="translate(-65.359 -0.024)" fill="#5a4217"/>
          <path id="Path_603003" data-name="Path 603003" d="M281.679,40.309c2.794-3.218,9.23-.339,10.923.423.9.4,8.665,3.98,8.609,9.173-.028,2.738-2.258,5.5-3.952,5.222s-1.468-4.262-4.431-6.266c-3.839-2.625-8.44,1.468-11.065-.931-1.806-1.665-1.778-5.617-.056-7.593" transform="translate(-201.264 -27.862)" fill="#f5dbd6"/>
          <path id="Path_603004" data-name="Path 603004" d="M296.417,90.45a5.137,5.137,0,0,0-3.444-4.855,4.431,4.431,0,0,0-5.278,4.431A5.043,5.043,0,0,0,293,94.853a4.3,4.3,0,0,0,3.415-4.431" transform="translate(-206.49 -61.349)" fill="#f5dbd6"/>
          <path id="Path_603005" data-name="Path 603005" d="M173.572,136.822c-5.645,3.641-3.048,14.677-2.935,15.157,2.851,11.516,15.044,16.456,15.976,16.823,13.972,5.419,28.452-2.456,28.2-4.206-.141-.931-4.375-.085-13.464-1.694-10.274-1.806-18.742-3.274-21.452-8.835-3.246-6.633,3.867-14.706.423-17.669-1.694-1.468-4.883-.762-6.746.423" transform="translate(-121.975 -97.306)" fill="#ca4b35"/>
          <path id="Path_603006" data-name="Path 603006" d="M26.705,190.247c-5.5,4.911-5.194,12.984-5.052,16.4a25.88,25.88,0,0,0,5.476,15.581c5,6.125,11.911,7.875,17.669,9.258,10.867,2.6,20.972,1.073,21.028,0s-8.581-.565-19.786-5.476c-6.069-2.681-16.032-7.028-17.246-14.734-.649-4.008,1.27-7.9,3.782-13.04,3.415-6.972,6.831-9.484,5.9-10.952s-7.593-.762-11.77,2.935" transform="translate(-15.5 -133.908)" fill="#ca4b35"/>
        </g>
      </g>
    </g>
    <g id="Mask_Group_164" data-name="Mask Group 164" clip-path="url(#clip-path-3)">
      <g id="Chocolate" transform="translate(207.5 151.5)">
        <g id="Chocolate-2" data-name="Chocolate" transform="translate(-34.627 -59.5)" clip-path="url(#clip-path-4)">
          <path id="Path_603017" data-name="Path 603017" d="M65.34,0H30.317a8.857,8.857,0,0,1,.258,2.762,7.815,7.815,0,0,1-1.86,4.714A5.493,5.493,0,0,1,24.756,9.5,6.868,6.868,0,0,1,22.8,9.188a13.037,13.037,0,0,1-1.823-.718,5.966,5.966,0,0,1,1.8,4.161,8.463,8.463,0,0,1-2.339,5.358c-2.173,2.486-6.058,4.548-9.962-.129a10.871,10.871,0,0,1-4,5.948,5.4,5.4,0,0,1-.755.424c-1.528.7-3.7,0-5.635-1.4v92.179a4,4,0,0,0,4,4H65.34a4,4,0,0,0,4-4V4a4,4,0,0,0-4-4M2.991,50.6A1.712,1.712,0,0,1,4.7,48.888h16.37A1.712,1.712,0,0,1,22.786,50.6v9.814a62.2,62.2,0,0,0-6.445-1.271c-1.068-.166-2.246-.313-3.554-.46-2.615-.276-4.88-.534-6.85-.7l-2.946-.221Z" transform="translate(-0.082)" fill="#9a7221"/>
          <path id="Path_603018" data-name="Path 603018" d="M254.412,36.028h16.37a1.712,1.712,0,0,0,1.712-1.712v-17.6A1.712,1.712,0,0,0,270.782,15h-16.37a1.712,1.712,0,0,0-1.712,1.712v17.6a1.712,1.712,0,0,0,1.712,1.712" transform="translate(-206.169 -12.238)" fill="#5a4217"/>
          <path id="Path_603019" data-name="Path 603019" d="M153.813,16.712v17.6a1.712,1.712,0,0,1-1.712,1.712H135.712A1.712,1.712,0,0,1,134,34.316V21.739a5.193,5.193,0,0,0,3.959-2.026A7.37,7.37,0,0,0,139.819,15H152.1a1.712,1.712,0,0,1,1.712,1.712" transform="translate(-109.326 -12.238)" fill="#5a4217"/>
          <path id="Path_603020" data-name="Path 603020" d="M51.114,46.618V59.526A1.712,1.712,0,0,1,49.4,61.239H34.8a10.932,10.932,0,0,0,4-5.948c3.9,4.677,7.771,2.615,9.962.129A8.56,8.56,0,0,0,51.1,50.061,5.987,5.987,0,0,0,49.31,45.9a13.037,13.037,0,0,0,1.823.718" transform="translate(-28.392 -37.448)" fill="#5a4217"/>
          <path id="Path_603021" data-name="Path 603021" d="M254.412,161.31h16.37a1.712,1.712,0,0,0,1.712-1.712V142.012a1.712,1.712,0,0,0-1.712-1.712h-16.37a1.712,1.712,0,0,0-1.712,1.712v17.6a1.712,1.712,0,0,0,1.712,1.712" transform="translate(-206.169 -114.466)" fill="#5a4217"/>
          <path id="Path_603022" data-name="Path 603022" d="M135.712,161.31h16.37a1.712,1.712,0,0,0,1.712-1.712V142.012a1.712,1.712,0,0,0-1.712-1.712h-16.37A1.712,1.712,0,0,0,134,142.012v17.6a1.712,1.712,0,0,0,1.712,1.712" transform="translate(-109.326 -114.466)" fill="#5a4217"/>
          <path id="Path_603023" data-name="Path 603023" d="M17.612,161.31h16.37a1.712,1.712,0,0,0,1.712-1.712V142.012a1.712,1.712,0,0,0-1.712-1.712H17.612a1.712,1.712,0,0,0-1.712,1.712v17.6a1.712,1.712,0,0,0,1.712,1.712" transform="translate(-12.972 -114.466)" fill="#5a4217"/>
          <path id="Path_603024" data-name="Path 603024" d="M254.412,286.528h16.37a1.712,1.712,0,0,0,1.712-1.712v-17.6a1.712,1.712,0,0,0-1.712-1.712h-16.37a1.712,1.712,0,0,0-1.712,1.712v17.6a1.712,1.712,0,0,0,1.712,1.712" transform="translate(-206.169 -216.612)" fill="#5a4217"/>
          <path id="Path_603025" data-name="Path 603025" d="M135.712,286.528h16.37a1.712,1.712,0,0,0,1.712-1.712v-17.6a1.712,1.712,0,0,0-1.712-1.712h-16.37A1.712,1.712,0,0,0,134,267.212v17.6a1.712,1.712,0,0,0,1.712,1.712" transform="translate(-109.326 -216.612)" fill="#5a4217"/>
          <path id="Path_603026" data-name="Path 603026" d="M35.695,267.212v9.814a62.194,62.194,0,0,0-6.445-1.271c-1.068-.166-2.246-.313-3.554-.46-2.615-.276-4.88-.534-6.85-.7l-2.946-.221v-7.163a1.712,1.712,0,0,1,1.712-1.712h16.37a1.712,1.712,0,0,1,1.712,1.712" transform="translate(-12.972 -216.612)" fill="#5a4217"/>
          <path id="Path_603027" data-name="Path 603027" d="M35.695,316.352v7.789a1.712,1.712,0,0,1-1.712,1.712H17.612a1.712,1.712,0,0,1-1.712-1.712V313.7l2.946.221c1.97.184,4.235.424,6.85.7,1.307.147,2.486.295,3.554.46a62.211,62.211,0,0,1,6.445,1.271" transform="translate(-12.972 -255.936)" fill="#5a4217"/>
          <path id="Path_603028" data-name="Path 603028" d="M254.412,411.828h16.37a1.712,1.712,0,0,0,1.712-1.712v-17.6a1.712,1.712,0,0,0-1.712-1.712h-16.37a1.712,1.712,0,0,0-1.712,1.712v17.6a1.712,1.712,0,0,0,1.712,1.712" transform="translate(-206.169 -318.839)" fill="#5a4217"/>
          <path id="Path_603029" data-name="Path 603029" d="M135.712,411.828h16.37a1.712,1.712,0,0,0,1.712-1.712v-17.6a1.712,1.712,0,0,0-1.712-1.712h-16.37A1.712,1.712,0,0,0,134,392.512v17.6a1.712,1.712,0,0,0,1.712,1.712" transform="translate(-109.326 -318.839)" fill="#5a4217"/>
          <path id="Path_603030" data-name="Path 603030" d="M17.612,411.828h16.37a1.712,1.712,0,0,0,1.712-1.712v-17.6a1.712,1.712,0,0,0-1.712-1.712H17.612a1.712,1.712,0,0,0-1.712,1.712v17.6a1.712,1.712,0,0,0,1.712,1.712" transform="translate(-12.972 -318.839)" fill="#5a4217"/>
          <path id="Path_603031" data-name="Path 603031" d="M254.412,537.11h16.37a1.712,1.712,0,0,0,1.712-1.712V517.813a1.712,1.712,0,0,0-1.712-1.712h-16.37a1.712,1.712,0,0,0-1.712,1.712v17.6a1.712,1.712,0,0,0,1.712,1.712" transform="translate(-206.169 -421.067)" fill="#5a4217"/>
          <path id="Path_603032" data-name="Path 603032" d="M135.712,537.11h16.37a1.712,1.712,0,0,0,1.712-1.712V517.813a1.712,1.712,0,0,0-1.712-1.712h-16.37A1.712,1.712,0,0,0,134,517.813v17.6a1.712,1.712,0,0,0,1.712,1.712" transform="translate(-109.326 -421.067)" fill="#5a4217"/>
          <path id="Path_603033" data-name="Path 603033" d="M17.612,537.11h16.37a1.712,1.712,0,0,0,1.712-1.712V517.813a1.712,1.712,0,0,0-1.712-1.712H17.612a1.712,1.712,0,0,0-1.712,1.712v17.6a1.712,1.712,0,0,0,1.712,1.712" transform="translate(-12.972 -421.067)" fill="#5a4217"/>
          <path id="Path_603034" data-name="Path 603034" d="M69.254,314.64v56.033a4,4,0,0,1-4,4H4a4,4,0,0,1-4-4v-57.3c.884-.018,1.841,0,2.909.055l2.946.221c1.97.184,4.235.423,6.85.718,1.307.147,2.486.295,3.554.442a62.2,62.2,0,0,1,6.445,1.271l1.97.534a32.27,32.27,0,0,0,10.661,1.8,34.833,34.833,0,0,0,9.152-1.142l2.044-.479a74.3,74.3,0,0,1,12.448-1.768c3.057-.2,5.45-.368,7.365-.424,1.123-.037,2.081-.037,2.909.018" transform="translate(0 -255.661)" fill="#b4bdc2"/>
          <path id="Path_603035" data-name="Path 603035" d="M175.67,351.88l2.909-3.48v4.567l-2.928,4.843-4.622,7.715-11.49,11.711-2.007,2.044-1.676,1.712-2.615-1.712-.074-.037-3.057-2.007L134,366.722l19.813,7.973,2.044.829,16.186-19.316,1.712-2.044Z" transform="translate(-109.326 -284.247)" fill="#dbdee0"/>
          <path id="Path_603036" data-name="Path 603036" d="M62.973,393.488l-23.919,2.688,19.132,37.545L34.8,393.488,49.4,390.8l15.467,2.688Z" transform="translate(-28.392 -318.839)" fill="#dbdee0"/>
          <path id="Path_603037" data-name="Path 603037" d="M205.131,569.741l-.921.847h-7.089l-3.278-2.965-2.007-1.786L189.793,564,178.1,553.5l11.693,7.016,2.044,1.234,9.778,5.874Z" transform="translate(-145.305 -451.581)" fill="#dbdee0"/>
          <path id="Path_603038" data-name="Path 603038" d="M16.278,316.142l-13.368,8.6L0,326.6v-7.034L2.909,317.3,5.856,315c1.97.184,4.235.424,6.85.718,1.307.147,2.486.295,3.554.442" transform="translate(0 -256.997)" fill="#dbdee0"/>
        </g>
      </g>
    </g>
    <g id="Mask_Group_165" data-name="Mask Group 165" transform="translate(-131 139)" clip-path="url(#clip-path-5)">
      <g id="apple" transform="translate(334.5 151.5)">
        <g id="apple-2" data-name="apple" transform="translate(-52.831 -59.5)" clip-path="url(#clip-path-6)">
          <path id="Path_603061" data-name="Path 603061" d="M47.962,128.925c-8.646,2.511,4.375-18.016-23.477-11.156-12.218,3-29.509,27.852-23.167,51.718,6.031,22.675,31.088,34.789,50.864,33.132,34.944-2.925,63.211-51.1,50.216-71-15.66-24-31.321-19.724-43.693-14.547-10.276,4.3-5.255,10.224-10.768,11.829" transform="translate(0.028 -83.782)" fill="#97bb45"/>
          <path id="Path_603062" data-name="Path 603062" d="M150.124,46.423c5.41-6.885,2.356-19.828.492-27.7S146.5,1.306,141.193.167a7.116,7.116,0,0,0-7.714,4.556c-1.579,4.4,2.433,8.076,5.306,17.343,4.53,14.677.647,25.626,4.582,27.7,2.278,1.191,5.358-1.553,6.756-3.339" transform="translate(-98.665 -0.037)" fill="#5a4217"/>
          <path id="Path_603063" data-name="Path 603063" d="M294.436,158.588c6.005-.7,10.043,8.18,11.079,10.483.569,1.242,5.306,12.036.336,17.239-2.64,2.77-7.61,3.52-9.137,1.683s2.511-5.695,1.294-10.483c-1.553-6.212-10.3-6.29-10.768-11.156-.337-3.365,3.469-7.351,7.17-7.765" transform="translate(-212.874 -117.509)" fill="#eaf1d8"/>
          <path id="Path_603064" data-name="Path 603064" d="M262.56,227.829c1.967-2.123,2.614-5.695.984-8.1-2.071-3.054-7.17-3.313-9.784-.337s-2.019,7.817.984,9.81c2.459,1.631,5.876.777,7.817-1.346" transform="translate(-186.847 -161.046)" fill="#eaf1d8"/>
        </g>
      </g>
    </g>
    <g id="Mask_Group_166" data-name="Mask Group 166" clip-path="url(#clip-path-7)">
      <g id="pizza" transform="translate(80.5 290.5)">
        <g id="pizza-2" data-name="pizza" transform="translate(-53.029 -59.5)" clip-path="url(#clip-path-8)">
          <path id="Path_603069" data-name="Path 603069" d="M105.984,56.316A53.743,53.743,0,0,1,90.71,85.489L89.468,86.7a265.822,265.822,0,0,1-26.312,22.291c-6.639,4.8-12.468,8.177-17.3,9.931-2.024.729-5.262-3.67-9.121-11.253-1.835-3.589-3.805-7.88-5.856-12.684-2.564-5.964-5.262-12.684-7.988-19.781-3.616-9.391-7.259-19.4-10.687-29.145-1.349-3.805-2.645-7.583-3.913-11.253S5.837,27.657,4.7,24.283C3.192,19.776,1.789,15.54.52,11.707A8.883,8.883,0,0,1,13.042,1.021l1.133.594L44.185,17.267l9.931,5.154,16.273,8.474h0l30.927,16.111a8.879,8.879,0,0,1,4.669,9.31" transform="translate(-0.035 0.005)" fill="#fee99e"/>
          <path id="Path_603070" data-name="Path 603070" d="M240.19,163.274c7.1.648,12.468,5.1,14.519,10.066,3.778,9.121-3.778,19.862-11.415,21.023-10.444,1.592-24.666-14.168-19.727-23.775,2.456-4.777,9.634-7.961,16.6-7.313" transform="translate(-162.495 -119.151)" fill="#d46d5c"/>
          <path id="Path_603071" data-name="Path 603071" d="M58.963,194.443a10.633,10.633,0,0,1-3.076,0c-3.589-9.391-7.232-19.4-10.687-29.146a20.456,20.456,0,0,1,10.633-1.916c7.1.648,12.468,5.1,14.519,10.066,3.778,9.121-3.778,19.862-11.415,21.023" transform="translate(-33.002 -119.231)" fill="#d46d5c"/>
          <path id="Path_603072" data-name="Path 603072" d="M78.772,21.652c-2.294,4.534-6.45,8.042-10.633,8.69C57.7,31.934,43.474,16.174,48.439,6.567L48.763,6Z" transform="translate(-34.622 -4.381)" fill="#d46d5c"/>
          <path id="Path_603073" data-name="Path 603073" d="M132.265,304.643c-2.456,2-6.99,5.667-12.009,9.04-1.835-3.589-3.805-7.88-5.856-12.684a13.57,13.57,0,0,0,9.175-1.43c8.231-4.831,6.936-16.948,12.333-17.406,3.13-.27,6.639,3.535,7.259,7.259.351,2.078.108,6.315-10.876,15.22" transform="translate(-83.527 -206.007)" fill="#fddd70"/>
          <path id="Path_603074" data-name="Path 603074" d="M188.37,91.674c-5.721,1.349-11.955,3.481-15.814,9.014-5.181,7.448-2.807,16.408-5.073,16.678s-6.315-7.475-5.8-15.22c.486-6.963,4.723-13.952,10.417-18.945Z" transform="translate(-118.016 -60.747)" fill="#fddd70"/>
          <path id="Path_603075" data-name="Path 603075" d="M41.877,101.353c-.378,1.646-10.039-1.484-20.888-.729C19.748,97.009,18.533,93.473,17.4,90.1c3.778,1.43,8.285,3.265,13.6,5.478,7.907,3.238,11.091,4.831,10.876,5.8" transform="translate(-12.704 -65.785)" fill="#fddd70"/>
          <path id="Path_603076" data-name="Path 603076" d="M261.453,301.624l-1.241,1.214A265.819,265.819,0,0,1,233.9,325.129c1.916-13.008,8.312-28.066,16.354-29.065,3.616-.432,7.664,1.97,11.172,5.559" transform="translate(-170.778 -216.13)" fill="#fddd70"/>
        </g>
      </g>
    </g>
    <g id="Rectangle_3579-5" data-name="Rectangle 3579" transform="translate(148 509)" fill="#fff" stroke="#707070" stroke-width="1">
      <rect width="119" height="119" stroke="none"/>
      <rect x="0.5" y="0.5" width="118" height="118" fill="none"/>
    </g>
    <g id="Rectangle_3579-6" data-name="Rectangle 3579" transform="translate(21 370)" fill="#fff" stroke="#707070" stroke-width="1">
      <rect width="119" height="119" stroke="none"/>
      <rect x="0.5" y="0.5" width="118" height="118" fill="none"/>
    </g>
    <g id="Rectangle_3579-7" data-name="Rectangle 3579" transform="translate(148 370)" fill="#fff" stroke="#707070" stroke-width="1">
      <rect width="119" height="119" stroke="none"/>
      <rect x="0.5" y="0.5" width="118" height="118" fill="none"/>
    </g>
    <g id="Rectangle_3579-8" data-name="Rectangle 3579" transform="translate(21 509)" fill="#fff" stroke="#707070" stroke-width="1">
      <rect width="119" height="119" stroke="none"/>
      <rect x="0.5" y="0.5" width="118" height="118" fill="none"/>
    </g>
  </g>
</svg>
