<svg xmlns="http://www.w3.org/2000/svg" viewBox="0 0 587.51 767.06"><defs><style>.cls-1{fill:#fff3ce;}.cls-2{fill:#fbc62f;}.cls-3{fill:#fff;}.cls-4{fill:#29434c;}.cls-5{fill:#fddd70;}</style></defs><g id="Layer_2" data-name="Layer 2"><g id="Layer_1-2" data-name="Layer 1"><path class="cls-1" d="M183.42,92.3c31.6-30.95,87.66-44.43,131-29.58,37.11,12.72,61.19,44.93,66.59,52.16,3.15,4.21,16,21.84,26.39,53.49,13.77,41.95,10.53,69.81,12.67,101.43,3.07,45.26,15.68,76.17,38,131,41.26,101.19,75,102.2,80.29,147.91,9.76,83.52-89.09,196.75-207.07,215.53-145.61,23.17-292.28-102-291.6-198.63.46-66.19,69.7-67.58,109.88-169C204.39,258.25,116.41,158,183.42,92.3Z"/><path class="cls-1" d="M411.63,3.56c-21.82-18.89-133.37,41.16-126.78,93,2.71,21.31,25.38,41,46.49,42.26,40.32,2.35,66.69-63.25,71.84-76.07C410.33,44.94,423,13.4,411.63,3.56Z"/><path class="cls-1" d="M239.46,127.62C237.18,64.78,197.13-3.89,168.43.17c-21.64,3.07-37.33,47.57-33.75,83.27,6.08,60.6,69,108.69,92.06,97.79C241.16,174.44,240.08,144.64,239.46,127.62Z"/><path class="cls-2" d="M259.49,223.31c2.45-9-224.44-85.6-228.21-76.07C29,153,85.87,170.1,178.32,198.75,192.38,203.11,258.37,227.46,259.49,223.31Z"/><path class="cls-3" d="M344.68,119.71c-8.08-11.49-25.31-18.71-39.23-12-16.08,7.76-20.06,30.4-12,45.77,7.35,14,25.22,22.94,39.23,17.44C350.32,164,356.37,136.34,344.68,119.71Z"/><path class="cls-2" d="M239.77,234.31C240,225,1.4,204.61,0,214.76c-.83,6.1,58.45,9.2,155.07,15C169.78,230.67,239.66,238.6,239.77,234.31Z"/><path class="cls-4" d="M323.46,143.48c-2.57-3.65-8-5.94-12.47-3.81-5.11,2.47-6.38,9.67-3.81,14.55,2.33,4.45,8,7.3,12.47,5.55C325.25,157.56,327.17,148.77,323.46,143.48Z"/><path class="cls-2" d="M253.26,253.9c-1.83-9.18-239.06,23.46-238.18,33.67.53,6.13,59.05-3.88,154.57-19.46C184.18,265.74,254.1,258.11,253.26,253.9Z"/><path class="cls-2" d="M331.25,217.4c-2.42-9,221.64-85.61,225.36-76.07,2.23,5.72-53.9,22.85-145.2,51.51C397.52,197.2,332.36,221.54,331.25,217.4Z"/><path class="cls-2" d="M350.73,228.39c-.23-9.35,235.4-29.7,236.77-19.54.82,6.09-57.73,9.2-153.14,15C419.85,224.75,350.83,232.69,350.73,228.39Z"/><path class="cls-2" d="M337.4,248c1.82-9.18,236.09,23.47,235.22,33.68-.52,6.13-58.31-3.89-152.65-19.47C405.62,259.83,336.57,252.19,337.4,248Z"/><path class="cls-4" d="M320.51,222.29a11.56,11.56,0,0,0-12.64-1.37c-8.19,4-12.84,18.08-8.23,25.38s18.25,7.11,23.52-2.06C326.91,237.71,326.15,227.17,320.51,222.29Z"/><path class="cls-4" d="M288,222.29a11.56,11.56,0,0,0-12.64-1.37c-8.19,4-12.84,18.08-8.23,25.38s18.25,7.11,23.52-2.06C294.36,237.71,293.6,227.17,288,222.29Z"/><path class="cls-5" d="M204.73,105.88c9.11-20-3.17-41.27-9.82-52.76-5.54-9.59-20.34-31.29-29.44-28.21-9.92,3.35-7.3,34.16-6.14,47.84,1.61,18.88,4.32,50.71,18.41,54C187.46,129,199.68,117,204.73,105.88Z"/><path class="cls-5" d="M395.71,15.33c-6.66-5.53-32.85,16.8-40.49,23.31-18.41,15.7-32,27.27-29.44,40.49,2.12,11,15.05,21,25.76,19.63C356,98.2,362,95.44,377.31,65.63,391.25,38.45,400.91,19.65,395.71,15.33Z"/><path class="cls-3" d="M263.26,124C255.18,112.53,238,105.31,224,112,208,119.8,204,142.44,212,157.8c7.35,14,25.22,22.95,39.23,17.44C268.9,168.31,275,140.65,263.26,124Z"/><path class="cls-4" d="M242,147.8c-2.57-3.65-8-6-12.47-3.81-5.11,2.47-6.38,9.66-3.81,14.55,2.34,4.45,8,7.29,12.47,5.54C243.83,161.88,245.76,153.09,242,147.8Z"/></g></g></svg>