<svg xmlns="http://www.w3.org/2000/svg" viewBox="0 0 421.59 367.81"><defs><style>.cls-1{fill:#d46d5c;}.cls-2{fill:#5a4217;}.cls-3{fill:#f4dbd6;}.cls-4{fill:#ca4b35;}</style></defs><g id="Layer_2" data-name="Layer 2"><g id="Layer_1-2" data-name="Layer 1"><path class="cls-1" d="M162.86,367.79a189.55,189.55,0,0,1-23.2-1.13C90.38,361.36,18.51,341,3.48,282.46-7.43,240,8.59,195.09,33.36,169.16c11.15-11.69,24.08-19.53,37.12-21.56,70.78-11,37.05,35.26,58.6,28.8,13.73-4.12,1.23-19.42,26.85-30.55,30.9-13.41,70-24.38,109.05,37.53C295.58,231.87,286,366,162.86,367.79Z"/><path class="cls-2" d="M137.12,177.36c15.4-26.43-8.36-71.84-13.67-102.09-5.27-30-5.82-60.17-20.89-64.62-8.24-2.43-18.63,8.39-22,21C76.05,48.56,96.66,48.26,104.81,83.9c12.89,56.34,1.81,98.36,13.06,106.31C124.39,194.82,133.11,184.25,137.12,177.36Z"/><path class="cls-3" d="M212.9,168.26c15-1.78,25.06,21.11,27.67,27.06,1.41,3.2,13.26,31,.82,44.51-6.62,7.16-19,9.07-22.79,4.36-4.33-5.37,6.25-14.73,3.25-27.05-3.89-16-25.68-16.24-26.85-28.8C194.18,179.64,203.65,169.36,212.9,168.26Z"/><path class="cls-3" d="M198.25,234.59c4.91-5.5,6.54-14.71,2.45-20.94-5.19-7.9-17.93-8.56-24.42-.88-6.17,7.31-5,20.16,2.44,25.31C184.85,242.32,193.37,240.07,198.25,234.59Z"/><path class="cls-1" d="M228.21,106.39c-11.64,19.24-17.69-37.72-62.77,18-26.73,33-12.31,109.86,40.79,145,50.4,33.32,117.37.22,157.47-28.92,118-85.73,28.49-203.64-30-220C263.18.68,241.54,35,227.63,65.72,216.1,91.15,235.63,94.12,228.21,106.39Z"/><path class="cls-2" d="M234.82,101.71c-6.31-29.93-54.4-47.67-78.63-66.54-24-18.72-44.68-40.72-58.84-33.9C89.61,5,89.17,20,95.12,31.58c8,15.59,23.09,1.54,53,22.5,47.36,33.13,67.33,71.72,81,70.07C237.1,123.2,236.46,109.51,234.82,101.71Z"/><path class="cls-3" d="M284.91,44.12c9.94-11.38,32.75-1.15,38.67,1.5,3.2,1.43,30.66,14.13,30.47,32.46-.1,9.75-8,19.47-14,18.53-6.82-1.08-5.25-15.12-15.74-22.25C310.7,65.09,294.4,79.55,285.1,71,278.67,65.12,278.79,51.14,284.91,44.12Z"/><path class="cls-3" d="M318.55,103.14c-.05-7.38-5-15.3-12.24-17.17-9.14-2.38-19,5.67-18.69,15.73.32,9.55,9.8,18.31,18.79,17.13C313.79,117.86,318.6,110.48,318.55,103.14Z"/><path class="cls-4" d="M182.79,140c-20,12.9-10.84,52-10.44,53.67C182.43,234.49,225.63,252,229,253.3c49.49,19.19,100.76-8.71,99.88-14.91-.46-3.28-15.53-.33-47.7-6-36.38-6.38-66.4-11.64-76-31.31-11.51-23.52,13.74-52.07,1.49-62.61C200.61,133.32,189.32,135.8,182.79,140Z"/><path class="cls-4" d="M39.68,199.63c-19.55,17.35-18.38,46-17.89,58.14.37,9.12,1.71,33.51,19.38,55.16,18.07,22.13,42.23,27.91,62.61,32.79,38.48,9.21,74.34,3.75,74.54,0,.18-3.47-30.44-2-70.07-19.38-21.54-9.46-56.79-24.93-61.12-52.17-2.26-14.25,4.51-28,13.42-46.22,12.13-24.74,24.23-33.61,20.87-38.75C77.44,183.1,54.48,186.5,39.68,199.63Z"/></g></g></svg>