<svg xmlns="http://www.w3.org/2000/svg" viewBox="0 0 408.2 459.73"><defs><style>.cls-1{fill:#97bb45;}.cls-2{fill:#5a4217;}.cls-3{fill:#eaf1d8;}</style></defs><g id="Layer_2" data-name="Layer 2"><g id="Layer_1-2" data-name="Layer 1"><path class="cls-1" d="M185.39,174.4c-33.35,9.68,16.89-69.57-90.71-43.1C47.5,142.91-19.26,238.89,5.24,331.14c23.26,87.59,120.1,134.43,196.53,128,135-11.34,244.18-197.41,194-274.3C335.3,92.2,274.79,108.61,227,128.69,187.3,145.34,206.65,168.24,185.39,174.4Z"/><path class="cls-2" d="M198.81,179.2c20.88-26.61,9.07-76.56,1.87-107C193.53,42,184.77,4.94,164.33.46c-11.17-2.44-25.26,5-29.82,17.64-6.12,17,9.45,31.16,20.5,67,17.48,56.71,2.46,99,17.71,107C181.56,196.77,193.37,186.13,198.81,179.2Z"/><path class="cls-3" d="M315.15,158.73c23.22-2.66,38.79,31.59,42.83,40.49,2.18,4.79,20.52,46.46,1.26,66.62-10.24,10.71-29.4,13.58-35.28,6.53-6.7-8.05,9.68-22.05,5-40.5-6-24-39.75-24.3-41.57-43.1C286.17,175.76,300.82,160.37,315.15,158.73Z"/><path class="cls-3" d="M292.47,258c7.6-8.24,10.12-22,3.78-31.35-8-11.81-27.75-12.81-37.79-1.31-9.55,10.93-7.77,30.17,3.78,37.88C271.72,269.56,284.91,266.2,292.47,258Z"/></g></g></svg>