<svg xmlns="http://www.w3.org/2000/svg" viewBox="0 0 544.71 893.48"><defs><style>.cls-1{fill:#c0d68c;}.cls-2{fill:#fff;}.cls-3{fill:#29434c;}</style></defs><g id="Layer_2" data-name="Layer 2"><g id="Layer_1-2" data-name="Layer 1"><path class="cls-1" d="M462.44,61.37c-4.16,14.79-15.86,20.83-31.66,25.69C401.53,96,323.06,124.2,285.44,198.33c-52.51,103.49,8.67,229.23,62.63,294.35C433.37,595.62,525.43,577,542.21,643c22.3,87.76-107.29,251.11-269.3,250.5C123.94,892.92,22.43,754,3.62,643-12,551,26.36,495.59,49.56,495.39,69,495.22,82.7,519.77,85,530.25,99.25,594.13,83,616.46,91.3,661.77c9.68,52.7,48.1,111.81,106.46,137.77,75,33.37,157.48,23.79,209.61-29.22,23.14-23.53,65.15-56.5,45.6-102.24-20-46.67-102.22-68.28-142.48-100.25-105.58-83.85-147.71-246.77-92-384.77C262.74,73.33,358.68-21.3,417,4.19,446.09,16.94,467.82,42.28,462.44,61.37Z"/><path class="cls-2" d="M418.27,26.11C410.19,14.62,393,7.4,379,14.12,363,21.88,359,44.53,367.05,59.89c7.35,14,25.22,22.94,39.23,17.44C423.91,70.4,430,42.74,418.27,26.11Z"/><path class="cls-3" d="M397.05,49.89c-2.57-3.66-8.05-6-12.47-3.81-5.11,2.46-6.38,9.66-3.81,14.54,2.33,4.45,8,7.3,12.47,5.55C398.84,64,400.77,55.17,397.05,49.89Z"/></g></g></svg>