<svg xmlns="http://www.w3.org/2000/svg" xmlns:xlink="http://www.w3.org/1999/xlink" width="283.1" height="175.28" viewBox="0 0 283.1 175.28">
  <defs>
    <clipPath id="clip-path">
      <rect id="Rectangle_3288" data-name="Rectangle 3288" width="283.1" height="175.28" fill="none"/>
    </clipPath>
  </defs>
  <g id="Logo" transform="translate(141.55 87.64)">
    <g id="Logo-2" data-name="Logo" transform="translate(-141.55 -87.64)" clip-path="url(#clip-path)">
      <path id="Path_513635" data-name="Path 513635" d="M278.3,94.5l-.4-2.1-.5-2.2V90h0l-.2-.6.3,1.1v.6h0L278,93c.2,1.1.4,2.1.6,3.1a8.752,8.752,0,0,1-.2-1.6m.7,6v0m-59.3,37.7h0m-.5-.2h0m-3,.5-1,.6-.2.2-.4.4a11.2,11.2,0,0,1,2.3-1.4h.1l-.8.3m45.5-74.4a53.343,53.343,0,0,1,4,4.2,49.2,49.2,0,0,0-4-4.2" fill="#3c3c3b"/>
      <path id="Path_513636" data-name="Path 513636" d="M220.5,95.2a129.8,129.8,0,0,1-3.4,20.2c-.3,1.3-2.8,7.9-7.7,21.2a10.6,10.6,0,0,1-3.4,4.9c-2.3,1.7-5.9,2.8-7.3,1.4s.4-5,3.1-11.8c0,0,3.2-8.1,6.4-18.9,1.5-5.2.5-2.9,4.4-19.9a46.5,46.5,0,0,0,1-11.2c-.1-2.3-.1-5.3-.8-5.4s-4,9.6-5.6,16.4c-2.9,12.5-2.1,16.8-6.4,21.6-2.4,2.6-6.5,5.5-8.5,4.3s-1-3.8-.2-16.4c0-.4.2-5.3.6-15.3.3-7.6.4-9.5,0-9.5S190,84,188.8,90.3c-2.7,13.5-4.1,20.6-2.3,29.6.9,4.7,2.3,7.6.6,10.8s-8,6.3-10.4,4.6-.9-6,.4-11.8c3.6-16.5.4-11.5,4.4-29.6s6.1-27.2,12.4-29.6c2.6-1,6.4-1.2,7.9.6s-1,6.1-2.3,15.3c-.6,4.7-.8,10.6.1,10.8s3.6-6.8,5-12.1c3.1-11.3,1.8-15.7,6.1-19.8,1.8-1.8,5.4-4.1,7.7-3s2.1,5.5,2,18.1c-.1,16.1.5,14.8,0,21.2" fill="#3c3c3b"/>
      <path id="Path_513637" data-name="Path 513637" d="M219,138.1h-1.8l1.3-.2h.5" fill="#3c3c3b"/>
      <path id="Path_513638" data-name="Path 513638" d="M277.1,89.1a60.8,60.8,0,0,0-2.4-6.3,42.4,42.4,0,0,1,2.4,6.3" fill="#3c3c3b"/>
      <path id="Path_513639" data-name="Path 513639" d="M277.9,116v.2a60.6,60.6,0,0,1-10.2,23.9l.3-.5,1.2-1.9.6-1a64.4,64.4,0,0,0,6.1-13.5c.3-1,.7-2.2,1.1-3.6l.2-.8.2-.8v-.5l.3-1V116" fill="#3c3c3b"/>
      <path id="Path_513640" data-name="Path 513640" d="M277.1,89.1a60.8,60.8,0,0,0-2.4-6.3,42.4,42.4,0,0,1,2.4,6.3" fill="#fbca00"/>
      <path id="Path_513641" data-name="Path 513641" d="M277.9,116v.2a60.6,60.6,0,0,1-10.2,23.9l.3-.5,1.2-1.9.6-1a64.4,64.4,0,0,0,6.1-13.5c.3-1,.7-2.2,1.1-3.6l.2-.8.2-.8v-.5l.3-1V116" fill="#fbca00"/>
      <path id="Path_513642" data-name="Path 513642" d="M98.3,39.9a1.2,1.2,0,0,1-.9.5,1.3,1.3,0,0,1-1.2-.8A1.6,1.6,0,0,1,96,39c0-.4.1-.8.2-.8s.2.9.5.9.3-.3.3-.6-.6-.4-.5-.6.4-.3.8-.3a1.578,1.578,0,0,1,1.1,2.2" fill="#fff"/>
      <path id="Path_513643" data-name="Path 513643" d="M112.9,35.4a8,8,0,0,1,.2,3.9,18.4,18.4,0,0,1-4.2-7.9,24.542,24.542,0,0,1-.8-2.9h.2c2.1.2,4,4.4,4.6,7" fill="#fff"/>
      <path id="Path_513644" data-name="Path 513644" d="M234.8,83a34.5,34.5,0,0,1,2-4.7h0c1.2-2.2,2.8-4.2,4.8-4.3s2.3-1.7,10.1,8.4h0c3.9,5,3.6,9.5,3.1,10.7s-2.6,1.1-12.5,3.2c-5,1-5.9-.4-7.2-1.2-3.3-2.2-2-7.9-.5-12.1m3.2,26.3c4.7-4,9.3-1.9,17.1-4.4,3.8-1.2,8.8-2.8,10.6-6.8.6-1.3,1.7-4.7-4.4-15.7s-11.7-21-21.6-22.8c-1.2-.2-7.8-1.4-11.5,2.4s-2.3,8.9-1.5,17.8c.4,4.8.6,9.4.7,13.8.1,8.1-.3,15.7-.7,23.4v2.6h0c-.4,6.3-.8,10.6.2,15.3a29.7,29.7,0,0,0,1.1,4A34.9,34.9,0,0,0,230,144a16.5,16.5,0,0,0,6.1,6.4,17,17,0,0,0,14.8,1.2c2.4-1,4.6-3.4,8.9-8.3s4.9-6.7,5-8.6.3-4.5-2.1-5.9-6.8,1-8,1.8c-4.7,3-4.5,6.2-9,8.2a8.5,8.5,0,0,1-5.9.8c-3.2-1-4.7-4.4-5.8-6.9s-4.3-10.6.6-19.2a14,14,0,0,1,3.3-4.1" fill="#fff"/>
      <path id="Path_513645" data-name="Path 513645" d="M220.5,95.2a129.8,129.8,0,0,1-3.4,20.2c-.3,1.3-2.8,7.9-7.7,21.2a10.6,10.6,0,0,1-3.4,4.9c-2.3,1.7-5.9,2.8-7.3,1.4s.4-5,3.1-11.8c0,0,3.2-8.1,6.4-18.9,1.5-5.2.5-2.9,4.4-19.9a46.5,46.5,0,0,0,1-11.2c-.1-2.3-.1-5.3-.8-5.4s-4,9.6-5.6,16.4c-2.9,12.5-2.1,16.8-6.4,21.6-2.4,2.6-6.5,5.5-8.5,4.3s-1-3.8-.2-16.4c0-.4.2-5.3.6-15.3.3-7.6.4-9.5,0-9.5S190,84,188.8,90.3c-2.7,13.5-4.1,20.6-2.3,29.6.9,4.7,2.3,7.6.6,10.8s-8,6.3-10.4,4.6-.9-6,.4-11.8c3.6-16.5.4-11.5,4.4-29.6s6.1-27.2,12.4-29.6c2.6-1,6.4-1.2,7.9.6s-1,6.1-2.3,15.3c-.6,4.7-.8,10.6.1,10.8s3.6-6.8,5-12.1c3.1-11.3,1.8-15.7,6.1-19.8,1.8-1.8,5.4-4.1,7.7-3s2.1,5.5,2,18.1c-.1,16.1.5,14.8,0,21.2" fill="#fff"/>
      <path id="Path_513646" data-name="Path 513646" d="M100.6,34.5l-1.2-1.1a2.8,2.8,0,0,0-1.6-.8,3.4,3.4,0,0,0-3,1.4,4,4,0,0,0-.6,3.2c.6,2.8,2.9,4,6.7,5.9l2.5,1.2h.6c.1-.1.4-.4.3-1.5a16.2,16.2,0,0,0-3.8-8.1M98.2,40a1.2,1.2,0,0,1-.9.5,1.3,1.3,0,0,1-1.2-.8A1.6,1.6,0,0,1,96,39c0-.4.1-.8.2-.8s.2.9.5.9.3-.3.3-.6-.6-.4-.5-.6.4-.3.8-.3a1.578,1.578,0,0,1,1.1,2.2" fill="#fff"/>
      <path id="Path_513647" data-name="Path 513647" d="M113,39.2a3.4,3.4,0,0,1-.3.8l-.4.5a2.3,2.3,0,0,1-2.2.9c-1.3-.3-2.2-1.6-2.9-2.7a11.5,11.5,0,0,1-1.8-5.5,10.3,10.3,0,0,1,0-1.5,4.1,4.1,0,0,1,.4-1.6c.1-.1.9-1.8,2.3-1.8s.5,2,.8,2.9a18.4,18.4,0,0,0,4.2,7.9" fill="#fff"/>
      <path id="Path_513648" data-name="Path 513648" d="M127.5,32.3c.5,1.9,1,3.6.6,5h0a6.8,6.8,0,0,1-2.5,2.5l-1.2.5h-.1a11.1,11.1,0,0,1-2.8.2h0a11.8,11.8,0,0,1-5.8-2.4c-2.7-2.1-3.4-4.7-4.8-9.7a19.8,19.8,0,0,1-.8-6.3h0a15,15,0,0,1,.5-2.5,10.9,10.9,0,0,1,1.4-2.7l.4-.6h0l.4-.2c.3-.1.8-.1,3.3,1.7A26.9,26.9,0,0,1,120,21c2.4,2.4,5.9,5.9,7.4,11.3" fill="#fff"/>
      <path id="Path_513649" data-name="Path 513649" d="M106.7,55.8h0l-1.6-.2c-.9-.1-2.8-.6-5.4-.9a30.4,30.4,0,0,1-4.3-.5,10.6,10.6,0,0,1-2.4-.8c-1-.5-1.1-.8-1.6-1v-.3a1.3,1.3,0,0,1,0-.4l1.2,1.1a7.6,7.6,0,0,0,3.1,1.3l2.4.3,1.9.2,2.9.4,3.8.8h.1" fill="#fff"/>
      <path id="Path_513650" data-name="Path 513650" d="M93.9,53.1l-.5.4h-.2l-.2.2h-.2l-.4-.2h.9a2.4,2.4,0,0,0,.8-.7v-.2l.2-.4a5.947,5.947,0,0,0,.3-.7,1.2,1.2,0,0,1-.1.8l-.2.4v.2h0l-.3.3" fill="#fff"/>
      <path id="Path_513651" data-name="Path 513651" d="M96.7,53.6l-.4.7h-.1l-.5.4h-.2l.4-.4H96l.5-.7v-.2l.2-.6a1.6,1.6,0,0,0,.1-.7V52h.1a.8.8,0,0,1,0,.7h0l-.3.8" fill="#fff"/>
      <path id="Path_513652" data-name="Path 513652" d="M99,52.8l.2.3v.3a1.6,1.6,0,0,1,0,.5h0v.6h0V55h-.5l.3-.5h0V54h0a3.2,3.2,0,0,0,.1-.6,1,1,0,0,0,0-.3v-.2" fill="#fff"/>
      <path id="Path_513653" data-name="Path 513653" d="M101.3,53.4l.2.2a.7.7,0,0,1,.1.5h0a1.6,1.6,0,0,0,0,.3v.5a1.6,1.6,0,0,0,0,.2h0a4.2,4.2,0,0,0,0,.5h-.3a1.1,1.1,0,0,0,.1-.5v-.2a4.6,4.6,0,0,1,0-.5V54a.9.9,0,0,0-.1-.5h0" fill="#fff"/>
      <path id="Path_513654" data-name="Path 513654" d="M103.3,54v.2a.8.8,0,0,1,.1.4,1,1,0,0,1,0,.2h0v1.1h-.2v-.5h0V53.9" fill="#fff"/>
      <path id="Path_513655" data-name="Path 513655" d="M105.2,54.5a.8.8,0,0,1,.1.4h0v.9a1.2,1.2,0,0,0,0,.5h-.2a4,4,0,0,0,0-.4.7.7,0,0,1,0-.1v-.2a1.8,1.8,0,0,0-.1-.4V55h0v-.5h.1" fill="#fff"/>
      <path id="Path_513656" data-name="Path 513656" d="M106.4,57.5v.2h-.7l-1.3.2h0a.7.7,0,0,1,0,.2h0a.9.9,0,0,0,0,.1v.7h-.2V59h0v-.2a1.8,1.8,0,0,0,0-.2.7.7,0,0,0,0-.2v-.2h0l-1.8.3h0a.3.3,0,0,1,0,.1h0v.6a1.2,1.2,0,0,0,0,.2h-.2v-.2h0V59a.6.6,0,0,0,0-.1q0-.15,0-.3h0v-.2l-1.5.2h-.5a.3.3,0,0,1,0,.1h0a.4.4,0,0,0,0,.1v.6q0,.1,0,.2H100V59a1.8,1.8,0,0,0,0-.2v-.1l-2.3.3a.3.3,0,0,1,0,.1,1.7,1.7,0,0,1,0,.4h0v.8h-.5v-.9h0V59h0l-2.3.2h0v1.2h0l-.2.4H94l.4-.5v-.2h.1l.2-.5v-.3H92.4v.2h-.1l-.3.4-.3.4h-.1l-.3.3H91l.2-.2h.1l.4-.4h.1l.2-.2h0v-.2h-.7l-1.5-.5h0l.2-.2.6.3,1.5.4v-.4c0-.3,0-.6.1-.6v.2a1.2,1.2,0,0,1,0,.5V59a10.5,10.5,0,0,0,2.1.1H95v-.2a1.2,1.2,0,0,0,0-.5.349.349,0,0,0-.1-.2l.2.2a1.1,1.1,0,0,1,.1.6h0l1.8-.2h.6a1,1,0,0,0,0-.4V58l.2.3a1,1,0,0,1,.1.4h0l1.9-.2h.4V58l.2.2v.2l2-.3h0v0h0l1.8-.3h0v0h.7l1.4-.2" fill="#fff"/>
      <path id="Path_513657" data-name="Path 513657" d="M107.6,57.4v.1l-1.2.2v-.2h1.2" fill="#fff"/>
      <path id="Path_513658" data-name="Path 513658" d="M111.9,53.1v.2a1.3,1.3,0,0,1-.3.6,1.8,1.8,0,0,1-.6.6l-.8.5-1.3.5c-.4,0-.1-.8,0-.9a.6.6,0,0,1,.4-.2c.2,0,.3.2.4.2l.5-.2.8-.4a1.4,1.4,0,0,0,.4-.6c.1-.2,0-.4.1-.4h.3a.192.192,0,0,1,.1.3" fill="#fff"/>
      <path id="Path_513659" data-name="Path 513659" d="M113.9,56.4l-.2.3a1.8,1.8,0,0,1-.6.6,2.6,2.6,0,0,1-1.1.5l-1.3.3h-2c-.6-.2.3-1.1.4-1.2a.9.9,0,0,1,.7-.1c.3.1.3.4.5.4h.8l1.2-.3a2,2,0,0,0,.8-.7c.2-.3.1-.5.4-.5h.4c.2.1.2.3,0,.5" fill="#fff"/>
      <path id="Path_513660" data-name="Path 513660" d="M108.3,59.7a.9.9,0,0,0-.8.8,1.2,1.2,0,0,0,.4,1,1.6,1.6,0,0,0,.7.4l2.9.7c2.1.4,2.5.2,2.8,0s.4-.6.2-.7-.5.1-1.1.2a4.9,4.9,0,0,1-1.7-.1c-1.2-.2-1.8-.3-2.2-.7s-.1-.4-.5-.8-.5-.7-.8-.7" fill="#fff"/>
      <path id="Path_513661" data-name="Path 513661" d="M105.6,64.7c-.1.2.2.7.3.8a8.1,8.1,0,0,0,1.3,1.2c1.4.8,1.7.2,2.1.8s.3.6.1.8-1,.1-1.2,0a20.41,20.41,0,0,1-2.7-2.2c-1.4-1.3-1.5-1.1-1.5-1.6s1.1-1.2,1.5-1.2.2.4.1.6a4.6,4.6,0,0,0-.2.6" fill="#fff"/>
      <path id="Path_513662" data-name="Path 513662" d="M125.1,43.1c-.3,1.7-.5,3.5-.8,5.2s0,.2,0,3.6-.4,5.6-.1,7.7a5.1,5.1,0,0,1,.1,1.4c-.1,0-.2-.4-.3-.7a6.1,6.1,0,0,1-.2-2.7c.2-1.2.1-2.4.2-3.6.2-3.1-.3-2.9-.1-6.2a38.529,38.529,0,0,1,.6-4.7.5.5,0,0,1,.1-.3.683.683,0,0,1,.5-.3c.1,0,.1.3.1.4" fill="#fff"/>
      <path id="Path_513663" data-name="Path 513663" d="M124.8,58.3a.4.4,0,0,0-.3-.2h-.3a.5.5,0,0,0-.2.5.3.3,0,0,0,.3.3h.3a.3.3,0,0,0,.2-.3.7.7,0,0,0-.1-.3" fill="#fff"/>
      <path id="Path_513664" data-name="Path 513664" d="M108.7,82.6a4.1,4.1,0,0,0-2.2-2.5c-2.1-.9-4.3.4-4.8.7-2.2,1.3-3.8,3.2-3.4,5.2s1.2,1.5,2.9,2.3,5,1.2,6.5-.3a5.1,5.1,0,0,0,1-5.3" fill="#27424c"/>
      <path id="Path_513665" data-name="Path 513665" d="M279.1,100.5v0" fill="#27424c"/>
      <path id="Path_513666" data-name="Path 513666" d="M279.2,103v-.8h0V101a3.4,3.4,0,0,0-.1-1V98.7h0V98h0v-.3l-.2-1.4a16.959,16.959,0,0,0-.6-3.1l-.4-1.8h0v-.6l-.3-1.1v-.3a61.388,61.388,0,0,0-2.4-6.3h0a59.6,59.6,0,0,0-7.6-12.7l-.7-.8-.8-.9a53.342,53.342,0,0,0-4-4.2l-.4-.4h-.1l-.5-.5H261l-2.3-1.9-4-2.9h0a86.8,86.8,0,0,0-14-7.6h0a71,71,0,0,1-8.4-3.3h-.2a36.7,36.7,0,0,1-6.9-3.4h0l-2.8-2.1A42.8,42.8,0,0,0,213,45a55.3,55.3,0,0,0-22.4,16c-11.9,13.6-13.9,28.2-17.7,57.2-1.4,10.8-1.5,16.7,1.8,22.7s8.8,11.3,15.2,13c7-2.1,12-4,17.7-7.9,3.1-2.1,5.6-4.3,7.5-5.7h0l.4-.4.2-.2,1-.6.8-.3h.3l1.3-.2h.7l.5.2h.3a6.8,6.8,0,0,1,2.2,2.2,37.1,37.1,0,0,1,3.6,6.8,25.9,25.9,0,0,0,2.4,4.1,8.5,8.5,0,0,0,1.8,1.6,18.9,18.9,0,0,0,6,2.5h.2l1.3.3a26.2,26.2,0,0,0,11.6-.3h.5a25,25,0,0,0,10.1-5.8l.8-.8.6-.7.4-.4.2-.3.3-.3,2.4-3,.8-1V143l.6-.8,1.5-2.1h0l.3-.5,1.2-1.9.6-1a74.5,74.5,0,0,0,7.2-17l.2-.8.2-.8v-.5l.3-1.1v-.7l.2-1.1.2-1h0v-1.4c.1-1,.3-2.1.4-3.3v-1.2c0-.5.1-1.1.1-1.7v-2.9m-58.7-7.9a130,130,0,0,1-3.4,20.2c-.3,1.3-2.8,7.9-7.7,21.2a10.6,10.6,0,0,1-3.4,4.9c-2.3,1.7-5.9,2.8-7.3,1.4s.4-5,3.1-11.8c0,0,3.2-8.1,6.4-18.9,1.5-5.2.5-2.9,4.4-19.9a46.5,46.5,0,0,0,1-11.2c-.1-2.3-.1-5.3-.8-5.4s-4,9.6-5.6,16.4c-2.9,12.5-2.1,16.8-6.4,21.6-2.4,2.6-6.5,5.5-8.5,4.3s-1-3.8-.2-16.4c0-.4.2-5.3.6-15.3.3-7.6.4-9.5,0-9.5s-2.7,7.1-3.9,13.5c-2.7,13.5-4.1,20.6-2.3,29.6.9,4.7,2.3,7.6.6,10.8s-8,6.3-10.4,4.6-.9-6,.4-11.8c3.6-16.5.4-11.5,4.4-29.6s6.1-27.2,12.4-29.6c2.6-1,6.4-1.2,7.9.6s-1,6.1-2.3,15.3c-.6,4.7-.8,10.6.1,10.8s3.6-6.8,5-12.1c3.1-11.3,1.8-15.7,6.1-19.8,1.8-1.8,5.4-4.1,7.7-3s2.1,5.5,2,18.1c-.1,16.1.5,14.8,0,21.2M265.8,98c-1.8,4-6.9,5.6-10.6,6.8-7.9,2.5-12.4.4-17.1,4.4a14,14,0,0,0-3.3,4.1c-4.9,8.6-1.2,17.8-.6,19.2s2.6,6,5.8,6.9a8.5,8.5,0,0,0,5.9-.8c4.5-2,4.3-5.2,9-8.2,1.2-.8,5.4-3.4,8-1.8s2.1,5.4,2.1,5.9-.9,3.9-5,8.6-6.4,7.3-8.9,8.3a17,17,0,0,1-14.8-1.2,16.5,16.5,0,0,1-6.1-6.4,34.9,34.9,0,0,1-2.2-5.1,30.1,30.1,0,0,1-1.1-4c-1-4.7-.6-8.9-.2-15.3h0c0-.8.1-1.7.1-2.6.4-7.7.8-15.4.7-23.4-.1-4.5-.3-9-.7-13.8-.8-8.8-2.1-14.3,1.5-17.8s10.3-2.6,11.5-2.4c9.9,1.7,15.3,11.4,21.6,22.8s5,14.3,4.4,15.7" fill="#27424c"/>
      <path id="Path_513667" data-name="Path 513667" d="M254.9,93.2c-.8,2-2.6,1.1-12.5,3.2-5,1-5.9-.4-7.2-1.2-3.3-2.2-2-7.9-.5-12.1a34.6,34.6,0,0,1,2-4.7h0c1.2-2.2,2.8-4.2,4.8-4.3s2.3-1.7,10.1,8.4h0c3.9,5,3.6,9.5,3.1,10.7" fill="#27424c"/>
      <path id="Path_513668" data-name="Path 513668" d="M17.1,123.2c-2.5-.9-5.9.3-7.7,2.6a7.8,7.8,0,0,0-.7,8.1c1.1,2.2,3.7,4.5,5.5,4s3.6-3.4,4.2-4.4.5-1,.9-.9.2.1.4.5c1.4,3.8.3,9.3.3,9.3-.7,3.8-1.2,4.3-1.7,4.5a8.394,8.394,0,0,1-4.5-1c-1.1-.8-2.8-3.2-4.3-3.9s-1.3,0-1,1.1a10.6,10.6,0,0,0,5.7,5.1c.9.3,4.4,1.6,6.4-.1s1-3.5,1.3-5.9c.7-5.9.4-17-4.8-18.9m-.9,10.2c-.9,1.4-2.6,2.6-3.9,1.6a3.853,3.853,0,0,1-1.3-3.2,6.8,6.8,0,0,1,1.6-5.6c.3-.3,1.7-1.5,2.9-.7a4.1,4.1,0,0,1,1.3,2.5,7.6,7.6,0,0,1-.6,5.2" fill="#27424c"/>
      <path id="Path_513669" data-name="Path 513669" d="M35.5,117.6c-2.3.8-1.5.1-2.4.3s-2.6,1-3.8,4.9-1,5.4,0,11c.2,1.3.7,4,1.1,7.7s.3,5.2-1.6,5.8a6.2,6.2,0,0,1-4.3-.3c-1.5-.9.1-2.4.5-4s.3-1-.3-11.4a65.5,65.5,0,0,1,0-8.3c.2-4,.7-4.7,1.4-5.4,3.9-3.8,8.5-6.9,10.4-5.4s.7,4.5-1,5.1" fill="#27424c"/>
      <path id="Path_513670" data-name="Path 513670" d="M54.1,117.2a33.8,33.8,0,0,0-1.9-6.9,1.9,1.9,0,0,0-1.1-1.1,8.7,8.7,0,0,0-4.9-.6c-3.4.7-5.3,3.4-6.5,5.3-3.3,4.9-3.5,11-3.8,23.1-.1,4.4,0,6.9,1.8,8.2s6.4,0,6.9-.2,3.4-2,5.9-6.5a35.4,35.4,0,0,0,3.7-21.3m-4,15.4c-2,3.3-5.9,5.8-8.7,3.7s-2.9-5.8-3-7.1c-.5-4.4.6-9.7,3.6-12.5.6-.6,3.8-3.4,6.6-1.5s2.7,4.3,3,5.7,1.6,6.9-1.4,11.8" fill="#27424c"/>
      <path id="Path_513671" data-name="Path 513671" d="M90.6,86.8c.1,1.4-1.3,2.5-1.7,2.9-2.3,2.1-3,5.5-4.2,13.4-1.8,11.8-2.7,17.6-2.8,21.1-.3,7.1.2,14.1-3,20-1,1.9-2.3,3.5-4.1,3.8s-4.5-1.6-4.8-1.9c-3.3-3.2-3.9-10.1-3.7-13.9.1-.8.2-2.6-.8-3.3a2,2,0,0,0-2.1,0c-1,.6-1,2.2-1.1,3.5a37.2,37.2,0,0,1-2.1,9.9c-.7,1.9-1.5,3.6-3,4a3,3,0,0,1-3.2-1.2,2.5,2.5,0,0,1,.1-2c1.8-4.6.6-41.4,1.7-44.1a1.7,1.7,0,0,1,.6-.7,2.3,2.3,0,0,1,1.9,0c1.7.6,2.4,2.8,2.6,3.4.7,2.4.2,4.1-.4,7.9a79.4,79.4,0,0,0-1.1,9.9c-.1,1.5-.3,6.6.7,6.8s1-2,3.2-4.6c.7-.8,3.4-4,5.1-3.4s1.3,1.1,1.8,6.7.2,9.5,2.1,12.5c.3.5,1.7,2.7,2.9,2.4s1.5-2.3,1.9-7a94.3,94.3,0,0,0,.1-12.7C76.5,110,79,102.1,81,96c1.2-3.8,3.9-12.2,7-12.1a3.4,3.4,0,0,1,2.8,2.9" fill="#27424c"/>
      <path id="Path_513672" data-name="Path 513672" d="M105.1,97.9a16.4,16.4,0,0,1-3.7,7.8c-11.8,14.1-10,32-9.6,34.5s.6,2.8,2.1,3.3,5.3-2,6.7-1.2.5,3-1.1,4.5S93.7,149,93,149a11.3,11.3,0,0,1-7.6-2.6c-2.8-2.8-1-6.8.7-11.7,5.5-15.9,1.6-19.2,6.7-27.9,2.2-3.8,5.8-8.3,6-11.5a3.6,3.6,0,0,1,1.2-2.6,4.5,4.5,0,0,1,3.7-1.2c2.4.7,1.7,5.9,1.6,6.4" fill="#27424c"/>
      <path id="Path_513673" data-name="Path 513673" d="M133.7,148.7c-.4.8-1.5,3.1-2.5,3s-1.8-1.4-2.8-11.3a158.806,158.806,0,0,1-.7-16.3c.1-13.5-1.4-12.2-1.6-27.2-.2-11.5.6-18.2-1.6-18.8s-3.4,1.8-4.4,3.2a9.8,9.8,0,0,0-1.6,4.8c-1.4,19.8-.7,28-.7,28,1.3,16.1,2.3,29.2-3.9,33.1-1.2.7-4.1,2.1-6,.9s-1.7-4.4-1.6-5.7c1.1-21.2,1.7-31.8,2.5-40.5,1.1-11.6,2.2-18,4.4-31,.4-2.2,1.2-7,4.8-9a8.148,8.148,0,0,1,7.4-.2c6.5,2.5,6.5,14.2,9,34.9.9,7.3,4.9,40-.7,51.9" fill="#27424c"/>
      <path id="Path_513674" data-name="Path 513674" d="M90.4,86.8c0-.4-.2-.4-.3-.5h-.3a1.1,1.1,0,0,0-.4.8.7.7,0,0,0,.2.6.6.6,0,0,0,.4.2c.3,0,.4-.3.4-.5a1.5,1.5,0,0,0,0-.5" fill="#27424c"/>
      <path id="Path_513675" data-name="Path 513675" d="M106.8,54.7a2.2,2.2,0,0,1-.1.8,2.4,2.4,0,0,1,0,.4h0v.5h-.5l-1.5-.2-.6-.2h-.3l-.9-.2h-.2l-1.2-.2H101l-1.4-.2H97.2l-1.4-.2h-.2l-1.3-.4H94l-1-.5h-.1l-.4-.2a2.4,2.4,0,0,1-1-1.1v-.3a1.3,1.3,0,0,1,0-.4,1.4,1.4,0,0,1,.5-.8,2.4,2.4,0,0,1,2.1-.1,67.5,67.5,0,0,1,7.5,2.4,31.6,31.6,0,0,0,5.3,1.4" fill="#27424c"/>
      <path id="Path_513676" data-name="Path 513676" d="M113.4,43c-.3,1.3-3.1,1.9-5.3,1.6s-1.4-.5-1.6-.3,1.9,2.5,4.5,5.5,4.8,5.5,5.2,7.7-1.1,6.2-1.8,7.4a15.5,15.5,0,0,1-5.3,5.1c-2.5,1.7-6.4,4.2-10.9,4-6.7-.2-11.6-6-11.6-6l4.2,2.6c1.9,1.1,2.2,1.2,2.6,1.2s1.6-.1,4.5-3.2c1.4-1.5,1.8-2.1,3.1-3.6,2.8-3.3,3-2.7,4-4.1a9.7,9.7,0,0,0,1-2l.5-.3c.3-.2,1.4-.9,1.3-1.3s-.5-.2-1.3-.1v-.6a14.9,14.9,0,0,0,.2-1.7c.1-1.2,0-2.4,0-3.5a10.5,10.5,0,0,0-.8-3.9,11.9,11.9,0,0,0-2.1-3h.2c.1-.1.4-.4.3-1.5a16.2,16.2,0,0,0-3.8-8.1l-1.2-1.1a2.9,2.9,0,0,1,.5-.9l.5-.4h.1a.454.454,0,0,0,.5,0h0l-.2-.4a4.6,4.6,0,0,1,2.2-.7h.1V32h0c.1.1.4.2.4.1V32l-.2-.7.9.2,1.1.5a10.6,10.6,0,0,0,0,1.5A11.5,11.5,0,0,0,107,39c.7,1.1,1.6,2.5,2.9,2.7a2.3,2.3,0,0,0,2.2-.9l.2.2a3.287,3.287,0,0,1,.9,2.3" fill="#27424c"/>
      <path id="Path_513677" data-name="Path 513677" d="M107.8,57.1c.1.4-1,1.1-1.3,1.3l-.5.3.2-.7v-.6h0V57c.8-.1,1.2-.1,1.3.1" fill="#27424c"/>
      <path id="Path_513678" data-name="Path 513678" d="M101,32.2c0,.1-.4.2-.5,0h-.1l.3-.3.2.4h0" fill="#27424c"/>
      <path id="Path_513679" data-name="Path 513679" d="M103.4,31.1l.2.7v.1s-.4.1-.4-.1h0v-.6h.4" fill="#27424c"/>
      <path id="Path_513680" data-name="Path 513680" d="M98.3,39.9a1.2,1.2,0,0,1-.9.5,1.3,1.3,0,0,1-1.2-.8A1.6,1.6,0,0,1,96,39c0-.4.1-.8.2-.8s.2.9.5.9.3-.3.3-.6-.6-.4-.5-.6.4-.3.8-.3a1.578,1.578,0,0,1,1.1,2.2" fill="#27424c"/>
      <path id="Path_513681" data-name="Path 513681" d="M98.1,5c-.2.6-.6.8-1.2,1.3a8.2,8.2,0,0,0-3,3.7,2.4,2.4,0,0,0-.2.9,3.1,3.1,0,0,0,.1.9c.2.7.2.8,1.2,4.1s1.8,5.5,2.2,6.5c1.4,4,3,8.2,3.6,9.5l.2.4h0c0,.1-.4.1-.5,0h-.1c-.5-1.4-4.8-11.2-4.8-11.2-3.4-7.7-2.5-5.7-3.1-7s-1.4-2.5-.9-4.3a7.3,7.3,0,0,1,.5-1.1A23.5,23.5,0,0,0,94.2,4c.2-.9.2-1.6.8-2.1a1.6,1.6,0,0,1,1-.4c1.3,0,2.6,2.4,2.1,3.9" fill="#27424c"/>
      <path id="Path_513682" data-name="Path 513682" d="M107,4.7c-.3.5-.8.6-1.5,1a8.4,8.4,0,0,0-3.8,2.9,2.7,2.7,0,0,0-.4.8,3.1,3.1,0,0,0-.1.9c0,.7,0,.8.2,4.2s.5,5.8.6,6.8c.4,3.9,1,8.1,1.3,9.8l.2.7v.1s-.4.1-.4-.1h0v-.6c-.4-2.5-2-11.5-2-11.5-1.5-8.3-1.1-6.1-1.4-7.6s-.7-2.8.1-4.4l.8-1a23.4,23.4,0,0,0,3.1-4.1c.4-.9.5-1.5,1.2-1.9A1.5,1.5,0,0,1,106,.5c1.3.3,2,2.9,1.2,4.3" fill="#27424c"/>
      <path id="Path_513683" data-name="Path 513683" d="M119.9,12.4a7.7,7.7,0,0,0-3.4-.4c-5.4.7-7.9,7.5-8.1,7.9a14.4,14.4,0,0,0-.3,8.4,24.542,24.542,0,0,0,.8,2.9,18.4,18.4,0,0,0,4.2,7.9l.3.3c1.5,1.5,3.6,3.7,7,4h.7a4.8,4.8,0,0,0,.1.7c.1.8,1.7,10.8,1.8,14.5.1,1.5.7,3,.4,4.5a.5.5,0,0,0,.1.4.6.6,0,0,0,.5.2c.3,0,.5-.4.5-.5s.8-12.8.8-12.8c0-4.4,1.2-7.2,1.5-9l1.6-1.3a12.1,12.1,0,0,0,3.1-4.7c1.3-3.6.2-6.8-.8-9.9s-3.8-11.3-10.8-13.4M128,25.9c1,2.7,2.2,5.7,1.1,9.2a11.2,11.2,0,0,1-.9,2.2h0a6.8,6.8,0,0,1-2.5,2.5l-1.2.5h-.1a11.1,11.1,0,0,1-2.8.2h0a11.8,11.8,0,0,1-5.8-2.4c-2.7-2.1-3.4-4.7-4.8-9.7a19.8,19.8,0,0,1-.8-6.3h0a10.1,10.1,0,0,1,.4-2.4v-.2a11.1,11.1,0,0,1,1.4-2.7l.4-.6h0a5.6,5.6,0,0,1,2.8-2.3c.7-.2,2.1-.2,4.9,2a22.1,22.1,0,0,1,7.8,10" fill="#27424c"/>
      <path id="Path_513684" data-name="Path 513684" d="M119,30.1a3.5,3.5,0,0,0,3.1,2.1,3.1,3.1,0,0,0,2.5-1.4c1-1.6-.2-3.6-.4-3.9a3.6,3.6,0,0,0-2.5-1.8c-.9-.1-2,.3-2,.7s1.2.7,1.4,1.6a1.154,1.154,0,0,1-.8,1.5c-.4,0-.8-2.4-1.2-2.4s-.5,1.1-.4,2.1A3.9,3.9,0,0,0,119,30" fill="#27424c"/>
      <path id="Path_513685" data-name="Path 513685" d="M92.2,59.2v.2H92l-.2.2h-.1l-.4.4h-.1l-.2.2h-.1a1.7,1.7,0,0,1-1.1-.9,1.4,1.4,0,0,1,.1-1.2l1.5.5h.7" fill="#27424c"/>
      <path id="Path_513686" data-name="Path 513686" d="M95,59.2h0v.3l-.2.5h-.1v.2L94,61H91.2l.3-.3h.1l.3-.4.3-.4h.1v-.2H95" fill="#27424c"/>
      <path id="Path_513687" data-name="Path 513687" d="M97.5,58.9h0v.3h0v1.1h0l-2.7.5.2-.4h0V59.3h0l2.4-.2" fill="#27424c"/>
      <path id="Path_513688" data-name="Path 513688" d="M100.1,58.6v1.1h0l-2.4.6h0v-.8h0a1.7,1.7,0,0,0,0-.4.3.3,0,0,0,0-.1l2.3-.3" fill="#27424c"/>
      <path id="Path_513689" data-name="Path 513689" d="M102.3,58.3v.2h0v.3a.7.7,0,0,1,0,.1v.2h0v.2l-2.1.3h0q0-.1,0-.2v-.6a.4.4,0,0,1,0-.1h0a.3.3,0,0,0,0-.1h.5l1.5-.2" fill="#27424c"/>
      <path id="Path_513690" data-name="Path 513690" d="M104.3,58.8V59h0v.3h-1.7a1.2,1.2,0,0,1,0-.2v-.6h0a.3.3,0,0,0,0-.1h0l1.8-.3h0v.2a.8.8,0,0,1,0,.2,1.8,1.8,0,0,1,0,.2" fill="#27424c"/>
      <path id="Path_513691" data-name="Path 513691" d="M107.8,57.1c.1.4-1,1.1-1.3,1.3l-.5.3-1.5.5v-.7a.8.8,0,0,1,0-.1h0a.7.7,0,0,0,0-.2h0l1.3-.2h.7v-.2l-1.4.2h-.7v0h0l-1.8.3h0v0h0l-2,.3v-.2l-.2-.2v.5H100l-1.9.3h0a1.1,1.1,0,0,0-.1-.4l-.2-.3v.3a1,1,0,0,1,0,.4H97l-1.8.2h0a1.1,1.1,0,0,0-.1-.6L95,58a.31.31,0,0,0,.1.2,1.2,1.2,0,0,1,0,.5V59h-.4a10.5,10.5,0,0,1-2.1-.1v-.2a1.2,1.2,0,0,0,0-.5V58a2.142,2.142,0,0,1-.1.6V59L91,58.6l-.6-.3a2.8,2.8,0,0,1,1.8-.6,68.9,68.9,0,0,1,7.9-.2,36,36,0,0,0,6.7-.5c.8-.1,1.2-.1,1.3.1" fill="#27424c"/>
      <path id="Path_513692" data-name="Path 513692" d="M123.3,60a.876.876,0,0,0,.6.2,2,2,0,0,0,1.5-1,2.5,2.5,0,0,0,0-2.5,4.1,4.1,0,0,0-.9-1.1,2.3,2.3,0,0,0-1.6-.6,3,3,0,0,0-1.9,1l-1,1-1.2.6h-.5l-.6-.3a5,5,0,0,0-1.8-.8c-.3,0-.6,0-.7.2s.3.7.9,1.1l.9.7a2.4,2.4,0,0,0,1.5.5l.8-.2.6-.3a4.4,4.4,0,0,0,1.2-.8c.7-.7,1-1.5,1.6-1.8a1,1,0,0,1,.9-.1,2.3,2.3,0,0,1,.9.8,3.3,3.3,0,0,1,.5.9,1.7,1.7,0,0,1-.8,2.2l-.7.2" fill="#27424c"/>
      <path id="Path_513693" data-name="Path 513693" d="M118,64.8c.1.1.5-.2.4-.7a6.11,6.11,0,0,0-.7-1.4,4.8,4.8,0,0,0-1.3-1.4.5.5,0,0,0-.6,0l-.4.4a.6.6,0,0,0,0,.6,1.6,1.6,0,0,0,.9.7,2.3,2.3,0,0,1,1.1.7v.2l.3.3v.3a.6.6,0,0,0,.1.4" fill="#27424c"/>
      <path id="Path_513694" data-name="Path 513694" d="M118.8,71.1c.1.1.3-.4.3-1.2a5.4,5.4,0,0,0-1.3-2.6,5.8,5.8,0,0,0-1.5-1.3,6.5,6.5,0,0,0-1.8-.8,1.4,1.4,0,0,0-1.1.1.7.7,0,0,0-.3.5c0,.3.3.5.6.6l2.1.7a3.6,3.6,0,0,1,2,1.6l.7,1.4.2.5c.1.2.1.4.2.4" fill="#27424c"/>
      <path id="Path_513695" data-name="Path 513695" d="M111.9,70.9c.2,0,0-.6,0-1.4a3.2,3.2,0,0,0-.3-1.4.4.4,0,0,0-.4-.3h-.4a.5.5,0,0,0-.2.4c0,.6.6.9.6,1.7a.8.8,0,0,0,.2.6l.3.3" fill="#27424c"/>
      <path id="Path_513696" data-name="Path 513696" d="M111.3,76.1c.1,0,.2-.4.3-1.1a5.4,5.4,0,0,0-.1-1.4,3.1,3.1,0,0,0-.9-1.6,4.6,4.6,0,0,0-1.9-1l-1.9-.4a1.6,1.6,0,0,0-1.1.1.7.7,0,0,0-.3.5c0,.3.3.5.7.7a6.9,6.9,0,0,0,2.5.5c.8.1,1.8.3,2,1.2l.4,1.6c.1.2.2.9.4.9" fill="#27424c"/>
      <path id="Path_513697" data-name="Path 513697" d="M103,75.9c0,.1.2.1.5-.1a2.3,2.3,0,0,0,.7-1.1,2.1,2.1,0,0,0-.2-1.6.4.4,0,0,0-.4-.2h-.4a.5.5,0,0,0-.2.4,1.2,1.2,0,0,0,.3.8.6.6,0,0,1,.1.8,1.1,1.1,0,0,0-.2.5c0,.1-.2.3-.2.5" fill="#27424c"/>
      <path id="Path_513698" data-name="Path 513698" d="M99.2,33.2c0-.2-.7-.5-1.4-.6a3.3,3.3,0,0,0-1.9.4,3.6,3.6,0,0,0-1.4,1.6,4.1,4.1,0,0,0-.2,2.9,3.9,3.9,0,0,0,1.1,2.1,5.2,5.2,0,0,1-.5-2.6,3.8,3.8,0,0,1,1-1.9,5.2,5.2,0,0,1,1.9-1.3c.9-.4,1.4-.4,1.4-.6" fill="#27424c"/>
      <path id="Path_513699" data-name="Path 513699" d="M104.2,44l-.3.2h-.6c-.3-.1-4.3-1.9-5.1-2.4a13,13,0,0,1-2.8-2.3,24.8,24.8,0,0,0,4.5,3c.6.3,2.8,1.5,3.7,1.3a1,1,0,0,0,.6-.4,3.7,3.7,0,0,0,.2-.6v.3a1.9,1.9,0,0,1-.1.6V44" fill="#27424c"/>
      <path id="Path_513700" data-name="Path 513700" d="M125.3,58c-.2-.5-.4-.6-.6-.6a.4.4,0,0,0-.5.2,1.6,1.6,0,0,0-.3,1.2,1,1,0,0,0,.5.7.9.9,0,0,0,.7,0,.8.8,0,0,0,.4-.9,2.2,2.2,0,0,0-.2-.8" fill="#27424c"/>
      <path id="Path_513701" data-name="Path 513701" d="M105.3,31.8v-.3a4,4,0,0,1,.1-.6,4.2,4.2,0,0,1,.4-.9,4.4,4.4,0,0,1,.9-1.1l.3-.2.4-.2h.5a.8.8,0,0,1,.6.8c-.1.4-.7.3-1.4.8a3.9,3.9,0,0,0-1.1,1.2,2.5,2.5,0,0,0-.5,1.2,4.5,4.5,0,0,1-.1.8h-.1a5.7,5.7,0,0,1,0-.8c0-.4,0-.4,0-.7" fill="#27424c"/>
      <path id="Path_513702" data-name="Path 513702" d="M111.6,41.2a3.3,3.3,0,0,0,.8-.8,2.8,2.8,0,0,0,.5-.8,1.338,1.338,0,0,0,.1-.5v.2c.1.2-.1.4-.2.5a6.783,6.783,0,0,1-.6.9,2.2,2.2,0,0,1-.9.6h.2" fill="#27424c"/>
      <path id="Path_513703" data-name="Path 513703" d="M128.2,37.3a17.1,17.1,0,0,0-.3-3.4,18.9,18.9,0,0,0-1.7-5,26.6,26.6,0,0,0-4.3-6.1A54.4,54.4,0,0,0,115,17l-1.2-.7-.6-.2h-.4l-.6.4a1.463,1.463,0,0,1,.3-.5.8.8,0,0,1,.6-.1h.6l1.1.5,1.3,1,1,.7,1.5,1.2a29.7,29.7,0,0,1,3,2.9l1.4,1.5a25.3,25.3,0,0,1,2.6,3.6,20.1,20.1,0,0,1,1.9,4.2,30.267,30.267,0,0,1,.8,3.4,7.6,7.6,0,0,1,.1,1.1,3,3,0,0,1-.1,1.1,1.007,1.007,0,0,1-.1.3s0-.2-.1-.2" fill="#27424c"/>
      <path id="Path_513704" data-name="Path 513704" d="M118.2,64.2a.4.4,0,0,0-.3-.2h-.3a.5.5,0,0,0-.2.5.3.3,0,0,0,.3.3h.3a.3.3,0,0,0,.2-.3.7.7,0,0,0-.1-.3" fill="#27424c"/>
      <path id="Path_513705" data-name="Path 513705" d="M111.9,70.6a.4.4,0,0,0-.3-.2h-.3a.5.5,0,0,0-.2.5.4.4,0,0,0,.3.3h.3a.3.3,0,0,0,.2-.3.7.7,0,0,0-.1-.3" fill="#27424c"/>
      <path id="Path_513706" data-name="Path 513706" d="M103.3,75.3a.4.4,0,0,0-.3-.2h-.3a.5.5,0,0,0-.2.5.4.4,0,0,0,.3.3h.3a.3.3,0,0,0,.2-.3.7.7,0,0,0-.1-.3" fill="#27424c"/>
      <path id="Path_513707" data-name="Path 513707" d="M157,55.4c-5-3.6-11.8,1.2-15.5,10.3s-3.7,22.4-1.3,31.7,7.4,17.4,11.1,15.4,7.3-13.2,8.4-17.1c.3-.9,1.1-3.8,1.8-3.6s.5.5.7,1.8c2.7,14.6.6,36.1.6,36.1-1.5,14.9-2.5,16.6-3.4,17.5-2.7,2.7-6.9-.9-9.1-3.8s-5.7-12.6-8.7-15.3c-1.5-1.4-2.7.2-2,4.2s4.4,14.8,11.6,19.9c1.9,1.3,8.8,6.2,12.8-.3,3-4.8,2.1-13.7,2.7-23.1,1.5-22.7.9-66-9.8-73.6M155.3,95c-1.8,5.6-5.2,10-7.8,6.4s-2.6-9.9-2.7-12.3c-.5-7.5.5-16.7,3.2-21.6.6-1,3.4-5.8,5.9-2.6s2.4,7.3,2.7,9.8,1.4,11.9-1.3,20.4" fill="#27424c"/>
      <path id="Path_513708" data-name="Path 513708" d="M97,2.3c-.6-.8-1-.8-1.3-.8A.7.7,0,0,0,95,2a3.1,3.1,0,0,0,.2,2.3,1.8,1.8,0,0,0,1.2,1.1,1.5,1.5,0,0,0,1.1-.2,1.5,1.5,0,0,0,.1-1.7A4.4,4.4,0,0,0,97,2.3" fill="#fdc800"/>
      <path id="Path_513709" data-name="Path 513709" d="M106.6,1.9c-.4-.9-.7-1-1.1-1.1a.7.7,0,0,0-.9.4,2.9,2.9,0,0,0-.5,2.3,1.7,1.7,0,0,0,.9,1.3,1.6,1.6,0,0,0,1.2.1,1.4,1.4,0,0,0,.6-1.6,4.1,4.1,0,0,0-.3-1.4" fill="#fdc800"/>
      <path id="Path_513710" data-name="Path 513710" d="M95.9,30.7a9.2,9.2,0,0,0-2.2,1.6c-1,.9-1.2,1.8-1.4,1.8s0-.6-.1-1.6-.2-1.1-.3-2.6-.1-1.6.1-1.8,1.2-.1,1.6.1.4.3,2,1.7.6.5.5.7l-.3.2" fill="#fdc800"/>
      <path id="Path_513711" data-name="Path 513711" d="M103.9,25.4a7.3,7.3,0,0,1,2.4-.6c1.2-.2,2,.3,2.1.1s-.4-.4-1.1-1.1l-1.7-1.9c-.9-1-1.2-1.1-1.4-1.1s-.7.9-.8,1.2a11.722,11.722,0,0,0,.1,2.5c0,.3,0,.8.2.9h.3" fill="#fdc800"/>
      <path id="Path_513712" data-name="Path 513712" d="M110.3,41.8H110l-1.1-.5a5.9,5.9,0,0,1-1.3-1.4,14.5,14.5,0,0,1-1.4-2.1,13.9,13.9,0,0,1-1.3-2.8,10.2,10.2,0,0,1-.3-3,3.8,3.8,0,0,1,.4-1.5,1.69,1.69,0,0,0,.2-.5c0-.1-.7.2-1,.9a4.5,4.5,0,0,0-.3,2.2,8.3,8.3,0,0,0,.5,2.3,12.3,12.3,0,0,0,1.1,2.1,21,21,0,0,0,1.4,2.2l.7.8a3.9,3.9,0,0,0,1.5,1.2l.8.2a.5.5,0,0,0,.5-.1" fill="#fdc800"/>
      <path id="Path_513713" data-name="Path 513713" d="M100.4,33.3l.9,1.1a16.5,16.5,0,0,1,2.1,3c.4.9.7,1.6,1,2.3a12.8,12.8,0,0,1,.8,2.3,2.2,2.2,0,0,1-.1,1.2.756.756,0,0,0-.1.4c0,.1.5-.2.7-.8a3.3,3.3,0,0,0-.2-1.8l-.7-1.7a21.8,21.8,0,0,0-2-3.5,13,13,0,0,0-1.5-1.8l-.8-.7" fill="#fdc800"/>
      <path id="Path_513714" data-name="Path 513714" d="M92,59.4h0l-.2.2h-.1c-.4-.2-.7-.4-.7-.5h1" fill="#fdc800"/>
      <path id="Path_513715" data-name="Path 513715" d="M94.9,59.3v.3l-.2.5a7.7,7.7,0,0,1-2.4,0h-.4l.3-.4h2.7" fill="#fdc800"/>
      <path id="Path_513716" data-name="Path 513716" d="M97.5,59v.3h0v.3h-.2L95,60v-.8l2.4-.2" fill="#fdc800"/>
      <path id="Path_513717" data-name="Path 513717" d="M100.1,58.8v.5l-2.4.4v-.2h0a1.8,1.8,0,0,0,0-.4l2.3-.2" fill="#fdc800"/>
      <path id="Path_513718" data-name="Path 513718" d="M102.4,58.5v.1a2.6,2.6,0,0,1,0,.3l-2.1.3v-.3a.4.4,0,0,1,0-.1h.1l2-.3" fill="#fdc800"/>
      <path id="Path_513719" data-name="Path 513719" d="M104.3,58.2v.2a.8.8,0,0,1,0,.2l-1.6.3h-.2v-.3a.6.6,0,0,1,0-.1h0l1.8-.3" fill="#fdc800"/>
      <path id="Path_513720" data-name="Path 513720" d="M107.4,57.6l-1.2.4h-.3l-1.5.4h0a.7.7,0,0,0,0-.2l1.9-.4h1.1" fill="#fdc800"/>
      <path id="Path_513721" data-name="Path 513721" d="M92.7,51.8c-.1.2,1.7,1.1,3.6,1.7l4.2.7,4.3.8,1.9.4-8.1-2.2c-4.6-1.2-5.9-1.6-5.9-1.5" fill="#fdc800"/>
      <path id="Path_513722" data-name="Path 513722" d="M98,73.5c.1.1.4.1.6.1a14.5,14.5,0,0,0,6.3-1.7c.2-.1,1.2-.7,1.2-1s-.5-.6-1.5-1.3a17.3,17.3,0,0,1-2.3-2.2c-.6-.7-.9-1.1-1-1a2.661,2.661,0,0,0,.4,1.9c.5.8.6.7.5,1a1,1,0,0,1-1,.5c-.9-.2-1-1.7-1.6-1.6s-.5.4-.6.7a2.544,2.544,0,0,0,.5,1.6c.4.7.1.7,0,.7a3.558,3.558,0,0,1-1.7-1.1c-.7-.8-.4,1.8-.3,2a4.3,4.3,0,0,0,.4,1.4" fill="#fdc800"/>
      <path id="Path_513723" data-name="Path 513723" d="M102.3,65.2c-.1.4.3.8,1,1.6a15.9,15.9,0,0,0,2.5,2c1.2.8,1.5,1,1.9,1s.6-.1,1.6-.7a13,13,0,0,0,2.3-1.8,12.5,12.5,0,0,0,2-2.8,13.8,13.8,0,0,0,1.5-3c.8-2.6-.3-5-.9-6.4a12.4,12.4,0,0,0-3.5-4.3,1.5,1.5,0,0,0-.9-.3A2.1,2.1,0,0,0,108,52c-.2.7.2.8.1,2.1s-.2,1.3.1,1.5,1.2-.3,1.6.1a.6.6,0,0,1,0,.7c-.3.3-.9-.1-1.4.3a1.1,1.1,0,0,0-.4,1.2,1,1,0,0,0,.5.5c.6.3,1.2-.1,1.5.2a.7.7,0,0,1,.3,1c-.2.4-1.6-.1-1.9-.2h-.6c-.2,0-.5.2-1.2,1.5s-.4.8-.4.9a3.03,3.03,0,0,0,1,.9c.5.3.8.8.7,1l-.4.4c-.2.1-.5-.1-1-.4s-.6-.5-.9-.6a1.5,1.5,0,0,0-1.1.4c-2.2,1.4-2.2,1.6-2.2,1.7" fill="#fdc800"/>
      <path id="Path_513724" data-name="Path 513724" d="M107.7,50.7h.1l.2-.3.4-.3.6-.3.9-.3c.3,0,0,.5-.1.5h-.9l-.5.3-.3.4c-.1.1,0,.2-.1.3h-.2c-.1,0-.1-.1-.1-.2" fill="#fdc800"/>
      <path id="Path_513725" data-name="Path 513725" d="M107.1,49h.1l.2-.3.3-.3.4-.2.7-.2c.2,0,0,.4,0,.4H108l-.3.2-.2.2c0,.1,0,.2-.1.2h-.2c-.1,0-.1-.1-.1-.2" fill="#fdc800"/>
      <path id="Path_513726" data-name="Path 513726" d="M96.1,73.1H96l-.2-.2-.3-.5a1.74,1.74,0,0,1-.3-.7l.4-.3a.3.3,0,0,1,.4.2.3.3,0,0,1,0,.2.7.7,0,0,0-.1.2.9.9,0,0,0,0,.3v.6h0" fill="#fdc800"/>
      <path id="Path_513727" data-name="Path 513727" d="M124.4,41.6c.1.3,1.6-.2,2.8-1.4s3-3,3.5-4.6a15.1,15.1,0,0,0,.5-4.9c-.9-6.2-3.7-11.3-4.1-10.9s-.4.3.1,1a16.5,16.5,0,0,1,1.7,3.2,15.8,15.8,0,0,1,1.8,7.3c-.1,4-.3,3.8-.7,4.9a32.5,32.5,0,0,1-2.5,3.4,12.3,12.3,0,0,1-1.8,1.5c-.5.4-1.4.4-1.3.6" fill="#fdc800"/>
      <path id="Path_513728" data-name="Path 513728" d="M217,138.2h-.1a11.3,11.3,0,0,0-2.3,1.4l.4-.4.2-.2,1-.6.8-.3" fill="#fdc800"/>
      <path id="Path_513729" data-name="Path 513729" d="M219.4,138.1h0" fill="#fdc800"/>
      <path id="Path_513730" data-name="Path 513730" d="M219.8,138.3h0" fill="#fdc800"/>
      <path id="Path_513731" data-name="Path 513731" d="M265.7,68.4a53.342,53.342,0,0,0-4-4.2,49.408,49.408,0,0,1,4,4.2" fill="#fdc800"/>
      <path id="Path_513732" data-name="Path 513732" d="M278.6,96.2a16.959,16.959,0,0,0-.6-3.1l-.4-1.8h0v-.6l-.3-1.1.2.6h0v.3l.5,2.2.4,2.1c.1.6.2,1.1.3,1.6" fill="#fdc800"/>
      <path id="Path_513733" data-name="Path 513733" d="M272,69.6c-4.5-6.6-10.4-15.3-18.9-18C247.9,50,243,47,237.7,45.8c-.7-.2-3.2-.7-3.3-1.6s1.7-1.5,2-1.6c2.9-1.2,4.9,0,7.6,0,4.5,0,4.7-3.4,9.3-4.2s6.2,3.2,11.4,2.7,9.2-5.4,11.1-7.8,4.4-7.6,3.6-8.2-6.3,8.3-11.6,7.4-4-7.8-10.5-11.6c-4.9-2.8-11.3-2.4-15.8-.2s-8.3,8.7-9.1,10.3c-2.4,5.4-1.7,9.6-3.8,10.2s-3.6-1.4-6-3.6l-.7-.6a18.6,18.6,0,0,1-1.7-1.7h0L220,35l-.2-.5a12,12,0,0,1-.8-2.1c-1.1-3.9-.1-7.5.4-10,.1-.8,1.1-7.2-1.2-12.7C216.7,6,212.9,1.6,207.9.3s-8.6,2.1-19.2,6c-6.6,2.5-11.8,3.3-22.2,5.1s-17.8,3.1-23.2,2.3h-2l-3-.3h-.8c-9-1.8-12.9-3.6-12.9-3.6-3.5-1.2-8-4.3-9.7-2.6s-1.3,2.6-.6,3.3,1.5.7,3.6.6c4.5-.2,15.5,5.8,25.5,19.2,6.5,8.7,5.2,11.3,11,16A37,37,0,0,0,169,52.7c6.6,1.8,14,3.8,17.3.3a5.529,5.529,0,0,0,1.3-4.5c-.1-1.8-.1-1.1-.1-1.7s-.1-6.5,2.2-10.8l.6-1h.1a13.2,13.2,0,0,1,5.3-4c8.3-3.8,17.8,2.7,18.6,3.2h0l.6.8.7.8,2.3,2.5a24.8,24.8,0,0,0,4,3.6l2.9,2.1h0a36.9,36.9,0,0,0,6.9,3.4h.2a70.9,70.9,0,0,0,8.4,3.3h0a86.7,86.7,0,0,1,14,7.6h0l4,2.9,2.3,1.9h.1l.5.5h.1l.4.4a49.393,49.393,0,0,1,4,4.2l.8.9.7.8a59.5,59.5,0,0,1,7.6,12.7h0a42.3,42.3,0,0,1,2.4,6.3v.3l.2.6h0v.3l.5,2.2a15.524,15.524,0,0,1,.4,2.1c.1.7.4,2.5.5,3.7v.2c0,.3.1.6.1.8v2.8h0v3.6a7.628,7.628,0,0,1-.1,1.7,5.284,5.284,0,0,0-.1,1.2,28.611,28.611,0,0,1-.4,3.3v1.4h0l-.2,1-.2,1.1v.5a60.6,60.6,0,0,1-10.2,23.9h0l-1.5,2.1-.6.8v.2c-1.3,1.7-2.4,3.1-3.2,4l-.3.3-.2.3-.4.4-.6.7-.8.8A25.1,25.1,0,0,1,250,155l-.8.2h.3a26.2,26.2,0,0,1-11.6.3l-1.3-.3H236a18.9,18.9,0,0,1-6-2.5,8.5,8.5,0,0,1-1.8-1.6,26.1,26.1,0,0,1-2.4-4.1,37,37,0,0,0-3.6-6.8A6.8,6.8,0,0,0,220,138h-3.2a11.2,11.2,0,0,0-2.3,1.4h0c-2,1.4-4.4,3.6-7.5,5.7-5.7,3.9-10.6,5.8-17.7,7.9l-5.3,1.6a120.1,120.1,0,0,1-31.9,4.6c-20,.3-22.6-4.4-57.8-8.5-6.8-.8-16.1-1.8-27.9-2.6-18.4-1.2-27.5-1.8-34.2-.7-8.6,1.5-12.1,3.6-17.7,1.6C5.4,146.2,1.8,136.1.4,136.9s-.2,7,4,10.9,6.8,3.3,6.8,4.9-5,2.7-4.9,3.2S23,154.4,25.8,154l11.6-1.9c17.5-3.1,37.3.6,63,5.7,0,0,18.9,3.7,18.6,5.4s-9.9,1.2-20,3.5a15,15,0,0,0-6.5,3.3c-1.4,1.2-3.7,3.7-3.1,4.8s11.6-1.9,14.5-2.9c29.8-10.5,66.1-2.4,89.4-10.6,8.1-2.8,10.8-6.3,20.7-10.8l.6-.3h0a1.7,1.7,0,0,1,2.1.4,31.328,31.328,0,0,0,12.4,8.2c1.8.7,18,6.4,32.3-2.9,8.7-5.6,12-13.8,16.1-24.1a66.7,66.7,0,0,0,5.6-24.3A64.7,64.7,0,0,0,272,69.6M211.7,23.2c-.9,1.3-9.4-6.8-18.8-4.8-2.9.6-4.6.4-11,6.5l-1.6,1.4-1.5,1.2h0a13.4,13.4,0,0,0-3,5.8c-1.1,5.3,1.7,9.4,1.3,9.6s-5.6-6.5-3.7-12.2a26.4,26.4,0,0,1-6,1.8c-12.3,2.5-25-12.5-24.5-13.2s12.9,12.7,25.9,9.6A19.3,19.3,0,0,0,176,26l3.1-2.3c-5.6.9-10.7-4.7-10.4-5.1s3.2,2.7,8.1,2.8,7.5-2.4,8.7-2.9a20.2,20.2,0,0,1,20.1-1.7c4.1,2,6.7,5.7,6.2,6.5m1.7,9.7.6,1.1-.6-1.1" fill="#fdc800"/>
      <path id="Path_513734" data-name="Path 513734" d="M141.3,13.5l-3-.3,3,.3" fill="#fdc800"/>
      <path id="Path_513735" data-name="Path 513735" d="M214.1,33.9l-.7-1.1.7,1.1" fill="#fdc800"/>
      <path id="Path_513736" data-name="Path 513736" d="M219.5,138.2h0" fill="#fdc800"/>
      <path id="Path_513737" data-name="Path 513737" d="M277.1,89.1a60.8,60.8,0,0,0-2.4-6.3,42.4,42.4,0,0,1,2.4,6.3" fill="#fdc800"/>
      <path id="Path_513738" data-name="Path 513738" d="M277.9,116.2a60.7,60.7,0,0,1-10.2,23.9l.3-.5,1.2-1.9.6-1a74.5,74.5,0,0,0,7.2-17l.2-.8.2-.8v-.5l.3-1.1v-.2" fill="#fdc800"/>
    </g>
  </g>
</svg>
