<svg xmlns="http://www.w3.org/2000/svg" viewBox="0 0 198.43 198.43"><defs><style>.cls-1{fill:#abc961;}.cls-2{fill:#bfd788;}.cls-3{fill:#d5e5b2;}.cls-4{fill:#333a1d;}.cls-5{fill:#eaf1d7;}.cls-6{fill:#fff;}.cls-7{fill:#28424c;}.cls-8{fill:#5b6a2a;}.cls-10,.cls-9{fill:#dadee0;}.cls-10{font-size:7.45px;font-family:GoodDogNew, GoodDog New;}.cls-11{fill:#475c64;}.cls-12{fill:#455b64;}.cls-13{fill:#d2dfb0;}</style></defs><g id="Layer_2" data-name="Layer 2"><g id="Layer_1-2" data-name="Layer 1"><rect class="cls-1" width="198.43" height="198.43"/><path class="cls-2" d="M45.44,136.18a16.43,16.43,0,0,0-2.72,2.62,14,14,0,0,1-7.58,5.07,3.26,3.26,0,0,0-1.47,1.07l-.69-.82c-6.29-7.35-7.84-9.57-11.78-10.93a19.49,19.49,0,0,0-6.84-1A31.45,31.45,0,0,0,4,134.45a30.09,30.09,0,0,0-3.81,1.88v-8.7c4.8-.18,10.23.43,14.06.37h0c2.62,0,4.48-.4,4.85-1.54,1-3.17-10.14-10.36-19-14.74V94.31c13.14,5.52,29,18,39.56,33C41.92,130.43,43.67,133.32,45.44,136.18Z"/><path class="cls-2" d="M57,172.92c-2-3-4.37-6.11-7.21-9.87-5.09-6.76-4.5-4.68-15.07-16.89,1.54-1.16,3.93-.53,4.06,1.63.08,1.33,4.17-4.73,8.3-9,.38.59.77,1.17,1.17,1.77A74.49,74.49,0,0,0,58.63,153c.35.34,1.39,1.35,2.86,2.68-1.31,2.94-2.74,6-3.83,9.11-.06.17-.06.28,0,.35.55.61,5.47-2.39,3.67,1.41-.41.89-.76,1.61-1.06,2.22A9.77,9.77,0,0,1,57,172.92Z"/><path class="cls-2" d="M186.38,127.28c.09,1,1,2,8,5.12,1.52.69,2.82,1.24,3.93,1.71v7.47c-3.19-3-7.21-6.26-12.18-7.25-8.27-1.65-13.57,4.24-36.61,22.66-25.34,20.27-31.92,23.55-36,34.87a44,44,0,0,0-1.78,6.42H65.89a47,47,0,0,0-7.76-23.66,12.79,12.79,0,0,0,3.28-4.51c.43-.89.83-1.86,1.21-2.9.06-.18.13-.36.2-.55,0,0,0-.08,0-.12q.28-.81.54-1.65c.24-.8.48-1.63.7-2.47s.42-1.64.62-2.49c.09-.41.19-.82.28-1.24.66.56,1.35,1.12,2.06,1.69,1.11.88,2.26,1.75,3.42,2.57h0c.56.39,1.12.77,1.67,1.13h0c2.91,1.89,5.73,3.26,7.79,3.25a3.22,3.22,0,0,0,1.61-.38,1.37,1.37,0,0,0,.2-.13,2.47,2.47,0,0,0,.63-.62c1.87-2.48,1.11-8.76-1.45-14.53a28.62,28.62,0,0,0-2.54-4.61c-1.65-2.43-2.94-3.43-6.57-6L70.29,140l-2-1.39-1-.71a4.49,4.49,0,0,0-1.72-1.63,11.33,11.33,0,0,0-1.16-.55l-.21-.08c-.84-.62-1.73-1.28-2.68-2l0,0-1.27-1L58,130.92c-7.7-6-9.43-8.13-10.76-10.77C44,113.67,43.79,105.54,46,104.59c2-.86,4.78,4.87,14.33,14.35a84.37,84.37,0,0,0,6.45,5.76c.65.53,1.33,1.07,2,1.63l1.45,1.13,1.93,1.47h0l.72.55,2.54,1.9,3,2.19,1.65,1.23c.17.11.33.23.49.35C89.86,142,91.82,142.81,94,142.3c4.1-1,4.17-5.39,12-13.77,3.74-4,5.92-6.25,9.59-7.5,6.35-2.15,14.12-.23,14.64,2.44.45,2.29-4.41,5.1-7.52,6.9-6.33,3.66-9.22,3.08-12.94,5.06-6.87,3.65-9,11.93-11.26,20.82-1.89,7.42-5,25,.57,27.58,2.5,1.15,5.87-1.11,12.68-6.72,14.19-11.7,21.29-19.77,31.89-29.9,17.82-17,24.59-19.85,27.05-20.79A74.32,74.32,0,0,0,181,121.87c6.27-3.39,11.27-6.09,14.81-11.39a26,26,0,0,0,2.5-4.84V116a44.78,44.78,0,0,1-6.2,5.92C188.7,124.48,186.22,125.49,186.38,127.28Z"/><path class="cls-3" d="M190,63.39l-4.3,6L175.23,62q-4.74,35.4-9.47,70.8L11.61,128.61Q12.95,87,14.31,45.33c-2.65,1.39-5.29,2.8-7.93,4.19-1.44-2-2.87-4-4.3-6L86.5,11.39l42.08,21.15,8.48,4.26Z"/><path class="cls-2" d="M145.87.15c-1.22,1.12-2.46,2.2-3.67,3.22l-.57.47c-1.17,1-2.29,1.88-3.32,2.68-1.19.93-2.26,1.72-3.24,2.41-2.15,1.52-3.83,2.56-5.22,3.4-3,1.82-4.61,2.72-6.59,5.66a23.54,23.54,0,0,0-3.7,9.76l-8.48-4.26a26.53,26.53,0,0,0-3.23-8.37C102.85,6.87,95.73,5.94,96,1.5a4.38,4.38,0,0,1,.3-1.35h10.4c4.16,5.85,7.49,16,10.44,15.33,1.65-.35,2.17-3.94,3.22-11.11.23-1.55.44-2.95.6-4.22h5.54c-.16,2.66.1,4.68,1.39,5.29l0,0a2.29,2.29,0,0,0,.76.18,8.79,8.79,0,0,0,4.78-1.86l.46-.31a25.11,25.11,0,0,0,2-1.61c.61-.53,1.21-1.1,1.81-1.71Z"/><path class="cls-4" d="M19.27,45.47v-.63q21.3-6.5,43.61-14.21Q75.08,26.39,86.83,22l1.65-.62q12.87,6.8,26.31,13.5Q140.89,47.91,166,59c-14.72.08-44.57-2.22-67.95-23.4A82.75,82.75,0,0,1,87.73,24.42C80,31.43,55,52.42,26.2,47.23A54.23,54.23,0,0,1,19.27,45.47Z"/><path class="cls-4" d="M165.84,60.46q-3.72,32.69-7.45,65.38l-.55,0L136,102.69l-95.27,2L18.59,120.82q.53-20.62.68-41.88.12-16.24,0-32.12a49.64,49.64,0,0,0,6.8,1.93c28.77,6,54.47-15.8,61.58-22.23a98.54,98.54,0,0,0,9.25,10C119.26,57.53,149.75,60.75,165.84,60.46Z"/><path class="cls-5" d="M175.72,30.82c.15,1.64-7.69,4.86-16.08,4.67a32.1,32.1,0,0,1-17.25-5.55,31.83,31.83,0,0,1-10.23-11.69,32,32,0,0,1-2.31-5.92c1.39-.84,3.07-1.88,5.22-3.4,1,4,.85,6,2.06,6.4s-.24-2.11,2.93-5.26c2.6-2.6,5.56-2.35,5.55-2.63-.06-1.56-2-2-4-3.6l.57-.47c1.56-1.29,2.09-1.68,3.69-3.22h3a.54.54,0,0,1,.22.27c2.3,6.5,7,10.53,9,12.28a68.1,68.1,0,0,0,10.82,7c2.87,1.57,5.38,2.71,5.26,4.09-.15,1.88-5,2.4-5,3.8C169.34,29.19,175.58,29.38,175.72,30.82Z"/><path class="cls-5" d="M137.81.15h3.54a6.77,6.77,0,0,1-1,1.56c-.29.33-2.65,2.25-3.83,1.64-.5-.26-.59-.85-.54-1.49a9.34,9.34,0,0,1,.24-1.39c0-.11,0-.21.09-.32Z"/><path class="cls-5" d="M133.4,5.74c.4-.8,1-2,.29-2.6-1-.8-3.7.37-4.05.59-1.09.69-2.67,2.66-2.13,3.75.43.86,1.73.9,1.92.91A4.67,4.67,0,0,0,133.4,5.74Z"/><path class="cls-6" d="M140.08,14.26a2.73,2.73,0,0,0-.12,3,2.53,2.53,0,0,0,2.46,1.49,2.5,2.5,0,0,0,2-2.61,2.79,2.79,0,0,0-2.57-2.36A2.07,2.07,0,0,0,140.08,14.26Z"/><path class="cls-6" d="M143,10.76a3.55,3.55,0,0,0-.11,3.25c.35.81,1.16,1.82,2.2,1.63a2.7,2.7,0,0,0,1.79-2.84,2.74,2.74,0,0,0-2.31-2.58A1.63,1.63,0,0,0,143,10.76Z"/><path class="cls-7" d="M143.06,13.49a.86.86,0,0,0-.05,1,1,1,0,0,0,.91.51.87.87,0,0,0,.74-.89c0-.51-.59-.76-.95-.8A.83.83,0,0,0,143.06,13.49Z"/><path class="cls-7" d="M140.2,16.42a.87.87,0,0,0,0,1,1,1,0,0,0,.92.5.86.86,0,0,0,.73-.88c0-.52-.59-.77-1-.81A.83.83,0,0,0,140.2,16.42Z"/><path class="cls-7" d="M141.9,26.13c.6-1,3.38.15,5.19-1.12,2.13-1.49,1.2-5.15,1.91-5.25.45-.06,1,1.29,1.28,2.38.38,1.62,1,4.2-.93,5.8s-5.25,1.42-6.73,0C142.57,27.91,141.48,26.85,141.9,26.13Z"/><path class="cls-8" d="M104,187.51c-.32,5.28-.91,6.23-1.54,10.77h-2.32a78.11,78.11,0,0,0,1.67-19.7c-.63-12.28-4.22-13.55-6.28-30.31a127.07,127.07,0,0,1-.37-27.71l2.5.13a78.46,78.46,0,0,0,.41,27.42c1.68,8.41,5.26,18.43,5.93,30.31A87.77,87.77,0,0,1,104,187.51Z"/><path class="cls-8" d="M117.7,193c0,1.91,0,3.68.08,5.29H115.6c0-1.58,0-3.3.06-5.15.34-8.93,1.79-12.26,2.72-19,.64-4.72,2.4-17.57-1.5-31.41-1.37-4.87-3.5-10.09-2-17a24.86,24.86,0,0,1,2.86-7.34l2.58.27a22.71,22.71,0,0,0-3.26,7.48c-1.52,6.57.56,11.68,1.9,16.32a76.22,76.22,0,0,1,1.77,31.82C119.61,181,117.89,184.37,117.7,193Z"/><path class="cls-8" d="M94.89,153.63c2-2.09,5.09,0,11.83.24,7.61.3,16.64-1.84,17.58-2.33a.54.54,0,0,1,.26-.06c.78.05,1.6,2.25,1.31,3.26-.55,1.9-5.55,1.72-12.4,2-13,.47-18.71,2-19.58-.22C93.5,155.5,94.27,154.26,94.89,153.63Z"/><path class="cls-8" d="M96.89,170.27c1.17-1.61,5.1.89,11.38,1.45,9.16.81,15.6-3.23,16.8-1.09.45.81-.12,2-.54,2.53-1.52,2.05-5,1.45-8.85,1.27-11-.5-15.25,2.85-17.89-.18C96.77,173.07,96.21,171.21,96.89,170.27Z"/><path class="cls-8" d="M96.35,186.17c1.51-1.44,5,2.43,11.38,3.62,8.3,1.55,14.9-2.7,16.08-.55.44.81-.14,2-.73,2.71-1.57,1.76-4.27.53-11.38.36-2.89-.06-3,.13-6.32,0-6.83-.25-8-1.13-8.67-2C95.8,189.09,95.47,187,96.35,186.17Z"/><path class="cls-8" d="M89.82,135.15c1.34-1.62,5.87.89,13.09,1.44,10.54.81,17.94-3.23,19.33-1.08.51.81-.15,2-.63,2.53-1.75,2-5.71,1.44-10.18,1.26-12.67-.5-17.54,2.86-20.57-.18C89.68,138,89,136.08,89.82,135.15Z"/><path class="cls-9" d="M47.64,57.73c5.64-.11,19.41-.66,38.35.07,7.92.31,35.6-.81,41.35-.91,2,0,2.36,0,3.07.45a1.66,1.66,0,0,1,.6,1.55c-.76,4.81.22,36.92.41,40.8,0,.72.05.83-.36,1.28a1.77,1.77,0,0,1-1.45.41c-13.29.27-28.14.8-42.21.51-24.28-.5-24.21.67-38.63.32-1.28,0-1.47.06-2.23-.57s-.59-1.82-.61-2.21c-.36-8-.48-36.09-.51-40.34a1.06,1.06,0,0,1,.38-.94A2.8,2.8,0,0,1,47.64,57.73Z"/><path class="cls-7" d="M125,97.94c-5,.06-17.36.45-34.3-.25-7.08-.29-31.85.51-37,.56-1.75,0-2.11,0-2.74-.39a1.31,1.31,0,0,1-.52-1.29c.72-4,.12-30.72,0-33.94,0-.6,0-.69.34-1.07a1.72,1.72,0,0,1,1.3-.33c11.89-.16,25.18-.53,37.76-.22,21.71.54,21.66-.44,34.56-.08,1.15,0,1.31,0,2,.49s.51,1.51.53,1.84c.25,6.61.12,30,.1,33.55a.83.83,0,0,1-.35.78A2.79,2.79,0,0,1,125,97.94Z"/><path class="cls-6" d="M57.1,89.44A5,5,0,0,1,56.75,91c-.44.57-2.22,1.5-3.12.67S53.3,83,53.35,81.52c.15-3.9.11-4.18.34-8.35.1-1.93.31-3.58,2.26-3.75a14.14,14.14,0,0,1,2.83.41c3,.5,5.76,1.31,7.64,2.78A8.71,8.71,0,0,1,69,76.15a5.52,5.52,0,0,1-.66,4.31,9.3,9.3,0,0,1-3.77,2.89c-2,.91-4.41.93-7.07,1.8C57.23,86.37,57.37,88.11,57.1,89.44Zm.75-16.13A11.5,11.5,0,0,0,57.43,77c0,1.52-.37,3.19,0,4.75,3.21-.1,7.65-1.16,7.72-3.75C65.28,75.13,60.57,73.46,57.85,73.31Z"/><path class="cls-6" d="M76.55,70c.68,1.34-.22,5.36-.33,6.76-.12,1.65-.49,4.12-.56,6,0,1.27-.31,4.81,0,5a12.94,12.94,0,0,0,3.54-.07c1.76-.25,3.42-.55,4.26.14a1.48,1.48,0,0,1-.81,2.63,80.5,80.5,0,0,1-8.45.69c-.87,0-1.27.17-1.75,0-1.08-.45-.91-2.08-.75-3.77.27-2.94.7-8.17.9-10.64s.27-7,2.55-7C75.81,69.62,76.16,69.59,76.55,70Z"/><path class="cls-6" d="M88.79,90.79c-.84,1-3,.37-3.18-.5-.12-.62.45-1.84.76-2.85,1.5-4.51,3.17-8.82,4.85-13.12.84-2.17,1.15-5.34,3.5-5.54,1.85-.16,1.8,1.09,2.09,3,.74,4.82,2.19,8.64,3.12,13,.31,1.4,1,3.61,1.35,5.08,0,1-1.54,1.6-2.34,1.56-2-.12-1.7-5.39-3-7-1.43.21-4.44.31-4.91.84S89.63,89.72,88.79,90.79Zm5-14.41a20.75,20.75,0,0,0-1.57,5.46,5.18,5.18,0,0,0,3-.5c.29-.67-.65-4.28-1.15-5Z"/><path class="cls-6" d="M110.09,76.22c1.12-1.57,2.08-2.93,3.26-4.5.28-.35.66-.85,1-1.3a11,11,0,0,1,1-1.45c.52-.41,2.24-.57,2.68.66s-1.12,2.51-1.54,3.05a65,65,0,0,0-4.67,6.06c-.35.53-.66,1.1-1,1.63a6.92,6.92,0,0,0-.94,1.76,16.54,16.54,0,0,0-.14,2.85c0,1.15-.08,2.13-.16,3.28,0,.63-.08,1.75-.17,2.13a2.35,2.35,0,0,1-2.29,1.18c-2.07-.18-1.14-4.34-1.13-5.92a9.44,9.44,0,0,0-.56-4.18c-.34-.69-.95-1.3-1.29-2-.64-1.46-1.79-2.72-2.53-4.09l-1.21-2.08a5.52,5.52,0,0,1-1-2.18c0-1.25,1.94-3.08,3.41-2.23a9.3,9.3,0,0,1,1.39,2.36c.52.87,1,1.71,1.41,2.46,1,1.83,1.42,3.57,2.77,4.71C109.18,78,109.55,77,110.09,76.22Z"/><text class="cls-10" transform="matrix(1.07, -0.01, 0.01, 1, 61.13, 68.72)">THE</text><text class="cls-10" transform="matrix(1.07, -0.01, 0.01, 1, 111.12, 91.84)">DEN</text><path class="cls-8" d="M157.84,125.79c-22.56-2-46.41-3.5-71.43-4.21-23.67-.69-46.32-.62-67.84,0,0-.25,0-.5,0-.76l22.13-16.14,95.27-2Z"/><path class="cls-3" d="M134.48,84.45a14.9,14.9,0,0,1,4.7-1.77,16.31,16.31,0,0,1,12.38,2.53,19.76,19.76,0,0,1,7.6,16.88c-.65,10-9.18,17.39-17.45,19.42-6.79,1.66-16.56.47-19.7-5.35-1.5-2.79-1.75-7.12.28-9,2.41-2.23,6.32.52,8.45-1.69.84-.88.7-1.81.56-10.13-.08-4.27.06-6,.54-7.27C132.54,86.25,132.82,85.28,134.48,84.45Z"/><path class="cls-5" d="M126.76,116.86a10.65,10.65,0,0,0,10.13-2.61c3.33-2.9,7.65-10.1,4-15.67-3.11-4.8-10.6-6.07-13.53-3.64-2.31,1.92-1.13,5.6-4.75,8.55-1.12.91-1.85,1.05-2.85,2.29-.31.4-2.48,3.09-1.82,5.78C118.88,115.22,124.4,116.37,126.76,116.86Z"/><path class="cls-3" d="M127.31,113.14a3.86,3.86,0,0,0-3.88-.71c-2.55.92-4.05,4.71-2.45,6.81a4.22,4.22,0,0,0,5.07.94C128.55,118.88,129.1,114.9,127.31,113.14Z"/><path class="cls-3" d="M121.11,107.13c-.08-.23-1-3-2.62-3.09-2-.15-5,3.89-4,7.2.35,1.19,1.4,2.9,2.88,3,1.84.14,3.37-2.21,3.85-3.8A5.35,5.35,0,0,0,121.11,107.13Z"/><path class="cls-6" d="M137.27,88.27a2.74,2.74,0,0,0-3.48-.39,2.71,2.71,0,0,0-.39,3.61,2.92,2.92,0,0,0,4.38.26A2.78,2.78,0,0,0,137.27,88.27Z"/><path class="cls-6" d="M141.37,89.39a2.74,2.74,0,0,0-3.48-.39,2.71,2.71,0,0,0-.39,3.61,2.92,2.92,0,0,0,4.38.26A2.77,2.77,0,0,0,141.37,89.39Z"/><path class="cls-11" d="M139.68,92.14a.86.86,0,1,0-1.31,1.1,1,1,0,0,0,1.49.08A.93.93,0,0,0,139.68,92.14Z"/><path class="cls-11" d="M135.56,91.11a.94.94,0,0,0-1.19-.13.92.92,0,0,0-.13,1.23,1,1,0,0,0,1.5.09A1,1,0,0,0,135.56,91.11Z"/><path class="cls-6" d="M132.77,99.25a2.48,2.48,0,0,0,2.91.91,2.18,2.18,0,0,0,.92-2.87,2.65,2.65,0,0,0-3.71-1A2.22,2.22,0,0,0,132.77,99.25Z"/><path class="cls-6" d="M129.45,97.65a2.49,2.49,0,0,0,2.91.9,2.16,2.16,0,0,0,.92-2.86,2.64,2.64,0,0,0-3.71-1A2.23,2.23,0,0,0,129.45,97.65Z"/><path class="cls-11" d="M129.14,96.91a.85.85,0,0,0,1,.3.73.73,0,0,0,.31-1,.9.9,0,0,0-1.26-.33A.76.76,0,0,0,129.14,96.91Z"/><path class="cls-11" d="M132.28,98a.86.86,0,0,0,1,.31.75.75,0,0,0,.31-1,.89.89,0,0,0-1.26-.32A.75.75,0,0,0,132.28,98Z"/><path class="cls-11" d="M129,100.92a.94.94,0,0,0-1.19-.13.93.93,0,0,0-.13,1.23,1,1,0,0,0,1.5.09A1,1,0,0,0,129,100.92Z"/><path class="cls-3" d="M143.8,106.76a3.86,3.86,0,0,0-3.88-.71c-2.55.92-4,4.71-2.45,6.8a4.2,4.2,0,0,0,5.06,1C145,112.5,145.59,108.51,143.8,106.76Z"/><path class="cls-5" d="M93.85,103.61a2.36,2.36,0,0,0,2.51-2.22,2.3,2.3,0,0,0-3-1.77,2.24,2.24,0,0,0-1.33,2.81A2.09,2.09,0,0,0,93.85,103.61Z"/><path class="cls-6" d="M95.14,100.69c.12,0,.44.33.51.77,0,.23.06.76-.25.9a.57.57,0,0,1-.68-.29c0-.17.16-.24.29-.58S95,100.73,95.14,100.69Z"/><path class="cls-5" d="M117.37,100.09c2,.13,4.11-1.59,4-3.5a3.63,3.63,0,0,0-4.66-2.8,3.54,3.54,0,0,0-2.1,4.43A3.3,3.3,0,0,0,117.37,100.09Z"/><path class="cls-6" d="M119.4,95.48c.19-.06.7.52.81,1.22.06.36.1,1.2-.4,1.41a.87.87,0,0,1-1.06-.45c-.06-.27.24-.38.45-.91C119.48,96.05,119.24,95.54,119.4,95.48Z"/><path class="cls-12" d="M41.61,183.15c-7.22,1.7-14.12-17.47-21.11-15.36-5.29,1.59-7.8,14.52-5.49,24.47a26.91,26.91,0,0,0,2.18,6H8c-.65-1.71-1.25-3.47-1.77-5.27-3.7-12.8-3.63-27.56.77-39.87a44.89,44.89,0,0,1,1.84-4.46c.15-.34.32-.68.49-1,.42-.85.87-1.67,1.34-2.48l.31-.53c.59-1,1.22-1.93,1.88-2.84a37.14,37.14,0,0,1,2.67-3.31c.52-.56,1.05-1.12,1.6-1.65l.17-.17c.51-.48,1.2-1.14,2-1.86a34.45,34.45,0,0,1,3.8-2.87c.54-.34,1.09-.67,1.66-1a17.47,17.47,0,0,1,3.46-1.42,11.38,11.38,0,0,1,5.8-.22c1.21.29,5.18,1.48,9.28,8.48C53.24,154.72,49.63,181.25,41.61,183.15Z"/><path class="cls-13" d="M42.28,176.78c3.73-2.66,1.78-10.64,1.58-11.44-1.63-6.64-7.62-15.07-16-15.08-6.45,0-10.87,5-12.46,6.75-5.11,5.75-5.54,12.56-5.71,16.19C9.17,183.86,15,193.3,15,192.26s-2.63-10.09,2.19-17.58c1.68-2.61,4.48-6.21,7.35-5.54,1.78.41,3.26,2.53,5.2,4.69C32.94,177.39,39.16,179,42.28,176.78Z"/><path class="cls-12" d="M33.38,147c.49,3.52-7.46,4.94-9.12,11.69-.82,3.35.32,6.33-.45,6.55s-2.31-2.19-3-4.54c-2.17-6.89,2-16.81,7.1-17.27C30.2,143.23,33.1,145,33.38,147Z"/><path class="cls-12" d="M7.56,164.31c2.74,3.31,6.62,5.87,8.33,7.24,1.17.94-4.48,1-8.63-2.61C5.94,167.8,6.77,163.36,7.56,164.31Z"/><path class="cls-6" d="M15.84,163.75c1.48.46,4.06,3,4.25,4.32,0,.21.06.46-.21.47-.88,0-4.69-2.39-5.19-3.87C14.45,164,14.94,163.47,15.84,163.75Z"/><path class="cls-6" d="M11.07,174.3a3.65,3.65,0,0,1,3.67.95c.1.15.21.32.09.48-.4.54-3.12.81-3.94,0A.88.88,0,0,1,11.07,174.3Z"/><path class="cls-5" d="M35.18,150.68,7,153.14l-6.89.6v-79c1.6,2.22,3.34,4.94,5.13,8,7.39,12.58,11.09,18.87,11.48,19.63a254.26,254.26,0,0,1,11.52,27.19C31.83,139.37,34.23,147.44,35.18,150.68Z"/><path class="cls-12" d="M19.63,146.16c-.14-.1-2.85-1.81-6.73-4.34-3.6-2.36-8.22-5.42-12.75-8.55V109a9.61,9.61,0,0,1,.65,1.15c2.83,5.74,10.14,19.62,14.77,28.37Z"/><path class="cls-13" d="M4.78,132.71c-1.43-.85-3-1.79-4.63-2.79V113.27a11.3,11.3,0,0,1,1.06,1.49,156.5,156.5,0,0,1,7.44,15.82C9.61,132.86,7.24,134.16,4.78,132.71Z"/><path class="cls-12" d="M.15,97.42v7.52C5,114.3,12.62,128.16,17.34,136.69c1.69,3.05,3,5.42,3.72,6.67,2.51,4.44,6,5.1,8,5.06a1.12,1.12,0,0,0,1.11-1.54c-.91-2.73-3.09-9.23-5.34-15.89-1.74-5.16-3.53-10.42-4.81-14.09C17,108.28,6.51,88.51.15,78.66V97.42Z"/><path class="cls-13" d="M.15,85.48c.33-.45.82-.4,1.5.39,3.44,4,13.33,22.17,15.8,29.26,1.51,4.34,4.08,12,5.71,16.83l1.22,3.64a.76.76,0,0,1-.76,1.05,5.66,5.66,0,0,1-4.26-1.82,8.47,8.47,0,0,1-1.19-1.64c-2.54-4.48-16.67-30-17.44-32.75a28.28,28.28,0,0,1-.58-3Z"/><path class="cls-12" d="M15.53,147.21c-1.41-.63-3-1.31-4.82-2A106.46,106.46,0,0,0,.15,141.71v-4.05c3.08,2.2,6.67,4.55,10.87,7Q13.17,145.92,15.53,147.21Z"/><path class="cls-12" d="M10.71,148.46c0,.24-.63.28-1.83.22-1.79-.08-4.82-.38-8.73-.55v-2.76a65.07,65.07,0,0,1,9.22,2.3C10.21,148,10.69,148.26,10.71,148.46Z"/><path class="cls-11" d="M67.8,138.92a4.16,4.16,0,0,0-.45-1,4.49,4.49,0,0,0-1.72-1.63,11.33,11.33,0,0,0-1.16-.55l-.21-.08c-1.06-.41-2.27-.75-3.54-1.23-.53-.2-1.06-.42-1.6-.67l-.45-.22a7.39,7.39,0,0,0-2.68-.74,14.33,14.33,0,0,0-5.88.89,16.06,16.06,0,0,0-4.67,2.54,16.43,16.43,0,0,0-2.72,2.62,14,14,0,0,1-7.58,5.07,3.26,3.26,0,0,0-1.47,1.07,8.3,8.3,0,0,0-1.16,1.95c-2.46,5.44-3.1,16.61-3.23,22.06-.17,7,.79,10.53,9.37,14.42,5.93,2.68,13.42-4.4,19.22-8.55l.26-.2a12.79,12.79,0,0,0,3.28-4.51c.43-.89.83-1.86,1.21-2.9.06-.18.13-.36.2-.55,0,0,0-.08,0-.12q.28-.81.54-1.65c.24-.8.48-1.63.7-2.47s.42-1.64.62-2.49c.09-.41.19-.82.28-1.24.13-.59.25-1.18.38-1.77.06-.33.13-.65.2-1s.18-.95.27-1.43l.08-.38c.17-.92.34-1.83.5-2.74l.16-.89c.27-1.55.53-3.08.78-4.54h0c.13-.73.25-1.45.38-2.14,0,0,0-.08,0-.12a18.36,18.36,0,0,0,.27-2.3A7.66,7.66,0,0,0,67.8,138.92Zm-2.88,6c0,2.86-1.62,6.61-3.43,10.69-1.31,2.94-2.74,6-3.83,9.11-.06.17-.06.28,0,.35.55.61,5.47-2.39,3.67,1.41-.41.89-.76,1.61-1.06,2.22a9.77,9.77,0,0,1-3.27,4.2l-.23.18c-2.4,2-15.65,12.3-23.54.94-4.56-6.58,1.94-18.54.65-22.3a5.71,5.71,0,0,1,0-4.59,3.07,3.07,0,0,1,.85-1c1.54-1.16,3.93-.53,4.06,1.63.08,1.33,4.17-4.73,8.3-9,1.95-2,3.89-3.6,5.44-3.85a10.59,10.59,0,0,1,1.29-.15,2.91,2.91,0,0,1,2.12.58c1.47,1.28.35,3.69,1.76,4.56s2.81-.91,4.61-.5C64.94,140.05,64.92,144.47,64.92,144.94Z"/><path class="cls-11" d="M60.28,168.72a9.77,9.77,0,0,1-3.27,4.2l-.23.18c-2.4,2-15.65,12.3-23.54.94-4.56-6.58,1.94-18.54.65-22.3a5.71,5.71,0,0,1,0-4.59,3.07,3.07,0,0,1,.85-1c1.54-1.16,3.93-.53,4.06,1.63.08,1.33,4.17-4.73,8.3-9,1.95-2,3.89-3.6,5.44-3.85a10.59,10.59,0,0,1,1.29-.15c-2.06,2-3.94,4-5.56,5.77-2.64,2.9-4.59,5.3-5.52,6.45l14.73,18.23Z"/><path class="cls-1" d="M57.66,164.74c-.06.17-.06.28,0,.35.55.61,5.47-2.39,3.67,1.41-.41.89-.76,1.61-1.06,2.22a9.77,9.77,0,0,1-3.27,4.2l-.23.18c-2.4,2-15.65,12.3-23.54.94-4.56-6.58,1.94-18.54.65-22.3a5.71,5.71,0,0,1,0-4.59,3.07,3.07,0,0,1,.85-1c1.54-1.16,3.93-.53,4.06,1.63.08,1.33,4.17-4.73,8.3-9,1.95-2,3.89-3.6,5.44-3.85a10.59,10.59,0,0,1,1.29-.15,2.91,2.91,0,0,1,2.12.58c1.47,1.28.35,3.69,1.76,4.56s2.81-.91,4.61-.5c2.63.61,2.61,5,2.61,5.5,0,2.86-1.62,6.61-3.43,10.69C60.18,158.57,58.75,161.67,57.66,164.74Z"/><path class="cls-13" d="M57.53,142.71a6.38,6.38,0,0,1,3.29-1.78,2.3,2.3,0,0,1,2.65,1.67c.8,3.47.1,6.68-.63,7.84-.13.2-.44,1.2-.62-1.92-.11-2-.28-3.73-1.38-4.19C59.45,143.73,56.12,144.32,57.53,142.71Z"/><path class="cls-13" d="M54.38,141.35c.54,2.62,1.41.21,1.51-1.72,0-.34.78-5.15-3.7-3.43a12.15,12.15,0,0,0-5.29,3.9c-.62.94.26,0,2.86-.88,1.79-.57,2.13-.94,3.07-.33A3.3,3.3,0,0,1,54.38,141.35Z"/><path class="cls-11" d="M60,166.48c.73,1.38-6.33,7.21-12.91,9.07-3,.84-5.48,1.55-7.94.31-3.33-1.66-5.23-6.17-5.05-9.73.16-3.36,2.31-8.67,2.12-10.56-.1-1-.25-2-.25-2-.06-.43-.11-.8-.16-1.07-.28-1.76-.75-2.39-.62-3.35.16-1.27,1.11-1.08,1.71-.92,1.56.4-.34,2.08,1.66,6.44C41,160.09,48.66,167,54.4,167.42,56.82,167.61,59.62,165.86,60,166.48Z"/><path class="cls-6" d="M8.51,103.13c-.73,1.26-2.52,2.19-3.84,1.66-.85-.33-1.23-1.2-2-2.93s-.95-2.66-.82-3.62c.23-1.63.92-4,2.37-3.65C6.74,95.18,9.79,100.94,8.51,103.13Z"/><path class="cls-12" d="M22,134.62c.63-.22-5.33-10.93-11.49-27.19C9.56,105,7.3,98.94,5.2,99a1.3,1.3,0,0,0-1.15.75c-.41,1.11,1.7,2.83,2.81,4,2.88,2.95,5.66,15,7.45,18.23C19.55,131.35,21.28,134.85,22,134.62Z"/><path class="cls-12" d="M6.94,131.3c-.34.21-1.72-1.43-5.79-5.79-.25-.27-.59-.63-1-1.05v-2C4.2,127.87,7.19,131.15,6.94,131.3Z"/><path class="cls-5" d="M92.88,198.28H83.6q-2.11-2.86-4.42-6.18l-17.77-22c.43-.89.83-1.86,1.21-2.9.06-.18.13-.36.2-.55,0,0,0-.08,0-.12q.28-.81.54-1.65c.24-.8.48-1.63.7-2.47s.42-1.64.62-2.49c.09-.41.19-.82.28-1.24.13-.59.25-1.18.38-1.77.06-.33.13-.65.2-1s.18-.95.27-1.43l.08-.38c.17-.92.34-1.83.5-2.74l.16-.89c.27-1.55.53-3.08.78-4.54h0c.13-.73.25-1.45.38-2.14,0,0,0-.08,0-.12a18.36,18.36,0,0,0,.27-2.3,7.66,7.66,0,0,0-.24-2.48,4.16,4.16,0,0,0-.45-1,4.49,4.49,0,0,0-1.72-1.63,11.33,11.33,0,0,0-1.16-.55l-.21-.08c-1.06-.41-2.27-.75-3.54-1.23-.53-.2-1.06-.42-1.6-.67l-.45-.22a7.39,7.39,0,0,0-2.68-.74c.67-.62,1.36-1.23,2-1.83A70.41,70.41,0,0,1,64,126.28c.19-.14,1.11-.65,2.82-1.58l8.08-4.38c4.65-2.51,15.52-9.58,16.81-8.31,1.91,1.89-6.84,11.65-7.7,15a23.29,23.29,0,0,1-3.91,7.8,17.68,17.68,0,0,0-1.67,3c-1,2.3.53,4.56,2.6,9.44a70.42,70.42,0,0,1,3.75,11.48c2.1,8.81,2.73,14.17,3.57,19a58.4,58.4,0,0,0,4.16,14.15c.91,2.15,1.62,4.18,2.64,6.46Z"/><path class="cls-12" d="M79,158.82c-1.7.59-7.77-.55-13.66-1.9.06-.33.13-.65.2-1s.18-.95.27-1.43l.08-.38c.17-.92.34-1.83.5-2.74l.16-.89c.27-1.55.53-3.08.78-4.54h0c.13-.73.25-1.45.38-2.14,1.46-1,2.72-1.84,3.58-2.46a3.31,3.31,0,0,1,.5-.3c3.29-1.66,6.76,3.36,7.93,6.26.07.17.13.33.18.49a26.73,26.73,0,0,1,1,3.87C81.47,154.67,81.42,158,79,158.82Z"/><path class="cls-13" d="M76.8,156.76c-1.89.35-6.85-1-11-2.25l.08-.38c.17-.92.34-1.83.5-2.74l.16-.89c.27-1.55.53-3.08.78-4.54h0a23.2,23.2,0,0,1,2.7-1.78c3.39-1.77,7.16,2.93,8,5S80.27,156.14,76.8,156.76Z"/><path class="cls-12" d="M81.61,119.75c-2.32.44-7.69,3.31-12.77,6.58a72.74,72.74,0,0,0-8.58,6.29c-.42.38-.8.74-1.14,1.09.54.25,1.07.47,1.6.67,1.27.48,2.48.82,3.54,1.23l.21.08a11.33,11.33,0,0,1,1.16.55,4.49,4.49,0,0,1,1.72,1.63,4.16,4.16,0,0,1,.45,1A7.66,7.66,0,0,1,68,141.4L70.29,140c3.77-2.42,6.78-4.47,7.33-5.17a12.53,12.53,0,0,0,.81-1.23C80.86,129.45,85.33,119,81.61,119.75Z"/><path class="cls-13" d="M75.48,131.38a21.7,21.7,0,0,1-2,3.56,39,39,0,0,1-5.19,3.64l-.54.34a4.16,4.16,0,0,0-.45-1,4.49,4.49,0,0,0-1.72-1.63,11.33,11.33,0,0,0-1.16-.55l-.21-.08c-1.06-.41-2.27-.75-3.54-1.23l0,0c.22-.24.49-.49.78-.76a57.87,57.87,0,0,1,8.76-6.12,25.27,25.27,0,0,1,6-2.8C78.16,124.3,76.91,128.21,75.48,131.38Z"/><path class="cls-12" d="M86.41,181.2c-1.78,1.08-7-6.29-15.52-13.56a80.5,80.5,0,0,0-6.79-5.22c.21-.81.42-1.64.62-2.49q1.23.27,2.34.45a37.5,37.5,0,0,0,6.09.54A9.14,9.14,0,0,1,79.7,163a13.08,13.08,0,0,1,2.69,3.2,30.51,30.51,0,0,1,2.79,6.32A44.31,44.31,0,0,1,86.74,178C87,179.49,87.05,180.81,86.41,181.2Z"/><path class="cls-13" d="M70.56,164.87c-.9-.64-.87-2.09,0-1.9a26.13,26.13,0,0,0,5.12.59,5.76,5.76,0,0,1,4.12,1.3c2,1.64,2.91,4.43,3.44,6,.47,1.37,1.67,4.9.77,5.44-1.12.68-4.42-3.95-9.75-8.51C73,166.67,71.74,165.7,70.56,164.87Z"/><path class="cls-12" d="M91.63,198.28h1.25c-2.34-4.71-5.07-9.56-5.65-10.42-5-7.48-8.07-9.17-19.08-19-1.6-1.43-3.24-2.81-4.75-4q-.26.84-.54,1.65s0,.08,0,.12a127.46,127.46,0,0,1,8.84,9.93c8.07,10.09,7.57,10.92,15.51,21.69h4.46Z"/><path class="cls-13" d="M91.63,198.28a83.6,83.6,0,0,0-4.6-8.89c-2.89-4.28-4.58-5.35-10.93-10.87-1.21-1.05-1.89-1.41-2-1.09s-.57-.24,4,5.5c4.75,5.93,4.32,6.28,9.25,12.92.56.75,1.28,1.62,2,2.43Z"/><path class="cls-6" d="M72.68,129.16c1.07.79-.22,3.88-.33,5-.07.75-.62,1-1.74,1.55a3.13,3.13,0,0,1-2.47.41c-1.24-.35-1.42-1.67-1.47-3C66.59,131,70.81,127.8,72.68,129.16Z"/><path class="cls-6" d="M78.06,151.54c.53,1.74.37,3.77-.56,4.05a4.64,4.64,0,0,1-4.14-.79,13.39,13.39,0,0,1-2.89-4.1c-1-1.8-.94-4.77,0-5.25C73.36,143.85,77.15,148.53,78.06,151.54Z"/><path class="cls-12" d="M71.63,133c0,1-1.59.8-2.48.85A4.43,4.43,0,0,0,67,135c-.43.36-.88.77-1.33,1.22a11.33,11.33,0,0,0-1.16-.55c.59-.52,1.18-1.07,1.79-1.64.13-.11.27-.26.44-.4,1.23-1.14,3.41-3,4.45-1.84A2,2,0,0,1,71.63,133Z"/><path class="cls-12" d="M74.81,150.78c-.1.46-.85.65-1.38.5a10.81,10.81,0,0,0-2.75-.2c-1.29,0-2.61.14-3.23.2l-1,.11.16-.89c1-.26,2.15-.57,3.41-1h0c.43-.14.88-.29,1.33-.46.72-.25,2.52-.92,3.09-.07A6.85,6.85,0,0,1,74.81,150.78Z"/><path class="cls-12" d="M71.29,163.81c0-.21,2.71,1.21,6.56,2.44.57.18,2,.63,2.21,1.31a3.19,3.19,0,0,1-.16,1.06c-.19.19-.76,0-1.1-.34a29.13,29.13,0,0,0-4.22-2.59C72.18,164.44,71.31,164,71.29,163.81Z"/><path class="cls-12" d="M81,184.26c.07-.11,2,2.42,5,5.62.45.48,1.58,1.66,1.49,2.13a1.23,1.23,0,0,1-.57.41c-.24,0-.68-.54-.86-.91a40,40,0,0,0-2.82-4.11C81.51,185.16,80.88,184.39,81,184.26Z"/><path class="cls-12" d="M32.69,178.28c.1,1.14-3.75-.6-7.55.85-.49.18-4,1.58-3.24,4.09.33,1.14,1,1.84.89,2.63s-.73,1-1.68.67c-2.36-.92-4.85-4.61-4.32-6,.67-1.78,1.76,1.18,3.13,1,1.22-.19,1.18-1.68,1.74-3.11a5.74,5.74,0,0,1,8.53-2.61C31.29,176.43,32.63,177.62,32.69,178.28Z"/><path class="cls-12" d="M36.77,179.91c-.87.39,1.4,3.12,1.31,7.14,0,.52-.13,4.25-2.17,4.64-.92.17-1.59-.09-2.16.3s-.57,1.09-.06,1.79c1.28,1.74,4.63,2.42,5.51,1.36,1.14-1.35-1.31-1.09-1.51-2.4s.93-1.77,1.83-2.88c2.08-2.55,2.06-6.59-.27-8.76C38.49,180.39,37.27,179.68,36.77,179.91Z"/><path class="cls-12" d="M25.87,162.35a2.89,2.89,0,0,1,.57,3.19,2.82,2.82,0,0,1-3.56,1.13c-1.76-.87-1.9-4.21-.49-5.15A3,3,0,0,1,25.87,162.35Z"/><path class="cls-12" d="M17,169.93a2.89,2.89,0,0,1,.57,3.19A2.83,2.83,0,0,1,14,174.25c-1.76-.88-1.89-4.21-.48-5.15A3,3,0,0,1,17,169.93Z"/><path class="cls-6" d="M53.43,143.89c-1.42-1.3-3.93-1.88-5.64-.48a4.38,4.38,0,0,0-.47,5.85c1.69,2.23,5.62,2.29,7.09.24C55.55,147.9,55,145.32,53.43,143.89Z"/><path class="cls-6" d="M60.11,145.53c-1.42-1.3-3.93-1.88-5.64-.48A4.39,4.39,0,0,0,54,150.9c1.7,2.23,5.63,2.29,7.1.23C62.23,149.54,61.68,147,60.11,145.53Z"/><path class="cls-11" d="M60.26,148.45a1.51,1.51,0,0,0-1.92-.16,1.48,1.48,0,0,0-.16,2,1.61,1.61,0,0,0,2.42.08A1.53,1.53,0,0,0,60.26,148.45Z"/><path class="cls-11" d="M54,147a1.39,1.39,0,1,0-2.09,1.83,1.61,1.61,0,0,0,2.42.08A1.52,1.52,0,0,0,54,147Z"/><path class="cls-5" d="M105.3,105c1.64.1,3.43-1.33,3.31-2.93a3,3,0,0,0-3.9-2.33,2.94,2.94,0,0,0-1.75,3.7A2.75,2.75,0,0,0,105.3,105Z"/><path class="cls-6" d="M107,101.13c.15-.06.57.44.67,1,0,.3.08,1-.34,1.18a.71.71,0,0,1-.88-.37c0-.23.2-.32.38-.76S106.86,101.18,107,101.13Z"/><path class="cls-5" d="M95.83,96.17a1.47,1.47,0,0,0,1.56-1.38,1.44,1.44,0,0,0-1.84-1.11,1.41,1.41,0,0,0-.83,1.75A1.31,1.31,0,0,0,95.83,96.17Z"/><path class="cls-6" d="M96.63,94.35c.08,0,.28.21.32.48s0,.48-.16.56a.35.35,0,0,1-.42-.18c0-.11.1-.15.18-.36S96.57,94.38,96.63,94.35Z"/><path class="cls-12" d="M46.42,136.71c-3.28-4.93-3.67-21.57-7.78-29.65-.33-.65-2-3.15-1.31-5.24A3,3,0,0,1,39,100c2-.87,4.93,1.07,5.4,3.1.4,1.72-.53,1.91-1.18,5.29a21.09,21.09,0,0,0,.11,4.46,105.4,105.4,0,0,0,2.64,15.31c3.18,11.5,8.62,4.66,2.72,8.12-.94.55-.43.44-.77.64A1.12,1.12,0,0,1,46.42,136.71Z"/><path class="cls-13" d="M38.15,102.26a2.45,2.45,0,0,1,1.83-2.2c1.55-.32,2.62,1.64,2.77,1.93a2.89,2.89,0,0,1,.41,2.22c-.42,1.08-2.08,1.3-3.23.75A3.13,3.13,0,0,1,38.15,102.26Z"/><path class="cls-12" d="M58.53,137.39c-1.13-.69-1.72-8,0-12.52,2.32-6.26,4.42-9.68,9.72-15.33C75.27,102,73.13,103.22,81,98.69c1.34-.76,2.59-3.1,4.43-2.4s4.16,4.35,3.89,7.72c-.18,2.22-1.43,4.39-3,4.28-2-.15-2.79-4-5.3-4.93-1.7-.66-5.06,1.11-6.94,2.69-6.06,5.07-6.67,7.31-7.72,8.61-4.51,5.61-7.51,12.19-7.35,16,.13,3.24,2.47,4.17,1,5.44C59.58,136.49,59,137.7,58.53,137.39Z"/><path class="cls-13" d="M87.07,105.6c.94-.26,1-2.6,1-2.86,0-2.64-1.75-5.39-3-5.24-.83.1-1.34,1.43-1.49,2.2C83,102.63,85.82,106,87.07,105.6Z"/><path class="cls-5" d="M87,102a1.48,1.48,0,0,0,1.57-1.38,1.44,1.44,0,0,0-1.84-1.11,1.39,1.39,0,0,0-.83,1.75A1.3,1.3,0,0,0,87,102Z"/><path class="cls-6" d="M87.77,100.15c.07,0,.27.21.32.48s0,.47-.16.56a.35.35,0,0,1-.42-.18c0-.11.09-.15.18-.36S87.7,100.17,87.77,100.15Z"/><path class="cls-1" d="M166,59.05l-.16,1.41c-16.09.29-46.58-2.93-68.93-24a98.54,98.54,0,0,1-9.25-10C80.55,33,54.85,54.7,26.08,48.75a49.64,49.64,0,0,1-6.8-1.93c0-.45,0-.9,0-1.35a54.23,54.23,0,0,0,6.93,1.76C55,52.42,80,31.43,87.73,24.42A82.75,82.75,0,0,0,98,35.63c23.38,21.18,53.23,23.48,68,23.4Z"/></g></g></svg>