<svg xmlns="http://www.w3.org/2000/svg" viewBox="0 0 93.73 46.54"><defs><style>.cls-1{fill:#fff;}.cls-2{fill:#28424c;}</style></defs><g id="Layer_2" data-name="Layer 2"><g id="Layer_1-2" data-name="Layer 1"><path class="cls-1" d="M2.42,1C8.57.84,23.58.27,44.22,1,52.87,1.3,83,.12,89.31,0c2.13,0,2.58-.06,3.34.45a1.66,1.66,0,0,1,.66,1.59c-.83,4.93.2,37.79.4,41.76,0,.74.05.84-.39,1.31a2.12,2.12,0,0,1-1.58.42c-14.49.28-30.69.85-46,.56-26.47-.48-26.4.71-42.11.37-1.4,0-1.61.07-2.44-.58S.53,44,.51,43.64C.13,35.51,0,6.71,0,2.36a1,1,0,0,1,.42-1A3.3,3.3,0,0,1,2.42,1Z"/><path class="cls-2" d="M86.63,42.08c-5.52.07-19,.48-37.56-.23-7.76-.3-34.88.53-40.51.58-1.92,0-2.32,0-3-.39A1.32,1.32,0,0,1,5,40.72C5.77,36.62,5.12,9.28,5,6c0-.62,0-.71.36-1.09a2,2,0,0,1,1.43-.34c13-.17,27.57-.55,41.35-.24,23.78.54,23.72-.46,37.84-.1,1.26,0,1.44,0,2.18.5s.57,1.55.58,1.88c.27,6.77.12,30.73.1,34.34a.84.84,0,0,1-.38.8A3.15,3.15,0,0,1,86.63,42.08Z"/><path class="cls-1" d="M16.34,31.22c-.48-.74-.36-2.9-.3-4.1.08-1.46.17-3.83.1-5.16-.06-1.16.08-4.28-.67-5.42-.51-.52-3.84.37-4.9-.49a2.08,2.08,0,0,1-.32-2c.48-1.06,5-1,6.61-.85a56.31,56.31,0,0,0,6-.22c.53,0,1.74.16,1.86.79a1.91,1.91,0,0,1-.79,1.89c-.81.42-3.25.16-3.91.78s-.41,2.89-.45,4.76c-.07,3.77.31,7.41-.39,9.89C18.85,32.27,17,32.2,16.34,31.22Z"/><path class="cls-1" d="M32.65,21.28c.81,0,1.85-.2,2.14-.59.58-1.44.58-5.19.51-7.1a5.88,5.88,0,0,1,.08-2.23,1.93,1.93,0,0,1,2.71-.74c.77.6.25,3.91.27,5.48a95,95,0,0,1-.31,10.68,23.07,23.07,0,0,1-.45,3.88c-.41,1.06-1.79.58-2.42.38-1.23-.4.3-5.26-.47-6.68a4.65,4.65,0,0,0-1.71,0,7,7,0,0,0-2.65.15c-.71,2.3-.26,5.28-.56,7.6a2.15,2.15,0,0,1-2.58,1.33c-1-.38-.66-1.54-.66-3,0-2.06.25-4.47.33-6.67.11-2.64.16-5.74.37-8.39.17-2.11-.17-5.16,1.49-5.44a2.28,2.28,0,0,1,1.65.36c.72.75.17,3.7.09,5-.13,2.08-.65,4.49-.13,5.49C30.56,21.26,31.85,21.3,32.65,21.28Z"/><path class="cls-1" d="M44.26,11.31c.44,1-.12,4.57-.13,6,0,2.78-.23,5.49-.13,8.47,0,1.47.17,4.61-.25,5.29a2.51,2.51,0,0,1-2.37.88c-1-.37-.81-2-.78-3.31,0-.81-.06-3.05,0-4,.08-2.43.24-5.46.33-8.36a36.35,36.35,0,0,1,.27-4.61,2.3,2.3,0,0,1,1.78-1C43.18,10.64,44,10.66,44.26,11.31Z"/><path class="cls-1" d="M57.86,20.63c0-2.09,0-3.17.06-5.13a14.26,14.26,0,0,1,0-3.14,1.88,1.88,0,0,1,1.28-1.16c.6-.12,1.4-.08,1.68.33.58.73.27,3.24.15,4.34s-.17,10.75-.14,11.73.18,2.59-.28,3.35a2.23,2.23,0,0,1-2.39.68c-.43-.18-.71-.73-1.1-1.46-1.37-2.39-2.84-4.54-4-7a29.64,29.64,0,0,1-2.31-4.55c-.32,1.88-.3,6.51-.41,8.31-.08,1.27-.1,3.78-.72,4.43a2.08,2.08,0,0,1-2.31.27c-1-.56-.31-3.26-.27-4.43.14-4.09.55-7.5.69-11.88,0-1.23.06-3.08.51-3.59a2.57,2.57,0,0,1,2.21-.47c.79.28,1.23,1.63,1.8,2.89,1,2.24,1.76,3.82,2.85,6a40.61,40.61,0,0,0,2.45,4.66A30.28,30.28,0,0,0,57.86,20.63Z"/><path class="cls-1" d="M72.07,13.17c.54-.41,1.19-1.11,1.73-1.22a1.63,1.63,0,0,1,2,1.18c.05.72-.92,1.51-1.54,2A45.86,45.86,0,0,0,69,20.4a2.12,2.12,0,0,0,.89,1.28,40,40,0,0,1,5,5.45c.57.67,1.61,1.58,1.64,2.5a1.85,1.85,0,0,1-1.87,1.76c-.78,0-1.46-.92-2-1.59a50.7,50.7,0,0,0-3.38-4A27.63,27.63,0,0,0,67,23.42c-.34,1.41.38,4.81,0,6.33a1.84,1.84,0,0,1-2.22,1.32c-.65-.11-1.11-1.07-1.19-2.21-.16-2.43-.13-5.05,0-8.51.07-2.16-.28-6.5.51-8.42.63-1.06,2.28-1.33,2.76-.39.62,1.2-.21,4.76-.26,6.46C68.48,17.15,70.2,14.37,72.07,13.17Z"/></g></g></svg>