<svg xmlns="http://www.w3.org/2000/svg" viewBox="0 0 93.61 46.46"><defs><style>.cls-1{fill:#fff;}.cls-2{fill:#28424c;}</style></defs><g id="Layer_2" data-name="Layer 2"><g id="Layer_1-2" data-name="Layer 1"><path class="cls-1" d="M93.2,45.05a2.06,2.06,0,0,1-1.58.41c-14.47.29-30.64.85-46,.57-18.25-.34-23.86.13-30.76.33-3.09.1-6.44.14-11.3,0H3.44c-1.25,0-1.47,0-2.27-.57S.53,44,.51,43.56C.39,41.19.31,37.07.24,32.31.07,20.75,0,5.43,0,2.36a1,1,0,0,1,.42-1,3.28,3.28,0,0,1,2-.44C8.55.84,23.55.26,44.17,1c8.63.31,38.76-.87,45-1,2.14,0,2.58,0,3.34.46a1.65,1.65,0,0,1,.66,1.58c-.83,4.93.2,37.72.41,41.69C93.63,44.47,93.64,44.58,93.2,45.05Z"/><path class="cls-2" d="M86.52,42c-5.51.07-19,.48-37.51-.23-7.75-.3-34.84.53-40.47.59-1.91,0-2.31,0-3-.4A1.32,1.32,0,0,1,5,40.64C5.76,36.55,5.12,9.26,5,6c0-.62,0-.71.37-1.09a1.93,1.93,0,0,1,1.42-.34c13-.17,27.54-.55,41.3-.24,23.75.54,23.69-.46,37.79-.1,1.26,0,1.44,0,2.18.5s.56,1.55.58,1.88c.27,6.75.12,30.67.1,34.27a.86.86,0,0,1-.38.8A3.15,3.15,0,0,1,86.52,42Z"/><path class="cls-1" d="M15.18,22.26c.46-1.72.86-3.59,1.31-5.51a8.36,8.36,0,0,1,.77-2.53c.42-.54,1.38-.85,1.82-.1s.35,2.44.46,3.83c.16,1.93.56,6.4.91,8.11.35-1.39.69-3.45,1-4.22.46-2.09.72-3.85,1.18-6.07a27.47,27.47,0,0,1,.75-3.39c.32-.86,1.84-2.05,2.28-.64a11.54,11.54,0,0,1-.18,3C24.81,18,24.22,20.31,23.63,24c-.44,2.71-1.25,7.43-2.28,8.84-.28.4-.7.82-1.21.68-.85-.23-1.22-2.76-1.54-4.3a26.09,26.09,0,0,0-1.11-5c-1,2.1-1.33,4.95-2.42,7.35-.28.8-.37,1.79-.84,2.14a1.15,1.15,0,0,1-1.85-.63,108.61,108.61,0,0,1-1.29-11c-.19-1.89-.38-4.26-.62-6.3a17.93,17.93,0,0,1-.28-3.57c.22-1,2-1.39,2.41-.51A18,18,0,0,1,13,15.1c.39,3.1.82,8.94,1,11.69C14.23,25.33,14.92,23.2,15.18,22.26Z"/><path class="cls-1" d="M35.59,12.94c1.65,2.45,2,6.77,1.77,10.22a16.29,16.29,0,0,1-1.08,5.61c-1.19,3.29-3.11,5.09-5.62,5.13-1.85,0-3-1.46-3.82-3.36a13.86,13.86,0,0,1-1.2-7c.07-4,.83-7.4,1.9-9.3,1-1.75,2.32-3.38,4-3.45A4.29,4.29,0,0,1,35.59,12.94ZM28.15,25.35c.17,1.84,1.51,4.38,2.44,4.88,1.57.84,2.89-1,3.42-2.38A19.9,19.9,0,0,0,35,21.09c-.05-2.51-1.12-5.34-2.17-5.85a3.07,3.07,0,0,0-1.89-.39C30,15,29,16.44,28.69,17.64A28.67,28.67,0,0,0,28.15,25.35Z"/><path class="cls-1" d="M46.62,21.09c0-2.37,0-3.57,0-5.79a26.08,26.08,0,0,1,0-3.54,1.85,1.85,0,0,1,.88-1.31.93.93,0,0,1,1.18.38c.41.82.2,3.64.13,4.89S48.74,27.84,48.76,29a13.34,13.34,0,0,1-.18,3.77c-.23.63-1.06,1.15-1.67.76-.3-.19-.5-.82-.77-1.64-1-2.69-2-5.12-2.8-8a47.58,47.58,0,0,1-1.63-5.13c-.21,2.12-.18,7.32-.25,9.37-.05,1.46-.06,4.27-.49,5a1.05,1.05,0,0,1-1.61.3c-.68-.63-.22-3.68-.2-5,.07-4.64.35-8.46.43-13.41a14.62,14.62,0,0,1,.35-4,1.31,1.31,0,0,1,1.54-.53c.55.31.86,1.84,1.26,3.25.75,2.53,1.25,4.31,2,6.78.36,1.18,1.23,4.18,1.73,5.26C46.62,24.8,46.61,21.82,46.62,21.09Z"/><path class="cls-1" d="M53.28,10.71a8.88,8.88,0,0,1,4.11,2.73,9.8,9.8,0,0,1,1,1.93,18.12,18.12,0,0,1,1.1,9.51c-.5,3.28-1.17,4.76-2.87,6.24a5.39,5.39,0,0,1-4.83,1.61c-.87-.11-1.11-.44-1.17-1.3.13-4.4.21-7.93.2-12.84,0-3.69-.68-8,1.33-8.16A4.66,4.66,0,0,1,53.28,10.71ZM52.94,25.6c0,1.29-.07,3,.21,3.4,2.45.59,4.37-2.64,4.35-7.2A10.26,10.26,0,0,0,56,16.31c-.53-.78-1.93-2-2.75-1.57C52.86,15,53,16.9,53,18.09,53,20.94,53,23,52.94,25.6Z"/><path class="cls-1" d="M63.62,28.8a10.45,10.45,0,0,0,2.63-.25c.56-.1,2-.77,2.51-.51a2.67,2.67,0,0,1,.55,2.4c-.26,1.66-1.47,1.74-2.55,1.77a36.44,36.44,0,0,0-3.68.34c-1.49.21-1.6-.63-1.73-3-.06-1.12,0-3.22,0-4.53,0-2.1,0-5.22,0-8.67,0-1.76-.11-3.74.3-4.54s1.89-1.11,3.2-1.12c1.6,0,3.11.07,3.24,1.36s0,2-.75,2.09c-.22,0-.52,0-.86,0-.94,0-2.22.12-2.63.59a3,3,0,0,0-.27,1.62c0,.82-.23,3.15.21,3.81a.66.66,0,0,0,.61.28c.59,0,1.39-.53,2-.54.39,0,.76.31.89,1a2,2,0,0,1-.78,2.27c-.22.07-.55.14-.89.21-.69.15-1.67.31-2,.77a5,5,0,0,0-.18,2.22c0,.69.06,1.49.12,2.05,0,.13,0,.23,0,.33Z"/><path class="cls-1" d="M74.87,9.49c1.69.86,3.57,1.49,4.08,5.28.44,3.3-.38,4.94-1,5.84-.23.37-1,.89-1,1.44A9.9,9.9,0,0,0,78,24.68c.79,1.94,1.17,3.09,2,5a6.79,6.79,0,0,1,.84,2.83,1.35,1.35,0,0,1-2.06,1.2c-.44-.32-.79-1.51-1-2.13-.63-1.65-1-3.13-1.77-4.87-.38-.62-.57-1.74-1-2s-1.24.45-1.4,1c-.26,1.69.11,5.39-.33,7-.2.7-1.07,1.56-1.82.86s-.44-2.87-.42-4.33c0-2.08.07-4.57,0-6.95s-.12-4.59-.16-6.58a31.81,31.81,0,0,1,0-5.45A1.7,1.7,0,0,1,72.22,9,6,6,0,0,1,74.87,9.49Zm1.84,7.67A4.91,4.91,0,0,0,75.93,14a3.16,3.16,0,0,0-2.84-.71,41.77,41.77,0,0,0,.21,7.81c.65,0,1.25-.88,1.8-1.53C75.52,19,76.61,18.28,76.71,17.16Z"/></g></g></svg>