<svg xmlns="http://www.w3.org/2000/svg" viewBox="0 0 1581.77 1604.44"><defs><style>.cls-1{fill:#fcd248;}.cls-2{fill:#de9284;}.cls-3{fill:#4ea3ba;}</style></defs><g id="Layer_2" data-name="Layer 2"><g id="Layer_1-2" data-name="Layer 1"><path class="cls-1" d="M-7165.48,95.82c60.8,6.28,168.47,15.94,275.9-44.5,140.88-79.26,186.33-225.63,204.7-284.8,12.31-39.66,82.67-281.44-62.3-498.41-131.2-196.36-406.07-323.46-667.51-222.5-246,95-387.91,356.25-347.1,596.3C-7695.27,33.27-7189.79,93.31-7165.48,95.82Z" transform="translate(8097.85 989.87)"/><path class="cls-2" d="M-7315.89-607.14l239.62,662.46a91.19,91.19,0,0,1-56.91,117.52l-626.07,208.69a91.19,91.19,0,0,1-115.25-57.39L-8093-324.47a91.17,91.17,0,0,1,54.93-114.69l605-222.54A91.18,91.18,0,0,1-7315.89-607.14Z" transform="translate(8097.85 989.87)"/><path class="cls-3" d="M-6558.26-69.57l-740-380.29c-74.41-38.24-179.76,36.32-169,119.61q56.61,437.79,113.23,875.58c9.14,70.64,97.89,92.63,163.76,40.57l626.72-495.3C-6502.55,42.44-6499.87-39.56-6558.26-69.57Z" transform="translate(8097.85 989.87)"/></g></g></svg>