<svg xmlns="http://www.w3.org/2000/svg" viewBox="0 0 1466.14 965.76"><defs><style>.cls-1{fill:#de9284;}.cls-2{fill:#fff;}.cls-3{fill:#143138;}.cls-4{fill:#eab6ae;}</style></defs><g id="Layer_2" data-name="Layer 2"><g id="Layer_1-2" data-name="Layer 1"><path class="cls-1" d="M1267.92,727.13c-56.13,34.43-190.62,75-194.45,75.74-94.14,19.58-58.05,114.8-162,97.77-161.28-26.42-218,46.31-379.94,61.57C491,966,210.88,992.44,73.93,812.69-30.45,675.69,3,490.64,13.48,443.29,22,404.85,37.81,337.05,89.2,271.52q5.08-6.48,10.63-12.93c48.86-56.59,108-89,162.27-107.44,73.76-25.11,138.7-24.62,157.23-24.48,95.59.71,262.58-41.38,408.3-77.22C939.16,22,1038.23-1.76,1083.3.1c95.84,4,219.71,76,357,330.74C1544.93,525,1299.93,707.49,1267.92,727.13Z"/><path class="cls-2" d="M124.68,399.36C92.09,474,106.52,541.78,116.46,588.48c10.47,49.19,29.14,136.88,106.89,197.34,109.38,85,247.43,47.6,271.34,41.11,36-9.76,154.1-41.8,197.34-148,51.6-126.71-46.1-253.94-65.78-279.57C555,306.62,409.42,211.1,272.69,259.58,171.85,295.33,128.44,390.75,124.68,399.36Z"/><path class="cls-3" d="M461.8,744.71c48.52-15.27,64.93-63.16,65.78-65.78,15.51-47.83-5.21-109.76-57.55-131.56-59-24.59-121.9,17-139.79,65.78-12.93,35.27.38,66.91,2.56,71.89C353.12,731.33,410.61,760.82,461.8,744.71Z"/><path class="cls-2" d="M457.76,579.73c-4.88-11.53-18.76-14.24-27.66-13.1-1.84.23-17.41,2.49-21.84,16-3.26,10,1.32,20.49,8.74,26.2,9.29,7.17,22,6,30.57,0S462.39,590.68,457.76,579.73Z"/><path class="cls-2" d="M722.63,268.45C690,343.1,704.46,410.87,714.41,457.57c10.47,49.19,29.14,136.88,106.89,197.34C930.67,740,1068.73,702.51,1092.64,696c36-9.77,154.09-41.8,197.34-148,51.6-126.71-46.1-253.94-65.78-279.57C1153,175.71,1007.37,80.19,870.63,128.67,769.79,164.42,726.39,259.84,722.63,268.45Z"/><path class="cls-3" d="M1059.75,613.8c48.51-15.27,64.93-63.16,65.78-65.78,15.51-47.83-5.21-109.76-57.56-131.56-59-24.59-121.9,17-139.78,65.78-12.93,35.27.37,66.91,2.56,71.89C951.07,600.42,1008.55,629.91,1059.75,613.8Z"/><path class="cls-2" d="M1055.7,448.82c-4.88-11.53-18.76-14.24-27.66-13.11-1.84.24-17.4,2.49-21.83,16-3.26,9.95,1.32,20.48,8.73,26.2,9.29,7.16,22,6,30.57,0S1060.34,459.77,1055.7,448.82Z"/><path class="cls-4" d="M827.63,49.45c-27,22.54-73.41,40.81-111.37,89.83-62.5,80.69-41.82,166.79-78.06,174C610,318.82,586.66,269,553.45,233c-75.83-82.25-197.39-86.51-291.35-81.8,73.76-25.11,138.7-24.62,157.23-24.48C514.92,127.38,681.91,85.29,827.63,49.45Z"/><path class="cls-4" d="M1082.78,104.79c-3.71,16.32,36.17,32.26,84.68,68.22,17.45,12.93,80.36,61.31,122.31,129.37,19.66,31.87,64.86,105.2,51.75,188.17-15.26,96.58-101.13,153-87,169.35,7.59,8.8,36.62-2.74,54.1-14.11,24.76-16.11,37.59-39.22,58.81-94.08,24-62.1,36-93.15,37.63-110.56,5.72-61.44-30.6-113.93-103.5-216.4C1213,100.33,1172.7,88.38,1148.64,86,1120.43,83.16,1086,90.64,1082.78,104.79Z"/></g></g></svg>