<svg xmlns="http://www.w3.org/2000/svg" xmlns:xlink="http://www.w3.org/1999/xlink" viewBox="0 0 594.62 590.45"><defs><style>.cls-1{fill:none;}.cls-2{clip-path:url(#clip-path);}.cls-3{fill:#dadee0;}.cls-4{fill:#62b8d6;}.cls-5{fill:#d5e5b2;}.cls-6{fill:#fed436;}.cls-7{fill:#ffea9a;}.cls-8{fill:#28424c;}.cls-9{font-size:18.3px;font-family:GoodDogNew, GoodDog New;}.cls-10,.cls-9{fill:#fff;}.cls-11{fill:#fede67;}.cls-12{fill:#abc961;}.cls-13{fill:#a1d4e6;}.cls-14{fill:#d7563b;}.cls-15{fill:#455b64;}.cls-16{fill:#a9c65c;}.cls-17{fill:#feea98;}.cls-18{clip-path:url(#clip-path-2);}.cls-19{clip-path:url(#clip-path-3);}.cls-20{fill:#fff4cc;}.cls-21{fill:#eaf1d7;}.cls-22{fill:#c1e4ef;}</style><clipPath id="clip-path" transform="translate(48.49 57.05)"><rect class="cls-1" width="476.22" height="476.22"/></clipPath><clipPath id="clip-path-2" transform="translate(48.49 57.05)"><path class="cls-1" d="M10.46,465.29c-2.34,7.28-3.54,10.94-4.9,11.92-4.59,3.28-11.21-1.29-25.34-4.47-17.13-3.85-28.39-1.84-28.6-3.72-.16-1.4,6-2.73,21.25-6.71,27.53-7.18,37.58-10.75,40-7.44C13.53,455.7,12.51,458.91,10.46,465.29Z"/></clipPath><clipPath id="clip-path-3" transform="translate(48.49 57.05)"><path class="cls-1" d="M39.41,438.78c10,4.44,12.68,14.25,13.89,18.62S56.8,470,52.49,476c-8.32,11.62-38.32,11.6-49-2.23A21.14,21.14,0,0,1,.18,454.42c3.62-10.83,15.28-14.74,18-15.64C21.11,437.79,30.3,434.71,39.41,438.78Z"/></clipPath></defs><g id="Layer_2" data-name="Layer 2"><g id="Layer_1-2" data-name="Layer 1"><g class="cls-2"><polygon class="cls-3" points="561.22 57.05 561.22 552.35 32.43 566.02 48.07 57.05 561.22 57.05"/><path class="cls-4" d="M208.43,393.41c-6.12,6.26-16.08-3.78-60.15-15.86-7.79-2.14-12.55-3.37-15.68-4.19-4.85-1.28-5.82-1.58-8.18-2.72-.59-.29-1.17-.58-1.74-.88h0c-.63-.32-1.25-.65-1.85-1s-1.37-.78-2-1.18l0,0-1.45-.91,0,0h0c-.79-.5-1.56-1-2.3-1.54-.39-.27-.78-.55-1.15-.83a73.82,73.82,0,0,1-7.77-6.53,91.2,91.2,0,0,1-14.6-18.53c-1.54-2.55-2.84-4.94-3.94-7.07s-2-4-2.66-5.46l-1.29-2.78c-1.66-3.6-3.14-6.91-4.44-10-14.51-34-7.86-36.32-1.35-52.73,1.61-4,7.84-19,13.77-16.93,4.68,1.68,7.7,5.59,4.74,14.94-3.1,9.78-5,8.69-1.38,21,2.62,8.84,4.15,13.73,8.16,15.07,5,1.67,8.61-3.95,16.33-6.91,11.38-4.35,26.52-.92,36.43,7.54,13.51,11.54,16.46,31.76,10.68,44.59-3.74,8.29-9,8.87-8.8,14.45.48,11.08,14,23.52,32.2,20.76,6.43-1,18.64,3.1,21.23,5.76S212.06,389.7,208.43,393.41Z" transform="translate(48.49 57.05)"/><path class="cls-5" d="M104.55,153.33c1,10.74-11.26,13.75-16.31,33.92-2.51,10-3.31,24.69,2.42,27.63,2.6,1.34,6,0,9.06-1.88A170.7,170.7,0,0,0,110,180.34c2-9.56,2.89-18.48,7.85-20.1,3.83-1.25,5.73,3.26,11.48,3.14,9.07-.19,15.57-11.64,17.52-15.07,2.57-4.53,6-10.53,4.83-17.59-1.09-6.74-5.22-7.56-10.27-17.58-3.74-7.43-6.43-12.76-4.83-17,4-10.61,33.39-8.48,48.93-5.65s21.61,13.67,30.81,10c5.92-2.34,10.87-8.92,9.66-13.19-1.29-4.58-9.12-4.6-24.16-7.54C175.05,74.63,174,69.63,158.32,69.17a83.57,83.57,0,0,0-31.42,5.66c-24,9.32-51.68,33.29-47.72,50.87C82.34,139.67,103.21,139.52,104.55,153.33Z" transform="translate(48.49 57.05)"/><path class="cls-6" d="M358.89,109.3c-7.28,8.07-18.46,2.7-21.89,8.65-9.05,15.7.11,18.19,8.79,31.37,8.31,12.61,15.28,18.93,21.36,18.82,8.46-.15,10.36-13.45,18.84-13.84,8.16-.37,18.11,11.41,18.84,22.87,1.18,18.59-22,34.09-25.12,36.1-10.58,6.88-18.11,7.33-21.36,15-3,7.09-.94,17,3.77,18.65,1.51.54,6.39,1.34,30.78-27.68,15.47-18.4,23.2-27.61,26.37-35.49,9.78-24.28,2.81-47.3,0-56.56-2.95-9.76-12.3-40.63-44-58.36-37.85-21.2-80.19-8.28-100.49,4.21-5.8,3.57-20,12.33-18.21,20.46,1.06,4.76,7.51,8.81,13.19,8.42,8.24-.57,9.31-10.11,18.84-18,15.61-13,41-11,56.52-4.21,5.45,2.37,14.9,6.49,17,15C363.59,100.83,362.67,105.1,358.89,109.3Z" transform="translate(48.49 57.05)"/><path class="cls-7" d="M362,392.75c-.88,1.05-1.8,2.07-2.75,3.08a83.68,83.68,0,0,1-10.65,9.57c-12,9.09-25.65,14.21-40.7,18-4.07,1.05-8.25,2-12.54,2.89q-3.83.81-7.77,1.57c-2.37-2.88-4.75-4.68-7.7-5-3.56-.37-7.73,1.45-8.31,3.93-.27,1.18.31,2.3,1.82,3.92-5.76,1.27-11.17,2.53-16.24,3.16l-1.56.18c-9.17.92-17.2-.5-24.16-8.15-8.25-9.06-10.19-21.79-10-24.31,1.08-12.51,5.63-11.83,10-11.14,2.5.4,4.61,5.95,5.47,9.59,1.07,4.45,1.52,8.36,5.72,15.26,3,4.87,7.18,7.77,11.94,7.47a11.25,11.25,0,0,0,1.27-.15c3-.54,6.18-2.34,9.39-5.68,7.75-8.07,3-22,2.49-23.51-3.7-10.45-10.76-10.93-11.2-17.64-.78-11.93,20.42-27.21,35.48-24.1,1.18.24,6.2,2.91,16.18,8.23,13.5,7.19,14.17,7.64,16.81,8.82,11.54,5.11,18.61,8.25,24.9,6.46,13.21-3.75,17.8-27.79,17.43-42.91-.17-7-2.19-16-6.23-34.1-3.5-15.71-2.94-28.3.23-30,2.93-1.58,10.42,4.86,11.75,6.05C391.73,291,395.65,353.53,362,392.75Z" transform="translate(48.49 57.05)"/><path class="cls-8" d="M330.67,282.77c10.32-25.29-1.1-41.4,12.69-57.19,2.77-3.17,5.93-5.3,12.24-9.56,13-8.77,22.44-15.14,32.5-14.43,19.69,1.38,33.35,29.28,36.23,35.18,6.35,13,7.72,24.44,11.52,24.27,2.72-.12,5.61-6.15,5.63-11.84,0-11.29-11.23-15.38-10.48-24.64.33-4.16,3-6.91,8.38-12.24,15.47-15.38,31-18,30.28-22.33-.44-2.58-6.36-4.37-11.11-3.58-5.81,1-7.88,5.43-13.6,10.61-2.82,2.57-13,11.77-24.27,11.52-9.62-.21-20.32-7.27-23.46-17.14-4.17-13.1,5.89-28.31,17.27-34.5,24.55-13.37,61.86,11.59,64.65,6,.94-1.88-2.76-5.72-5.06-7.58-10.39-8.35-23-.88-27.8-7.31-3.8-5.12.65-14.72,1.39-16.24,3.82-7.87,10.91-10.83,9.81-13.51-.64-1.54-3.66-2.17-6-1.59-6.7,1.66-9.2,13.48-10.07,17.61-1.5,7.11-.14,8.59-2.18,10.8-3.68,4-9.11.2-19.39,3.45-7.47,2.36-8.41,5.56-11.52,4.66-5.62-1.63-3.35-12.36-10.55-24.89-6.46-11.22-17.49-18.61-19.29-17.2-1.36,1.06,2.09,7.6,3.09,9.5,4.43,8.39,8.41,10,12.6,16.14,1.79,2.63,7.43,10.94,6.21,20.7-1.28,10.27-9.44,16.54-14.28,20.25-2.9,2.23-15.58,12-23.92,7.64-3.7-1.91-4.28-5.41-6.7-10.79-8.69-19.27-21-18.05-28.36-36.32-1.4-3.43-6.39-15.74-1.27-21.32,5.29-5.76,18.37-1,19-3.61.41-1.56-3.91-5.17-8.81-5.46-7.53-.44-11.83,7.24-14.57,5.75s2-10.1-.9-20.3C318,84.08,310.17,77.74,309,78.46c-.71.46,1.41,3.59,3.27,10,2.87,9.89.83,12.79,2.71,25.38,1.6,10.71,4.07,15.29,2.37,16.34-3.08,1.91-14-11.41-15.39-10.28s9.65,14.8,7.5,17.1-13.36-9.68-30-16.83c-29.93-12.83-72.32-8.24-85.91,6.46-1.45,1.57-5.86,6.8-10,5.82-2.74-.65-4.36-3.84-6.15-9.26-5.17-15.58-8.13-24.48-3.89-32.7,5.38-10.42,18.6-12.57,17.62-15.71-.51-1.63-4.47-2.35-7.71-1.56-7.58,1.86-8,11.26-13.24,12.72-6,1.68-16-7.79-21-18.88-12.07-26.91,7.58-59.13,3.25-61-1.7-.74-5.64,3.79-8,8-8.46,14.83-.34,30.15-5,32.7-4.91,2.69-13.33-14.69-32.79-18.14-7-1.23-17.83-1.13-20.57,4.16-1.6,3.09-.35,7.81,1.18,8.17,1.3.3,2.11-2.64,5.37-5.06s8.88-4.23,10.88-2.43c3.36,3.05-7,13.29-6.43,29.49.32,8.48,3.58,16.45,4.93,16.29.5-.06.82-1.26,1.51-10.27,1.08-14.18.77-17.42,3-22.25,1.53-3.35,3.32-7.27,7-8.5C122.17,35.32,133.35,50.05,134,51c4.66,6.27,6.36,13,9.56,26.1,3.3,13.55,5,20.32,3.53,23.66-6.59,15.6-47.4,20.89-61.87,4.79-10.65-11.85-5.19-33.25-13-34.91C69.58,70.05,66,72,65.53,74.17c-.63,2.7,3.9,4.35,7.37,10.27.59,1,5.33,9.1,2.65,13.09-3.2,4.75-13.42-1.49-20.07,4-6,4.92-5.34,16.29-3.77,16.8.92.3,1.75-3.22,6-7.29,1.35-1.29,7-6.68,13.19-6.4,4.59.21,7.14,3.42,11.41,7.12,7.53,6.52,16.56,11.2,22.61,12.87,13.56,3.75,17.73-6,35.26-3.93,4.19.5,17.57,2.11,21,10,2.93,6.69-2.93,14.13-15.08,31.71-30.49,44.08-31.27,51.76-30.64,57.27,1.73,14.87,14.64,21.17,10.66,30-1.44,3.19-4.1,4.5-20.78,10.81-23,8.7-31.57,11.37-31.31,14.27.17,1.83,3.78,3.18,6.39,3.46,8.09.87,13.65-7.82,15.75-6.45,2.84,1.86-6.75,18.31-3.52,20.72,1.59,1.2,6.19-1.17,9-4.61,5-6.17.77-11.73,4.94-18.36,3.77-6,11.56-8.35,17.07-8.36,7,0,12.17,3.76,15,5.86,30.54,22.85,45.81,34.28,49.19,45,5.79,18.31-1.61,35.55-4.63,42.59-22,51.24-89.67,65.7-86.22,75.8,1.26,3.7,7,3.26,13-1.09,14.1-10.13,28.1-14.36,33.42-12.08,4.7,2,.19,15.05,2.67,35.55,2.19,18.09,9.26,37.32,13.78,36.92,3.39-.29,6.22-11.78,5.5-21.86-.82-11.67-5.88-14.43-8-26.35a59.62,59.62,0,0,1,2.62-28.14c5.39-14.73,13.59-14.53,25.12-30.17,16.31-22.09,9.81-35.87,21.74-41.57,12.54-6,20.62,8.78,43.28,7.86,24.88-1,31.49-19.47,46.77-15.94,17.59,4.05,30.71,33.08,32.32,54.47,1.24,16.59-26.49,6.37-15.73,18.08,9.49,10.33,7.3,15.8,6.95,30.94-.13,5.81-4.19,41.33,2.05,32.1,13.46-19.9,3.43-38.73,8.32-40.12,4-1.13,4.64,4,11.73,12.5,20.05,24.09,23.77,17.81,25.57,15.93,1.56-1.63-10.88-13.12-18.42-21.5s-11.37-14.74-12-19.33c-2-14.6,4.09-15.89,2.12-33.27-3.45-30.38-29.62-46.23-24.77-52.93,2.3-3.17,8.32.22,31.29,2.16,25.19,2.13,31.77-.76,35.52-4.65,4.19-4.34,5.94-11.07,4.1-12.74s-6.82,3-16.5,5.86c-1.83.54-18.61,5.48-23.35-.33-6-7.41,10.21-28.94,7.71-30.62-1.64-1.09-8.1,8.54-21.44,16.25-1.43.82-15.77,9-18.48,5.9S323.5,300.36,330.67,282.77Z" transform="translate(48.49 57.05)"/><text class="cls-9" transform="matrix(1.05, -0.01, 0.01, 1, 332.64, 320.23)">TREE</text><path class="cls-10" d="M163.71,222.85c1-3.89,1.95-8.08,3-12.42.44-2.1,1-4.72,1.74-5.7,1-1.21,3.1-1.92,4.11-.24s.78,5.51,1,8.62c.35,4.36,1.25,14.43,2.05,18.28.79-3.14,1.57-7.78,2.19-9.5,1-4.71,1.65-8.67,2.68-13.69a63.88,63.88,0,0,1,1.69-7.63c.73-1.94,4.17-4.63,5.15-1.45.29,1.11-.06,5-.4,6.79-1.46,7.26-2.78,12.51-4.13,20.87-1,6.11-2.82,16.74-5.16,19.92-.64.9-1.58,1.85-2.73,1.54-1.91-.52-2.76-6.23-3.49-9.69-.78-3.72-1-7.87-2.5-11.19-2.36,4.74-3,11.16-5.46,16.57-.63,1.8-.85,4-1.91,4.81-1.58,1.16-3.31.66-4.17-1.41-1.66-7.79-2.14-17.2-2.9-24.81-.43-4.25-.85-9.61-1.41-14.19-.29-2.38-.92-6.54-.61-8,.53-2.32,4.49-3.14,5.43-1.15.61,1.25.7,5.35,1,7.57.89,7,1.85,20.15,2.14,26.32C161.54,229.75,163.12,225,163.71,222.85Z" transform="translate(48.49 57.05)"/><path class="cls-10" d="M209.84,201.79c3.72,5.51,4.59,15.25,4,23-.5,6.41-.91,8.73-2.45,12.64-2.68,7.43-7,11.48-12.69,11.58-4.19.07-6.78-3.3-8.63-7.57-2.07-4.79-2.88-7.77-2.73-15.66.18-8.94,1.91-16.66,4.33-20.95,2.24-4,5.23-7.61,9-7.78C203.68,196.93,207.77,198,209.84,201.79Zm-16.82,28c.36,4.14,3.39,9.86,5.5,11,3.54,1.88,6.52-2.25,7.73-5.37,1.55-4,2.24-10.33,2.14-15.24-.12-5.63-2.53-12-4.91-13.16a6.9,6.9,0,0,0-4.27-.88c-2.07.33-4.19,3.59-5,6.29C193.32,215.53,192.53,224.29,193,229.77Z" transform="translate(48.49 57.05)"/><path class="cls-10" d="M234.72,220.12c0-5.35,0-8.05.05-13,0-2.46-.4-6,0-8,.16-1,.95-2.62,2-3a2.08,2.08,0,0,1,2.66.84c.92,1.84.4,8.25.27,11-.44,9.7-.25,19.9-.14,29.8,0,2.75.31,6.56-.41,8.51-.52,1.41-2.4,2.58-3.78,1.71-.66-.43-1.13-1.83-1.73-3.68-2.18-6.07-4.52-11.54-6.31-17.9-.76-2.45-2.84-7.25-3.69-11.55-.48,4.78-.41,16.49-.58,21.09-.11,3.29-.13,9.62-1.11,11.28a2.37,2.37,0,0,1-3.63.67c-1.53-1.43-.52-8.27-.46-11.24.21-10,.8-20.14,1-30.19.06-3.13.09-7.83.8-9.11.48-.91,2.29-1.84,3.47-1.19s2,4.13,2.87,7.32c1.67,5.7,2.8,9.7,4.52,15.25.82,2.67,2.77,9.41,3.91,11.85C234.73,228.47,234.72,221.76,234.72,220.12Z" transform="translate(48.49 57.05)"/><path class="cls-10" d="M249.78,196.71c3.46,1.35,7,3.06,9.3,6.14a23.47,23.47,0,0,1,2.32,4.35,40.47,40.47,0,0,1,2.47,21.41c-1.13,7.4-2.65,10.72-6.5,14.07-3.25,2.82-5.94,4.3-10.89,3.65-2-.26-2.51-1-2.66-2.93.34-9.62.5-19.34.47-28.92,0-8.3-1.52-18,3-18.39A10.59,10.59,0,0,1,249.78,196.71ZM249,230.26c0,2.89-.16,6.78.48,7.66,5.54,1.3,9.88-6,9.83-16.22a23.25,23.25,0,0,0-3.48-12.37c-1.21-1.77-4.36-4.61-6.22-3.53-.77.47-.53,4.86-.54,7.54C249,219.74,249,224.31,249,230.26Z" transform="translate(48.49 57.05)"/><path class="cls-10" d="M273.12,237.43a24.68,24.68,0,0,0,5.94-.56c1.29-.24,4.42-1.76,5.69-1.17.78.37,1.68,2.74,1.24,5.42-.6,3.72-3.32,3.91-5.76,4a80,80,0,0,0-8.33.77c-3.35.47-3.6-1.42-3.89-6.78-.13-2.53-.05-7.25,0-10.2,0-4.73.11-11.74,0-19.52,0-4-.24-8.43.69-10.23,1.08-2.09,4.27-2.5,7.24-2.54,3.6,0,7,.16,7.31,3.06.28,2.59,0,4.49-1.7,4.73-.49.07-1.16.08-1.93.11-2.13.08-5,.26-6,1.32-.53.61-.55,2-.6,3.66-.05,1.85-.52,7.1.46,8.56a1.51,1.51,0,0,0,1.37.65c1.35,0,3.16-1.19,4.5-1.21.88,0,1.71.68,2,2.19.53,2.85-.61,4.49-1.75,5.1-.5.16-1.24.33-2,.49-1.57.33-3.77.71-4.44,1.73-.56.84-.49,2.92-.42,5,.06,1.56.13,3.35.27,4.62,0,.29.07.52.07.74Z" transform="translate(48.49 57.05)"/><path class="cls-10" d="M298.57,193.91c3.82,1.93,8.08,3.34,9.22,11.88,1,7.43-.87,11.13-2.17,13.16-.52.83-2.17,2-2.17,3.25,0,1.55,1.5,4.37,2.13,5.93,1.78,4.35,2.65,6.94,4.53,11.3.79,1.85,2,4.22,1.89,6.38-.18,2.74-2.94,4-4.64,2.7-1-.73-1.79-3.39-2.37-4.8-1.43-3.69-2.32-7-4-11-.85-1.4-1.29-3.93-2.34-4.57-.81-.49-2.79,1-3.16,2.3-.58,3.81.25,12.14-.76,15.74-.45,1.57-2.42,3.53-4.12,2s-1-6.47-.92-9.74c.07-4.69.15-10.31,0-15.65s-.25-10.36-.34-14.83c-.09-4.17-.62-9.76,0-12.29a3.79,3.79,0,0,1,3.23-3A13.84,13.84,0,0,1,298.57,193.91Zm4.15,17.28A11.07,11.07,0,0,0,301,204c-1.26-1.62-5.22-2.2-6.4-1.58-.73,4.41.06,13,.44,17.57,1.49,0,2.83-2,4.07-3.43C300,215.42,302.49,213.7,302.72,211.19Z" transform="translate(48.49 57.05)"/><text class="cls-9" transform="matrix(1.05, -0.01, 0.01, 1, 200.02, 253.54)">THE</text><path class="cls-11" d="M307.75,76.82c7.29.49,18.41-19.65,16.81-38.91C322.2,9.57,292.48-14.9,280.34-9.86c-6.93,2.88-8.81,15.63-8,23.89,1.35,13.18,9.74,15.54,21.22,36.26C303.33,67.84,303.06,76.51,307.75,76.82Z" transform="translate(48.49 57.05)"/><path class="cls-12" d="M387.44,118.48c9.09-1.26,13.46-21.78,12.31-37.49-1.64-22.41-15.34-46.48-24.5-45.6-9.59.93-12.05,29-12.28,31.67-.62,7.07-2.09,23.8,8,38.49C373.43,109.07,380.57,119.43,387.44,118.48Z" transform="translate(48.49 57.05)"/><path class="cls-13" d="M190.34,75.79c11,2.91,30.94-23,36.52-49.41,7.28-34.46-9.1-73.1-21.48-73C193.26-46.62,184.43-9.51,181.75,7,177.57,32.79,177.92,72.5,190.34,75.79Z" transform="translate(48.49 57.05)"/><path class="cls-12" d="M69,71.83c9.46-6,12.92-31.89,5.47-48.51C64.74,1.66,35.63-6.22,26.44,2.1c-9,8.13.73,32.11,6,42C40.62,59.42,58.29,78.54,69,71.83Z" transform="translate(48.49 57.05)"/><path class="cls-7" d="M72.71,71.07C71,64,46.12,60.43,26.18,68.66c-29.33,12.11-46,48.88-36.88,58.65,5.21,5.58,19.33,2.93,27.82-.75,13.57-5.88,13.46-14.67,31.85-32.8C64.56,78.41,73.84,75.65,72.71,71.07Z" transform="translate(48.49 57.05)"/><path class="cls-6" d="M81.13,276.46c2.94-7.74-10.72-34.09-29.61-44C26.92,219.5-7.32,231.55-8.66,241-9.85,249.38,15,267.77,27,273.2,45.67,281.64,79.18,281.56,81.13,276.46Z" transform="translate(48.49 57.05)"/><path class="cls-4" d="M429,321.41c8.23.57,30.28-15.4,35.14-31.79,6.32-21.36-14-44.64-23.47-43.63-8.38.9-19.9,23.62-22.13,33.84C415,295.74,423.52,321,429,321.41Z" transform="translate(48.49 57.05)"/><path class="cls-11" d="M177.6,393.3c-7.17,1.35-12.91,23.63-6.55,41.88,9.37,26.85,44.26,43.11,54.76,35.2,6-4.51,4.62-17.33,1.74-25.11-4.61-12.43-13.32-12.62-29.62-29.81C184.13,400.9,182.23,392.43,177.6,393.3Z" transform="translate(48.49 57.05)"/><path class="cls-5" d="M391.29-6.2c-2.83,6.2-2.91,27,1.14,35.67,5.79,12.33,21.25,9.61,23.79,3.92,4.71-10.52.55-30.11.1-32-1.18-5-4-16.92-12.91-15.95A13.77,13.77,0,0,0,391.29-6.2Z" transform="translate(48.49 57.05)"/><path class="cls-5" d="M111.29,420.18C108.22,418,75.08,421.42,55,439.36c-26.15,23.38-37.83,63.09-28.88,69.86,8.75,6.62,37.63-18,49.61-29.68C94.37,461.38,120.79,427.06,111.29,420.18Z" transform="translate(48.49 57.05)"/><path class="cls-6" d="M381.25,318c-7.68,8.13-4.55,34.11,6.82,48.34,14.8,18.54,45,18.9,51.78,8.55,6.67-10.12-8.73-30.91-16.29-39.15C411.8,322.92,389.91,308.83,381.25,318Z" transform="translate(48.49 57.05)"/><path class="cls-7" d="M381.52,115.82c2.92,5.44,24.52,2.77,39.6-8.5,22.18-16.57,28.7-50.59,19-56.57-5.52-3.42-16.84,1.94-23.23,6.88-10.2,7.9-8.31,15.11-20.08,34.17C386.88,108,379.64,112.32,381.52,115.82Z" transform="translate(48.49 57.05)"/><path class="cls-4" d="M109.65,102.07c5.88-2.21,17.06-18.76,16.15-30.24C124.62,56.89,104.41,49,98.05,52.58c-5.6,3.15-7.68,20.54-6.56,27.45C93.23,90.78,105.77,103.52,109.65,102.07Z" transform="translate(48.49 57.05)"/><path class="cls-4" d="M162.07,459.39c-6.59,1.28-21,17.55-21.74,30.6-1,17,19.34,29.91,26.65,27.21,6.43-2.38,11.26-21.45,11.11-29.42C177.85,475.38,166.42,458.55,162.07,459.39Z" transform="translate(48.49 57.05)"/><path class="cls-5" d="M505,347.58c-1.18-6.74-17.88-22.1-30.32-25.31-17.76-4.58-36.41,9.37-35.25,15.52,2.14,11.37,23.56,22.54,25.69,23.59,5.65,2.77,19,9.35,30.28,1.73C498.06,361.28,506.42,355.85,505,347.58Z" transform="translate(48.49 57.05)"/><path class="cls-6" d="M144.54,35.93c7.88-2.53,19.9-29.68,15.84-50.62C155.1-42,124.28-61.17,116-56.29c-7.26,4.3-6.06,35.2-2.79,48C118.33,11.5,139.34,37.61,144.54,35.93Z" transform="translate(48.49 57.05)"/><path class="cls-6" d="M353.34,289.55c-3.18-7.59-26-21.05-41.5-18.94-20.21,2.76-30.2,30.11-25.16,38.23,4.45,7.16,28.09,8.52,37.41,6.49C338.59,312.17,355.44,294.57,353.34,289.55Z" transform="translate(48.49 57.05)"/><path class="cls-12" d="M-6,326c8.37,7.33,28.3,4.06,39.92-2.27,16.58-9,24.7-28.94,16.56-36.46-8.51-7.87-32.92-.4-35.24.31-6.15,1.88-20.7,6.33-24.23,20C-9.87,310.83-12.36,320.46-6,326Z" transform="translate(48.49 57.05)"/><path class="cls-12" d="M401.82,490.76c4.22-7.62-4.11-22.6-12.88-30.65-12.53-11.49-32.39-14.76-36.84-7.3-4.65,7.8,8.62,25.62,9.88,27.31,3.34,4.49,11.25,15.11,24.31,15.77C389.42,496.05,398.64,496.51,401.82,490.76Z" transform="translate(48.49 57.05)"/><path class="cls-12" d="M508.48,97.75c-4.17-7.64-21.28-8.63-32.78-5.53-16.42,4.43-29.81,19.45-25.89,27.2,4.1,8.11,26.25,6.44,28.35,6.28,5.59-.42,18.79-1.41,26.34-12.09C506.31,111.06,511.63,103.52,508.48,97.75Z" transform="translate(48.49 57.05)"/><path class="cls-12" d="M60,179.49c3.93-.43,9.62-12,12.13-33.14,2-16.89-12.48-33.33-20.9-31.2-8.81,2.24-12,24.22-12.31,26.31C38.1,147,36.2,160.11,45,169.8,47.08,172.12,56.41,179.88,60,179.49Z" transform="translate(48.49 57.05)"/><path class="cls-6" d="M545.91,217.52c2.3-8-13.47-33.1-33.1-41.46-25.58-10.88-58.72,3.92-59.29,13.48-.5,8.42,25.79,24.72,38.18,29.15C511,225.58,544.39,222.77,545.91,217.52Z" transform="translate(48.49 57.05)"/><path class="cls-6" d="M403.88,417.44c-.64,8.8,9.61,33.24,20.67,39.24,14.42,7.82,31-12.83,30.56-23.08-.36-9-15.54-22.51-22.47-25.4C421.87,403.72,404.3,411.63,403.88,417.44Z" transform="translate(48.49 57.05)"/><path class="cls-13" d="M-20.79,433.28c2.62,6.2,31.58.6,44.78-4.9,17.21-7.17,27.92-27,23.56-33s-31.2-6.7-39.19-2.87C-4.06,398.51-23.74,426.28-20.79,433.28Z" transform="translate(48.49 57.05)"/><path class="cls-13" d="M323.25,458.74c-6.18-2.67-23.22,21.39-29,34.5-7.48,17.08-1.49,38.82,5.77,40.1s27.18-16.73,30.3-25C335.21,495.42,330.23,461.75,323.25,458.74Z" transform="translate(48.49 57.05)"/><path class="cls-12" d="M268.89,512.3c10.93-2.33,23.11-25.49,21.83-43.66C289.07,445,264.44,427.55,253,432.19c-11.24,4.54-10.37,30.41-8.83,41.48C246.54,490.89,256.55,514.92,268.89,512.3Z" transform="translate(48.49 57.05)"/><path class="cls-14" d="M84.07,467.7s0,0,0,0h0Z" transform="translate(48.49 57.05)"/><path class="cls-15" d="M46.87,443.15c.59.83,3,.32,5.39-.39,1.39-.41,2.75-.88,4.1-1.39a34.07,34.07,0,0,1,3.51-1.29,2.13,2.13,0,0,1,.85,0,2.4,2.4,0,0,1,.9.44,13.51,13.51,0,0,1,2.47,2.79A190.7,190.7,0,0,1,75,458.9a18.93,18.93,0,0,0,4.13,6l.64.66,0,0a6.36,6.36,0,0,0-.54.71l0,0a3,3,0,0,0-.35,2.2,2.07,2.07,0,0,0,1.71,1.25l1.23.06a9.35,9.35,0,0,0,1.56-.33,3.84,3.84,0,0,0,1.62-1.24h0a2.82,2.82,0,0,0,.51-1.82,3,3,0,0,0-.1-.64,2.27,2.27,0,0,0-1.16-1.41h0a3.37,3.37,0,0,0-2.58-.18l-.42-.64c-2-3-3.54-5.62-7.58-12.92-2.31-4.16-4.1-7.27-6-10.37a16.38,16.38,0,0,0-1.84-2.51,8,8,0,0,0-3.56-2.34,7.33,7.33,0,0,0-2.59-.29,9.93,9.93,0,0,0-2.32.46c-1.41.46-2.85.65-4,1.13-1.42.6-6.35-1.77-8,0C44.64,437.64,46.51,442.64,46.87,443.15Zm37.2,24.57h0s0,0,0,0h0Z" transform="translate(48.49 57.05)"/><path class="cls-15" d="M84.07,467.72h0Z" transform="translate(48.49 57.05)"/><path class="cls-15" d="M12.15,495.79c.18,1.15,12.92-3.13,31-5.85,6.08-.91,10.64-1.66,15.21-2.48,2.09-.42,4.36-.83,6.53-1.31l1.67-.36c.47-.15,1.51-.11.79-.68l-2-2.65-2.11-2.78-1.76-2.19c-.85-1-1.77-2.13-2.78-3.27-1.2-1.38-4.06-4.36-7-5.37-1.48-.53-2.84-.52-3.33.06-.79,1,.8,3.19,2.47,5.43,1.92,2.57,4,5.13,6.05,7.55,0,0,.08,0,.21.08a.11.11,0,0,1,0,.13l-.09.1,0,0-.34.09-.68.18c-7.28,2-15,4.25-23.79,5.86a65.93,65.93,0,0,0-13.93,4.07C17.07,492.94,12,495.07,12.15,495.79Z" transform="translate(48.49 57.05)"/><path class="cls-15" d="M39.87,417.42c.12,1.33,2.9,2.08,5.79,2.6,13.42,2.42,27.39-.45,44.64.58,1.44.09,8,.8,13.5,1.13l.25,0,.73,0h0l.83,0,.41,0h.37a5,5,0,0,0,.89-.07,5.27,5.27,0,0,0,.75-.14c2.81-.76,3.31-3.38,2.94-3.95-.53-.84-2.44-1-5.54-1.06h-1a205.67,205.67,0,0,1-24-.57c-11.84-1.14-17.84-1.43-29.86-2-1.81-.09-5.83-.25-8.54,1C40.75,415.66,39.8,416.6,39.87,417.42Z" transform="translate(48.49 57.05)"/><path class="cls-15" d="M13.65,468.12c-2.34,7.28-3.54,10.94-4.9,11.92-4.59,3.28-11.21-1.29-25.34-4.47-17.13-3.85-28.38-1.84-28.6-3.72-.16-1.4,6.35-8,21.57-12,27.54-7.19,37.26-5.45,39.72-2.14C16.72,458.53,15.71,461.74,13.65,468.12Z" transform="translate(48.49 57.05)"/><path class="cls-15" d="M39.41,438.78c10,4.44,12.68,14.25,13.89,18.62S59.45,472,55.13,478c-8.31,11.62-41,9.64-51.68-4.19A21.14,21.14,0,0,1,.18,454.42c3.62-10.83,15.28-14.74,18-15.64C21.11,437.79,30.3,434.71,39.41,438.78Z" transform="translate(48.49 57.05)"/><path class="cls-15" d="M37.83,401.46c6.05,4.18,4.68,6,9.4,22.32,3.23,11.13,4.51,17.2,2.86,20.87-3.44,7.66-19,11.24-31.05,7.45-2.7-.85-17.41-3.28-15.53-11.91,4.85-22.35,5.54-38.28,21.25-41C26.55,398.92,33,398.09,37.83,401.46Z" transform="translate(48.49 57.05)"/><path class="cls-16" d="M15.48,351c-2.19,2.22-11.54,12.24-10.63,26.81.22,3.42.94,15,11.44,23.09,7.09,5.46,19,9.61,27.79,6,4.6-1.92,4.86-4.54,13.89-9.68,6.58-3.75,7.73-3.09,9.81-5.22,1.6-1.64,5.12-6.34,0-24.57-4.68-16.66-7-25-13.89-28.3C41.78,333.22,24.37,342,15.48,351Z" transform="translate(48.49 57.05)"/><path class="cls-10" d="M35.39,361.9a8,8,0,0,1,.82,11.17c-3.44,4.15-11.13,4.65-14.71.75-3.07-3.35-2.25-9,1.63-11.92C26.43,359.4,31.86,358.9,35.39,361.9Z" transform="translate(48.49 57.05)"/><path class="cls-10" d="M55.53,346.36a8,8,0,0,1,.82,11.17c-3.44,4.15-11.13,4.65-14.71.75-3.07-3.35-2.25-9,1.63-11.92C46.57,343.86,52,343.36,55.53,346.36Z" transform="translate(48.49 57.05)"/><path class="cls-15" d="M34.89,368.67a4.5,4.5,0,0,1-3.39,1.77,4.76,4.76,0,0,1-4.25-2.56,4.85,4.85,0,0,1-.48-1.77c-.06-1.22.24-2.58.63-2.6.55-.06.74,2.87,1.62,2.88.53,0,1.25-1,1.07-1.82-.25-1.14-2-1.34-1.9-2s1.53-1,2.77-.93a4.85,4.85,0,0,1,3.44,2.24C34.69,364.25,36.32,366.61,34.89,368.67Z" transform="translate(48.49 57.05)"/><path class="cls-15" d="M55.75,351.83a4.5,4.5,0,0,1-3.39,1.77A4.77,4.77,0,0,1,48.11,351a4.85,4.85,0,0,1-.48-1.77c-.06-1.22.24-2.58.63-2.6.56-.06.74,2.87,1.63,2.88.52,0,1.24-1,1.06-1.82-.25-1.14-2-1.34-1.89-2s1.52-1,2.77-.94A4.85,4.85,0,0,1,55.26,347C55.55,347.41,57.18,349.77,55.75,351.83Z" transform="translate(48.49 57.05)"/><path class="cls-16" d="M39.78,414.08c3.85,2.14,6.23,8.83,3.74,12.39-1.53,2.2-4.6,2.64-8.16,3.1-2.33.3-18.51,2.4-22.44-5.27-2.14-4.17.51-9,.68-9.29,1.93-3.4,4-8.48,10.2-4.65C31.23,414.92,33.66,410.67,39.78,414.08Z" transform="translate(48.49 57.05)"/><path class="cls-16" d="M42.71,434.25c3.74,2.3,5.21,6.05,2.72,9.61-1.53,2.2-7.42,6.23-14.4,6.19A45.42,45.42,0,0,1,12,445.42c-6.87-3.55-4.79-6.83-4.49-8.87,1.55-10.43,8.13-3.67,15.51-2.3C35.38,436.55,37.54,431.08,42.71,434.25Z" transform="translate(48.49 57.05)"/><path class="cls-16" d="M41.06,451.7c7.71-2,10.69,10.06,11.6,12.5S53,472.14,49,474.71c-9.23,5.88-26,7.75-34.08,0-3.1-3-6.15-8.75-2.42-12.2,5-4.66-2.33-13.19,8.88-8.4C26.56,456.35,32.37,453.93,41.06,451.7Z" transform="translate(48.49 57.05)"/><path class="cls-17" d="M31.91,378.28c-.05-.15-.7.14-1.91.33a10.18,10.18,0,0,1-4.87-.45,14.19,14.19,0,0,1-2.92-1.43,10.93,10.93,0,0,1-2.39-2.06,9.28,9.28,0,0,0-1.26-1.28c-.27-.18-.57-.27-.72-.18s-.09.76.23,1.36a8.06,8.06,0,0,0,3.63,3.29,17.35,17.35,0,0,0,5.5,1.56,7,7,0,0,0,3.36-.36C30.86,379,32,378.43,31.91,378.28Z" transform="translate(48.49 57.05)"/><path class="cls-17" d="M51.07,362.79c-.12-.09-.3.44-1.23.76a6.89,6.89,0,0,1-4.1-.23,17.88,17.88,0,0,1-2.64-1.05,15.16,15.16,0,0,1-2.4-1.45,5.77,5.77,0,0,0-1.39-.84c-.27-.09-.54-.09-.64,0s.15.63.54,1.06c1.89,2,4.86,2.82,8.32,3.33a4.31,4.31,0,0,0,2.87-.55,2.18,2.18,0,0,0,.53-.53C51.09,363.07,51.13,362.83,51.07,362.79Z" transform="translate(48.49 57.05)"/><path class="cls-17" d="M42.06,473.08s0,.05.08.12.08.24-.1.42a.82.82,0,0,1-.92,0,1.21,1.21,0,0,1-.69-1,1.74,1.74,0,0,1,.63-1.26,3.13,3.13,0,0,1,1.53-.74c.21-.05.65-.07,1-.13.18,0,.36-.09.39-.16s-.33-.32-.83-.37a3.36,3.36,0,0,0-2.84,1.15,1.73,1.73,0,0,0,.21,2.6,1.63,1.63,0,0,0,.74.33,1.46,1.46,0,0,0,.74,0,.76.76,0,0,0,.48-.48.46.46,0,0,0-.1-.41C42.26,473,42.07,473,42.06,473.08Z" transform="translate(48.49 57.05)"/><g class="cls-18"><path class="cls-16" d="M0,467.52c.39-.09-1.82-3-2.12-7.68a29.64,29.64,0,0,1,.48-7.69,6.77,6.77,0,0,0,.17-2.21c-.08-.39-.27-.69-.5-.72s-.76.63-1,1.38c-1.38,3.53-.69,7.47.24,12a9.84,9.84,0,0,0,1.49,3.53C-1.12,466.43-.22,467.59,0,467.52Z" transform="translate(48.49 57.05)"/><path class="cls-16" d="M-7.45,466.87a.19.19,0,0,1-.09,0c-.08,0-.09-.09-.08,0s-.14.22-.2.25.14-.08.26,0h0v0l0,0h0s-.14-.27-.08-.15h0s0,.05,0,0,.06-.18,0-.14l0,0a.53.53,0,0,1-.16-.25c-.07-.16-.15-.32-.22-.5a22.14,22.14,0,0,1-1.76-5.84,44.17,44.17,0,0,1-.47-8.21,6.35,6.35,0,0,0-.21-2.36c-.15-.39-.41-.67-.65-.67s-.67.78-.85,1.6c-.83,3.87.42,7.87,1.69,12.6a11.53,11.53,0,0,0,1.74,3.67,1.32,1.32,0,0,0,.36.38c.18.13.51.22.68.07s-.1-.28-.17-.25.06-.11,0-.1,0,0,0,0A.75.75,0,0,0-7.45,466.87Z" transform="translate(48.49 57.05)"/><path class="cls-16" d="M-15,466.65c.36-.1-1.72-2.88-2.46-7.28a43.75,43.75,0,0,1-.63-7.4,5.67,5.67,0,0,0-.27-2.12c-.15-.35-.39-.6-.61-.59s-.58.72-.71,1.47c-.6,3.5.62,7.06,1.82,11.31a10.48,10.48,0,0,0,1.6,3.3C-16,465.62-15.18,466.72-15,466.65Z" transform="translate(48.49 57.05)"/><path class="cls-16" d="M-23.43,465.69c.27-.09-1.51-2.11-2.34-5.45a32.52,32.52,0,0,1-.92-5.64A4.7,4.7,0,0,0-27,453c-.14-.26-.34-.44-.5-.42s-.4.58-.46,1.16c-.27,2.71.88,5.39,2.07,8.58a7.87,7.87,0,0,0,1.43,2.44C-24.32,465-23.58,465.76-23.43,465.69Z" transform="translate(48.49 57.05)"/><path class="cls-16" d="M-29.07,467c.22-.11-1.68-1.53-2.77-4.26A19.71,19.71,0,0,1-33.09,458a4.23,4.23,0,0,0-.34-1.35c-.13-.22-.3-.37-.44-.35s-.33.51-.36,1c-.11,2.34,1.09,4.58,2.54,7.14a6.38,6.38,0,0,0,1.58,1.87C-29.94,466.49-29.18,467-29.07,467Z" transform="translate(48.49 57.05)"/></g><g class="cls-19"><path class="cls-16" d="M10.79,454.18l0,0s-.07.09,0,.06.08,0,0,0,0,0,0-.07a.62.62,0,0,0,0-.1.37.37,0,0,1,0-.09l-.07,0-1.13-.65a18.65,18.65,0,0,1-3.56-2.6,40,40,0,0,1-4-4.31,4.93,4.93,0,0,0-1.22-1.18c-.27-.15-.54-.21-.66-.11s0,.68.29,1.19c1.37,2.39,3.86,4.08,6.66,6.23a9.78,9.78,0,0,0,2.58,1.41l.77.24C10.89,454.19,10.7,454.2,10.79,454.18Z" transform="translate(48.49 57.05)"/><path class="cls-16" d="M9.42,459.8c.22-.27-3.25-1.19-6.6-4.25a36.27,36.27,0,0,1-5-5.54,6.75,6.75,0,0,0-1.44-1.59c-.33-.21-.67-.3-.84-.19s-.06.87.27,1.54c1.55,3.16,4.72,5.43,8.38,8.07a11.5,11.5,0,0,0,3.38,1.67C7.92,459.62,9.32,460,9.42,459.8Z" transform="translate(48.49 57.05)"/></g><path class="cls-17" d="M37,417.72c-.06-.28-.75-.06-2,.1a11.72,11.72,0,0,1-5-.38,28.58,28.58,0,0,1-3.13-1.2A20.05,20.05,0,0,1,24,414.67a3.26,3.26,0,0,0-1.86-.65,1.72,1.72,0,0,0-1.14.46c-.38.42-.06,1.07.42,1.63a8.58,8.58,0,0,0,4.65,2.52,55.78,55.78,0,0,0,6,.85,6.19,6.19,0,0,0,3.51-.6C35.93,418.75,37.08,418.05,37,417.72Z" transform="translate(48.49 57.05)"/><path class="cls-17" d="M36.78,423c-.16-.27-.77.16-2,.65a10.47,10.47,0,0,1-5.15.7,22.22,22.22,0,0,1-3.42-.72,15.56,15.56,0,0,1-3.14-1.26,3.49,3.49,0,0,0-2-.53,1.87,1.87,0,0,0-1.16.55c-.38.46,0,1.14.57,1.71a8.59,8.59,0,0,0,5.3,2.14,35.26,35.26,0,0,0,6.5-.22,5.87,5.87,0,0,0,3.43-1.47C36.06,424.36,37,423.32,36.78,423Z" transform="translate(48.49 57.05)"/><path class="cls-17" d="M39.34,435.23c-.12-.32-.67.15-1,.28l-.53.2c-.46.22-1.07.49-2.16.94a11.16,11.16,0,0,1-4.17.84,55.09,55.09,0,0,1-7.26-.64,3.38,3.38,0,0,0-2.2.26,1.53,1.53,0,0,0-.73,1c-.05.59.61,1,1.32,1.26a12,12,0,0,0,5.45.55,57.31,57.31,0,0,0,6.3-1.07,6,6,0,0,0,3.23-1.76,4.23,4.23,0,0,1,.52-.52l.35-.31C38.66,436,39.53,435.78,39.34,435.23Z" transform="translate(48.49 57.05)"/><path class="cls-17" d="M38.86,443.41s0,0,0,0,.07.05.07.09a.11.11,0,0,1,0-.06s0,0-.06,0-.13,0-.27-.26-.19-.17-.29-.17l-.29.11-.72.29a12.21,12.21,0,0,1-4.53.88,23.78,23.78,0,0,1-6.08-.73,3,3,0,0,0-1.81-.07,1.5,1.5,0,0,0-.83.7c-.2.46.28,1,.88,1.3a8.11,8.11,0,0,0,4.85.89c1.75-.13,3.5-.54,5.45-.85a5.76,5.76,0,0,0,2.89-1.31c.11-.1.39-.36.62-.62.06-.06.1-.14.08-.18s.08,0,0,0h.07v0c0,.11,0,0-.06,0S38.87,443.42,38.86,443.41Z" transform="translate(48.49 57.05)"/><path class="cls-15" d="M-23.61,483.87a1.75,1.75,0,0,0-.36,1.3c0,.61.18.59.35,1.08a2.86,2.86,0,0,0,1,1.28,6.22,6.22,0,0,0,3,1.13,9.11,9.11,0,0,0,1.9,0c.78-.08,1.24-.2,1.86-.31,4.76-.91,11.47-2.09,19.31-3.34,4-.65,7.27-1.32,10.39-2.11,1.56-.4,3.08-.82,4.65-1.3.39-.11.79-.24,1.18-.37l1.56-.52A4.94,4.94,0,0,0,24.59,478c.47-1.19,0-2.34-1.09-4.25a28.19,28.19,0,0,1-1.57-4.42c-1-2.6-1.85-5.19-4.21-6.24-4.63-1.6-4.63,1.35-5.26,2.83-.37,2.05.38,2.82,1.75,4.86a49.92,49.92,0,0,0,3,4l.82,1,.41.48c.07.08,0,0,0,0s0,0,0,0l0,0v0s.07,0-.29.13l-3,1.21c-2.07.78-4.21,1.57-6.45,2.3A94.35,94.35,0,0,1-5.94,483.6c-.72.12-2.32.36-4.46.83-1.07.24-2.27.54-3.56.9-.64.18-1.31.39-2,.61l-2,.68c-.48.14-.62.69-.38-1.38.12-1,.53-2.92-3.23-2.28C-23,483.33-23.24,483.39-23.61,483.87Z" transform="translate(48.49 57.05)"/><path class="cls-15" d="M61.41,422.07c-.25-.91-9.75,3.63-23.81,6.43l-6.35,1.25-1.4.28-.38,0h-.16s0-.06,0-.09l0-.08c0-.06,0,0-.08-.15a106,106,0,0,1-5.58-9.65C23,418.9,22,412,20.33,410.55c-.89-.76-3.67.13-4.2,2.87-1,3.69.84,3,1.51,5.19a33.61,33.61,0,0,0,3.26,7.2c.69,1.17,1.45,2.31,2.26,3.45.4.57.82,1.14,1.25,1.7l1.66,2.14.67.87.52.72.54-.1.18,0,.18-.05.95-.26,1.85-.51,1.1-.34L36.57,432c3.08-.93,6.28-1.86,9.7-2.73a45.89,45.89,0,0,0,10.65-4.07C57.84,424.7,61.58,422.63,61.41,422.07Z" transform="translate(48.49 57.05)"/><path class="cls-15" d="M83.23,285.08c-8.64-4-55.61,56.73-49,62.41,3.66,3.13,9.16-16.92,18.49-28.66,13.51-17,18.43-26.64,30.53-20.09C89.37,302,85.69,286.22,83.23,285.08Z" transform="translate(48.49 57.05)"/><path class="cls-15" d="M15.88,280.38c-9.54,1.52-7.11,75.78,1.93,76.7,5,.51-3.81-18.54-4.08-33-.39-21-2.81-31.39,11.18-32.77C32,290.59,18.6,279.94,15.88,280.38Z" transform="translate(48.49 57.05)"/><path class="cls-15" d="M11.44,434.49c-2.12,1.14-2.92,4.43-1.84,6.54.23.45.86,3.26,6.44,3.36,5.22.08,8.63-4.24,11-2.69,3.51,2.26,4.27,11.82,4.34,16.79.11,7,.1,10.94-4.34,19.85-4.68,9.4-7.66,10.88-6.44,11.66s5.22-2.91,5.52-3.19c0,0,14.15-12.78,6.12-47.56A4.71,4.71,0,0,0,30.21,436c-1.74-.94-3.49.13-6.07.5C17.69,437.44,14.58,432.8,11.44,434.49Z" transform="translate(48.49 57.05)"/><path class="cls-17" d="M12.79,436.36a3.13,3.13,0,0,0-.7,5c1.9,1.5,3.75.86,6-.91,3.42-2.7,8.17-2.8,10.26-1.59,3,1.77,4.92,11.06,5,14.95.09,5.48,0,13-3,20.33-3.23,8-7.42,12.24-6.36,12.85s5.44-7.5,5.71-7.71c0,0,8.13-12,1.17-39.19A3.62,3.62,0,0,0,29,437.54c-1.5-.74-3.77-.28-6,0C17.45,438.29,15.51,435,12.79,436.36Z" transform="translate(48.49 57.05)"/><path class="cls-17" d="M46.66,487.11c.06.31,4.21-.83,10.1-1.55,2-.25,3.47-.45,5-.66.68-.11,1.42-.22,2.12-.35l.55-.1c.15,0,.49,0,.26-.18l-.65-.7-.68-.74-.58-.58q-.41-.42-.9-.87A6.25,6.25,0,0,0,59.57,480a1.27,1.27,0,0,0-1.08,0c-.26.25.26.85.8,1.44s1.31,1.36,2,2c0,0,0,0,.07,0a0,0,0,0,1,0,0l0,0h0l-.11,0-.22.05c-2.37.53-4.89,1.13-7.75,1.56a25,25,0,0,0-4.53,1.08C48.27,486.35,46.63,486.92,46.66,487.11Z" transform="translate(48.49 57.05)"/><path class="cls-17" d="M-1.95,483.8c.07.73,8-1.67,15-3.4,2.36-.58,4.59-1.54,6.37-2.06.81-.26.87-.23,1.71-.53a10.65,10.65,0,0,1,1.44-.18c.74,0,1.2.26,1.4-.48.3-1.13-.42-1.57-.68-2.14s-.35-.61-.63-1.21-.81-2.19-1-2.67c-.33-.67-1.56-4.42-2-5.15a6.12,6.12,0,0,0-2.56-2.14c-.58-.34-1.83,0-1.71,2.14s1.3,3.77,1.95,5.19c.74,1.64,1.56,3.26,2.35,4.8,0,0,0,0,.08,0a.14.14,0,0,1,0,.09l0,.06v0l-.14.05-.26.12a73.72,73.72,0,0,1-9.24,3.73c-.64.19-3.2,1.06-6.3,2.13C1.36,483-2,483.33-1.95,483.8Z" transform="translate(48.49 57.05)"/><path class="cls-17" d="M19.13,413.1c1.47-.08,3.88,8.16,7.61,16.4a3.82,3.82,0,0,0,1.42,1.81c1.91,1.21,4.44.07,10.32-1.68,3.87-1.16,9-2.51,9.1-2.21,0,.05.08.45-1.85,1-8.72,2.66-7.39,1.77-12.88,3.66a35.32,35.32,0,0,1-4.53.55c-1.93-.35-3-3.19-4.64-7.32-2.34-6-6.59-8.18-5.33-11.28C18.48,413.74,18.74,413.12,19.13,413.1Z" transform="translate(48.49 57.05)"/><path class="cls-17" d="M44.77,417.8c1.46,2.49,14.81,1.31,18.21,1a167.43,167.43,0,0,1,19.14-.48q.1-.3.18-.6c-5.23-.43-15.83-1-35.77-1.89-.18,0-1.58-.19-2,.45S44.62,417.54,44.77,417.8Z" transform="translate(48.49 57.05)"/><path class="cls-17" d="M49.54,440c0-1.39,6.59-4.2,11.93-3a8.87,8.87,0,0,1,1.76.57C67,439.32,74.47,454.5,74,454.75s-8.64-15.95-12.81-16.36c-3.39-.33-5.45,2.05-9.42,2.75C50.84,441.31,49.54,440.67,49.54,440Z" transform="translate(48.49 57.05)"/><path class="cls-15" d="M12.31,492.6l-.08,0,.42-.16a2.34,2.34,0,0,1-.38.09l.47-.06h-.42l.47.05a1.51,1.51,0,0,1-.43-.11l.41.16a1.78,1.78,0,0,1-.36-.19l.36.25a1.12,1.12,0,0,1-.28-.25l.27.33a1.64,1.64,0,0,1-.14-.22l-.28,1.94.11-.09-.36.25.24-.12-.42.16a1.09,1.09,0,0,1,.3-.07l-.47,0a1.63,1.63,0,0,1,.38,0l-.47-.06a2.22,2.22,0,0,1,.37.09l-.42-.16a2,2,0,0,1,.32.17l-.35-.25a1,1,0,0,1,.21.2l-.27-.33a1,1,0,0,1,.14.22l-.17-.38a1.87,1.87,0,0,1,.07.22,1.21,1.21,0,0,0,.31.55,1.4,1.4,0,0,0,.49.41l.42.16a1.39,1.39,0,0,0,.7,0,1,1,0,0,0,.45-.11,1.28,1.28,0,0,0,.56-.33l.28-.32A1.66,1.66,0,0,0,15,494a.76.76,0,0,0,0-.26,2.68,2.68,0,0,0-.11-.63,3.17,3.17,0,0,0-.7-1.11l-.2-.17a3.2,3.2,0,0,0-.56-.37,3.26,3.26,0,0,0-1.37-.34,1.43,1.43,0,0,0-.68.13,1.51,1.51,0,0,0-.56.33,1.81,1.81,0,0,0-.52,1.14,1.54,1.54,0,0,0,.52,1.13l.35.25a1.94,1.94,0,0,0,.89.21h.09l-.47-.06a1.87,1.87,0,0,1,.32.08l-.42-.16a1.51,1.51,0,0,1,.28.15l-.36-.25a1.14,1.14,0,0,1,.25.24l-.27-.33a1.4,1.4,0,0,1,.16.26l-.17-.38a1,1,0,0,1,.08.28l-.06-.42a.82.82,0,0,1,0,.27l3.45-.43a2,2,0,0,0-.29-.68,2.3,2.3,0,0,0-.47-.56,3.29,3.29,0,0,0-1.34-.72,3.47,3.47,0,0,0-1.6-.05,2.71,2.71,0,0,0-1.37.69l-.28.32a1.16,1.16,0,0,0-.2.6.61.61,0,0,0,0,.42,1.23,1.23,0,0,0,.2.6,3.42,3.42,0,0,0,.44.55,1.37,1.37,0,0,0,.22.2,3.62,3.62,0,0,0,.61.41,4.12,4.12,0,0,0,.69.27l.31.07a4.88,4.88,0,0,0,.76.07c.2,0,.4,0,.6-.07l.16,0a3.52,3.52,0,0,0,.71-.25,1.25,1.25,0,0,0,.49-.42,1.15,1.15,0,0,0,.32-.54,1.16,1.16,0,0,0,0-.64,1.08,1.08,0,0,0-.21-.59,1.79,1.79,0,0,0-1.05-.74l-.47-.05a1.9,1.9,0,0,0-.88.21Z" transform="translate(48.49 57.05)"/><path class="cls-15" d="M117.42,420c-.27-.46-1.2-.4-2-.34a4.85,4.85,0,0,0-3.14,1.5,3.2,3.2,0,0,0-1.09,1.94c-.07.78.2,1.89.86,2.18C113.78,426,118.15,421.22,117.42,420Z" transform="translate(48.49 57.05)"/><path class="cls-15" d="M106.79,421c-.09.1.23.34.54.81a5.27,5.27,0,0,0,.75-.14,2.16,2.16,0,0,0-.61-.52C107.23,421,106.87,420.87,106.79,421Z" transform="translate(48.49 57.05)"/><path class="cls-15" d="M105.06,420.87c0,.07.14.22.38.58a3.07,3.07,0,0,1,.22.38l.41,0h.37a1.84,1.84,0,0,0-.39-.59C105.68,420.92,105.14,420.76,105.06,420.87Z" transform="translate(48.49 57.05)"/><path class="cls-15" d="M84.07,467.71h0S84.08,467.7,84.07,467.71Z" transform="translate(48.49 57.05)"/><path class="cls-15" d="M81.87,469.84l-1.23-.06a5.82,5.82,0,0,0,.91.09,4.62,4.62,0,0,0,1.88-.36A9.35,9.35,0,0,1,81.87,469.84Z" transform="translate(48.49 57.05)"/><path class="cls-15" d="M79.3,466.3a6.36,6.36,0,0,1,.54-.71l0,0A5.47,5.47,0,0,0,79.3,466.3Z" transform="translate(48.49 57.05)"/><path class="cls-10" d="M174.73,309.46c-2.47-5.33-12.32-7-15.79-3.2-3.18,3.49-.06,10.55.33,11.43.77,1.76,2.72,6.17,5.87,6.53C170.05,324.78,177.53,315.53,174.73,309.46Z" transform="translate(48.49 57.05)"/><path class="cls-10" d="M145.09,280.43c-5.79-1-12.72,6.24-11.53,11.25,1.09,4.59,8.69,6,9.63,6.16,1.89.35,6.63,1.22,8.71-1.18C155.13,292.92,151.69,281.53,145.09,280.43Z" transform="translate(48.49 57.05)"/><path class="cls-8" d="M151.47,286.15a3.73,3.73,0,0,0-2.94-2.64,4.56,4.56,0,0,0-5.14,2.84,3.79,3.79,0,0,0,3.18,4.48C149.16,291.19,152,288.47,151.47,286.15Z" transform="translate(48.49 57.05)"/><path class="cls-8" d="M174.25,309.92a3.81,3.81,0,0,0-2.8-2.89,4.31,4.31,0,0,0-4.91,3.11,4.11,4.11,0,0,0,3,4.88C172,315.42,174.74,312.45,174.25,309.92Z" transform="translate(48.49 57.05)"/><path class="cls-8" d="M126.9,290.86c1.44-.14,1.81,8.56,6.53,18.09,4.86,9.8,15.17,22.15,24.61,21.09,3-.34,6.76-2.12,7.47-1,.48.78-.67,2.43-1.51,3.24-4.05,3.92-14.06.91-19.86-2.16-12.09-6.4-18.7-19.84-18.78-31.3C125.34,295.45,125.88,291,126.9,290.86Z" transform="translate(48.49 57.05)"/><path class="cls-10" d="M264.61,368.34a6.88,6.88,0,0,0,6.21-6.21c.29-4.44-4.64-8.4-8.76-7.28a6.76,6.76,0,0,0-4.68,6.35C257.32,365,260.65,368.6,264.61,368.34Z" transform="translate(48.49 57.05)"/><path class="cls-10" d="M277.7,359.8a6.88,6.88,0,0,0,6.21-6.21c.3-4.44-4.64-8.4-8.76-7.28a6.76,6.76,0,0,0-4.68,6.35C270.41,356.44,273.74,360.07,277.7,359.8Z" transform="translate(48.49 57.05)"/><path class="cls-8" d="M275.94,352.8a3,3,0,0,0,2.75-2.75,3.27,3.27,0,0,0-3.87-3.21,3,3,0,0,0-2.07,2.8A3.14,3.14,0,0,0,275.94,352.8Z" transform="translate(48.49 57.05)"/><path class="cls-8" d="M262.1,362.31a3,3,0,0,0,2.74-2.74,3.28,3.28,0,0,0-3.87-3.22,3,3,0,0,0-2.07,2.81A3.13,3.13,0,0,0,262.1,362.31Z" transform="translate(48.49 57.05)"/><path class="cls-8" d="M265.68,375.26c.89-1.31,5.36,1.31,10.92.52,4.94-.7,10.58-4.06,12.1-8.57,1.89-5.57-3.29-10.69-.88-12.46,1.15-.84,3.25-.35,4.43.26,3.8,2,3.14,7.93,2.95,9.61a18.39,18.39,0,0,1-10,14.28c-5,2.44-12.76,3.51-17.12.26C266.52,378,265.08,376.13,265.68,375.26Z" transform="translate(48.49 57.05)"/><path class="cls-10" d="M353.47,126.24a8.76,8.76,0,0,0-10.79-2.43c-3.94,2.14-4.72,7-3.83,10.44,1.09,4.24,5.16,7.75,8.7,7.31C352.86,140.91,357.19,131.32,353.47,126.24Z" transform="translate(48.49 57.05)"/><path class="cls-10" d="M365.63,142.89a8.76,8.76,0,0,0-10.79-2.44c-3.94,2.14-4.72,7-3.83,10.44,1.1,4.24,5.16,7.75,8.7,7.32C365,157.55,369.35,148,365.63,142.89Z" transform="translate(48.49 57.05)"/><path class="cls-8" d="M347.86,132a4.92,4.92,0,0,0-5.4-1,3.63,3.63,0,0,0-1.91,4.43,4.51,4.51,0,0,0,4.35,3.1C347.55,138.17,349.72,134.11,347.86,132Z" transform="translate(48.49 57.05)"/><path class="cls-8" d="M360.64,148.67a4.91,4.91,0,0,0-5.4-1,3.64,3.64,0,0,0-1.91,4.43,4.54,4.54,0,0,0,4.35,3.11C360.34,154.89,362.5,150.82,360.64,148.67Z" transform="translate(48.49 57.05)"/><path class="cls-10" d="M138.89,157.57c2.29-3.42,1.32-8.91-2.16-10.39-2.21-.94-5.11-.13-7.28,1.95-3.36,3.2-3.44,8-1.21,10.28C130.89,162.15,136.53,161.09,138.89,157.57Z" transform="translate(48.49 57.05)"/><path class="cls-10" d="M136.9,142.34c0,4.11,3.9,8.12,7.61,7.4,2.36-.46,4.3-2.76,4.94-5.7,1-4.54-1.63-8.54-4.77-9.19C141,134.07,136.88,138.1,136.9,142.34Z" transform="translate(48.49 57.05)"/><path class="cls-8" d="M137.5,155.52a3.74,3.74,0,0,0-2.94-2.65,4.58,4.58,0,0,0-5.15,2.85,3.78,3.78,0,0,0,3.19,4.47C135.18,160.56,138,157.84,137.5,155.52Z" transform="translate(48.49 57.05)"/><path class="cls-8" d="M148.33,141.29a3.73,3.73,0,0,0-2.94-2.64,4.55,4.55,0,0,0-5.14,2.85,3.79,3.79,0,0,0,3.18,4.47C146,146.34,148.84,143.61,148.33,141.29Z" transform="translate(48.49 57.05)"/><path class="cls-8" d="M131.36,128.79c.13,1.05-4.4,1.17-7,4.11-3,3.37-1.84,8.65-2.66,8.68-.46,0-1-1.67-1.08-3.08a9.32,9.32,0,0,1,2.4-6.41c.38-.49,3.93-4.88,7.19-4C130.45,128.13,131.3,128.35,131.36,128.79Z" transform="translate(48.49 57.05)"/><path class="cls-8" d="M48.55,395.75c-1.2-1.93-8.17-1.14-11.08-5.35-1.78-2.58-.77-6.26-1.57-6.31s-2,2.68-1.91,5.42c.17,4.29,2,5.05,5,6.71a18,18,0,0,0,7,1.93C48.27,398.06,49.69,397.6,48.55,395.75Z" transform="translate(48.49 57.05)"/><rect class="cls-1" x="44.5" y="58.8" width="476.22" height="476.22"/><path class="cls-15" d="M-39.44,405.46c-.47-.22-2.79-1.27-4.53-.21-.46.29-1.68,1.22-1.85,4.53-.33,6.31,3.57,12.32,5.7,17.48.3.74,6.52,16.37-.27,27.54a21.61,21.61,0,0,1-8.1,7.55" transform="translate(48.49 57.05)"/><path class="cls-20" d="M-12.52,168.72c-5.23,4.56-17.24-4.07-18.91-1-2.13,3.93,12.19,6.12,11.83,11.36-.34,5-12.74,7.86-12.3,9.46s15.68-1.65,17.3.78c1.45,2.17,1.73,17,3,17.2,1.48.2,2.05-14.86,8-16.09,3.47-.71,13.35,13.48,16.09,10.42,2.54-2.84-8.54-12-6.15-17,1.61-3.39,17.46-5.25,17.51-7.1,0-1.45-17.31-.13-18-2.71-.86-3.52,11-15,8.32-19.05s-12.2,13.71-15.43,12.7c-2.69-.84-7-16.87-10-16.34C-15,152-7.88,164.66-12.52,168.72Z" transform="translate(48.49 57.05)"/><path class="cls-20" d="M248.08,76.47c-4.23-2.39-2.37-10.93-5.32-11.06-2.58-.12-3.1,3.46-4.57,7-1.24,3-1.86,4.54-2.47,5-3.55,2.68-11.5-2.71-13.27-.8-1.11,1.21,1,4.52,2.48,6.21,2.61,3,4.54,2.54,5.62,4.4,2.65,4.59-6.44,11.92-4.35,14.07,1.06,1.1,4.26.07,4.88-.13,6.25-2,7.2-8.37,10.2-8.16,1.91.14,1.85,2.73,5.91,6.19,2.59,2.2,6,4.05,6.8,3.42s-1.65-2.78-2.51-6.84c-.35-1.64-1-4.83.44-7.64,2.51-4.78,4.45-5.24,9.31-9.21,1.78-1.45,2.7-4.13.74-4.22C258.47,74.59,252.51,79,248.08,76.47Z" transform="translate(48.49 57.05)"/><path class="cls-21" d="M77.87,221.19c-2.57,4.11-11,1.86-11.29,4.81-.23,2.57,3.32,3.25,6.83,4.88,3,1.38,4.46,2.07,4.89,2.7,2.51,3.67-3.23,11.37-1.41,13.22,1.16,1.17,4.56-.81,6.32-2.19,3.13-2.47,2.74-4.42,4.65-5.41,4.7-2.45,11.61,7,13.86,5,1.15-1,.26-4.25.09-4.88-1.72-6.34-8-7.58-7.68-10.57.22-1.9,2.81-1.72,6.45-5.62,2.32-2.49,4.32-5.84,3.73-6.63s-2.85,1.51-7,2.19c-1.65.28-4.87.81-7.61-.79-4.66-2.73-5-4.68-8.77-9.73-1.37-1.83-4-2.88-4.18-.93C76.48,210.73,80.58,216.88,77.87,221.19Z" transform="translate(48.49 57.05)"/><path class="cls-3" d="M324.93,203.18c-5.92-3.94-5-10.75-7.65-17.21-8-19.67-42.63-20.28-42-28,.19-2.65,4.37-4.31,6.37-5.1,13.59-5.39,30.9,6.06,40.14,15.93,11.64,12.43,18.83,31.27,14,35.68C333.4,206.62,328.15,205.33,324.93,203.18Z" transform="translate(48.49 57.05)"/><path class="cls-3" d="M163.72,270.08c.77-.75,8.51,9.31,22.3,17.84,20.3,12.57,54.49,22.33,74.55,8.29,6.66-4.66,12.55-12.49,15.29-10.83,1.94,1.16,1.13,6.33,0,9.55-4.5,12.92-21.92,17.54-25.48,18.48-28.67,7.59-55.7-11.05-63.72-17.2C172.08,285,162.83,270.94,163.72,270.08Z" transform="translate(48.49 57.05)"/><path class="cls-22" d="M352.72,242.5c1.56.15.42,6,4.12,8.52,3.34,2.32,8.43.46,9.69,0,6-2.16,8.08-6.89,9.41-6.17,1.17.65.9,5.11-1.47,8.23-2.71,3.57-6.64,3.4-6.76,5.29s3.28,2.25,7.05,6.17c2.64,2.74,5,6.65,4.11,7.64s-4.15-.77-7.34-2.35c-6.75-3.36-7.4-5.28-9.4-5-5.32.76-5.83,15-9.11,15-1.82,0-4.06-4.42-3.53-8.23s3.69-5.53,2.94-7c-1.05-2.15-7.76.34-8.81-1.76-.75-1.49,1.5-4.9,4.4-5.88,2.59-.87,4.91.45,5.29-.29s-2.49-2.15-3.52-5C348.33,247.61,351.23,242.37,352.72,242.5Z" transform="translate(48.49 57.05)"/><path class="cls-5" d="M237.17,392.31c-1.44.59-3.13-5.09-7.59-5.65-4-.5-7.69,3.5-8.6,4.49-4.26,4.68-4,9.86-5.47,9.83-1.34,0-3.16-4.11-2.51-8,.75-4.42,1.11-5.23,1.24-7.12.14-2.1-.54-3.16-1.3-4.71-1.47-3-2.55-2.56-5-4.92-.88-.83-7.49-7.09-3.93-7.17,7.54-.15,13.11,7,14.75,5.77,4.36-3.13-2-14,.89-15.49,1.62-.82,5.64,2,6.94,5.66s-.7,6.61.66,7.61c1.93,1.41,6.72-3.89,8.63-2.52,1.35,1,.94,5-1.18,7.25-1.89,2-4.56,1.87-4.56,2.71s3.21.75,5.44,2.79C238.7,385.75,238.56,391.73,237.17,392.31Z" transform="translate(48.49 57.05)"/><path class="cls-5" d="M132.6,373.36c-.72,5.21-3.78,10-7.94,11.76-10.15,4.34-26.36-9.28-24.5-19.58.61-3.36,3.08-6,5.89-7.8a70.5,70.5,0,0,0,18.37,12.9C126.78,371.78,127.75,372.08,132.6,373.36Z" transform="translate(48.49 57.05)"/><path class="cls-5" d="M91.45,339.21c-5.62,8-21.21,8.79-25.52-.89-2.46-5.51-1-13.89,2.32-18.84a11.88,11.88,0,0,1,10.87-5.54c1.63,3.82,3.53,8.05,5.73,12.74A130.14,130.14,0,0,0,91.45,339.21Z" transform="translate(48.49 57.05)"/><path class="cls-16" d="M87.51,332.14c-2.48,2.8-6.9,4.27-8.72,4.87-3.44,1.14-4.31.43-4.54.2-.94-.95-.3-3,0-3.95a12.93,12.93,0,0,1,4.54-6.12,25.16,25.16,0,0,1,4.77-3.24l1.29,2.78C85.55,328.18,86.43,330,87.51,332.14Z" transform="translate(48.49 57.05)"/><path class="cls-10" d="M71.1,328.32c1.31,2.22,4.69,1.93,7.1,4.35,2.07,2.07,3.11,5.81,2.75,7.21,0,.13-.21.72,0,.88s.78-.21,1-.4c1.09-1.06-.48-5.07-2.55-7.88A18.26,18.26,0,0,0,72,327.22c-.64-.26-1-.33-1.21-.15S71,328.09,71.1,328.32Z" transform="translate(48.49 57.05)"/><path class="cls-10" d="M75.76,323.79c1.12.66,4.88,2.4,7.28,5.13,2,2.33,2.88,6.34,2.38,7.77,0,.14-.29.75-.06.93s.86-.16,1.08-.34c1.25-1-.12-5.35-2.11-8.46a19.64,19.64,0,0,0-7.56-6.12c-.66-.32-1.1-.42-1.28-.25S75.51,323.64,75.76,323.79Z" transform="translate(48.49 57.05)"/><path class="cls-16" d="M120.66,369.29a14.42,14.42,0,0,1-1.2,2.65c-1.13,2-3.44,6.06-6,5.7-1.5-.21-2.58-1.94-3-3.25-1-3.49,1.93-6.94,4.15-9a15.94,15.94,0,0,0,3.41,2.84A12.42,12.42,0,0,0,120.66,369.29Z" transform="translate(48.49 57.05)"/><path class="cls-10" d="M122.67,369.76a18,18,0,0,1-2-.47h0a12.42,12.42,0,0,1-2.58-1.07,15.94,15.94,0,0,1-3.41-2.84,7,7,0,0,1-.85-1.11c.37.28.76.56,1.15.83.74.53,1.51,1,2.3,1.54h0l0,0a8.56,8.56,0,0,0,1.45.91l0,0c.66.4,1.34.8,2,1.18S122,369.44,122.67,369.76Z" transform="translate(48.49 57.05)"/><path class="cls-10" d="M123,373.66c-1.13-.16-4.77-.35-7.6-1.77-2.44-1.22-4.4-4.2-4.45-5.52,0-.12,0-.69-.25-.76s-.66.4-.78.62c-.69,1.23,1.82,4.29,4.45,6.16a17.21,17.21,0,0,0,8.16,2.48c.64.05,1,0,1.12-.21S123.27,373.7,123,373.66Z" transform="translate(48.49 57.05)"/><path class="cls-4" d="M398.4,419c-2.95,9.54,5.53,16.6,2.19,20.56-2.32,2.74-8.77,2.12-13.12-.44-7.78-4.58-4.42-12.72-10.93-21-7.71-9.79-21.18-9.55-27.94-12.7a83.68,83.68,0,0,0,10.65-9.57c.95-1,1.87-2,2.75-3.08a34.09,34.09,0,0,1,8,3.92c5.64,3.81,8.59,8.82,11.37,13.56,5.58,9.5,6.73,17.29,8.3,17,1-.15.88-3.07,1.75-8.75,1.44-9.34,2.38-15.46,6.56-19.24s11.31-4.63,12.69-2.62c.64.94,0,2.46-4.38,9.62C399.34,417.6,399.05,416.87,398.4,419Z" transform="translate(48.49 57.05)"/><path class="cls-4" d="M307,465.76c-2.24,1.9-6.08,3.18-8.74,1.75-4.43-2.37-.61-9.58-5.25-17.93-.95-1.71-5.3-5.66-14-13.55-2.51-2.29-4.37-3.95-5.61-5.27-1.51-1.62-2.09-2.74-1.82-3.92.58-2.48,4.75-4.3,8.31-3.93,2.95.3,5.33,2.1,7.7,5a85.61,85.61,0,0,1,5.86,8.57c4.73,7.54,6.8,13.35,7.43,13.12s-1-6.52-2.19-10.93c-2-7.53-2.93-9.49-3.33-12.33,4.29-.9,8.47-1.84,12.54-2.89,1,8.76,1.65,16.52,2.16,23.09C310.8,456.06,311.1,462.31,307,465.76Z" transform="translate(48.49 57.05)"/></g></g></g></svg>