<svg xmlns="http://www.w3.org/2000/svg" xmlns:xlink="http://www.w3.org/1999/xlink" width="344" height="344" viewBox="0 0 344 344">
  <defs>
    <clipPath id="clip-path">
      <rect id="Rectangle_3287" data-name="Rectangle 3287" width="239.726" height="324.54" fill="none"/>
    </clipPath>
    <clipPath id="clip-Your_brain_is_amazing_17">
      <rect width="344" height="344"/>
    </clipPath>
  </defs>
  <g id="Your_brain_is_amazing_17" data-name="Your brain is amazing 17" clip-path="url(#clip-Your_brain_is_amazing_17)">
    <rect width="344" height="344" fill="#fff"/>
    <g id="feeling_4" data-name="feeling 4" transform="translate(119.864 172)">
      <g id="Group_3479" data-name="Group 3479" transform="translate(-119.863 -162.27)">
        <g id="Group_3478" data-name="Group 3478" clip-path="url(#clip-path)">
          <path id="Path_513623" data-name="Path 513623" d="M219.433,289.755c-16.578,20.54-44.453,35.944-73.649,34.771-6.9-.293-31.4-1.32-46.214-18.046-6.015-6.749-9.536-14.965-16.432-31.543-2.934-7.042-7.189-14.965-15.551-30.809-1.761-3.374-4.548-5.868-10.27-8.069a16.287,16.287,0,0,0-3.374-.88,25.968,25.968,0,0,0-9.1.44,235.472,235.472,0,0,0-31.836,10.563C8.316,248.235,4.5,248.969.98,247.355l-.88-.44V229.456a94.629,94.629,0,0,0,11.443-2.2,96.39,96.39,0,0,0,21.126-9.536c11-6.749,16.872-17.605,21.567-28.9,22.74-53.99,10.416-95.069,35.8-112.527,12.324-8.509,30.223-9.243,31.4-19.219.44-3.521.147-8.216-6.015-8.8-14.965-1.614-20.54-12.177-21.86-19.513S104.852,8.8,116,5.868c2.788-.734,16.725-4.4,24.794,4.695A20.1,20.1,0,0,1,145.491,22.3a21.423,21.423,0,0,1,0,2.641,19.072,19.072,0,0,1-4.4,12.177c-3.814,4.108-8.656,6.162-9.83,9.976s3.814,8.069,8.509,11.15,17.752,5.135,23.327-.88c3.521-3.668,6.9-5.575,3.961-10.563-7.922-13.2-12.911-16.285-13.2-24.794v-.88C153.707,12.324,165.59,0,179.968,0l3.961.293c13.938,2.2,23.767,15.7,22.153,28.315-1.027,7.922-6.749,17.018-14.378,19.219-4.4,1.32-8.069-.293-11.3,2.641s-3.374,7.776-3.374,9.39c-.293,13.791,20.393,29.636,29.489,38.732,15.4,15.4,18.779,33.01,25.674,68.367,1.027,4.841,1.907,9.976,2.934,15.258,6.162,34.477,9.976,75.7-15.7,107.539" transform="translate(0.047 0)" fill="#104c56"/>
          <path id="Path_513624" data-name="Path 513624" d="M82.5,9.846A20.393,20.393,0,0,1,95.408,7.792c1.467.293,8.949,1.761,11.443,7.922s-4.988,16.138-5.868,17.165-9.243,8.949-19.806,5.868c-5.428-1.614-12.03-6.309-12.47-12.911C68.12,16.448,80.59,10.726,82.644,9.846" transform="translate(32.084 3.505)" fill="#fff"/>
          <path id="Path_513625" data-name="Path 513625" d="M132,5.246c1.32.147,10.857,1.614,15.111,10.416a18.339,18.339,0,0,1-3.228,20.246C136.84,43.1,125.1,41.63,118.061,36.2s-9.976-11.884-7.482-19.659,13.5-12.324,21.273-11.3" transform="translate(51.243 2.383)" fill="#fff"/>
          <path id="Path_513626" data-name="Path 513626" d="M90.9,26.749a5.575,5.575,0,0,0,2.788-4.695,5.868,5.868,0,0,0-3.228-5.722c-3.521-1.614-8.216,1.761-8.363,4.841s5.282,7.042,8.656,5.428" transform="translate(38.349 7.434)" fill="#051c22"/>
          <path id="Path_513627" data-name="Path 513627" d="M133.614,26.822c1.907-.88,4.255-3.228,3.815-5.575s-4.548-4.4-7.629-3.814-6.6,4.255-5.868,6.9,6.162,4.255,9.683,2.494" transform="translate(57.844 8.095)" fill="#051c22"/>
          <path id="Path_513628" data-name="Path 513628" d="M212.878,267.349c-34.771,26.995-84.8,19.953-107.1-4.4-8.509-9.243-21.86-45.04-31.836-49.882-6.015-2.787-13.644-3.668-21.86-3.081l-7.189.88h-.147a82.159,82.159,0,0,0-31.836,12.911,50.029,50.029,0,0,0-9.83,8.949C2.054,233.9,1.174,234.633,0,235.953V211.159H7.336c5.282-.293,20.246-1.467,34.184-10.857,17.752-12.03,23.621-30.663,25.821-37.265a36.071,36.071,0,0,0,1.32-4.988c1.467-6.6,1.174-11.59,2.347-23.474,3.081-31.69,4.988-51.642,16.725-66.02,15.551-19.072,41.959-20.833,46.067-21.126,49.295-2.641,80.838,52.229,82.892,56.044,7.189,12.911,14.378,33.744,18.339,56.631,7.042,40.052,4.988,86.266-22.153,107.393" transform="translate(0 22.112)" fill="#cb8c00"/>
          <path id="Path_513629" data-name="Path 513629" d="M63.741,76.478c6.162-8.216,9.683-11.3,20.246-16.872A65.58,65.58,0,0,1,128,53.444c7.482,1.614,24.794,8.656,41.519,26.115,9.39,9.683,13.938,15.992,22.007,30.663,12.617,22.887,18.192,41.959,11.15,51.5s-27.142-1.761-68.367.293c-43.573,2.054-42.546,1.027-63.379,5.135-11.443,2.2-22.594.293-20.98-8.363,3.521-20.246,3.961-31.1,4.841-49.295.734-13.791,2.641-24.794,8.949-33.01" transform="translate(23.259 24.313)" fill="#fff"/>
          <path id="Path_513630" data-name="Path 513630" d="M55.016,138.922c2.934-1.32,5.135-.293,14.378-1.761l6.455-1.174c14.084-2.934,36.824-2.788,36.824-2.788,45.921.44,49.442,6.015,62.939,2.788a57.657,57.657,0,0,1,22.3-.147,15.845,15.845,0,0,1,6.015,2.347c4.255,2.788,7.922,8.509,6.749,12.03s-12.47,5.282-20.246,5.282a368.1,368.1,0,0,1-56.924-4.108c-47.975-6.749-79.518,15.4-85.239,4.695-2.641-4.841,1.32-14.524,6.749-17.165" transform="translate(22.154 62.219)" fill="#104c56"/>
          <path id="Path_513631" data-name="Path 513631" d="M55.805,159.05c1.174-3.374,7.482-3.814,17.752-4.695,33.3-2.934,26.408-4.255,39.905-4.255,28.462-.147,25.088,6.015,45.187,4.108,6.455-.587,21.273-2.494,38,.44,3.374.587,8.509,1.761,9.83,5.282s-2.054,9.389-6.309,12.03-12.324,1.027-22.74-.734c-8.216-1.32-6.162,0-28.755-.587-37.411-1.174-34.624-4.695-47.534-2.641-17.312,2.788-23.62,9.39-33.89,4.988-6.9-2.934-12.911-9.83-11.59-13.938" transform="translate(25.913 70.113)" fill="#104c56"/>
          <path id="Path_513632" data-name="Path 513632" d="M70.879,174.23c4.255-6.015,14.671-4.548,27.728-3.668a542.1,542.1,0,0,0,58.978.88c17.018-.88,28.022-2.934,33.3,3.961,1.907,2.347,3.228,6.309,1.761,8.656s-12.177,1.467-19.806.147c-16.725-2.788-17.312,1.027-47.534,1.32-10.857.147-16.578,1.614-35.944-.587-6.309-.44-17.605,1.32-19.513-.44s-1.174-7.482.88-10.27" transform="translate(32.112 79.287)" fill="#104c56"/>
          <path id="Path_513633" data-name="Path 513633" d="M77.936,185.15c4.841-6.6,16.285-.147,40.346-.44,13.057-.147,18.486-2.2,39.612-2.054,11.59,0,17.018.734,17.752,3.081s-4.841,7.336-10.27,9.683c-9.389,4.108-14.671.147-30.956-1.32-12.764-1.174-26.115-2.347-41.813,1.32-5.868,1.467-12.177,3.521-15.111.587s-2.054-7.482.147-10.71" transform="translate(35.325 85.092)" fill="#104c56"/>
          <path id="Path_513634" data-name="Path 513634" d="M85.1,197.81c.147-3.081,19.806-3.961,24.941-4.255,15.111-.734,34.771.88,35.064,4.108s-11.15,5.428-18.926,6.6c-20.54,3.081-41.226-3.228-40.932-6.455" transform="translate(39.751 90.33)" fill="#104c56"/>
        </g>
        <text id="To:_Brain" data-name="To: Brain" transform="translate(119.129 98.401)" fill="#051c22" font-size="9" font-family="GoodDogNew, GoodDog New"><tspan x="0" y="0" letter-spacing="-0.1em">T</tspan><tspan y="0">o: B</tspan><tspan y="0" letter-spacing="-0.03em">r</tspan><tspan y="0">ain</tspan></text>
        <text id="From:_Bottom" data-name="From: Bottom" transform="translate(109.887 110.138)" fill="#051c22" font-size="9" font-family="GoodDogNew, GoodDog New"><tspan x="0" y="0" letter-spacing="-0.07em">F</tspan><tspan y="0" letter-spacing="-0.01em">r</tspan><tspan y="0">om: Bottom</tspan></text>
        <text id="Message:_I_feel_a_poo_coming_" data-name="Message: I feel a poo coming!" transform="translate(81.865 121.875)" fill="#051c22" font-size="9" font-family="GoodDogNew, GoodDog New"><tspan x="0" y="0">Mess</tspan><tspan y="0" letter-spacing="-0.01em">a</tspan><tspan y="0" letter-spacing="-0.02em">g</tspan><tspan y="0">e: I </tspan><tspan y="0" letter-spacing="-0.08em">f</tspan><tspan y="0">eel a poo coming!</tspan></text>
        <text id="_..........................." data-name="..........................." transform="translate(112.381 133.612)" fill="#051c22" font-size="9" font-family="GoodDogNew, GoodDog New"><tspan x="0" y="0">...........................</tspan></text>
        <text id="To:_Everyone" data-name="To: Everyone" transform="translate(120.89 145.349)" fill="#051c22" font-size="9" font-family="GoodDogNew, GoodDog New"><tspan x="0" y="0" letter-spacing="-0.1em">T</tspan><tspan y="0">o: E</tspan><tspan y="0" letter-spacing="-0.04em">v</tspan><tspan y="0">eryone</tspan></text>
        <text id="From:_Brain" data-name="From: Brain" transform="translate(126.758 157.086)" fill="#051c22" font-size="9" font-family="GoodDogNew, GoodDog New"><tspan x="0" y="0" letter-spacing="-0.07em">F</tspan><tspan y="0" letter-spacing="-0.01em">r</tspan><tspan y="0">om: B</tspan><tspan y="0" letter-spacing="-0.03em">r</tspan><tspan y="0">ain</tspan></text>
        <text id="Message:_Get_to_the_toilet_" data-name="Message: Get to the toilet!!" transform="translate(95.069 168.822)" fill="#051c22" font-size="9" font-family="GoodDogNew, GoodDog New"><tspan x="0" y="0">Mess</tspan><tspan y="0" letter-spacing="-0.01em">a</tspan><tspan y="0" letter-spacing="-0.02em">g</tspan><tspan y="0">e: Get to the toilet!!</tspan></text>
      </g>
    </g>
  </g>
</svg>
