<svg xmlns="http://www.w3.org/2000/svg" xmlns:xlink="http://www.w3.org/1999/xlink" width="344" height="344" viewBox="0 0 344 344">
  <defs>
    <clipPath id="clip-path">
      <rect id="Rectangle_3283" data-name="Rectangle 3283" width="231.453" height="310.867" fill="none"/>
    </clipPath>
    <clipPath id="clip-Your_brain_is_amazing_14">
      <rect width="344" height="344"/>
    </clipPath>
  </defs>
  <g id="Your_brain_is_amazing_14" data-name="Your brain is amazing 14" clip-path="url(#clip-Your_brain_is_amazing_14)">
    <rect width="344" height="344" fill="#fff"/>
    <g id="feeling1" transform="translate(111.726 177.776)">
      <g id="Group_3473" data-name="Group 3473" transform="translate(-115.727 -155.433)">
        <g id="Group_3471" data-name="Group 3471" clip-path="url(#clip-path)">
          <path id="Path_513593" data-name="Path 513593" d="M211.552,277.547c-15.88,19.674-42.581,34.43-70.546,33.306-6.6-.281-30.073-1.265-44.267-17.285C90.977,287.1,87.6,279.233,81,263.353c-2.811-6.745-6.886-14.334-14.9-29.511-1.686-3.232-4.5-8.291-9.978-10.4a14.193,14.193,0,0,0-4.637-.984,22.346,22.346,0,0,0-6.886.843h-.141c-14.194,3.794-23.469,9.416-30.5,12.367-4.5,1.967-8.151,2.67-11.523,1.124l-.843-.422V219.789a90.648,90.648,0,0,0,10.961-2.108A92.33,92.33,0,0,0,32.8,208.547c10.54-6.464,16.161-16.864,20.658-27.684C75.238,129.147,63.433,89.8,87.745,73.076c11.8-8.151,28.949-8.853,30.073-18.409.422-3.373.141-7.87-5.762-8.432C97.723,44.689,92.382,34.57,91.118,27.544S101.8,8.432,112.338,5.621c2.811-.7,16.02-4.356,23.75,4.5a19.253,19.253,0,0,1,4.5,11.242,20.521,20.521,0,0,1,0,2.53,18.269,18.269,0,0,1-4.216,11.664c-3.654,3.935-8.291,5.9-9.416,9.556s3.654,7.729,8.151,10.68,17,4.919,22.344-.843c3.373-3.513,6.6-5.34,3.794-10.118-7.589-12.648-12.367-15.6-12.648-23.75v-.843C148.454,11.8,159.837,0,173.609,0L177.4.281c13.35,2.108,22.766,15.037,21.22,27.122-.984,7.589-6.464,16.3-13.772,18.409-4.216,1.265-7.729-.281-10.821,2.53S170.8,55.79,170.8,57.336c-.281,13.21,19.534,28.387,28.247,37.1,14.756,14.756,17.988,31.619,24.593,65.487.984,4.638,1.827,9.556,2.811,14.615,5.9,33.025,9.556,72.514-15.037,103.009" transform="translate(0.648 0)" fill="#ffb900"/>
          <path id="Path_513594" data-name="Path 513594" d="M83.218,9.747A19.534,19.534,0,0,1,95.585,7.78c1.405.281,8.572,1.686,10.961,7.589s-4.778,15.458-5.621,16.442-8.853,8.572-18.972,5.621c-5.2-1.546-11.523-6.043-11.945-12.367-.7-8.994,11.242-14.475,13.21-15.318" transform="translate(28.363 3.041)" fill="#fff"/>
          <path id="Path_513595" data-name="Path 513595" d="M132.419,5.24c1.265.141,10.4,1.546,14.475,9.978a17.566,17.566,0,0,1-2.951,19.393c-6.745,6.886-17.988,5.481-24.733.281s-9.556-11.383-7.167-18.831,12.929-11.8,20.377-10.821" transform="translate(45.071 2.068)" fill="#fff"/>
          <path id="Path_513596" data-name="Path 513596" d="M91.145,21.131a7.87,7.87,0,0,0,3.935-6.043,6.886,6.886,0,0,0-3.794-7.167c-4.637-1.827-11.1,2.67-11.383,6.6s6.745,8.853,11.383,6.6" transform="translate(32.381 3.04)" fill="#051c22"/>
          <path id="Path_513597" data-name="Path 513597" d="M134.755,21.48a6.745,6.745,0,0,0,3.935-7.589c-1.124-4.216-6.745-7.167-10.68-6.886s-7.729,5.2-6.324,9.134,8.713,7.308,13.069,5.34" transform="translate(49.198 2.832)" fill="#051c22"/>
          <path id="Path_513598" data-name="Path 513598" d="M205.309,258.08c-33.306,25.858-81.226,19.112-102.587-4.216-8.151-8.853-20.939-43.143-30.5-47.78-5.762-2.67-13.069-3.513-20.939-2.951l-6.886.843h-.141a78.7,78.7,0,0,0-30.5,12.367,47.92,47.92,0,0,0-9.416,8.572c-.984,1.124-1.827,1.827-2.951,3.092v-23.75H8.427c5.059-.281,19.393-1.405,32.744-10.4,17-11.523,22.625-29.371,24.733-35.695a34.551,34.551,0,0,0,1.265-4.778c1.405-6.324,1.124-11.1,2.248-22.485,2.951-30.354,4.778-49.467,16.02-63.239,14.9-18.269,40.192-19.955,44.126-20.236,47.218-2.53,77.432,50.029,79.4,53.683,6.886,12.367,13.772,32.322,17.566,54.245,6.745,38.365,4.778,82.632-21.22,102.868" transform="translate(0.567 19.186)" fill="#cb8c00"/>
          <path id="Path_513599" data-name="Path 513599" d="M63.6,75.448c5.9-7.87,9.275-10.821,19.393-16.161a62.817,62.817,0,0,1,42.159-5.9c7.167,1.546,23.75,8.291,39.77,25.014,8.994,9.275,13.35,15.318,21.08,29.371,12.086,21.923,12.929,25.858,6.183,35.133s-18.269,26.42-57.9,28.387c-41.737,1.967-45.672-11.523-65.487-19.955-11.945-5.059-16.864-8.853-15.318-17,3.373-19.393.562-9.837,1.405-27.263.7-13.21,2.53-23.75,8.572-31.619" transform="translate(21.563 21.096)" fill="#fff"/>
        </g>
        <text id="To:_Brain" data-name="To: Brain" transform="translate(120.715 91.442)" fill="#051c22" font-size="8" font-family="GoodDogNew, GoodDog New"><tspan x="0" y="0" letter-spacing="-0.1em">T</tspan><tspan y="0">o: B</tspan><tspan y="0" letter-spacing="-0.03em">r</tspan><tspan y="0">ain</tspan></text>
        <text id="From:_Belly_and_Eyes" data-name="From: Belly and Eyes" transform="translate(103 101.658)" fill="#051c22" font-size="8" font-family="GoodDogNew, GoodDog New"><tspan x="0" y="0" letter-spacing="-0.07em">F</tspan><tspan y="0" letter-spacing="-0.01em">r</tspan><tspan y="0">om: Belly and E</tspan><tspan y="0" letter-spacing="-0.02em">y</tspan><tspan y="0">es</tspan></text>
        <text id="Message:_Those_sweets_look_like" data-name="Message: Those sweets look like" transform="translate(85.583 111.679)" fill="#051c22" font-size="8" font-family="GoodDogNew, GoodDog New"><tspan x="0" y="0">Mess</tspan><tspan y="0" letter-spacing="-0.01em">a</tspan><tspan y="0" letter-spacing="-0.02em">g</tspan><tspan y="0">e: </tspan><tspan y="0" letter-spacing="-0.05em">T</tspan><tspan y="0">hose s</tspan><tspan y="0" letter-spacing="-0.02em">w</tspan><tspan y="0">eets look li</tspan><tspan y="0" letter-spacing="-0.03em">k</tspan><tspan y="0">e</tspan></text>
        <text id="they_will_taste_good._" data-name="they will taste good. " transform="translate(106.1 121.797)" fill="#051c22" font-size="8" font-family="GoodDogNew, GoodDog New"><tspan x="0" y="0">th</tspan><tspan y="0" letter-spacing="-0.02em">e</tspan><tspan y="0">y will taste good. </tspan></text>
        <text id="_..........................." data-name="..........................." transform="translate(117.764 131.915)" fill="#051c22" font-size="8" font-family="GoodDogNew, GoodDog New"><tspan x="0" y="0">...........................</tspan></text>
        <text id="To:_Hands" data-name="To: Hands" transform="translate(130.271 142.033)" fill="#051c22" font-size="8" font-family="GoodDogNew, GoodDog New"><tspan x="0" y="0" letter-spacing="-0.1em">T</tspan><tspan y="0">o: Hands</tspan></text>
        <text id="From:_Brain" data-name="From: Brain" transform="translate(128.163 152.151)" fill="#051c22" font-size="8" font-family="GoodDogNew, GoodDog New"><tspan x="0" y="0" letter-spacing="-0.07em">F</tspan><tspan y="0" letter-spacing="-0.01em">r</tspan><tspan y="0">om: B</tspan><tspan y="0" letter-spacing="-0.03em">r</tspan><tspan y="0">ain</tspan></text>
        <text id="Message:_Can_you_pick_up_those_sweets" data-name="Message: Can you pick up those sweets" transform="translate(79.962 162.27)" fill="#051c22" font-size="8" font-family="GoodDogNew, GoodDog New"><tspan x="0" y="0">Mess</tspan><tspan y="0" letter-spacing="-0.01em">a</tspan><tspan y="0" letter-spacing="-0.02em">g</tspan><tspan y="0">e: Can you pi</tspan><tspan y="0" letter-spacing="-0.01em">c</tspan><tspan y="0">k up those s</tspan><tspan y="0" letter-spacing="-0.02em">w</tspan><tspan y="0">eets</tspan></text>
        <text id="for_belly_please_" data-name="for belly please?" transform="translate(122.261 172.388)" fill="#051c22" font-size="8" font-family="GoodDogNew, GoodDog New"><tspan x="0" y="0" letter-spacing="-0.07em">f</tspan><tspan y="0">or belly please?</tspan></text>
        <g id="Group_3472" data-name="Group 3472" clip-path="url(#clip-path)">
          <path id="Path_513600" data-name="Path 513600" d="M54.644,126.53c8.713-6.6,22.485,9.837,52,16.3,8.994,1.967,35.414,7.87,61.693-2.951,16.723-6.886,28.668-18.691,34.43-14.194,3.373,2.67,2.248,9.275,2.108,10.118-1.686,8.994-11.242,14.053-15.88,16.3-20.377,10.259-43.564,6.886-92.75,4.216-26.56-1.405-39.208-1.546-43.986-10.54-3.232-6.043-2.389-15.458,2.53-19.253" transform="translate(20.4 50.538)" fill="#ffb900"/>
          <path id="Path_513601" data-name="Path 513601" d="M60.426,152.252c3.232-4.356,15.6,3.232,39.911,8.01,19.253,3.794,41.175,8.01,63.379,0,18.269-6.6,28.528-18.55,34.43-14.194,3.654,2.67,3.092,9.978,2.108,13.772s-4.637,10.961-16.3,17.145c-16.02,8.572-74.34,31.479-108.63,1.265-9.7-8.572-17.847-21.642-14.615-26" transform="translate(24.313 58.824)" fill="#ffb900"/>
          <path id="Path_513602" data-name="Path 513602" d="M81.713,181.768a97.67,97.67,0,0,0,19.674,8.853c4.356,1.405,38.505,11.664,66.33-5.059,11.383-6.886,17.566-15.88,20.517-13.772s.7,10.821-2.53,17.145c-9.837,19.534-35.976,24.171-43.564,25.576-9.978,1.827-34.43,6.183-54.1-8.853-15.88-12.086-22.2-32.041-20.236-33.446s4.638,3.935,13.912,9.7" transform="translate(27.339 69.5)" fill="#ffb900"/>
        </g>
      </g>
    </g>
  </g>
</svg>
