<svg xmlns="http://www.w3.org/2000/svg" xmlns:xlink="http://www.w3.org/1999/xlink" width="344" height="344" viewBox="0 0 344 344">
  <defs>
    <clipPath id="clip-path">
      <rect id="Rectangle_1946" data-name="Rectangle 1946" width="321" height="316" transform="translate(903 4736)" fill="#fff" stroke="#d46d5d" stroke-width="1"/>
    </clipPath>
    <clipPath id="clip-path-2">
      <rect id="Rectangle_1945" data-name="Rectangle 1945" width="321" height="288.568" fill="none"/>
    </clipPath>
    <clipPath id="clip-Your_brain_is_amazing_2">
      <rect width="344" height="344"/>
    </clipPath>
  </defs>
  <g id="Your_brain_is_amazing_2" data-name="Your brain is amazing 2" clip-path="url(#clip-Your_brain_is_amazing_2)">
    <rect width="344" height="344" fill="#fff"/>
    <g id="Mask_Group_99" data-name="Mask Group 99" transform="translate(-889 -4695)" clip-path="url(#clip-path)">
      <g id="whole_brain" data-name="whole brain" transform="translate(1063.5 4894)">
        <g id="whole_brain-2" data-name="whole brain" transform="translate(-160.5 -144.284)" clip-path="url(#clip-path-2)">
          <path id="Path_101167" data-name="Path 101167" d="M.1,288.495H318.826c2.725-9.362,3.814-24.323-2.328-37.747-11.394-24.818-43.345-34.874-55.432-38.688-27.939-8.768-45.475-4.211-56.72-19.319-1.437-1.932-6.44-8.867-6.44-18.031,0-8.421,4.26-12.929,12.88-26.8,0,0,8.966-14.366,16.644-30.168,6.935-14.267,10.6-21.846,12.335-32.05,4.112-24.719-6.638-44.93-8.025-47.456C217.919,13.069,193.5,4.945,186.166,2.517S154.215-4.368,128.555,9.75c-23.778,13.127-44.336,32.4-45.425,57.711-.694,16.05,5.1,9.66,11.2,43.494,3.468,19.27,2.13,28.187,10.452,37.6,7.133,8.075,14.415,8.619,17.239,17.239,3.269,10.056-3.071,20.261-4.31,22.193-1.833,2.774-7.48,10.452-32.645,17.883-20.211,5.944-21.251,2.427-32.645,6.787-22.787,8.669-34.775,28.93-38.788,35.716C11.251,252.233-1.183,273.237.1,288.495" transform="translate(-0.006 0.059)" fill="#d2d7d9"/>
          <path id="Path_101168" data-name="Path 101168" d="M321.358,76.931c-.347,2.526-3.418,22.094-19.567,31.951-9.362,5.7-18.874,5.548-22.985,5.449s-10.6-.2-14.267-3.913c-1.486-1.486-2.031-3.022-4.954-5.7-.347-.347-7.282-3.913-9.907-6.242l-.842.644c-6.39,5.2-17.437-4.013-35.32-5.994-16.2-1.783-22.688,4.112-29.574-1.932-5.251-4.557-5.994-11.889-6.291-14.514-.594-5.647.2-14.564,10.7-28.831,9.263-12.434,27.1-36.608,58.751-39.184a68.653,68.653,0,0,1,43.1,10.9c14.911,9.858,34.775,31.7,31.208,57.364" transform="translate(-89.575 -4.26)" fill="#fff0bf"/>
          <path id="Path_101169" data-name="Path 101169" d="M251.129,104.276c9.263.248,11.146-5.647,19.369-5.3,7.084.3,12.632,5,13.92,6.143,3.913,3.517-1.238,19.567,8.966,13.127,4.954-3.121,2.18-7.876-3.319-7.133-2.279.3-3.567-5.152-2.972-5.2,13.177-1.238,14.564,6.143,18.031-1.734,4.458-10.254-4.359-5.3-8.372-.842-1.338,1.486-10.452.991-11,.892a4.347,4.347,0,0,1-2.576-1.783c-2.774-3.269-7.777-2.774-7.827-4.409,0-.694.842-1.189,1.288-1.486,2.18-1.337,4.954-.05,5.845.347,3.022,1.387,5.4,7.629,7.827,4.855,3.418-3.913-3.17-2.576-3.666-3.319C285.408,96.6,283.526,96.4,283.625,96s2.774-1.387,6.093-.694c7.381,1.437,6.886-1.189,4.9-1.882a15.16,15.16,0,0,0-2.774.2c-1.882.248-2.675.594-2.774.4s1.585-.991,3.715-2.378c3.715-2.378,4.706-3.814,5.647-3.319s-2.427,5.994,2.328,5.845c2.625-.1,2.824-1.882,2.477-2.824-.892-2.576-4.508-3.319-4.26-3.864s.594-.3,2.279-.05c3.121.446,3.567.842,4.756.644s9.759,7.331,11.592,4.012c4.161-7.579-8.223-7.183-10.65-5.5-.446.3-4.013.842-4.557-.248a1.775,1.775,0,0,1,.4-2.378c3.369-1.585-.5-3.369-.743-3.22-2.923,1.536-.248,4.9-.892,5.5s-.991-.05-1.982,0-1.288.3-3.121,1.684c-2.675,2.031-3.22,2.923-3.616,2.675s.2-1.238.743-4.756c.149-1.09.347-2.427.892-2.576s.5.3.941.248a1.585,1.585,0,0,0,1.189-1.437A2.031,2.031,0,0,0,294.92,80.2c-1.238-.545-2.774.347-2.873,1.139s.892,1.04.842,2.031a1.932,1.932,0,0,1-.446,1.09c-1.189,1.684-.3,3.864-1.139,5.7s-2.923,2.477-4.557,2.972a14.85,14.85,0,0,1-6.143.05c-3.418-.5-6.093-.892-8.124-3.22-.842-.991-1.734-1.981-1.684-3.319.05-2.873,4.112-3.715,6.44-8.223.2-.446.545-1.139.842-1.09s1.189,2.477.347,4.112a5.654,5.654,0,0,0-.842,1.734c-.2.842-.248,1.189.1,1.536a1.321,1.321,0,0,0,1.734-.5c.2-.594-.5-.842-.5-1.783s.3-.842.5-1.536c.5-1.684-.594-2.873-.1-3.418s1.238.347,2.972.5,3.319-.842,3.814-.2.05.1.05,2.13a2.724,2.724,0,0,1-.3,1.536,1.337,1.337,0,0,1-.3.4c-.446.4-.892.1-1.189.347a1.407,1.407,0,0,0,0,1.585,1.486,1.486,0,0,0,2.081.248c.4-.4.347-.991.347-2.328,0-2.526-.05-3.814.446-4.359s1.238-.149,3.715-.2,4.9-.743,5.35.1-.149.941.248,1.437a1.536,1.536,0,0,0,1.783.3,2.3,2.3,0,0,0,1.04-2.081c0-.694-.842-2.081-1.635-2.13s-.793.793-1.684,1.09c-2.18.644-4.359,1.288-4.954.3s.743-2.873,1.189-3.468,4.954-5.4,6.143-5.2c2.477.446,3.269,4.062,6.192,2.477s2.477-3.616,2.031-5.7a4.593,4.593,0,0,0-6.588-3.517c-2.774,1.486-2.081,3.567-3.071,5.2s-4.062,4.656-4.805,5.8a21.792,21.792,0,0,1-2.031,3.17,6.985,6.985,0,0,1-1.387,1.139c-2.725,1.635-5.8.594-6.836.248s-1.684-.594-1.882-1.139,1.04-1.783,2.675-4.458,1.932-4.508,2.873-4.458.694.644,1.238.545a1.9,1.9,0,0,0,1.09-1.833,2.031,2.031,0,0,0-2.081-1.734,2.081,2.081,0,0,0-1.882,1.734c-.05.5.149.644.248,1.139s-1.09,2.279-1.585,2.725c-3.022,2.824-2.328,3.913-5.251,6.143-1.932,1.437-3.913,2.923-5.4,2.13S270,70.888,270.8,70.591s.842.793,1.337.594.793-1.288.5-2.081-2.427-1.981-3.022-1.437-.1.991,0,2.824c.049.842,0,1.833-.05,3.814-.1,3.022-.149,4.508-.545,5.2-1.189,2.081-4.161,2.526-6.044,2.279-.5-.05-3.913-.5-4.557-2.873s.991-4.161,1.635-4.062.3.991.892,1.189,1.437-.4,1.734-1.139-.149-2.824-.892-2.972-.991.5-2.18,1.684-1.09,1.139-1.387,1.09-.545-.347-.892-1.734c-.594-2.328-.941-3.468-.4-4.607A4.324,4.324,0,0,1,259.3,66.38c2.13-.991,4.805-.793,5.152.1s-.248.694-.1,1.238a1.932,1.932,0,0,0,2.279,1.189c1.139-.446,1.437-2.824.644-3.765s-.594-.347-2.477-.5a21.2,21.2,0,0,0-3.319-.1c-2.774.248-3.765,1.536-4.211,1.09s.842-4.607,3.369-7.876,7.678-7.282,9.511-5.944a4.944,4.944,0,0,1,1.486,2.824c.2,1.189-.2,1.684.248,2.13a2.183,2.183,0,0,0,2.824-.545,1.791,1.791,0,0,0-.149-2.427c-.545-.347-1.09.347-1.932.05s-1.684-1.833-1.288-2.427,3.864.248,5.35.793c.694.248,5,1.833,4.855,3.269-.1.694-1.04.694-1.288,1.684a2.378,2.378,0,0,0,1.238,2.625c1.139.446,2.378-.5,2.824-1.536a2.9,2.9,0,0,0-.743-3.17c-.793-.5-.644-.05-1.139-.347a2.279,2.279,0,0,1-.991-1.536c-.2-1.981,4.756-4.706,6.044-3.517s.1,1.635.793,2.081a1.872,1.872,0,0,0,2.378-.991,2.378,2.378,0,0,0-.793-2.972c-.545-.3-.941,0-2.774.545-2.576.793-2.477.446-3.269.892-1.982,1.04-1.833,2.526-3.269,2.923s-1.387-.5-3.517-1.09c-3.071-.842-4.508.149-5.3-.892-.2-.248-.4-.694.347-3.864s1.338-5.8,2.526-5.944,1.536,1.139,3.418,0,1.882-2.824.941-5.053-6.044-3.369-8.025-.644,1.238,3.765,1.238,5.647c0,1.139-.248,1.338-1.338,5s-1.04,3.814-1.882,4.458a5.509,5.509,0,0,1-2.576.793c-4.855.694-6.886,8.768-8.57,8.273s0-3.022-1.585-7.133-3.814-5.895-2.972-7.133,3.765-1.833,3.963-2.477c.941-2.923-2.328-3.814-3.17-4.112s-3.864-.3-4.359,2.229.991,3.517,2.328,5.35c1.932,2.675,1.882,3.071,1.783,3.269-.4,1.139-3.319,1.437-3.963.4s.3-1.238-.05-2.279a2.279,2.279,0,0,0-2.13-1.486c-1.486.149-2.725,2.675-1.882,4.013s1.981,1.238,3.369.594a5.35,5.35,0,0,0,2.675.842c1.338.05,1.833-.545,2.477-.3,1.437.5,1.536,4.112,1.536,6.093-.05,3.666-.743,5.2-1.783,10.353s-1.04,6.291-2.279,10.2c-1.486,4.855-2.328,5.2-2.725,5.3s-2.031-.743-5.994-7.183c-5.944-9.709-5.8-11.394-5.3-12.384.991-1.981,4.062-2.873,4.805-2.081s-.2,1.585.446,2.526a2.18,2.18,0,0,0,2.725.545,2.591,2.591,0,0,0,.793-3.517c-.644-.743-.941-.2-3.17-.545s-1.585-.5-2.18-.4c-1.981.2-2.774,2.378-3.616,2.081s-.842-2.972-.842-3.864c.05-4.656,1.734-8.57,2.18-8.471s-.2,1.833.446,2.13,2.328-.842,2.576-2.526-.4-2.675-1.288-2.923-2.576,1.783-2.873,2.18c-1.09,1.684-.991,3.121-1.486,3.17s-.594-2.229-1.981-4.508a15.555,15.555,0,0,0-5.6-4.211c-1.585-.694-2.576-7.183-4.756-3.418-.594.991-2.031,7.331,2.378,7.133.594-.05.594-1.585,1.684-2.031s1.238.05,1.932.347,3.269,1.585,3.121,3.22-2.13,1.932-3.22,2.279c-4.706,1.536-10.551.347-11-1.833-.2-1.139,1.338-4.756.892-5.746s-4.855-3.121-6.291-2.625S211,45.079,214.719,47.7c.743.545,1.536.5,3.567,1.684.991.594.842.743,1.882,1.437a11.245,11.245,0,0,0,9.016,1.486c2.427-.644,2.824-1.585,3.814-1.288s2.774,3.418,2.18,5.845-4.161,4.9-6.192,4.211-1.387-1.833-2.923-2.279-7.777-1.387-8.322.446.892,7.678,4.508,7.579,1.833-4.756,3.468-5.053,1.288.594,3.22,1.238a13.4,13.4,0,0,0,2.923.594c2.972.842,4.161,6.044,5.053,9.808,1.238,5.251,1.882,7.876.842,9.709-2.279,4.112-4.508-4.31-12.186.892s-16.3-12.236-14.366-15.6c.545-.941,1.684-1.437,1.734-2.725s-1.09-3.369-2.873-3.319a3.045,3.045,0,0,0-2.824,2.972c-.05,1.288.991,1.783,1.783,3.517s.347,3.517.545,5.4c.594,5.6,7.678,7.827,6.985,9.907-.4,1.189-3.022,1.238-5.845,1.238s-5.3.05-6.836-1.387-.842-3.517-3.022-5.895c-.545-.594-2.378-2.576-4.012-1.981s-2.328,3.814-1.585,4.458,1.833-1.09,3.666-.644a3.864,3.864,0,0,1,2.725,2.972A4.939,4.939,0,0,1,200.4,86.74c-2.774,3.369-8.966,3.17-9.907,1.139-.5-1.04.743-2.675-1.288-3.913-.842-.5-6.291.4-6.638,2.427s2.378,5.2,5.35,5c.743-.05,1.635-1.684,2.576-1.882s1.387.545,2.279.991c2.824,1.536,6.638-.743,7.431-1.189,1.783-1.04,1.437-1.536,2.774-2.13,2.328-1.04,4.409.05,7.876,1.189,6.737,2.18,9.511,1.387,9.709,2.576s-5.053,5.251-10.006,4.508c-2.229-.347-6.489-1.783-7.431-1.09-6.143,4.508.743,8.273,4.458,6.539.793-.4.743-2.576,2.526-3.369s2.923-.545,4.756-.545c3.616,0,5.3-.892,7.579-1.189,5.746-.793,8.174,2.774,18.824,6.192,4.706,1.486,7.034,2.279,9.66,2.328" transform="translate(-92.115 -16.694)" fill="#cb8c00"/>
          <path id="Path_101170" data-name="Path 101170" d="M419.148,160.206a1.932,1.932,0,0,1-1.585.743c-.347,0-.594-.2-.892-.1a.842.842,0,0,0-.5.446c-.4.743.694,2.081,1.09,2.824s.446,2.279,0,4.409l-.2.941c-.5,2.081-1.338,4.508-4.062,5.746a9.065,9.065,0,0,1-6.291.4,5.029,5.029,0,0,1-2.873-1.981,5.194,5.194,0,0,1-.347-2.13,20.2,20.2,0,0,0-.3-2.081,1.189,1.189,0,0,0-.446-.842c-.1-.05-.3.347-.446.3s-.3-.545-.446-.545l-.1-.149a14.994,14.994,0,0,0-2.576.2,1.338,1.338,0,0,1-.892-.2l-.793-.594c0-.2.05-.2.1-.4h.2c.644-.1,1.189,0,1.833-.05l1.932-.248a4.013,4.013,0,0,0,2.229-.892c3.121-2.576,3.369-5.152,5.7-5.6,1.139-.2,2.477.1,2.824-.4s.248-.446-.2-.644-1.139-1.139-1.04-1.585,1.337-.892,2.229-.793,1.338.1,1.684.793a.991.991,0,0,1-.05.892,1.288,1.288,0,0,1-.644.594c-.4.149-.793.149-.991.347s.05.545.3.793a1.783,1.783,0,0,0,1.734.446c.347-.149.644-.149.594-.5s-.5-1.189-.3-1.684h0a2.344,2.344,0,0,1,2.725-.545c1.09.5,1.288,1.387.842,2.081" transform="translate(-200.59 -79.213)" fill="#104c56"/>
          <path id="Path_101171" data-name="Path 101171" d="M427.1,157.789a1.982,1.982,0,0,1,.991.149c.1.05.594.3.594.694s-.793.793-.892.842a2.08,2.08,0,0,1-1.585-.1c-.347-.2-.694-.594-.545-.991s1.288-.594,1.437-.594" transform="translate(-214.785 -79.619)" fill="#fff"/>
          <path id="Path_101172" data-name="Path 101172" d="M436.823,159.881c.1.05.743.347.793.892a1.09,1.09,0,0,1-.793,1.09,1.783,1.783,0,0,1-1.882-.545.941.941,0,0,1,0-1.288,1.882,1.882,0,0,1,1.882-.2" transform="translate(-219.355 -80.573)" fill="#fff"/>
          <path id="Path_101173" data-name="Path 101173" d="M429.126,160.105a.446.446,0,0,0,.347-.2.3.3,0,0,0-.05-.4.594.594,0,0,0-.743.1c-.1.2.2.5.5.5" transform="translate(-216.315 -80.45)" fill="#051c22"/>
          <path id="Path_101174" data-name="Path 101174" d="M438.094,162.934a.52.52,0,0,0,.446-.248c.05-.149-.2-.347-.446-.4s-.594.1-.594.248.347.347.644.347" transform="translate(-220.775 -81.891)" fill="#051c22"/>
          <path id="Path_101175" data-name="Path 101175" d="M417.066,173.425c-.594,2.427-1.981,4.954-4.557,5.6s-6.737-.694-7.678-2.526c-.347-.694-.248-3.22-.941-3.468s-.991-.05-1.585-.2l-.594-.1a5.344,5.344,0,0,0-2.13-.248c-.842.149-.793-.1-1.04.05s-.1,0-.594.05H397.5a7.977,7.977,0,0,1,.05-.991,1.09,1.09,0,0,1,.05-.4h.347l1.238.3a6.787,6.787,0,0,0,2.774.1,5.449,5.449,0,0,0,2.873-1.536l.248-.248a11.445,11.445,0,0,0,.793-1.288c1.09-1.734,1.783-2.824,3.022-3.368a8.415,8.415,0,0,1,3.913-.2c3.666.892,4.458,4.656,4.508,4.9a9.115,9.115,0,0,1-.2,3.567" transform="translate(-200.59 -83.169)" fill="#cb8c00"/>
          <path id="Path_101176" data-name="Path 101176" d="M416.182,166.063a4.459,4.459,0,0,1,1.932-.5,6.291,6.291,0,0,1,3.369.594,5.994,5.994,0,0,1,2.328,2.378,6.191,6.191,0,0,1,.743,2.18c.3,1.536.2,2.774-.594,3.121s-1.932-.694-5-1.437a33.181,33.181,0,0,0-4.756-1.04c-1.635-.2-1.635-.446-1.288-.892A18.576,18.576,0,0,0,414.6,167.8a3.716,3.716,0,0,1,1.536-1.684" transform="translate(-208.275 -83.534)" fill="#fff"/>
          <path id="Path_101177" data-name="Path 101177" d="M411.769,177.5a8.473,8.473,0,0,1,1.09.2h.5a20.56,20.56,0,0,1,2.774.644c3.319.991,3.418,1.387,4.508,1.486a5.4,5.4,0,0,1,1.635.446,1.189,1.189,0,0,1,.347.248c.248.248.347.644.149.842s-1.04.05-1.635-.149a32.941,32.941,0,0,1-4.013-1.437c-3.319-1.387-6.192-.842-6.341-1.536s.5-.793.941-.842" transform="translate(-207.28 -89.521)" fill="#104c56"/>
          <path id="Path_101178" data-name="Path 101178" d="M411.844,180.925c.2-.149.644-.05,1.437.1,2.477.545,2.031.3,3.022.594,2.081.594,1.635.892,3.17,1.189a12.337,12.337,0,0,1,2.774.842c.248.1.545.3.545.5s-.4.5-.793.545a3.456,3.456,0,0,1-1.635-.545,10.408,10.408,0,0,0-2.081-.644c-2.675-.842-2.378-.991-3.369-1.139s-1.981.05-2.576-.446-.644-.842-.446-1.04" transform="translate(-207.801 -91.263)" fill="#104c56"/>
          <path id="Path_101179" data-name="Path 101179" d="M413.421,184.607c.5-.248,1.189.05,2.13.4s3.071.991,4.26,1.288,2.13.446,2.328.941a.446.446,0,0,1-.1.545c-.3.149-.941-.2-1.437-.4s-1.288-.3-3.468-.941a17.434,17.434,0,0,1-2.576-.793,8.916,8.916,0,0,1-1.387-.446c-.1-.149.1-.446.347-.545" transform="translate(-208.486 -93.112)" fill="#104c56"/>
          <path id="Path_101180" data-name="Path 101180" d="M414.015,187.541c.545-.248,1.189.347,2.923.842.941.248,1.387.248,2.923.743s1.238.4,1.189.545-.545.3-.991.347a6.9,6.9,0,0,1-2.229-.743,11.3,11.3,0,0,0-3.071-.793c-.446-.05-.991-.05-1.09-.3s.05-.446.3-.594" transform="translate(-208.734 -94.609)" fill="#104c56"/>
          <path id="Path_101181" data-name="Path 101181" d="M415.144,190.163a6.316,6.316,0,0,1,1.932.3c.4.1,2.526.793,2.427.991s-.941.05-1.585-.05c-1.585-.248-2.923-1.04-2.824-1.238" transform="translate(-209.466 -95.943)" fill="#104c56"/>
          <path id="Path_101182" data-name="Path 101182" d="M198.016,131.486c-.644-.2-1.486,2.328-4.112,2.18-1.04-.05-2.774.149-1.981-1.585.2-.446.644-.446,1.189-1.139a2.3,2.3,0,0,0,.2-2.824,2.922,2.922,0,0,0-2.824-.4l-.149.2a1.536,1.536,0,0,0-.2.446c-.149.594.644,3.269-.743,3.715-.4.149-1.734-1.387-1.882-2.031-.446-1.684,1.04-1.288,1.536-1.932a3.22,3.22,0,0,0,.694-1.09,1.882,1.882,0,0,0-.991-1.932,2.049,2.049,0,0,0-2.13,0c-.446.446.4,2.031-.2,2.526s-.892,0-1.536-.1a6.687,6.687,0,0,0-4.26.842c-3.22,1.833-2.972,8.52-.793,10.9a8.868,8.868,0,0,1,.991,1.238c1.04,1.585.991,2.675,1.437,3.517.892,1.635,3.616,2.427,5.8,1.981,2.873-.644,4.161-3.517,4.458-4.161,1.04-2.378-.05-3.814,1.536-5s4.409-.4,4.557-1.338.2-3.864-.446-4.062" transform="translate(-89.926 -62.977)" fill="#4bacce"/>
          <path id="Path_101183" data-name="Path 101183" d="M196.3,127.584a1.189,1.189,0,0,1-.4-.842.991.991,0,0,1,.545-.892c.5-.2,1.139.248,1.387.694s.4,1.139-.05,1.387a1.4,1.4,0,0,1-1.486-.347" transform="translate(-98.857 -63.484)" fill="#fff"/>
          <path id="Path_101184" data-name="Path 101184" d="M203.73,132.693a.918.918,0,0,1-.2-.941,1.5,1.5,0,0,1,1.734-.3c.594.3.991,1.139.644,1.585a1.387,1.387,0,0,1-1.288.248,1.536,1.536,0,0,1-.892-.594" transform="translate(-102.675 -66.263)" fill="#fff"/>
          <path id="Path_101185" data-name="Path 101185" d="M197.2,127.65a.4.4,0,0,1-.05-.446.545.545,0,0,1,.694-.248.5.5,0,0,1,.248.694.644.644,0,0,1-.842-.05" transform="translate(-99.465 -64.044)" fill="#051c22"/>
          <path id="Path_101186" data-name="Path 101186" d="M204.3,133.25a.4.4,0,0,1-.05-.446.545.545,0,0,1,.693-.248.5.5,0,0,1,.248.694.644.644,0,0,1-.842-.05" transform="translate(-103.048 -66.87)" fill="#051c22"/>
          <path id="Path_101187" data-name="Path 101187" d="M198.283,139.191c-.644-.1-1.238-.842-2.477-.694a2.972,2.972,0,0,0-1.486.644,4.755,4.755,0,0,0-1.585,2.031c-1.932,4.409-1.734,4.557-2.328,5.1a6.138,6.138,0,0,1-6.588.991c-.446-.248-.545-.5-1.684-2.229-2.279-3.369-2.18-2.972-2.477-3.666a8.623,8.623,0,0,1-.694-6.192,5.152,5.152,0,0,1,2.18-3.022c1.238-.743,3.17-1.189,4.458-.446s.644.941,1.585,2.229a8.818,8.818,0,0,0,3.121,2.725c.545.3,3.17,1.486,5.3.545s2.13-2.031,2.625-2.477c2.675-2.378,2.13,4.805.05,4.409" transform="translate(-90.143 -66.273)" fill="#cb8c00"/>
          <path id="Path_101188" data-name="Path 101188" d="M193.811,151.65c-.446-.248-1.189.793-2.675,1.437a7.827,7.827,0,0,1-5.5.2c-1.238-.446-2.081-1.238-2.279-1.09s.4.991.5,1.09a4.656,4.656,0,0,0,1.684,1.337c1.387.644,3.22.1,6.836-.892a2.374,2.374,0,0,0,1.635-1.04c.3-.644.149-.941-.1-1.09" transform="translate(-92.508 -76.502)" fill="#4bacce"/>
          <path id="Path_101189" data-name="Path 101189" d="M195.169,156.468c-.1-.149-.842.248-2.576.793a9.3,9.3,0,0,1-3.468.743c-.793-.1-1.882-.694-2.13-.446s0,.545.248.793.594.545,2.031.545a8.818,8.818,0,0,0,4.31-1.139c.842-.5,1.684-1.139,1.585-1.288" transform="translate(-94.312 -78.942)" fill="#4bacce"/>
          <path id="Path_101190" data-name="Path 101190" d="M196.605,158.593c-.2-.1-.743.842-1.932,1.337s-4.062.05-4.211.545.2.347.3.446a10.461,10.461,0,0,0,3.567-.2,4.2,4.2,0,0,0,1.783-.991c.149-.2.594-1.04.446-1.139" transform="translate(-96.095 -80.027)" fill="#4bacce"/>
          <path id="Path_101191" data-name="Path 101191" d="M192.678,139.5c-.594-1.437-2.774-.793-4.26-2.18s-.545-2.774-1.981-3.666a3.22,3.22,0,0,0-2.725-.248c-1.635.594-2.081,2.427-2.279,3.369a5.29,5.29,0,0,0,.743,4.805c1.486,1.783,4.508,1.882,5.251,1.833,2.378-.149,5.251-1.437,5.4-3.17a1.684,1.684,0,0,0-.1-.793" transform="translate(-91.424 -67.222)" fill="#fff"/>
          <path id="Path_101192" data-name="Path 101192" d="M383.638,44.462c-.941.1-1.486-.05-3.022-1.783a.644.644,0,0,0-1.139.149c-.347.594.694,1.981,1.189,2.923,1.536,3.022.743,8.223-1.387,11.394-.644.991-1.139,2.675-2.031,3.319-3.418,2.625-8.322,1.783-9.858-.3s-.248-4.013-2.031-5.7c-.5-.446-1.635-1.684-3.17-1.437a7.034,7.034,0,0,0-1.189.347l.3-2.675a3.478,3.478,0,0,1,.446.3,3.814,3.814,0,0,0,1.238.248h.743c.694-.05,1.437.2,1.932-.2a1.781,1.781,0,0,0,.594-1.486,12.632,12.632,0,0,1,.594-4.012c.842-2.378,2.18-3.269,1.783-4.211s-.991-.743-1.387-.743h-.3c-1.684.05-2.279,1.833-3.22,1.536s-1.486-1.833-1.387-3.17a2.328,2.328,0,0,1,.4-1.189,2.357,2.357,0,0,1,3.17-.2c.892.644.5.941,1.288,1.684l.5.4a3.864,3.864,0,0,0,1.981.644c1.189.05,1.288-.644,2.526-.842s1.536.446,4.557,1.189c1.833.446,2.229.347,2.526.2,1.139-.545,1.09-1.783,2.13-2.279s3.121.248,3.814,2.18-.793,3.666-1.684,3.765" transform="translate(-182.171 -18.703)" fill="#bf3422"/>
          <path id="Path_101193" data-name="Path 101193" d="M402.487,41.931c-.5.149-.743,1.139-.694,1.783a2.279,2.279,0,0,0,1.437,2.18c.347.1,1.189.2,1.437-.3s-1.238-4.013-2.18-3.715" transform="translate(-202.754 -21.126)" fill="#fff"/>
          <path id="Path_101194" data-name="Path 101194" d="M404.471,46.138a.594.594,0,0,0,.3-.594.793.793,0,0,0-.694-.644.594.594,0,0,0-.5.743.743.743,0,0,0,.892.5" transform="translate(-203.648 -22.658)" fill="#051c22"/>
          <path id="Path_101195" data-name="Path 101195" d="M376.952,63.346l-.693.4a6.565,6.565,0,0,1-8.075-2.526c-.5-.892-.941-3.963-1.635-4.557a3.468,3.468,0,0,0-1.585-.694h-.594a6.043,6.043,0,0,0-2.625.347l-.644.3.1-1.486h.3a5.251,5.251,0,0,0,2.279,0l.5-.149a4.607,4.607,0,0,0,2.031-1.536,6.991,6.991,0,0,0,.545-.842l.2-.347a16.546,16.546,0,0,0,.545-1.783c.743-2.427,1.238-3.963,2.328-4.855s3.517-.793,3.814-.743c3.765.793,5.3,5.746,5.4,6.044a16.544,16.544,0,0,1,.5,4.805c-.1,2.923-.842,6.143-2.725,7.53" transform="translate(-182.222 -22.627)" fill="#cb8c00"/>
          <path id="Path_101196" data-name="Path 101196" d="M385.79,54.71a9.858,9.858,0,0,0-1.288-3.864c-.594-.941-1.684-2.725-3.616-2.972a4.409,4.409,0,0,0-3.616,1.288c-1.585,1.585-2.328,4.409-1.635,5.2s.4.248,1.635.05c1.981-.3,2.18-.644,3.121-.743a5.1,5.1,0,0,1,4.458,1.882c.5.644.743,1.387.941,1.288s0-1.981,0-2.13" transform="translate(-189.425 -24.145)" fill="#fff"/>
          <path id="Path_101197" data-name="Path 101197" d="M384.844,65.564c-.149-.991-.941-1.536-1.734-2.081a7.679,7.679,0,0,0-3.468-1.189c-1.189-.149-3.765-.4-5.5,1.387-.5.5-.446.694-.446.743a23.455,23.455,0,0,1,4.409-.149,6.02,6.02,0,0,1,4.26,1.734c1.238,1.437.991,1.833,1.486,1.783s1.189-1.288,1.04-2.328" transform="translate(-188.579 -31.384)" fill="#bf3422"/>
          <path id="Path_101198" data-name="Path 101198" d="M386.163,74.005c.248-1.238-1.337-2.526-1.684-2.774-2.675-2.081-6.539-1.238-6.588-.793s.05.1,1.437.644c3.17,1.189,3.368,1.09,3.864,1.585s1.189,2.526,1.932,2.477.892-.545.991-1.09" transform="translate(-190.69 -35.267)" fill="#bf3422"/>
          <path id="Path_101199" data-name="Path 101199" d="M384.1,77.243c.149-.446-1.288-1.486-2.13-1.981s-2.279-1.09-2.526-.694.4,1.139.892,1.635c1.387,1.387,3.567,1.536,3.765,1.04" transform="translate(-191.451 -37.564)" fill="#bf3422"/>
          <path id="Path_101200" data-name="Path 101200" d="M365.233,40.3a1.437,1.437,0,0,0,.347,1.437c.842.941,2.824.05,2.873-.545s-1.09-.892-1.684-1.04-1.288-.3-1.585.2" transform="translate(-184.274 -20.191)" fill="#fff"/>
          <path id="Path_101201" data-name="Path 101201" d="M368.071,42.138a.594.594,0,0,0,.3-.594.793.793,0,0,0-.694-.644.594.594,0,0,0-.5.743.743.743,0,0,0,.892.5" transform="translate(-185.279 -20.639)" fill="#051c22"/>
          <path id="Path_101202" data-name="Path 101202" d="M427.406,90.344a8.056,8.056,0,0,1-5.6,2.972,9.654,9.654,0,0,1-4.557-.347,9.908,9.908,0,0,1-2.279-1.536l-2.18-1.486a2.526,2.526,0,0,0-1.238-.446h-.446l-.594.149h0a18.133,18.133,0,0,0-2.477,1.189,1.783,1.783,0,0,1-1.04.248l-.4.347.446-1.139c.248-.5.149-.694.446-.991a7.432,7.432,0,0,1,1.04-.793c.793-.545,1.536-.743,1.684-1.437.594-3.319-1.585-5.449.2-6.787.842-.644,2.427-.941,2.279-1.536s-.2-.446-.743-.4a2.855,2.855,0,0,1-2.477-.793c-.347-.4.5-1.238,1.387-1.585a3.468,3.468,0,0,1,2.328-.1,1.536,1.536,0,0,1,.743.594v.149a.693.693,0,0,1-.05.743c-.248.3-.594.446-.594.694s.545.4,1.04.5,1.684.05,2.031-.4.446-.4.05-.644-1.585-.743-1.833-1.189h-.05c-.248-.5.5-1.338,1.734-1.536h.347c1.288-.1,2.526.545,2.725,1.288a1.09,1.09,0,0,1-.743,1.288c-.347.149-.743.1-.941.3a.5.5,0,0,0-.049.594c.347.793,2.576,1.338,3.666,1.734a11.562,11.562,0,0,1,4.112,3.468l.644.793c1.437,1.833,2.873,4.062,1.486,6.192" transform="translate(-205.182 -37.736)" fill="#ffb900"/>
          <path id="Path_101203" data-name="Path 101203" d="M414.212,77.792a2.427,2.427,0,0,1,1.09-.3,2.13,2.13,0,0,1,1.238.3c.5.4,0,.991-.05,1.04a2.13,2.13,0,0,1-1.585.594,1.9,1.9,0,0,1-1.437-.545c-.2-.347.644-.991.793-1.09" transform="translate(-208.634 -39.104)" fill="#fff"/>
          <path id="Path_101204" data-name="Path 101204" d="M425.385,75.485a2.724,2.724,0,0,1,1.635.347.793.793,0,0,1,.248,1.189,2.56,2.56,0,0,1-2.279.4c-.743-.2-1.189-.5-1.189-.991s.842-.892,1.585-.941" transform="translate(-213.862 -38.085)" fill="#fff"/>
          <path id="Path_101205" data-name="Path 101205" d="M416.635,78.338a.347.347,0,0,0,.2-.4.644.644,0,0,0-.545-.347c-.5-.05-.941.3-.892.545s.892.4,1.238.2" transform="translate(-209.619 -39.154)" fill="#051c22"/>
          <path id="Path_101206" data-name="Path 101206" d="M427.676,76.512c.2-.1.347-.3.149-.5a1.536,1.536,0,0,0-1.189-.248c-.4.1-.594.4-.347.644a1.585,1.585,0,0,0,1.338.1" transform="translate(-215.063 -38.219)" fill="#051c22"/>
          <path id="Path_101207" data-name="Path 101207" d="M426.71,94.927c-2.378,1.981-6.985,2.328-9.61,1.288-.991-.4-3.121-2.229-4.161-2.328a6.291,6.291,0,0,0-2.031.149l-.594.149h0a3.913,3.913,0,0,0-1.734.941,4.211,4.211,0,0,0-.793.644l-1.238,1.238-.149-1.09a4.9,4.9,0,0,0,.594-1.189c.4-1.04.842-1.139,1.833-1.833s2.18-1.288,2.18-1.684a2.344,2.344,0,0,0,0-.3,8.026,8.026,0,0,0-.4-1.338c-.545-1.783-.941-2.923-.3-3.913s3.17-1.734,3.517-1.833c4.31-.842,8.57,1.783,8.818,1.932a13.525,13.525,0,0,1,3.121,2.873c1.684,2.13,2.725,4.756.892,6.291" transform="translate(-205.081 -42.22)" fill="#cb8c00"/>
          <path id="Path_101208" data-name="Path 101208" d="M414.547,86.48a2.972,2.972,0,0,1,1.338-1.238,8.025,8.025,0,0,1,3.765-.941,13.969,13.969,0,0,1,7.133,2.279c1.734,1.09,1.932,1.337,1.536,1.932s-.941,1.833-4.557,2.526-4.557,0-6.588-.2c-1.238-.1-1.783-.248-1.882-.743a6.783,6.783,0,0,0-.644-1.585c-.446-.991-.446-1.437-.1-1.981" transform="translate(-209.067 -42.54)" fill="#fff"/>
          <path id="Path_101209" data-name="Path 101209" d="M417.148,96.212c.644-.5,2.328.248,5.251.2a13.7,13.7,0,0,0,5.647-1.09c1.338-.644,2.13-1.486,2.774-1.338a.694.694,0,0,1,.5.545c.1.545-.644.991-1.04,1.189-1.585.892-3.814,1.04-8.471,1.635-2.477.3-3.666.5-4.359.05s-.644-.842-.3-1.139" transform="translate(-210.381 -47.418)" fill="#ffb900"/>
          <path id="Path_101210" data-name="Path 101210" d="M421.086,99.757c.149-.3,1.536-.05,3.913-.1a14.36,14.36,0,0,0,5.845-.941c1.833-.793,2.13-1.486,2.774-1.337a.842.842,0,0,1,.594.793c0,.3-.149.694-1.04,1.238s-5.994,2.923-10.007,1.684c-1.139-.347-2.229-.991-2.081-1.288" transform="translate(-212.486 -49.13)" fill="#ffb900"/>
          <path id="Path_101211" data-name="Path 101211" d="M426.367,103.969a14.959,14.959,0,0,0,2.081.2c.446,0,3.864.1,5.994-1.288.892-.594,1.189-1.189,1.536-1.09s.347.594.248,1.04c-.4,1.288-2.675,1.932-3.319,2.13a10.145,10.145,0,0,1-5.251.3c-2.229-.594-2.923-1.536-2.774-1.635s.545.149,1.536.347" transform="translate(-214.398 -51.36)" fill="#ffb900"/>
          <path id="Path_101212" data-name="Path 101212" d="M257.979,41.918c.347.05.545,0,1.139-.941s.347-.149.446.05-.248,1.04-.446,1.536a9.22,9.22,0,0,0,.5,5.944,11.392,11.392,0,0,0,.743,1.734,2.224,2.224,0,0,0,3.616-.149c.545-1.09.1-2.081.743-2.972s.594-.892,1.139-.743h.5l-.2-.842c-.05,0-.1-.3-.149-.248a1.04,1.04,0,0,1-.446.1h-.3c-.248,0-.545.1-.693-.1a1.189,1.189,0,0,1-.2-.793,9.114,9.114,0,0,0-.248-2.081c-.3-1.238-.793-1.684-.644-2.18a.545.545,0,0,1,.5-.4h.1c.594,0,.842.941,1.189.793s.545-.941.5-1.684a1.585,1.585,0,0,0-.149-.644.694.694,0,0,0-1.189-.1c-.248.248-.2.5-.5.892l-.2.2a1.189,1.189,0,0,1-.743.347c-.446,0-.5-.347-.941-.446s-.545.248-1.684.594-.842.2-.941.1-.4-.941-.793-1.189-1.139.149-1.387,1.139a1.8,1.8,0,0,0,.644,1.981" transform="translate(-129.777 -19.131)" fill="#4d571a"/>
          <path id="Path_101213" data-name="Path 101213" d="M259.23,40.791c.2.1.248.594.248.941a1.238,1.238,0,0,1-.545,1.139c-.149.05-.446.1-.545-.149s.446-2.081.793-1.932" transform="translate(-130.384 -20.58)" fill="#fff"/>
          <path id="Path_101214" data-name="Path 101214" d="M259.2,42.844a.347.347,0,0,1-.1-.3.338.338,0,0,1,.248-.347c.1,0,.2.2.2.4s-.2.347-.3.248" transform="translate(-130.746 -21.295)" fill="#051c22"/>
          <path id="Path_101215" data-name="Path 101215" d="M262.838,51.9l.248.2c1.139.743,2.477-.1,2.972-1.288a23.78,23.78,0,0,1,.594-2.378,1.139,1.139,0,0,1,.594-.347h.2a1.387,1.387,0,0,1,.842.3l.446.3.149-1.437-.149-.1c-.149.05-.248-.05-.644-.2l-.149-.149c-.347-.2-.1-.248-.248-.5l-.2-.347-.3-.5c-.1-.248-.149-.3-.347-.694-.991-2.18-1.189-1.981-1.486-2.13a1.585,1.585,0,0,0-1.288-.2c-1.387.4-1.932,2.972-1.981,3.17a11.987,11.987,0,0,0-.2,2.477c.05,1.536.3,3.17.991,3.913" transform="translate(-132.159 -21.388)" fill="#cb8c00"/>
          <path id="Path_101216" data-name="Path 101216" d="M262.6,47.407a6.736,6.736,0,0,1,.5-1.981c.2-.5.594-1.387,1.337-1.536a1.338,1.338,0,0,1,1.338.694,3.574,3.574,0,0,1,.594,2.725c-.248.446-.149.149-.594.05s-.793-.347-1.139-.4a1.684,1.684,0,0,0-1.635.991c-.2.347-.248.743-.347.694s0-1.04,0-1.09" transform="translate(-132.516 -22.143)" fill="#fff"/>
          <path id="Path_101217" data-name="Path 101217" d="M262.643,53.019a1.585,1.585,0,0,1,.644-1.09,2.378,2.378,0,0,1,1.288-.594,1.882,1.882,0,0,1,2.031.743c.2.248.149.347.149.4a5.933,5.933,0,0,0-1.635-.05,1.882,1.882,0,0,0-1.585.892c-.3.5-.347.941-.545.941s-.446-.694-.4-1.189" transform="translate(-132.509 -25.873)" fill="#4d571a"/>
          <path id="Path_101218" data-name="Path 101218" d="M263.3,57.417a2.031,2.031,0,0,1,.594-1.437,1.878,1.878,0,0,1,2.427-.446l-.545.347c-1.189.644-1.238.594-1.437.842s-.446,1.288-.694,1.288-.347-.3-.347-.545" transform="translate(-132.869 -27.893)" fill="#4d571a"/>
          <path id="Path_101219" data-name="Path 101219" d="M265.4,59.1c-.05-.248.5-.793.793-1.04s.842-.594.941-.347-.149.594-.347.842-1.338.793-1.387.545" transform="translate(-133.925 -29.081)" fill="#4d571a"/>
          <path id="Path_101220" data-name="Path 101220" d="M272.789,39.836a.991.991,0,0,1-.149.743c-.3.5-1.04.05-1.04-.3s.4-.5.594-.545.5-.149.594.1" transform="translate(-137.057 -20.021)" fill="#fff"/>
          <path id="Path_101221" data-name="Path 101221" d="M272.6,40.844a.347.347,0,0,1-.1-.3.338.338,0,0,1,.248-.347c.1,0,.2.2.2.4s-.2.347-.3.248" transform="translate(-137.508 -20.286)" fill="#051c22"/>
          <path id="Path_101222" data-name="Path 101222" d="M242.465,89.377a1.932,1.932,0,0,1,1.635-.545c.347.05.545.248.892.2a.842.842,0,0,0,.545-.4c.5-.694-.4-2.18-.694-2.923s-.149-2.328.545-4.359l.347-.892c.743-1.981,1.932-4.26,4.805-5.152a9.065,9.065,0,0,1,6.291.4c.446.248,2.13,1.04,2.576,2.378a4.819,4.819,0,0,1,.05,2.13,20.216,20.216,0,0,0,.049,2.081,1.189,1.189,0,0,0,.347.892c.1.1.347-.3.446-.248s.248.594.4.594v.2a12.223,12.223,0,0,0,2.576.1,1.337,1.337,0,0,1,.892.3l.694.694c-.05.2-.1.2-.149.4l-.991.892c-.644-.644-.842-.941-1.486-.991a5.647,5.647,0,0,0-1.437-.1,4.012,4.012,0,0,0-2.328.594c-3.418,2.13-4.012,4.656-6.341,4.805-1.139.05-2.427-.446-2.824.05s-.3.446.1.644a2.088,2.088,0,0,1,.842,1.684c-.149.446-1.486.694-2.328.5s-1.338-.3-1.585-.991a.991.991,0,0,1,.149-.892,1.288,1.288,0,0,1,.743-.5c.4-.1.793-.05,1.04-.248s0-.545-.2-.842a1.783,1.783,0,0,0-1.635-.644c-.4.1-.694.1-.644.446s.347,1.238.05,1.684h-.05a2.445,2.445,0,0,1-2.774.2,1.394,1.394,0,0,1-.545-2.18" transform="translate(-122.189 -37.809)" fill="#530c0d"/>
          <path id="Path_101223" data-name="Path 101223" d="M253.036,109.586a1.982,1.982,0,0,1-.991-.3c-.1-.05-.545-.347-.545-.743s.892-.694.991-.694a2.081,2.081,0,0,1,1.585.3c.3.248.644.694.446,1.04s-1.337.446-1.536.4" transform="translate(-126.914 -54.402)" fill="#fff"/>
          <path id="Path_101224" data-name="Path 101224" d="M243.894,105.8a1.288,1.288,0,0,1-.694-.991,1.09,1.09,0,0,1,.892-.941,1.783,1.783,0,0,1,1.783.743.941.941,0,0,1-.149,1.238,1.833,1.833,0,0,1-1.882-.05" transform="translate(-122.726 -52.402)" fill="#fff"/>
          <path id="Path_101225" data-name="Path 101225" d="M253.57,108.3a.446.446,0,0,0-.347.149.3.3,0,0,0,0,.4.594.594,0,0,0,.743,0c.149-.2-.1-.545-.4-.545" transform="translate(-127.746 -54.651)" fill="#051c22"/>
          <path id="Path_101226" data-name="Path 101226" d="M244.838,104.4c-.149,0-.4.05-.446.2s.149.347.4.446a.561.561,0,0,0,.644-.2c.05-.149-.3-.4-.594-.446" transform="translate(-123.324 -52.683)" fill="#051c22"/>
          <path id="Path_101227" data-name="Path 101227" d="M248.845,81.021c.892-2.328,2.625-4.656,5.251-4.954s6.588,1.536,7.282,3.468c.248.743.594,2.725,1.238,3.071s.248.694.842.892l.594.2a5.413,5.413,0,0,0,2.081.545c.842-.05.743.2,1.04.1h1.09a7.925,7.925,0,0,1-.2.991l-.1.4c-.05,0-.545,1.635-.545,1.635a9.831,9.831,0,0,1-.743-1.04c-.248-.3-.446-.941-1.09-1.238a2.725,2.725,0,0,0-1.833-.4,5.449,5.449,0,0,0-3.071,1.189l-.248.2a11.438,11.438,0,0,0-.991,1.139c-1.288,1.585-2.13,2.576-3.418,2.972a8.84,8.84,0,0,1-3.913-.3c-3.517-1.338-3.814-5.2-3.814-5.449a9.165,9.165,0,0,1,.694-3.517" transform="translate(-125.3 -38.37)" fill="#cb8c00"/>
          <path id="Path_101228" data-name="Path 101228" d="M256.609,94.884a4.458,4.458,0,0,1-1.981.248,6.291,6.291,0,0,1-3.269-1.04,5.994,5.994,0,0,1-1.981-2.625,6.192,6.192,0,0,1-.5-2.279c-.1-1.585.2-2.774.991-3.022s1.833.892,4.756,2.081a25.114,25.114,0,0,0,4.557,1.635c1.585.4,1.585.694,1.189,1.09a18.629,18.629,0,0,0-2.031,2.427,3.715,3.715,0,0,1-1.734,1.437" transform="translate(-125.584 -43.464)" fill="#fff"/>
          <path id="Path_101229" data-name="Path 101229" d="M262.225,88.254a8.472,8.472,0,0,1-1.04-.347l-.5-.149a20.558,20.558,0,0,1-2.625-.991c-3.17-1.437-3.22-1.833-4.26-2.081a5.4,5.4,0,0,1-1.536-.694,1.189,1.189,0,0,1-.347-.3c-.2-.3-.248-.694-.05-.842s1.04.1,1.585.347a32.893,32.893,0,0,1,3.814,1.932c3.121,1.833,6.044,1.635,6.093,2.328s-.594.743-1.04.694" transform="translate(-127.038 -41.788)" fill="#530c0d"/>
          <path id="Path_101230" data-name="Path 101230" d="M263.6,85.4c-.2.149-.644-.05-1.387-.3-2.427-.842-1.981-.594-2.923-.991-1.981-.842-1.536-1.09-2.972-1.585a12.335,12.335,0,0,1-2.625-1.189c-.2-.149-.545-.347-.5-.594s.446-.446.842-.446a3.83,3.83,0,0,1,1.536.743,14.884,14.884,0,0,0,1.981.892c2.576,1.189,2.229,1.288,3.22,1.585s1.981.248,2.526.793.545.892.347,1.09" transform="translate(-127.767 -40.522)" fill="#530c0d"/>
          <path id="Path_101231" data-name="Path 101231" d="M264.457,82.381c-.5.2-1.189-.2-2.031-.644s-2.873-1.387-4.062-1.833-2.031-.694-2.18-1.238a.446.446,0,0,1,.2-.5c.3-.149.892.3,1.387.594s1.238.5,3.319,1.387a17.487,17.487,0,0,1,2.477,1.139,8.916,8.916,0,0,1,1.337.594c.1.2-.149.446-.4.5" transform="translate(-129.271 -39.432)" fill="#530c0d"/>
          <path id="Path_101232" data-name="Path 101232" d="M265.551,80.357c-.545.2-1.139-.5-2.824-1.189-.892-.4-1.337-.446-2.824-1.09s-1.139-.545-1.139-.694.594-.248,1.04-.2a8.725,8.725,0,0,1,2.081.991,11.343,11.343,0,0,0,2.923,1.189c.446.1.991.2,1.09.446s-.1.446-.4.545" transform="translate(-130.562 -38.944)" fill="#530c0d"/>
          <path id="Path_101233" data-name="Path 101233" d="M267.858,79.059c-.1.149-1.536-.4-1.882-.545s-2.378-1.09-2.279-1.288.941.05,1.536.248c1.536.446,2.725,1.437,2.625,1.585" transform="translate(-133.067 -38.934)" fill="#530c0d"/>
          <path id="Path_101234" data-name="Path 101234" d="M329.92,36.618c.347-.3,1.585,1.189,3.121.347.594-.3,1.684-.694.694-1.585-.248-.248-.545-.1-1.04-.446A2.058,2.058,0,0,1,331.7,33.1a1.536,1.536,0,0,1,1.536-.991l.149.1.248.248c.3.347.644,2.378,1.585,2.279s.594-1.387.5-1.882c-.248-1.238-.991-.594-1.486-.892a2.427,2.427,0,0,1-.743-.545,1.437,1.437,0,0,1,0-1.536,1.145,1.145,0,0,1,1.288-.545c.4.2.4,1.486.892,1.635s.545-.248.892-.5a3.963,3.963,0,0,1,2.774-.594c2.477.347,4.359,4.9,3.814,7.084a6.4,6.4,0,0,0-.248,1.09,11.471,11.471,0,0,0,.248,2.725,4.331,4.331,0,0,1-2.824,2.873c-1.437.248-3.567-1.238-3.913-1.585-1.338-1.288-1.139-2.576-2.427-2.972s-2.725.941-3.121.347-1.288-2.526-.941-2.824" transform="translate(-166.448 -14.772)" fill="#bcce72"/>
          <path id="Path_101235" data-name="Path 101235" d="M338.789,31.19a.892.892,0,0,0,0-.644.715.715,0,0,0-.594-.446c-.3,0-.594.5-.594.842s.1.842.446.941.644-.3.793-.644" transform="translate(-170.363 -15.189)" fill="#fff"/>
          <path id="Path_101236" data-name="Path 101236" d="M335.58,36.583a.793.793,0,0,0-.149-.694.915.915,0,0,0-1.04,1.486.842.842,0,0,0,.842-.2.991.991,0,0,0,.347-.644" transform="translate(-168.59 -18.056)" fill="#fff"/>
          <path id="Path_101237" data-name="Path 101237" d="M338.757,31.386a.315.315,0,0,0-.545-.3.333.333,0,1,0,.545.3" transform="translate(-170.629 -15.634)" fill="#051c22"/>
          <path id="Path_101238" data-name="Path 101238" d="M336.257,37.086a.315.315,0,0,0-.545-.3.333.333,0,1,0,.545.3" transform="translate(-169.367 -18.51)" fill="#051c22"/>
          <path id="Path_101239" data-name="Path 101239" d="M330.123,40.961c.347-.248.446-1.387,1.238-1.684a1.882,1.882,0,0,1,1.09.05,3.517,3.517,0,0,1,1.536.941c2.477,2.427,2.427,2.576,2.923,2.824a3.594,3.594,0,0,0,4.211-1.139c.2-.3.149-.446.347-1.981a25.745,25.745,0,0,0,.347-3.121,6.688,6.688,0,0,0-1.486-4.359,3.864,3.864,0,0,0-2.229-1.437,2.858,2.858,0,0,0-2.774.892c-.545.842-.1.793-.248,1.932a6.093,6.093,0,0,1-1.04,2.675,4.045,4.045,0,0,1-2.972,1.783,4.359,4.359,0,0,1-2.576-1.238c-2.328-.842.5,4.607,1.585,3.765" transform="translate(-165.313 -15.648)" fill="#cb8c00"/>
          <path id="Path_101240" data-name="Path 101240" d="M342.147,46.925c.2-.3.941.2,2.031.248a4.607,4.607,0,0,0,3.369-1.338c.594-.644.842-1.387,1.04-1.338s.05.793.05.842a3.17,3.17,0,0,1-.594,1.337c-.644.793-1.882.941-4.359,1.238a1.536,1.536,0,0,1-1.288-.248c-.2-.2-.4-.594-.248-.743" transform="translate(-172.631 -22.454)" fill="#bcce72"/>
          <path id="Path_101241" data-name="Path 101241" d="M344.2,50.826c0-.1.594-.05,1.783-.149a5.135,5.135,0,0,0,2.279-.446c.446-.3.892-.941,1.139-.842s.149.4.1.594-.2.5-1.04.892a5.3,5.3,0,0,1-2.923.4,2.957,2.957,0,0,1-1.338-.446" transform="translate(-173.694 -24.918)" fill="#bcce72"/>
          <path id="Path_101242" data-name="Path 101242" d="M345.245,53.159c.1-.149.694.347,1.536.4s2.427-1.04,2.675-.793,0,.3-.049.4a6.367,6.367,0,0,1-2.18.842,2.378,2.378,0,0,1-1.387-.2c-.347-.2-.694-.545-.644-.644" transform="translate(-174.193 -26.607)" fill="#bcce72"/>
          <path id="Path_101243" data-name="Path 101243" d="M340.4,38.888c-.1-1.139,1.437-1.288,1.882-2.625s-.545-1.981.05-2.972a1.882,1.882,0,0,1,1.536-.892c1.139-.05,1.981,1.09,2.378,1.635a4.472,4.472,0,0,1,1.04,3.418c-.3,1.585-2.13,2.477-2.576,2.625-1.437.545-3.567.446-4.211-.644a1.387,1.387,0,0,1-.2-.594" transform="translate(-171.725 -16.348)" fill="#fff"/>
          <path id="Path_101244" data-name="Path 101244" d="M299.923,93a6.341,6.341,0,0,0,4.954.5,5.466,5.466,0,0,0,2.725-1.684,6,6,0,0,0,.743-1.833,14.474,14.474,0,0,1,.694-1.783,1.387,1.387,0,0,1,.545-.694l.3-.149.446-.1h0a13.573,13.573,0,0,1,2.13.1,1.139,1.139,0,0,0,.743-.149l.4.149-.842-.743c-.4-.3-.4-.446-.743-.644l-.991-.248c-.743-.149-1.338-.05-1.734-.545-1.932-2.328-1.585-4.557-3.319-5-.842-.2-1.982.05-2.13-.446s-.1-.4.3-.545a1.585,1.585,0,0,0,1.189-1.338c0-.4-.892-.793-1.635-.743a2.031,2.031,0,0,0-1.536.644.991.991,0,0,0-.2.644v.149a.793.793,0,0,0,.4.545c.3.149.594.149.694.347s-.149.446-.446.694a1.536,1.536,0,0,1-1.486.347c-.248-.149-.5-.149-.347-.446s.644-1.04.594-1.437h0c-.1-.446-.941-.842-1.833-.594l-.248.1a1.65,1.65,0,0,0-1.139,1.783,1.139,1.139,0,0,0,1.09.694c.3,0,.5-.149.743-.05a.545.545,0,0,1,.3.4c.149.694-.991,1.833-1.486,2.427a7.352,7.352,0,0,0-.941,3.814c0,.248-.05.545-.05.793-.05,1.833.1,3.963,2.031,5.1" transform="translate(-150.271 -38.903)" fill="#3793ae"/>
          <path id="Path_101245" data-name="Path 101245" d="M308.474,77.781a1.585,1.585,0,0,0-.842.1c-.1.05-.545.248-.644.594s.446.743.545.743a1.536,1.536,0,0,0,1.288-.05c.3-.149.693-.5.644-.842s-.892-.545-1.04-.545" transform="translate(-154.909 -39.241)" fill="#fff"/>
          <path id="Path_101246" data-name="Path 101246" d="M300.294,79.532a1.486,1.486,0,0,0-.842.793.743.743,0,0,0,.4.941,1.585,1.585,0,0,0,1.635-.4.956.956,0,0,0,.3-1.09c-.2-.347-.941-.4-1.437-.2" transform="translate(-151.088 -40.101)" fill="#fff"/>
          <path id="Path_101247" data-name="Path 101247" d="M308.263,78.6a.355.355,0,0,1-.149-.694c.3-.2.743-.05.793.149s-.347.594-.694.545" transform="translate(-155.342 -39.266)" fill="#051c22"/>
          <path id="Path_101248" data-name="Path 101248" d="M300.347,80.684a.336.336,0,0,1-.347-.347.842.842,0,0,1,.644-.545c.3-.05.545.149.5.347a.892.892,0,0,1-.793.5" transform="translate(-151.389 -40.262)" fill="#051c22"/>
          <path id="Path_101249" data-name="Path 101249" d="M300.424,96.257a6.762,6.762,0,0,0,6.688-2.031c.446-.594.941-2.625,1.536-3.022a3.666,3.666,0,0,1,1.338-.545l.446-.1h0a3.071,3.071,0,0,1,1.536.149,3.765,3.765,0,0,1,.793.248l1.337.545-.446-.842c-.2-.05-.05-.644-.2-.793a21.442,21.442,0,0,0-2.774-.743c-.991-.248-1.982-.3-2.18-.594l-.1-.149a7.925,7.925,0,0,1-.4-1.139c-.5-1.536-.793-2.477-1.684-3.022a5.925,5.925,0,0,0-3.071-.3c-3.121.694-4.557,3.963-4.656,4.161A9.115,9.115,0,0,0,298,91.2c-.05,2.13.5,4.359,2.427,4.954" transform="translate(-150.377 -42.312)" fill="#cb8c00"/>
          <path id="Path_101250" data-name="Path 101250" d="M306.918,85.157a2.774,2.774,0,0,0-1.437-.5,5.251,5.251,0,0,0-2.824.446,6.935,6.935,0,0,0-2.328,1.981,7.331,7.331,0,0,0-1.09,1.882c-.594,1.338-.594,1.585-.05,1.932s1.437,1.04,4.062.446,2.873-1.387,4.062-2.18.991-.743.842-1.139a8.843,8.843,0,0,1-.347-1.387,2.328,2.328,0,0,0-.892-1.486" transform="translate(-150.777 -42.704)" fill="#fff"/>
          <path id="Path_101251" data-name="Path 101251" d="M308.211,93.776c-.644-.2-1.387.892-3.22,1.783a8.818,8.818,0,0,1-4.062.941c-1.139-.05-2.081-.446-2.378-.149a.369.369,0,0,0-.05.545,6.488,6.488,0,0,0,1.189.594c1.437.2,2.923-.4,6.093-1.387,1.734-.545,2.576-.743,2.774-1.337a.694.694,0,0,0-.347-.941" transform="translate(-150.584 -47.31)" fill="#3793ae"/>
          <path id="Path_101252" data-name="Path 101252" d="M308.183,97.65c-.248-.149-.991.446-2.526,1.09a9.31,9.31,0,0,1-4.161,1.09c-1.536-.05-2.031-.446-2.378-.149s-.1.594,0,.743a1.59,1.59,0,0,0,1.238.594c.842.1,5.2.347,7.133-1.833.545-.594.941-1.437.694-1.585" transform="translate(-150.854 -49.252)" fill="#3793ae"/>
          <path id="Path_101253" data-name="Path 101253" d="M307.911,102.038a8.126,8.126,0,0,1-1.189.793,7.223,7.223,0,0,1-4.409.892c-.842-.149-1.288-.5-1.486-.347s.05.594.347.842a8.764,8.764,0,0,0,3.121.545,6.564,6.564,0,0,0,3.468-1.387c1.139-1.09,1.139-2.031.991-2.081s-.248.3-.793.743" transform="translate(-151.771 -51.114)" fill="#3793ae"/>
          <path id="Path_101254" data-name="Path 101254" d="M446.73,128.426c-.149,1.04-.4,1.833-1.734.892a.793.793,0,0,0-.991.05c-.3.3.594,1.04,1.04,1.536,1.288,1.536.644,4.26-1.189,5.895-.545.5-.892,2.229-1.635,2.576-2.923,1.337-7.183.1-8.471-.991s-.248-2.081-1.734-2.923c-.4-.248-1.337-.3-2.725-.743a5.349,5.349,0,0,0-.793-.3v-.892l.4.149a5.2,5.2,0,0,0,1.04.1h.644a4.271,4.271,0,0,0,1.635-.1.842.842,0,0,0,.5-.793,4.211,4.211,0,0,1,.545-2.081c.694-1.238,1.833-1.684,1.536-2.18s-.842-.4-1.189-.4h-.248c-1.437,0-1.932.941-2.725.793a1.635,1.635,0,0,1-1.189-1.635.941.941,0,0,1,.347-.644,3.089,3.089,0,0,1,2.725-.1c.743.347.446.5,1.09.892l.446.2a4.855,4.855,0,0,0,1.684.347c1.04,0,1.09-.347,2.18-.446s1.337.248,3.913.594c1.536.248,1.932.2,2.18.1s-1.536-1.139-1.189-1.932c.694-1.635,2.774-1.882,3.319-.892a4.607,4.607,0,0,1,.594,2.923" transform="translate(-216.234 -63.038)" fill="#a6be4a"/>
          <path id="Path_101255" data-name="Path 101255" d="M459.894,126.191a.972.972,0,0,0-.594.941,1.337,1.337,0,0,0,1.238,1.139c.3.05.991.1,1.238-.149s-1.04-2.081-1.882-1.932" transform="translate(-231.776 -63.676)" fill="#fff"/>
          <path id="Path_101256" data-name="Path 101256" d="M461.637,128.344c.149-.05.3-.149.3-.3s-.347-.347-.594-.347-.5.2-.446.4a.743.743,0,0,0,.743.248" transform="translate(-232.577 -64.441)" fill="#051c22"/>
          <path id="Path_101257" data-name="Path 101257" d="M441.624,141.66l-.594.2c-2.625.743-5.8-.1-6.886-1.288-.4-.446-.793-2.081-1.387-2.328a4.161,4.161,0,0,0-1.387-.347h-.5a8.322,8.322,0,0,0-2.229.2.793.793,0,0,1-.545,0V137.2h.4a11.3,11.3,0,0,0,1.932-.2c.149,0,.248.5.4.446s1.387-.991,1.783-1.288-.1.1,0,0l.594-.446c.2-.248.248-.149.5-.644.644-1.238,1.04-2.031,1.981-2.477a9.851,9.851,0,0,1,3.269-.4,6.044,6.044,0,0,1,4.607,3.121,5.4,5.4,0,0,1,.4,2.477,4.423,4.423,0,0,1-2.328,3.913" transform="translate(-216.032 -66.71)" fill="#cb8c00"/>
          <path id="Path_101258" data-name="Path 101258" d="M449.193,137.1a3.913,3.913,0,0,0-1.09-1.982,4.805,4.805,0,0,0-3.071-1.536,5.548,5.548,0,0,0-3.071.644c-1.338.793-1.981,2.279-1.387,2.675s.3.149,1.387.05,1.882-.347,2.675-.4a6.773,6.773,0,0,1,3.814.991c.941.793.644.694.793.694s0-1.04,0-1.09" transform="translate(-222.214 -67.4)" fill="#fff"/>
          <path id="Path_101259" data-name="Path 101259" d="M448.388,142.744c-.1-.5-.793-.793-1.486-1.09a9.61,9.61,0,0,0-2.972-.594c-.991-.05-3.22-.2-4.706.743-.4.248-.4.347-.347.4a31.462,31.462,0,0,1,3.765-.05,6.873,6.873,0,0,1,3.616.892c1.04.743.842.941,1.288.941a1.09,1.09,0,0,0,.892-1.189" transform="translate(-221.459 -71.163)" fill="#a6be4a"/>
          <path id="Path_101260" data-name="Path 101260" d="M449.534,147.017c.2-.644-1.139-1.288-1.437-1.437-2.279-1.09-5.6-.644-5.6-.446l1.238.347c2.725.644,2.873.594,3.319.842s1.04,1.288,1.635,1.288a.991.991,0,0,0,.842-.545" transform="translate(-223.299 -73.108)" fill="#a6be4a"/>
          <path id="Path_101261" data-name="Path 101261" d="M447.736,148.721c.149-.248-1.09-.793-1.833-1.04s-1.981-.545-2.13-.347.347.594.793.842c1.189.694,3.071.793,3.22.545" transform="translate(-223.927 -74.316)" fill="#a6be4a"/>
          <path id="Path_101262" data-name="Path 101262" d="M431.619,129.636c-.2.2,0,.545.3.743s2.427.05,2.477-.3-.892-.5-1.437-.545-1.09-.149-1.337.1" transform="translate(-217.767 -65.337)" fill="#fff"/>
          <path id="Path_101263" data-name="Path 101263" d="M434.137,130.544c.149-.05.3-.149.3-.3s-.347-.347-.594-.347-.5.2-.446.4a.743.743,0,0,0,.743.248" transform="translate(-218.7 -65.551)" fill="#051c22"/>
          <path id="Path_101264" data-name="Path 101264" d="M363,168.888c-.4.347.892,1.981-.347,3.666-.5.644-1.139,1.932-1.932.644-.2-.3,0-.644-.2-1.288a1.773,1.773,0,0,0-1.783-1.337c-.892.149-1.486,1.437-1.486,1.684v.2a1.188,1.188,0,0,0,.2.347c.3.347,2.427.991,2.13,2.081-.1.347-1.684.545-2.18.4-1.288-.446-.4-1.238-.594-1.833a2.527,2.527,0,0,0-.4-.941,1.486,1.486,0,0,0-1.684-.149c-.545.3-1.04.941-.892,1.437s1.536.594,1.585,1.238-.4.594-.743.991a5.35,5.35,0,0,0-1.288,3.17c-.2,2.923,4.31,5.647,6.836,5.2a6.986,6.986,0,0,1,1.238-.149,15.444,15.444,0,0,1,2.923.545,5.758,5.758,0,0,0,3.814-2.972c.644-1.635-.5-4.26-.793-4.756-1.09-1.734-2.526-1.635-2.625-3.17s1.635-3.071,1.09-3.616-2.477-1.783-2.873-1.437" transform="translate(-178.33 -85.171)" fill="#8d5e09"/>
          <path id="Path_101265" data-name="Path 101265" d="M356.582,177.93a.941.941,0,0,1-.743-.1.743.743,0,0,1-.347-.743,1,1,0,0,1,1.04-.594c.4.05.892.248.892.644s-.5.743-.892.842" transform="translate(-179.388 -89.061)" fill="#fff"/>
          <path id="Path_101266" data-name="Path 101266" d="M363.15,174.876c-.1,0-.545.05-.694-.248A1.278,1.278,0,0,1,363,173.34a.971.971,0,0,1,1.337.248c.149.4-.2.743-.4.941a1.189,1.189,0,0,1-.743.347" transform="translate(-182.884 -87.393)" fill="#fff"/>
          <path id="Path_101267" data-name="Path 101267" d="M356.807,177.814a.347.347,0,0,1-.347-.149.446.446,0,0,1,.149-.545.4.4,0,0,1,.594.149.5.5,0,0,1-.4.545" transform="translate(-179.861 -89.341)" fill="#051c22"/>
          <path id="Path_101268" data-name="Path 101268" d="M363.607,175.514a.347.347,0,0,1-.347-.149.446.446,0,0,1,.149-.545.4.4,0,0,1,.594.149.5.5,0,0,1-.4.545" transform="translate(-183.292 -88.18)" fill="#051c22"/>
          <path id="Path_101269" data-name="Path 101269" d="M366.387,170.712c-.5,0-1.09.446-1.536,1.338a2.378,2.378,0,0,0-.2,1.238,3.765,3.765,0,0,0,.644,1.932c2.031,3.17,2.229,3.121,2.378,3.715a4.933,4.933,0,0,1-2.229,4.805c-.347.2-.545.149-2.229.149-3.22.05-2.873.149-3.468.1a6.456,6.456,0,0,1-4.409-2.229,4.062,4.062,0,0,1-1.04-2.725,3.736,3.736,0,0,1,1.635-3.121c1.04-.5.892,0,2.18-.1a6.985,6.985,0,0,0,3.121-.892c.446-.248,2.378-1.486,2.675-3.269s-.149-2.328-.545-2.576c-2.279-1.486,7.183,1.486,3.022,1.684" transform="translate(-178.79 -85.112)" fill="#cb8c00"/>
          <path id="Path_101270" data-name="Path 101270" d="M371.51,183.9c-.347.2,0,1.139-.2,2.427a6.242,6.242,0,0,1-2.229,3.765c-.842.644-1.734.842-1.684,1.04s.842.149.892.149a3.666,3.666,0,0,0,1.635-.545c1.04-.644,1.486-2.081,2.378-4.9a1.737,1.737,0,0,0,.05-1.486c-.3-.446-.545-.5-.743-.4" transform="translate(-185.399 -92.801)" fill="#8d5e09"/>
          <path id="Path_101271" data-name="Path 101271" d="M375.572,186.45a12.661,12.661,0,0,0-.594,2.031,8.5,8.5,0,0,1-.991,2.625c-.4.5-1.238.941-1.189,1.189s.4.248.644.2.594-.149,1.238-1.139a7.034,7.034,0,0,0,1.09-3.369,3.485,3.485,0,0,0-.149-1.585" transform="translate(-188.124 -94.063)" fill="#8d5e09"/>
          <path id="Path_101272" data-name="Path 101272" d="M378.11,187.845c-.149.05.2.842.05,1.833s-1.734,2.725-1.486,3.022.3.05.4,0a9.807,9.807,0,0,0,1.437-2.477,2.873,2.873,0,0,0,.1-1.635c-.149-.446-.446-.842-.545-.793" transform="translate(-190.067 -94.765)" fill="#8d5e09"/>
          <path id="Path_101273" data-name="Path 101273" d="M363.821,181.484c-1.189-.2-1.734,1.486-3.269,1.882s-2.081-.842-3.269-.248a2.576,2.576,0,0,0-1.338,1.684,3.371,3.371,0,0,0,1.238,2.972,4.2,4.2,0,0,0,3.468,1.585c1.783-.2,3.22-2.18,3.468-2.675.941-1.635,1.338-4.112.3-4.954a1.338,1.338,0,0,0-.594-.248" transform="translate(-179.593 -91.574)" fill="#fff"/>
          <path id="Path_101274" data-name="Path 101274" d="M313.692,194.007c2.873-2.477,1.486-7.678-2.972-16.149-1.337-2.576-2.031-4.855-4.607-9.709-10.9-20.607-13.524-10.551-5.994-17.784,4.161-4.013,4.112.743,9.561-.991,2.279-.743,6.935-2.824,3.715-4.211-1.536-.644-1.437,1.288-4.805,2.279s-8.421-4.656-10.056-1.238c-3.913,8.372-9.115,2.526-11.394,1.338s-4.26-2.725-7.084-4.409-2.774,5.3-4.508,4.756c-3.715-1.09-7.579-4.012-8.966-2.031s10.106,5.7,12.582,6.588c4.805,1.734-3.071-8.223,1.932-5.994s2.873,6.093,2.675,8.223c-1.189,12.335.149,14.267-.446,19.815-.743,7.183-11.245,20.706-2.18,18.477,23.778-5.895,26.9,5.944,32.6.991" transform="translate(-134.467 -72.096)" fill="#bf3422"/>
          <path id="Path_101275" data-name="Path 101275" d="M298.406,139.784c-3.963-.842-2.923-9.214-7.282-9.016-2.576.1-9.164-3.517-4.805-8.223,5.548-6.093,9.66,2.725,10.155,4.607,2.279,9.313,3.022,12.83,1.982,12.582" transform="translate(-143.751 -60.772)" fill="#bf3422"/>
          <path id="Path_101276" data-name="Path 101276" d="M311.566,146.61c-1.734-2.031,4.112-9.115,1.288-12.483-1.635-1.981-2.675-10.551,3.715-9.957,8.174.793,5,9.61,3.22,10.4-4.161,1.882-7.084,13.375-8.273,11.988" transform="translate(-157.06 -62.645)" fill="#bf3422"/>
          <path id="Path_101277" data-name="Path 101277" d="M320.383,134.22c.941-.694,2.378-1.833,2.378-3.715S320.68,125.9,318.253,126c-3.567.149-4.161,3.715-3.369,6.093a3.834,3.834,0,0,0,5.5,2.081" transform="translate(-158.744 -63.581)" fill="#fff"/>
          <path id="Path_101278" data-name="Path 101278" d="M319.842,133.647a2.976,2.976,0,0,0,1.882-2.526A3.269,3.269,0,0,0,318.405,128a3.467,3.467,0,0,0-2.725,4.161c.545,1.635,2.625,2.13,4.112,1.486" transform="translate(-159.243 -64.592)" fill="#051c22"/>
          <path id="Path_101279" data-name="Path 101279" d="M319.462,131.938a.743.743,0,0,0,.446-.594.793.793,0,0,0-.793-.743.842.842,0,0,0-.644,1.04.743.743,0,0,0,.991.347" transform="translate(-160.696 -65.905)" fill="#fff"/>
          <path id="Path_101280" data-name="Path 101280" d="M316.653,183.037a7.777,7.777,0,0,0,2.18-3.418,10.5,10.5,0,0,0-.2-6.143,9.115,9.115,0,0,0-4.26-5.251c-.694-.446-3.864-2.328-7.034-.4a7.53,7.53,0,0,0-3.17,3.814,11.394,11.394,0,0,0-.594,5.647,11.119,11.119,0,0,0,2.774,6.291c2.18,2.18,5.8,1.684,7.133,1.288a7.777,7.777,0,0,0,3.17-1.833" transform="translate(-153.131 -84.26)" fill="#104c56"/>
          <path id="Path_101281" data-name="Path 101281" d="M316.442,182.92a5.944,5.944,0,0,0,1.932-2.576,6.935,6.935,0,0,0-.2-4.656,7.331,7.331,0,0,0-3.765-3.963,6.631,6.631,0,0,0-6.192-.3,6.093,6.093,0,0,0-2.774,2.873,7.529,7.529,0,0,0-.545,4.26,7.82,7.82,0,0,0,2.427,4.756c1.932,1.635,5.1,1.288,6.291.991a7.084,7.084,0,0,0,2.774-1.387" transform="translate(-153.812 -86.174)" fill="#051c22"/>
          <path id="Path_101282" data-name="Path 101282" d="M292.836,129.977c.941-.694,2.378-1.833,2.378-3.715s-2.576-3.765-5-3.864-3.715,3.121-2.873,5.5,3.814,3.269,5.5,2.081" transform="translate(-144.869 -61.764)" fill="#fff"/>
          <path id="Path_101283" data-name="Path 101283" d="M292.219,129.645a3.007,3.007,0,0,0,1.833-2.576A3.269,3.269,0,0,0,290.683,124a3.439,3.439,0,0,0-2.625,4.211c.594,1.635,2.675,2.081,4.161,1.387" transform="translate(-145.292 -62.572)" fill="#051c22"/>
          <path id="Path_101284" data-name="Path 101284" d="M290.762,127.738a.743.743,0,0,0,.446-.594.793.793,0,0,0-.793-.743.842.842,0,0,0-.644,1.04.743.743,0,0,0,.991.347" transform="translate(-146.213 -63.785)" fill="#fff"/>
          <path id="Path_101285" data-name="Path 101285" d="M221.815,161.887a2.626,2.626,0,0,0-1.981-.2,5.153,5.153,0,0,0-3.468,5.1,1.783,1.783,0,0,0,.743,1.288c1.09.644,2.923-.594,3.269-.842s2.675-1.882,2.427-3.765a2.229,2.229,0,0,0-.991-1.536" transform="translate(-109.168 -81.538)" fill="#e6a69c"/>
          <path id="Path_101286" data-name="Path 101286" d="M216.078,165.417c.3.149.644-.941,1.932-1.387s1.288.1,2.625-.149,1.783-.347,2.13-1.09a1.882,1.882,0,0,0-.347-1.833c-.892-1.139-3.071-1.189-4.508-.347s-2.279,4.557-1.833,4.756" transform="translate(-108.979 -80.758)" fill="#d2dea1"/>
          <path id="Path_101287" data-name="Path 101287" d="M220.65,168.019c-.149-.248.892-.743,1.238-2.031s-.149-1.238,0-2.576.248-1.783.941-2.18a1.833,1.833,0,0,1,1.783.149c1.139.743,1.288,2.873.545,4.359-1.139,2.229-4.31,2.725-4.557,2.279" transform="translate(-111.321 -81.28)" fill="#bcce72"/>
          <path id="Path_101288" data-name="Path 101288" d="M219.9,168.748a.4.4,0,0,0,.149.347.439.439,0,0,0,.743-.3c0-.2-.248-.3-.4-.3a.5.5,0,0,0-.446.3" transform="translate(-110.966 -85.03)" fill="#fff"/>
          <path id="Path_101289" data-name="Path 101289" d="M222.023,170.542a.347.347,0,0,1-.347-.1.439.439,0,0,1,.3-.743.383.383,0,0,1,.347.4.5.5,0,0,1-.248.5" transform="translate(-111.803 -85.636)" fill="#fff"/>
          <path id="Path_101290" data-name="Path 101290" d="M222.1,170.213a.149.149,0,0,1-.1-.149.2.2,0,0,1,.1-.2.248.248,0,0,1,.248,0,.2.2,0,0,1,0,.248.248.248,0,0,1-.248.1" transform="translate(-112.026 -85.703)" fill="#051c22"/>
          <path id="Path_101291" data-name="Path 101291" d="M220.6,168.813a.149.149,0,0,1-.1-.149.2.2,0,0,1,.1-.2.248.248,0,0,1,.248,0,.2.2,0,0,1,0,.248.248.248,0,0,1-.248.1" transform="translate(-111.269 -84.996)" fill="#051c22"/>
          <path id="Path_101292" data-name="Path 101292" d="M265.951,160.09a2.625,2.625,0,0,0-1.684,1.09,5.117,5.117,0,0,0,.446,6.143,1.783,1.783,0,0,0,1.387.545c1.288-.149,1.932-2.279,2.031-2.725s.892-3.17-.446-4.458a2.229,2.229,0,0,0-1.734-.594" transform="translate(-132.944 -80.781)" fill="#e6a69c"/>
          <path id="Path_101293" data-name="Path 101293" d="M263.3,166.325c.3-.05-.1-1.139.644-2.279s1.04-.694,1.932-1.734,1.189-1.387.991-2.18a1.882,1.882,0,0,0-1.387-1.189c-1.437-.347-3.17.991-3.715,2.576-.892,2.378,1.04,5,1.536,4.855" transform="translate(-131.977 -80.18)" fill="#d2dea1"/>
          <path id="Path_101294" data-name="Path 101294" d="M268.6,166.519c-.3-.1.248-1.139-.3-2.328s-.892-.842-1.585-1.981-.941-1.536-.644-2.328a1.833,1.833,0,0,1,1.486-.991c1.387-.149,2.824,1.437,3.121,3.071.5,2.477-1.684,4.805-2.13,4.607" transform="translate(-134.206 -80.176)" fill="#bcce72"/>
          <path id="Path_101295" data-name="Path 101295" d="M266.783,169.434a.4.4,0,0,0,.347.149.415.415,0,0,0,.347-.693.4.4,0,0,0-.545,0,.5.5,0,0,0-.149.5" transform="translate(-134.618 -85.172)" fill="#fff"/>
          <path id="Path_101296" data-name="Path 101296" d="M269.657,169.6a.347.347,0,0,1-.347.1.429.429,0,0,1-.248-.743.4.4,0,0,1,.5.1.5.5,0,0,1,.1.545" transform="translate(-135.709 -85.234)" fill="#fff"/>
          <path id="Path_101297" data-name="Path 101297" d="M269.389,169.5a.149.149,0,0,1-.149-.05.2.2,0,0,1-.05-.2.248.248,0,0,1,.2-.149c.1,0,.149.1.149.2a.248.248,0,0,1-.149.248" transform="translate(-135.838 -85.333)" fill="#051c22"/>
          <path id="Path_101298" data-name="Path 101298" d="M267.389,169.4a.149.149,0,0,1-.149-.05.2.2,0,0,1-.05-.2.248.248,0,0,1,.2-.149c.1,0,.149.1.149.2a.248.248,0,0,1-.149.248" transform="translate(-134.828 -85.282)" fill="#051c22"/>
          <path id="Path_101299" data-name="Path 101299" d="M298.722,21.894a2.625,2.625,0,0,0,.793-1.833c.1-2.081-1.882-4.557-3.814-4.805a1.783,1.783,0,0,0-1.437.3c-.991.842-.3,2.972-.2,3.418s.991,3.121,2.873,3.468a2.229,2.229,0,0,0,1.783-.5" transform="translate(-148.229 -7.677)" fill="#e6a69c"/>
          <path id="Path_101300" data-name="Path 101300" d="M298.971,15.319c-.2.248.694.892.743,2.279s-.5,1.189-.644,2.526-.248,1.833.4,2.378a1.882,1.882,0,0,0,1.833.2c1.337-.5,2.081-2.576,1.684-4.211-.594-2.477-3.666-3.567-4.013-3.17" transform="translate(-150.855 -7.69)" fill="#d2dea1"/>
          <path id="Path_101301" data-name="Path 101301" d="M293.314,18.5c.3-.05.446,1.04,1.585,1.783s1.238.2,2.427.793,1.635.743,1.783,1.585a1.783,1.783,0,0,1-.694,1.684c-1.09.892-3.121.4-4.31-.793s-1.288-4.9-.793-5" transform="translate(-147.873 -9.334)" fill="#bcce72"/>
          <path id="Path_101302" data-name="Path 101302" d="M299.144,19.48a.4.4,0,0,0-.347.05.447.447,0,0,0,.1.793c.2.05.4-.149.446-.3a.5.5,0,0,0-.149-.545" transform="translate(-150.682 -9.82)" fill="#fff"/>
          <path id="Path_101303" data-name="Path 101303" d="M296.6,20.936a.347.347,0,0,1,.2-.3.429.429,0,0,1,.644.446.4.4,0,0,1-.446.2.5.5,0,0,1-.4-.4" transform="translate(-149.673 -10.385)" fill="#fff"/>
          <path id="Path_101304" data-name="Path 101304" d="M297.466,21.145a.149.149,0,0,1,.149-.05.2.2,0,0,1,.149.149.248.248,0,0,1-.05.248.2.2,0,0,1-.248-.05.248.248,0,0,1,0-.248" transform="translate(-150.093 -10.644)" fill="#051c22"/>
          <path id="Path_101305" data-name="Path 101305" d="M299.166,20.145a.149.149,0,0,1,.149-.05.2.2,0,0,1,.149.149.248.248,0,0,1-.05.248.2.2,0,0,1-.248-.05.248.248,0,0,1,0-.248" transform="translate(-150.951 -10.139)" fill="#051c22"/>
          <path id="Path_101306" data-name="Path 101306" d="M417.093,59.841a2.625,2.625,0,0,0,1.932.5c2.081-.248,4.211-2.625,4.112-4.557a1.783,1.783,0,0,0-.545-1.387c-.991-.793-2.972.2-3.369.4s-2.923,1.486-2.923,3.369a2.229,2.229,0,0,0,.793,1.684" transform="translate(-210.077 -27.295)" fill="#e6a69c"/>
          <path id="Path_101307" data-name="Path 101307" d="M422.939,58.685c-.248-.149-.793.842-2.13,1.09s-1.238-.3-2.625-.2-1.833.1-2.279.793A1.882,1.882,0,0,0,416,62.2c.743,1.238,2.873,1.585,4.409.941,2.328-.991,2.923-4.211,2.477-4.458" transform="translate(-209.781 -29.606)" fill="#d2dea1"/>
          <path id="Path_101308" data-name="Path 101308" d="M420.771,53.768c.1.3-.991.594-1.486,1.833s0,1.238-.347,2.526-.5,1.734-1.238,2.031a1.833,1.833,0,0,1-1.734-.4c-1.04-.892-.892-3.022.05-4.359s4.656-2.081,4.805-1.635" transform="translate(-209.546 -27.067)" fill="#bcce72"/>
          <path id="Path_101309" data-name="Path 101309" d="M425.392,59.583a.4.4,0,0,0-.1-.347.457.457,0,0,0-.793.2.383.383,0,0,0,.4.347.5.5,0,0,0,.5-.248" transform="translate(-214.215 -29.811)" fill="#fff"/>
          <path id="Path_101310" data-name="Path 101310" d="M423.7,57.25a.347.347,0,0,1,.3.149.433.433,0,0,1-.4.694c-.2,0-.3-.248-.3-.446a.5.5,0,0,1,.347-.446" transform="translate(-213.61 -28.865)" fill="#fff"/>
          <path id="Path_101311" data-name="Path 101311" d="M423.973,58.086a.149.149,0,0,1,.05.149.2.2,0,0,1-.1.2.248.248,0,0,1-.248-.05.2.2,0,0,1,.05-.248.248.248,0,0,1,.248-.05" transform="translate(-213.787 -29.305)" fill="#051c22"/>
          <path id="Path_101312" data-name="Path 101312" d="M425.273,59.686a.149.149,0,0,1,.05.149.2.2,0,0,1-.1.2.248.248,0,0,1-.248-.05.2.2,0,0,1,.05-.248.248.248,0,0,1,.248-.05" transform="translate(-214.443 -30.112)" fill="#051c22"/>
          <path id="Path_101313" data-name="Path 101313" d="M248.636,49.865a2.626,2.626,0,0,0,.2-1.981,5.178,5.178,0,0,0-5.053-3.517,1.783,1.783,0,0,0-1.288.743c-.694,1.09.594,2.923.842,3.319s1.882,2.675,3.765,2.477a2.229,2.229,0,0,0,1.536-.991" transform="translate(-122.267 -22.372)" fill="#e6a69c"/>
          <path id="Path_101314" data-name="Path 101314" d="M246.586,43.843c-.149.3.941.644,1.338,1.932s-.1,1.288.149,2.625.3,1.783,1.09,2.13a1.882,1.882,0,0,0,1.833-.347c1.139-.892,1.189-3.071.347-4.508-1.288-2.18-4.557-2.328-4.756-1.882" transform="translate(-124.428 -21.997)" fill="#d2dea1"/>
          <path id="Path_101315" data-name="Path 101315" d="M242.168,48.685c.248-.149.694.892,2.031,1.238s1.238-.149,2.576,0,1.783.248,2.18.991a1.783,1.783,0,0,1-.149,1.783c-.743,1.139-2.873,1.288-4.359.545-2.229-1.189-2.675-4.31-2.279-4.557" transform="translate(-122.14 -24.561)" fill="#bcce72"/>
          <path id="Path_101316" data-name="Path 101316" d="M248.023,47.9a.4.4,0,0,0-.347.149.439.439,0,0,0,.3.743c.2,0,.3-.248.3-.4a.5.5,0,0,0-.3-.446" transform="translate(-124.923 -24.17)" fill="#fff"/>
          <path id="Path_101317" data-name="Path 101317" d="M245.95,50.023a.347.347,0,0,1,.1-.347.439.439,0,0,1,.743.3.383.383,0,0,1-.4.347.5.5,0,0,1-.5-.248" transform="translate(-124.088 -25.007)" fill="#fff"/>
          <path id="Path_101318" data-name="Path 101318" d="M246.8,50a.149.149,0,0,1,.149-.1.2.2,0,0,1,.2.1.248.248,0,0,1,0,.248.2.2,0,0,1-.248,0,.248.248,0,0,1-.1-.248" transform="translate(-124.538 -25.179)" fill="#051c22"/>
          <path id="Path_101319" data-name="Path 101319" d="M248.2,48.6a.149.149,0,0,1,.149-.1.2.2,0,0,1,.2.1.248.248,0,0,1,0,.248.2.2,0,0,1-.248,0,.248.248,0,0,1-.1-.248" transform="translate(-125.245 -24.473)" fill="#051c22"/>
          <path id="Path_101320" data-name="Path 101320" d="M443.07,166.242a2.626,2.626,0,0,0,.149,1.981,5.107,5.107,0,0,0,5.6,2.526,1.783,1.783,0,0,0,1.139-.941c.446-1.189-1.09-2.774-1.437-3.071s-2.328-2.279-4.112-1.734a2.229,2.229,0,0,0-1.338,1.238" transform="translate(-223.522 -83.218)" fill="#e6a69c"/>
          <path id="Path_101321" data-name="Path 101321" d="M447.524,170.919c.1-.3-1.04-.446-1.684-1.684s-.1-1.288-.594-2.526-.644-1.734-1.486-1.932a1.882,1.882,0,0,0-1.734.644c-.941,1.09-.644,3.269.446,4.508s4.9,1.486,5,.991" transform="translate(-222.775 -83.139)" fill="#d2dea1"/>
          <path id="Path_101322" data-name="Path 101322" d="M449.465,167.72c-.248.2-.842-.743-2.229-.842s-1.189.4-2.526.446-1.783.1-2.328-.545a1.833,1.833,0,0,1-.149-1.783c.545-1.288,2.576-1.783,4.161-1.288,2.427.743,3.418,3.765,3.022,4.062" transform="translate(-223.081 -82.516)" fill="#bcce72"/>
          <path id="Path_101323" data-name="Path 101323" d="M450.789,172.936a.4.4,0,0,0,.3-.2.429.429,0,0,0-.446-.644.4.4,0,0,0-.248.446c.05.2.2.4.4.4" transform="translate(-227.278 -86.841)" fill="#fff"/>
          <path id="Path_101324" data-name="Path 101324" d="M452.234,170.74a.347.347,0,0,1-.05.347.447.447,0,0,1-.793-.1c-.05-.2.149-.347.3-.4a.5.5,0,0,1,.5.2" transform="translate(-227.782 -86.081)" fill="#fff"/>
          <path id="Path_101325" data-name="Path 101325" d="M451.982,171.024a.149.149,0,0,1-.149.1.2.2,0,0,1-.2-.05.248.248,0,0,1-.05-.248.2.2,0,0,1,.248-.05.248.248,0,0,1,.149.248" transform="translate(-227.876 -86.167)" fill="#051c22"/>
          <path id="Path_101326" data-name="Path 101326" d="M450.882,172.724a.149.149,0,0,1-.149.1.2.2,0,0,1-.2-.05.248.248,0,0,1-.05-.248.2.2,0,0,1,.248-.05.248.248,0,0,1,.149.248" transform="translate(-227.321 -87.024)" fill="#051c22"/>
          <path id="Path_101327" data-name="Path 101327" d="M374.889,207.855a2.625,2.625,0,0,0,.2,1.981,5.175,5.175,0,0,0,5.7,2.328,1.783,1.783,0,0,0,1.09-.991c.446-1.238-1.189-2.725-1.536-3.022s-2.427-2.229-4.211-1.585a2.229,2.229,0,0,0-1.288,1.288" transform="translate(-189.125 -104.174)" fill="#e6a69c"/>
          <path id="Path_101328" data-name="Path 101328" d="M379.461,212.33c.05-.3-1.04-.446-1.734-1.635s-.149-1.288-.694-2.526-.693-1.684-1.536-1.882a1.882,1.882,0,0,0-1.734.743c-.941,1.139-.545,3.269.594,4.508s4.9,1.288,5.053.793" transform="translate(-188.347 -104.091)" fill="#d2dea1"/>
          <path id="Path_101329" data-name="Path 101329" d="M381.445,208.913c-.2.2-.892-.694-2.229-.793s-1.189.4-2.477.545-1.783.149-2.328-.5a1.783,1.783,0,0,1-.248-1.783c.5-1.288,2.526-1.882,4.161-1.437,2.427.694,3.517,3.666,3.17,3.963" transform="translate(-188.746 -103.35)" fill="#bcce72"/>
          <path id="Path_101330" data-name="Path 101330" d="M382.821,214.336a.4.4,0,0,0,.3-.2.429.429,0,0,0-.446-.644.4.4,0,0,0-.2.5c.05.2.2.4.4.4" transform="translate(-192.995 -107.733)" fill="#fff"/>
          <path id="Path_101331" data-name="Path 101331" d="M384.134,212.02a.347.347,0,0,1-.05.347.446.446,0,0,1-.793-.1c-.05-.2.149-.347.3-.4a.5.5,0,0,1,.545.149" transform="translate(-193.417 -106.902)" fill="#fff"/>
          <path id="Path_101332" data-name="Path 101332" d="M383.932,212.424a.1.1,0,0,1-.1.1.2.2,0,0,1-.2-.05.248.248,0,0,1-.05-.248.2.2,0,0,1,.248-.05.248.248,0,0,1,.149.248" transform="translate(-193.562 -107.058)" fill="#051c22"/>
          <path id="Path_101333" data-name="Path 101333" d="M382.932,214.124a.149.149,0,0,1-.1.1.2.2,0,0,1-.2-.05.248.248,0,0,1-.05-.248.2.2,0,0,1,.248-.05.248.248,0,0,1,.149.248" transform="translate(-193.057 -107.916)" fill="#051c22"/>
          <path id="Path_101334" data-name="Path 101334" d="M438.357,76.384a2.427,2.427,0,0,0,1.635-.842,4.688,4.688,0,0,0,.149-5.6,1.635,1.635,0,0,0-1.189-.644c-1.189.05-1.932,1.932-2.081,2.279s-1.09,2.774,0,4.112a2.031,2.031,0,0,0,1.536.694" transform="translate(-220.196 -34.971)" fill="#ffe485"/>
          <path id="Path_101335" data-name="Path 101335" d="M440.78,71.4c-.3.05-.05,1.04-.793,2.031s-1.04.545-1.932,1.387-1.238,1.139-1.09,1.932a1.734,1.734,0,0,0,1.189,1.238c1.238.446,2.972-.644,3.616-1.981s-.5-4.656-.941-4.557" transform="translate(-220.489 -36.031)" fill="#d2dea1"/>
          <path id="Path_101336" data-name="Path 101336" d="M436.708,70.5c.248.149-.3.991.05,2.18s.743.842,1.288,1.981.693,1.486.347,2.18a1.635,1.635,0,0,1-1.437.793c-1.238,0-2.427-1.536-2.576-3.071-.248-2.279,1.932-4.211,2.328-4.012" transform="translate(-219.191 -35.576)" fill="#bcce72"/>
          <path id="Path_101337" data-name="Path 101337" d="M442.037,74.594a.347.347,0,0,0-.3-.2.4.4,0,0,0-.4.594.347.347,0,0,0,.5.05.446.446,0,0,0,.2-.446" transform="translate(-222.687 -37.54)" fill="#fff"/>
          <path id="Path_101338" data-name="Path 101338" d="M439.5,74.1a.347.347,0,0,1,.3-.1.381.381,0,0,1,.149.694.347.347,0,0,1-.446-.149.446.446,0,0,1-.05-.5" transform="translate(-221.731 -37.339)" fill="#fff"/>
          <path id="Path_101339" data-name="Path 101339" d="M440.148,74.55a.149.149,0,0,1,.149.05.17.17,0,0,1-.149.3c-.1,0-.149-.1-.149-.2a.2.2,0,0,1,.149-.2" transform="translate(-222.037 -37.595)" fill="#051c22"/>
          <path id="Path_101340" data-name="Path 101340" d="M441.948,74.85a.149.149,0,0,1,.149.05.17.17,0,0,1-.149.3c-.1,0-.149-.1-.149-.2a.2.2,0,0,1,.149-.2" transform="translate(-222.945 -37.746)" fill="#051c22"/>
          <path id="Path_101341" data-name="Path 101341" d="M441.891,118.219a2.427,2.427,0,0,0,.941,1.585,4.668,4.668,0,0,0,5.6-.3,1.635,1.635,0,0,0,.545-1.238c-.149-1.189-2.081-1.783-2.477-1.932s-2.873-.892-4.062.347a2.031,2.031,0,0,0-.545,1.585" transform="translate(-222.987 -58.527)" fill="#ffe485"/>
          <path id="Path_101342" data-name="Path 101342" d="M447.425,120.258c-.049-.3-1.04.05-2.081-.644s-.644-.991-1.585-1.833-1.238-1.139-1.982-.941a1.734,1.734,0,0,0-1.139,1.288c-.347,1.288.842,2.923,2.279,3.468s4.557-.892,4.508-1.337" transform="translate(-222.328 -58.931)" fill="#d2dea1"/>
          <path id="Path_101343" data-name="Path 101343" d="M447.78,116.13c-.1.248-1.04-.248-2.13.248s-.793.793-1.833,1.437-1.437.842-2.13.545a1.635,1.635,0,0,1-.892-1.387c-.1-1.238,1.338-2.526,2.824-2.824,2.279-.4,4.359,1.635,4.161,2.031" transform="translate(-222.436 -57.577)" fill="#bcce72"/>
          <path id="Path_101344" data-name="Path 101344" d="M450.289,121.474a.347.347,0,0,0,.149-.3.421.421,0,0,0-.644-.347.347.347,0,0,0,0,.5.446.446,0,0,0,.5.149" transform="translate(-226.927 -60.94)" fill="#fff"/>
          <path id="Path_101345" data-name="Path 101345" d="M450.551,118.913a.347.347,0,0,1,.1.3.406.406,0,0,1-.694.2.347.347,0,0,1,.1-.446.446.446,0,0,1,.5-.1" transform="translate(-227.04 -59.964)" fill="#fff"/>
          <path id="Path_101346" data-name="Path 101346" d="M450.4,119.449a.148.148,0,0,1-.05.149.2.2,0,0,1-.347-.149c0-.1.1-.149.2-.149a.2.2,0,0,1,.2.149" transform="translate(-227.083 -60.202)" fill="#051c22"/>
          <path id="Path_101347" data-name="Path 101347" d="M450.3,121.249a.149.149,0,0,1-.05.149.2.2,0,0,1-.347-.149c0-.1.1-.149.2-.149a.2.2,0,0,1,.2.149" transform="translate(-227.033 -61.111)" fill="#051c22"/>
          <path id="Path_101348" data-name="Path 101348" d="M384.7,31.452a2.427,2.427,0,0,0,1.833-.1,4.615,4.615,0,0,0,2.378-5.1,1.635,1.635,0,0,0-.842-1.04c-1.09-.446-2.526.941-2.824,1.238s-2.13,2.081-1.635,3.765a2.031,2.031,0,0,0,1.139,1.238" transform="translate(-193.54 -12.678)" fill="#ffe485"/>
          <path id="Path_101349" data-name="Path 101349" d="M389.027,28.493c-.248-.1-.446.941-1.536,1.536s-1.189.1-2.328.5-1.585.545-1.783,1.288a1.734,1.734,0,0,0,.594,1.585c.991.892,2.972.644,4.112-.347s1.437-4.458.991-4.557" transform="translate(-193.455 -14.375)" fill="#d2dea1"/>
          <path id="Path_101350" data-name="Path 101350" d="M386.091,25.276c.149.2-.694.793-.793,2.031s.347,1.09.347,2.328.05,1.635-.545,2.13a1.635,1.635,0,0,1-1.635.149c-1.139-.5-1.585-2.378-1.139-3.864.743-2.18,3.468-3.071,3.765-2.725" transform="translate(-192.847 -12.744)" fill="#bcce72"/>
          <path id="Path_101351" data-name="Path 101351" d="M390.889,30.443a.347.347,0,0,0-.2-.3.4.4,0,0,0-.594.4.347.347,0,0,0,.446.2c.149-.05.347-.149.347-.347" transform="translate(-196.853 -15.186)" fill="#fff"/>
          <path id="Path_101352" data-name="Path 101352" d="M388.786,28.986a.347.347,0,0,1,.3.05.4.4,0,0,1-.149.694.3.3,0,0,1-.347-.3.446.446,0,0,1,.149-.446" transform="translate(-196.087 -14.62)" fill="#fff"/>
          <path id="Path_101353" data-name="Path 101353" d="M389.279,29.6a.149.149,0,0,1,.1.1.2.2,0,0,1-.05.2h-.2a.149.149,0,0,1-.05-.2.2.2,0,0,1,.2-.1" transform="translate(-196.332 -14.935)" fill="#051c22"/>
          <path id="Path_101354" data-name="Path 101354" d="M390.779,30.6a.149.149,0,0,1,.1.1.2.2,0,0,1-.05.2h-.2a.149.149,0,0,1-.049-.2.2.2,0,0,1,.2-.1" transform="translate(-197.089 -15.44)" fill="#051c22"/>
          <path id="Path_101355" data-name="Path 101355" d="M386.911,96.2a2.427,2.427,0,0,0,1.783-.347,4.768,4.768,0,0,0,1.734-5.35,1.635,1.635,0,0,0-.991-.941c-1.139-.3-2.427,1.288-2.675,1.585s-1.833,2.378-1.139,3.913a2.031,2.031,0,0,0,1.288,1.09" transform="translate(-194.509 -45.177)" fill="#ffe485"/>
          <path id="Path_101356" data-name="Path 101356" d="M390.7,92.45c-.3-.05-.3.991-1.338,1.684s-1.139.248-2.279.793-1.486.743-1.585,1.536a1.734,1.734,0,0,0,.793,1.486c1.09.743,3.022.248,4.062-.892s.842-4.607.4-4.656" transform="translate(-194.534 -46.628)" fill="#d2dea1"/>
          <path id="Path_101357" data-name="Path 101357" d="M387.4,89.954c.2.2-.594.842-.545,2.081s.446,1.04.644,2.229.248,1.635-.3,2.18a1.635,1.635,0,0,1-1.585.347c-1.189-.347-1.882-2.18-1.585-3.666.446-2.279,3.071-3.468,3.368-3.17" transform="translate(-193.758 -45.371)" fill="#bcce72"/>
          <path id="Path_101358" data-name="Path 101358" d="M392.423,94.815c0-.149-.2-.248-.2-.248a.408.408,0,0,0-.545.5.347.347,0,0,0,.446.149.446.446,0,0,0,.347-.4" transform="translate(-197.644 -47.705)" fill="#fff"/>
          <path id="Path_101359" data-name="Path 101359" d="M390.162,93.653a.347.347,0,0,1,.347,0,.423.423,0,0,1-.05.743.341.341,0,0,1-.4-.248.446.446,0,0,1,.1-.5" transform="translate(-196.819 -47.236)" fill="#fff"/>
          <path id="Path_101360" data-name="Path 101360" d="M390.579,94.249a.149.149,0,0,1,.1.1.2.2,0,0,1-.05.2h-.2a.149.149,0,0,1-.05-.2.2.2,0,0,1,.2-.149" transform="translate(-196.988 -47.536)" fill="#051c22"/>
          <path id="Path_101361" data-name="Path 101361" d="M392.279,95.049a.149.149,0,0,1,.1.1.2.2,0,0,1-.05.2h-.2a.149.149,0,0,1-.049-.2.2.2,0,0,1,.2-.149" transform="translate(-197.846 -47.94)" fill="#051c22"/>
          <path id="Path_101362" data-name="Path 101362" d="M195.557,107.084a2.427,2.427,0,0,0,1.635-.842,4.688,4.688,0,0,0,.149-5.6,1.635,1.635,0,0,0-1.189-.644c-1.189.05-1.932,1.932-2.081,2.279s-1.09,2.774,0,4.112a2.031,2.031,0,0,0,1.536.694" transform="translate(-97.672 -50.463)" fill="#ffe485"/>
          <path id="Path_101363" data-name="Path 101363" d="M198.08,102c-.3.05-.05,1.04-.793,2.031s-1.04.545-1.932,1.387-1.238,1.139-1.09,1.932a1.734,1.734,0,0,0,1.189,1.238c1.238.446,2.972-.644,3.616-1.981s-.5-4.656-.941-4.557" transform="translate(-98.016 -51.472)" fill="#d2dea1"/>
          <path id="Path_101364" data-name="Path 101364" d="M194.008,101.1c.248.149-.3.991.05,2.18s.743.842,1.288,1.981.694,1.486.347,2.18a1.635,1.635,0,0,1-1.437.793c-1.238,0-2.427-1.536-2.576-3.071-.248-2.279,1.932-4.211,2.328-4.012" transform="translate(-96.718 -51.018)" fill="#bcce72"/>
          <path id="Path_101365" data-name="Path 101365" d="M199.337,105.194a.347.347,0,0,0-.3-.2.4.4,0,0,0-.4.594.347.347,0,0,0,.5.05.446.446,0,0,0,.2-.446" transform="translate(-100.214 -52.982)" fill="#fff"/>
          <path id="Path_101366" data-name="Path 101366" d="M196.8,104.7a.347.347,0,0,1,.3-.1.381.381,0,0,1,.149.694.347.347,0,0,1-.446-.149.446.446,0,0,1-.05-.5" transform="translate(-99.257 -52.78)" fill="#fff"/>
          <path id="Path_101367" data-name="Path 101367" d="M197.349,105.15a.149.149,0,0,1,.149.05.17.17,0,0,1-.149.3c-.1,0-.149-.1-.149-.2a.2.2,0,0,1,.149-.2" transform="translate(-99.513 -53.037)" fill="#051c22"/>
          <path id="Path_101368" data-name="Path 101368" d="M199.149,105.45a.149.149,0,0,1,.149.05.17.17,0,0,1-.149.3c-.1,0-.149-.1-.149-.2a.2.2,0,0,1,.149-.2" transform="translate(-100.421 -53.188)" fill="#051c22"/>
          <path id="Path_101369" data-name="Path 101369" d="M270.755,130.471a2.427,2.427,0,0,0-.1-1.833,4.712,4.712,0,0,0-5.1-2.378,1.635,1.635,0,0,0-1.04.842c-.446,1.09.991,2.526,1.238,2.824s2.13,2.13,3.765,1.635a2.031,2.031,0,0,0,1.238-1.139" transform="translate(-133.438 -63.646)" fill="#ffe485"/>
          <path id="Path_101370" data-name="Path 101370" d="M267.793,125.787c-.1.248.941.446,1.536,1.536s.1,1.189.5,2.328.545,1.585,1.338,1.783a1.734,1.734,0,0,0,1.585-.594c.892-.991.594-2.972-.4-4.112s-4.458-1.387-4.557-.941" transform="translate(-135.133 -63.371)" fill="#d2dea1"/>
          <path id="Path_101371" data-name="Path 101371" d="M264.676,130.65c.2-.149.793.694,2.031.793s1.09-.347,2.279-.4,1.635-.05,2.13.545a1.635,1.635,0,0,1,.149,1.635c-.5,1.139-2.378,1.585-3.814,1.139-2.18-.694-3.071-3.468-2.725-3.765" transform="translate(-133.552 -65.905)" fill="#bcce72"/>
          <path id="Path_101372" data-name="Path 101372" d="M269.743,129.1a.347.347,0,0,0-.3.2.4.4,0,0,0,.4.594.347.347,0,0,0,.2-.446c-.049-.149-.149-.347-.347-.347" transform="translate(-135.944 -65.148)" fill="#fff"/>
          <path id="Path_101373" data-name="Path 101373" d="M268.286,131.344a.347.347,0,0,1,.05-.3.4.4,0,0,1,.694.149.3.3,0,0,1-.3.347.446.446,0,0,1-.446-.149" transform="translate(-135.378 -66.054)" fill="#fff"/>
          <path id="Path_101374" data-name="Path 101374" d="M268.9,131.29a.149.149,0,0,1,.1-.1.2.2,0,0,1,.248.248.149.149,0,0,1-.2.05.2.2,0,0,1-.1-.2" transform="translate(-135.695 -66.199)" fill="#051c22"/>
          <path id="Path_101375" data-name="Path 101375" d="M269.9,129.79a.149.149,0,0,1,.1-.1.2.2,0,0,1,.248.248.149.149,0,0,1-.2.05.2.2,0,0,1-.1-.2" transform="translate(-136.2 -65.442)" fill="#051c22"/>
          <path id="Path_101376" data-name="Path 101376" d="M303.625,47.847a2.427,2.427,0,0,0,1.337-1.238,4.683,4.683,0,0,0-1.387-5.449,1.635,1.635,0,0,0-1.337-.3c-1.139.347-1.338,2.378-1.387,2.774s-.3,2.972,1.09,3.963a2.031,2.031,0,0,0,1.635.248" transform="translate(-151.794 -20.601)" fill="#ffe485"/>
          <path id="Path_101377" data-name="Path 101377" d="M304.941,42c-.248.1.248.991-.248,2.18s-.842.793-1.486,1.882-.842,1.437-.545,2.13a1.734,1.734,0,0,0,1.437.892c1.337.05,2.675-1.387,2.972-2.873.4-2.279-1.734-4.31-2.13-4.161" transform="translate(-152.664 -21.194)" fill="#d2dea1"/>
          <path id="Path_101378" data-name="Path 101378" d="M300.454,42.6c.248.05-.049,1.04.644,2.081s.941.644,1.734,1.536,1.09,1.238.941,1.981a1.635,1.635,0,0,1-1.189,1.139c-1.238.347-2.774-.842-3.319-2.229s.743-4.557,1.189-4.508" transform="translate(-150.951 -21.497)" fill="#bcce72"/>
          <path id="Path_101379" data-name="Path 101379" d="M305.753,45.7a.347.347,0,0,0-.3-.1.4.4,0,0,0-.2.694.347.347,0,0,0,.446-.1.446.446,0,0,0,.05-.5" transform="translate(-153.972 -23.007)" fill="#fff"/>
          <path id="Path_101380" data-name="Path 101380" d="M303.2,45.948a.347.347,0,0,1,.3-.149.421.421,0,0,1,.347.644.347.347,0,0,1-.446,0A.446.446,0,0,1,303.25,46" transform="translate(-153.004 -23.112)" fill="#fff"/>
          <path id="Path_101381" data-name="Path 101381" d="M303.937,46.25h.149a.185.185,0,0,1-.05.347.131.131,0,0,1-.149-.149.2.2,0,0,1,.1-.248" transform="translate(-153.344 -23.314)" fill="#051c22"/>
          <path id="Path_101382" data-name="Path 101382" d="M305.737,46.05h.149a.185.185,0,0,1-.049.347.131.131,0,0,1-.149-.149.2.2,0,0,1,.1-.248" transform="translate(-154.252 -23.213)" fill="#051c22"/>
          <path id="Path_101383" data-name="Path 101383" d="M320.653,19.82a2.378,2.378,0,0,0,1.783-.446,4.685,4.685,0,0,0,1.387-5.4,1.635,1.635,0,0,0-1.04-.892c-1.139-.2-2.328,1.437-2.526,1.734s-1.684,2.477-.892,3.963a2.031,2.031,0,0,0,1.337.991" transform="translate(-161.044 -6.594)" fill="#b4deec"/>
          <path id="Path_101384" data-name="Path 101384" d="M324.1,15.8c-.3-.05-.248.991-1.238,1.783s-1.139.3-2.18.941-1.437.842-1.486,1.635a1.734,1.734,0,0,0,.842,1.437c1.139.694,3.022.05,3.963-1.139s.545-4.607.1-4.656" transform="translate(-161.078 -7.971)" fill="#d2dea1"/>
          <path id="Path_101385" data-name="Path 101385" d="M320.639,13.6c.2.149-.545.892-.4,2.13s.545.991.793,2.18.347,1.585-.149,2.18a1.635,1.635,0,0,1-1.585.446c-1.238-.3-2.031-2.031-1.833-3.517.3-2.279,2.824-3.666,3.17-3.369" transform="translate(-160.189 -6.863)" fill="#bcce72"/>
          <path id="Path_101386" data-name="Path 101386" d="M325.712,18.315c0-.149-.2-.248-.248-.248a.372.372,0,0,0-.5.5.347.347,0,0,0,.446.149.446.446,0,0,0,.3-.4" transform="translate(-163.973 -9.101)" fill="#fff"/>
          <path id="Path_101387" data-name="Path 101387" d="M323.413,17.353a.347.347,0,0,1,.347,0,.4.4,0,0,1,0,.743.347.347,0,0,1-.4-.2.446.446,0,0,1,.1-.5" transform="translate(-163.16 -8.733)" fill="#fff"/>
          <path id="Path_101388" data-name="Path 101388" d="M323.938,17.9a.149.149,0,0,1,.149.1.2.2,0,0,1-.2.3.149.149,0,0,1-.1-.2.2.2,0,0,1,.2-.149" transform="translate(-163.388 -9.033)" fill="#051c22"/>
          <path id="Path_101389" data-name="Path 101389" d="M325.538,18.6a.149.149,0,0,1,.149.1.2.2,0,0,1-.2.3.149.149,0,0,1-.1-.2.2.2,0,0,1,.2-.149" transform="translate(-164.196 -9.386)" fill="#051c22"/>
          <path id="Path_101390" data-name="Path 101390" d="M243.446,72.5a2.378,2.378,0,0,0,.4-1.783,4.672,4.672,0,0,0-4.26-3.616,1.635,1.635,0,0,0-1.238.545c-.694.941.248,2.675.446,3.071s1.437,2.576,3.17,2.576a2.031,2.031,0,0,0,1.486-.743" transform="translate(-120.149 -33.857)" fill="#b4deec"/>
          <path id="Path_101391" data-name="Path 101391" d="M242.184,66.868c-.149.248.793.694,1.04,1.882s-.2,1.139-.1,2.378.149,1.684.793,2.031a1.734,1.734,0,0,0,1.684-.149c1.139-.694,1.387-2.675.743-4.062s-3.913-2.526-4.112-2.13" transform="translate(-122.205 -33.679)" fill="#d2dea1"/>
          <path id="Path_101392" data-name="Path 101392" d="M237.846,70.693c.248-.1.545.842,1.734,1.288s1.139-.05,2.328.248,1.585.4,1.882,1.09a1.635,1.635,0,0,1-.3,1.585c-.793.991-2.725.892-3.963.1s-2.031-4.161-1.635-4.31" transform="translate(-119.997 -35.67)" fill="#bcce72"/>
          <path id="Path_101393" data-name="Path 101393" d="M243.055,70.5a.347.347,0,0,0-.3.1.4.4,0,0,0,.2.694c.2,0,.3-.2.347-.347a.446.446,0,0,0-.248-.446" transform="translate(-122.433 -35.573)" fill="#fff"/>
          <path id="Path_101394" data-name="Path 101394" d="M241.1,72.314a.347.347,0,0,1,.149-.3.4.4,0,0,1,.644.347c0,.2-.2.248-.4.248a.446.446,0,0,1-.4-.3" transform="translate(-121.666 -36.301)" fill="#fff"/>
          <path id="Path_101395" data-name="Path 101395" d="M241.8,72.345a.149.149,0,0,1,.149-.05.2.2,0,0,1,.149.3.149.149,0,0,1-.2,0,.2.2,0,0,1-.05-.248" transform="translate(-122.019 -36.481)" fill="#051c22"/>
          <path id="Path_101396" data-name="Path 101396" d="M243.2,71.145a.149.149,0,0,1,.149-.05.2.2,0,0,1,.149.3.149.149,0,0,1-.2,0,.2.2,0,0,1-.05-.248" transform="translate(-122.726 -35.875)" fill="#051c22"/>
          <path id="Path_101397" data-name="Path 101397" d="M357.336,103.6a2.378,2.378,0,0,0,1.783-.3A4.628,4.628,0,0,0,360.9,98a1.635,1.635,0,0,0-.941-.941c-1.139-.3-2.427,1.238-2.675,1.536s-1.882,2.328-1.238,3.864a2.031,2.031,0,0,0,1.238,1.09" transform="translate(-179.597 -48.961)" fill="#b4deec"/>
          <path id="Path_101398" data-name="Path 101398" d="M361.2,100c-.3-.05-.347.991-1.387,1.684s-1.139.2-2.279.743-1.486.743-1.635,1.486a1.734,1.734,0,0,0,.743,1.536c1.04.793,2.972.3,4.012-.793s.892-4.557.446-4.607" transform="translate(-179.594 -50.461)" fill="#d2dea1"/>
          <path id="Path_101399" data-name="Path 101399" d="M358.045,97.354c.2.2-.594.842-.594,2.081s.446,1.04.594,2.229.248,1.635-.3,2.18a1.635,1.635,0,0,1-1.585.3c-1.189-.4-1.833-2.18-1.536-3.666.5-2.229,3.121-3.418,3.418-3.121" transform="translate(-178.919 -49.105)" fill="#bcce72"/>
          <path id="Path_101400" data-name="Path 101400" d="M363.023,102.315c0-.149-.2-.248-.2-.248a.408.408,0,0,0-.545.5.347.347,0,0,0,.446.149.446.446,0,0,0,.347-.347" transform="translate(-182.808 -51.49)" fill="#fff"/>
          <path id="Path_101401" data-name="Path 101401" d="M360.762,101.05a.347.347,0,0,1,.347,0,.383.383,0,0,1-.05.694.341.341,0,0,1-.4-.248.446.446,0,0,1,.1-.5" transform="translate(-181.983 -50.968)" fill="#fff"/>
          <path id="Path_101402" data-name="Path 101402" d="M361.179,101.649a.149.149,0,0,1,.1.1.2.2,0,0,1-.05.2h-.2a.149.149,0,0,1-.05-.2.2.2,0,0,1,.2-.149" transform="translate(-182.152 -51.27)" fill="#051c22"/>
          <path id="Path_101403" data-name="Path 101403" d="M362.779,102.449a.149.149,0,0,1,.1.1.2.2,0,0,1-.05.2h-.2a.149.149,0,0,1-.05-.2.2.2,0,0,1,.2-.149" transform="translate(-182.959 -51.674)" fill="#051c22"/>
          <path id="Path_101404" data-name="Path 101404" d="M214.653,117.62a2.378,2.378,0,0,0,1.783-.446,4.685,4.685,0,0,0,1.387-5.4,1.635,1.635,0,0,0-1.04-.892c-1.139-.2-2.328,1.437-2.526,1.734s-1.684,2.477-.892,3.963a2.031,2.031,0,0,0,1.338.991" transform="translate(-107.554 -55.947)" fill="#b4deec"/>
          <path id="Path_101405" data-name="Path 101405" d="M218.1,113.6c-.3-.05-.248.991-1.238,1.783s-1.139.3-2.18.941-1.437.842-1.486,1.635a1.734,1.734,0,0,0,.842,1.437c1.139.694,3.022.05,3.963-1.139s.545-4.607.1-4.656" transform="translate(-107.587 -57.324)" fill="#d2dea1"/>
          <path id="Path_101406" data-name="Path 101406" d="M214.639,111.5c.2.149-.545.892-.4,2.13s.545.991.793,2.18.347,1.585-.149,2.18a1.635,1.635,0,0,1-1.585.446c-1.238-.3-2.031-2.031-1.833-3.517.3-2.279,2.824-3.666,3.17-3.369" transform="translate(-106.698 -56.266)" fill="#bcce72"/>
          <path id="Path_101407" data-name="Path 101407" d="M219.712,116.115c0-.149-.2-.248-.248-.248a.372.372,0,0,0-.5.5.347.347,0,0,0,.446.149.446.446,0,0,0,.3-.4" transform="translate(-110.483 -58.454)" fill="#fff"/>
          <path id="Path_101408" data-name="Path 101408" d="M217.413,115.153a.347.347,0,0,1,.347,0,.4.4,0,0,1,0,.743.347.347,0,0,1-.4-.2.446.446,0,0,1,.1-.5" transform="translate(-109.67 -58.086)" fill="#fff"/>
          <path id="Path_101409" data-name="Path 101409" d="M217.887,115.8a.149.149,0,0,1,.1.1.2.2,0,0,1-.2.3.149.149,0,0,1-.1-.2.2.2,0,0,1,.2-.149" transform="translate(-109.847 -58.436)" fill="#051c22"/>
          <path id="Path_101410" data-name="Path 101410" d="M219.487,116.5a.149.149,0,0,1,.1.1.2.2,0,0,1-.2.3.149.149,0,0,1-.1-.2.2.2,0,0,1,.2-.149" transform="translate(-110.655 -58.789)" fill="#051c22"/>
          <path id="Path_101411" data-name="Path 101411" d="M403.239,155.72a2.378,2.378,0,0,0,.3,1.783,4.682,4.682,0,0,0,5.251,1.882,1.635,1.635,0,0,0,.941-.941c.347-1.139-1.189-2.427-1.536-2.675s-2.279-1.932-3.864-1.238a2.031,2.031,0,0,0-1.139,1.238" transform="translate(-203.456 -77.897)" fill="#b4deec"/>
          <path id="Path_101412" data-name="Path 101412" d="M407.489,159.6c.05-.3-.991-.347-1.635-1.387s-.2-1.139-.743-2.279-.694-1.486-1.486-1.635a1.734,1.734,0,0,0-1.536.743c-.793,1.04-.347,2.972.743,4.062s4.508.941,4.607.5" transform="translate(-202.703 -77.861)" fill="#d2dea1"/>
          <path id="Path_101413" data-name="Path 101413" d="M409.147,156.423c-.2.2-.842-.594-2.081-.594s-1.04.446-2.229.594-1.635.2-2.13-.347a1.635,1.635,0,0,1-.3-1.585c.4-1.189,2.229-1.833,3.666-1.486,2.229.5,3.369,3.17,3.071,3.468" transform="translate(-203.023 -77.163)" fill="#bcce72"/>
          <path id="Path_101414" data-name="Path 101414" d="M410.423,161.423a.347.347,0,0,0,.248-.2.408.408,0,0,0-.5-.545.347.347,0,0,0-.2.446c.05.149.2.347.347.347" transform="translate(-206.875 -81.074)" fill="#fff"/>
          <path id="Path_101415" data-name="Path 101415" d="M411.684,159.162a.347.347,0,0,1,0,.347.383.383,0,0,1-.694-.05.341.341,0,0,1,.248-.4.446.446,0,0,1,.5.1" transform="translate(-207.393 -80.25)" fill="#fff"/>
          <path id="Path_101416" data-name="Path 101416" d="M411.438,159.579a.149.149,0,0,1-.1.1.2.2,0,0,1-.248-.248.149.149,0,0,1,.2-.05.2.2,0,0,1,.149.2" transform="translate(-207.444 -80.419)" fill="#051c22"/>
          <path id="Path_101417" data-name="Path 101417" d="M410.638,161.179a.148.148,0,0,1-.1.1.2.2,0,0,1-.248-.248.149.149,0,0,1,.2-.05.2.2,0,0,1,.149.2" transform="translate(-207.041 -81.226)" fill="#051c22"/>
          <path id="Path_101418" data-name="Path 101418" d="M410.74,118.55a2.427,2.427,0,0,0,1.536.991,4.613,4.613,0,0,0,4.9-2.675,1.635,1.635,0,0,0-.05-1.337c-.644-.991-2.625-.743-3.022-.694s-2.972.446-3.517,2.031a2.031,2.031,0,0,0,.149,1.635" transform="translate(-207.143 -57.917)" fill="#b4deec"/>
          <path id="Path_101419" data-name="Path 101419" d="M416.542,119.12c-.149-.248-.892.5-2.13.3s-.991-.594-2.18-.941-1.585-.5-2.18,0a1.734,1.734,0,0,0-.5,1.635c.248,1.288,1.981,2.229,3.517,2.13,2.279-.149,3.715-2.725,3.468-3.071" transform="translate(-206.653 -59.626)" fill="#d2dea1"/>
          <path id="Path_101420" data-name="Path 101420" d="M415.41,114.291c0,.248-.991.2-1.833,1.139s-.4,1.04-1.04,2.081-.941,1.337-1.684,1.387a1.635,1.635,0,0,1-1.387-.842c-.644-1.09.149-2.873,1.338-3.765s4.607-.4,4.607,0" transform="translate(-206.512 -57.422)" fill="#bcce72"/>
          <path id="Path_101421" data-name="Path 101421" d="M419.02,119.456a.347.347,0,0,0,0-.347.4.4,0,0,0-.743-.05.347.347,0,0,0,.2.446.446.446,0,0,0,.5-.05" transform="translate(-211.064 -59.962)" fill="#fff"/>
          <path id="Path_101422" data-name="Path 101422" d="M418.253,117.1c.149.05.2.2.248.248a.412.412,0,0,1-.545.5.347.347,0,0,1-.1-.446.446.446,0,0,1,.4-.3" transform="translate(-210.841 -59.092)" fill="#fff"/>
          <path id="Path_101423" data-name="Path 101423" d="M418.336,117.825a.149.149,0,0,1,0,.149.2.2,0,0,1-.347,0,.149.149,0,0,1,.1-.2.2.2,0,0,1,.248.05" transform="translate(-210.925 -59.421)" fill="#051c22"/>
          <path id="Path_101424" data-name="Path 101424" d="M418.936,119.525a.149.149,0,0,1,0,.149.2.2,0,0,1-.347,0,.149.149,0,0,1,.1-.2.2.2,0,0,1,.248.05" transform="translate(-211.227 -60.279)" fill="#051c22"/>
          <path id="Path_101425" data-name="Path 101425" d="M338.284,112.3a2.972,2.972,0,0,0,2.031.248c2.081-.446,4.012-2.824,3.765-4.557a1.585,1.585,0,0,0-.694-1.189c-1.09-.644-3.022.5-3.418.694s-2.824,1.684-2.675,3.418a2.031,2.031,0,0,0,.941,1.437" transform="translate(-170.205 -53.797)" fill="#a5b0b5"/>
          <path id="Path_101426" data-name="Path 101426" d="M343.894,110.4c-.3-.149-.694.842-2.031,1.189s-1.288-.149-2.675.05-1.833.248-2.229.941a1.585,1.585,0,0,0,.248,1.684c.892,1.09,3.071,1.189,4.607.4,2.279-1.139,2.526-4.112,2.081-4.359" transform="translate(-169.97 -55.661)" fill="#d2dea1"/>
          <path id="Path_101427" data-name="Path 101427" d="M341.318,106.363c.149.248-.941.644-1.337,1.833s.1,1.139-.1,2.328-.3,1.635-1.09,1.981a2.031,2.031,0,0,1-1.833-.2c-1.139-.743-1.189-2.675-.347-4.012s4.508-2.378,4.706-1.981" transform="translate(-169.573 -53.606)" fill="#bcce72"/>
          <path id="Path_101428" data-name="Path 101428" d="M346.292,111.679a.259.259,0,0,0-.149-.3.5.5,0,0,0-.446-.1.446.446,0,0,0-.3.347c0,.2.248.3.4.3a.5.5,0,0,0,.5-.248" transform="translate(-174.299 -56.148)" fill="#fff"/>
          <path id="Path_101429" data-name="Path 101429" d="M344.4,109.792a.4.4,0,0,1,.347.1.347.347,0,0,1,.1.4.5.5,0,0,1-.4.3.347.347,0,0,1-.347-.347.446.446,0,0,1,.3-.446" transform="translate(-173.642 -55.401)" fill="#fff"/>
          <path id="Path_101430" data-name="Path 101430" d="M344.68,110.6a.149.149,0,0,1,.1.149.2.2,0,0,1-.1.2h-.248a.149.149,0,0,1,0-.248.248.248,0,0,1,.248-.1" transform="translate(-173.777 -55.808)" fill="#051c22"/>
          <path id="Path_101431" data-name="Path 101431" d="M346.08,111.8a.149.149,0,0,1,.1.149.2.2,0,0,1-.1.2h-.248a.149.149,0,0,1,0-.248.248.248,0,0,1,.248-.1" transform="translate(-174.484 -56.413)" fill="#051c22"/>
          <path id="Path_101432" data-name="Path 101432" d="M373.59,132.636a2.972,2.972,0,0,0-.694,1.932c-.1,2.13,1.783,4.557,3.567,4.756a1.585,1.585,0,0,0,1.337-.4c.892-.892.248-3.022.149-3.468s-.941-3.121-2.675-3.369a2.031,2.031,0,0,0-1.635.594" transform="translate(-188.173 -66.652)" fill="#a5b0b5"/>
          <path id="Path_101433" data-name="Path 101433" d="M375.047,138.7c.2-.248-.644-.892-.694-2.279s.446-1.238.594-2.625.2-1.882-.4-2.427a1.585,1.585,0,0,0-1.684-.149c-1.238.594-1.882,2.725-1.486,4.359.594,2.477,3.418,3.468,3.715,3.071" transform="translate(-187.351 -66.13)" fill="#d2dea1"/>
          <path id="Path_101434" data-name="Path 101434" d="M378.43,136.761c-.248.1-.4-1.04-1.437-1.734s-1.139-.149-2.229-.694-1.536-.694-1.684-1.536a2.031,2.031,0,0,1,.594-1.734c.991-.941,2.873-.545,3.963.594s1.238,4.954.793,5.053" transform="translate(-188.258 -65.873)" fill="#bcce72"/>
          <path id="Path_101435" data-name="Path 101435" d="M378.02,141.534a.347.347,0,0,0,.347-.05.5.5,0,0,0,.2-.4.446.446,0,0,0-.3-.4c-.2-.05-.347.149-.4.347a.5.5,0,0,0,.149.545" transform="translate(-190.671 -70.994)" fill="#fff"/>
          <path id="Path_101436" data-name="Path 101436" d="M380.187,139.978a.4.4,0,0,1-.2.3.347.347,0,0,1-.4,0,.446.446,0,0,1-.2-.446.347.347,0,0,1,.446-.248.446.446,0,0,1,.347.4" transform="translate(-191.451 -70.428)" fill="#fff"/>
          <path id="Path_101437" data-name="Path 101437" d="M379.983,140.227a.149.149,0,0,1-.149.05.2.2,0,0,1-.149-.149.248.248,0,0,1,.05-.248.149.149,0,0,1,.2.05.248.248,0,0,1,0,.248" transform="translate(-191.594 -70.578)" fill="#051c22"/>
          <path id="Path_101438" data-name="Path 101438" d="M378.383,141.227a.149.149,0,0,1-.149.05.2.2,0,0,1-.149-.149.248.248,0,0,1,.05-.248.149.149,0,0,1,.2.05.248.248,0,0,1,0,.248" transform="translate(-190.786 -71.083)" fill="#051c22"/>
          <path id="Path_101439" data-name="Path 101439" d="M283.738,99.949a2.972,2.972,0,0,0-1.337-1.536c-1.833-1.09-4.855-.545-5.845.892a1.585,1.585,0,0,0-.3,1.338c.4,1.189,2.576,1.635,3.022,1.734s3.22.644,4.26-.793a2.031,2.031,0,0,0,.248-1.684" transform="translate(-139.387 -49.371)" fill="#a5b0b5"/>
          <path id="Path_101440" data-name="Path 101440" d="M277.387,97.905c.1.3,1.09-.149,2.328.446s.892.941,2.031,1.734,1.536,1.04,2.328.793a1.585,1.585,0,0,0,.941-1.437c.049-1.387-1.536-2.923-3.17-3.369-2.477-.644-4.656,1.387-4.458,1.833" transform="translate(-139.972 -48.418)" fill="#d2dea1"/>
          <path id="Path_101441" data-name="Path 101441" d="M278.1,102.756c.05-.248,1.139.149,2.229-.446s.644-.941,1.635-1.684,1.337-.991,2.13-.793a2.031,2.031,0,0,1,1.238,1.338c.347,1.288-.892,2.774-2.378,3.22-2.328.644-4.954-1.238-4.855-1.684" transform="translate(-140.335 -50.346)" fill="#bcce72"/>
          <path id="Path_101442" data-name="Path 101442" d="M281.391,101.171c-.149.1-.1.3-.1.347a.5.5,0,0,0,.3.347.446.446,0,0,0,.5-.05c.149-.149,0-.4-.1-.5a.5.5,0,0,0-.545-.149" transform="translate(-141.944 -51.04)" fill="#fff"/>
          <path id="Path_101443" data-name="Path 101443" d="M281.7,103.89a.4.4,0,0,1-.2-.3.347.347,0,0,1,.2-.347.446.446,0,0,1,.5.05.347.347,0,0,1,0,.5.446.446,0,0,1-.5.149" transform="translate(-142.052 -52.074)" fill="#fff"/>
          <path id="Path_101444" data-name="Path 101444" d="M282.1,103.689a.149.149,0,0,1,.05-.149.2.2,0,0,1,.2-.05.248.248,0,0,1,.2.149.131.131,0,0,1-.149.149.248.248,0,0,1-.248-.1" transform="translate(-142.352 -52.22)" fill="#051c22"/>
          <path id="Path_101445" data-name="Path 101445" d="M281.9,101.789a.149.149,0,0,1,.05-.149.2.2,0,0,1,.2-.05.248.248,0,0,1,.2.149.131.131,0,0,1-.149.149.248.248,0,0,1-.248-.1" transform="translate(-142.251 -51.262)" fill="#051c22"/>
          <path id="Path_101446" data-name="Path 101446" d="M287.165,173.539a2.972,2.972,0,0,0-1.932-.743c-2.13-.1-4.607,1.734-4.756,3.517a1.585,1.585,0,0,0,.4,1.337c.892.892,3.022.3,3.468.149s3.121-.941,3.418-2.625a2.031,2.031,0,0,0-.545-1.635" transform="translate(-141.526 -87.196)" fill="#a5b0b5"/>
          <path id="Path_101447" data-name="Path 101447" d="M280.532,174.971c.248.2.892-.644,2.279-.644s1.238.446,2.625.594,1.882.2,2.427-.4a1.585,1.585,0,0,0,.149-1.684c-.594-1.238-2.725-1.882-4.359-1.536-2.477.545-3.468,3.368-3.121,3.666" transform="translate(-141.531 -86.399)" fill="#d2dea1"/>
          <path id="Path_101448" data-name="Path 101448" d="M284,178.336c-.05-.248,1.04-.4,1.734-1.437s.149-1.139.694-2.229.694-1.486,1.536-1.684a2.031,2.031,0,0,1,1.734.644c.941.991.5,2.873-.644,3.963s-4.954,1.189-5.053.743" transform="translate(-143.313 -87.287)" fill="#bcce72"/>
          <path id="Path_101449" data-name="Path 101449" d="M284.75,177.92a.347.347,0,0,0,.05.347.5.5,0,0,0,.4.2.446.446,0,0,0,.4-.3c.05-.2-.149-.347-.347-.4a.5.5,0,0,0-.545.149" transform="translate(-143.668 -89.694)" fill="#fff"/>
          <path id="Path_101450" data-name="Path 101450" d="M286.334,180.19a.4.4,0,0,1-.3-.2.347.347,0,0,1,0-.4.5.5,0,0,1,.446-.2.347.347,0,0,1,.248.446.446.446,0,0,1-.4.347" transform="translate(-144.311 -90.528)" fill="#fff"/>
          <path id="Path_101451" data-name="Path 101451" d="M286.545,179.883a.149.149,0,0,1-.049-.149.2.2,0,0,1,.149-.149.248.248,0,0,1,.248.05.149.149,0,0,1-.05.2.248.248,0,0,1-.248,0" transform="translate(-144.572 -90.617)" fill="#051c22"/>
          <path id="Path_101452" data-name="Path 101452" d="M285.445,178.3a.149.149,0,0,1-.05-.149.2.2,0,0,1,.149-.149h.248a.149.149,0,0,1-.05.2.248.248,0,0,1-.248,0" transform="translate(-144.017 -89.824)" fill="#051c22"/>
          <path id="Path_101453" data-name="Path 101453" d="M401.332,198.589a2.972,2.972,0,0,0-.3,2.031c.4,2.13,2.774,4.062,4.508,3.864a1.585,1.585,0,0,0,1.189-.644c.644-1.09-.4-3.022-.644-3.418s-1.635-2.824-3.369-2.725a2.031,2.031,0,0,0-1.437.941" transform="translate(-202.342 -99.762)" fill="#a5b0b5"/>
          <path id="Path_101454" data-name="Path 101454" d="M404.291,204.193c.149-.3-.842-.694-1.189-2.081s.149-1.288,0-2.675-.248-1.882-.892-2.279a1.585,1.585,0,0,0-1.684.248c-1.09.842-1.238,3.071-.5,4.557,1.09,2.279,4.062,2.625,4.31,2.18" transform="translate(-201.635 -99.423)" fill="#d2dea1"/>
          <path id="Path_101455" data-name="Path 101455" d="M406.858,201.6c-.248.149-.644-.941-1.783-1.387s-1.139.1-2.328-.149-1.635-.347-1.981-1.139a2.031,2.031,0,0,1,.2-1.833c.743-1.139,2.675-1.139,4.012-.3s2.279,4.557,1.882,4.756" transform="translate(-202.171 -99.004)" fill="#bcce72"/>
          <path id="Path_101456" data-name="Path 101456" d="M407.243,206.692a.259.259,0,0,0,.3-.149.5.5,0,0,0,.1-.446.446.446,0,0,0-.347-.3c-.2,0-.3.248-.3.4a.5.5,0,0,0,.248.5" transform="translate(-205.38 -103.853)" fill="#fff"/>
          <path id="Path_101457" data-name="Path 101457" d="M408.993,204.847a.4.4,0,0,1-.1.347.347.347,0,0,1-.4.1.446.446,0,0,1-.3-.4.347.347,0,0,1,.347-.3.446.446,0,0,1,.446.3" transform="translate(-205.99 -103.246)" fill="#fff"/>
          <path id="Path_101458" data-name="Path 101458" d="M408.713,205.08a.149.149,0,0,1-.149.1.2.2,0,0,1-.2-.1.248.248,0,0,1,0-.248.149.149,0,0,1,.248,0,.248.248,0,0,1,.1.248" transform="translate(-206.057 -103.331)" fill="#051c22"/>
          <path id="Path_101459" data-name="Path 101459" d="M407.413,206.48a.149.149,0,0,1-.149.1.2.2,0,0,1-.2-.1.248.248,0,0,1,0-.248.149.149,0,0,1,.248,0,.248.248,0,0,1,.1.248" transform="translate(-205.401 -104.037)" fill="#051c22"/>
          <path id="Path_101460" data-name="Path 101460" d="M233.326,93.353a2.972,2.972,0,0,0-1.387-1.486c-1.882-1.04-4.9-.446-5.845,1.04a1.585,1.585,0,0,0-.248,1.338c.446,1.189,2.576,1.585,3.022,1.684s3.22.545,4.211-.892a2.031,2.031,0,0,0,.2-1.734" transform="translate(-113.941 -46.095)" fill="#a5b0b5"/>
          <path id="Path_101461" data-name="Path 101461" d="M226.987,91.424c.149.3,1.09-.2,2.328.4s.892.941,2.081,1.684,1.585.991,2.328.743a1.585,1.585,0,0,0,.892-1.437c.05-1.387-1.585-2.923-3.22-3.319-2.477-.594-4.607,1.486-4.409,1.932" transform="translate(-114.538 -45.107)" fill="#d2dea1"/>
          <path id="Path_101462" data-name="Path 101462" d="M227.8,96.21c.05-.248,1.139.1,2.229-.545s.644-.941,1.635-1.684,1.288-1.04,2.13-.842a2.031,2.031,0,0,1,1.288,1.338c.4,1.288-.793,2.824-2.328,3.269-2.279.694-4.954-1.139-4.9-1.536" transform="translate(-114.955 -46.971)" fill="#bcce72"/>
          <path id="Path_101463" data-name="Path 101463" d="M230.991,94.757c-.149.1-.1.3-.1.347a.5.5,0,0,0,.3.347.446.446,0,0,0,.5-.1.455.455,0,0,0-.1-.5.5.5,0,0,0-.545-.1" transform="translate(-116.511 -47.796)" fill="#fff"/>
          <path id="Path_101464" data-name="Path 101464" d="M231.3,97.39a.4.4,0,0,1-.2-.3.347.347,0,0,1,.2-.347.446.446,0,0,1,.5.05.347.347,0,0,1,0,.5.446.446,0,0,1-.5.149" transform="translate(-116.618 -48.794)" fill="#fff"/>
          <path id="Path_101465" data-name="Path 101465" d="M231.78,97.189a.149.149,0,0,1,0-.149.2.2,0,0,1,.2-.05.248.248,0,0,1,.2.149.131.131,0,0,1-.149.149.248.248,0,0,1-.248-.1" transform="translate(-116.953 -48.94)" fill="#051c22"/>
          <path id="Path_101466" data-name="Path 101466" d="M231.48,95.289a.149.149,0,0,1,0-.149.2.2,0,0,1,.2-.05.248.248,0,0,1,.2.149.131.131,0,0,1-.149.149.248.248,0,0,1-.248-.1" transform="translate(-116.801 -47.981)" fill="#051c22"/>
        </g>
      </g>
    </g>
    <path id="Path_102067" data-name="Path 102067" d="M10378.171,957.192l-169.952,24.087v96.63Z" transform="translate(-10207.258 -811.192)" fill="#e6a69c" opacity="0.439"/>
    <text id="Aaaaargh_How_safe_am_I_" data-name="Aaaaargh!!
How safe am I?" transform="translate(14 178.818) rotate(-11)" fill="#29434c" font-size="18" font-family="GoodDogNew, GoodDog New"><tspan x="-35.694" y="14">Aaaaargh!!</tspan><tspan font-size="12"><tspan x="-35.436" y="26">How safe am I?</tspan></tspan></text>
    <path id="Path_102068" data-name="Path 102068" d="M10307.979,935.144c2.706.334-13.921-5.109-14.62-11.157s3.075-11.962,5.28-19.305,11.478-35.034,3.927-47.8-57.391-34.222-75.276-18.7-18.365,41.771-14.315,52.463,28.133,22.165,41.99,28.248S10305.272,934.811,10307.979,935.144Z" transform="translate(-10199 -808.266)" fill="#fff0bf" opacity="0.497"/>
    <text id="Oooh_I_feel_happy_and_comfortable" data-name="Oooh!!
I feel happy and comfortable" transform="matrix(0.809, 0.588, -0.588, 0.809, 44.61, 24.5)" fill="#29434c" font-size="18" font-family="GoodDogNew, GoodDog New"><tspan x="-22.536" y="14">Oooh!!</tspan><tspan font-size="12"><tspan x="-37.008" y="26">I feel happy and </tspan><tspan x="-28.956" y="38">comfortable</tspan></tspan></text>
    <path id="Path_464663" data-name="Path 464663" d="M10534.646,1060.026s-13.26.59-16.171-6.622,1.841-19.789,1.841-19.789-4.724-1.248-6.73-7.392,1.414-22.922,9.65-25.305,19.871,0,19.871,0,1.041-16.146,11.665-18.612,20.776,4.5,20.776,4.5,19.423-7.4,26.111-3.133,2.776,22.33,2.776,22.33,11.628,2.655,12.072,10.074-7.893,15.419-7.893,15.419,7.607,11.331,3.1,17.408-20.2,8.675-20.2,8.675,1.106,11.487-7.779,15.4-19.178,0-19.178,0-13.311,7.08-19.518,4.778S10534.646,1060.026,10534.646,1060.026Z" transform="translate(-10281 -964.778)" fill="#eaf1d8"/>
    <text id="Hmmmm_I_m_thinking_I_would_like_to_learn_about_myself_" data-name="Hmmmm
Im thinking I would like to learn about myself" transform="translate(241.347 50.483) rotate(-22)" fill="#29434c" font-size="12" font-family="GoodDogNew, GoodDog New"><tspan x="-20.418" y="9">Hmmmm</tspan><tspan x="-29.916" y="21">Im thinking I </tspan><tspan x="-29.688" y="33">would like to </tspan><tspan x="-26.64" y="45">learn about </tspan><tspan x="-17.298" y="57">myself</tspan></text>
  </g>
</svg>
