<svg xmlns="http://www.w3.org/2000/svg" xmlns:xlink="http://www.w3.org/1999/xlink" width="344" height="344" viewBox="0 0 344 344">
  <defs>
    <clipPath id="clip-path">
      <rect id="Rectangle_3169" data-name="Rectangle 3169" width="319" height="322" transform="translate(11003 982)" fill="#fff" stroke="#707070" stroke-width="1"/>
    </clipPath>
    <clipPath id="clip-path-2">
      <rect id="Rectangle_3171" data-name="Rectangle 3171" width="274.224" height="249.227" fill="none"/>
    </clipPath>
    <clipPath id="clip-Your_brain_is_amazing_4">
      <rect width="344" height="344"/>
    </clipPath>
  </defs>
  <g id="Your_brain_is_amazing_4" data-name="Your brain is amazing 4" clip-path="url(#clip-Your_brain_is_amazing_4)">
    <rect width="344" height="344" fill="#fff"/>
    <g id="Mask_Group_132" data-name="Mask Group 132" transform="translate(-10990 -960)" clip-path="url(#clip-path)">
      <g id="thinkbud1" transform="translate(11162.321 1135.488)">
        <g id="Group_3355" data-name="Group 3355" transform="translate(-137.112 -124.614)">
          <g id="Group_3354" data-name="Group 3354" clip-path="url(#clip-path-2)">
            <path id="Path_469563" data-name="Path 469563" d="M193.835,129.888c9.762-5.325,26.328-14.5,32.1-35.794,7.248-26.624-6.508-56.5-19.968-71.588C176.086-11.07,115.739-7.224,100.357,34.486c-10.8,29.138,1.923,73.067,26.032,93.479,28.1,23.665,59.9,6.064,67.3,1.923" transform="translate(46.221 -0.023)" fill="#e8e8e8"/>
            <path id="Path_469564" data-name="Path 469564" d="M94.788,61.479c2.219-1.183,6.064-3.106,7.4-7.691S100.7,41.659,97.6,38.553c-6.952-7.1-20.855-6.36-24.405,2.514-2.514,6.212.444,15.53,6.064,19.968s13.9,1.331,15.53.444" transform="translate(34.633 16.173)" fill="#e8e8e8"/>
            <path id="Path_469565" data-name="Path 469565" d="M68.538,61.034a8.431,8.431,0,0,0,4.881-4.881c1.183-3.55-1.035-7.691-3.106-9.762C65.727,41.806,56.557,42.4,54.19,48.018s.3,9.91,3.994,12.72,9.17.887,10.354.3" transform="translate(25.533 20.76)" fill="#e8e8e8"/>
            <path id="Path_469566" data-name="Path 469566" d="M81.539,207.608c18.193-7.1,26.032-25.145,28.1-29.73,17.01-39.344-4.289-100.578-38.9-118.771-4.437-2.367-17.157-9.022-29.73-4.141-24.405,9.614-26.624,54.431-27.067,63.6-.3,6.952-2.514,66.707,30.617,85.935,17.6,10.206,35.646,3.55,37.125,2.958" transform="translate(6.615 25.497)" fill="#a5b0b5"/>
            <path id="Path_469567" data-name="Path 469567" d="M74.208,61.111c-5.621,2.81,7.248,22.038-2.071,48.218-6.8,19.376-17.453,19.228-30.173,43.929-7.1,13.756-17.01,33.132-8.875,48.366,6.36,11.833,21.743,17.157,33.723,17.01,29.582-.444,57.389-34.907,61.234-68.63,5.916-51.325-44.669-93.479-53.839-88.893" transform="translate(14.39 29.114)" fill="#d2dea1"/>
            <path id="Path_469568" data-name="Path 469568" d="M26.757,68.1c5.916.887.74,23.222,17.453,44.964,12.276,16.122,21.891,12.572,41.119,31.8,10.8,10.8,25.884,25.884,23.518,42.746-1.923,13.164-13.756,23.222-24.553,27.067-26.476,9.17-62.566-14.5-76.765-44.964C-14.214,123.27,17.291,66.917,26.9,68.248" transform="translate(0.015 32.626)" fill="#bcce72"/>
            <path id="Path_469569" data-name="Path 469569" d="M59.257,89.756c-2.367-2.81-6.508-1.923-7.248-1.775a9.022,9.022,0,0,0-6.8,6.064c-.887,3.254,0,7.691,3.106,9.614s8.135-.148,10.206-2.81,3.4-8.135.887-11.093" transform="translate(21.501 42.032)" fill="#fff"/>
            <path id="Path_469570" data-name="Path 469570" d="M30.91,94.529c1.183-3.4,5.325-3.994,6.064-3.994a8.579,8.579,0,0,1,8.283,3.4c1.923,2.81,2.514,7.248.444,10.058s-7.4,2.514-10.354.592-5.768-6.508-4.437-10.206" transform="translate(14.646 43.323)" fill="#fff"/>
            <path id="Path_469571" data-name="Path 469571" d="M37.032,94.718a3.4,3.4,0,0,1,3.55.3A4.141,4.141,0,0,1,42.5,98.86a4.585,4.585,0,0,1-2.958,3.994c-2.071.592-3.55-1.331-3.994-2.958s0-4.289,1.627-5.177" transform="translate(16.955 45.204)" fill="#051c22"/>
            <path id="Path_469572" data-name="Path 469572" d="M50.332,92.418a3.4,3.4,0,0,1,3.55.3A4.141,4.141,0,0,1,55.8,96.56a4.585,4.585,0,0,1-2.958,3.994c-2.071.592-3.55-1.331-3.994-2.958s0-4.289,1.627-5.177" transform="translate(23.327 44.102)" fill="#051c22"/>
          </g>
          <text id="I_m_going_to" data-name="I’m going to" transform="translate(166.398 32.961)" fill="#354952" font-size="12" font-family="GoodDogNew, GoodDog New"><tspan x="0" y="0">I’m going to</tspan></text>
          <text id="practice_playing" data-name="practice playing" transform="translate(159.742 47.752)" fill="#354952" font-size="12" font-family="GoodDogNew, GoodDog New"><tspan x="0" y="0">p</tspan><tspan y="0" letter-spacing="-0.03em">r</tspan><tspan y="0">actice playing</tspan></text>
          <text id="the_piano._I_love" data-name="the piano.  I love" transform="translate(159.742 62.543)" fill="#354952" font-size="12" font-family="GoodDogNew, GoodDog New"><tspan x="0" y="0">the pian</tspan><tspan y="0" letter-spacing="-0.07em">o</tspan><tspan y="0" xml:space="preserve">.  I lo</tspan><tspan y="0" letter-spacing="-0.04em">v</tspan><tspan y="0">e</tspan></text>
          <text id="music_and_I_want" data-name="music and I want" transform="translate(160.629 77.334)" fill="#354952" font-size="12" font-family="GoodDogNew, GoodDog New"><tspan x="0" y="0" letter-spacing="-0.02em">m</tspan><tspan y="0">usic and I </tspan><tspan y="0" letter-spacing="-0.04em">w</tspan><tspan y="0">ant</tspan></text>
          <text id="to_be_really" data-name="to be really" transform="translate(173.054 92.125)" fill="#354952" font-size="12" font-family="GoodDogNew, GoodDog New"><tspan x="0" y="0">to be </tspan><tspan y="0" letter-spacing="-0.02em">r</tspan><tspan y="0">eally</tspan></text>
          <text id="good_at_it." data-name="good at it." transform="translate(178.083 107.916)" fill="#354952" font-size="13" font-family="GoodDogNew, GoodDog New"><tspan x="0" y="0">good at it.</tspan></text>
        </g>
      </g>
    </g>
  </g>
</svg>
