<svg xmlns="http://www.w3.org/2000/svg" xmlns:xlink="http://www.w3.org/1999/xlink" width="344" height="344" viewBox="0 0 344 344">
  <defs>
    <clipPath id="clip-path">
      <rect id="Rectangle_2073" data-name="Rectangle 2073" width="321" height="316" transform="translate(903 4736)" fill="#fff" stroke="#d46d5d" stroke-width="1"/>
    </clipPath>
    <clipPath id="clip-path-2">
      <rect id="Rectangle_2072" data-name="Rectangle 2072" width="321" height="274.073" fill="none"/>
    </clipPath>
    <clipPath id="clip-Your_brain_is_amazing_13">
      <rect width="344" height="344"/>
    </clipPath>
  </defs>
  <g id="Your_brain_is_amazing_13" data-name="Your brain is amazing 13" clip-path="url(#clip-Your_brain_is_amazing_13)">
    <rect width="344" height="344" fill="#fff"/>
    <g id="Mask_Group_109" data-name="Mask Group 109" transform="translate(-891 -4722)" clip-path="url(#clip-path)">
      <g id="feeling_brain" data-name="feeling brain" transform="translate(1063.5 4894)">
        <g id="feeling_brain-2" data-name="feeling brain" transform="translate(-160.5 -137.037)" clip-path="url(#clip-path-2)">
          <path id="Path_106344" data-name="Path 106344" d="M320.088,152.456c-.81,5.669-7.578,49.229-43.56,71.1-20.883,12.727-42.056,12.322-51.2,12.148-10.355-.174-23.6-.463-31.7-8.677-3.24-3.3-4.512-6.71-10.991-12.727-.81-.752-16.255-8.677-22.04-13.884l-1.851,1.446c-14.173,11.57-38.874-8.966-78.616-13.305-35.982-3.934-50.444,9.082-65.831-4.281C2.674,174.034.939,157.779.36,151.936c-1.331-12.611.4-32.4,23.833-64.1C44.672,60.073,84.414,6.332,154.757.547c14.4-1.157,55.534-2.43,95.855,24.238,33.2,21.982,77.4,70.575,69.418,127.671" transform="translate(-0.013 -0.026)" fill="#fff0bf"/>
          <path id="Path_106345" data-name="Path 106345" d="M168.285,206.9c20.652.578,24.817-12.553,43.1-11.743,15.793.694,28.114,11.165,30.949,13.71,8.735,7.867-2.777,43.56,19.958,29.213,10.991-6.884,4.859-17.528-7.347-15.85-5.033.694-7.925-11.4-6.653-11.57,29.271-2.719,32.453,13.71,40.089-3.818,9.892-22.792-9.661-11.859-18.569-1.909-2.95,3.3-23.2,2.256-24.528,2.025-3.066-.578-4.975-3.008-5.785-3.992-6.19-7.231-17.354-6.132-17.47-9.834-.058-1.5,1.851-2.661,2.892-3.3,4.859-3.008,11.049-.116,13.074.81,6.653,3.124,12.032,17.007,17.47,10.875,7.636-8.735-7-5.727-8.157-7.4-2.777-4.049-6.942-4.512-6.768-5.438s6.132-3.008,13.536-1.562c16.429,3.182,15.272-2.661,10.933-4.223a34.1,34.1,0,0,0-6.132.4c-4.165.578-6.016,1.273-6.132.926s3.471-2.256,8.272-5.322c8.272-5.264,10.413-8.446,12.553-7.4s-5.438,13.305,5.206,13.016c5.785-.174,6.248-4.223,5.553-6.305-1.967-5.727-10.008-7.347-9.487-8.562s1.331-.636,5.033-.116c7,.983,7.983,1.909,10.528,1.446,3.934-.694,21.751,16.371,25.858,8.851,9.256-16.892-18.338-16.024-23.718-12.206-.983.694-8.966,1.909-10.181-.521s-.347-4.686.868-5.322c7.462-3.529-1.041-7.462-1.62-7.173-6.537,3.471-.521,10.933-2.025,12.206s-2.2-.116-4.4,0-2.835.636-6.884,3.7c-5.9,4.512-7.231,6.479-8.041,5.958s.463-2.777,1.62-10.586c.347-2.487.694-5.38,2.025-5.727s1.1.636,2.14.521a3.867,3.867,0,0,0,2.661-3.182c.174-1.562-1.5-3.644-2.892-4.223-2.719-1.157-6.19.752-6.421,2.545s1.967,2.314,1.909,4.512a4.281,4.281,0,0,1-.983,2.372c-2.661,3.76-.636,8.562-2.487,12.727s-6.537,5.5-10.181,6.653c-4.628,1.388-8.272.926-13.71.116-7.578-1.1-13.594-1.967-18.049-7.173-1.909-2.2-3.818-4.4-3.76-7.4.116-6.421,9.2-8.272,14.289-18.28.463-.983,1.215-2.487,1.909-2.372s2.6,5.5.752,9.14c-.636,1.215-1.446,1.967-1.909,3.818-.231.926-.578,2.661.231,3.471s3.471.174,3.876-1.041-1.041-1.909-1.157-3.992.636-1.851,1.157-3.471c1.157-3.76-1.331-6.363-.231-7.578s2.777.752,6.653,1.041c4.8.4,7.347-1.851,8.562-.4.116.174.116.174.116,4.744a6.132,6.132,0,0,1-.694,3.413,2.95,2.95,0,0,1-.694.868c-1.041.81-1.967.231-2.661.81s-.752,2.487,0,3.587,3.529,1.562,4.628.521.752-2.14.752-5.148c-.058-5.669-.058-8.5.983-9.661s2.777-.347,8.272-.4c6.826,0,10.875-1.62,11.917.289.578,1.041-.289,2.083.521,3.182a3.282,3.282,0,0,0,3.992.636c1.331-.694,2.372-3.124,2.256-4.628s-1.851-4.628-3.644-4.744-1.735,1.793-3.76,2.372c-4.917,1.388-9.661,2.892-11.049.636s1.678-6.363,2.661-7.694,10.991-12.032,13.652-11.512c5.5,1.041,7.231,9.082,13.826,5.553s5.438-8.041,4.512-12.611c-1.851-8.909-10.181-10.181-14.693-7.81-6.19,3.24-4.628,7.983-6.884,11.512-1.388,2.2-9.024,10.355-10.7,12.9-2.545,3.876-2.6,5.033-4.512,7a15.562,15.562,0,0,1-3.124,2.545c-6.132,3.7-12.958,1.331-15.214.521s-3.7-1.331-4.165-2.545c-.81-2.256,2.372-3.992,5.9-9.95s4.281-10.066,6.421-9.95c1.157.058,1.562,1.388,2.777,1.215s2.545-2.256,2.372-4.107a4.512,4.512,0,0,0-4.628-3.818,4.628,4.628,0,0,0-4.165,3.818c-.116,1.041.4,1.5.521,2.545.289,2.661-2.372,5.033-3.529,6.074-6.768,6.305-5.148,8.735-11.685,13.652-4.281,3.24-8.677,6.537-12.032,4.8-4.859-2.545-4.4-13.768-2.661-14.462.81-.289,1.851,1.735,3.008,1.331s1.735-2.835,1.157-4.628c-.983-3.008-5.38-4.454-6.768-3.182s-.289,2.2,0,6.248c.116,1.851.058,4.049-.116,8.5-.231,6.71-.4,10.066-1.273,11.512-2.719,4.57-9.2,5.553-13.421,5.033-1.1-.116-8.735-1.1-10.181-6.363-1.157-4.223,2.256-9.256,3.644-9.024s.694,2.2,2.025,2.661,3.124-.868,3.876-2.545c1.215-2.661-.347-6.305-2.025-6.653s-2.256,1.1-4.917,3.7-2.372,2.545-3.124,2.372-1.215-.81-2.025-3.818c-1.388-5.148-2.083-7.694-.868-10.181s3.471-3.529,5.264-4.4c4.8-2.2,10.7-1.793,11.4.289.347.926-.578,1.5-.231,2.777s3.182,3.355,5.033,2.661,3.182-6.305,1.388-8.33c-.578-.636-1.273-.81-5.5-1.041s-6.363-.347-7.4-.289c-6.132.578-8.33,3.355-9.429,2.372s1.851-10.239,7.52-17.47c6.595-8.446,17.007-16.14,21.23-13.247,1.388.983,2.835,3.587,3.24,6.248s-.4,3.818.521,4.8,4.8,1.157,6.248-1.215.868-4.57-.4-5.438-2.487.752-4.281.116-3.7-4.049-2.892-5.438,8.619.521,11.917,1.735c1.562.578,11.165,4.107,10.818,7.289-.174,1.5-2.314,1.562-2.892,3.7a5.1,5.1,0,0,0,2.777,5.843c2.256.926,5.322-1.1,6.248-3.471s.116-6.016-1.62-7-1.446-.116-2.487-.81a5.091,5.091,0,0,1-2.256-3.471c-.463-4.4,10.586-10.413,13.421-7.81,1.331,1.215.231,3.7,1.735,4.628s4.165-.116,5.264-2.256,0-5.669-1.735-6.653-2.14-.058-6.132,1.215c-5.785,1.735-5.5,1.041-7.289,1.967-4.4,2.372-4.049,5.669-7.289,6.479s-3.008-1.041-7.81-2.372c-6.826-1.909-10.066.347-11.8-1.967-.4-.578-.868-1.562.752-8.619s3.008-12.9,5.669-13.247c1.5-.174,3.413,2.6,7.578,0s4.165-6.248,2.083-11.223c-1.562-3.644-12.727-7.289-17.239-1.331-5.264,7.057,2.777,8.388,2.777,12.611,0,2.487-.521,2.95-3.008,11.165-2.083,6.884-2.314,8.5-4.165,9.95s-4.049,1.5-5.785,1.735c-10.818,1.562-15.33,19.495-19.09,18.454-2.256-.636,0-6.71-3.529-15.908C176.442,82.179,171,76.915,172.8,74.2c.926-1.388,8.33-4.049,8.793-5.5,2.083-6.537-5.206-8.446-7.057-9.14-2.719-1.041-8.619-.694-9.661,4.975-.81,4.165,2.2,7.81,5.148,11.975,4.281,6.016,4.165,6.884,3.992,7.289-.868,2.487-7.4,3.182-8.793.926-.81-1.331.694-2.777-.116-5.033a4.721,4.721,0,0,0-4.744-3.3c-3.355.289-6.016,5.9-4.165,8.909,1.273,1.967,4.454,2.719,7.52,1.331a11.917,11.917,0,0,0,5.9,1.851c3.008.058,4.049-1.157,5.5-.636,3.182,1.157,3.471,9.2,3.413,13.536-.116,8.157-1.62,11.57-3.992,23.081-2.14,10.123-2.314,13.941-5.033,22.677-3.355,10.818-5.148,11.628-6.016,11.8-2.14.4-4.57-1.678-13.305-16.024-13.247-21.635-12.9-25.338-11.8-27.594,2.2-4.454,9.024-6.363,10.644-4.628s-.463,3.529.983,5.553a4.859,4.859,0,0,0,6.016,1.215c2.95-1.62,3.182-6.132,1.735-7.81s-2.14-.4-7.057-1.215c-3.7-.578-3.471-1.041-4.917-.926-4.454.4-6.132,5.264-8.041,4.628s-1.909-6.595-1.909-8.619c.116-10.355,3.876-19.09,4.917-18.8s-.4,4.049.983,4.8,5.206-1.909,5.785-5.553c.4-2.661-.868-5.958-2.892-6.479s-5.785,3.934-6.421,4.917c-2.43,3.76-2.256,6.884-3.24,7s-1.388-4.917-4.4-10.066a35.076,35.076,0,0,0-12.437-9.429c-3.471-1.5-5.727-16.024-10.586-7.636-1.273,2.256-4.57,16.313,5.322,15.85,1.388-.058,1.388-3.587,3.76-4.512,1.388-.521,2.719.058,4.281.81.4.231,7.347,3.529,6.884,7.173s-4.8,4.281-7.173,5.033c-10.528,3.471-23.544.81-24.47-4.107-.521-2.6,2.95-10.586,1.967-12.842s-10.875-7-14-5.843S78.678,75.353,86.951,81.2c1.678,1.215,3.471,1.041,7.925,3.7,2.14,1.273,1.851,1.678,4.165,3.182a25.048,25.048,0,0,0,20.073,3.3c5.38-1.388,6.248-3.587,8.562-2.892,3.529,1.041,6.19,7.578,4.917,13.016-1.62,6.826-9.256,10.933-13.826,9.429-3.124-1.041-3.066-4.049-6.537-5.033s-17.3-3.066-18.511.926,1.967,17.065,10.066,16.834c9.545-.231,4.107-10.644,7.694-11.28,2.025-.347,2.835,1.273,7.173,2.777,3.355,1.157,4.8.81,6.537,1.331,6.595,1.851,9.314,13.421,11.28,21.867,2.777,11.685,4.107,17.528,1.909,21.635-5.033,9.14-10.008-9.6-27.073,2.025s-36.329-27.189-31.932-34.767c1.215-2.083,3.76-3.182,3.876-6.074s-2.487-7.462-6.421-7.4-6.132,3.7-6.248,6.653,2.256,3.934,3.992,7.81c2.2,4.744.81,7.867,1.273,12.09,1.331,12.5,17.123,17.412,15.561,21.982-.926,2.661-6.768,2.719-13.074,2.777-7.347.058-11.8.116-15.214-3.066s-1.909-7.81-6.768-13.132c-1.215-1.331-5.264-5.727-8.909-4.4s-5.148,8.5-3.529,9.95,4.107-2.43,8.157-1.446a8.652,8.652,0,0,1,6.016,6.653c.81,4.107-2.835,5.5-3.644,6.479-6.132,7.52-19.032,9.082-21.23,4.512-1.1-2.256,1.62-5.958-2.835-8.677-1.851-1.157-14,.926-14.809,5.438-.636,3.644,5.322,11.57,11.859,11.107,1.62-.116,3.7-3.76,5.785-4.165s3.008,3.24,5.033,2.256c7.347-3.587,16.95-1.851,18.743-2.892,3.992-2.372,1.1-3.24,3.992-4.512,5.148-2.314,9.834.174,17.586,2.661,15.041,4.859,21.23,3.124,21.577,5.727.521,3.644-11.28,11.743-22.214,10.066-4.975-.752-14.52-3.934-16.487-2.43-13.247,9.545,2.083,17.933,10.413,14.057,1.793-.868,1.678-5.785,5.669-7.462s6.537-1.157,10.528-1.215c8.041-.058,11.743-1.909,16.834-2.661,12.842-1.793,18.164,6.132,41.94,13.768,10.471,3.355,15.677,5.033,21.52,5.206" transform="translate(-6.542 -20.628)" fill="#cb8c00"/>
          <path id="Path_106346" data-name="Path 106346" d="M299.089,386.257c6.363-5.5,3.24-17.065-6.595-35.924-3.008-5.669-4.512-10.76-10.239-21.635-24.181-45.874-30.139-23.429-13.305-39.568,9.256-8.851,9.14,1.678,21.23-2.14,5.091-1.62,15.445-6.305,8.214-9.371-3.413-1.446-3.182,2.892-10.644,5.033s-18.8-10.413-22.387-2.719c-8.677,18.569-20.3,5.553-25.28,2.95s-9.429-6.132-15.735-9.776c-7.578-4.4-3.644,28.635-6.595,25.742-11.57-11.338-12.784-2.43-15.793,1.967s15.561,11.107,21,13.074c10.7,3.876-3.7-31.007,7.347-26.032,11.975,5.38,2.661,6.074,2.2,10.818-2.6,27.478.289,31.759-.983,44.08-1.678,16.024-25.048,46.105-4.859,41.072,52.931-13.132,59.815,13.247,72.542,2.2" transform="translate(-84.992 -114.949)" fill="#d77d6e"/>
          <path id="Path_106347" data-name="Path 106347" d="M253.577,272.532c-8.793-1.909-6.479-20.478-16.255-20.015-5.727.289-20.42-7.81-10.76-18.338,12.38-13.536,21.52,6.074,22.561,10.3,5.091,20.71,6.768,28.577,4.4,28.056" transform="translate(-94.147 -96.731)" fill="#d77d6e"/>
          <path id="Path_106348" data-name="Path 106348" d="M274.464,286.608c-3.876-4.57,9.14-20.247,2.892-27.767-3.644-4.454-5.9-23.544,8.33-22.1,18.222,1.793,11.165,21.4,7.173,23.2-9.314,4.165-15.735,29.792-18.4,26.668" transform="translate(-115.382 -99.758)" fill="#d77d6e"/>
          <path id="Path_106349" data-name="Path 106349" d="M472.6,290.95a4.223,4.223,0,0,1-3.471,1.735c-.81-.058-1.273-.4-1.967-.231a1.909,1.909,0,0,0-1.1,1.041c-.868,1.678,1.5,4.628,2.372,6.19,1.562,2.661,1.041,4.975,0,9.719l-.463,2.025c-1.1,4.57-2.95,9.892-9.024,12.669a20.015,20.015,0,0,1-13.884.868c-1.1-.347-4.917-1.62-6.305-4.4-.578-1.1-.636-2.314-.752-4.686a44.666,44.666,0,0,0-.636-4.57,2.6,2.6,0,0,0-1.041-1.851c-.231-.174-.694.752-.926.636s-.694-1.215-.983-1.215l-.231-.4c-2.6-.231-4.339.463-5.727.463a3.008,3.008,0,0,1-2.025-.4l-1.735-1.273c.058-.463.116-.4.174-.868h.4c1.446-.231,2.661,0,4.049-.116,0,0,2.2-.174,4.281-.521a9.155,9.155,0,0,0,4.917-1.967c6.884-5.669,7.4-11.338,12.553-12.322,2.487-.463,5.438.289,6.19-.926s.521-1.041-.4-1.388c-2.314-.926-2.545-2.487-2.372-3.471s3.008-1.909,4.975-1.793c.521.058,2.95.231,3.7,1.735a2.2,2.2,0,0,1-.116,2.025,2.893,2.893,0,0,1-1.446,1.331c-.868.347-1.735.347-2.2.81s.116,1.215.694,1.793a3.934,3.934,0,0,0,3.818.983c.81-.289,1.446-.347,1.273-1.157-.463-2.025-1.1-2.6-.636-3.7V287.6c.578-1.215,3.644-2.256,6.074-1.215s2.892,3.066,1.851,4.57" transform="translate(-179.018 -119.662)" fill="#104c56"/>
          <path id="Path_106350" data-name="Path 106350" d="M481.254,285.383a4.339,4.339,0,0,1,2.2.347c.231.116,1.331.636,1.331,1.5s-1.793,1.793-1.967,1.851a4.621,4.621,0,0,1-3.529-.174c-1.5-.868-1.562-1.331-1.215-2.2s2.835-1.331,3.182-1.331" transform="translate(-201.442 -120.284)" fill="#fff"/>
          <path id="Path_106351" data-name="Path 106351" d="M499.921,289.473c.174.058,1.678.694,1.793,2.025a2.372,2.372,0,0,1-1.735,2.372,3.934,3.934,0,0,1-4.165-1.157,2.083,2.083,0,0,1,0-2.777c.983-.983,2.892-.926,4.107-.4" transform="translate(-208.771 -121.887)" fill="#fff"/>
          <path id="Path_106352" data-name="Path 106352" d="M484.806,289.9a.926.926,0,0,0,.752-.463.636.636,0,0,0-.174-.868,1.331,1.331,0,0,0-1.62.231c-.231.4.4,1.157,1.041,1.1" transform="translate(-203.895 -121.564)" fill="#051c22"/>
          <path id="Path_106353" data-name="Path 106353" d="M501.688,295.325c.347,0,.868-.231.926-.521s-.463-.752-.983-.81-1.331.231-1.331.578.752.81,1.388.752" transform="translate(-210.885 -123.921)" fill="#051c22"/>
          <path id="Path_106354" data-name="Path 106354" d="M467.969,317.41c-1.273,5.322-4.4,10.991-10.066,12.322-7.231,1.735-14.809-1.5-16.892-5.553-.81-1.562-.521-7.057-2.083-7.694s-2.2-.116-3.529-.4l-1.33-.289c-1.909-.289-2.835-.926-4.686-.578-.752.174-1.735-.174-2.314.116s-.231.058-1.331.116H424.7a17.525,17.525,0,0,1,.116-2.256c.058-.463.058-.4.116-.868h.752a23.252,23.252,0,0,1,2.719.694,14.926,14.926,0,0,0,6.132.231,12.033,12.033,0,0,0,6.363-3.413l.521-.578a25.344,25.344,0,0,0,1.793-2.777c2.372-3.818,3.934-6.19,6.653-7.462,3.644-1.678,7.983-.636,8.677-.463,8.041,1.967,9.834,10.3,9.95,10.875a20.188,20.188,0,0,1-.463,7.925" transform="translate(-179.017 -125.643)" fill="#cb8c00"/>
          <path id="Path_106355" data-name="Path 106355" d="M461.539,301.105a9.834,9.834,0,0,1,4.281-1.157,13.826,13.826,0,0,1,7.462,1.33,13.189,13.189,0,0,1,5.091,5.206,13.709,13.709,0,0,1,1.678,4.859c.636,3.471.4,6.074-1.331,6.942s-4.223-1.5-10.991-3.182-6.884-1.851-10.471-2.314c-1.967-.231-3.644-1.041-2.892-2.025a41.128,41.128,0,0,0,3.76-5.9,8.212,8.212,0,0,1,3.413-3.7" transform="translate(-191.446 -126.404)" fill="#fff"/>
          <path id="Path_106356" data-name="Path 106356" d="M452.135,322.794a20.427,20.427,0,0,1,2.43.463l1.1.174a45.47,45.47,0,0,1,6.074,1.388c7.347,2.2,7.578,3.066,9.95,3.3a11.916,11.916,0,0,1,3.587,1.041,2.6,2.6,0,0,1,.81.578c.521.578.752,1.446.347,1.793s-2.314.058-3.587-.289a72.711,72.711,0,0,1-8.909-3.182c-7.289-3.066-13.652-1.793-13.941-3.413-.116-.752,1.1-1.735,2.083-1.851" transform="translate(-189.677 -136.06)" fill="#104c56"/>
          <path id="Path_106357" data-name="Path 106357" d="M451.941,329.075c.4-.347,1.446-.116,3.124.231,5.5,1.215,4.454.694,6.653,1.331,4.57,1.331,3.644,1.909,7,2.661a27.191,27.191,0,0,1,6.074,1.851c.521.231,1.273.636,1.273,1.1s-.868,1.1-1.735,1.215-2.025-.463-3.587-1.157-.983-.289-4.57-1.446c-5.9-1.909-5.264-2.2-7.462-2.545s-4.339.058-5.727-.983-1.446-1.851-1.041-2.256" transform="translate(-190.409 -138.638)" fill="#104c56"/>
          <path id="Path_106358" data-name="Path 106358" d="M454.907,336.062c1.041-.521,2.6.116,4.686.868,2.95,1.041,6.71,2.2,9.429,2.892s4.686.926,5.091,2.025a.926.926,0,0,1-.231,1.157c-.636.347-2.025-.4-3.182-.926-2.487-1.157-2.835-.694-7.694-2.083a38.53,38.53,0,0,1-5.727-1.735c-.983-.347-2.892-.636-3.124-.983s.231-.983.752-1.215" transform="translate(-191.409 -141.576)" fill="#104c56"/>
          <path id="Path_106359" data-name="Path 106359" d="M456.384,341.7c1.157-.578,2.6.752,6.479,1.851,2.083.578,3.066.578,6.479,1.62,1.851.521,2.719.868,2.661,1.215s-1.215.694-2.2.694-2.372-.694-4.859-1.62a24.933,24.933,0,0,0-6.768-1.793c-1.041-.116-2.2-.116-2.43-.636s.116-1.041.694-1.331" transform="translate(-192.075 -143.973)" fill="#104c56"/>
          <path id="Path_106360" data-name="Path 106360" d="M458.291,346.519c.231-.4,3.413.4,4.281.636,2.487.636,5.553,1.735,5.38,2.14s-2.14.174-3.471-.058c-3.471-.578-6.421-2.314-6.19-2.719" transform="translate(-193.172 -146.017)" fill="#104c56"/>
          <path id="Path_106361" data-name="Path 106361" d="M54.334,237.725c-1.446-.4-3.3,5.148-9.082,4.859-2.256-.116-6.19.289-4.4-3.529.463-.983,1.446-.983,2.661-2.487s2.025-4.4.463-6.19-5.611-1.388-6.19-.81l-.347.4a3.355,3.355,0,0,0-.463.983c-.347,1.273,1.388,7.173-1.62,8.157-.868.289-3.818-3.066-4.165-4.512-.983-3.76,2.256-2.835,3.355-4.223s1.388-1.735,1.5-2.372a5.322,5.322,0,0,0-2.2-4.223c-1.678-.926-3.7-.983-4.686.058s.868,4.512-.4,5.553-2.025.058-3.413-.231a14.809,14.809,0,0,0-9.371,1.909c-7.115,4.049-6.595,18.743-1.793,24.007a19.438,19.438,0,0,1,2.256,2.719c2.314,3.471,2.14,5.9,3.124,7.752,1.909,3.587,7.983,5.438,12.727,4.4,6.363-1.388,9.2-7.752,9.834-9.2,2.314-5.206-.058-8.388,3.355-11.049,4.744-3.7,9.661-.868,10.008-3.008s.4-8.562-1.041-8.909" transform="translate(-4.469 -94.03)" fill="#4bacce"/>
          <path id="Path_106362" data-name="Path 106362" d="M45.068,228.835a2.6,2.6,0,0,1-.868-1.909,2.048,2.048,0,0,1,1.157-1.967c.868-.289,2.487.578,3.066,1.562s.81,2.487-.116,3.066-2.487-.058-3.24-.752" transform="translate(-18.631 -94.8)" fill="#fff"/>
          <path id="Path_106363" data-name="Path 106363" d="M58.972,238.37c-.174-.231-.868-1.273-.463-2.083s2.487-1.331,3.818-.694,2.2,2.545,1.446,3.529-2.083.694-2.892.521a3.355,3.355,0,0,1-1.909-1.273" transform="translate(-24.61 -99.187)" fill="#fff"/>
          <path id="Path_106364" data-name="Path 106364" d="M46.549,228.65a.926.926,0,0,1-.116-.983,1.273,1.273,0,0,1,1.5-.521,1.041,1.041,0,0,1,.578,1.562,1.388,1.388,0,0,1-1.909-.058" transform="translate(-19.534 -95.715)" fill="#051c22"/>
          <path id="Path_106365" data-name="Path 106365" d="M60.049,239.15a.926.926,0,0,1-.116-.983,1.273,1.273,0,0,1,1.5-.521,1.041,1.041,0,0,1,.578,1.562,1.388,1.388,0,0,1-1.909-.058" transform="translate(-25.225 -100.141)" fill="#051c22"/>
          <path id="Path_106366" data-name="Path 106366" d="M54.794,252.528c-1.388-.289-2.661-1.851-5.5-1.562a6.6,6.6,0,0,0-3.24,1.446,10.529,10.529,0,0,0-3.471,4.454c-4.281,9.719-3.876,10.066-5.091,11.338-3.529,3.529-10.7,4.454-14.52,2.14-.983-.578-1.157-1.041-3.76-4.917-4.975-7.462-4.744-6.537-5.5-8.041s-3.7-7.462-1.5-13.768a11.26,11.26,0,0,1,4.859-6.595c3.24-1.909,7-2.6,9.834-.983,1.735.983,1.388,2.083,3.471,4.917a19.5,19.5,0,0,0,6.826,6.074c1.273.636,7,3.3,11.685,1.215s4.744-4.454,5.785-5.438c5.9-5.264,4.686,10.644.116,9.776" transform="translate(-4.813 -99.114)" fill="#cb8c00"/>
          <path id="Path_106367" data-name="Path 106367" d="M43.471,273.734c-1.041-.578-2.6,1.735-5.958,3.182a17.239,17.239,0,0,1-12.148.463c-2.777-1.041-4.57-2.777-5.033-2.372s.926,2.2,1.041,2.372a10.239,10.239,0,0,0,3.7,2.95c3.066,1.388,7.057.289,15.1-2.025,1.215-.347,2.95-.868,3.587-2.256s.347-2.025-.289-2.372" transform="translate(-8.53 -115.345)" fill="#4bacce"/>
          <path id="Path_106368" data-name="Path 106368" d="M45.341,282.759c-.174-.289-1.909.578-5.669,1.793s-5.843,1.851-7.694,1.678-4.107-1.5-4.628-.926.058,1.215.521,1.793,1.273,1.157,4.512,1.157a19.437,19.437,0,0,0,9.487-2.545c1.851-1.1,3.7-2.545,3.471-2.835" transform="translate(-11.442 -119.164)" fill="#4bacce"/>
          <path id="Path_106369" data-name="Path 106369" d="M47.413,286.88c-.4-.289-1.62,1.793-4.223,3.008-4.165,1.909-8.909.116-9.256,1.157s.4.81.636.983c1.851,1.562,5.611.347,7.925-.4a8.819,8.819,0,0,0,3.934-2.2c.347-.463,1.331-2.314,1.041-2.487" transform="translate(-14.266 -120.913)" fill="#4bacce"/>
          <path id="Path_106370" data-name="Path 106370" d="M41.606,252.812c-1.331-3.182-6.132-1.793-9.429-4.8s-1.157-6.132-4.4-8.1a7.115,7.115,0,0,0-5.958-.521c-3.587,1.331-4.57,5.38-5.033,7.462s-1.562,6.71,1.62,10.644,9.95,4.165,11.57,4.049c5.206-.289,11.57-3.24,11.975-6.942a3.76,3.76,0,0,0-.289-1.793" transform="translate(-6.839 -100.729)" fill="#fff"/>
          <path id="Path_106371" data-name="Path 106371" d="M405.965,73.265c-2.083.231-3.24-.058-6.71-3.992-.983-1.157-2.025-.521-2.545.289s1.562,4.454,2.6,6.479c3.413,6.653,1.62,18.107-3.008,25.164-1.446,2.14-2.545,5.9-4.454,7.347-7.578,5.785-18.338,3.934-21.693-.694-2.719-3.7-.578-8.851-4.454-12.553-1.1-1.041-3.587-3.76-7-3.24a15.331,15.331,0,0,0-2.6.81l.694-5.9c.289.058.694.521.983.636s1.793.347,2.719.521a5.669,5.669,0,0,0,1.678,0c1.562-.116,3.124.4,4.281-.4s1.215-1.851,1.273-3.355a27.624,27.624,0,0,1,1.33-8.793c1.851-5.206,4.8-7.231,3.992-9.256s-2.14-1.562-3.124-1.678h-.694c-3.7.116-5.033,3.992-7.057,3.413s-3.3-4.049-3.066-7.057a5.149,5.149,0,0,1,.868-2.661c1.62-2.2,5.091-1.909,7-.4s1.1,2.083,2.835,3.7a8.037,8.037,0,0,0,1.1.81,8.5,8.5,0,0,0,4.4,1.446c2.661.058,2.835-1.446,5.553-1.909s3.413.983,10.123,2.6c3.992.983,4.917.752,5.611.4,2.545-1.215,2.43-3.992,4.628-5.033s6.942.521,8.388,4.8-1.678,8.1-3.7,8.33" transform="translate(-150.102 -23.921)" fill="#bf3422"/>
          <path id="Path_106372" data-name="Path 106372" d="M434.562,66.369c-1.1.347-1.562,2.545-1.562,3.992a4.979,4.979,0,0,0,3.182,4.859c.81.231,2.6.463,3.182-.636,1.157-2.14-2.719-8.851-4.8-8.214" transform="translate(-182.517 -27.958)" fill="#fff"/>
          <path id="Path_106373" data-name="Path 106373" d="M438.441,74.477a1.33,1.33,0,0,0,.694-1.388,1.736,1.736,0,0,0-1.562-1.388,1.331,1.331,0,0,0-1.1,1.62,1.6,1.6,0,0,0,1.909,1.157" transform="translate(-183.967 -30.223)" fill="#051c22"/>
          <path id="Path_106374" data-name="Path 106374" d="M391.209,112.672a8.328,8.328,0,0,1-1.5.868c-6.768,3.124-14.925-.347-17.759-5.553-1.1-1.967-2.025-8.793-3.529-10.066a7.694,7.694,0,0,0-3.529-1.5l-1.215-.174h0a13.363,13.363,0,0,0-5.785.81l-1.388.694.231-3.355.694.174a11.57,11.57,0,0,0,4.975,0l1.1-.347a10.123,10.123,0,0,0,4.454-3.413,15.563,15.563,0,0,0,1.215-1.851l.4-.81a36.509,36.509,0,0,0,1.215-3.934c1.62-5.322,2.661-8.677,5.148-10.644s7.752-1.735,8.446-1.62c8.33,1.735,11.685,12.669,11.917,13.363A36.559,36.559,0,0,1,397.341,95.9c-.231,6.479-1.851,13.536-6.074,16.66" transform="translate(-150.271 -30.296)" fill="#cb8c00"/>
          <path id="Path_106375" data-name="Path 106375" d="M406.078,92.556a21.809,21.809,0,0,0-2.835-8.5c-1.273-2.083-3.644-5.958-7.983-6.595a9.719,9.719,0,0,0-7.983,2.835c-3.471,3.471-5.091,9.776-3.587,11.454.347.347.81.578,3.587.116,4.4-.694,4.8-1.446,6.942-1.62a11.283,11.283,0,0,1,9.834,4.165c1.1,1.446,1.62,3.066,2.083,2.892s.058-4.339,0-4.744" transform="translate(-161.495 -32.625)" fill="#fff"/>
          <path id="Path_106376" data-name="Path 106376" d="M404.443,112.03c-.289-2.2-2.025-3.413-3.818-4.57a16.95,16.95,0,0,0-7.694-2.6c-2.6-.289-8.33-.81-12.148,3.124-1.041,1.1-.983,1.5-.983,1.62.347,1.1,4.339-.81,9.719-.289,2.835.289,6.653.636,9.371,3.876,1.735,2.025,2.14,4.107,3.3,3.992s2.6-2.892,2.314-5.148" transform="translate(-160.092 -44.116)" fill="#bf3422"/>
          <path id="Path_106377" data-name="Path 106377" d="M406.1,128.145c.578-2.777-2.95-5.553-3.7-6.132-5.9-4.628-14.4-2.777-14.52-1.793s.058.231,3.182,1.388c7,2.661,7.4,2.487,8.562,3.529,2.661,2.43,2.661,5.553,4.281,5.5s1.967-1.273,2.2-2.43" transform="translate(-163.489 -50.166)" fill="#bf3422"/>
          <path id="Path_106378" data-name="Path 106378" d="M401.117,133.9c.347-.983-2.892-3.3-4.744-4.339s-5.033-2.43-5.553-1.562.926,2.487,2.025,3.587c3.066,3.066,7.867,3.413,8.272,2.314" transform="translate(-164.691 -53.84)" fill="#bf3422"/>
          <path id="Path_106379" data-name="Path 106379" d="M363.972,63.073c-.463.81.058,2.314.752,3.124,1.909,2.083,6.248.116,6.363-1.215s-2.372-2.025-3.644-2.314-2.835-.694-3.471.4" transform="translate(-153.346 -26.282)" fill="#fff"/>
          <path id="Path_106380" data-name="Path 106380" d="M369.641,66.977a1.331,1.331,0,0,0,.694-1.388,1.735,1.735,0,0,0-1.562-1.388,1.33,1.33,0,0,0-1.1,1.62,1.6,1.6,0,0,0,1.909,1.157" transform="translate(-154.966 -27.061)" fill="#051c22"/>
          <path id="Path_106381" data-name="Path 106381" d="M487.947,162.667c-2.025,3.066-6.595,5.843-12.38,6.595-1.388.174-6.19.81-10.123-.81-1.562-.636-2.719-1.562-5.091-3.355-.983-.752-2.256-1.62-4.859-3.3a5.553,5.553,0,0,0-2.661-1.041h-1.041a6.306,6.306,0,0,0-1.331.347h0a39.858,39.858,0,0,0-5.5,2.6,3.934,3.934,0,0,1-2.256.521c-.058,0-.752.752-.81.752l.983-2.545c.521-1.1.347-1.5.926-2.2a16.371,16.371,0,0,1,2.256-1.678c1.735-1.157,3.413-1.62,3.644-3.182,1.273-7.347-3.529-12.032.4-14.983,1.909-1.446,5.38-2.083,5.033-3.355s-.463-1.041-1.678-.926c-3.008.289-4.744-.868-5.438-1.735s1.041-2.777,3.066-3.471c.521-.174,3.008-1.1,5.148-.174a3.355,3.355,0,0,1,1.62,1.331l.174.289a1.562,1.562,0,0,1-.174,1.62c-.521.636-1.331,1.041-1.331,1.562s1.215.868,2.314,1.1,3.76.058,4.512-.81,1.041-.926.174-1.446c-2.314-1.388-3.471-1.62-4.049-2.661V131.6c-.521-1.1,1.041-2.95,3.876-3.413h.81c2.835-.174,5.553,1.215,6.016,2.777a2.43,2.43,0,0,1-1.678,2.835c-.81.289-1.62.231-2.083.694a1.1,1.1,0,0,0-.116,1.273c.752,1.678,5.727,3.008,8.041,3.818,3.934,1.446,5.611,3.471,9.024,7.636l1.446,1.793c3.24,4.049,6.363,9.024,3.24,13.71" transform="translate(-186.269 -54.028)" fill="#ffb900"/>
          <path id="Path_106382" data-name="Path 106382" d="M456.683,134.135a5.322,5.322,0,0,1,2.43-.636,4.707,4.707,0,0,1,2.719.636c.868.694,0,2.14-.174,2.314a4.628,4.628,0,0,1-3.529,1.331c-1.157,0-2.719-.4-3.182-1.215s1.446-2.2,1.793-2.43" transform="translate(-191.738 -56.272)" fill="#fff"/>
          <path id="Path_106383" data-name="Path 106383" d="M478.127,129.7a6.175,6.175,0,0,1,3.529.81c1.273.926,1.273,1.793.578,2.6s-3.355,1.273-5.033.868-2.661-1.157-2.6-2.2,1.909-1.967,3.529-2.083" transform="translate(-200.05 -54.667)" fill="#fff"/>
          <path id="Path_106384" data-name="Path 106384" d="M461.5,135.233a.81.81,0,0,0,.463-.926,1.388,1.388,0,0,0-1.273-.81c-1.041-.058-2.083.694-1.909,1.215s1.909.926,2.719.463" transform="translate(-193.378 -56.27)" fill="#051c22"/>
          <path id="Path_106385" data-name="Path 106385" d="M482.448,131.882c.4-.231.752-.694.347-1.1a3.732,3.732,0,0,0-2.6-.521c-.81.174-1.273.926-.752,1.388a3.471,3.471,0,0,0,3.008.289" transform="translate(-201.999 -54.886)" fill="#051c22"/>
          <path id="Path_106386" data-name="Path 106386" d="M486.659,169.878c-5.206,4.4-15.388,5.091-21.172,2.777-2.2-.868-6.942-4.859-9.14-5.148a13.941,13.941,0,0,0-4.454.289l-1.331.347h0a8.58,8.58,0,0,0-3.818,2.025,9.255,9.255,0,0,0-1.735,1.446l-2.719,2.719L442,171.96a11.261,11.261,0,0,0,1.273-2.661c.81-2.314,1.851-2.487,4.049-4.049s4.8-2.835,4.859-3.7a5.037,5.037,0,0,0,0-.636,22,22,0,0,0-.926-2.95c-1.273-3.992-2.025-6.537-.578-8.677s6.942-3.876,7.752-4.049c9.487-1.851,18.859,3.934,19.495,4.281a29.909,29.909,0,0,1,6.826,6.421c3.76,4.686,6.016,10.471,1.967,13.884" transform="translate(-186.311 -61.065)" fill="#cb8c00"/>
          <path id="Path_106387" data-name="Path 106387" d="M457.246,151.159a6.689,6.689,0,0,1,3.008-2.719,17.7,17.7,0,0,1,8.272-2.14,30.775,30.775,0,0,1,15.735,5.033c3.818,2.43,4.223,2.892,3.413,4.339s-2.083,3.992-10.066,5.553-10.008,0-14.578-.463c-2.777-.289-3.992-.578-4.165-1.678-.463-2.6-.463-1.273-1.388-3.529s-.926-3.124-.174-4.339" transform="translate(-192.532 -61.668)" fill="#fff"/>
          <path id="Path_106388" data-name="Path 106388" d="M462.082,169.577c1.388-1.157,5.148.521,11.628.4,1.967-.058,7.694-.116,12.38-2.372,3.008-1.446,4.744-3.355,6.132-2.95a1.562,1.562,0,0,1,1.041,1.215c.231,1.215-1.446,2.14-2.256,2.6-3.529,1.967-8.446,2.314-18.685,3.529-5.5.694-8.1,1.1-9.6.058s-1.446-1.909-.694-2.545" transform="translate(-194.534 -69.384)" fill="#ffb900"/>
          <path id="Path_106389" data-name="Path 106389" d="M469.426,176.285c.4-.694,3.355-.116,8.619-.289,4.165-.174,8.909-.289,12.9-2.083s4.686-3.3,6.132-2.95a1.851,1.851,0,0,1,1.273,1.735c.058.636-.289,1.562-2.314,2.719s-13.247,6.479-22.1,3.7c-2.487-.81-4.975-2.2-4.57-2.892" transform="translate(-197.828 -72.043)" fill="#ffb900"/>
          <path id="Path_106390" data-name="Path 106390" d="M479.8,184.232a33.09,33.09,0,0,0,4.57.463c.983.058,8.561.231,13.247-2.777,1.909-1.273,2.6-2.6,3.355-2.43s.81,1.331.521,2.314c-.81,2.835-5.843,4.281-7.347,4.686s-6.653,1.909-11.57.636c-3.992-1.041-6.479-3.413-6.19-3.644s1.215.347,3.413.81" transform="translate(-200.794 -75.651)" fill="#ffb900"/>
          <path id="Path_106391" data-name="Path 106391" d="M161.893,67.546c.752.116,1.215-.058,2.487-2.083.347-.578.752-.289.926.116s-.578,2.314-.983,3.355c-1.215,3.471-.578,9.429,1.1,13.074.521,1.1.926,3.066,1.62,3.818,2.777,3.008,6.768,2.083,7.983-.347s.231-4.628,1.62-6.537c.4-.521,1.331-1.967,2.545-1.678s.868,0,1.1.116l-.4-1.851c-.116.058-.289-.636-.347-.578a2.314,2.314,0,0,1-.983.289h-.636c-.578-.058-1.157.231-1.562-.231a2.661,2.661,0,0,1-.463-1.735,20.189,20.189,0,0,0-.521-4.57c-.694-2.719-1.735-3.76-1.446-4.8a1.215,1.215,0,0,1,1.157-.868h.231c1.331.058,1.851,2.083,2.6,1.793s1.215-2.083,1.157-3.644a3.471,3.471,0,0,0-.347-1.388,1.547,1.547,0,0,0-2.6-.231c-.752.752-.4,1.1-1.041,1.909l-.4.4a2.6,2.6,0,0,1-1.62.752c-.983.058-1.041-.752-2.025-.983s-1.273.521-3.7,1.388c-1.5.521-1.793.4-2.083.231s-.926-2.083-1.678-2.6-2.545.289-3.066,2.487.636,4.223,1.388,4.339" transform="translate(-67.601 -24.854)" fill="#4d571a"/>
          <path id="Path_106392" data-name="Path 106392" d="M164.114,63.989c.4.174.578,1.33.578,2.083s-.521,2.256-1.157,2.545-.926.231-1.157-.347.983-4.57,1.793-4.281" transform="translate(-68.433 -26.966)" fill="#fff"/>
          <path id="Path_106393" data-name="Path 106393" d="M163.722,68.146a.752.752,0,0,1-.231-.694c.058-.4.347-.752.578-.752s.463.463.4.868-.463.752-.694.578" transform="translate(-68.909 -28.115)" fill="#051c22"/>
          <path id="Path_106394" data-name="Path 106394" d="M170.789,88.014l.578.463c2.487,1.62,5.5-.174,6.537-2.892.4-1.041.752-4.57,1.331-5.206a2.487,2.487,0,0,1,1.273-.81h.463a3.427,3.427,0,0,1,1.909.636l.926.636.4-3.182c-.058.058-.289-.231-.4-.174a6.358,6.358,0,0,1-1.446-.463c-.868-.289-.231-.231-.347-.289s-.174-.521-.521-1.1-.4-.578-.463-.81l-.636-1.157a10.279,10.279,0,0,0-.81-1.562c-2.14-4.744-2.6-4.339-3.355-4.744a3.413,3.413,0,0,0-2.892-.463c-3.066.926-4.281,6.595-4.339,6.942a26.61,26.61,0,0,0-.4,5.5c.058,3.355.694,7.057,2.2,8.677" transform="translate(-71.059 -28.141)" fill="#cb8c00"/>
          <path id="Path_106395" data-name="Path 106395" d="M170.044,77.537a14.867,14.867,0,0,1,1.041-4.454c.463-1.1,1.331-3.124,2.95-3.413a2.935,2.935,0,0,1,2.95,1.5c1.273,1.793,1.851,5.091,1.331,5.958s-.289.289-1.331.058-1.793-.752-2.545-.868a3.7,3.7,0,0,0-3.644,2.2c-.4.752-.578,1.62-.752,1.5a11.367,11.367,0,0,1,0-2.43" transform="translate(-71.644 -29.349)" fill="#fff"/>
          <path id="Path_106396" data-name="Path 106396" d="M170.212,87.714a3.529,3.529,0,0,1,1.388-2.372,5.206,5.206,0,0,1,2.835-1.331,4.048,4.048,0,0,1,4.454,1.62c.4.578.347.81.347.868a12.2,12.2,0,0,0-3.587-.116,4.313,4.313,0,0,0-3.471,2.025c-1.041,1.678-.81,2.14-1.215,2.083s-.926-1.5-.868-2.661" transform="translate(-71.697 -35.362)" fill="#4d571a"/>
          <path id="Path_106397" data-name="Path 106397" d="M171.38,96.038c-.231-1.446,1.1-2.892,1.388-3.182,2.14-2.43,5.322-1.446,5.322-.926s0,.116-1.157.694c-2.6,1.388-2.719,1.273-3.124,1.793s-.983,2.892-1.562,2.835-.694-.636-.81-1.273" transform="translate(-72.228 -38.479)" fill="#4d571a"/>
          <path id="Path_106398" data-name="Path 106398" d="M175.258,99.061c-.116-.521,1.041-1.735,1.735-2.256s1.851-1.273,2.025-.81-.347,1.331-.752,1.851c-1.157,1.562-2.892,1.793-3.066,1.215" transform="translate(-73.85 -40.403)" fill="#4d571a"/>
          <path id="Path_106399" data-name="Path 106399" d="M189.8,62.31a2.2,2.2,0,0,1-.289,1.62c-.694,1.041-2.314.058-2.314-.636s.868-1.041,1.331-1.215,1.041-.347,1.273.231" transform="translate(-78.908 -26.097)" fill="#fff"/>
          <path id="Path_106400" data-name="Path 106400" d="M188.922,64.246a.752.752,0,0,1-.231-.694c.058-.4.347-.752.578-.752s.463.463.4.868-.463.752-.694.578" transform="translate(-79.531 -26.471)" fill="#051c22"/>
          <path id="Path_106401" data-name="Path 106401" d="M132.1,160.578a4.223,4.223,0,0,1,3.644-1.273c.752.174,1.215.578,1.909.463a1.909,1.909,0,0,0,1.215-.868c1.1-1.562-.868-4.8-1.562-6.479-1.157-2.835-.347-5.091,1.215-9.661l.694-1.967c1.678-4.4,4.223-9.429,10.528-11.4a20.016,20.016,0,0,1,13.884.926c1.041.521,4.686,2.256,5.727,5.206.4,1.215.289,2.372.116,4.744a44.951,44.951,0,0,0,.058,4.628,2.6,2.6,0,0,0,.752,1.967c.231.174.81-.636,1.041-.521s.521,1.273.81,1.331l.174.4c2.545.521,4.339.116,5.727.231a3.008,3.008,0,0,1,1.909.694l1.5,1.5c-.116.463-.174.4-.289.868a8.079,8.079,0,0,1-2.256,1.909c-1.446-1.388-1.851-2.025-3.3-2.14a12.379,12.379,0,0,0-3.182-.231,8.893,8.893,0,0,0-5.091,1.273c-7.578,4.744-8.793,10.3-14,10.644-2.545.174-5.322-.983-6.248.116s-.636.926.231,1.446c2.14,1.157,2.2,2.777,1.851,3.7s-3.24,1.5-5.148,1.1c-.521-.116-2.892-.578-3.471-2.2a2.2,2.2,0,0,1,.347-1.967,2.892,2.892,0,0,1,1.62-1.1c.926-.231,1.793-.116,2.256-.521s.058-1.215-.463-1.851a3.934,3.934,0,0,0-3.644-1.446c-.81.174-1.5.174-1.388.983.174,2.083.752,2.719.174,3.76v.116c-.694,1.1-3.934,1.735-6.19.4s-2.43-3.413-1.273-4.744" transform="translate(-55.34 -54.195)" fill="#530c0d"/>
          <path id="Path_106402" data-name="Path 106402" d="M152.6,194.619a4.339,4.339,0,0,1-2.14-.636c-.174-.116-1.215-.81-1.157-1.678s1.967-1.562,2.2-1.562a4.864,4.864,0,0,1,3.471.636c1.388,1.041,1.388,1.562.926,2.314s-2.95.926-3.355.926" transform="translate(-62.931 -80.369)" fill="#fff"/>
          <path id="Path_106403" data-name="Path 106403" d="M134.9,187.49c-.174-.116-1.562-.926-1.5-2.2a2.372,2.372,0,0,1,2.025-2.14,3.934,3.934,0,0,1,3.992,1.678,2.083,2.083,0,0,1-.347,2.777c-1.1.81-3.008.521-4.107-.116" transform="translate(-56.229 -77.173)" fill="#fff"/>
          <path id="Path_106404" data-name="Path 106404" d="M153.147,191.7a.926.926,0,0,0-.752.347.636.636,0,0,0,.058.868,1.331,1.331,0,0,0,1.62,0c.289-.4-.289-1.157-.926-1.215" transform="translate(-64.177 -80.805)" fill="#051c22"/>
          <path id="Path_106405" data-name="Path 106405" d="M136.77,184.3c-.347,0-.868.116-.983.4s.347.81.868.926,1.331-.058,1.388-.4-.636-.926-1.273-.926" transform="translate(-57.229 -77.686)" fill="#051c22"/>
          <path id="Path_106406" data-name="Path 106406" d="M144.019,141.659c1.967-5.091,5.785-10.3,11.512-10.933,7.347-.81,14.52,3.355,16.024,7.694.578,1.62,1.273,5.958,2.719,6.826s.521,1.5,1.793,1.967l1.273.463c1.909.521,2.719,1.273,4.57,1.157.81-.058,1.678.4,2.314.174s.231,0,1.331.058l.983.116a17.471,17.471,0,0,1-.4,2.2,4.82,4.82,0,0,1-.231.868c-.174.463-1.157,3.587-1.215,3.587-1.562-1.909-1.1-1.678-1.678-2.256s-.926-2.14-2.43-2.719-1.215-.983-4.049-.868a12.032,12.032,0,0,0-6.768,2.6l-.578.463a25.454,25.454,0,0,0-2.14,2.545c-2.892,3.471-4.686,5.669-7.578,6.537-3.818,1.157-7.983-.4-8.619-.636-7.752-3.008-8.388-11.454-8.446-12.032a20.189,20.189,0,0,1,1.5-7.81" transform="translate(-60.024 -55.06)" fill="#cb8c00"/>
          <path id="Path_106407" data-name="Path 106407" d="M161.232,169.136a9.835,9.835,0,0,1-4.4.578,13.826,13.826,0,0,1-7.231-2.256,13.189,13.189,0,0,1-4.4-5.785,13.71,13.71,0,0,1-1.041-5.033c-.231-3.471.4-6.074,2.2-6.71s3.992,2.025,10.471,4.57,6.595,2.719,10.066,3.644c1.909.521,3.471,1.5,2.6,2.372a41.13,41.13,0,0,0-4.454,5.38,8.274,8.274,0,0,1-3.876,3.24" transform="translate(-60.75 -63.158)" fill="#fff"/>
          <path id="Path_106408" data-name="Path 106408" d="M172.551,155.624a21.734,21.734,0,0,1-2.314-.752l-1.1-.289a45.355,45.355,0,0,1-5.843-2.14c-7-3.124-7.115-4.049-9.429-4.57a11.916,11.916,0,0,1-3.413-1.5,2.6,2.6,0,0,1-.752-.694c-.463-.636-.578-1.5-.116-1.851s2.314.231,3.471.752a72.717,72.717,0,0,1,8.388,4.281c6.826,3.992,13.305,3.529,13.363,5.206,0,.752-1.331,1.62-2.314,1.562" transform="translate(-62.929 -60.58)" fill="#530c0d"/>
          <path id="Path_106409" data-name="Path 106409" d="M175.163,149.92c-.463.289-1.446-.058-3.066-.636-5.322-1.909-4.339-1.273-6.421-2.2-4.4-1.909-3.355-2.372-6.595-3.529a27.19,27.19,0,0,1-5.785-2.6c-.463-.289-1.157-.752-1.1-1.273s1.041-.926,1.851-.983,1.967.694,3.413,1.62.926.4,4.339,2.025c5.611,2.661,4.917,2.892,7.057,3.529s4.339.521,5.553,1.678,1.215,2.025.694,2.372" transform="translate(-64.152 -58.462)" fill="#530c0d"/>
          <path id="Path_106410" data-name="Path 106410" d="M176.143,144.016c-1.1.4-2.6-.463-4.512-1.446s-6.363-3.066-8.966-4.049-4.512-1.562-4.8-2.661a.926.926,0,0,1,.4-1.1c.694-.289,1.967.636,3.066,1.331,2.314,1.446,2.719,1.041,7.347,3.008a38.529,38.529,0,0,1,5.438,2.487,22.446,22.446,0,0,1,2.95,1.331c.174.289-.4.926-.926,1.157" transform="translate(-66.521 -56.781)" fill="#530c0d"/>
          <path id="Path_106411" data-name="Path 106411" d="M177.923,139.931c-1.215.463-2.487-1.1-6.19-2.661-2.025-.868-3.008-.983-6.248-2.43-1.793-.81-2.545-1.215-2.487-1.562s1.331-.521,2.314-.4,2.256.983,4.628,2.256a24.875,24.875,0,0,0,6.479,2.661c.983.231,2.14.4,2.372.926s-.231,1.041-.868,1.215" transform="translate(-68.705 -55.994)" fill="#530c0d"/>
          <path id="Path_106412" data-name="Path 106412" d="M181.288,137.085c-.289.347-3.355-.868-4.165-1.157-2.372-.926-5.264-2.43-5.033-2.835s2.14.116,3.413.521c3.355,1.041,6.074,3.124,5.785,3.471" transform="translate(-72.534 -56.039)" fill="#530c0d"/>
          <path id="Path_106413" data-name="Path 106413" d="M297.252,58.358c.752-.636,3.529,2.545,6.884.81,1.331-.694,3.76-1.5,1.562-3.529-.578-.521-1.157-.289-2.314-.926s-2.545-2.372-2.14-4.049,2.892-2.43,3.413-2.256l.347.174a2.6,2.6,0,0,1,.578.521c.578.752,1.388,5.206,3.471,5.033.636-.058,1.331-3.066,1.1-4.165-.578-2.777-2.256-1.273-3.3-1.909a5.322,5.322,0,0,1-1.62-1.157,3.182,3.182,0,0,1,0-3.413c.636-.926,1.909-1.678,2.777-1.273s.868,3.24,1.967,3.644,1.215-.521,1.967-1.1a8.735,8.735,0,0,1,6.19-1.273c5.5.81,9.661,10.818,8.388,15.619A14.169,14.169,0,0,0,326,61.54c-.347,2.95.521,4.57.521,6.016-.058,2.892-3.124,5.785-6.248,6.421-4.223.81-7.867-2.719-8.677-3.471-2.95-2.892-2.545-5.669-5.38-6.537-3.934-1.215-6.016,2.025-6.884.694s-2.835-5.611-2.14-6.248" transform="translate(-125.211 -17.748)" fill="#bcce72"/>
          <path id="Path_106414" data-name="Path 106414" d="M314.456,46.185a2.025,2.025,0,0,0-.058-1.5c-.174-.4-.694-1.041-1.273-.983s-1.273,1.1-1.33,1.851.231,1.909.983,2.025,1.446-.694,1.678-1.388" transform="translate(-131.424 -18.418)" fill="#fff"/>
          <path id="Path_106415" data-name="Path 106415" d="M308.551,56.451a1.584,1.584,0,0,0-.347-1.5,2.064,2.064,0,0,0-2.487.578c-.578.81-.521,2.314.231,2.719a1.555,1.555,0,0,0,1.851-.463,2.256,2.256,0,0,0,.752-1.388" transform="translate(-128.701 -23.072)" fill="#fff"/>
          <path id="Path_106416" data-name="Path 106416" d="M314.127,46.362a.737.737,0,0,0-1.273-.636.743.743,0,1,0,1.273.636" transform="translate(-131.789 -19.173)" fill="#051c22"/>
          <path id="Path_106417" data-name="Path 106417" d="M309.327,57.062a.737.737,0,0,0-1.273-.636.743.743,0,1,0,1.273.636" transform="translate(-129.766 -23.683)" fill="#051c22"/>
          <path id="Path_106418" data-name="Path 106418" d="M298.445,67.519c.752-.578.926-3.124,2.719-3.7a4.107,4.107,0,0,1,2.372.116,7.694,7.694,0,0,1,3.413,2.025c5.5,5.322,5.38,5.727,6.479,6.19,3.182,1.446,7.752.058,9.314-2.487.4-.636.4-1.041.752-4.339.694-6.363.868-5.669.81-6.884s-.116-5.958-3.3-9.6a8.256,8.256,0,0,0-4.917-3.124c-2.545-.4-4.975.174-6.132,2.025s-.174,1.793-.578,4.281a13.421,13.421,0,0,1-2.256,5.9c-.578.752-3.182,4.107-6.595,3.992s-4.744-2.372-5.669-2.661c-5.148-1.909,1.1,10.123,3.529,8.33" transform="translate(-123.454 -19.216)" fill="#cb8c00"/>
          <path id="Path_106419" data-name="Path 106419" d="M320.4,76.271c.463-.636,2.083.463,4.512.521a10.123,10.123,0,0,0,7.4-2.95c1.331-1.446,1.851-3.124,2.256-2.95s.116,1.735.116,1.851a7,7,0,0,1-1.273,3.008c-1.388,1.793-4.107,2.083-9.6,2.719a3.4,3.4,0,0,1-2.835-.521c-.81-.752-.81-1.273-.578-1.678" transform="translate(-134.999 -29.877)" fill="#bcce72"/>
          <path id="Path_106420" data-name="Path 106420" d="M324.3,83.422c0-.231,1.331-.116,3.934-.347s4.049-.347,5.091-.983,2.025-2.14,2.487-1.909.347.868.231,1.331-.4,1.157-2.314,2.025a11.685,11.685,0,0,1-6.421.868c-1.446-.231-2.95-.694-2.95-.983" transform="translate(-136.698 -33.788)" fill="#bcce72"/>
          <path id="Path_106421" data-name="Path 106421" d="M326.294,87.5c.174-.289,1.5.752,3.413.868,3.066.116,5.38-2.314,5.9-1.735s0,.636-.058.81c-.636,1.562-3.24,1.735-4.859,1.851a6.217,6.217,0,0,1-3.008-.4c-.347-.174-1.5-1.157-1.388-1.388" transform="translate(-137.535 -36.481)" fill="#bcce72"/>
          <path id="Path_106422" data-name="Path 106422" d="M317.3,62.444c-.174-2.487,3.124-2.892,4.165-5.785s-1.157-4.4.116-6.595a4.223,4.223,0,0,1,3.413-1.967c2.545-.116,4.339,2.372,5.264,3.644s3.008,4.049,2.314,7.578-4.686,5.5-5.611,5.843c-3.182,1.215-7.867.983-9.256-1.446a3.066,3.066,0,0,1-.4-1.273" transform="translate(-133.743 -20.272)" fill="#fff"/>
          <path id="Path_106423" data-name="Path 106423" d="M241.526,167.754a14.118,14.118,0,0,0,10.933,1.1c.926-.289,4.281-1.331,6.016-3.7a14.1,14.1,0,0,0,1.62-4.049c.289-.868.694-1.909,1.5-3.992a3.066,3.066,0,0,1,1.215-1.562l.636-.289a4.108,4.108,0,0,1,1.041-.174h0a29.964,29.964,0,0,1,4.686.231,2.545,2.545,0,0,0,1.678-.289l.868.289-1.793-1.562c-.81-.636-.926-1.041-1.62-1.388a14.519,14.519,0,0,0-2.2-.578c-1.678-.347-2.892-.174-3.818-1.215-4.281-5.091-3.471-10.066-7.347-11.049-1.851-.463-4.4.116-4.744-.983s-.174-.926.636-1.215c2.025-.752,2.6-2.083,2.6-2.95s-1.967-1.735-3.587-1.678c-.4,0-2.43.116-3.355,1.446a2.2,2.2,0,0,0-.4,1.446v.289a1.736,1.736,0,0,0,.868,1.157c.636.347,1.331.347,1.562.752s-.347,1.041-.926,1.562-2.314,1.215-3.24.752-1.1-.347-.752-1.041c.81-1.735,1.446-2.256,1.331-3.24v-.116c-.174-.983-2.083-1.909-4.049-1.331l-.521.174c-1.851.752-2.95,2.6-2.487,3.934a2.545,2.545,0,0,0,2.372,1.562c.636,0,1.1-.347,1.62-.116a1.157,1.157,0,0,1,.694.926c.347,1.5-2.2,3.992-3.24,5.38-1.793,2.256-1.909,4.339-2.083,8.446,0,.578-.058,1.157-.058,1.793-.116,3.992.231,8.677,4.454,11.223" transform="translate(-99.971 -55.933)" fill="#3793ae"/>
          <path id="Path_106424" data-name="Path 106424" d="M257.227,134.074a3.529,3.529,0,0,0-1.851.231c-.174.058-1.215.521-1.388,1.273s1.041,1.62,1.157,1.678a3.413,3.413,0,0,0,2.892-.058c.694-.347,1.562-1.157,1.446-1.851s-1.967-1.215-2.256-1.273" transform="translate(-107.053 -56.499)" fill="#fff"/>
          <path id="Path_106425" data-name="Path 106425" d="M241.58,137.232a3.24,3.24,0,0,0-1.851,1.735,1.678,1.678,0,0,0,.868,2.083,3.523,3.523,0,0,0,3.587-.926c.868-.868,1.1-1.678.636-2.43s-2.14-.868-3.182-.463" transform="translate(-101.009 -57.749)" fill="#fff"/>
          <path id="Path_106426" data-name="Path 106426" d="M256.593,135.864a.81.81,0,0,1-.289-1.5c.636-.4,1.678-.116,1.793.347s-.752,1.273-1.5,1.215" transform="translate(-107.865 -56.554)" fill="#051c22"/>
          <path id="Path_106427" data-name="Path 106427" d="M241.448,139.752c-.347-.058-.81-.289-.752-.752a1.851,1.851,0,0,1,1.388-1.215c.636-.116,1.215.289,1.1.81a1.967,1.967,0,0,1-1.735,1.1" transform="translate(-101.456 -58.071)" fill="#051c22"/>
          <path id="Path_106428" data-name="Path 106428" d="M242.417,173.012c5.38,1.678,12.148-.926,14.693-4.454.983-1.331,2.083-5.785,3.355-6.653a8.1,8.1,0,0,1,2.95-1.157l1.041-.174h0a7.01,7.01,0,0,1,3.355.347,8.33,8.33,0,0,1,1.793.578l3.008,1.215-.926-1.851c-.463-.174-.116-1.446-.463-1.735-1.62-1.446-3.992-1.157-6.074-1.678s-4.4-.636-4.8-1.273l-.289-.521a17.758,17.758,0,0,1-.81-2.487c-1.1-3.355-1.793-5.5-3.7-6.653s-6.248-.752-6.826-.636c-6.884,1.562-10.066,8.735-10.3,9.256a20.189,20.189,0,0,0-1.331,6.884c-.116,4.686,1.157,9.661,5.322,10.991" transform="translate(-99.937 -61.423)" fill="#cb8c00"/>
          <path id="Path_106429" data-name="Path 106429" d="M256.343,148.037a6.132,6.132,0,0,0-3.124-1.1,11.512,11.512,0,0,0-6.248.983,15.272,15.272,0,0,0-5.206,4.4,16.2,16.2,0,0,0-2.372,4.165c-1.273,3.008-1.273,3.471-.116,4.281s3.24,2.314,8.966,1.041,6.305-3.066,9.024-4.8c1.62-1.041,2.256-1.678,1.851-2.545-.926-2.083-.289-1.1-.81-3.066s-.868-2.6-1.909-3.3" transform="translate(-100.5 -61.901)" fill="#fff"/>
          <path id="Path_106430" data-name="Path 106430" d="M259.2,164.158c-1.388-.4-3.008,1.967-7.115,3.876a19.525,19.525,0,0,1-8.966,2.025c-2.545-.174-4.57-1.041-5.264-.289s-.116,1.157-.058,1.215c.463.983,1.909,1.157,2.661,1.273,3.182.4,6.421-.868,13.479-3.124,3.818-1.215,5.611-1.678,6.132-2.892s0-1.851-.81-2.14" transform="translate(-100.116 -69.171)" fill="#3793ae"/>
          <path id="Path_106431" data-name="Path 106431" d="M259.072,171.548c-.578-.4-2.2.983-5.553,2.43s-5.785,2.487-9.14,2.43-4.512-1.041-5.264-.289-.231,1.273,0,1.678.926,1.1,2.719,1.331,11.4.752,15.677-4.049c1.215-1.331,2.083-3.182,1.562-3.529" transform="translate(-100.626 -72.28)" fill="#3793ae"/>
          <path id="Path_106432" data-name="Path 106432" d="M257.915,179.969a17.876,17.876,0,0,1-2.661,1.793c-.578.347-5.322,2.835-9.661,1.967-1.793-.347-2.892-1.157-3.3-.81s.116,1.273.752,1.851c1.851,1.851,5.727,1.388,6.884,1.273s5.091-.636,7.636-3.124,2.487-4.512,2.14-4.628-.578.636-1.793,1.62" transform="translate(-102.072 -75.148)" fill="#3793ae"/>
          <path id="Path_106433" data-name="Path 106433" d="M523.662,230.82c-.289,2.256-.926,4.049-3.818,2.025a1.678,1.678,0,0,0-2.2.116c-.636.636,1.331,2.314,2.256,3.355,2.892,3.413,1.388,9.371-2.6,13.016-1.215,1.1-2.025,4.917-3.644,5.669-6.479,3.008-15.85.174-18.685-2.2s-.521-4.57-3.818-6.479c-.926-.521-2.95-.636-5.958-1.678a11.915,11.915,0,0,0-1.793-.636l.174-2.025a7.986,7.986,0,0,1,.81.347,11.4,11.4,0,0,0,2.314.289h1.446c1.331-.058,2.661.231,3.644-.231a1.851,1.851,0,0,0,1.1-1.735,9.176,9.176,0,0,1,1.157-4.57c1.157-1.967,4.107-3.76,3.413-4.8s-1.851-.81-2.661-.868h-.578c-3.124.058-4.281,2.083-6.016,1.793a3.3,3.3,0,0,1-2.6-3.644,2.083,2.083,0,0,1,.752-1.388c1.388-1.157,4.339-.983,6.016-.231s.926,1.1,2.43,1.909l.926.4a10.644,10.644,0,0,0,3.76.752c2.256.058,2.43-.752,4.744-.983s2.892.521,8.619,1.331c3.413.521,4.223.4,4.8.231,2.2-.636-3.413-2.487-2.6-4.281,1.562-3.587,6.074-4.223,7.347-1.967a10.182,10.182,0,0,1,1.331,6.421" transform="translate(-203.762 -94.009)" fill="#a6be4a"/>
          <path id="Path_106434" data-name="Path 106434" d="M542.931,225.684c-.926.174-1.331,1.331-1.331,2.083a3.432,3.432,0,0,0,2.719,2.487c1.5.231,2.2.231,2.719-.347s-2.314-4.57-4.107-4.223" transform="translate(-228.294 -95.121)" fill="#fff"/>
          <path id="Path_106435" data-name="Path 106435" d="M546.255,229.884c.347-.058.694-.347.578-.694a1.468,1.468,0,0,0-1.331-.694c-.521.058-1.1.463-.926.81a1.735,1.735,0,0,0,1.678.578" transform="translate(-229.536 -96.313)" fill="#051c22"/>
          <path id="Path_106436" data-name="Path 106436" d="M512.676,257.8l-1.273.463c-5.785,1.62-12.727-.174-15.156-2.892-.926-1.041-1.735-4.512-3.008-5.206a9.14,9.14,0,0,0-3.008-.81h-1.1a18.338,18.338,0,0,0-4.975.4,1.735,1.735,0,0,1-1.157,0V247.73h.926a24.762,24.762,0,0,0,4.223-.4c.289-.058.521,1.041.81.983,1.793-.4,3.066-2.14,3.876-2.777s-.174.231,0,0l1.273-.983c.4-.578.521-.347,1.041-1.388,1.388-2.777,2.314-4.512,4.4-5.5s6.653-.926,7.231-.81A13.363,13.363,0,0,1,516.9,243.8a11.918,11.918,0,0,1,.926,5.5c-.174,3.355-1.62,7-5.148,8.619" transform="translate(-203.593 -99.812)" fill="#cb8c00"/>
          <path id="Path_106437" data-name="Path 106437" d="M525.3,247.281a8.619,8.619,0,0,0-2.43-4.4,10.528,10.528,0,0,0-6.826-3.413,12.264,12.264,0,0,0-6.826,1.446c-3.008,1.793-4.339,5.033-3.066,5.958.289.174.694.289,3.066.058,3.76-.347,4.107-.752,5.9-.868,2.661-.174,6.306.463,8.388,2.14.926.752,1.388,1.562,1.735,1.5s.058-2.256,0-2.43" transform="translate(-213.148 -100.925)" fill="#fff"/>
          <path id="Path_106438" data-name="Path 106438" d="M523.894,257.423c-.231-1.157-1.735-1.735-3.3-2.372A21.173,21.173,0,0,0,514,253.72c-2.2-.174-7.115-.4-10.413,1.62-.926.578-.868.752-.81.868a80.384,80.384,0,0,1,8.272-.116c2.43.174,5.669.347,8.041,1.967s1.851,2.14,2.835,2.083a2.43,2.43,0,0,0,1.967-2.661" transform="translate(-211.918 -106.901)" fill="#a6be4a"/>
          <path id="Path_106439" data-name="Path 106439" d="M525.354,265.754c.463-1.446-2.487-2.892-3.182-3.182-5.033-2.372-12.322-1.446-12.38-.926s.058.116,2.719.694c5.958,1.388,6.363,1.273,7.347,1.793,2.256,1.273,2.256,2.835,3.644,2.835a2.14,2.14,0,0,0,1.851-1.273" transform="translate(-214.882 -110.027)" fill="#a6be4a"/>
          <path id="Path_106440" data-name="Path 106440" d="M521.135,268.656c.289-.521-2.43-1.678-4.049-2.256s-4.339-1.273-4.744-.81.81,1.331,1.735,1.851c2.6,1.562,6.71,1.735,7.057,1.215" transform="translate(-215.927 -111.887)" fill="#a6be4a"/>
          <path id="Path_106441" data-name="Path 106441" d="M489.382,232.11c-.4.4,0,1.215.636,1.62,1.62,1.041,5.322.058,5.438-.636s-2.025-1.041-3.124-1.215-2.43-.347-2.95.231" transform="translate(-206.214 -97.671)" fill="#fff"/>
          <path id="Path_106442" data-name="Path 106442" d="M494.255,234.084c.347-.058.694-.347.578-.694a1.468,1.468,0,0,0-1.331-.694c-.521.058-1.1.463-.926.81a1.735,1.735,0,0,0,1.678.578" transform="translate(-207.617 -98.083)" fill="#051c22"/>
          <path id="Path_106443" data-name="Path 106443" d="M362.848,306.593c-.868.81,1.967,4.4-.752,8.157-1.1,1.446-2.487,4.223-4.223,1.446-.463-.694,0-1.388-.463-2.835s-2.025-3.24-3.876-2.95-3.3,3.124-3.24,3.76a2.314,2.314,0,0,0,.521,1.157c.694.81,5.322,2.2,4.686,4.628-.174.694-3.644,1.215-4.744.868-2.892-.983-.868-2.719-1.331-4.049s-.578-1.678-.926-2.025a4.18,4.18,0,0,0-3.7-.347c-1.331.694-2.256,2.025-2.025,3.124s3.355,1.331,3.471,2.661-.868,1.331-1.62,2.14a11.8,11.8,0,0,0-2.835,7.057c-.4,6.479,9.487,12.437,15.041,11.512a15.388,15.388,0,0,1,2.777-.289c3.3-.058,4.859,1.1,6.421,1.273,3.182.231,7.057-2.95,8.446-6.595,1.851-4.8-1.1-9.429-1.793-10.471-2.43-3.76-5.553-3.587-5.843-7-.4-4.744,3.644-6.826,2.372-7.925s-5.438-3.934-6.305-3.182" transform="translate(-144.066 -129.23)" fill="#8d5e09"/>
          <path id="Path_106444" data-name="Path 106444" d="M347.923,323.839a2.025,2.025,0,0,1-1.62-.231,1.678,1.678,0,0,1-.81-1.62c.231-.926,1.446-1.388,2.372-1.388s1.967.521,1.967,1.388-1.1,1.62-1.909,1.851" transform="translate(-145.627 -135.138)" fill="#fff"/>
          <path id="Path_106445" data-name="Path 106445" d="M360.288,318.165c-.231,0-1.215.058-1.562-.578s.231-2.2,1.215-2.835,2.661-.347,2.95.578a2.127,2.127,0,0,1-.926,2.14,2.661,2.661,0,0,1-1.678.694" transform="translate(-151.167 -132.529)" fill="#fff"/>
          <path id="Path_106446" data-name="Path 106446" d="M348.179,323.418a.694.694,0,0,1-.752-.347.983.983,0,0,1,.289-1.215.81.81,0,0,1,1.273.289,1.1,1.1,0,0,1-.868,1.215" transform="translate(-146.405 -135.585)" fill="#051c22"/>
          <path id="Path_106447" data-name="Path 106447" d="M360.979,319.018a.694.694,0,0,1-.752-.347.983.983,0,0,1,.289-1.215.81.81,0,0,1,1.273.289,1.1,1.1,0,0,1-.868,1.215" transform="translate(-151.8 -133.73)" fill="#051c22"/>
          <path id="Path_106448" data-name="Path 106448" d="M370.01,310.358c-1.1.058-2.372.983-3.413,3.008a5.206,5.206,0,0,0-.463,2.777,8.273,8.273,0,0,0,1.388,4.223c4.512,7,4.975,6.884,5.206,8.272.81,3.876-1.735,9.024-4.859,10.586-.81.4-1.215.347-4.859.347-7.057.116-6.363.347-7.694.174s-6.479-.81-9.661-4.917a8.967,8.967,0,0,1-2.256-6.074c.116-2.487,1.33-5.727,3.644-6.942,1.388-.694,1.967,0,4.744-.174a15.388,15.388,0,0,0,6.942-1.967c.983-.578,5.206-3.239,5.843-7.231s-.289-5.148-1.215-5.727c-5.033-3.355,15.793,3.3,6.653,3.7" transform="translate(-144.748 -128.888)" fill="#cb8c00"/>
          <path id="Path_106449" data-name="Path 106449" d="M377.1,334.519c-.81.463,0,2.487-.463,5.322a13.768,13.768,0,0,1-4.975,8.272c-1.851,1.388-3.818,1.851-3.76,2.314s1.851.347,2.025.347a8.1,8.1,0,0,0,3.529-1.157c2.256-1.388,3.24-4.57,5.206-10.875.289-.926.694-2.314.058-3.355s-1.157-1.1-1.678-.868" transform="translate(-155.075 -140.958)" fill="#8d5e09"/>
          <path id="Path_106450" data-name="Path 106450" d="M384.386,339.658c-.289,0-.463,1.5-1.273,4.512s-1.331,4.686-2.256,5.785-2.777,2.083-2.661,2.661.81.521,1.388.4,1.331-.347,2.719-2.487a15.5,15.5,0,0,0,2.43-7.4c.116-1.678-.058-3.529-.4-3.529" transform="translate(-159.414 -143.147)" fill="#8d5e09"/>
          <path id="Path_106451" data-name="Path 106451" d="M388.682,342.289c-.347.174.463,1.851.116,4.107-.578,3.587-3.76,5.958-3.24,6.653s.694.058.926,0c1.851-.578,2.661-3.587,3.124-5.438a8.56,8.56,0,0,0,.289-3.587c-.116-.463-.926-1.909-1.215-1.735" transform="translate(-162.495 -144.275)" fill="#8d5e09"/>
          <path id="Path_106452" data-name="Path 106452" d="M363.718,330.071c-2.661-.463-3.876,3.3-7.231,4.165s-4.57-1.851-7.231-.578a5.669,5.669,0,0,0-2.95,3.76c-.694,2.95,1.562,5.322,2.719,6.537s3.7,3.934,7.694,3.529,7.057-4.8,7.694-5.9c2.083-3.587,2.892-9.082.578-10.933a2.95,2.95,0,0,0-1.273-.578" transform="translate(-145.919 -139.114)" fill="#fff"/>
        </g>
      </g>
    </g>
  </g>
</svg>
