<svg xmlns="http://www.w3.org/2000/svg" xmlns:xlink="http://www.w3.org/1999/xlink" width="344" height="344" viewBox="0 0 344 344">
  <defs>
    <clipPath id="clip-Your_brain_is_amazing_21">
      <rect width="344" height="344"/>
    </clipPath>
  </defs>
  <g id="Your_brain_is_amazing_21" data-name="Your brain is amazing 21" clip-path="url(#clip-Your_brain_is_amazing_21)">
    <rect width="344" height="344" fill="#fff"/>
    <g id="Group_2274" data-name="Group 2274" transform="translate(0.726 8.331)">
      <rect id="Rectangle_2153" data-name="Rectangle 2153" width="103.894" height="192.294" rx="6.58" transform="translate(7.47 55.375)" fill="#d8eef6"/>
      <rect id="Rectangle_2154" data-name="Rectangle 2154" width="103.894" height="192.294" rx="6.58" transform="translate(118.986 55.375)" fill="#d8eef6"/>
      <rect id="Rectangle_2155" data-name="Rectangle 2155" width="103.894" height="192.294" rx="6.58" transform="translate(231.184 55.375)" fill="#d8eef6"/>
      <path id="Path_149547" data-name="Path 149547" d="M67.412,128.107c3.365-4.1,5.828-7.107,7.809-11.715A38.525,38.525,0,0,0,77.662,95.4c-5.749,9.352-7.738,11.507-8.3,11.227-.938-.469,3.2-7.221,1.464-14.643-1.118-4.792-4.315-8.3-7.322-10.739A29.92,29.92,0,0,0,55.7,94.427c-2.89,10.878,2.122,20.354.489,20.989-1.234.48-5.438-4.411-6.834-10.738-1.882-8.53,2.4-14.838.977-15.62-1.516-.832-8.455,5.158-10.738,13.667-2.627,9.789,2.127,18.366,4.392,22.453,2.387,4.307,6.906,12.461,12.691,12.2C59.924,137.236,62.421,134.193,67.412,128.107Z" transform="translate(-5.116 -4.222)" fill="#ffb818"/>
      <path id="Path_149548" data-name="Path 149548" d="M55.381,138.364c-1.113-.142-2.8-3.545-5.048-8.094-2.259-4.581-7.192-14.582-5.516-15.678,1.075-.7,4.655,2.4,6.823,5.081,3.436,4.242,3.842,8.033,5.371,7.984,1.434-.045,2.406-3.423,2.758-4.645,1.541-5.355.214-8.286.29-14.082.074-5.579,1.42-11.848,2.758-11.9,1.2-.052,2.52,4.9,3.049,8.274C68.276,120.673,60.24,138.984,55.381,138.364Z" transform="translate(-6.039 -6.797)" fill="#cc3f2b"/>
      <path id="Path_149549" data-name="Path 149549" d="M55.83,141.652c-.876-.156-1.074-1.519-1.87-3.739-1.4-3.92-2.468-4.366-4.362-9.6-.931-2.57-.9-3.1-.685-3.241.5-.334,2.225,1.189,3.366,2.556,3.759,4.505,3.284,9.851,4.8,9.971.452.036.862-.536,1.683-1.682A21.746,21.746,0,0,0,61.875,129c.813-2.779,1.023-4.387,1.246-4.363.241.026.336,1.907.187,3.677-.455,5.433-3.131,8.911-5.048,11.406C57.123,141.2,56.458,141.764,55.83,141.652Z" transform="translate(-6.742 -11.303)" fill="#fff"/>
      <path id="Path_149550" data-name="Path 149550" d="M79.376,193.88c-1.329-.424,1.482-9.636,1.71-16.75.368-11.515-5.669-28.853-19.143-33.159-13-4.154-29.355,4.962-34.185,16.408-4.038,9.572,2.382,15.085,1.71,42.389-.159,6.459-.238,9.689-.684,13.673-1.8,16.135-6.209,23.689-2.051,28.373,1.616,1.821,4.428,3.1,6.5,2.393,3.259-1.107,2.189-6.284,5.811-10.6,4.4-5.243,13.771-6.867,16.75-3.76,3.238,3.377-2.34,11.018,1.026,14.015,2.134,1.9,6.892,1.068,9.571-1.367,3.544-3.22,2.3-8.2,3.077-15.041a45.087,45.087,0,0,1,7.52-19.827c4.946,3.007,10.761,2.556,14.016-.684a10.281,10.281,0,0,0,2.735-7.178,7.567,7.567,0,0,0,6.5-13.332c3.612-3.966,4.466-9.038,2.392-12.307-.168-.265-2.218-3.382-5.811-3.418A6.435,6.435,0,0,0,91,177.129c-1.04,2.429,1.219,1.305,2.087,5.651a13.975,13.975,0,0,1-.135,5.793,7.279,7.279,0,0,1-2.636,3.939c-1.539-1.336-3.838-2.889-6.153-2.392C81.282,190.738,80.186,194.138,79.376,193.88Z" transform="translate(-2.861 -14.291)" fill="#cc3f2b"/>
      <path id="Path_149551" data-name="Path 149551" d="M76.532,158.947c-2.272-1.277-5.331-.6-7.233.92-2.505,2.007-3.674,6.023-1.447,8.751,2.32,2.843,7.09,2.773,9.645.46C80.569,166.3,79.842,160.806,76.532,158.947Z" transform="translate(-9.661 -16.792)" fill="#fff"/>
      <path id="Path_149552" data-name="Path 149552" d="M47.81,159.372c2.12-1.238,4.977-.584,6.752.894,2.339,1.946,3.429,5.843,1.351,8.49-2.166,2.759-6.618,2.69-9,.447C44.041,166.5,44.72,161.176,47.81,159.372Z" transform="translate(-6.139 -16.865)" fill="#fff"/>
      <path id="Path_149553" data-name="Path 149553" d="M72.723,151.762c-4.557,2.833-9.035,3.549-8.888,5.128.124,1.329,3.437,2.349,6.153,2.392,6.557.107,12.763-5.424,15.383-11.622,2.15-5.085,2.115-11.165.684-11.622C84.135,135.423,82.361,145.772,72.723,151.762Z" transform="translate(-9.198 -13.159)" fill="#1e343b"/>
      <path id="Path_149554" data-name="Path 149554" d="M32.319,146.311c3.92,9.3,14.714,11.712,17.323,12.294,1.413.315,4.425.987,4.964-.006.867-1.6-5.23-6.5-6.5-7.52-6.582-5.295-9.386-4.917-12.648-9.23-2.772-3.665-3.051-6.982-3.76-6.837C30.78,135.2,30.1,141.035,32.319,146.311Z" transform="translate(-3.812 -12.995)" fill="#1e343b"/>
      <path id="Path_149555" data-name="Path 149555" d="M52.3,160.673a2.378,2.378,0,0,1,2.6.342,2.42,2.42,0,0,1,.519,3.248,2.448,2.448,0,0,1-3.46.171A2.489,2.489,0,0,1,52.3,160.673Z" transform="translate(-7.145 -17.143)" fill="#1e343b"/>
      <path id="Path_149556" data-name="Path 149556" d="M74.836,161.3a2.379,2.379,0,0,1,2.6.341,2.42,2.42,0,0,1,.519,3.248,2.448,2.448,0,0,1-3.46.172A2.489,2.489,0,0,1,74.836,161.3Z" transform="translate(-10.823 -17.245)" fill="#1e343b"/>
      <path id="Path_149557" data-name="Path 149557" d="M218.111,134.953c3.25,1.26,12.274,5.388,16.653,14.93,6.209,13.53-.825,29.447-7.465,37.9-6.476,8.244-15.068,12.557-13.781,15.5.925,2.116,5.524.277,10.91,3.445,3.707,2.181,8.366,7.074,8.038,12.059-.536,8.167-14.1,11.243-13.207,17.227.564,3.761,6.281,4.922,5.742,7.464-.441,2.077-4.685,3.33-8.039,2.871-5.977-.817-11.318-7.366-10.336-12.058,1.224-5.844,11.516-5.26,12.633-10.91.917-4.64-4.837-11.05-10.91-12.058-4.742-.787-7.317,2.11-14.93,6.316-16.691,9.221-26.272,7.425-27.563,13.207-1.31,5.869,7.908,10.635,5.742,15.5-1.283,2.884-5.849,4.211-9.188,3.446-7.839-1.8-13.312-16.143-9.187-24.692,1.921-3.982,7.433-6.728,18.376-12.059,11.318-5.513,14.115-5.454,15.5-8.613,2.729-6.2-5.861-11.438-9.761-23.543-3.869-12-3.243-31.139,9.187-41.344C194.924,132.653,207.489,130.831,218.111,134.953Z" transform="translate(-23.555 -12.63)" fill="#cc3f2b"/>
      <path id="Path_149558" data-name="Path 149558" d="M246.438,161.941c.495-3.374-1.716-7.735-5.229-8.039-3.241-.28-6.761,2.964-7.843,5.742-1.651,4.242,1.553,9.528,5.229,9.762C241.965,169.62,245.9,165.6,246.438,161.941Z" transform="translate(-36.791 -16.076)" fill="#fff"/>
      <path id="Path_149559" data-name="Path 149559" d="M217,156.08c-.079,3.409,2.645,7.469,6.169,7.343,3.251-.116,6.351-3.766,7.086-6.655,1.122-4.411-2.7-9.268-6.379-9.052C220.507,147.912,217.09,152.385,217,156.08Z" transform="translate(-34.193 -15.068)" fill="#fff"/>
      <path id="Path_149560" data-name="Path 149560" d="M241.04,162.788a3.013,3.013,0,0,0,2.983,3.056,4.511,4.511,0,0,0,3.56-2.881,3.11,3.11,0,0,0-3.072-3.778A4.276,4.276,0,0,0,241.04,162.788Z" transform="translate(-38.116 -16.94)" fill="#1e343b"/>
      <path id="Path_149561" data-name="Path 149561" d="M224.618,157.494a3.014,3.014,0,0,0,2.983,3.056,4.51,4.51,0,0,0,3.559-2.881,3.11,3.11,0,0,0-3.072-3.779A4.276,4.276,0,0,0,224.618,157.494Z" transform="translate(-35.436 -16.076)" fill="#1e343b"/>
      <path id="Path_149562" data-name="Path 149562" d="M221.066,194.73a3.014,3.014,0,0,0,2.983,3.056,4.511,4.511,0,0,0,3.559-2.881,3.11,3.11,0,0,0-3.072-3.779A4.275,4.275,0,0,0,221.066,194.73Z" transform="translate(-34.856 -22.152)" fill="#1e343b"/>
      <path id="Path_149563" data-name="Path 149563" d="M164.029,183.8c-.873-1.89-9.567-1.732-11.68,2.669-.758,1.578-.782,3.936.374,4.838,2.167,1.692,7.467-2.52,7.755-2.754C161.3,187.885,164.663,185.169,164.029,183.8Z" transform="translate(-23.555 -20.77)" fill="#8ecbe1"/>
      <path id="Path_149564" data-name="Path 149564" d="M180.519,175.423c-.835-.551-2.8.741-3.818,2.158-.628.874-1.543,2.691-.83,3.486.653.729,2.428.331,3.486-.5C181.16,179.158,181.462,176.046,180.519,175.423Z" transform="translate(-27.439 -19.569)" fill="#8ecbe1"/>
      <path id="Path_149565" data-name="Path 149565" d="M173.16,189.006c-2.977,1.406-3.725,1.294-4.483,2.159-.562.642-1.4,2.133-.5,5.644a6.054,6.054,0,0,0,4.317.5c4.416-1.377,5.32-9,3.984-9.8C176.086,187.274,175.745,187.786,173.16,189.006Z" transform="translate(-26.161 -21.554)" fill="#8ecbe1"/>
      <path id="Path_149566" data-name="Path 149566" d="M366.442,201.089c-.313-1.1-8.392-1.44-3.643-7.5.9-1.148,3.037-4.18,2.647-4.96s-2.538-.257-7.525.175c-7.177.622,3.976-5.126,3.029-6.464-1.463-2.064-10.1,4.518-8.279,2.265,2.561-3.179,5.652-8.084,4.724-9.1-.4-.433-1.623-.6-3.849.875-4.336,2.871-2.6-3.452-3.937-5.088-.525-.643-5.761,4.66-5.337,1.939.11-.7,1.179-7.78-.35-8.4-.77-.311-2,1.092-3.325,2.624-3.966,4.593-3.035-4.028-4.9-3.56-2.659.668-4.387,7.9-5.4,5.514-2.218-5.236-2.095-7.289-3.354-7.552-1.182-.247-3,3.92-3.5,5.074-3.287,7.541-7.178-1.657-9.509-.654-1.355.582,1.355,12.6-3.09,9.751-5.993-3.837-7.966-6.047-8.925-5.423-1.572,1.023,1.531,8.409,1.75,8.922,3.263,7.664-5.972,2.5-7.033,4.249-.741,1.221,10.412,8.381,4.059,8.7-3.273.162-8.924.443-9.274,2.1-.153.724.988,1.216,6.125,4.9,5.33,3.82-9.627,5.167-9.133,9.626.335,3.017,11.91,4.687,8.083,9.617-.873,1.125-5.827,7.894-4.2,9.8.725.847,2.328-.2,6.825-.874,7.062-1.061-1.436,6.251.635,8.267,1.279,1.244,10.576-3.794,8.639,1.355-2.35,6.248-6.165,10.265-4.782,12.242.454.649,1.976,0,5.832-1.395,7.962-2.88,4.269,7.423,6.567,8.241,2.423.861,6.716-16.222,10.057-4.742.887,3.05,1.29,4.541,2.274,4.724,1.926.356,4.4-4.589,5.425-6.648,3.509-7.022,9.336,1.794,11.839.448,3.1-1.669,1.109-10.608,4.435-8.67,4.59,2.674,6.39,5.321,7.349,4.723,1.172-.73.023-5.621-1.924-9.1-2.664-4.756,6.209-1.132,6.993-2.484.387-.668-7.764-7.385-.52-6.788,4.976.41,6.593,1.249,7,.525.751-1.34-3.3-5.573-6.824-8.222-2.975-2.239,6.243-.93,6.4-1.989.167-1.106-8.746-3.126-5-4.659,3.4-1.392,7.879-4.045,7.524-5.423-.347-1.348-5.271-1.267-7.874-1.224C357.1,206.924,366.755,202.185,366.442,201.089Z" transform="translate(-45.846 -17.376)" fill="#cc3f2b"/>
      <path id="Path_149567" data-name="Path 149567" d="M331.61,200.52a6.5,6.5,0,0,0-5.387-1.7c-2.989.644-4.828,3.9-4.822,6.807a7.081,7.081,0,0,0,3.687,6.238,6.724,6.724,0,0,0,7.656-.851C335.591,208.213,334.343,202.985,331.61,200.52Z" transform="translate(-51.23 -23.39)" fill="#fff"/>
      <path id="Path_149568" data-name="Path 149568" d="M349.605,200.52a6.5,6.5,0,0,0-5.387-1.7c-2.989.644-4.828,3.9-4.821,6.807a7.078,7.078,0,0,0,3.686,6.238,6.726,6.726,0,0,0,7.657-.851C353.586,208.213,352.338,202.985,349.605,200.52Z" transform="translate(-54.167 -23.39)" fill="#fff"/>
      <path id="Path_149569" data-name="Path 149569" d="M325.169,206.675a3.014,3.014,0,0,0,2.983,3.056,4.513,4.513,0,0,0,3.56-2.881,3.11,3.11,0,0,0-3.073-3.779A4.278,4.278,0,0,0,325.169,206.675Z" transform="translate(-51.845 -24.102)" fill="#1e343b"/>
      <path id="Path_149570" data-name="Path 149570" d="M345.236,206.675a3.015,3.015,0,0,0,2.984,3.056,4.512,4.512,0,0,0,3.559-2.881,3.11,3.11,0,0,0-3.072-3.779A4.278,4.278,0,0,0,345.236,206.675Z" transform="translate(-55.12 -24.102)" fill="#1e343b"/>
      <path id="Path_149571" data-name="Path 149571" d="M294.946,216.825c-5.247.395-1.913,17.142-12.9,35.182-2.585,4.244-5.476,9.419-5.3,14.9.1,3.053,1.279,5.692,5.6,5.683,2.206,0,4.154-2.806,4.888-5.717a38.323,38.323,0,0,0,.882-12.063c-.874-15.086,16.165-22.981,12.353-32.85C299.509,219.471,297.145,216.659,294.946,216.825Z" transform="translate(-43.941 -26.346)" fill="#cc3f2b"/>
      <path id="Path_149572" data-name="Path 149572" d="M363.219,221.614c4.3-1.223,5.917,15.745,19.325,29.58,3.154,3.254,7.966,7.06,8.1,12.54.072,2.849.682,7.983-2.689,8.726-1.828.4-5.082-3.448-6.17-5.1-2.972-4.515-3.059-10.125-3.387-11.647-3.161-14.635-18.813-16.965-18.289-27.525C360.245,225.523,361.416,222.126,363.219,221.614Z" transform="translate(-57.546 -27.118)" fill="#cc3f2b"/>
    </g>
  </g>
</svg>
