<svg id="Layer_1" data-name="Layer 1" xmlns="http://www.w3.org/2000/svg" xmlns:xlink="http://www.w3.org/1999/xlink" viewBox="0 0 109.99 57.74"><defs><style>.cls-1{fill:none;}.cls-2{clip-path:url(#clip-path);}.cls-3{clip-path:url(#clip-path-2);}.cls-4{fill:#61b8d5;}.cls-5{fill:#fff;}.cls-6{fill:#28434d;}.cls-7{fill:#c0e3ee;}.cls-8{fill:#9fd3e5;}.cls-9{fill:#def0f6;}</style><clipPath id="clip-path" transform="translate(-320.74 -923.84)"><rect class="cls-1" x="320.74" y="923.84" width="109.99" height="57.74"/></clipPath><clipPath id="clip-path-2" transform="translate(-320.74 -923.84)"><rect class="cls-1" x="320.74" y="923.84" width="109.99" height="57.74"/></clipPath></defs><g id="bear_breathing" data-name="bear breathing"><g class="cls-2"><g class="cls-3"><path class="cls-4" d="M340,951.41c-2.14.2-10.76-16-15.93-8.89-2.74,3.77-5.24,23.44-1,29.87,6.21,9.51,15.32,1.12,36.78,0,7.34-.38,19,1.28,42.32,4.61,17.66,2.52,26.2,4.44,28.21-1.53,1.44-4.27-.75-11.8-4-14.48-5.09-4.15-12.74,3.43-13.1,2.29s10.19-7.17,10.07-14.48c-.07-4.61-6.51-4.58-10.16-4-4.38.7-2.34,3.93-8,7.81-4.7,3.24-10.73,1.59-14.61-2.28-6.71-6.71-3.67-12.05-12.43-14.23-14.42-3.58-8.25,7.51-25.35,13.46-10,3.49-12.75,1.85-12.75,1.85" transform="translate(-320.74 -923.84)"/><path class="cls-5" d="M334.61,947.23a2.45,2.45,0,0,0,1.18-1.37,2.55,2.55,0,0,0-3.21-3.08,2.55,2.55,0,0,0-1.44,3.4,2.63,2.63,0,0,0,3.47,1.05" transform="translate(-320.74 -923.84)"/><path class="cls-6" d="M335.42,944.89a.82.82,0,0,0,.43-.44.72.72,0,0,0-.24-.78,1,1,0,0,0-.93-.2.77.77,0,0,0-.52,1.08,1,1,0,0,0,1.26.34" transform="translate(-320.74 -923.84)"/><path class="cls-5" d="M331.81,946.35A2.4,2.4,0,0,0,333,945a2.49,2.49,0,0,0-.65-2.43,2.52,2.52,0,0,0-2.56-.65,2.56,2.56,0,0,0-1.44,3.41,2.63,2.63,0,0,0,3.47,1" transform="translate(-320.74 -923.84)"/><path class="cls-6" d="M332.36,944.11a.79.79,0,0,0,.43-.43.72.72,0,0,0-.24-.78,1,1,0,0,0-.93-.21.79.79,0,0,0-.52,1.09,1,1,0,0,0,1.26.33" transform="translate(-320.74 -923.84)"/><path class="cls-6" d="M336.57,952.42a1.07,1.07,0,0,0,.59-.61,1,1,0,0,0-.32-1.06,1.39,1.39,0,0,0-1.28-.29,1.09,1.09,0,0,0-.73,1.5,1.42,1.42,0,0,0,1.74.46" transform="translate(-320.74 -923.84)"/><path class="cls-7" d="M371.52,944.19c-1.78-.24-2.59-2.35.53-3,.23,0,2,0,2.09-.25a4,4,0,0,1-1.29-.37,4.44,4.44,0,0,1-1.62-1.33c-1,.76-6.76.25-7.31-.39a2.55,2.55,0,0,1,.08-3.44c.45-.41,5.34.75,6.05.67a5.8,5.8,0,0,1,.44-2.72c-.83-.56-4.52-3.26-4.5-4.75.1-5.5,3.42-.24,4.82.59a11,11,0,0,1,1.93,1.61A5.93,5.93,0,0,1,375,930c0-1.31,1-6,2-6.15s2,3,1.15,4.88c-.33.71-.56,1.76.48,2.26a4.83,4.83,0,0,1,1.24,1.46,3.07,3.07,0,0,1,1-.77c2-.9,4.38.72,4.68.92a1.78,1.78,0,0,1,1.1-.23c.82.11,1.63.88,1.5,1.57a1.69,1.69,0,0,1-2.1,1,5.37,5.37,0,0,1,.18,1.27,5.45,5.45,0,0,1-.4,2.12c1.31.53,1.87,1.6,1.64,2.1s-1.2.71-2.31.35a4.14,4.14,0,0,1-5.28-.59,4.53,4.53,0,0,1-.81-1.23,6.72,6.72,0,0,1-2.1,1.53,2.56,2.56,0,0,1-.53,2,12.56,12.56,0,0,1-5,1.78" transform="translate(-320.74 -923.84)"/><path class="cls-7" d="M368.65,944.34s.11.2.34.48a3.7,3.7,0,0,0,1.23.91c1.46.64,3.68-1.08,4-.63.15.21-.23.79-.5,1.1a3,3,0,0,1-3.68.52,3.68,3.68,0,0,1-1.4-2.38" transform="translate(-320.74 -923.84)"/><path class="cls-7" d="M372.56,948.05c0-.07-.26,0-1,0a2.39,2.39,0,0,1-1.39-.37l-.12-.09c-.53-.44-.63-.91-.71-.89a1.42,1.42,0,0,0,.22,1.33,1.89,1.89,0,0,0,1.67.64c.71-.06,1.32-.46,1.29-.58" transform="translate(-320.74 -923.84)"/><path class="cls-6" d="M338.12,949.33c-.13-.09.44-.75,1.18-2.84.68-1.93.8-3.11,1.38-3.18a.93.93,0,0,1,.83.55c.9,1.69-3.05,5.7-3.39,5.47" transform="translate(-320.74 -923.84)"/><path class="cls-6" d="M339.3,950.16c-.24-.45,1.87-2.19,4-3.19,1.79-.82,4-1.29,4.16-.9s-1.25,1.29-1.8,1.67c-2.66,1.78-6.1,2.94-6.37,2.42" transform="translate(-320.74 -923.84)"/><path class="cls-8" d="M345,979.25c-1.63-.87-8.28-4.44-8.93-11-.32-3.26.78-8.06,4.34-9.69,3.86-1.78,8.68,1.07,11,3.82,2,2.43,1.23,3.78,3.06,5.36,3.15,2.73,9,1.74,12.75,0,6.41-2.95,5.4-7.3,10.46-9.44,6.51-2.74,16.79.83,21.18,8.42,1.28,2.22,3.44,5.94,2,9.18-2.13,4.94-10,3-36.74,5.11-8.11.65-13.36,1.31-19.13-1.79" transform="translate(-320.74 -923.84)"/><path class="cls-5" d="M350.09,963.22a2.45,2.45,0,0,0,1.18-1.37,2.56,2.56,0,0,0-3.21-3.08,2.56,2.56,0,0,0-1.44,3.41,2.63,2.63,0,0,0,3.47,1" transform="translate(-320.74 -923.84)"/><path class="cls-6" d="M350.67,961.89a.9.9,0,0,0,.42-.51,1,1,0,0,0-.23-.9.83.83,0,0,0-.89-.24,1,1,0,0,0-.51,1.26.89.89,0,0,0,1.21.39" transform="translate(-320.74 -923.84)"/><path class="cls-5" d="M346.2,962.35a2.41,2.41,0,0,0,1.18-1.38,2.46,2.46,0,0,0-.65-2.42,2.52,2.52,0,0,0-2.56-.66,2.56,2.56,0,0,0-1.44,3.41,2.64,2.64,0,0,0,3.47,1.05" transform="translate(-320.74 -923.84)"/><path class="cls-6" d="M346.83,960.86a.94.94,0,0,0,.43-.53,1,1,0,0,0-.24-.94.9.9,0,0,0-.93-.25,1,1,0,0,0-.52,1.32.93.93,0,0,0,1.26.4" transform="translate(-320.74 -923.84)"/><path class="cls-8" d="M353.9,967.59a1.91,1.91,0,0,0,.89-1.08,2,2,0,0,0-.5-1.91,1.82,1.82,0,0,0-1.92-.52,2,2,0,0,0-1.08,2.69,1.92,1.92,0,0,0,2.61.82" transform="translate(-320.74 -923.84)"/><path class="cls-6" d="M353.85,966.84a1.07,1.07,0,0,0,.59-.61,1,1,0,0,0-.33-1.06,1.38,1.38,0,0,0-1.28-.28,1.07,1.07,0,0,0-.72,1.49,1.42,1.42,0,0,0,1.74.46" transform="translate(-320.74 -923.84)"/><path class="cls-9" d="M377.71,960.62c1.77.53,3.77,1.13,5.93.17a4.82,4.82,0,0,0,2.5-2.09c.92-1.82-.07-3.87.33-4s1,.79,1.34,1.84c.67,1.91-.17,3.12.67,3.92a1.32,1.32,0,0,0,1.42.34c.73-.42.51-2.26.16-3.43-.1-.37-.32-1-2.75-4.67a7.3,7.3,0,0,1-1.25-2.51,4.51,4.51,0,0,1-.09-2.33c.39-1.42,1.44-1.66,1.34-2.59a1.3,1.3,0,0,0-2.59-.25,5.08,5.08,0,0,0-3.09-.25,4.61,4.61,0,0,0-1.08.41c.3-1.32-.28-2.37-.92-2.5s-1.44.56-1.59,1.42a1.82,1.82,0,0,0,.75,1.75,2.9,2.9,0,0,0-.83,1.84,3.13,3.13,0,0,0,1.17,2.42c1,.81,2,.49,2.25,1.09s-.51,1.32-.92,1.75c-1.19,1.27-2.2,1.16-2.5,2.09-.21.63,0,1.43.42,1.58.67.27,1.64-1.4,2.08-1.17s.33,1.38-.25,1.76c-.81.54-2.07-1-3.42-.42-.45.19-.89.61-.84.92s.65.52,1.19.7a3.34,3.34,0,0,0,.65.16c.89.17,1.38,0,1.42.14s-.48.58-1.11.6-1-.58-1.61-.46c-.37.07-.76.37-.76.66,0,.53,1.33.93,2,1.12" transform="translate(-320.74 -923.84)"/></g></g></g></svg>