<svg xmlns="http://www.w3.org/2000/svg" viewBox="0 0 1263.54 1431.95"><defs><style>.cls-1{fill:#fcd248;}</style></defs><g id="Layer_2" data-name="Layer 2"><g id="Layer_1-2" data-name="Layer 1"><path class="cls-1" d="M721.65,1309.62c6.81,9.81,51.72,72.33,133.81,81.5,89.14,10,187.74-46.84,200.71-128.68,11.94-75.28-55-131.43-62.12-137.26,28.3,4.94,89.66,11.65,148.14-17.16C1248.72,1055.53,1301,907.16,1233,833.5c-41.72-45.17-115.2-47.62-143.37-47.18,82.47-23.77,141.21-87,148.15-158.71,8.59-88.7-63.52-176.1-172-197.3,61.58-25.69,104.56-74.44,105.14-124.4.83-73.1-89.11-150.3-210.28-141.54.92-5.15,17-101.84-38.23-137.26C867.33-8.18,745,19.6,669.08,130.05,620.59,42.83,529.67-9.27,454,1.37c-102.29,14.4-197.9,146.54-143.37,296-88.21-49.25-192.73-36.47-239,12.86C15.09,370.64,34.43,498.26,153,559c-20,5.29-104.74,29.83-138.59,98.66C-27.54,742.85,23.29,866.1,153,932.16c-4,3.69-90.1,86.37-62.12,171.57,28.12,85.65,163,147.7,305.85,102.94-37.87,80.95-35.69,165.36,9.56,201.6C465.49,1455.74,618.06,1436.2,721.65,1309.62Z"/></g></g></svg>