<svg xmlns="http://www.w3.org/2000/svg" viewBox="0 0 500.59 610.67"><defs><style>.cls-1{fill:#fcd248;}.cls-2{fill:#fddd70;}</style></defs><g id="Layer_2" data-name="Layer 2"><g id="Layer_1-2" data-name="Layer 1"><path class="cls-1" d="M448.12,66.46c51.49,66,52.49,144.19,52.47,172.47-.08,118.33-62.27,285.5-212,347.15C152.49,642.08.29,587.89,0,566.18c-.14-10.59,35.85-11.67,102.74-37.59,64-24.81,142.43-55.19,196.74-121.61,83.93-102.67,72-244.6,69.95-265.34C361.85,64.05,332,14.38,349.75,2.34,367.66-9.82,417.71,27.49,448.12,66.46Z"/><path class="cls-2" d="M274.26,506.13c30.74-17.1,56.8-31.59,78.32-52.21,105.5-101.07,58-306.93,73.11-308.08,7.35-.56,19.28,48.06,22,91.88,1.9,30.16,5.88,112.13-47.46,192.08-40.46,60.65-92.85,88.61-117.92,101.61-82.44,42.72-163.58,41.93-164.64,37.08C116.72,564,185.63,555.44,274.26,506.13Z"/></g></g></svg>