<svg width="150" height="150" viewBox="0 0 150 150" fill="none" xmlns="http://www.w3.org/2000/svg" style="fill:#384b4a">
<g clip-path="url(#clip0)">
<path d="M18.75 46.875V140.625C18.75 145.781 22.9687 150 28.125 150H112.5C117.656 150 121.875 145.781 121.875 140.625V46.875H18.75ZM46.875 131.25H37.5V65.625H46.875V131.25ZM65.625 131.25H56.25V65.625H65.625V131.25ZM84.375 131.25H75V65.625H84.375V131.25ZM103.125 131.25H93.75V65.625H103.125V131.25Z" fill="black"/>
<path d="M124.219 18.75H93.75V7.03125C93.7426 5.16873 92.9994 3.3846 91.6824 2.06759C90.3654 0.750574 88.5813 0.00740575 86.7188 0L53.9062 0C52.0437 0.00740575 50.2596 0.750574 48.9426 2.06759C47.6256 3.3846 46.8824 5.16873 46.875 7.03125V18.75H16.4062C14.543 18.7549 12.7574 19.4973 11.4399 20.8149C10.1223 22.1324 9.37995 23.918 9.375 25.7812V37.5H131.25V25.7812C131.245 23.918 130.503 22.1324 129.185 20.8149C127.868 19.4973 126.082 18.7549 124.219 18.75ZM84.375 18.75H56.25V9.49688H84.375V18.75Z" fill="black"/>
</g>
<defs>
<clipPath id="clip0">
<rect width="150" height="150" fill="white"/>
</clipPath>
</defs>
</svg>
