<svg xmlns="http://www.w3.org/2000/svg" viewBox="0 0 1026.98 770.63"><defs><style>.cls-1{fill:#abc866;}.cls-2{fill:#bfd788;}.cls-3{fill:#d5e5b2;}.cls-4{fill:#29424c;}.cls-5{fill:#eaf1d7;}.cls-6{fill:#fff;}.cls-7{fill:#596a25;}.cls-8{fill:#475c64;}.cls-9{fill:#153138;}.cls-10{fill:#d2dfb0;}.cls-11{fill:#455b64;}</style></defs><g id="Layer_2" data-name="Layer 2"><g id="Layer_1-2" data-name="Layer 1"><path class="cls-1" d="M1027,1V768.52H626.63a259,259,0,0,1-39.92,2,184.8,184.8,0,0,1-20.45-2H.64V480.35c-.7-1.17-.8-1.81-.42-2a.77.77,0,0,1,.42-.08V1Z"/><path class="cls-2" d="M326.09,768.52H75.44c-5.46-2.18-11.6-4.59-18.28-7.31C43,755.46,26.43,748.33,8.81,739.06q-4.05-2.13-8.17-4.42v-59.2c9.53,7.83,18,14.78,25.56,20.52h0c4.1,3.12,7.91,5.88,11.46,8.22l.35.24h0c11.61,7.62,20.28,10.72,26.45,7.36,3.62-2,6.27-6.11,8-11.9h0c.2-.64.39-1.34.57-2v-.05A86.26,86.26,0,0,0,75,675.59c-.1-4.66-.46-9.63-1-14.83a233.39,233.39,0,0,0-4.64-26.5q-.9-3.87-1.94-7.8a270.91,270.91,0,0,0-18-48.79l-.12-.25q-2.78-5.68-5.25-10.89C39.65,557.38,35.9,549.3,32.56,542c-.24-.54-.49-1.07-.73-1.6l-4.26-9.31c-2-4.39-3.88-8.47-5.7-12.34A305.34,305.34,0,0,0,7.8,491.65c-2.07-3.49-4.28-7-6.69-10.55-.18-.27-.34-.52-.47-.75-.7-1.17-.8-1.81-.42-2a.77.77,0,0,1,.42-.08,11.74,11.74,0,0,1,4.07,1.68A121.45,121.45,0,0,1,15,486.64c5.22,3.71,10.54,7.8,13.58,10.38a91.39,91.39,0,0,1,14,14.22l.57.75c5.74,7.56,11.19,17.3,21.93,35.45q2,3.34,3.8,6.62,2.31,4.16,4.39,8.17l.92,1.8c3.23,6.37,6.06,12.49,8.62,18.36,6.77,15.55,11.67,29.38,17.4,41.69A128,128,0,0,0,110,641.83v0l1.41,2.07h0c.78,1.12,1.53,2.24,2.3,3.29a.09.09,0,0,0,0,.06c2.25,3.2,4.43,6.11,6.47,8.73q.78,1,1.59,2a.19.19,0,0,0,.06.07q2.85,3.55,5.84,7a222.25,222.25,0,0,0,22.8,22.46q1.72,1.47,3.47,2.91,2.46,2,4.94,3.94a227.31,227.31,0,0,0,29.28,19.4,166.86,166.86,0,0,0,27.29,12.28h0a77.48,77.48,0,0,0,17.66,4c6.1.52,10.74-.34,13.35-2.66.15-.14.3-.28.44-.43,6.51-6.86-3-24.41-12.49-43.43l-1.95-4q-1.28-2.58-2.5-5.17c-2.12-4.5-4.11-9-5.75-13.39a87.1,87.1,0,0,1-2.75-8.56,55.52,55.52,0,0,1-1.18-5.6,36.25,36.25,0,0,1-.39-3.65,7.09,7.09,0,0,1,0-.79h0a21.45,21.45,0,0,1,2.71-12.15v0c.11-.17.21-.34.32-.5a15.4,15.4,0,0,1,1.2-1.62,17.51,17.51,0,0,1,2.1-2.12h0a23.88,23.88,0,0,1,6.89-4.08,28.23,28.23,0,0,1,7-1.78,26.83,26.83,0,0,1,3.44-.22c4.22,0,8.19,1,11,3.14a10.73,10.73,0,0,1,2.44,2.51,13.94,13.94,0,0,1,2.22,5.41c.94,4.53.59,10.25.26,16.95-.1,2-.2,4-.25,6.15h0c-.11,3.41-.11,7,.11,10.81h0c.07,1.24.16,2.49.29,3.77.28,2.83.68,5.54,1.19,8.17a83.38,83.38,0,0,0,4,13.9,125.38,125.38,0,0,0,11.2,21.57c1.81,2.88,3.74,5.81,5.78,8.83,1.81,2.71,3.72,5.49,5.69,8.37q2.56,3.74,5.14,7.12C303.9,751.4,315.14,761.24,326.09,768.52Z"/><path class="cls-2" d="M666.92,652.68c-4,2.29-7.67,4.25-11.13,6h0a144.34,144.34,0,0,1-19.43,7.87h0c-3.59,1.16-6.93,2.1-10.13,3-8.45,2.33-15.86,4.22-24.1,8.59a69.6,69.6,0,0,0-9.53,6.08,76.75,76.75,0,0,0-13.78,13.59h0c-14,17.71-21.81,41.83-28.78,68-.18.64-.35,1.29-.52,1.94-.07.28-.15.56-.22.84H461.16q-1.7-4.53-3.68-9a146.13,146.13,0,0,0-12.75-23.13c-8.27-12.17-14.72-17.19-32.92-30.12l-7.71-5.46c-3-2.11-6.21-4.42-9.77-7-1.58-1.15-3.25-2.33-4.95-3.57a22.72,22.72,0,0,0-8.64-8.15,52.38,52.38,0,0,0-5.82-2.75c-.35-.15-.7-.28-1.07-.42-4.16-3.09-8.62-6.41-13.42-10a1.13,1.13,0,0,0-.23-.17c-2.19-1.65-4.32-3.25-6.36-4.8-4-3-7.65-5.86-11.11-8.54q-3.17-2.46-6.06-4.74l-.87-.69h0c-2.06-1.63-4-3.19-5.88-4.7-5.21-4.21-9.7-8-13.6-11.37-5.31-4.63-9.51-8.62-12.95-12.2-.23-.24-.46-.47-.68-.71a88.69,88.69,0,0,1-8.5-10.37c-1-1.5-2-3-2.82-4.43-.48-.81-.93-1.63-1.37-2.45s-.81-1.53-1.2-2.3q-1.22-2.4-2.32-4.86c-1.28-2.86-2.46-5.77-3.52-8.69-1.4-3.86-2.61-7.75-3.63-11.6-.47-1.75-.89-3.49-1.28-5.22a130.26,130.26,0,0,1-2.31-13.75q-.34-3.2-.5-6.21a81.07,81.07,0,0,1,.1-10.87c.73-8.83,3.16-15.08,7.14-16.78a2.19,2.19,0,0,1,.33-.12h0l.14,0a5,5,0,0,1,3-.06H286l.14,0h0c4.11,1.16,9.12,6.33,16.46,14.88,2.61,3,5.51,6.52,8.78,10.39q2.44,2.91,5.18,6.11,2.43,2.83,5.08,5.9c1.74,2,3.55,4.07,5.46,6.2q3.75,4.23,7.95,8.8l3.16,3.39c1.77,1.88,3.59,3.81,5.48,5.78q4.74,4.93,10,10.19l.48.48c2.65,2.63,5.31,5.2,8,7.73,1.15,1.09,2.32,2.16,3.49,3.24,6.49,5.94,13.29,11.76,20.84,17.9,3.24,2.66,6.66,5.37,10.22,8.15,2.35,1.85,4.77,3.74,7.29,5.67,3.09,2.39,6.28,4.83,9.64,7.34,0,0,0,0,0,0,1.18.89,2.38,1.81,3.61,2.73l5.52,4.14,7.2,5.38c4.67,3.49,9.58,7.14,14.8,11,2.7,2,5.45,4.07,8.29,6.17l2.43,1.79c46.59,34.51,56.41,38.39,67.27,35.83a26.68,26.68,0,0,0,4.77-1.58h0a29,29,0,0,0,10.26-8h0c.26-.3.52-.61.76-.92,4.11-5,8.17-11.57,13.76-19.89a293.76,293.76,0,0,1,19.29-25.75c3.41-4.07,7.21-8.36,11.45-12.89,12.61-13.45,21.66-23,31.85-29.7a69.92,69.92,0,0,1,16.19-7.88c1.39-.47,2.78-.9,4.18-1.29h0a89.07,89.07,0,0,1,14.28-2.75h0a100.22,100.22,0,0,1,13.66-.57h0a93.54,93.54,0,0,1,16.36,1.83h0c13.6,2.79,23.6,8.44,24.88,15a3.87,3.87,0,0,1,.11.89h0C705.67,630.3,682.1,643.9,666.92,652.68Z"/><path class="cls-2" d="M1027,561.22v38.3c-6.05,5.51-10.76,9.21-12.47,10.54-16.91,13.1-29.33,18.19-28.54,27.13.42,5,4.94,10,39.94,25.7l1.07.48v29c-.84-.57-1.69-1.13-2.56-1.69l-1.92-1.23c-2-1.22-3.94-2.42-6-3.61l0,0a95.56,95.56,0,0,0-31.92-13.25c-38.69-7.71-64.42,17.48-161.59,96H739.7c10.27-10.19,20.83-20.58,32.19-31.43,36.38-34.78,63.57-57.73,83.85-73.05h0a333.7,333.7,0,0,1,29.68-20.27,132.09,132.09,0,0,1,22.05-10.87,375.15,375.15,0,0,0,51.36-22.83C986.85,594.94,1009.8,582.55,1027,561.22Z"/><path class="cls-2" d="M932.79,518a30.8,30.8,0,0,1-4.45-1.9Z"/><path class="cls-2" d="M1027,692.33v.73c-3.36-2.54-6.85-5-10.48-7.25,1,.59,2,1.18,3,1.78s2,1.21,3,1.82l1.92,1.23C1025.29,691.2,1026.14,691.76,1027,692.33Z"/><path class="cls-3" d="M1003.87,317l-21.54,30-52.27-37.06q-23.74,177.42-47.44,354.83L110,643.88q6.75-208.71,13.55-417.44-19.89,10.5-39.76,21-10.8-15-21.55-30Q273.76,136.89,485.33,56.36l210.91,106q21.24,10.69,42.49,21.35Q871.3,250.37,1003.87,317Z"/><path class="cls-2" d="M782.92,0c-6.13,5.61-12.37,11-18.39,16.14-.88.73-1.84,1.52-2.86,2.38C755.81,23.4,750.18,27.92,745,32c-5.94,4.63-11.32,8.59-16.22,12.07C718,51.65,709.56,56.84,702.62,61.08c-15,9.09-23.13,13.61-33,28.34-10.35,15.32-15.89,31.71-18.56,48.92q-21.24-10.68-42.5-21.36c-2.94-13.41-7.38-27.44-16.18-41.93C567.3,33.7,531.58,29,533.09,6.8a23.77,23.77,0,0,1,1.5-6.8h52.17c20.83,29.34,37.49,80,52.3,76.84,8.26-1.75,10.88-19.72,16.16-55.67,1.15-7.78,2.17-14.77,3-21.17H686c-.8,13.37.5,23.48,7,26.55a.66.66,0,0,0,.21.08,10.44,10.44,0,0,0,3.8.87c6.15.4,14.68-3.08,24-9.27l2.27-1.57c3.36-2.38,6.8-5.09,10.24-8.07,3-2.67,6.09-5.52,9.07-8.59Z"/><path class="cls-4" d="M882.06,295.21l-.82,7.07Q862.57,466.13,843.9,630l-2.78-.25L731.61,514l-477.46,10L143.21,604.83q2.59-103.38,3.4-209.9.58-81.45.06-161c0-2.25,0-4.51,0-6.74,0-1.06,0-2.12,0-3.19q106.79-32.49,218.55-71.21,61.18-21.27,120-43.21c2.78-1,5.55-2.06,8.3-3.08q64.5,34,131.83,67.64,130.88,65.28,256.51,121A.81.81,0,0,0,882.06,295.21Z"/><path class="cls-5" d="M932.5,153.72c.75,8.24-38.54,24.38-80.58,23.44a161,161,0,0,1-86.43-27.84,159.59,159.59,0,0,1-62.87-88.24C709.56,56.84,718,51.65,728.79,44c5,20.25,4.27,30.17,10.32,32.07,5.55,1.75-1.19-10.55,14.66-26.38,13-13,27.88-11.76,27.84-13.18-.32-7.8-10-10-19.94-18,1-.86,2-1.65,2.86-2.38C772.35,9.68,775,7.72,783,0H798.1a2.68,2.68,0,0,1,1.09,1.38c11.55,32.55,35.17,52.77,45.39,61.51,18.1,15.49,43.92,29.55,54.22,35.18,14.39,7.84,26.94,13.57,26.36,20.5-.78,9.42-25.13,12-24.9,19C900.53,145.55,931.83,146.53,932.5,153.72Z"/><path class="cls-5" d="M742.51,1h17.74a32.23,32.23,0,0,1-4.9,7.82c-1.48,1.67-13.28,11.28-19.22,8.22-2.51-1.3-3-4.26-2.69-7.45a46.52,46.52,0,0,1,1.23-7c.12-.55.25-1.07.41-1.63Z"/><path class="cls-5" d="M720.43,28c2-4,5.26-10,1.45-13-5.16-4-18.56,1.84-20.34,3-5.42,3.44-13.35,13.29-10.63,18.79,2.12,4.31,8.63,4.5,9.58,4.54C709.26,41.72,717.22,34.48,720.43,28Z"/><path class="cls-6" d="M753.89,70.72c-3.7,3.86-2.8,10.74-.59,15,1.94,3.71,6.46,8.37,12.32,7.48s10.33-7,10-13.09c-.44-7.63-8.06-11.31-12.9-11.84C761.35,68.08,756.88,67.59,753.89,70.72Z"/><path class="cls-6" d="M768.25,53.21c-3.31,4.2-2.5,11.69-.53,16.29,1.74,4,5.8,9.11,11,8.14s9.26-7.58,8.94-14.25a13.7,13.7,0,0,0-11.57-12.9C774.94,50.33,770.94,49.8,768.25,53.21Z"/><path class="cls-4" d="M768.8,66.87c-1.36,1.31-1,3.64-.21,5.07a4.76,4.76,0,0,0,4.57,2.54,4.36,4.36,0,0,0,3.7-4.44c-.16-2.59-3-3.84-4.79-4A4.17,4.17,0,0,0,768.8,66.87Z"/><path class="cls-4" d="M754.47,81.58c-1.37,1.3-1,3.64-.21,5.07a4.75,4.75,0,0,0,4.57,2.54,4.37,4.37,0,0,0,3.7-4.44c-.17-2.59-3-3.84-4.79-4A4.13,4.13,0,0,0,754.47,81.58Z"/><path class="cls-4" d="M763,130.2c3-5.18,16.93.79,26-5.59,10.65-7.47,6-25.79,9.59-26.3,2.22-.31,5.07,6.47,6.38,11.94,1.94,8.09,5,21-4.65,29-9.41,7.78-26.33,7.14-33.72.12C766.38,139.17,760.9,133.84,763,130.2Z"/><path class="cls-7" d="M549.66,768.52H534.59c-.19-1-.37-2.12-.55-3.2-1.16-7-2.26-14.54-3.29-22.9-1.34-10.85-2.35-21.37-3.09-31.51-.19-2.67-.37-5.32-.52-7.94q-.82-13.63-1-26.26c-.15-7.48-.16-14.69-.05-21.58.25-17.06,1.15-32.21,2.25-45.11.2-2.24.4-4.42.6-6.52l12.53.66q-.48,3.18-.91,6.31a433.67,433.67,0,0,0-3.87,44.95c-.27,8.26-.28,16.15-.08,23.66.21,8.11.66,15.79,1.29,23,0,.28,0,.55.07.83a361.62,361.62,0,0,0,5.56,38.65c1.54,7.72,3.4,15.72,5.44,24,.17.7.34,1.4.52,2.11Z"/><path class="cls-7" d="M658.82,768.52h-11c-.11-1-.22-2.09-.35-3.15a322.43,322.43,0,0,0-9.9-51c-1.46-5.18-3.09-10.45-4.68-15.85-1.79-6.08-3.54-12.34-4.94-18.87-.71-3.32-1.34-6.71-1.83-10.18-.54-3.79-.93-7.67-1.11-11.67a111.44,111.44,0,0,1,2.34-28.63,118.81,118.81,0,0,1,4.05-14.55c1.25-3.61,2.6-7,4-10h0a127.15,127.15,0,0,1,6.28-12.22q6.46.66,12.95,1.36c-1.55,2.34-3.23,5-4.94,8.11h0a116.7,116.7,0,0,0-6.39,13.42,108.56,108.56,0,0,0-5,16,102.68,102.68,0,0,0-2.62,26.86c.1,2.86.31,5.66.61,8.41.43,3.84,1,7.58,1.77,11.23,1.43,7.17,3.35,14,5.33,20.57,1.51,5,3.05,9.93,4.44,14.72a332.91,332.91,0,0,1,10.35,50.26C658.41,765,658.62,766.78,658.82,768.52Z"/><path class="cls-7" d="M566.26,768.52H528.18a14.28,14.28,0,0,1,5.86-3.2c4.05-1.12,8.87-.71,14.89.25l1,.17C554.63,766.52,560,767.58,566.26,768.52Z"/><path class="cls-7" d="M682.52,768.52H626.63c7.46-.9,14.55-2,20.89-3.15,3.86-.69,7.45-1.4,10.67-2.09,8.9-1.91,15-3.67,16.62-4.49a2.56,2.56,0,0,1,1.31-.3C678.75,758.67,681.47,763.7,682.52,768.52Z"/><path class="cls-7" d="M502,676.63c6.73-8.11,29.44,4.47,65.61,7.25,52.82,4,89.93-16.19,96.86-5.44,2.6,4-.71,9.87-3.12,12.68-8.78,10.23-28.62,7.23-51,6.34-63.49-2.52-87.9,14.3-103.11-.91C501.3,690.67,498.1,681.3,502,676.63Z"/><path class="cls-7" d="M842.89,629.7c-113-10.11-232.59-17.49-358-21.1-118.64-3.42-232.14-3.1-340,0,0-1.25.06-2.5.08-3.77l110.93-80.91,477.46-10Z"/><path class="cls-3" d="M725.82,422.54c9.86-4.93,10.18-5.66,23.54-8.9,16.22-3.93,43.14-1.16,62.06,12.69,25.66,18.8,40.17,52.43,38.08,84.62-3.26,50-46,87.15-87.44,97.32-34,8.34-83,2.38-98.73-26.8-7.54-14-8.78-35.7,1.41-45.13,12-11.15,31.66,2.64,42.31-8.46,4.23-4.41,3.54-9.09,2.82-50.77-.36-21.38.3-30.11,2.74-36.46C716.12,431.53,717.51,426.69,725.82,422.54Z"/><path class="cls-5" d="M687.12,585c5.82,1.21,12.8,2.6,21.82,1.19,15.3-2.38,25.23-11,28.95-14.27,16.7-14.55,38.35-50.6,20.23-78.54-15.6-24-53.13-30.43-67.83-18.24-11.61,9.62-5.66,28.07-23.79,42.83-5.65,4.6-9.27,5.29-14.28,11.51-1.6,2-12.46,15.46-9.12,28.95C647.63,576.76,675.32,582.52,687.12,585Z"/><path class="cls-3" d="M689.9,566.33c-5.08-5-13.3-5.77-19.44-3.57-12.81,4.6-20.3,23.63-12.29,34.11,5.46,7.16,17.16,9,25.38,4.76C696.09,595.11,698.86,575.12,689.9,566.33Z"/><path class="cls-3" d="M658.8,536.19c-.39-1.12-5.21-14.89-13.13-15.47-10-.73-25,19.48-20.14,36.09,1.76,6,7,14.51,14.45,15.08,9.18.7,16.85-11.1,19.26-19A27,27,0,0,0,658.8,536.19Z"/><path class="cls-6" d="M739.79,441.66c-4.31-4.14-12-6.14-17.44-1.94-5.63,4.37-5.61,13-1.94,18.09,5.07,7.05,17.25,7.54,22,1.3C746,454.26,744.55,446.23,739.79,441.66Z"/><path class="cls-6" d="M760.35,447.27c-4.31-4.14-12-6.14-17.45-1.94-5.63,4.38-5.61,13-1.94,18.1,5.08,7,17.25,7.54,22,1.29C766.6,459.87,765.1,451.84,760.35,447.27Z"/><path class="cls-8" d="M751.91,461.05c-1.47-1.41-4.1-2.09-5.95-.66a4.62,4.62,0,0,0-.66,6.17c1.73,2.4,5.88,2.57,7.49.44C754,465.35,753.53,462.61,751.91,461.05Z"/><path class="cls-8" d="M731.24,455.9c-1.47-1.41-4.1-2.1-6-.66a4.63,4.63,0,0,0-.66,6.17c1.73,2.4,5.88,2.57,7.49.44C733.37,460.2,732.86,457.46,731.24,455.9Z"/><path class="cls-6" d="M717.26,496.73c3,4.1,9.28,7,14.58,4.54,5.52-2.59,6.89-9.6,4.58-14.37-3.19-6.58-13.5-9.06-18.54-4.79C714,485.43,713.94,492.21,717.26,496.73Z"/><path class="cls-6" d="M700.62,488.67c3,4.1,9.28,7,14.58,4.54,5.52-2.59,6.89-9.6,4.58-14.37-3.19-6.58-13.5-9.06-18.54-4.78C697.32,477.37,697.3,484.15,700.62,488.67Z"/><path class="cls-8" d="M699,485a4.27,4.27,0,0,0,5,1.55,3.71,3.71,0,0,0,1.56-4.91c-1.09-2.24-4.61-3.09-6.33-1.63C697.91,481.1,697.9,483.41,699,485Z"/><path class="cls-8" d="M714.81,490.4a4.26,4.26,0,0,0,5,1.55,3.71,3.71,0,0,0,1.56-4.9c-1.09-2.25-4.61-3.09-6.33-1.64C713.69,486.55,713.68,488.86,714.81,490.4Z"/><path class="cls-8" d="M698.1,505.08c-1.47-1.41-4.1-2.1-6-.66a4.63,4.63,0,0,0-.66,6.17c1.73,2.4,5.88,2.57,7.49.44C700.23,509.38,699.72,506.64,698.1,505.08Z"/><path class="cls-3" d="M772.53,534.35c-5.07-5-13.3-5.77-19.43-3.57-12.81,4.6-20.31,23.63-12.3,34.11,5.47,7.16,17.17,9,25.39,4.76C778.73,563.13,781.5,543.14,772.53,534.35Z"/><path class="cls-5" d="M522.19,511.19c6.24.41,13-5,12.58-11.1s-8.34-11.17-14.8-8.87c-5.5,1.95-8.86,8.8-6.65,14C514.87,509,518.82,511,522.19,511.19Z"/><path class="cls-6" d="M528.65,496.59c.6-.22,2.19,1.65,2.56,3.84.2,1.15.3,3.82-1.28,4.49-1.24.53-3.12-.37-3.36-1.44-.2-.85.77-1.2,1.44-2.89C528.89,498.39,528.12,496.78,528.65,496.59Z"/><path class="cls-5" d="M640.06,500.9c9.86.64,20.61-7.93,19.87-17.53-.75-9.78-13.18-17.64-23.37-14-8.69,3.09-14,13.9-10.52,22.2C628.5,497.42,634.74,500.54,640.06,500.9Z"/><path class="cls-6" d="M650.26,477.83c1-.34,3.47,2.61,4,6.08.31,1.8.47,6-2,7.08-2,.83-4.93-.58-5.32-2.27-.3-1.34,1.22-1.9,2.28-4.56C650.64,480.68,649.43,478.13,650.26,477.83Z"/><path class="cls-5" d="M579.55,525.4c8.23.54,17.21-6.62,16.59-14.64s-11-14.74-19.52-11.71c-7.25,2.58-11.69,11.61-8.78,18.54C569.89,522.5,575.1,525.11,579.55,525.4Z"/><path class="cls-6" d="M588.07,506.14c.79-.29,2.9,2.17,3.38,5.07.26,1.51.4,5-1.69,5.92-1.64.69-4.11-.49-4.44-1.9-.25-1.12,1-1.59,1.91-3.81C588.39,508.52,587.37,506.38,588.07,506.14Z"/><path class="cls-5" d="M532.1,481.27c3.89.25,8.13-3.13,7.84-6.93s-5.2-7-9.23-5.54c-3.43,1.22-5.53,5.5-4.15,8.77A6.5,6.5,0,0,0,532.1,481.27Z"/><path class="cls-6" d="M536.13,472.16c.37-.14,1.36,1,1.59,2.4.12.71.19,2.38-.8,2.8a1.72,1.72,0,0,1-2.09-.9c-.13-.53.48-.75.9-1.8C536.27,473.28,535.8,472.27,536.13,472.16Z"/><path class="cls-5" d="M487.66,523.74c3.89.25,8.14-3.13,7.85-6.93s-5.21-7-9.24-5.54c-3.43,1.22-5.52,5.49-4.15,8.77A6.5,6.5,0,0,0,487.66,523.74Z"/><path class="cls-6" d="M491.69,514.63c.37-.14,1.37,1,1.6,2.4.12.71.18,2.38-.8,2.79a1.71,1.71,0,0,1-2.1-.9c-.12-.52.48-.75.9-1.79C491.84,515.75,491.36,514.74,491.69,514.63Z"/><path class="cls-9" d="M183.29,605.88c0,.59,0,1.17,0,1.75-.05,3.78-.21,7.51-.46,11.16,0,.2,0,.4,0,.6-.38,5.31-1,10.45-1.77,15.38h0c-.25,1.54-.51,3.05-.8,4.54-.42,2.2-.87,4.34-1.37,6.43q-1,4.32-2.26,8.3c-.31,1-.63,2-1,3q-1.4,4.1-3,7.74-1.34,3-2.81,5.69c-3.69,6.68-8,11.71-12.84,14.59a19.25,19.25,0,0,1-5.76,2.34q-.31.08-.63.12a16.47,16.47,0,0,1-3.34.3c-5.08,0-10.11-2.23-15.12-5.78h0C122,674.89,111.93,662.25,102,650.82l-.11-.12-1.18-1.34h0C89.55,636.73,78.48,626,67.37,626.46a16.7,16.7,0,0,0-3.85.62,14.92,14.92,0,0,0-1.81.63,19.22,19.22,0,0,0-3.26,1.72,29.7,29.7,0,0,0-7.92,8,50.25,50.25,0,0,0-3.07,5.08c-.2.38-.4.77-.59,1.16A73.28,73.28,0,0,0,43,653.28c-4.82,14.44-6.81,32.94-5.28,50.9a124.82,124.82,0,0,0,3.06,19v0c3.65,14.83,8.91,22.86,16.43,38,1.12,2.26,2.29,4.68,3.52,7.31h-39A278.25,278.25,0,0,1,8.81,739.06c-1.56-4.23-3-8.55-4.35-12.92q-2.1-6.89-3.82-14V591.79a205.17,205.17,0,0,1,7-22.24A186.07,186.07,0,0,1,15.25,552q1-2,2.05-4,2.63-5,5.56-9.72c.43-.7.87-1.39,1.31-2.08q1.65-2.61,3.4-5.13Q29.7,528,32,525.05a150.77,150.77,0,0,1,11.1-13l.1-.1q3.16-3.3,6.54-6.39l.72-.66c2.1-1.92,5-4.49,8.39-7.33,1.92-1.57,4-3.23,6.29-4.9.87-.64,1.76-1.29,2.68-1.93,2.15-1.5,4.41-3,6.79-4.43,2.21-1.34,4.51-2.63,6.89-3.82A76.11,76.11,0,0,1,95.81,477a51.37,51.37,0,0,1,19.63-1.63,41.32,41.32,0,0,1,4.49.77c3.72.84,13.73,3.61,25.56,16.15a105.37,105.37,0,0,1,12.95,17.13c.12.2.25.4.37.61q3.58,5.87,6.59,12.08A159.63,159.63,0,0,1,172.08,538c1.92,5.35,3.58,10.82,5,16.33.24.92.47,1.84.68,2.76Q179,562.3,180,567.59q.87,4.68,1.48,9.36h0c.06.4.11.78.16,1.17.8,6.23,1.31,12.43,1.55,18.54Q183.32,601.32,183.29,605.88Z"/><path class="cls-10" d="M154,662.39c15.49-10.46,7.36-41.79,6.54-44.95-6.76-26.08-31.62-59.19-66.44-59.23-26.78,0-45.14,19.52-51.71,26.51-21.23,22.59-23,49.35-23.74,63.62-2.15,41.88,22.19,78.94,22.1,74.86-.09-3.84-10.91-39.63,9.11-69.07,6.95-10.23,18.57-24.37,30.52-21.74,7.39,1.62,13.53,9.93,21.6,18.43C115.2,664.77,141,671.16,154,662.39Z"/><path class="cls-4" d="M117,545.44c2,13.86-31,19.43-37.88,45.94-3.42,13.16,1.33,24.84-1.86,25.71-3,.82-9.62-8.61-12.68-17.81-9-27.09,8.41-66,29.48-67.84C103.8,530.61,115.87,537.53,117,545.44Z"/><path class="cls-4" d="M9.8,613.43c11.38,13,27.47,23,34.57,28.4,4.89,3.7-18.57,4-35.83-10.22C3.09,627.11,6.52,609.69,9.8,613.43Z"/><path class="cls-6" d="M44.17,611.22c6.17,1.81,16.87,11.91,17.64,17,.12.83.25,1.79-.87,1.84-3.65.16-19.44-9.38-21.55-15.19C38.4,612.09,40.43,610.12,44.17,611.22Z"/><path class="cls-6" d="M24.36,652.65c3.62-1.91,12.79.2,15.26,3.73.4.58.85,1.26.35,1.9-1.63,2.1-12.93,3.17-16.33-.23A3.3,3.3,0,0,1,24.36,652.65Z"/><path class="cls-10" d="M422.29,580.9c-22.4,13.32-42.36,15.8-60,22.24q-3.19,1.15-6.28,2.52c-.46.2-.9.42-1.33.64-12.92,6.57-10.83,19.05-17.8,43.72-.07.22-.13.44-.19.66a197.77,197.77,0,0,1-15.59,38.13,552,552,0,0,1-28.38,47.83c-7.89,12-14.76,21.83-20.7,31.88H175L159,694.37l-1-4.52-1-4.79-2.78-12.85-1.9-8.78-.45-2-3.56-16.47-15.51-71.56-2.08-9.63,3.75-.83c2.75-.6,6-1.31,9.82-2.11,8.23-1.73,18.76-3.87,30.94-6.15l1.89-.35c5.13-.95,10.55-1.92,16.2-2.9l5.64-1,6-1,1.87-.3c5.28-.85,10.72-1.7,16.27-2.52l2.21-.32,7.21-1,3.73-.5c2.37-.33,4.76-.64,7.16-.95l4-.5c3.53-.45,7.09-.87,10.67-1.28,5.72-.64,11.49-1.25,17.29-1.78,9.1-.86,18.26-1.57,27.37-2.09,4.3-.24,8.6-.45,12.87-.6,3-.11,28.44.7,79.29,2.33,33.72,1.08,116.54-.4,119.34,6.51C518.31,556.62,438.15,571.46,422.29,580.9Z"/><path class="cls-9" d="M162.31,606.18s108.87-1.41,143.18-3c28.42-1.31,29.83,27.39,25.51,39.23s-17.92,38.24-41.55,35.09S162.31,606.18,162.31,606.18Z"/><path class="cls-10" d="M223.87,630.45c-7.53-5.39-5.51-15.42,3.29-16.36,19.58-2.08,47.29-4.6,62-4,24.39,1,29.3,24.45,27,33.17S305.1,671,284.11,666.05C270.82,662.9,242.72,644,223.87,630.45Z"/><path class="cls-9" d="M144.78,579.61a5.06,5.06,0,0,1,4.14-6.35c18.32-3.37,81.58-15,113.42-20.4,39.4-6.73,145.61-7,171.13-1.12s-52.82,37.94-71.87,42.31c-14.74,3.39-164.76,2.86-191.15,2.5C152.58,596.31,146.71,586.14,144.78,579.61Z"/><path class="cls-10" d="M190.82,576.28a3.45,3.45,0,0,1,2.82-4.33c12.52-2.3,55.69-10.21,77.43-13.93,26.9-4.6,99.4-4.78,116.82-.77s-36.05,25.9-49.06,28.89c-10.06,2.31-112.47,2-130.49,1.71C196.14,587.68,192.13,580.74,190.82,576.28Z"/><path class="cls-9" d="M163,621.36c36.75,28.73,66.2,43.2,87.36,51.17,8,3,22,7.79,28.85,20.38C287.44,708,281,726,277.34,736c-3.19,8.87-11.39,31.63-22.09,31.6-13.35,0-17.46-35.48-39.61-77.2A272.62,272.62,0,0,0,163,621.36Z"/><path class="cls-10" d="M223.09,680.46c-2.8-4,2.17-8.81,6.49-6.31a175.11,175.11,0,0,0,26,12.43c5,1.89,13.8,4.9,18.13,12.81,5.19,9.49,1.11,20.81-1.15,27.09-2,5.57-7.16,19.87-13.88,19.86-8.39,0-11-22.3-24.89-48.51A165,165,0,0,0,223.09,680.46Z"/><path class="cls-9" d="M197.1,768.52c-.9-11.73-2.42-24.46-7-46.49-.59-2.81-1.2-5.57-1.84-8.26a334.56,334.56,0,0,0-9.38-32.15c-1.54-4.44-3.06-8.56-4.52-12.36-.59-1.55-1.18-3-1.75-4.48-.87-2.22-1.72-4.3-2.51-6.25-2.27-5.53-4.16-9.95-5.37-13.16a26.73,26.73,0,0,1-1.38-4.51,2.47,2.47,0,0,1,0-1.28h0a.61.61,0,0,1,.31-.32c1-.45,3.52,1.94,6.86,6.28,1.8,2.32,3.84,5.21,6,8.52.48.73,1,1.47,1.46,2.24,1.9,2.93,3.88,6.14,5.9,9.54,1.79,3,3.61,6.18,5.41,9.44,2.46,4.46,4.9,9.08,7.21,13.74,7.51,15.14,13.78,27,19,37h0c9.07,17.47,14.89,29.19,18.37,42.47Z"/><path class="cls-10" d="M206.45,768.52c-.57-3.44-1.3-7.37-2.27-12-6-28.67-5.69-25.85-3.71-26.71,1.79-.79,4.33,1.81,7.42,7.79,7.27,14.09,12.44,23.28,16.05,30.95Z"/><path class="cls-10" d="M124.5,559.87l-6.46.54-5.38.44-1.51.13h0l-3.3.27-3.44.28h0L74.21,564l-6.1.51h0l-3.25.27h0L44,566.53l-36.4,3-7,.57V480.35c-.7-1.17-.8-1.81-.42-2a.77.77,0,0,1,.42-.08V293.57c30.5,49.07,45.77,73.61,47.36,76.6C66.91,405.67,83.12,443.83,95.81,477c7.16,18.67,13.2,35.74,18,49.81q2.06,6.06,3.79,11.35,1.18,3.61,2.22,6.82c2,6.17,3.55,11.15,4.65,14.71C124.46,559.73,124.48,559.8,124.5,559.87Z"/><path class="cls-9" d="M59.92,542.12S48.53,535.28,32,525.05l-10.1-6.28C15.22,514.62,8,510.12.64,505.41V480.35c-.7-1.17-.8-1.81-.42-2a.77.77,0,0,1,.42-.08V435.67c13.39,24.39,29.8,53.84,42,75.57l.47.85C53,529.76,59.92,542.12,59.92,542.12Z"/><path class="cls-10" d="M15,486.64c-.83,2.85-3.57,4.7-7.2,5a15.78,15.78,0,0,1-7.16-1.22V480.35c-.7-1.17-.8-1.81-.42-2a.77.77,0,0,1,.42-.08v-27c4.91,10.22,9.72,20.77,13.69,29.69A8.4,8.4,0,0,1,15,486.64Z"/><path class="cls-9" d="M99,551a35.25,35.25,0,0,1-23.26-8.08,44.77,44.77,0,0,1-9.94-11.81c-2.93-4.91-8.42-14.21-15.41-26.17C36.94,481.89,17.84,449,.64,418.72V310.91c24.15,39.92,51.41,90.66,60.85,116.29,5.3,14.4,12.73,35,20,55.33,6.53,18.28,12.92,36.27,17.47,49.1l4.71,13.31C104.78,548.14,102.66,550.93,99,551Z"/><path class="cls-10" d="M76.5,504.75a24.1,24.1,0,0,1-17.68-7.14,31.78,31.78,0,0,1-5-6.43C47,479.71,19.71,433.11.64,399.08V326.9c18,28.08,42.6,72.67,50.22,93.34,6.28,17.06,16.93,47,23.72,66.11,2.17,6.11,4,11.12,5.06,14.27C80.41,502.8,79,504.71,76.5,504.75Z"/><path class="cls-9" d="M42.89,546.24q-4.78-2-10.33-4.22-4.61-1.82-9.7-3.7c-6.78-2.5-14.21-5.06-22.22-7.55v-8.19q10.92,6.66,23.53,13.66c2.5,1.38,5,2.78,7.66,4.18Q37.2,543.3,42.89,546.24Z"/><path class="cls-9" d="M22.87,551.15c.08,1-2.61,1.11-7.62.88-3.68-.16-8.61-.53-14.61-.94v-7.64A164.9,164.9,0,0,1,17.3,548C20.79,549.27,22.8,550.35,22.87,551.15Z"/><path class="cls-9" d="M100,631.65c-.7,27.63,3.29,41.37,38.91,56.62,24.6,10.55,55.7-17.26,79.8-33.58,8.1-5.5,14.52-16.31,19.72-29.88.34-.87.68-1.73,1-2.64,4.54-12.43,8.17-26.91,11.26-41.64.52-2.37,1-4.73,1.47-7.13,2.87-14.26,5.27-28.47,7.64-41,6.44-34-14.82-29.14-37.78-40.08-10.82-5.16-24.3-3.07-35.53.58a69.5,69.5,0,0,0-30.68,20.27c-9.46,10.75-17,15.6-31.47,19.91C104.9,538.93,100.68,604,100,631.65Z"/><path class="cls-1" d="M217.81,615.12c10.84-28.8,29.8-58.48,30.14-77.8,0-1.83.12-19.22-10.84-21.59-7.47-1.62-13.75,5.11-19.13,2-5.83-3.4-1.19-12.88-7.3-17.91-3.85-3.17-9.36-2.41-14.17-1.69-20,3-56.56,58.09-57,50.45-.94-14.74-30-11.42-20.31,15.49,5.33,14.77-21.66,61.76-2.71,87.59,32.75,44.62,87.77,4,97.73-3.67,8.77-6.79,9.85-7.64,19-25.93C241.39,605.42,215.29,621.8,217.81,615.12Z"/><path class="cls-10" d="M217.27,528.55c2.86-3.11,7.06-5.2,13.67-7,4.79-1.27,10,2.42,11,6.55,3.35,13.64.44,26.25-2.61,30.78-.56.82-1.82,4.72-2.57-7.54-.47-7.76-1.17-14.62-5.72-16.46C225.24,532.57,211.44,534.88,217.27,528.55Z"/><path class="cls-10" d="M204.19,523.22c2.27,10.29,5.88.83,6.27-6.77.07-1.3,3.24-20.23-15.33-13.47-12.16,4.42-20,12.51-22,15.34-2.58,3.69,1.1-.19,11.9-3.46,7.43-2.25,8.82-3.7,12.73-1.31C202.58,516.49,203.43,519.77,204.19,523.22Z"/><path class="cls-4" d="M227.34,621.94c3,5.42-26.27,28.32-53.6,35.61-12.44,3.32-22.76,6.08-33,1.24-13.82-6.54-21.7-24.24-21-38.24.68-13.18,9.59-34.06,8.81-41.47-.41-3.81-1-8-1-8-.26-1.7-.49-3.15-.67-4.22-1.17-6.9-3.11-9.38-2.6-13.15.68-5,4.62-4.25,7.13-3.64,6.48,1.58-1.44,8.19,6.88,25.32,10.43,21.43,42.15,48.55,66,50.25C214.33,626.36,226,619.51,227.34,621.94Z"/><path class="cls-9" d="M219.82,512.08c5.5.06,23.46-23.13,27.31-41.81,5.33-25.81,5.26-41.62-1.43-71.59-8.9-39.88-3.84-31.39-22.22-63-3.11-5.36-2.52-15.78-10.61-17.28-8.64-1.6-24.32,5.91-30.68,17.75-4.18,7.78-4.45,17.66,1.3,20.49,7.41,3.64,18.59-7.44,29.68-5.45,7.52,1.34,15.65,14.26,19,23.48,10.64,29.58,8,38.35,8.88,44.93,3.92,28.17.36,56.43-8.42,68.75-7.51,10.56-17.92,8.83-15.41,16.14C218,506.89,217.32,512.06,219.82,512.08Z"/><path class="cls-10" d="M186.84,346.18c-2.81-2.84,2.11-10.79,2.64-11.64,5.63-8.92,18-14.41,22.17-11.25,2.74,2.06,1.68,7.58.57,10.47C208,344.82,190.56,349.94,186.84,346.18Z"/><path class="cls-9" d="M238.43,507.54c1.15-11,118.13.34,151.44-19.63,2.63-1.57,13.16-8.4,22.15-5.09a14.69,14.69,0,0,1,8.13,7.8c4,9.35-3.92,22.19-12.48,24-7.26,1.52-10.36-5.91-24.84-9.46-3.46-.85-7.68-1.51-19.2-1.19-16.15.45-25.15,2.21-40,4.05-41.94,5.2-30.74,3.38-55.7,5-4.58.29-15.72,5-19.54,1.38C245.93,512.1,238.14,510.28,238.43,507.54Z"/><path class="cls-10" d="M404.36,486.85c4.77-.77,9.66,2.29,11.75,5.94,3.72,6.53-2.55,13.13-3.47,14.07-1.34,1.35-4.52,4.58-8.34,4-5.05-.81-8.51-7.91-8.05-13.51C396.28,496.93,397.17,488,404.36,486.85Z"/><path class="cls-6" d="M14.15,372.35a5.34,5.34,0,0,1-.39.75A14.85,14.85,0,0,1,9,377.74a14.73,14.73,0,0,1-8.4,2.47V341.75C9.41,348,17.71,364.63,14.15,372.35Z"/><path class="cls-11" d="M69.6,496.78c-.91.3-2.29-1-4.49-4.07-4.55-6.44-12.6-20.82-27.29-45.83C30.86,435,20.22,392.42,9,377.74a21.62,21.62,0,0,0-2.15-2.46c-1.76-1.7-4.11-3.73-6.25-5.83V356.81c4.67.54,9.5,7.68,13.51,15.54,3.31,6.48,6.07,13.45,7.74,17.64C42,440.22,61.6,477,67.79,490.78,69.46,494.54,70.16,496.6,69.6,496.78Z"/><path class="cls-6" d="M353.39,565c3.26,4.84-14.07,12.55-18.51,16.21-2.86,2.37-6.77,2.12-14.6,1.62-8.21-.52-11.63-1.49-14.89-3.66-5.61-3.73-2.16-8.5,1.87-13C314.21,558.6,347.75,556.65,353.39,565Z"/><path class="cls-6" d="M308.36,651.09c-2.89,6.91-10.56,13.41-16.55,12.43-3.86-.63-16.16-3.65-20-11.1-4-7.8-2.38-14.94-2.08-19.66.52-8.11,10.71-17.92,17.23-17.72C308.28,615.71,313.35,639.14,308.36,651.09Z"/><path class="cls-11" d="M7.22,483.76c-.71.42-2.6-1.1-6.58-5l-.42-.41a.77.77,0,0,1,.42-.08v-3.17c1.64,1.92,3,3.55,4.07,4.85C6.62,482.26,7.53,483.58,7.22,483.76Z"/><path class="cls-11" d="M252.15,573.4c-.47,2.4-1,4.76-1.47,7.13,14.19-.47,55.38-11.1,67.92-7,5,1.62,13.06,5.42,16.39,2.24a5.3,5.3,0,0,0,1.26-4.92c-2.16-6.73-25-3.66-34.12-2.49C283.51,570.69,266.62,572.29,252.15,573.4Z"/><path class="cls-11" d="M239.42,622.17c-.33.91-.67,1.77-1,2.64,3.49,1,7.76,2.22,12.9,3.73,6.5,1.91,26.48,8.11,32.62,12.2,2.36,1.61,7.12,2.46,9.22,1.14.79-.51,3.89-5.89,3.82-6.76-.29-4-12.33-5.5-17.13-6.1C262.91,626.89,248.93,624.13,239.42,622.17Z"/><path class="cls-11" d="M230.59,678.41c.61-.75,10.73,9.59,27.67,21.59,2.52,1.79,8.86,6.21,7.68,8.9a16.22,16.22,0,0,1-4.41,3.24c-1.62.25-4-1.68-4.84-3.39-2.11-4.43-11.37-14.22-14.41-17.32C233.35,682.32,229.93,679.22,230.59,678.41Z"/><path class="cls-11" d="M216,768.52h-1c-.1-1.14,0-1.69.27-1.78S215.68,767.31,216,768.52Z"/><path class="cls-9" d="M114.13,668.27c.43,4.5-15.57-2.34-31.34,3.34-2,.74-16.56,6.2-13.46,16.09,1.4,4.46,3.94,7.2,3.73,10.34s-3.07,4.06-7,2.62c-9.82-3.61-20.13-18.13-18-23.61,2.78-7,7.32,4.64,13,3.83,5.06-.73,4.92-6.6,7.25-12.19,5.4-13,21.5-18.15,35.42-10.27C108.33,661,113.88,665.67,114.13,668.27Z"/><path class="cls-9" d="M131.09,674.68c-3.6,1.52,5.8,12.26,5.44,28.06-.05,2-.56,16.69-9,18.2-3.82.68-6.6-.33-9,1.18s-2.37,4.31-.24,7c5.31,6.83,19.21,9.51,22.89,5.35,4.71-5.31-5.47-4.28-6.29-9.45-.74-4.61,3.86-7,7.59-11.29,8.65-10,8.56-25.91-1.12-34.44C138.21,676.56,133.17,673.8,131.09,674.68Z"/><path class="cls-4" d="M85.84,605.7c2.74,2.9,4.89,8.08,2.37,12.55-2.87,5.11-10.26,6.59-14.81,4.45-7.3-3.45-7.86-16.56-2-20.24C75.28,600,82.07,601.71,85.84,605.7Z"/><path class="cls-4" d="M49,635.46c2.74,2.91,4.89,8.08,2.37,12.56-2.87,5.1-10.26,6.58-14.81,4.44-7.3-3.45-7.86-16.56-2-20.24C38.43,629.78,45.22,631.47,49,635.46Z"/><path class="cls-6" d="M200.28,533.2c-5.92-5.1-16.32-7.39-23.43-1.88-7.39,5.72-7.06,16.64-2,23,7,8.75,23.36,9,29.46.92C209.08,549,206.8,538.83,200.28,533.2Z"/><path class="cls-6" d="M228,539.64c-5.91-5.11-16.32-7.39-23.42-1.88-7.39,5.72-7.06,16.64-2,23,7,8.75,23.36,9,29.46.91C236.8,555.39,234.52,545.27,228,539.64Z"/><path class="cls-8" d="M228.64,551.11c-2-1.75-5.57-2.52-8-.65s-2.41,5.68-.67,7.84c2.4,3,8,3.07,10.05.31C231.64,556.48,230.86,553,228.64,551.11Z"/><path class="cls-8" d="M202.71,545.56c-2-1.74-5.56-2.52-8-.65s-2.41,5.68-.67,7.84c2.4,3,8,3.07,10,.31C205.72,550.93,204.94,547.48,202.71,545.56Z"/><path class="cls-5" d="M443.42,506.66c5.42.33,11.34-4.09,10.94-9s-7.26-9.11-12.87-7.24c-4.79,1.6-7.71,7.17-5.79,11.46C437.05,504.87,440.48,506.48,443.42,506.66Z"/><path class="cls-6" d="M449,494.76c.53-.17,1.91,1.34,2.23,3.13.17.93.26,3.12-1.11,3.66a2.44,2.44,0,0,1-2.93-1.18c-.17-.69.67-1,1.26-2.35C449.24,496.23,448.57,494.91,449,494.76Z"/><path class="cls-5" d="M197.55,300.33c5.43.33,11.34-4.09,10.94-9.05s-7.26-9.1-12.87-7.23c-4.78,1.59-7.71,7.17-5.79,11.45C191.19,298.53,194.62,300.15,197.55,300.33Z"/><path class="cls-6" d="M203.17,288.43c.52-.18,1.9,1.34,2.23,3.13.16.93.25,3.11-1.12,3.66a2.44,2.44,0,0,1-2.93-1.18c-.16-.69.67-1,1.26-2.35C203.37,289.9,202.71,288.58,203.17,288.43Z"/><path class="cls-5" d="M145.09,317.07c9.29.58,19.42-7,18.72-15.48s-12.42-15.58-22-12.38c-8.19,2.72-13.19,12.27-9.91,19.61C134.19,314,140.07,316.76,145.09,317.07Z"/><path class="cls-6" d="M154.7,296.7c.9-.3,3.27,2.3,3.82,5.37.29,1.59.44,5.33-1.91,6.26-1.85.73-4.64-.52-5-2-.29-1.18,1.15-1.67,2.15-4C155.06,299.22,153.91,297,154.7,296.7Z"/><path class="cls-5" d="M186.32,256.78c12,.82,25-9.9,24.13-21.9-.92-12.22-16-22.06-28.39-17.53-10.55,3.86-17,17.37-12.77,27.75C172.28,252.44,179.85,256.35,186.32,256.78Z"/><path class="cls-6" d="M198.71,228c1.15-.42,4.21,3.26,4.92,7.6.37,2.25.57,7.54-2.46,8.86-2.39,1-6-.73-6.46-2.85-.37-1.68,1.48-2.37,2.77-5.7C199.17,231.52,197.69,228.33,198.71,228Z"/><path class="cls-5" d="M89.62,285.87c5.42.34,11.34-4.08,10.93-9s-7.25-9.1-12.86-7.23c-4.79,1.59-7.71,7.17-5.79,11.45C83.25,284.08,86.68,285.69,89.62,285.87Z"/><path class="cls-6" d="M95.23,274c.52-.17,1.91,1.35,2.23,3.14.17.93.26,3.11-1.11,3.65-1.08.43-2.72-.3-2.93-1.17-.17-.69.67-1,1.25-2.35C95.44,275.44,94.77,274.13,95.23,274Z"/><path class="cls-5" d="M132.81,154.56c5.42.34,11.34-4.08,10.94-9s-7.26-9.1-12.87-7.23c-4.78,1.59-7.71,7.17-5.79,11.45C126.44,152.77,129.88,154.38,132.81,154.56Z"/><path class="cls-6" d="M138.42,142.66c.53-.17,1.91,1.35,2.23,3.14.17.93.26,3.11-1.11,3.66a2.47,2.47,0,0,1-2.93-1.18c-.17-.69.67-1,1.26-2.35C138.63,144.13,138,142.82,138.42,142.66Z"/><path class="cls-5" d="M214.76,159.38h0c-12.85,24.32-33.07,45.55-57,61.18a0,0,0,0,0,0,0q-5.44,3.55-11.13,6.71a175.91,175.91,0,0,1-23.49,10.9,158.69,158.69,0,0,1-39.36,9.47,137.29,137.29,0,0,1-23.63.46A148.7,148.7,0,0,1,.64,230.64V1h178c28.34,23.94,48,56.77,50.69,92.49C231.06,116.62,225.48,139.08,214.76,159.38Z"/></g></g></svg>