<svg xmlns="http://www.w3.org/2000/svg" viewBox="0 0 692.86 751.57"><defs><style>.cls-1{fill:#9a7221;}.cls-2{fill:#fff;}.cls-3{fill:#29434c;}.cls-4{fill:#5a4217;}.cls-5{fill:#cf9e25;}</style></defs><g id="Layer_2" data-name="Layer 2"><g id="Layer_1-2" data-name="Layer 1"><path class="cls-1" d="M309.62,128.16C239.29,162.8,141.18,68,131.65,96.37c-9.91,29.43,92.61,65.31,88.18,96.58C214.13,233.13,35.89,218.69,36.3,233c.34,11.77,131.56,7.42,136.66,35,5.9,31.84-160.57,86.64-155.73,101.7,4,12.34,115-26.93,133.48,3.17C173.51,410,40.46,528.42,52.19,541.32c9.36,10.29,94.67-64.48,114.42-47.68,22,18.77-52.65,139.1-41.32,146.2,9.88,6.19,64.76-86.51,95.34-76.28,33.79,11.31,16.37,141,31.79,143,14.1,1.82,28.71-106.85,57.2-108.06C342,597.15,370.89,735.09,385.9,732c12.42-2.55-7-97.12,19.07-108.06,28.56-12,90.91,84.93,104.88,76.28,13.38-8.3-40.53-99.35-19.07-117.6,21.81-18.55,106.75,50.78,114.41,41.32,7.94-9.81-83.59-83.81-69.92-108.06,13.05-23.15,114.82,11.85,117.59,3.18,3-9.51-121.14-46.94-117.59-76.28,3.15-26.06,105.2-30.06,104.88-44.49C639.77,381.29,498,382,494,353.81s133.33-70,130.3-79.46c-2.72-8.45-112.16,28.63-123.95,6.36C487.75,257,593.58,179.79,586.12,169.47c-7.14-9.88-104.36,60.77-123.95,41.32-20.34-20.21,56.35-124.53,44.5-133.48s-89.2,94-117.59,79.45c-29.61-15.17,22.24-130.93,0-152.55C360-24.07,370.13,98.35,309.62,128.16Z"/><path class="cls-2" d="M308.93,233.5c-8.08-11.49-25.31-18.71-39.23-12-16.08,7.76-20.06,30.41-12,45.77,7.35,14,25.22,23,39.23,17.44C314.57,277.79,320.62,250.13,308.93,233.5Z"/><path class="cls-3" d="M287.71,257.28c-2.57-3.65-8-5.95-12.47-3.81-5.11,2.47-6.37,9.66-3.81,14.55,2.34,4.45,8,7.29,12.47,5.54C289.51,271.36,291.43,262.57,287.71,257.28Z"/><path class="cls-2" d="M380.59,220.86c-8.08-11.49-25.31-18.71-39.23-12-16.08,7.77-20.06,30.41-12,45.77,7.35,14,25.22,22.95,39.23,17.44C386.23,265.15,392.28,237.49,380.59,220.86Z"/><path class="cls-3" d="M359.37,244.64c-2.57-3.65-8.05-5.95-12.47-3.81-5.11,2.47-6.38,9.66-3.81,14.55,2.33,4.45,8,7.29,12.47,5.54C361.16,258.72,363.08,249.93,359.37,244.64Z"/><path class="cls-4" d="M397,554c57.15,17.64,82.75,190.28,69.8,197.4-9,5-36.34-94.08-101.67-152-7.79-6.91-1.68-28.32,1.22-35.6C369.69,555.27,380.77,549,397,554Z"/><path class="cls-4" d="M499.17,474.31c101.44-16.54,192.37,12.42,193.68,2.45,1.5-11.49-124.07-11.42-196.14-61.29-5.9-4.09-20.22-14.58-31.87-9.81-17.41,7.13-24.85,46.68-9.81,62.52C466.41,480.15,488.28,476.08,499.17,474.31Z"/><path class="cls-4" d="M260.13,558.89C263.54,576.8,245,587,217.22,625.08c-35.57,48.86-46.18,88.61-50.26,87S181.47,673,189,611.6c6.5-52.79-.93-76.58,13.48-84.58C219.51,517.57,255.81,536.26,260.13,558.89Z"/><path class="cls-4" d="M185.35,406.88c-12.52,20.94-38.95,14-115.23,30.65C25.86,447.22,3,456.53.25,451c-3.06-6.22,22.85-24.69,41.68-38C98.35,373.15,153.39,334.26,178,351.72,192.12,361.75,195.52,389.87,185.35,406.88Z"/><path class="cls-4" d="M316.24,145c25.28-36.28-37.18-124-52.71-118.91-3.12,1-3,5.35-4.91,55.16-2.29,59.81-3.08,69.87,4.91,76C276.47,167.14,305,161,316.24,145Z"/><path class="cls-5" d="M415.67,404.44c.1,20.32,80.49,37.66,79.82,41.67-.54,3.2-75.53-11.34-80.91,3.68-1.31,3.68,1.88,8.19,33.1,40.45,23.54,24.32,30.76,31.09,29.42,33.1-4.08,6.13-80.21-43.21-87-34.32-6.67,8.68,57.49,66.79,52.71,72.32-4.57,5.28-65.29-45-73.55-36.77-8.41,8.39,41.84,73,38,76s-45.5-63.69-82.13-56.39c-23,4.59-34.25,36.42-41.68,33.1-8.78-3.93,8.25-47.73-2.45-53.94-13.46-7.8-59.53,50.35-66.2,45.36-6.09-4.57,32.19-53.2,18.39-71.1-11-14.29-48.36-.1-51.49-8.58-3.42-9.27,40-29.41,36.78-39.23-3.6-10.84-60.85.74-62.52-6.13s54.13-21.49,52.71-33.1c-1.59-13-73.61-14.05-73.55-19.61s70.15-1.06,77.23-23.29c5.36-16.82-27.38-42.53-25.74-44.13,2-1.95,42.82,42.74,57.61,34.32,7.72-4.4,4.74-21.22,9.81-22.06,7-1.17,13,31.09,25.74,31.87,11.31.69,19.69-24,25.74-22.07s-1.61,26,7.36,31.87c12.36,8.06,46-25.13,50.26-20.83,3.48,3.53-19.83,25.61-14.71,34.32,8,13.59,73.55-24.92,80.9-12.26C440.64,398.22,415.6,390.87,415.67,404.44Z"/></g></g></svg>