<svg xmlns="http://www.w3.org/2000/svg" viewBox="0 0 1024 783.74"><defs><style>.cls-1{fill:#337d8e;}.cls-2{fill:#eef4df;}.cls-3{fill:#a5aeb3;}.cls-4{fill:#1a5e68;}.cls-5{fill:#909da2;}.cls-6{fill:#336873;}.cls-7{fill:#a3d4e4;}.cls-8{fill:#153138;}.cls-9{fill:#29424c;}.cls-10{fill:#98a3a8;}.cls-11{fill:#fff;}.cls-12{fill:#2c4149;}.cls-13{fill:none;}.cls-14{fill:#62b8d6;}</style></defs><g id="Layer_2" data-name="Layer 2"><g id="Layer_1-2" data-name="Layer 1"><path class="cls-1" d="M761.48,0l-.36.32L760.85,0Z"/><path class="cls-2" d="M1024,15.18V292.63c-31.66,22.45-62.42,41.51-84.59,49.8q.2,3.3.38,6.45c.56,9.54,1.12,19,1.63,28.31h0C946.3,465,948.1,544,923.34,620.05q-.87,2.69-1.79,5.35l1.46.45a363.11,363.11,0,0,1-41.33,86.2,462,462,0,0,1-57.61,71.13H1024v.56H0V374.93a67.72,67.72,0,0,1,12.24,6.15c13.84,8.91,18.39,20.08,22,18.61,1.74-.72,2.1-3.93,1.66-8.64-1.71-18.1-15.24-58.42-7.46-65.27a3.68,3.68,0,0,1,.73-.51c8.14-4.4,31.08,21.43,44,38.9A250.53,250.53,0,0,1,96,401.92l5.65-5.39C89.83,351.26,69.8,277.43,78.46,274c3.39-1.34,9.86,8.48,17.64,20.55h0c11.84,18.36,26.73,41.9,38.37,39,9-2.21,11.85-19.16,13.83-36.95,2.29-20.61,3.37-42.36,11.31-43.7,9.42-1.56,22.48,26.4,31.49,53.59,25.46-29.86,42.52-59,50.22-96.69,4.14-20.29,4.19-36.3,2.9-52.83-.51-6.49-1.22-13.07-2-20-2.68-24.88-5.86-54.54-1.86-102.34.58-6.9,1.24-13.36,2-19.43Z"/><path class="cls-3" d="M331.47,783.74H62.66c0-.19,0-.37-.07-.56-.82-6.8-1.51-14.24-2.14-22.55-.7-9.3-1.34-19.69-2-31.48-.69-12.66-1.39-26.94-2.22-43.23-.58-11.64-1.23-24.31-2-38.15q-.23-4-.45-8c-.08-1.49-.17-3-.25-4.51-1.17-21-2.47-44.27-3.94-68.76-.5-8.23-1-16.61-1.55-25.08-.81-12.86-1.68-25.94-2.59-39.1C44.78,492.15,44,482,43.27,471.82q-.75-9.85-1.53-19.66c-1-12-2-23.84-3.06-35.53q-1.18-13-2.47-25.61c-1.39-13.77-2.88-27.14-4.45-39.93q-1.62-13.15-3.34-25.31a3.68,3.68,0,0,1,.73-.51c8.14-4.4,31.08,21.43,44,38.9A250.53,250.53,0,0,1,96,401.92l5.65-5.39C89.83,351.26,69.8,277.43,78.46,274c3.39-1.34,9.86,8.48,17.64,20.55h0c11.84,18.36,26.73,41.9,38.37,39,9-2.21,11.85-19.16,13.83-36.95,1.17,12.83,2.46,26.76,3.86,42,.26,2.8.51,5.56.77,8.28,6.8,72.5,12.8,119.38,21.33,159.93,4.38,20.83,9.43,40,15.6,60.09v0c.13.43.27.87.4,1.31s.27.87.41,1.31c4.07,13.11,8.62,26.68,13.79,41.41,3,8.49,6.15,17.38,9.56,26.79a268.15,268.15,0,0,0,26.19,52.66q7.83,12.27,17,24A329.85,329.85,0,0,0,293.05,753q12.48,11.51,26.24,21.9,5.59,4.23,11.38,8.25Z"/><path class="cls-3" d="M978.4,54.37c-1.78,11.08-8.93,51.4-43.15,80.48q-2.46,2.09-4.89,3.92c-.41.31-.82.62-1.23.91q-1.82,1.35-3.63,2.56l-1.6,1c-.53.34-1.07.68-1.6,1s-1.07.66-1.6,1-1.06.62-1.59.92-1.05.59-1.58.87l-1.58.83c-.53.27-1.05.54-1.58.79l-1.57.76c-1,.48-2.08,1-3.12,1.39-.32.15-.64.28-1,.41l-.34.13c-2.15.89-4.29,1.67-6.42,2.37l-1,.32-1.58.49c-3.72,1.14-7.39,2-11,2.82l-1.48.31-1.47.3c-4.55.9-9,1.62-13.42,2.36q-2.67-9.08-5.7-18.34-2-6-4.08-12c3.44-4.41,1.79-13.82-3.59-26.88-.67-1.64-1.41-3.34-2.2-5.1-2.64-5.84-5.89-12.3-9.68-19.26-4.45-8.2-9.63-17.11-15.37-26.55l0,0q-2.46-4.07-5.06-8.24C820.62,34.71,814.45,25.1,808,15.18H973.38c.1.36.2.72.29,1.07.33,1.23.64,2.45.93,3.65.19.78.37,1.55.54,2.32.12.53.24,1.06.35,1.58q.27,1.26.51,2.49c.09.44.17.87.25,1.3.17.87.32,1.72.46,2.55s.28,1.66.41,2.47q.09.62.18,1.2c.06.4.12.78.17,1.17a.09.09,0,0,0,0,.05c.09.65.17,1.29.25,1.92.13,1,.24,2,.34,3,0,.35.07.7.11,1s.07.85.11,1.26c0,.08,0,.16,0,.24,0,.33.05.65.07,1s0,.63.07.93,0,.6,0,.9c0,.63.07,1.23.09,1.81,0,.77,0,1.5,0,2.18A32.32,32.32,0,0,1,978.4,54.37Z"/><path class="cls-3" d="M961.9,783.18c-.12.19-.26.37-.39.56H723.79l.84-.56a449.93,449.93,0,0,0,76.58-63.71,409.42,409.42,0,0,0,48.09-60.06A327.76,327.76,0,0,0,874,614.14c33.73-75.43,33.36-153.32,28.74-240.77,1.85.33,3.72.63,5.6.92q1.23.19,2.46.36l1.26.18c1.57.22,3.15.42,4.75.61h.11l2.9.32c1.94.21,3.89.39,5.86.56l2.37.18c2.28.17,4.58.32,6.89.43l2.7.13c1.24.05,2.5.1,3.76.12h0C946.3,465,948.1,544,923.34,620.05q-.87,2.69-1.79,5.35l1.46.45a363.11,363.11,0,0,1-41.33,86.2,462,462,0,0,1-57.61,71.13Z"/><path class="cls-3" d="M1024,292.63c-31.66,22.45-62.42,41.51-84.59,49.8q.2,3.3.38,6.45c.56,9.54,1.12,19,1.63,28.31-1.26,0-2.52-.07-3.76-.12l-2.7-.13c-2.31-.11-4.61-.26-6.89-.43l-2.37-.18c-2-.17-3.92-.35-5.86-.56l-2.9-.32h-.11c-1.6-.19-3.18-.39-4.75-.61l-1.26-.18q-1.23-.16-2.46-.36c-1.88-.29-3.75-.59-5.6-.92-.57-10.81-1.25-21.81-1.87-32.95q-.18-3.15-.38-6.47c-.52-8.56-1.14-17.95-2-28.09-.79-9.44-1.77-19.53-3-30.21-1.29-10.88-2.89-22.37-4.89-34.4-2.49-15-5.61-30.79-9.57-47.29q-1.26-5.25-2.62-10.59Q875.49,172,872,160.31c4.39-.74,8.87-1.46,13.42-2.36l1.47-.3,1.48-.31c3.63-.77,7.3-1.68,11-2.82L901,154l1-.32c2.13-.7,4.27-1.48,6.42-2.37l.34-.14,1-.4c1-.44,2.08-.91,3.12-1.39l1.57-.76c.53-.25,1-.52,1.58-.79l1.58-.83c.53-.28,1.05-.57,1.58-.87s1.06-.6,1.59-.92,1.07-.62,1.6-1,1.07-.66,1.6-1l1.6-1q1.82-1.22,3.63-2.56c.41-.29.82-.6,1.23-.91q2.43-1.83,4.89-3.92c34.22-29.08,41.37-69.4,43.15-80.48a32.32,32.32,0,0,0,.24-5.1c0-.68,0-1.41,0-2.18,0-.58-.05-1.18-.09-1.81,0-.3,0-.6,0-.9s0-.61-.07-.93,0-.63-.07-1c0-.08,0-.16,0-.24,0-.41-.07-.83-.11-1.26s-.07-.69-.11-1c-.1-1-.21-2-.34-3-.08-.63-.16-1.27-.25-1.92a.09.09,0,0,1,0-.05c-.05-.39-.11-.77-.17-1.17s-.12-.79-.18-1.2c-.13-.81-.26-1.63-.41-2.47s-.29-1.68-.46-2.55c-.08-.43-.16-.86-.25-1.3q-.24-1.23-.51-2.49c-.11-.52-.23-1.05-.35-1.58-.17-.77-.35-1.54-.54-2.32-.29-1.2-.6-2.42-.93-3.65-.09-.36-.19-.71-.28-1.07h7.86q6.19,10,12.3,20.27c5.2,8.79,10.2,17.67,14.92,26.65q8.32,15.75,15.53,31.58Z"/><path class="cls-4" d="M923.34,620.05q-.87,2.69-1.79,5.35A363.1,363.1,0,0,1,882,706.25a465.49,465.49,0,0,1-63.4,76.93l-.57.56H231.93l-.49-.56A350,350,0,0,1,206,750.57a312.45,312.45,0,0,1-27.74-49h0q-2.13-4.74-4.08-9.53a11.54,11.54,0,0,1-.54-1.21c-1.18-2.91-2.32-5.82-3.39-8.78-1.55-4.23-3-8.4-4.48-12.46-.28-.77-.56-1.54-.83-2.31-1-2.65-1.87-5.24-2.75-7.79-5.58-15.59-10.5-30-15-43.76-.36-1.13-.72-2.24-1.08-3.36-.24-.77-.48-1.54-.72-2.25l-.91-3c-1-3.12-1.91-6.23-2.87-9.27l0-.17q-2.25-7.54-4.33-15c-1.31-4.69-2.57-9.35-3.78-14h0q-.91-3.47-1.77-7-.83-3.3-1.61-6.65c0-.19-.1-.38-.14-.58-.1-.4-.2-.81-.29-1.21-1.76-7.37-3.41-14.9-4.95-22.65-1.41-6.83-2.76-13.81-4-21-.73-3.95-1.43-8-2.1-12.09-.24-1.45-.47-2.9-.7-4.36q-1.29-7.95-2.52-16.35c-2-14-4-29.08-5.88-45.54,0-.29-.07-.58-.1-.87-.19-1.63-.38-3.27-.56-4.93a0,0,0,0,1,0,0q-.67-6-1.37-12.22-1-9.74-2.12-20.14c-1.45-14.35-2.94-29.7-4.46-46.22-1.76-19.16-3.36-36.47-4.8-52.26,11.84,18.36,26.73,41.9,38.37,39,9-2.21,11.85-19.16,13.83-36.95,2.29-20.61,3.37-42.36,11.31-43.7,9.42-1.56,22.48,26.4,31.49,53.59,25.46-29.86,42.52-59,50.22-96.69,4.14-20.29,4.19-36.3,2.9-52.83-.51-6.49-1.22-13.07-2-20-2.68-24.88-5.86-54.54-1.86-102.34.58-6.9,1.24-13.36,2-19.43H854c1.94,3.7,3.81,7.4,5.68,11.06,7.33,14.58,14,29,20,43.16,1.68,3.92,3.31,7.8,4.87,11.67q1.82,4.43,3.52,8.85c8.17,21,15,41.51,20.72,61.28h0c22.66,78.34,27.95,145.53,30.69,191.22q.2,3.3.38,6.45c.56,9.54,1.12,19,1.63,28.31h0C946.3,465,948.1,544,923.34,620.05Z"/><path class="cls-5" d="M887.66,139.69q-15.55.93-31.29,2.26c-181,15.73-226.36,13.14-406.58,18-87.13,2.36-141.75,2-205.57-3-.51-6.49-1.22-13.07-2-20a2006.51,2006.51,0,0,0,205,5.83c170.66-3.86,286.59-7.16,430.8-23.49.4-.06.81-.06,1.21-.12C882.25,126.08,885,132.88,887.66,139.69Z"/><path class="cls-6" d="M923,625.85a363.11,363.11,0,0,1-41.33,86.2,462,462,0,0,1-57.61,71.13l-.55.56H226.59l-.47-.56a344.41,344.41,0,0,1-21.94-29,310.59,310.59,0,0,1-28.06-50.94c-.78-1.82-1.55-3.64-2.29-5.47-.23-.39-.35-.83-.53-1.21-1.19-2.91-2.32-5.82-3.39-8.78-1.56-4.23-3-8.4-4.48-12.46-1-2.62-1.87-5.17-2.75-7.68l-.84-2.42c-6-16.86-11.29-32.34-16-47.12-.24-.77-.48-1.54-.72-2.25l2.13-.19q7.53-.66,15.34-1.31l.72-.06h0Q183,612.66,204.47,611c25.18-2,52.29-4,81.49-6.11q21.45-1.53,44.44-3.12l26.36-1.79,27.68-1.82q15.88-1.05,32.46-2.11,37.07-2.38,77.61-4.87l24-1.46s17.78-1.08,50.06-1.08c38.17,0,96.63,1.5,170,8.07q18.18,1.64,37.54,3.69c41,4.35,72.93,9,97.92,13.78a467.46,467.46,0,0,1,47.53,11.26Z"/><path class="cls-7" d="M381.12,679.51c1.74-10,13.88-20.28,21.05-32.83,9.39-16.42,11.85-38.85,16.35-58.08,3.84-16.37,18.81-23.8,39.88-23.77,23.42,0,39.86,28.61,49.18,53.49,6.35,16.95,21.23,8.68,30.59,21.6,13.09,18.08,9.93,25.82,9.4,40.25-.64,17.34-18.54,36.35-20.06,37.58C493.29,745.5,430,739.4,398.69,712,393.85,707.73,378.52,694.3,381.12,679.51Z"/><path class="cls-8" d="M130.38,665.05a8.27,8.27,0,0,1,5.32,4.42c1.27,3,.58,7.31-2.66,9.28s-7.65.41-9.75-2.21c-2.54-3.15-2.41-8.28.44-10.6C126.25,663.89,129.81,664.89,130.38,665.05Z"/><path class="cls-9" d="M403.73,506.32c2,2.87,2.5,6.58,2,10.65-1.81,13.41-14.54,30.7-17.43,34.64-3.78,5.12-13.14,17.83-27.85,26.28A60.61,60.61,0,0,1,341.77,585c-12,2.37-19.92-.09-21.43,3.59-1.23,3,3,7.39,10.06,13.19,5.8,4.8,13.51,10.56,21.61,17.36l.51.43c4.39,3.71,17.33,14.62,28.7,26.33a152.64,152.64,0,0,1,12,13.65c5.66,7.47,8.95,14.21,7,18.39-2.09,4.45-9.64,4.93-19.31,4-3.18-.3-6.59-.75-10.12-1.27-16.64-2.44-35.78-6.25-44.93-1.81h0a9.24,9.24,0,0,0-4.26,3.84,9.54,9.54,0,0,0-1,2.82c-1.85,9.46,7.28,26.23,21.1,41.45A134.25,134.25,0,0,0,364.43,747c12.9,8.87,24.62,12.84,23.83,17.87-1.14,6.94-24.84,8.6-39.33,9.52-11.25.73-21.09.79-29.64.54-30-.87-44.19-5.63-47.8.66-1.2,2.1-.75,4.6.87,7.59l.31.56H0V775.4c11.26-16.35,20.93-25.8,17.3-30.7-2.26-3.08-7.94-1.92-17.3.81V374.93a67.72,67.72,0,0,1,12.24,6.15c13.84,8.91,18.39,20.08,22,18.61,1.74-.72,2.1-3.93,1.66-8.64-1.71-18.1-15.24-58.42-7.46-65.27a3.68,3.68,0,0,1,.73-.51c8.14-4.4,31.08,21.43,44,38.9A250.53,250.53,0,0,1,96,401.92c8.66,17.51,12.36,29.65,13.4,29.33a.16.16,0,0,0,.08-.06c.3-.38,0-2.43-.66-5.8a0,0,0,0,1,0,0c-1.25-6.06-3.9-16.36-7.16-28.83C89.83,351.26,69.8,277.43,78.46,274c3.39-1.34,9.86,8.48,17.64,20.55h0c11.84,18.36,26.73,41.9,38.37,39,9-2.21,11.85-19.16,13.83-36.95,2.29-20.61,3.37-42.36,11.31-43.7,9.42-1.56,22.48,26.4,31.49,53.59,2.56,7.73,4.79,15.4,6.52,22.31,6.23,25,11.82,47.28,4.76,73.87-7.12,26.86-23,42.21-17.87,47.65,4.58,4.88,19-5.9,41.7-11.91,26-6.88,42.46-2.12,67.91,0,71.08,5.92,113.2-17,118-6,5.28,12.22-45.52,43.72-56.68,60.61h0c-1.94,2.93-2.68,5.42-1.72,7.29,3.74,7.24,29.05-2.62,43.06,1.39h0A12.32,12.32,0,0,1,403.73,506.32Z"/><path class="cls-10" d="M286.2,597.15c0,2.69-.05,5.25-.24,7.7-2.15,29.91-19.07,44.59-45.74,85.56a584.52,584.52,0,0,0-30.13,52.05q-2.15,4.15-4.1,8.11c-.62,1.23-1.22,2.44-1.81,3.64-5.27,10.75-9.64,20.39-13.39,29-.08.19-.17.38-.24.56H98.82l-.4-.56C91,772.77,82.28,760.77,72,747.05l-2-2.7q-6-8-11.53-15.2C46.85,714,36.84,701.49,28.23,690.86,16.27,676.08,7,665,0,655.7V536.51c11.65-18.54,27.59-32.1,45.49-34.24.59-.07,1.17-.12,1.76-.17,27.74-2.14,63.21,23,71.3,50.79.47,1.6.89,3.38,1.3,5.2.59,2.66,1.13,5.41,1.68,7.81.93,4,1.89,7.07,3.18,7.05,1.08,0,1.9-2.14,2.63-5.19v0c.13-.57.26-1.13.4-1.76.36-1.75.71-3.69,1.06-5.64.3-1.62.6-3.23.92-4.76h0l.24-1.14c.18-.78.36-1.53.55-2.23,4.66-17.24,22.12-35.09,43.75-45.36,16.55-7.86,35.55-11.27,53.12-6.54C268.32,511.29,285.88,562.24,286.2,597.15Z"/><path class="cls-11" d="M129.81,555.41c6-9.22,24.14-12.37,37.85-4.83a32.15,32.15,0,0,1,16.5,31.93c-1.58,12.65-11,25.08-21.35,26.13C143.08,610.62,119.28,571.56,129.81,555.41Z"/><path class="cls-11" d="M94.67,566.9c6-9.22,24.14-12.37,37.85-4.84a31.63,31.63,0,0,1,8.87,7.19c1.21,1.41,9.3,11.2,7.62,24.74-1.55,12.59-11.13,25.11-21.35,26.13C107.94,622.1,84.14,583,94.67,566.9Z"/><path class="cls-8" d="M163.17,552.91c1.25.35,6.34,2,8.47,7,2,4.79.93,11.64-4.24,14.78-5.4,3.29-12.18.64-15.53-3.52-4.05-5-3.83-13.2.7-16.9C156.58,551,162.27,552.65,163.17,552.91Z"/><path class="cls-12" d="M199,651.91c-4.38-1.89-18.64,13-36.34,15.76-21.9,3.45-41.13-27.18-46.79-23-2.93,2.2.83,11.5,8,29.13,10.85,26.87,17,31,20.3,32.67,1,.52,10.35,5.26,20.31,2.65C191.71,702,205.62,654.74,199,651.91Z"/><path class="cls-7" d="M76.25,730.92v0c0,.92-.09,1.84-.19,2.73A36,36,0,0,1,74,742.9a29.81,29.81,0,0,1-2,4.15c-2.76,4.94-6.75,9-11.57,13.58-6.16,5.82-13.68,12.42-21.81,22.55l-.44.56H0v-58c6.42-8.58,13.24-17.13,20.25-25.91a92.46,92.46,0,0,1,8-9c.94-.91,1.91-1.79,2.92-2.61h0c4.6-3.78,9.82-6.45,15.5-6a20.05,20.05,0,0,1,9.57,3.66c4.51,3.06,8.63,7.84,12,13.56C73.45,708.6,76.71,720.06,76.25,730.92Z"/><path class="cls-7" d="M123.07,498.63c-1,.81-2.47.24-4.45-1.19-6.3-4.55-18-17.87-38.13-23.78a81.08,81.08,0,0,0-26.93-3,92,92,0,0,0-10.29,1.13C27.41,474.43,12,481.13,0,491.29V397.91c4.72,1.94,11.83,5.28,22.76,10.73,6.94,3.46,12,6.09,15.92,8,6.1,3,9.2,4.14,11.72,3.86a7.07,7.07,0,0,0,2-.59c11.12-5.06,5.44-31.65,11.85-33.22,4.42-1.09,10.79,10.62,19.08,27.3,2.2,4.43,4.54,9.22,7,14.21,10.87,21.88,19.34,37.57,25,48.54C122.55,490.5,125.34,496.83,123.07,498.63Z"/><path class="cls-7" d="M60.44,535.49c-10.39,2.1-16.68,9.43-22.18,16-3.67,4.4-30.88,38-18.48,70.23,1.64,4.27,6.38,16.08,18.48,22.18,4.68,2.36,15.2,6.27,18.49,2.47,5.2-6-16.33-21.49-17.25-46.82-.65-17.63,8.8-37.1,23.41-45.59,13.83-8.05,27.67-3.58,28.34-7.4C92,542.36,75.82,532.38,60.44,535.49Z"/><path class="cls-8" d="M128.66,566.19c1.25.36,6.34,2,8.47,7,2,4.8.93,11.64-4.24,14.79-5.4,3.29-12.18.64-15.53-3.52-4-5-3.83-13.2.71-16.9C122.07,564.33,127.76,565.94,128.66,566.19Z"/><path class="cls-2" d="M241.32,209.8c-7.7,37.71-24.76,66.83-50.22,96.69-9-27.19-22.07-55.15-31.49-53.59-7.94,1.34-9,23.09-11.31,43.7-2,17.79-4.85,34.74-13.83,36.95-11.64,2.87-26.53-20.67-38.37-39h0C88.32,282.44,81.85,272.62,78.46,274c-8.66,3.47,11.37,77.3,23.23,122.57L96,401.92a250.53,250.53,0,0,0-22.92-37.75c-12.89-17.47-35.83-43.3-44-38.9a3.68,3.68,0,0,0-.73.51c-7.78,6.85,5.75,47.17,7.46,65.27.44,4.71.08,7.92-1.66,8.64-3.59,1.47-8.14-9.7-22-18.61A67.72,67.72,0,0,0,0,374.93V15.18H242.35c-.72,6.07-1.38,12.53-2,19.43-4,47.8-.82,77.46,1.86,102.34.75,7,1.46,13.53,2,20C245.51,173.5,245.46,189.51,241.32,209.8Z"/><path class="cls-2" d="M1024,292.63V783.18H824.07a462,462,0,0,0,57.61-71.13A363.11,363.11,0,0,0,923,625.85l-1.46-.45q.91-2.67,1.79-5.35c24.76-76,23-155.1,18.08-242.85h0c-.51-9.34-1.07-18.77-1.63-28.31q-.18-3.15-.38-6.45C961.58,334.14,992.34,315.08,1024,292.63Z"/><polyline class="cls-13" points="0 374.93 0 397.91 0 486.92 0 491.29 0 536.51 0 655.7 0 725.79 0 745.51 0 775.4 0 783.18 38.64 783.18 62.59 783.18 98.42 783.18 190.79 783.18 226.12 783.18 231.44 783.18 272.36 783.18 330.67 783.18 473.66 783.18 724.63 783.18 783.32 783.18 818.61 783.18 824.07 783.18"/><polyline class="cls-13" points="1024 292.63 1024 93.68 1024 15.18 981.25 15.18 973.39 15.18 973.38 15.18 853.97 15.18 841.3 15.18 807.96 15.18 242.35 15.18"/><path class="cls-9" d="M391.62,79.91c3.79,1.54-5,16.56-2,40.57,1.13,9,3.44,15.47-.29,19-2.45,2.35-5.44,1.41-14.56.9-20.28-1.13-28.63,2.23-32.45-3.2-1.09-1.55-1.94-4-1-5.54,1.44-2.36,6.34-1.18,15.52-.53,10.84.77,16.32,1.1,19.11-1.32s3.05-7.3,3.41-16.94c.46-12-1.25-14.3.66-20C382.5,85.49,389,78.83,391.62,79.91Z"/><path class="cls-9" d="M689.34,71.79c-3.15,1.76,5.71,16.2,5.07,40.3-.24,9-1.71,15.62,1.82,18.94,2.33,2.2,4.84,1.08,12.71,0,17.5-2.34,25,.51,27.88-5.13.82-1.61,1.36-4.11.43-5.58-1.44-2.26-5.59-.79-13.51.4-9.34,1.41-14.06,2.07-16.68-.17s-3.25-7.1-4.36-16.68C701.32,92,702.61,89.58,700.49,84,697.72,76.81,691.57,70.55,689.34,71.79Z"/><rect class="cls-11" x="190.25" y="188.07" width="660" height="330" rx="12.27"/><path class="cls-7" d="M255.74,715.68c8.15-8.51,41.59-15.31,56.4-23.22,23.66-12.62,53.3-93.62,49.13-145.25-1.6-19.92-21-34-14-46.6,5.24-9.43,19.22-12.21,29-10.7,20,3.1,33.49,26,31.64,43.29-1.41,13.22-11,15.18-18.33,33.44-6.64,16.44-5.06,30.13-4.76,40.57,1.1,38.2-13.37,88.87-43.36,119.94-4,4.12-33.21,27.13-56.85,26.59C259.65,753.17,244.93,727,255.74,715.68Z"/><path class="cls-7" d="M1024,15.18V292.63c-31.66,22.45-62.42,41.51-84.59,49.8-13.53,5.07-23.87,6.12-29.26,1.48a67.18,67.18,0,0,1-9.64-10c-8.93-11.69-7.1-20.81-2-28.09,11.05-15.72,37.43-22.88,4-28.78-2.48-.44-4.82-.91-7-1.43-27.26-6.34-36.18-18.62-49.43-35.36-1.48-1.87-3-3.8-4.64-5.78-14.87-18.21-18.48-44.67-13.55-70.57.06-.34.13-.66.2-1h0c.06-.33.13-.64.2-1h0a126.75,126.75,0,0,1,5.16-18A124.56,124.56,0,0,1,843.37,123a106.49,106.49,0,0,1,15.29-20q3-3,6.21-5.78a79.2,79.2,0,0,1,14.73-9.91,12.73,12.73,0,0,0,3.69-2.62,3.13,3.13,0,0,0,.74-3.5,9.77,9.77,0,0,0-3.77-3.76h0a38.46,38.46,0,0,0-3.5-2c-12-6.21-34.92-13.13-45.34-23.32l0,0a17.09,17.09,0,0,1-5.06-8.24,12.18,12.18,0,0,1,.52-7c3.69-10.2,8.69-17.12,14.45-21.71Z"/><path class="cls-11" d="M886.61,162.18c-2-12.33-15-21.31-27.87-21.14A28.66,28.66,0,0,0,835,154.53c-7.9,13-3.81,32.61,9.27,38.69,12.58,5.84,26.82-3.93,28.62-5.2S889,176.65,886.61,162.18Z"/><path class="cls-11" d="M854.8,233.42c5.73,10.1,19.85,14.09,31,10.13a25.35,25.35,0,0,0,16.24-18.7c2.68-13.58-7.2-29.43-20.53-30.85-12.81-1.36-22,11.32-23.17,12.95S848.07,221.55,854.8,233.42Z"/><path class="cls-8" d="M846.25,179.79c-.2-4.62-5-8.81-9.35-7.88-3.39.74-5.47,4.45-5.49,7.62,0,4.18,3.54,8.82,8,8.54C843.41,187.82,846.42,183.62,846.25,179.79Z"/><path class="cls-8" d="M884.28,234.28c-.13-4.43-4.55-8.38-8.55-7.43-3.15.74-5.12,4.32-5.18,7.35-.07,4,3.17,8.41,7.27,8.1C881.55,242,884.39,238,884.28,234.28Z"/><path class="cls-7" d="M783.32,783.18c-.15.19-.29.38-.42.56H474.17c-.18-.18-.34-.37-.51-.56-13.08-14.66-19.73-27.68-8.17-32.23,30.23-11.9,63.9-11,83-50.52,7.19-14.86,7.18-25,6.54-36.46-.54-9.64-1.52-20.18,1-35.22.18-1,.37-2.12.58-3.21.84-4.38,1.93-8.83,3.23-13.32a181.16,181.16,0,0,1,8.72-23.62,192.15,192.15,0,0,1,10.09-19.42,164.62,164.62,0,0,1,23.37-30.92c15.78-16.17,34-26.66,52.48-26.12,37.78,1.1,70.08,48.3,82.21,79.54.66,1.7,1.26,3.36,1.82,5,11.42,33.55,1.79,52.67,23.31,81,17,22.37,32.86,23.44,39.34,41.79l.29.87C809.29,744.12,793.34,769.68,783.32,783.18Z"/><path class="cls-11" d="M609.48,572c6.88-6.48,7.08-18.38,1.55-26.39a21.51,21.51,0,0,0-18.41-9.12c-11.44.54-22,11.42-20.35,22.19,1.62,10.34,13.72,15.11,15.27,15.7S601.4,579.6,609.48,572Z"/><path class="cls-8" d="M581.5,554.19c2.82-2.09,3.41-6.89,1-9.19-1.89-1.81-5.08-1.54-7.07-.21-2.64,1.76-4.05,6-2,8.61C575.28,555.81,579.17,555.92,581.5,554.19Z"/><path class="cls-8" d="M557.2,612.87c4.59-2.8,10,4.31,20.3,3,8.62-1.11,12.58-7.05,14.57-5.56,2.2,1.65-.28,10.68-6.56,16.23-8,7.1-23.47,9.52-29.23,2.51C552.37,624.28,553.06,615.4,557.2,612.87Z"/><path class="cls-14" d="M421.21,54.25a2.6,2.6,0,0,0-2.06,2.83l5.73,40.56,7.28,38.83a2.82,2.82,0,0,0,3.52,2.05l12.71-3.24a2.57,2.57,0,0,0,2-2.92c-1.61-8.59-7.24-38.53-7.88-41.89S437,62.1,435.37,53.66a2.82,2.82,0,0,0-3.49-2Z"/><path class="cls-14" d="M452.6,40.59A2.28,2.28,0,0,0,450.45,43c.57,10.33,2.88,52.49,2.88,58.57,0,5.81.65,28.29.86,35.49a2.28,2.28,0,0,0,2.29,2.22h14.4a2.29,2.29,0,0,0,2.3-2.33c-.19-10-.94-49.32-1.34-57.15-.39-7.53-1.91-30.6-2.4-38A2.28,2.28,0,0,0,467,39.71Z"/><path class="cls-14" d="M475.78,39.38a2.66,2.66,0,0,0-2.47,2.75c.36,11.33,1.79,56.61,2,62.68.18,5.61.07,24.68,0,31.78a2.67,2.67,0,0,0,2.67,2.69h13.15a2.68,2.68,0,0,0,2.68-2.66c0-10.69.18-50.39,0-58.18-.19-7.4-1.32-29.73-1.72-37.53a2.67,2.67,0,0,0-2.87-2.53Z"/><path class="cls-14" d="M504.1,38.39a2.13,2.13,0,0,0-2.33,2c-.68,10.37-3.56,54.32-3.56,59.82,0,5.26-1.31,29.37-1.73,36.87a2.13,2.13,0,0,0,2.13,2.23H508a2.13,2.13,0,0,0,2.13-2c.33-8.78,1.63-43.17,1.91-48.51s3.1-38.4,3.85-47.08a2.13,2.13,0,0,0-1.91-2.29Z"/><path class="cls-14" d="M517.67,55.86s4.16,39.59,4.16,47.92,3,33.93,3,33.93l17.56-1.78s-5.06-44.65-5.65-50-4.17-33-4.17-33Z"/><path class="cls-14" d="M562.44,133.14l-25.91-66a1.35,1.35,0,0,1,.76-1.71l6.38-3a1.43,1.43,0,0,1,1.92.68c2.55,6.63,13.94,35.93,17.48,40.94s9.37,21.45,10.84,25.64a1.07,1.07,0,0,1-.72,1.36l-8.37,3A1.87,1.87,0,0,1,562.44,133.14Z"/><path class="cls-14" d="M399,32.51a2.45,2.45,0,0,0-2.26,2.57c.11,11.38.54,57.87.27,64.56-.26,6.39-.61,31.15-.72,39.08a2.41,2.41,0,0,0,2.2,2.54l14.38.58a2.42,2.42,0,0,0,2.4-2.47c.26-11.05,1.26-54.31,1.21-62.94-.05-8.29-.54-33.74-.7-41.85a2.38,2.38,0,0,0-2.34-2.45Z"/><path class="cls-14" d="M577.56,51.24c-1.59.06-2.8,1-2.71,2,.72,8.79,3.63,44.67,3.63,49.85,0,4.94.82,24.08,1.08,30.2.05,1,1.33,1.89,2.9,1.89h18.16c1.62,0,2.93-.89,2.9-2-.24-8.53-1.19-42-1.7-48.63-.48-6.41-2.4-26-3-32.3-.1-1.08-1.47-1.89-3.06-1.82Z"/><path class="cls-14" d="M606.8,50.21c-1.8.09-3.18,1.12-3.12,2.34.45,9.64,2.27,48.18,2.52,53.34.24,4.78.09,21,0,27.05,0,1.26,1.5,2.29,3.37,2.29h16.58c1.86,0,3.37-1,3.38-2.26.05-9.1.24-42.89,0-49.52-.24-6.3-1.65-25.3-2.15-31.94-.1-1.28-1.73-2.24-3.62-2.15Z"/><path class="cls-14" d="M634.4,47.41c-1.81.09-3.19,1.12-3.13,2.34.46,9.64,2.27,48.18,2.53,53.34.23,4.78.09,21,0,27,0,1.26,1.5,2.29,3.38,2.29h16.58c1.86,0,3.37-1,3.37-2.26.06-9.1.24-42.89,0-49.52-.24-6.3-1.66-25.3-2.16-31.94-.1-1.28-1.73-2.24-3.62-2.15Z"/><path class="cls-14" d="M658.84,49.78s8.2,39,9,47.24,6.44,33.45,6.44,33.45l17.28-3.58S682,83,680.87,77.73s-7.53-32.43-7.53-32.43Z"/></g></g></svg>