<svg xmlns="http://www.w3.org/2000/svg" viewBox="0 0 4612.06 788.36"><defs><style>.cls-1{fill:#eaf1d7;}.cls-2{fill:#29424c;}.cls-3{fill:#d66d59;}.cls-4{fill:#fff;}.cls-5{fill:#ffea9a;}.cls-6{fill:#abc866;}.cls-7{fill:#62b8d6;}.cls-8{fill:#d5e5b2;}.cls-9{fill:#fed252;}</style></defs><g id="Layer_2" data-name="Layer 2"><g id="Layer_1-2" data-name="Layer 1"><rect class="cls-1" width="4612.06" height="788.36"/><path class="cls-2" d="M698.47,514.7c2.32,9,9.92,33.37,32.95,49.36C763,586,813.76,585.4,841.61,552.81c24-28.1,22.5-70.09,6.63-93.75-13-19.4-34.6-24.86-32.57-33.18s23.91-5.57,44-11.48c45.74-13.46,86.14-72.69,74.24-107.86-11.46-33.84-75.56-57.81-151.48-34.48,8.76-4.07,32.84-16.7,41.9-42.43,14-39.76-16.85-85.24-51.6-102.73-41.15-20.72-97.43-7-133.55,36.36.92-9.74,2.92-43.8-19.45-65.65C588.38,67,530.06,80.67,497.6,107.48,473.94,127,465.23,152.55,462,164.67c-39.27-28.84-88.1-34.79-125.31-14.45-25.73,14.07-62.19,49.61-51.78,89.41,9.83,37.6,54.12,50.82,57.31,51.72-9.2,7.75-45.61,40.19-48.56,91.39-.49,8.49-4,68.49,31.68,82.16,24.54,9.42,60.07-6,80.23-40.6-4.47,8.26-22,42.95-11.17,86.07,13.4,53.18,59.11,75.84,65.55,78.9,7.16,10.65,13.23,24.07,9.9,37.27-9.1,36-81.8,45.73-79.62,56.46.8,3.91,10.9,4.84,17.13,5.42,29.58,2.74,52.15-13.78,59.73-19.9a241.88,241.88,0,0,1,27.23,25.79c12.75,14.12,19.77,25.23,21.37,24.32,1-.59-.24-6.24-11.36-30a216.52,216.52,0,0,0,28.27,15.24c24.49,11,47.35,15.67,47.93,14s-20.89-5.74-42.74-23.59c-9.09-7.42-7.86-28.53-14.48-52.41-6.13-22.12,17.38-51.63,20.71-60.39,7.89-1.87-13.75,11.4,0,0a88.84,88.84,0,0,0,27.91-42c1.39,2.58,17.48,31.27,50.47,34.79,26,2.79,51.86-11.24,65-35.47Z"/><path class="cls-3" d="M517.18,327.69c-3,15.29-6.92,30.61-10.5,45.53-2.78,11.55-7.14,38.4-14,39-6.52.59-12.92-25.8-15.48-35.3-5.56-20.63-13.39-43.42-19.61-65.25-.2,18.32.59,36.83-.78,55.05-.93,12.36-1.81,24.81-2.61,37.23-.58,8.65,1.46,63-14.94,59.75-11.18-2.22-9.24-24.32-8.71-34.09,2.2-42,4.56-84,6.81-125.94-.08-20.79,1-43.42,6.83-63.51,2.84-7.15,10.61-12.93,15.74-9.76,3.16,2,7.12,17.95,9.26,25.6,4.72,18.1,8.84,36.31,12.93,54.55,2.58,12.44,4.73,25.14,9,37.14,4.14-14.71,6.55-30,8.75-45.06,4.11-20.89,8.81-41.62,13.44-62.4,2.7-10.42,5-21.51,9.82-30.95,3.89-7.56,15.49-12.76,19.64-1.43,2.92,10.3,3.72,21.57,4.21,32.25,1.73,34.79,3.57,69.62,4.47,104.38.55,20.91.7,42.26,1.71,62.83.67,13.77,2.38,28.2-.41,42.09-1.71,8-13.81,9.79-16.66,5.53-7.12-10.65-4.95-31.66-5.43-45.71-.43-12.4-.92-24.88-1.3-37.22-.83-26.87-.19-54.17-2.19-81.14C523.26,303,520.3,315.38,517.18,327.69Z"/><path class="cls-3" d="M585.41,400.22c8.93-.06,16.26-1.52,23.84-3,5.2-1.05,18.26-7.49,23-4.92,2.94,1.57,5.16,11.73,2.7,22.91-2.61,11.87-12.75,17.52-24.08,18.21-10.75.66-22.94,2.49-32.66,5.6-15.81,5.08-13.83-22-13.66-29.89.32-15.44,1.31-31.31,2.13-46.74,1.56-29.51,3.58-60,4.81-89.27.62-14.9-1.11-34.23,5.67-46.62,5.33-9.74,22.66-11.9,33-8.66,10.67,3.34,30.19,7.39,30.71,21.1.42,10.8-1.73,19-9.29,18.41-2.13-.16-5-.69-8.36-1.26-9.17-1.57-21.62-4-26,.85-2.53,2.74-3,9-3.79,16.59-1.18,11.77-5.14,27.18-.68,38.74,1.5,2.29,3.26,2.75,5.57,3,5.59.56,13.52-3.59,19.12-3,3.68.39,6.87,3.85,7.43,10.53,1.07,12.58-4.23,19.11-9.11,21.44-2.12.52-5.19,1-8.45,1.47-6.52.95-15.65,2.35-18.77,7.17-2.57,4-2.89,13.32-3.17,22.78-.21,7.09-.45,15.2-.25,20.91,0,1.35.12,2.35.09,3.36Z"/><path class="cls-4" d="M693.61,319.63c.62,3.24-.63,6.81-2.84,8.22-3.25,2.09-11.9,1.66-13.8,3.68s-2.77,16.29-3.05,19.28c-.24,2.49-1.22,12.32-1.58,14.8-.63,4.25-1.38,18.36-6.64,19.93-2.31.69-5.8-.06-6.43-1.71-.69-1.84,1.66-13.28,1.9-15.3.27-2.3,1.49-12.24,1.69-14.44.41-4.71.73-10.75,1.15-18.14-2.31-3.19-9.78,1.18-12.74-.5-2.19-1.25-2.81-5.42-2.42-7.56.42-2.34,2.2-5.41,4.21-6.24s9.5-.79,11.17-2.23,2.34-9.2,2.73-12.09c1-7.28.16-15.64,8.43-16,5.24-.24,4.37,3.11,3.69,7.26-1,6.18-4,13-1.48,18.39C678.73,319.37,692.54,314,693.61,319.63Z"/><path class="cls-4" d="M712,326.27c2.64.84,6.24-3.09,8.85-4.28,2.79-1.27,7.24-3.1,11-2.74,2.15.21,4.81,1.6,5.16,3.67.73,4.32-3.28,7.24-5.37,7.9s-6.74,2.16-8.53,2.95c-4.33,1.62-11.43,7.49-11.49,9.43-.15,5.38-.2,18.81-1.47,23.87-1,4.11-3.09,4.63-7.06,4.83-1.57.08-3.86-1.14-4.32-2.49s.08-4.27.32-6.75c1.08-11.56.87-24.05,2-35.83.84-8.79.83-13.08,6.42-13.5a5.19,5.19,0,0,1,4.22,1.69C712.89,319,712.26,322.39,712,326.27Z"/><path class="cls-4" d="M761.34,355c7,.79,10.87-5.36,14-3.15,2.23,1.56,1.79,5.44,0,7.1-5.37,4.44-15.88,6.7-21.07,4.79-7.91-2.92-11.83-5.88-14.11-14.47a28.93,28.93,0,0,1,2.53-21.65c2.67-4.61,7.27-9.53,11.48-11,9.42-4,19.64-.3,23.49,9.39a23.22,23.22,0,0,1,2.21,7.15c.1,2.68-1.79,6.43-4.63,7.58-4.74,2-7.19,3.68-12,5.47-3.26,1.22-7.59,2.9-10.11,4C754,353.75,756.72,354.46,761.34,355Zm-10.53-15.16c1.9.2,8.36-2.38,12-3.38,2.41-.66,5.47-2.68,6-4.5-2.74-7.89-9.06-8.18-15.69-2.3C750.39,332.07,750,337.91,750.81,339.82Z"/><path class="cls-4" d="M808.53,350.34c7,.66,10.81-5,14-3,2.21,1.39,1.79,4.92,0,6.44-5.37,4.09-15.88,6.26-21.07,4.57-8-2.6-11.84-5.27-14.11-13.08a24.56,24.56,0,0,1,2.53-19.79c2.64-4.19,7.26-8.73,11.48-10,10.32-3.63,19-.86,23.48,8.47a19.57,19.57,0,0,1,2.22,6.47,7.79,7.79,0,0,1-4.64,6.91c-4.74,1.86-7.18,3.39-12,5.06-3.26,1.13-7.59,2.69-10.12,3.71C801.16,349.29,803.9,349.91,808.53,350.34ZM798,336.61c1.89.17,8.35-2.22,12-3.15,2.41-.62,5.48-2.47,6-4.13-2.74-7.15-9.06-7.41-15.7-2C797.58,329.54,797.15,334.87,798,336.61Z"/><path class="cls-2" d="M1524.65,79.71c49.47,40.72,148.93,120.35,198.43,161,41.83,34.38,119.18,97.92,161,132.28L1841,416.17c-69.15-49.4-140.42-103.87-212.8-163.92q-53.94-44.74-103.53-89.15c-44.53,40.31-94.29,82-149.53,123.66a2173.88,2173.88,0,0,1-221.43,146.66l-40.26-57.51q94-58.62,189.79-120.78C1386,201.4,1446.33,133.29,1524.65,79.71Z"/><path class="cls-2" d="M1525.81,184.25c19.84,22.58,54.7,49.35,81,70.31,71.89,57.19,104.25,83.53,157,125.07,1.92,71.89,4.51,152.58,6.42,224.48a2829.15,2829.15,0,0,0-293.32-11.51c-78.48,1-152.47,5.21-221.43,11.51,2.88-74.77,5.53-143.75,8.41-218.52C1354.22,333.3,1444.76,261.9,1525.81,184.25Z"/><path class="cls-2" d="M1301.11,395.73"/><polygon class="cls-2" points="2894.01 293.35 3406.6 361 3347.45 684.22 2846.69 628 2894.01 293.35"/><path class="cls-2" d="M3341.59,339.31,3188.81,315s20.92-79.45,87.3-67.48C3351.93,261.2,3341.59,339.31,3341.59,339.31Z"/><path class="cls-2" d="M3168.78,315.2a8.51,8.51,0,0,0,8.26-5.53c5.09-13.66,19.58-48.42,38.81-59.34,22.8-13,45.33-20.15,63.71-14.4s53.79,16.53,62.5,38.7c6.63,16.88,9.55,45.53,10.56,58.26a8.5,8.5,0,0,0,6.86,7.65l13.8,2.66a8.5,8.5,0,0,0,10.1-8.1c.58-19.9.37-64.11-11.93-80.79-16.08-21.83-64.86-56.29-95-56.29s-77.27,3.88-92.2,21.47-45.95,69.28-47.1,83.06C3136.26,312.83,3157.79,314.84,3168.78,315.2Z"/><path class="cls-2" d="M3378.25,610.41,3404.52,458s79.17,22,66.35,88.17C3456.22,621.76,3378.25,610.41,3378.25,610.41Z"/><path class="cls-2" d="M3404.59,437.93a8.53,8.53,0,0,0,5.43,8.33c13.59,5.26,48.16,20.21,58.83,39.57,12.67,23,19.56,45.59,13.58,63.89s-17.23,53.57-39.51,62c-17,6.41-45.65,9-58.39,9.81a8.47,8.47,0,0,0-7.74,6.76L3374,642.05a8.5,8.5,0,0,0,8,10.2c19.89.84,64.1,1.2,80.94-10.88,22-15.8,57.12-64.13,57.51-94.3s-2.87-77.31-20.27-92.47-68.68-46.84-82.45-48.17C3407.38,405.44,3405.09,426.94,3404.59,437.93Z"/><path class="cls-4" d="M3184.06,603.23c1,2.69-.08,5.5-2.35,6.44-3.34,1.39-12.82.26-14.63,1.61s-.95,12.06-.86,14.26c.07,1.84.27,9,.29,10.85-.19,3.11,1.08,13.42-4,13.3-2.23-.05-5.83-1.38-6.75-2.74s-.38-9.13-.44-10.54c-.06-1.57-.18-8.47-.41-10.12-.05-3.44-.8-7.67-1.41-13-3-2.56-10.48-.18-14.07-1.66a6.72,6.72,0,0,1-3.95-5.45,4.87,4.87,0,0,1,3.68-4c2.19-.48,10.52.06,12.19-.9s1.32-6.62,1.4-8.75c.07-5.4-2-11.55,7.64-12,6.07-.29,5.42,2.43,5.12,5.54-.45,4.66-2.41,10.24.48,14.12C3167.66,602.36,3182.39,598.56,3184.06,603.23Z"/><path class="cls-4" d="M3195.28,608c-1-3.94,3.45-5.71,6.92-7.07,7-2.71,13.29-5.36,20.08-3.34,4,1.19,8.06,6.85,9,12.41,1.17,6.88-.34,14.63-1.24,19.88a169.32,169.32,0,0,1-3.67,17.28c-.69,2-3.32,5.36-5.69,5.38a23.75,23.75,0,0,1-7.73-2.23c-6.19-3.21-11-5.65-16.09-10.87-2.06-1.82-4.41-4.13-5-6.44-1.73-5.36.74-8.57,3-10.58a22,22,0,0,1,8.18-3.8c5.3-1.17,14.91.14,16.63-1.83,2.67-3.38-1.59-9.44-3.89-9.52-7.38-.26-13.5,5.52-17.14,4.62C3196.63,611.37,3195.73,609.78,3195.28,608Zm7.13,21.55c.55,5.88,9.44,9.94,13.66,10.18,2.63.15,3.31-7.73,3.19-11.39-1.44-1.28-5.55-1.12-7.61-1.2C3207.53,627,3203.89,627.66,3202.41,629.53Z"/><path class="cls-4" d="M3266.58,607.81c7.78,2,15.13,7.89,14.54,17.45-.55,9.09-6.9,16.24-12.23,20.7a41.75,41.75,0,0,1-12.39,7.2c-2.48.94-10.81,3.18-13.9,2.32-4.75-1.34-6.33-6.15-6.73-10.18-.48-4.79.9-11.65,1.28-16.79.79-10.61,2.36-21.26,3.94-31.8.55-4.23.73-13,2.63-16.46,1.74-3.17,9.11-4.52,11.16-.1,1.56,3.35-.26,9.93-.9,13.94s-1,6.75-.49,10.46C3256.41,607.39,3262.19,606.71,3266.58,607.81Zm-20.12,36.59c3.11.4,11.84-4,14.76-6.89,2.7-2.62,8.18-7.11,8.27-11.33.12-6.4-12.83-11.4-17.54-9.36-2.32,1-3.73,8.68-4.12,14.16C3247.27,636.36,3247,639,3246.46,644.4Z"/><path class="cls-4" d="M3306.44,593.69c-3.61,17.1-7.75,34.08-11.36,51.17-.76,3.43-3,12.69-4.07,15-1.66,3.6-6.25,6.09-8.87,3.58-3-2.84,1.57-17.52,2.71-23.09,2.79-12.95,6.12-26.08,8.4-38.82,1.48-8.27,2.34-22.28,11.11-25.34C3312.11,573.54,3308,586.59,3306.44,593.69Z"/><path class="cls-4" d="M3325.22,656.62c6.29,3,11.34-3.14,13.57.4,1.73,2.72.19,7.3-1.84,8.74-5.94,3.69-15.63,2.73-20-1.16-6.46-5.76-9.71-10.1-10.46-20.11-.78-10.29,2.45-18.32,6.16-23.27,3.52-4.7,9.43-9.41,13.76-10.65,10.76-3.07,20.81,3.51,21.41,15.08a34.63,34.63,0,0,1,.2,9.4c-.65,3.42-3.51,7.59-6.45,8.3-5,1.2-7.71,2.64-12.64,3.5-3.34.59-7.76,1.41-10.35,2C3318.68,653.08,3321.09,654.66,3325.22,656.62Zm-6.8-20.18c.62.73,8.59-.9,12.34-1.28,2.48-.25,5.93-2,6.89-4.08-.75-10.1-7.16-11.3-14.94-5.78C3319.5,627.58,3317.66,635.55,3318.42,636.44Z"/><path class="cls-2" d="M4449.39,197.16c2.38,39.53,11.41,251.74-137.17,374-111.55,91.78-251.45,83-474.42,69.15-29.64-1.85-163.16-10.18-166.52-39-1-8.34,8.83-19.47,19.34-23.67,20.27-8.09,36.62,12.18,55.05,8.07,25.54-5.7,34.19-53.55,36.8-66.94,0,0,17.11-87.68,79.89-192.15,75.45-125.57,298.48-134,416.16-138.48A946.08,946.08,0,0,1,4449.39,197.16Z"/><path class="cls-2" d="M2496,234.17a1959.37,1959.37,0,0,1,25.31,284.46c.67,42.36-.07,83.34-1.94,122.84a1708.67,1708.67,0,0,0-420.57,6.46l-35.05-29.09-3.9-378.2c61.08-11.89,133.81-27.61,202.11-46.46,18.23-5,34.09-9.71,35.44-10.11,18.89-5.59,67.29-20.23,129-43.12l1.41-.52q1.61,5.63,3.2,11.24a2036,2036,0,0,1-197.9,57.67C2174,223.41,2118,234,2066.28,241.88l20.95,11.56c78.62-7.52,162.16-13.29,250.21-16.48Q2419.36,234,2496,234.17Z"/><path class="cls-2" d="M2480.14,227.22c-36.43.11-99.63-3.44-166.66.28-122.73,6.82-212.7,19.31-213.28,16.31-.5-2.57,65.21-10.73,145.93-29.12A1508,1508,0,0,0,2444,155.28q-.69,8.16-1.4,16.31c3.38-.1,17.33-1.71,20.71-1.81-.13,3.06-1.28,7.63-1.41,10.69h0q-.77,4.42-1.52,8.85l12-.61c-.76,3.59-1.71,7.47-2.48,11h0q-.75,4.13-1.52,8.23c3.46-.75,14.56-1.12,14.37-.13-.32,1.58-1.42,5.43-2.33,9.68C2479.76,220.49,2480.2,225.67,2480.14,227.22Z"/><path class="cls-4" d="M2230.58,512.55c5.23,3.28,10.72,7.63,11.9,11.72a3.9,3.9,0,0,1-2.61,4.92c-2.16,1.19-8.49-4.5-11-6.21-6.77-3.51-9.78-3.05-9.24,1,.48,3.55,6.62,8,7.79,9.14,5.31,5.07,13.84,12,15.12,20.92a13.65,13.65,0,0,1-5.75,13.68c-2.66,1.92-8.14,2.54-11.57,1.49-8.09-2.5-8.58-3.75-9.28-10.36a4.15,4.15,0,0,1,1.14-3.15c3.54-3,9.11,7.27,13.67-2.4-.36-5.41-8.41-11.07-11.51-14.06-3.83-3.7-8-8.46-9.37-14-.84-3.46-1.62-9.11-.9-11.23,1.89-5.19,6.36-6.17,12.33-5.19A46.65,46.65,0,0,1,2230.58,512.55Z"/><path class="cls-4" d="M2293,534.42c.6,2.3-.1,5-1.58,5.86-2.17,1.33-9.49-1-11.19-.11s-1.32,11.81-1.32,14.08c0,1.9,0,9.36-.14,11.18-.2,3.09.56,13.29-4.65,13.54-2.3.12-6.1-1-7-2.3s.24-9.89.26-11.47c0-1.76.17-9.66.12-11.44-.11-3.66-.48-8.79-.86-14.65-3-3.47-11.35-2.73-15.22-5.39-2.85-2-4.18-5.93-4-7.47a4,4,0,0,1,4.32-3.3c2.48.23,11.46,3.61,13.28,3.25s1.81-5.62,2-7.34c.48-4.38-.86-8.95,8.44-6,5.87,1.85,4.91,3.35,4.48,5.41-.66,3.19-2.75,7.19-.24,11.45C2281.22,532.31,2292,530.41,2293,534.42Z"/><path class="cls-4" d="M2329,542.43c.42,7.75-2.38,16.77-7.25,22.14a14.29,14.29,0,0,1-10.84,4.66c-3.8-.1-8.29-2.63-10.6-5.25-4.31-6.45-4.29-17.07-1.36-23.48,1.53-3.53,1.84-4.54,4.61-8a15.48,15.48,0,0,1,5.43-4.67C2320.43,520.46,2328.49,532.23,2329,542.43Zm-14.31,16.5c2.32-1.27,5.46-5.71,6-10.46,1-8.9-4-15.35-9.36-12.58-4.16,2.14-7.31,11.69-6.2,17.58C2306,558.05,2309.75,561.43,2314.72,558.93Z"/><path class="cls-4" d="M2344.06,534c1.87,1.4,4.72-.85,6.84-.92a17.55,17.55,0,0,1,9.34,2c1.86,1.09,4.09,3.41,4.2,5.37.23,4-3.48,4.83-5.26,4.49a55.72,55.72,0,0,0-7-.88c-3.44-.2-8.6,3-8.67,4.79-.19,4.8-.46,16.74-1.36,20.85-.73,3.33-2.19,3.27-5,2.82a4.57,4.57,0,0,1-3-2.71c-.33-1.2,0-3.65.19-5.79.72-10.24.4-21.19,1.28-31.57.64-7.54.64-11.3,5.29-10.45a4.93,4.93,0,0,1,3.24,2.39C2344.84,528,2344.3,530.69,2344.06,534Z"/><path class="cls-4" d="M2399.2,549.16c1.87-1.67,6.44-2,6.07,1.48-1.37,13.15-14.86,31.08-24.27,43.47-3.08,3.73-4.85,7.37-7.86,9.51-1.12.81-6.39,5.42-9.89-.5-3.06-5.19,2.83-6,4.3-7a22.71,22.71,0,0,0,7.49-10c.94-2.62-1-6.6-1.54-10.08-1.17-7.54-3.28-12.94-4.37-21-.6-3.69-2.06-8.7-1.16-11.94,1.15-4.15,5.56-5.21,9.17-1.44,1.4,1.52,1.43,4.78,1.62,8,.87,8.1,1.79,19.42,3.93,26.6C2388.19,567.22,2392.35,557.24,2399.2,549.16Z"/><path class="cls-4" d="M1654.49,521.31c-5-3.21-9.88-5.07-14.31-10.38-4.13-4.94-9.18-13.75-10.47-20.2-1.34-6.68-.2-12.62,1.45-15.72,2.14-4,5-7.17,9.06-8.52,4.4-1.47,9.46-.67,15.09,1.09,3.61-2.77,1.24-20.66,3.11-26.14.58-1.36,3.44-1.18,4.84-.16,4.46,2.33,2.78,14.87,2.47,21.71-.43,9.43-1.06,19.23-1.12,28.52-.08,11.38,1,23.62.14,35.11-.35,4.84-3.54,7-7,4.36C1655.67,529.44,1655.71,524.26,1654.49,521.31Zm.58-39.07c-.94-2.57-3.47-2-7.56-3-6.55-1.64-11,7.75-6.49,17.48,2.71,5.79,9.43,12.71,13.6,12.83.84-2.36.61-10.21.79-13.92S1655.93,484.62,1655.07,482.24Z"/><path class="cls-4" d="M1691,517.22c5.71,2,8.71-4,11.23-1.31,1.93,2,1.51,5.86.11,7.35-4.24,3.94-12.53,5-16.86,2-6.36-4.36-9.74-8.41-11.86-18.49-2.15-10.26-.59-18.41,1.58-23s5.75-8.77,9.18-9.43c8.38-2.14,15.52,2.76,19.35,14.49a35.3,35.3,0,0,1,1.89,8c.12,2.91-1.36,6.57-3.64,7.36-3.8,1.44-5.75,2.85-9.61,4-2.61.77-6.09,1.8-8.12,2.5C1685,514.65,1687.23,515.93,1691,517.22Zm-8.87-18.29c1.55.61,6.77-1,9.71-1.4,1.93-.29,4.4-1.95,4.79-3.82-2.36-9-7.53-10.48-12.83-5.41C1681.58,490.39,1681.37,496.68,1682.1,498.93Z"/><path class="cls-4" d="M1725.38,495.27a24.43,24.43,0,0,1,7.21-7.8c2.19-1.41,5.62-3.21,9,0,1,.89,2.44,4.67,2.69,7.73.55,6.6-1.69,17.11-1.74,23.69,0,1.62.35,3.81,0,4.74-1.12,2.87-7,3.88-9,.5a82.36,82.36,0,0,1,.76-14.13c.54-4.52.93-7.22.41-11.69-2.67-.05-4.38,3.45-6.09,6-4.27,6.05-3.66,6.07-6.19,10.92-1.42,2.91-4.15,11.42-6.42,12-6,1.6-5.07-5-4.58-11.5.55-7.27,1.33-13.79,1.49-21.3.13-6-.19-13.64,3.74-13.79,6.84-.25,4,12.05,5.09,18.85A22,22,0,0,0,1725.38,495.27Z"/><path class="cls-3" d="M3869,588.07a308.56,308.56,0,0,1-37.75-40.27c-5.56-7.07-11.51-16-11.38-23.29.2-10.52,5-27.22,13.22-30.94s23,10.67,30.82,15.83c24.58,16.18,52.23,34,79.79,48.41-10.42-14.14-22.29-27.83-30.4-43.5-14.49-22.34-28.71-44.57-40.44-68.51-5.59-11.53-12.07-24.13-13-36.37-.82-11.22,4.8-37,17.56-41.57,6.24,7.24,9.87,16.45,13.42,25.27,15.52,41.34,36.1,80.6,60,117.31,13.73,21.09,45.67,53.74,47.61,80.39a8.06,8.06,0,0,1-5.59,7.66c-11.27,4-26.67-4.14-37.38-8-16.21-5.86-33-14.11-51-16.25,11.61,17.4,27.68,27.6,41.45,42.71,2.91,2.59,7,4,5.34,5.73-2.78,2.88-8.64,5-15.78,5.83-31.12,1.3-62.86-2.68-93.48-5-17.06-1.28-34.59-3.08-51.71-4.88-6.95-.73-16.13-1.74-17.78-4.37-1.78-8.76,2.19-20.62,7.68-27.56,3-2.19,11.16,1.76,17.77,3,34.81,5.66,69.22,14.74,103.52,22.87C3889.21,606.33,3878.84,597.42,3869,588.07Z"/><path class="cls-5" d="M3959.5,292c36.25,31.65,57.21,87.45,75.39,130.17,11.05,26,21.89,52.19,28.74,79.74,3.81,16.68,13.72,44.86-4.91,56.85-12.11,7.79-25-2.16-34.51-8.66-24.4-16.74-43.59-39.52-61.28-63.66-26.37-36-55.51-80.56-56.65-126.92-.58-23.58,2.28-50.71,19.84-68.25C3936.32,281.06,3949.6,281.51,3959.5,292Zm37.22,195.44c11.82,16.16,31.27,39.7,48.46,44.21,13.87,3.64,5.55-29.76,3.62-35.85-10.76-33.94-27-68.14-43-100.11a483.09,483.09,0,0,0-30-52.06c-5.1-7.63-11.87-20.94-21.95-22.86a17.32,17.32,0,0,0-16.61,8.3c-8.87,13.75-4.51,37.95.74,53.27C3950.78,419.59,3973.66,455.86,3996.72,487.41Z"/><path class="cls-6" d="M4102.4,366.11c-9.44-25.66-19-51.62-28.76-76.92-4.34-11.2-11.16-22.37-13.41-34.37a11.54,11.54,0,0,1,6.71-11.32c4.61-2,11.23-3.46,14.71-1,11.23,10.45,14.31,32.14,18.45,45.86,17.3,57.35,39.07,115.6,56.85,173.39,3,9.79,8.36,22,6.17,32-1,4.43-7.64,10.09-12.67,10.75-2.44.29-4.45-1.86-8.11-6.73-20.55-25.67-38.43-53.39-55.76-81.29-15-23.32-31.39-45.7-45.77-69.46,16.18,44.51,36.4,88.07,52.66,132,5.12,13.83,14,31.43,12.48,46.84-1.1,3.94-7.29,8.39-9.87,7.19-8.65-4-12.87-31.65-17.36-43-24.55-61.88-51.23-124.21-78.5-185.49-4.88-11-12.74-23.68-12.86-36,.91-2.89,7.83-7.43,13.4-7.11,9.87.56,17.85,14,23.77,21.34,20.33,25.53,38.06,53.1,55.88,80.4,14.66,22.83,28.05,46.76,44.17,68.61C4118.82,409.43,4110.33,387.67,4102.4,366.11Z"/><path class="cls-7" d="M4135.46,230.22c14.09,1,40.87,1.33,48.38,16.72a155.76,155.76,0,0,1,12,19.83c19.31,36.21,28,78.43,31.52,118.33,1.58,18,5.6,52.31-5.21,68.18-7.9,11.61-19.76,22-33.51,27.63-6.7,2.74-8.73,2.18-10.5-4-8.59-53.38-26.39-106.31-43.08-157.29-4.24-12.93-41.35-84-12.94-88.76A83.63,83.63,0,0,1,4135.46,230.22ZM4183,408.35c3.09,12.44,4.68,26.62,10.83,38,36.85-6.54,19.71-77.24,15.16-98-5.22-23.79-11.18-49.54-28.2-68.5-7.44-8.21-23.34-19.49-34.61-13.05-3,12.22,6.06,29.43,9.45,41.06C4165.35,341.07,4174.65,374.74,4183,408.35Z"/><path class="cls-8" d="M4261.16,421.57c7.87-1.09,14.8-3.58,22.26-6.13,5.12-1.75,18.51-9.74,23.45-7.91,3.05,1.14,5.45,10.52,2.15,19.32-3.76,10-14.3,13-23.71,14.8S4265,446,4256.9,449.77c-11.43,5.27-11.17-11.14-11.81-18-1.47-15.66-3.11-31.73-5.1-47.42-4.55-36-9.88-72.85-16.56-108.1-2.6-13.73-11-35-5.69-46,4.52-9.43,28.63-9.19,39.56-9.36,11.34-.18,44-3.06,47.52,10.08,2.33,8.68.62,18.2-10.09,19.34-3,.32-7.06.47-11.79.63-10.66.34-25-.2-34,6.68-2.55,2.93-1.73,9.47-.93,18.13,1.31,14.17.32,33.18,7.45,46.21,2.12,2.74,4.17,3.39,6.83,3.15,6.44-.58,15.2-7.47,22.19-8,4.57-.31,8.88,3.21,10.44,11.5,1.8,9.6,0,21.9-8.49,28.23-2.37,1-5.8,2.21-9.35,3.41-7.1,2.42-16.44,5.47-18.77,11.26-2,4.92-.71,15.74.24,25.84.72,7.57,1.38,15.62,2.08,20.84.08,1.25.31,2.13.36,3Z"/><path class="cls-9" d="M4398.4,214.13c25.85,7.22,32.07,20.24,29.43,46-2.24,21.7-9.72,45.12-22.08,63.91-2.67,4.12-9.76,9.83-11.19,16.15-2.13,9.4-1.23,19.64-1.59,29.46-1.21,15.72-3,31.29-5.2,46.91-.89,6.2-1.68,13.16-4,17.42-3,5.45-9,5.53-11.68,3.6-1.65-1.08-.86-5.88-.77-9.34.83-12.66,1.65-25.13,1.57-37.82-1.11-6,.29-17.89-2.85-20.77-2.28-2.1-12,5.26-14.73,11.23-5.36,16.82-6.41,40.78-18,55-3,3.26-11.4,6.73-16.13,5.25-4.88-1.52,1.52-13.35,4.15-25.25,5.25-23.76,8.35-48.34,10.58-72.36,2.34-25.31,4.5-51.44,5.49-76.78.6-15.19-3.22-35.38,2.74-48.75,2.53-5.67,13-7.34,20.5-7.55A120.7,120.7,0,0,1,4398.4,214.13Zm6.89,69.87c3.05-10.72,5.12-25.43-.6-33.8-5.3-7.76-21.08-9.92-31.13-7.79-8.42,27.15-7.71,57.75-10.38,85.86,8.61-1.48,16.5-12.2,21.47-17.73C4391.52,302.9,4402.13,295.12,4405.29,284Z"/><path class="cls-9" d="M3001.89,479.08a334.92,334.92,0,0,1-10.8,53.88c-4.15,14.51-7.65,37.26-25.41,40-16.35,2.58-25.21-18.81-30.07-30.24-9.08-21.34-19.74-49.16-25.45-74.47-2.1,21.53-2.82,43.56-6.89,64.66-2.56,13.31-5.1,26.83-7.85,40.21-2.68,12.31-3.72,40.53-21.75,40.55-6.84,0-6-4.42-4.21-18.6C2875.31,549,2884,503,2891.28,457c1.76-15.75,2.77-35.15,10.68-49.26,2.71-3.23,10.35-6.26,15.92-6.05,3.43.15,7.63,7.82,10.08,13.24,7,16.78,11.78,34.44,17.21,51.75,4.11,13.87,7.74,29.45,15.85,41.68,6.75-16.11,10.05-34.58,12.06-51.85,3.54-20.83,7.07-41.68,11.08-62.43,1.91-7.29,4.42-15.64,7.53-18.82,3.48-3.57,12.82-7.94,16.61-5.44,1.68,1,5.48,10.5,6.81,15.47,10.31,35.6,20,71.45,29.6,107.19,5.68,21.24,11.28,42.69,17.29,63.77,3,10.58,6.64,19.8,5.52,23.8-.6,2.42-12.3,4.2-17.25,3.38-8.74-1.47-11.15-15.23-13.46-23.32-3.2-11.25-6.07-23-8.82-34.45-7.17-29.77-12.08-60.65-20.26-90.43C3005.57,449.8,3004.2,464.5,3001.89,479.08Z"/><path class="cls-9" d="M3081,576.29c-2.64,5.13-9.59,3.7-10.79-.63-.86-3.09-1.22-11.18-2.25-20.11-5.63-51.15-10.45-103-3.89-154.24,2.59-20.22,5.16-37.26,28.66-38.73,12.64-.79,18.71,1.27,21.53,13.76,9.86,43.66,26.38,90.11,34.56,136.46,2.28,12.74,7.34,27.64,6.66,38.34-.27,4.15-11.1,9-16.13,10.32-12.78,3.38-14.83-37.35-20.37-46.43-11.32,4.23-30.41,9.31-33.27,15.54C3082.21,538.27,3087,564.64,3081,576.29Zm8.9-154.54c-5.45,21.49-4.89,45.86-2.86,67.77,6.22,1.78,22-5.6,22.79-9.49,2.61-12.91-7.19-41.55-17.18-58.54Z"/><path class="cls-9" d="M3238.55,369.35c6.53-2.78,15.12-6.6,21.66-6.84,12.65-.46,22.14,4,21.23,9s-14,11-22,15c-24,14.29-45.46,31.7-58.21,57.2-.25,5.33,1.82,10.52,4.47,15.39,10.91,20.23,20.64,41.07,31.66,61.23,3.87,6.32,12.22,14.36,10,20.09-2.39,6.18-15.33,8.65-23.87,8.28-7.49-.33-10.55-4.12-12.81-8.28a184.93,184.93,0,0,1-13.29-34c-1.57-5.95-2.74-16.54-6.39-26.06-2.68,19.77-.52,41-6.83,60.12-2.17,5-6.37,8.28-13.11,9.19-3.53.48-5-2.8-4.43-11.26,2.25-31,2.62-62.73,3.38-93.2.59-23.26-6.76-60.74,6.39-81.86,6-5.62,17.85-6.56,19.42-2.77,4.84,11.62-3.18,36.94-4.12,55C3208.52,398.12,3212.7,378.67,3238.55,369.35Z"/><path class="cls-9" d="M3307.14,526c12.17.42,24.16.63,36.28-.42,6.74-.59,19.62-5.4,21.77-3.17,1.29,1.32.65,9.91-1.59,17.25-3.12,10.18-9.32,8.89-21.36,8.69-17.48-.28-35.4-.66-52.52-.25-16.34.4-24.86-1.18-20.17-18,3.61-12.92,7.82-26.44,11.17-39.54,7.36-28.8,14.35-59.06,21-87.88,2.43-10.58,3.89-28.48,14.39-33,13.08-5.58,33.13-2.05,48.43-.32,8.7,1,27.07,1.29,27.57,9.42.33,5.26-2.15,13.1-8.06,13.38a67.79,67.79,0,0,1-7.4-.31c-10.68-.8-22.43-2.09-32.9,1.18-3.89,1.78-5.32,6.77-7.29,13.33-3.15,10.48-10.6,26.15-5.76,37.2,2,2.54,4.51,3.39,7.91,3.62,8.22.53,19.25-3.85,25.34-3.48,4,.24,6.43,3.59,6,10.49-.84,13.16-6.38,20.06-12.15,22.49a80.6,80.6,0,0,1-10.5,1.52c-9,.75-21.89,1.21-28.59,6-4.36,3.11-6.49,12.73-8.25,21.25-1.32,6.39-2.82,13.18-3.24,17.66-.24,1-.11,1.83-.29,2.59Z"/><path class="cls-4" d="M4161.71,542.72c3,1.47,3.77,7.32,1.33,10.6-3.59,4.82-18.12,12.12-19.57,15.38s8.29,15,10.08,17.22c1.5,1.89,7.23,8.52,8.51,10,2.11,2.43,11.12,7.36,5.53,9.55a33.54,33.54,0,0,1-9.46,2c-2.15-.06-7.37-4.11-8.58-5.05s-7.31-6.62-8.8-8c-3-2.86-7.52-7.11-13.23-12.67-5.85-.89-10.72,5.46-14.39,4.84-2.75-.47-6.18-3.36-7.71-4.86-1.76-1.73-3.27-4-2.55-5s9.28-5,10.25-7.18c1-2.38-5.4-8.45-7.67-10.78-5.74-5.89-17.46-9.1-2.34-18.91,9.53-6.18,11.93-3,14.61.43,4.17,5.34,8.37,15,14.63,15.77C4137.89,556.63,4154.61,539.21,4161.71,542.72Z"/><path class="cls-4" d="M4186.65,535.57c1.1,1.58,1.89,5.69,3,9.52,2.39,8.35,4.82,16.48,7.81,24,1.69,4.24,4.66,9.91,5,12,.51,2.87-3.14,6.29-6.82,5.48-2.57-.52-4.09-4.14-5.86-8.19-3.13-7.17-6.54-16.52-9.85-25.4-2.56-6.88-3.72-15.63-.05-19C4181,533,4184.43,532.4,4186.65,535.57Zm-9.87-22.39c5.37,7.38-3.31,17-9.34,10.24-3-3.36-2.71-8.81-.95-11.24C4168.76,509.05,4173.62,508.82,4176.78,513.18Z"/><path class="cls-4" d="M4221.75,523.72c2.84-8.6,7.39-18.49,13.92-24.93,15.36-21.56,19.58,11.86,19.3,20.5,3.76-6.44,5.94-10.31,7.76-14.66s4.38-9.79,6.09-13.83c2.74-6.51,10.45-19.46,14.27-16.56,5.75,4.36-2,26.17-4.54,35.94-1.63,6.12-3,12.7-4.39,18.65-1.23,5.29-2.91,13.33-4.12,16.59-2.29,6.2-7.11,10.56-6.92,2.58.12-4.7,1.63-12.78,2.58-18.58,1-6.19,2.51-13.2,2.63-20.2a45.41,45.41,0,0,0-4.64,10.59c-3.55,10.32-6.86,21-12.12,30.48-3.33,6-10.34,11.87-12.34,5.2-.46-1.62-.16-5.39-.09-8.74.19-8.84,2.6-20.81-1.15-26.47-4.75,3.54-6,10.26-7.73,15.54-3.22,9.75-5.93,17.73-6.72,26.65-.55,5-1.08,9.15-2.73,11.25-1.47,1.87-5.15,3.79-6.66,3.66-2.83-.11-4.07-4.09-5.63-9.16-1.29-4.2-3.41-10.3-5.11-16.68-1.65-6.21-3.52-12.57-5-16.82-3.3-9.59-8-16.44-1.72-23.9,1.52-1.93,5.86-4.21,8.45-4.11,10.46,4.54,8.76,19.58,11.46,29.15C4218.07,533.8,4220.24,527.42,4221.75,523.72Z"/><path class="cls-4" d="M4299.66,534.07c4.59,1.65,13.67-6.92,13.29-4.52-.45,2.83-5.3,8-8.05,10.36-7.71,6.38-15.06,8.39-17.08,5.63-2.88-3.9-4.77-8-2.87-21.63,1.76-12.54,6.62-26.06,14.83-35.89,6.78-8.12,16.07-15.45,26.53-18.79,9.81-2.3,40.21-4.45,23.18,15.66a103.11,103.11,0,0,1-8.17,12.74c-3.84,4.89-10.37,11.51-14.15,13.56-6.45,3.58-10.77,6.36-17.14,9.1-4.34,1.87-10,4.29-13.21,5.84C4294.8,531.77,4296.63,533,4299.66,534.07Zm3-25.31c2.15.4,12.35-3.8,17.69-5.44a32.45,32.45,0,0,0,12.23-7.88c14-18-15.75-5.77-18.47-4.26C4308,495.39,4303.14,505.46,4302.65,508.76Z"/><path class="cls-7" d="M2159.27,534.19c-5.57-12.48-5.25-29-6.84-42.67-3-25.73-6.08-51.87-9.66-77.42-3.68-26.31-5.14-54.58-13.35-80.2-3.13-6.54-14.39,6.94-19.34-3.73-1.36-2.83-4.45-15.81-4.68-22.83,1-11.93,17.12-11.06,25.68-10.52,10.08.64,21.3-.52,31.17-1.17,2.76-.18,9.08,1.36,10,6.54,1.15,6.34-.4,14.63-2.63,17.54-3.7,4.54-16.71,2.2-18.85,10.3-5.09,19.29,2.8,46.43,4.95,66.25,4.48,41.32,12.23,83.77,12.33,125.55C2168,531.88,2162,540.4,2159.27,534.19Z"/><path class="cls-7" d="M2210,384a8.09,8.09,0,0,0,7.29-6.55c1.46-25-.18-50.69-2.06-75.27-.53-6.88-1.41-11.28-.31-14.07,1.58-4,11.3-7.49,14.94-4.95,6.66,4.64,2.75,30.42,3.22,40.76,1.94,42,4.73,84.86,4.3,127.26,0,11,1.18,22.76-.81,33.64-1.83,6.6-9.28,2.47-11.17.41-10.19-11.12-2.06-44.82-5.72-63.16-2.1-2.58-4.27-.73-6.16-1-3-.37-6.62-2.86-8.87,1.32-.23,22.34,2.37,44.7,1.76,67-.63,3.05-4.91,7.18-9.58,10.07-3.83,2.37-2.42-1.29-3-11.94-1.24-22.64-2.08-46.84-3.36-69.93-1.83-33.28-4.26-67.8-5.2-100.78-.23-8.29-6-29.7,4.91-32.63,2.75,0,5.5.49,6.25,1.14,3.46,9.78,1.74,21.59,2.06,31.83.62,20.19-.73,44.23,3.33,60.84C2203.08,383.28,2207.72,384,2210,384Z"/><path class="cls-7" d="M2271.16,280.9c4.67,16.31-.35,36.91-.15,53.68.41,35.87.5,72.16,2,108,.63,15.14,5.22,37.46-.52,49.48-1.59,3.34-10.48,4.76-14.44,3-5.92-2.65-5.05-12.2-5.33-24.23-.33-14.52-1.45-29.11-1.84-43.61-.91-34.27-1.27-68.77-1.79-103.15-.2-12.68-3-28.77.8-38.88,1.11-3,8.3-5.59,12.31-6.21C2263.79,278.74,2269.47,277.75,2271.16,280.9Z"/><path class="cls-7" d="M2340.72,380c.46-22.53,1.29-45.57,1.62-67.73.14-9.53-1.27-20.83,1-30.43.86-2.91,4.81-7.06,10.46-7.84,5.17-.72,12.51-.62,15,2.15,6.9,11.1.94,30.73-.39,42.65-5.81,51.71-6,106.82-7.73,159.8-.28,8.35,1.19,22.83-4.15,29-2.31,2.67-11.88,1.74-16.95-1.76-2.45-1.72-3.8-5.16-5.53-11.27-8.2-26.95-10.44-55.07-13.65-82.91-2.71-20.85-7.1-41.43-9.72-62.29-1.61,36.42-.21,73.43-.66,109.34-.15,11.83,1.64,28.08-3.58,39.26-2,2.61-9,3.07-12.19.11-7.06-6.55-1.78-27.36-1.66-37.73.59-49.36,1.38-100,1.62-149.71.05-9.48-1.31-22,3.19-30.78,1.87-2.39,8.34-5.08,12-4.08,3.78,1,5.31,9.36,7.41,21.19,4.41,24.25,6.22,49,9.5,73.38,3.12,22.36,5.95,45.15,12.1,66.91C2340.52,418.34,2340.33,399,2340.72,380Z"/><path class="cls-7" d="M2475.3,293.81c4.06-4.53,8.44-11.46,11.31-12.45,5.46-1.89,8,4.12,7.94,12.5s-3.75,18.65-7.17,25.07c-13,26.48-29.6,51.19-44.86,76.37-.32,7.1,2.84,14.84,6.3,22.23a342.14,342.14,0,0,1,26,91.08c1.94,9.48,3.35,20.34,2.24,30-1.09,9.43-4.48,13.6-8.6,12.12-3.56-1.27-6.61-8.67-9-15.86-6.25-18.76-13.17-37.19-20.6-55.51-5.39-13.88-11.74-27.26-18.45-40.54-5.81,25.86,1.22,54.42-7,79.65-2.93,6.25-10.41,8.26-21.64,2.72-5.87-2.9-9.22-10.55-9-21.92.84-38.07,4.05-77.35,6.76-114.49,2.25-30.74-4.84-76.56,10.63-105.22,7.27-8,25.06-9.1,28.85-2.6,8.5,14.63-5.09,52.65-7.23,77.2C2445.63,341,2456.27,312.18,2475.3,293.81Z"/><path class="cls-6" d="M1333.18,549c-.56,3.61-.53,6.22-1.63,7.49-2.07,2.09-10.19,4.19-11.59,2-9.94-15.62.85-57,3.31-80.85,2.93-28.41,6.46-57.36,11.14-85.15,1.57-9.34,4-20.16,11.34-26.78,2.59-2.33,6.14-4.93,10.62-8.37,10.13-7.8,26.84-21.41,41-17,10.4,4.55,15.12,18.09,16.67,28.33a155.91,155.91,0,0,1-4.32,64.29c-5.27,17.9-13.68,36.62-26.53,49.44-12.69,12.65-31.32,19.81-46.7,31C1334.76,525.18,1335,537.46,1333.18,549Zm15.93-166.87a320.41,320.41,0,0,0-5.82,37.69c-1.51,18.32-4.76,36.92-4.48,55.58,27.19-11.13,50.42-39.61,49.86-67.86C1388.21,384.91,1373,366.46,1349.11,382.08Z"/><path class="cls-6" d="M1461.75,278.19c7.23,21.72-2.65,53.87-4.14,76.24-2.2,32.83-5,65.89-6.53,98.76-1,22.14-8.21,62.94-2.1,69.21,1,1,13.25-2,16.87-3.72,8-3.77,14.87-7.42,18.29-.21,4.51,9.49,2.07,20.85-3.27,22.32-12.22,3.36-25.33,6.58-37.25,8.75-2.55.47-4.38,1.2-6.7.51-8.33-6.44-5.3-19.93-5.17-29.15.77-52.22,3.06-106.2,4.94-158.3.73-20.4-5.58-68.7,16.39-81.26C1457.63,278.74,1459.59,277.17,1461.75,278.19Z"/><path class="cls-6" d="M1506.27,541.3c-2,4.94-11.75,3-12.9-2.2-.82-3.75,1.16-13.68,2.43-24.49,8.08-63.95,17.77-127.71,31.12-190.78,3.76-18.17,4.29-63.13,30.75-62.86,23.48.23,22,18.6,20.75,36.86-4.21,63.47-16.9,126-26.57,188.79-2.41,16-2.64,34.67-2.75,49.12,0,5.74-9.89,9-12.2,8.29-8-2.38,2.93-48.87,2.11-59.78-8.11,1.07-21.62,1.72-24,6.3C1509.71,500.78,1511.73,527.52,1506.27,541.3ZM1543.16,360c-9.91,26.39-15.13,55.44-18.88,83.3,3.78,4.23,16.61,1.12,18.47-3.28,7.59-17.91,7.22-54.08,2.83-79.48Z"/><path class="cls-6" d="M1637.77,384.68c12.07-12.67,23.06-22,39.11-29.07,3.42-.95,8.19-2,12.47-2.79,3.53-.62,12-1.1,14.49-.33,5.46,1.85,14.2,11,5.86,16.49-7.72,5.1-21.51,5.22-26.09,6.94-20.91,7.83-34.28,24.34-46.74,42-3.57,5.49-6.85,11.54-10.26,17.7-3.83,6.93-8,13.54-9.92,20.32a169.89,169.89,0,0,0-5.48,33.48c-.82,11-1.76,22.26-1.42,33.27.17,5.5,1.61,14.09,1.67,16.59-.7,3.53-7.06,7-17.43,6.59-22.6-.83-11.57-36.88-9.56-49.83,2.72-17.51,5.77-35,6.41-52.76-.16-9.55-1.21-19.09-.78-28.64,1.53-20.58.64-41.22,1.79-61.81.52-10.19.92-20.56.77-30.65-.13-9.56-1.08-19.88.2-29.47,1.69-12.67,18.64-28.22,28.46-12.16,3.15,8.71,2,18.78,1.47,27.84,0,10.77-.41,21.63-1.16,32.37-1.87,21.58-7,44.69-2.88,66.24C1626.59,401.43,1632,392.1,1637.77,384.68Z"/></g></g></svg>