<svg xmlns="http://www.w3.org/2000/svg" viewBox="0 0 1155.22 1603.16"><defs><style>.cls-1{fill:#fbc62f;}.cls-2{fill:#fddd70;}.cls-3{fill:#97bb45;}.cls-4{fill:#789233;}</style></defs><g id="Layer_2" data-name="Layer 2"><g id="Layer_1-2" data-name="Layer 1"><path class="cls-1" d="M676.93,368.48c-65.15,24.21-20.18,136.68-111.58,385.45C472,1008.06,374,1029.74,372.62,1180c-1.44,162.53,111.19,373.91,304.31,415.89,152.37,33.11,296.83-51.82,375.31-142,131.54-151.19,104.68-348.18,91.29-446.32C1093.71,642.23,795.61,324.37,676.93,368.48Z"/><path class="cls-2" d="M647.85,1434.38c18.78,34.88,103.4,29.1,159.27,11.38,117.06-37.14,173-147.4,187.72-176.34,81.69-160.94,24.84-320.58,11.38-358.37-31-87.1-90.08-173.14-113.77-165-22.76,7.86,16.35,92.56-5.69,216.16-19.83,111.21-79.84,201.69-153.59,312.87C670.72,1369.25,632.59,1406,647.85,1434.38Z"/><path class="cls-2" d="M619.41,1235.29c53.75-.22,87.64-78.15,108.08-125.15,19.23-44.23,36.89-84.83,17.06-119.45-22.3-39-79.52-48.52-119.45-39.82-63.34,13.78-107.49,78.79-108.08,142.21C516.37,1162,567.08,1235.5,619.41,1235.29Z"/><path class="cls-3" d="M767.31,478.73c-10,20.54-34.06,49.21-56.89,45.51-20.92-3.39-28.33-31.95-36.3-69.7-11.7-55.35-24.62-130.45-83.15-174.9-42.66-32.4-107.82-47.19-136.53-22.75-34.74,29.57,8.16,96-28.44,142.21-31.33,39.58-103.85,42.8-153.58,28.44-29-8.37-66.47-27.39-210.47-273C11.19,67.91-10.77,24.86,5.06,6.6,16.38-6.46,39.12,2.24,107.45,12.28c108.94,16,106.85,2.13,165,17.07C306.12,38,415.3,66.09,426,126.05c6.14,34.41-23.53,60.4-11.37,74,13.45,15,51.71-14.71,102.39-17.06,68.76-3.2,122.56,45.74,153.58,73.95C704.79,288,760.05,351.55,773.25,413,778.15,435.78,777.25,458.29,767.31,478.73Z"/><path class="cls-4" d="M135.89,97.61c-5.95,3.34,35.8,88.24,85.33,165,55,85.13,77.93,95.8,96.7,96.7,35.2,1.7,72.44-30.13,68.26-45.5-3.35-12.31-39.3,3.4-81.58-13.91-29.58-12.1-41.37-31.62-95-105.81C162.33,128.71,138.7,96,135.89,97.61Z"/><path class="cls-4" d="M788.32,548.2c-18.84,19-52.64,32.89-82.06,19.44-30.07-13.75-37.09-47.59-38.87-56.15a92.18,92.18,0,0,1,6.73-56.95c8,37.75,15.38,66.31,36.3,69.7,22.83,3.7,46.9-25,56.89-45.51s10.84-43,5.94-65.76c16.87,11.88,25.68,30.84,28,35.9C814,476.28,816.67,519.56,788.32,548.2Z"/></g></g></svg>