<svg xmlns="http://www.w3.org/2000/svg" viewBox="0 0 779.16 461.49"><defs><style>.cls-1{fill:#29424c;}.cls-2{fill:#d66d59;}.cls-3{fill:#ffea9a;}.cls-4{fill:#abc866;}.cls-5{fill:#62b8d6;}.cls-6{fill:#d5e5b2;}.cls-7{fill:#fed252;}.cls-8{fill:#fff;}</style></defs><g id="Layer_2" data-name="Layer 2"><g id="Layer_1-2" data-name="Layer 1"><path class="cls-1" d="M778.18,9.73c2.38,39.53,11.41,251.74-137.17,374-111.55,91.77-251.45,83.05-474.42,69.14C137,451,3.43,442.67.07,413.85c-1-8.34,8.83-19.47,19.34-23.67,20.27-8.1,36.62,12.18,55.05,8.07,25.54-5.7,34.19-53.56,36.8-66.95,0,0,17.12-87.68,79.89-192.14C266.6,13.59,489.63,5.13,607.31.67A945.93,945.93,0,0,1,778.18,9.73Z"/><path class="cls-2" d="M197.74,400.63A307.84,307.84,0,0,1,160,360.37c-5.56-7.07-11.51-16-11.38-23.29.2-10.53,5-27.22,13.22-30.94s23,10.67,30.82,15.83c24.58,16.18,52.23,34,79.79,48.41-10.42-14.14-22.29-27.84-30.4-43.5-14.49-22.34-28.71-44.57-40.44-68.52-5.59-11.52-12.07-24.13-13-36.36-.82-11.23,4.8-37,17.56-41.57,6.24,7.23,9.87,16.44,13.42,25.27,15.52,41.33,36.1,80.59,60,117.31,13.73,21.09,45.67,53.73,47.62,80.39a8.09,8.09,0,0,1-5.6,7.66c-11.27,4-26.67-4.14-37.38-8-16.21-5.85-33-14.1-51.05-16.24,11.61,17.4,27.68,27.6,41.45,42.71,2.91,2.59,7,4,5.34,5.73-2.78,2.88-8.64,4.95-15.78,5.82-31.12,1.31-62.86-2.67-93.48-5C153.66,434.8,136.13,433,119,431.2c-7-.73-16.13-1.74-17.78-4.37-1.78-8.76,2.19-20.62,7.68-27.56,3-2.19,11.16,1.76,17.77,3,34.81,5.67,69.22,14.75,103.52,22.88C218,418.9,207.63,410,197.74,400.63Z"/><path class="cls-3" d="M288.29,104.53c36.25,31.66,57.21,87.46,75.39,130.18,11.05,26,21.89,52.19,28.74,79.74,3.81,16.68,13.72,44.86-4.91,56.85-12.11,7.79-25-2.16-34.51-8.66-24.4-16.74-43.58-39.53-61.28-63.66-26.37-36-55.51-80.56-56.65-126.92-.58-23.58,2.28-50.72,19.84-68.25C265.11,93.63,278.4,94.08,288.29,104.53ZM325.51,300c11.82,16.17,31.27,39.71,48.46,44.22,13.87,3.63,5.55-29.76,3.62-35.85-10.76-33.94-27-68.14-43-100.11a483.23,483.23,0,0,0-30-52.07c-5.1-7.62-11.87-20.94-21.94-22.85a17.32,17.32,0,0,0-16.62,8.29c-8.87,13.75-4.51,38,.74,53.28C279.57,232.16,302.45,268.43,325.51,300Z"/><path class="cls-4" d="M431.19,178.68c-9.44-25.66-19-51.62-28.76-76.92-4.34-11.2-11.16-22.37-13.41-34.37a11.53,11.53,0,0,1,6.71-11.32c4.61-2,11.23-3.46,14.71-1,11.23,10.45,14.31,32.13,18.45,45.86,17.3,57.35,39.07,115.6,56.85,173.39,3,9.78,8.36,22,6.17,32-1,4.44-7.63,10.1-12.67,10.76-2.44.29-4.45-1.87-8.11-6.73-20.55-25.67-38.43-53.4-55.75-81.29-15.05-23.32-31.4-45.7-45.78-69.47,16.18,44.52,36.4,88.07,52.66,132,5.12,13.82,14,31.43,12.48,46.84-1.1,3.94-7.29,8.39-9.87,7.18-8.64-4-12.87-31.64-17.36-43C383,240.71,356.28,178.38,329,117.1c-4.89-11-12.75-23.68-12.87-36,.91-2.9,7.83-7.44,13.4-7.12,9.87.57,17.85,14,23.77,21.34,20.33,25.54,38.06,53.1,55.88,80.41,14.66,22.83,28.05,46.76,44.17,68.61C447.61,222,439.12,200.24,431.19,178.68Z"/><path class="cls-5" d="M464.26,42.78c14.08,1,40.86,1.34,48.37,16.72a156.71,156.71,0,0,1,12,19.84c19.31,36.2,28,78.43,31.52,118.33,1.59,18,5.6,52.3-5.21,68.18-7.9,11.6-19.76,22-33.51,27.63-6.7,2.73-8.73,2.18-10.5-4-8.59-53.38-26.39-106.32-43.08-157.29-4.24-12.93-41.34-84.05-12.94-88.77A86.12,86.12,0,0,1,464.26,42.78Zm47.55,178.14c3.09,12.44,4.68,26.62,10.83,38.05,36.85-6.54,19.71-77.24,15.16-98-5.22-23.79-11.18-49.54-28.2-68.51-7.44-8.2-23.34-19.48-34.61-13-3,12.22,6.06,29.43,9.45,41.06C494.14,153.64,503.44,187.31,511.81,220.92Z"/><path class="cls-6" d="M590,234.14c7.87-1.1,14.8-3.58,22.26-6.13,5.12-1.75,18.51-9.74,23.45-7.91,3.05,1.14,5.45,10.52,2.15,19.31-3.76,10-14.3,13-23.71,14.8s-20.28,4.37-28.41,8.12c-11.42,5.28-11.17-11.13-11.81-18-1.47-15.66-3.11-31.73-5.1-47.42-4.55-36-9.88-72.85-16.56-108.11-2.6-13.73-11-34.95-5.69-45.95,4.52-9.43,28.63-9.19,39.56-9.36,11.34-.18,44-3.06,47.53,10.08,2.32,8.68.61,18.19-10.1,19.34-3,.32-7.06.47-11.79.62-10.66.35-25-.2-34,6.69-2.55,2.93-1.72,9.47-.92,18.13,1.31,14.17.31,33.18,7.44,46.21,2.12,2.74,4.17,3.39,6.83,3.15,6.44-.58,15.2-7.48,22.19-8,4.57-.32,8.88,3.21,10.44,11.5,1.8,9.6,0,21.9-8.49,28.23-2.37,1-5.8,2.21-9.35,3.41-7.1,2.41-16.44,5.46-18.77,11.26-2,4.91-.71,15.74.24,25.84.72,7.57,1.38,15.62,2.08,20.84.08,1.24.31,2.13.36,3Z"/><path class="cls-7" d="M727.19,26.7c25.85,7.22,32.07,20.24,29.43,46-2.24,21.71-9.72,45.13-22.08,63.92-2.67,4.12-9.76,9.83-11.19,16.14-2.13,9.41-1.23,19.65-1.59,29.46-1.21,15.73-3,31.3-5.2,46.92-.89,6.2-1.67,13.16-4,17.42-3,5.45-9,5.53-11.68,3.59-1.65-1.08-.86-5.87-.77-9.34.83-12.65,1.65-25.12,1.57-37.82-1.11-6,.29-17.88-2.85-20.76-2.28-2.1-12,5.25-14.73,11.22-5.35,16.83-6.41,40.79-18,55-3,3.26-11.4,6.73-16.13,5.25s1.52-13.35,4.15-25.25c5.25-23.77,8.35-48.34,10.58-72.36,2.34-25.31,4.5-51.44,5.49-76.78.6-15.2-3.22-35.39,2.74-48.75,2.53-5.67,13-7.35,20.51-7.55A120.67,120.67,0,0,1,727.19,26.7Zm6.89,69.87c3-10.73,5.12-25.43-.6-33.8C728.18,55,712.4,52.85,702.35,55c-8.42,27.14-7.71,57.74-10.38,85.86,8.61-1.48,16.5-12.21,21.47-17.73C720.31,115.47,730.92,107.69,734.08,96.57Z"/><path class="cls-8" d="M490.5,355.29c3,1.47,3.77,7.32,1.33,10.59-3.59,4.83-18.12,12.13-19.57,15.38-1.51,3.4,8.29,15,10.08,17.23,1.5,1.88,7.24,8.51,8.51,10,2.11,2.43,11.12,7.36,5.53,9.55a33.89,33.89,0,0,1-9.46,2c-2.15-.06-7.37-4.11-8.58-5.05s-7.31-6.63-8.8-8c-3-2.85-7.52-7.1-13.23-12.66-5.85-.89-10.72,5.45-14.39,4.84-2.75-.47-6.18-3.36-7.71-4.86-1.76-1.73-3.27-4-2.55-5s9.28-5,10.25-7.18c1-2.38-5.4-8.46-7.67-10.78-5.74-5.89-17.46-9.11-2.34-18.91,9.53-6.18,11.93-3,14.61.43,4.17,5.34,8.37,15.05,14.63,15.77C466.68,369.19,483.4,351.78,490.5,355.29Z"/><path class="cls-8" d="M515.44,348.13c1.1,1.59,1.89,5.7,3,9.53,2.39,8.34,4.82,16.47,7.81,24,1.69,4.24,4.66,9.91,5,12,.51,2.87-3.14,6.29-6.82,5.48-2.57-.52-4.09-4.14-5.86-8.2-3.13-7.17-6.54-16.51-9.85-25.39-2.56-6.88-3.72-15.63-.05-19C509.78,345.55,513.22,345,515.44,348.13Zm-9.86-22.39c5.36,7.39-3.32,17-9.35,10.25-3-3.36-2.71-8.82-1-11.24C497.56,321.62,502.41,321.39,505.58,325.74Z"/><path class="cls-8" d="M550.54,336.29c2.84-8.6,7.39-18.5,13.92-24.93,15.36-21.56,19.58,11.86,19.3,20.5,3.76-6.45,5.94-10.31,7.76-14.66s4.38-9.79,6.09-13.83c2.74-6.51,10.45-19.46,14.27-16.56,5.75,4.35-2,26.17-4.54,35.93-1.62,6.13-3,12.7-4.39,18.66-1.23,5.28-2.91,13.33-4.12,16.58-2.29,6.21-7.11,10.57-6.92,2.59.12-4.71,1.63-12.78,2.58-18.58,1-6.19,2.51-13.2,2.63-20.2a45,45,0,0,0-4.64,10.59c-3.55,10.31-6.86,21-12.12,30.48-3.33,6-10.34,11.87-12.34,5.2-.46-1.62-.16-5.39-.09-8.74.19-8.84,2.6-20.81-1.14-26.47-4.76,3.54-6,10.26-7.74,15.54-3.22,9.75-5.92,17.73-6.72,26.65-.55,5-1.07,9.15-2.73,11.25-1.47,1.87-5.15,3.78-6.66,3.66-2.83-.12-4.07-4.09-5.63-9.16-1.29-4.2-3.41-10.31-5.11-16.69-1.65-6.2-3.52-12.56-5-16.81-3.3-9.6-8-16.45-1.72-23.9,1.52-1.94,5.86-4.21,8.45-4.11,10.46,4.54,8.77,19.58,11.46,29.15C546.86,346.37,549,340,550.54,336.29Z"/><path class="cls-8" d="M628.45,346.64c4.59,1.64,13.67-6.92,13.29-4.52-.45,2.82-5.3,8-8,10.36-7.71,6.38-15.06,8.39-17.08,5.63-2.88-3.9-4.77-8-2.87-21.63,1.76-12.55,6.62-26.06,14.83-35.89,6.78-8.12,16.07-15.46,26.53-18.79,9.81-2.3,40.21-4.45,23.18,15.66a101.94,101.94,0,0,1-8.17,12.74c-3.84,4.89-10.37,11.51-14.15,13.55-6.45,3.59-10.77,6.37-17.14,9.11-4.34,1.86-10,4.28-13.21,5.83C623.59,344.34,625.42,345.56,628.45,346.64Zm3-25.32c2.15.41,12.35-3.79,17.69-5.43A32.36,32.36,0,0,0,661.36,308c14-18-15.75-5.76-18.47-4.25C636.82,308,631.93,318,631.44,321.32Z"/></g></g></svg>