<svg xmlns="http://www.w3.org/2000/svg" xmlns:xlink="http://www.w3.org/1999/xlink" width="344" height="344" viewBox="0 0 344 344">
  <defs>
    <clipPath id="clip-path">
      <rect id="Rectangle_3176" data-name="Rectangle 3176" width="292" height="285" transform="translate(11716 982)" fill="#fff" stroke="#707070" stroke-width="1"/>
    </clipPath>
    <clipPath id="clip-path-2">
      <rect id="Rectangle_3180" data-name="Rectangle 3180" width="251.333" height="202.808" fill="none"/>
    </clipPath>
    <clipPath id="clip-Your_brain_is_amazing_6">
      <rect width="344" height="344"/>
    </clipPath>
  </defs>
  <g id="Your_brain_is_amazing_6" data-name="Your brain is amazing 6" clip-path="url(#clip-Your_brain_is_amazing_6)">
    <rect width="344" height="344" fill="#fff"/>
    <g id="Mask_Group_134" data-name="Mask Group 134" transform="translate(-11674 -952)" clip-path="url(#clip-path)">
      <g id="thinkbudcode" transform="translate(11862 1124.5)">
        <g id="Group_3359" data-name="Group 3359" transform="translate(-125.667 -101.404)">
          <g id="Group_3358" data-name="Group 3358" clip-path="url(#clip-path-2)">
            <path id="Path_469949" data-name="Path 469949" d="M182.048,72.037c12.329-2.941,33.255-7.918,40.607-19.342,9.275-14.365-8.257-30.54-25.111-38.684C159.765-4.087,83.528-2.051,64.073,20.458c-13.686,15.722,2.262,39.476,32.8,50.448,35.4,12.782,75.671,3.28,85.173,1.018" transform="translate(7.752 0.241)" fill="#e8e8e8"/>
            <path id="Path_469950" data-name="Path 469950" d="M63.894,65.557c1.7-.9,4.638-2.375,5.656-5.882s-1.131-9.275-3.506-11.65C60.727,42.6,50.095,43.161,47.38,49.948c-1.923,4.751.339,11.877,4.638,15.27s10.632,1.018,11.877.339" transform="translate(6.121 5.816)" fill="#e8e8e8"/>
            <path id="Path_469951" data-name="Path 469951" d="M38.4,182.489c14.7,2.941,27.147-5.542,30.314-7.692,27.034-18.437,38.345-66.736,23.414-92.638C90.205,78.766,84.776,69.265,74.6,67.342,54.915,63.5,35.12,91.548,31.048,97.316S2.092,139.394,15.665,165.3c7.126,13.8,21.6,16.854,22.848,17.08" transform="translate(1.528 8.782)" fill="#b4deec"/>
            <path id="Path_469952" data-name="Path 469952" d="M97.046,87.613c-4.751-.452-4.411,17.193-21.039,30.314-12.329,9.728-19.229,5.316-37.44,16.062C28.388,140.1,14.023,148.58,13,161.588c-.679,10.18,7.013,20.021,14.818,24.771,19.229,11.877,51.466.9,67.641-19.342,24.658-30.766,9.275-78.725,1.47-79.517" transform="translate(1.7 11.472)" fill="#d2dea1"/>
            <path id="Path_469953" data-name="Path 469953" d="M54.523,71.371c3.506,2.941-9.049,15.27-7.126,36.2,1.357,15.5,8.936,17.08,13.573,37.327,2.6,11.311,6.108,27.26-2.262,37.214-6.56,7.8-18.437,9.388-26.92,7.465C10.862,184.595-2.824,154.62.456,128.944,5.433,90.034,48.868,66.62,54.523,71.371" transform="translate(-0.004 9.278)" fill="#bcce72"/>
            <path id="Path_469954" data-name="Path 469954" d="M69.352,109.129c-.339-2.715-3.393-3.846-3.959-4.072a6.9,6.9,0,0,0-7.013,1.131c-1.923,1.81-3.054,4.977-2.036,7.465s5.316,3.28,7.8,2.375,5.429-3.846,5.09-6.787" transform="translate(7.337 13.709)" fill="#fff"/>
            <path id="Path_469955" data-name="Path 469955" d="M45.72,99.4c2.149-1.7,4.977-.339,5.542-.113a6.56,6.56,0,0,1,3.959,5.656c.113,2.6-1.357,5.656-3.846,6.674s-5.882-1.357-6.9-3.846-1.018-6.56,1.244-8.37" transform="translate(5.746 12.922)" fill="#fff"/>
            <path id="Path_469956" data-name="Path 469956" d="M49.983,103.5a2.6,2.6,0,0,1,2.149,1.7,3.167,3.167,0,0,1-.339,3.28,3.506,3.506,0,0,1-3.62,1.244c-1.47-.452-1.7-2.262-1.357-3.506a3.766,3.766,0,0,1,3.167-2.715" transform="translate(6.12 13.57)" fill="#051c22"/>
            <path id="Path_469957" data-name="Path 469957" d="M62.383,108.7a2.6,2.6,0,0,1,2.149,1.7,3.167,3.167,0,0,1-.339,3.28,3.506,3.506,0,0,1-3.62,1.357c-1.47-.452-1.7-2.262-1.357-3.506a3.766,3.766,0,0,1,3.167-2.715" transform="translate(7.746 14.252)" fill="#051c22"/>
          </g>
          <text id="I_m_going_to_learn_all" data-name="I’m going to learn all" transform="translate(101.348 20.216)" fill="#354952" font-size="11" font-family="GoodDogNew, GoodDog New"><tspan x="0" y="0">I’m going to lea</tspan><tspan y="0" letter-spacing="-0.01em">r</tspan><tspan y="0">n all</tspan></text>
          <text id="about_programming_so_I_can" data-name="about programming so I can" transform="translate(86.53 31.527)" fill="#354952" font-size="11" font-family="GoodDogNew, GoodDog New"><tspan x="0" y="0" letter-spacing="-0.02em">a</tspan><tspan y="0">bout p</tspan><tspan y="0" letter-spacing="-0.01em">r</tspan><tspan y="0">o</tspan><tspan y="0" letter-spacing="-0.03em">gr</tspan><tspan y="0">amming so I can</tspan></text>
          <text id="make_my_own_computer_games._" data-name="make my own computer games. " transform="translate(78.16 43.838)" fill="#354952" font-size="11" font-family="GoodDogNew, GoodDog New"><tspan x="0" y="0">ma</tspan><tspan y="0" letter-spacing="-0.03em">k</tspan><tspan y="0">e my own computer </tspan><tspan y="0" letter-spacing="-0.01em">g</tspan><tspan y="0">ame</tspan><tspan y="0" letter-spacing="-0.05em">s</tspan><tspan y="0">. </tspan></text>
          <text id="One_day_I_ll_make_a_robot._" data-name="One day, I’ll make a robot. " transform="translate(93.882 55.149)" fill="#354952" font-size="11" font-family="GoodDogNew, GoodDog New"><tspan x="0" y="0">One da</tspan><tspan y="0" letter-spacing="-0.11em">y</tspan><tspan y="0">, I’ll ma</tspan><tspan y="0" letter-spacing="-0.03em">k</tspan><tspan y="0">e a </tspan><tspan y="0" letter-spacing="-0.01em">r</tspan><tspan y="0">obot. </tspan></text>
        </g>
      </g>
    </g>
  </g>
</svg>
