<svg xmlns="http://www.w3.org/2000/svg" xmlns:xlink="http://www.w3.org/1999/xlink" width="344" height="344" viewBox="0 0 344 344">
  <defs>
    <clipPath id="clip-path">
      <rect id="Rectangle_3285" data-name="Rectangle 3285" width="325.038" height="292.949" fill="none"/>
    </clipPath>
    <clipPath id="clip-Your_brain_is_amazing_15">
      <rect width="344" height="344"/>
    </clipPath>
  </defs>
  <g id="Your_brain_is_amazing_15" data-name="Your brain is amazing 15" clip-path="url(#clip-Your_brain_is_amazing_15)">
    <rect width="344" height="344" fill="#fff"/>
    <g id="feeling_2" data-name="feeling 2" transform="translate(162.519 169.477)">
      <g id="Group_3475" data-name="Group 3475" transform="translate(-162.519 -146.475)">
        <g id="Group_3474" data-name="Group 3474" clip-path="url(#clip-path)">
          <path id="Path_513603" data-name="Path 513603" d="M301.652,73.143c-12.738,2.147-20.324,1-43.653-19.036-6.87-5.868-13.024-2.147-15.744,2.576-4.294,7.3,11.879,23.616,19.322,34.493,24.188,35.066,18.606,98.757-7.3,139.4a125.808,125.808,0,0,1-29.2,31.774c-44.655,34.78-107.774,39.646-130.817,15.6-18.463-19.322-5.582-51.668-31.488-70.418-7.156-5.153-26.478-15.887-47.231-11.45C8.388,197.519,3.521,200.381-.2,201.526v-32.2a72.992,72.992,0,0,1,7.872,2.863c5.868,2.147,11.307,1.288,17.175,1.718,3.292.286,4.294.286,10.448-.573,9.589-1.145,19.751,1,26.335-4.151s6.584-10.591,6.584-18.893c-.143-11.736-2.29-27.766,4.294-48.949,9.16-29.484,26.478-41.793,20.61-52.527-3.721-6.87-14.169-7.872-20.038-7.872H69.216C46.173,43.372,39.589,65.414,26.708,62.981S4.38,42.084,4.38,25.625A25.763,25.763,0,0,1,8.674,10.6C17.691-2.285,39.446-1.855,52.327,5.444c9.3,5.439,7.872,11.164,19.179,19.179a51.382,51.382,0,0,0,7.156,4.151,58.682,58.682,0,0,0,27.91,6.154c16.746-.716,17.032-9.017,33.921-12.738s21.755,3.864,64.12,10.162c25.476,3.721,31.058,2,35.066,0,15.6-7.872,13.74-22.757,26.908-29.484,15.458-7.729,43.367.143,54.531,23.043,12.309,25.619-6.87,45.085-19.465,47.231" transform="translate(-0.086 -0.005)" fill="#bf3422"/>
          <path id="Path_513604" data-name="Path 513604" d="M193.155,10.409c-6.584,2.147-8.731,14.6-8.015,22.471,1.145,12.738,10.734,23.043,22.184,25.333,5.009,1,16.316,1.574,19.465-4.723,6.3-12.309-21.039-47.375-33.778-43.081" transform="translate(79.786 4.333)" fill="#fff"/>
          <path id="Path_513605" data-name="Path 513605" d="M8.631,20.811C6.2,25.534,9.919,33.692,14.785,37.7c12.881,10.448,39.073-1.861,39.073-9.446s-15.744-10.162-23.9-11.307c-5.582-.716-18.177-2.576-21.326,3.721" transform="translate(3.392 6.955)" fill="#fff"/>
          <path id="Path_513606" data-name="Path 513606" d="M206.972,36.448a6.87,6.87,0,0,0,3.721-7.729c-1.145-4.294-6.441-7.3-10.162-7.013a7.443,7.443,0,0,0-6.154,9.3c1.431,4.437,8.444,7.443,12.6,5.439" transform="translate(83.716 9.353)" fill="#051c22"/>
          <path id="Path_513607" data-name="Path 513607" d="M30.972,34.548a6.87,6.87,0,0,0,3.721-7.729c-1.145-4.294-6.441-7.3-10.162-7.013a7.443,7.443,0,0,0-6.154,9.3c1.431,4.437,8.444,7.443,12.6,5.439" transform="translate(7.815 8.533)" fill="#051c22"/>
          <path id="Path_513608" data-name="Path 513608" d="M223.848,248.566a52.812,52.812,0,0,1-8.874,5.582c-40.934,19.894-93.032,4.294-113.212-23.186C94.034,220.514,84.873,183.587,75,177.29c-5.868-3.721-13.883-6.011-22.757-6.87l-7.872-.429h-.143a93.032,93.032,0,0,0-35.781,6.87A56.393,56.393,0,0,0,0,181.3v-18.32l4.294.572A81.868,81.868,0,0,0,35.5,161.4a59.54,59.54,0,0,0,6.87-2.29A61.115,61.115,0,0,0,68.557,138.5a82.152,82.152,0,0,0,6.584-10.734,42.957,42.957,0,0,0,2.147-4.58c2.433-6.011,2.863-10.878,5.725-22.041,7.729-29.913,12.738-48.806,27.194-60.685,19.179-15.744,47.518-12.738,51.955-12.309,52.813,6.154,78.576,64.693,80.293,68.557,5.868,13.74,10.448,35.066,11.45,57.823,1.574,35.781-5.439,75.141-30.056,94.034" transform="translate(0 11.922)" fill="#cb8c00"/>
          <path id="Path_513609" data-name="Path 513609" d="M210.719,118.639c-2.863-10.734-7.443-28.339-21.612-45.657-9.017-11.021-25.619-31.345-52.813-33.062-2.719-.143-28.482-1.431-48.376,18.893s-35.5,74.712-25.476,83.442c2.147,1.861,5.3,3.435,22.184,0,27.051-5.582,33.491-4.58,46.516-6.584,19.465-2.863,43.8-5.582,60.685,11.593,7.443,7.586,18.32,21.755,21.183,15.458,5.153-11.45-1.717-42.079-2.29-44.083" transform="translate(25.582 17.188)" fill="#fff"/>
          <path id="Path_513610" data-name="Path 513610" d="M216.486,150.09c-2.863-12.023-14.313-17.891-26.049-23.616-7.443-3.578-23.043-10.162-49.092-11.021-16.316-.573-52.384-1.145-74.425,22.041-6.011,6.3-5.582,8.731-5.153,9.446,2.576,6.011,27.766-13.6,60.256-5.439s49.951,5.439,60.256,17.318,15.171,21.612,22.328,20.467,14.742-16.746,11.879-29.055" transform="translate(26.542 49.713)" fill="#bf3422"/>
          <path id="Path_513611" data-name="Path 513611" d="M185.577,186.68c2.29-15.458-20.9-29.2-25.906-32.2-38.787-23.043-91.171-9.16-91.171-3.864,0,.572.573,1.145,20.467,6.3,44.941,11.736,47.375,10.448,55.1,15.744,17.6,12.166,19.036,29.341,29.055,28.339,6.154-.573,11.593-7.586,12.6-14.169" transform="translate(29.541 61.071)" fill="#bf3422"/>
          <path id="Path_513612" data-name="Path 513612" d="M146.482,192.5c1.717-5.439-19.465-16.889-31.488-22.041s-32.633-11.307-35.352-6.3,6.87,13.454,14.169,18.893c20.61,15.458,50.81,15.458,52.67,9.446" transform="translate(34.142 69.994)" fill="#bf3422"/>
        </g>
        <text id="To:_Brain" data-name="To: Brain" transform="translate(141.122 73.842)" fill="#051c22" font-size="8" font-family="GoodDogNew, GoodDog New"><tspan x="0" y="0" letter-spacing="-0.09em">T</tspan><tspan y="0">o: B</tspan><tspan y="0" letter-spacing="-0.03em">r</tspan><tspan y="0">ain</tspan></text>
        <text id="From:_Ears" data-name="From: Ears" transform="translate(138.546 84.147)" fill="#051c22" font-size="8" font-family="GoodDogNew, GoodDog New"><tspan x="0" y="0" letter-spacing="-0.07em">F</tspan><tspan y="0" letter-spacing="-0.01em">r</tspan><tspan y="0">om: Ears</tspan></text>
        <text id="Message:_Mum_says_it_s_time_to" data-name="Message: Mum says it’s time to" transform="translate(104.768 94.452)" fill="#051c22" font-size="8" font-family="GoodDogNew, GoodDog New"><tspan x="0" y="0">Mess</tspan><tspan y="0" letter-spacing="-0.01em">a</tspan><tspan y="0" letter-spacing="-0.02em">g</tspan><tspan y="0">e: Mum says it’s time to</tspan></text>
        <text id="come_off_the_computer." data-name="come off the computer." transform="translate(119 104.997)" fill="#051c22" font-size="8" font-family="GoodDogNew, GoodDog New"><tspan x="0" y="0">come off the compute</tspan><tspan y="0" letter-spacing="-0.18em">r</tspan><tspan y="0">.</tspan></text>
        <text id="_................" data-name="................" transform="translate(144.843 115.062)" fill="#051c22" font-size="8" font-family="GoodDogNew, GoodDog New"><tspan x="0" y="0">................</tspan></text>
        <text id="To:_Mouth" data-name="To: Mouth" transform="translate(144.7 125.367)" fill="#051c22" font-size="8" font-family="GoodDogNew, GoodDog New"><tspan x="0" y="0" letter-spacing="-0.09em">T</tspan><tspan y="0">o: Mouth</tspan></text>
        <text id="From:_Brain" data-name="From: Brain" transform="translate(142.839 135.672)" fill="#051c22" font-size="8" font-family="GoodDogNew, GoodDog New"><tspan x="0" y="0" letter-spacing="-0.07em">F</tspan><tspan y="0" letter-spacing="-0.01em">r</tspan><tspan y="0">om: B</tspan><tspan y="0" letter-spacing="-0.03em">r</tspan><tspan y="0">ain</tspan></text>
        <text id="Message:_Tell_Mum_It_s_not_fair_" data-name="Message: Tell Mum ‘It’s not fair!!!!!!!!!!!!!’" transform="translate(93.175 145.977)" fill="#051c22" font-size="8" font-family="GoodDogNew, GoodDog New"><tspan x="0" y="0">Mess</tspan><tspan y="0" letter-spacing="-0.01em">a</tspan><tspan y="0" letter-spacing="-0.02em">g</tspan><tspan y="0">e: </tspan><tspan y="0" letter-spacing="-0.1em">T</tspan><tspan y="0">ell Mum ‘It’s not </tspan><tspan y="0" letter-spacing="-0.1em">f</tspan><tspan y="0">air!!!!!!!!!!!!!’</tspan></text>
      </g>
    </g>
  </g>
</svg>
