<svg xmlns="http://www.w3.org/2000/svg" xmlns:xlink="http://www.w3.org/1999/xlink" width="344" height="344" viewBox="0 0 344 344">
  <defs>
    <clipPath id="clip-path">
      <rect id="Rectangle_3178" data-name="Rectangle 3178" width="292" height="285" transform="translate(12777 982)" fill="#fff" stroke="#707070" stroke-width="1"/>
    </clipPath>
    <clipPath id="clip-path-2">
      <rect id="Rectangle_3183" data-name="Rectangle 3183" width="292" height="251.156" fill="none"/>
    </clipPath>
    <clipPath id="clip-Your_brain_is_amazing_9">
      <rect width="344" height="344"/>
    </clipPath>
  </defs>
  <g id="Your_brain_is_amazing_9" data-name="Your brain is amazing 9" clip-path="url(#clip-Your_brain_is_amazing_9)">
    <rect width="344" height="344" fill="#fff"/>
    <g id="Mask_Group_136" data-name="Mask Group 136" transform="translate(-12751 -952)" clip-path="url(#clip-path)">
      <g id="thinking_bud_ball" data-name="thinking bud ball" transform="translate(12923 1124.5)">
        <g id="thinking_bud_ball-2" data-name="thinking bud ball" transform="translate(-146 -125.578)" clip-path="url(#clip-path-2)">
          <path id="Path_469967" data-name="Path 469967" d="M129.869,61.818c10.242.18,13.118-14.735,30.727-25.157,26.594-15.813,53.189-1.977,56.783,0,20.844,11.321,30.907,34.86,28.571,37.735S231.574,55.708,218.816,59.3c-8.446,2.336-7.547,18.508-16.352,27.134-22.282,21.563-46,17.25-47.439,24.977s-14.016,24.438-4.133,34.86c21.563,22.462,44.384,86.073,60.916,104.222.539.539-21.383,2.875-42.946-5.75-15.274-6.11-22.462-10.782-46-48.7-13.477-21.743-.9-46.72-9.164-45.822-4.133.539-5.391,7.547-12.4,14.735-10.422,10.782-23.54,11.141-32.884,11.321-28.571.719-67.2,17.79-64.869,9.883s10.782-33.063,23.9-47.978A134.23,134.23,0,0,1,66.078,108c9.344-4.672,14.375-5.57,15.454-9.7S73.8,89.311,63.023,79.787,40.382,60.2,38.405,45.466C35.53,24.981,50.624-.535,55.835,0s.9,6.649,4.492,12.758c7.367,12.758,23.9,2.336,39.353,9.7,20.305,9.7,15.993,38.993,30.368,39.173" transform="translate(2.744 -0.004)" fill="#d2dea1"/>
          <path id="Path_469968" data-name="Path 469968" d="M130,124.864a56.787,56.787,0,0,1-3.414,5.57c-13.477,19.227-36.837,27.313-54.267,20.305h-.359l-.719-.359-1.258-.539a32.165,32.165,0,0,1-7.008-4.672c-9.7-8.446-9.164-25.337-14.2-43.845C36.558,56.042,73.934,36.276,83.1,32.5s19.586-.719,30.548,8.266c16.711,14.016,34.142,51.931,16.532,84.1" transform="translate(36.936 24.64)" fill="#ffe485"/>
          <path id="Path_469969" data-name="Path 469969" d="M147.834,103.121c-9.883,5.211-13.836,17.79-11.68,28.032s11.5,20.665,22.1,21.024c15.094.539,29.47-18.329,24.438-33.782s-22.1-21.922-35.04-15.094" transform="translate(108.048 80.165)" fill="#ffb900"/>
          <path id="Path_469970" data-name="Path 469970" d="M193.952,169.193c.359,3.234-10.961,11.141-22.1,14.016-17.071,4.313-29.829-4.133-35.759-8.086-16.532-11.321-9.164-19.227-25.876-33.962-11.141-9.7-16.352-12.219-30.368-23.18-4.852-3.953-13.477-6.469-19.047-8.8C78.41,116,101.59,108.1,115.067,88.87a56.424,56.424,0,0,0,3.414-5.57l6.289,1.8c5.391,1.617,25.876,4.492,36.478,21.922,14.735,24.258-2.336,53.548,14.2,60.2,7.906,3.234,18.149-.9,18.508,2.156" transform="translate(48.453 66.384)" fill="#ffd54e"/>
          <path id="Path_469971" data-name="Path 469971" d="M119.114,79.174c12.039,10.242,19.227,31.446,11.68,43.126-10.242,15.633-47.079,12.938-91.463,23-5.031,1.078-14.016,3.234-17.969,10.6s-.18,16.711-3.414,18.508S5.908,169.919,2.314,162.372c-8.446-17.43,8.266-43.845,21.563-57.681,23.9-24.977,71.158-45.822,95.237-25.157" transform="translate(0.022 56.673)" fill="#ffd54e"/>
          <path id="Path_469972" data-name="Path 469972" d="M92.422,97.406c11.86,6.828,26.594,0,29.649-1.438C153.158,81.593,143.634,51.225,157.83,32.9c.9-1.078-5.93,1.8-10.242,10.242s-15.454,15.813-40.251,6.11c-11.68-4.672-17.61-1.617-20.126.719-9.7,8.625-10.6,38.454,5.391,47.439" transform="translate(63.91 26.043)" fill="#ffd54e"/>
          <path id="Path_469973" data-name="Path 469973" d="M86.027,36.514a4.672,4.672,0,0,0-4.313-1.8,5.556,5.556,0,0,0-3.953,9.344c1.977,1.8,5.031.719,6.649-.719s2.875-4.672,1.617-6.649" transform="translate(60.782 27.636)" fill="#fff"/>
          <path id="Path_469974" data-name="Path 469974" d="M69.578,36.785a4.492,4.492,0,0,1,4.133-1.977,5.391,5.391,0,0,1,4.852,2.875,5.75,5.75,0,0,1-.719,6.289c-1.8,1.8-4.852.9-6.469-.539s-2.875-4.672-1.8-6.649" transform="translate(55.128 27.725)" fill="#fff"/>
          <path id="Path_469975" data-name="Path 469975" d="M74.052,36.342a2.156,2.156,0,0,1,2.156.539,2.516,2.516,0,0,1,.719,2.516,2.875,2.875,0,0,1-2.156,2.156c-1.258.18-1.977-1.078-2.156-2.156a3.055,3.055,0,0,1,1.438-3.055" transform="translate(57.842 28.887)" fill="#051c22"/>
          <path id="Path_469976" data-name="Path 469976" d="M81.472,36.142a2.156,2.156,0,0,1,2.156.539,2.516,2.516,0,0,1,.9,2.516,2.875,2.875,0,0,1-2.156,2.156c-1.258.18-1.977-1.078-2.156-2.156a3.055,3.055,0,0,1,1.438-3.055" transform="translate(63.899 28.727)" fill="#051c22"/>
          <path id="Path_469977" data-name="Path 469977" d="M96.837,39.548c4.852-6.289-1.078-21.383-10.782-28.751C70.962-.883,48.5,7.563,48.5,9.18s12.938-2.336,23.18,5.57,9.7,26.415,17.969,27.673a8.086,8.086,0,0,0,7.188-3.055" transform="translate(38.651 3.758)" fill="#ffd54e"/>
          <path id="Path_469978" data-name="Path 469978" d="M29.154,16.2c-1.8.539-1.977,10.422,1.617,20.485C31.67,39.2,40.834,64.717,57.006,64c8.266-.359,17.071-7.727,17.61-15.274S62.038,29.318,51.256,28.239c-4.492-.359-7.008.9-11.321-1.078-7.367-3.414-9.164-11.321-10.782-10.782" transform="translate(22.238 12.91)" fill="#ffd54e"/>
          <path id="Path_469979" data-name="Path 469979" d="M88.168,64.081c-13.836-7.547-30.907-1.258-39.353,1.977-12.938,4.852-23.719,12.758-23,14.2S33,78.276,48.1,74.323C75.77,67.135,84.215,69.651,87.27,70.55c7.547,2.7,12.219,7.367,12.938,6.469S95.9,68.393,88.168,64.081" transform="translate(20.546 48.227)" fill="#ffd54e"/>
          <path id="Path_469980" data-name="Path 469980" d="M107.246,79.68c13.118-.9,22.821,6.649,26.954,9.7,14.2,10.961,20.305,26.954,19.047,27.852s-5.57-8.8-17.61-17.61C117.309,85.969,97.543,85.789,97.9,82.375s8.625-2.7,9.344-2.875" transform="translate(78.017 63.355)" fill="#ffd54e"/>
          <path id="Path_469981" data-name="Path 469981" d="M105.583,53.647c1.617,1.8,7.906-.18,12.039-2.875,8.266-5.57,6.649-13.657,14.735-17.969,5.211-2.875,10.422-1.8,10.6-3.234s-4.672-3.774-8.8-3.953c-15.454-1.078-31.806,24.079-28.571,28.212" transform="translate(83.813 20.386)" fill="#ffd54e"/>
          <path id="Path_469982" data-name="Path 469982" d="M92.374,86.315c5.031,7.367-.9,19.407-7.188,25.337-17.79,17.25-55.166,2.7-54.986.359s22.282,4.133,32.165-7.906C68.834,96.2,64.7,87.034,71.53,82.541s16.532-2.156,20.665,3.774" transform="translate(24.067 63.908)" fill="#ffe485"/>
          <path id="Path_469983" data-name="Path 469983" d="M100.183,96.241c9.344-5.211,22.282,7.906,23,8.625,13.3,13.836,9.524,36.118,7.727,36.3s-.539-13.657-10.242-21.024-22.462-1.258-26.235-7.906.539-13.118,5.93-15.993" transform="translate(74.119 75.724)" fill="#ffe485"/>
        </g>
      </g>
    </g>
  </g>
</svg>
