<svg xmlns="http://www.w3.org/2000/svg" xmlns:xlink="http://www.w3.org/1999/xlink" width="344" height="344" viewBox="0 0 344 344">
  <defs>
    <clipPath id="clip-path">
      <rect id="Rectangle_3177" data-name="Rectangle 3177" width="292" height="285" transform="translate(12422 980)" fill="#fff" stroke="#707070" stroke-width="1"/>
    </clipPath>
    <clipPath id="clip-path-2">
      <rect id="Rectangle_3181" data-name="Rectangle 3181" width="149.167" height="247.361" fill="none"/>
    </clipPath>
    <clipPath id="clip-Your_brain_is_amazing_8">
      <rect width="344" height="344"/>
    </clipPath>
  </defs>
  <g id="Your_brain_is_amazing_8" data-name="Your brain is amazing 8" clip-path="url(#clip-Your_brain_is_amazing_8)">
    <rect width="344" height="344" fill="#fff"/>
    <g id="Mask_Group_135" data-name="Mask Group 135" transform="translate(-12385 -950)" clip-path="url(#clip-path)">
      <g id="thinkbud_foodt" data-name="thinkbud foodt" transform="translate(12568 1122.5)">
        <g id="Group_3361" data-name="Group 3361" transform="translate(-74.583 -123.68)">
          <g id="Group_3360" data-name="Group 3360" clip-path="url(#clip-path-2)">
            <path id="Path_469958" data-name="Path 469958" d="M104.507,83.053c10.413-3.387,28.228-9.284,34.5-22.833,7.9-16.937-7.026-36.131-21.327-45.791C85.563-7.024,20.7-4.64,4.142,22.082-7.4,40.649,6.15,68.751,32.119,81.8c30.109,15.18,64.359,3.889,72.388,1.255" transform="translate(-0.002 -0.002)" fill="#e8e8e8"/>
            <path id="Path_469959" data-name="Path 469959" d="M41.172,94.171c1.882-1,5.144-2.635,6.273-6.524S46.19,77.36,43.556,74.725c-5.9-6.022-17.689-5.395-20.7,2.133-2.133,5.269.376,13.173,5.144,16.937s11.793,1.129,13.173.376" transform="translate(5.623 17.986)" fill="#e8e8e8"/>
            <path id="Path_469960" data-name="Path 469960" d="M103.385,209.315c14.176-8.531,18.066-24.84,19.069-28.98,8.406-35.378-18.442-83.3-50.057-93.464-4.14-1.255-15.682-5.018-25.467,1C27.986,99.541,32.754,137.3,33.757,145.081c.753,5.771,7.653,56.079,38.264,67.244,16.058,5.9,30.109-2.258,31.364-3.011" transform="translate(8.27 21.524)" fill="#ffe485"/>
            <path id="Path_469961" data-name="Path 469961" d="M76.15,88.924c-4.265,3.136,9.284,17.438,5.395,40.648-2.76,17.187-11.793,18.693-18.693,41.149-3.889,12.546-9.284,30.235-.251,41.651,7.026,8.907,20.7,11.166,30.737,9.284,24.589-4.642,42.78-37.637,41.024-66.366-2.635-43.659-51.186-71.51-58.211-66.366" transform="translate(14.68 22.481)" fill="#d2dea1"/>
            <path id="Path_469962" data-name="Path 469962" d="M35.319,103.2c5.018-.125,4.015,19.195,21.2,35,12.671,11.667,20.073,7.276,39.017,20.449,10.538,7.4,25.467,17.815,25.969,32.242.376,11.291-8.155,21.453-16.56,26.22-20.7,11.542-54.322-2.76-70.757-26.22-24.966-35.629-7.026-87.317,1.129-87.568" transform="translate(5.454 26.27)" fill="#bcce72"/>
            <path id="Path_469963" data-name="Path 469963" d="M74.371,117.718c-2.384-2.007-5.646-.627-6.273-.376a7.653,7.653,0,0,0-4.893,6.147c-.251,2.885,1.129,6.4,4.015,7.653s6.775-1.255,8.155-3.889,1.631-7.276-.878-9.409" transform="translate(16.082 29.693)" fill="#fff"/>
            <path id="Path_469964" data-name="Path 469964" d="M49.417,126.552c.5-3.011,3.889-4.015,4.391-4.265a7.276,7.276,0,0,1,7.527,1.631c2.007,2.133,3.136,5.646,1.756,8.406s-5.771,3.262-8.531,2.007-5.771-4.642-5.144-7.778" transform="translate(12.558 31.02)" fill="#fff"/>
            <path id="Path_469965" data-name="Path 469965" d="M55.362,126.114a2.885,2.885,0,0,1,3.011-.251,3.513,3.513,0,0,1,2.258,3.011,3.889,3.889,0,0,1-1.882,3.764c-1.631.753-3.136-.627-3.764-1.882a4.459,4.459,0,0,1,.5-4.642" transform="translate(13.89 31.96)" fill="#051c22"/>
            <path id="Path_469966" data-name="Path 469966" d="M68.062,121.514a2.886,2.886,0,0,1,3.011-.251,3.513,3.513,0,0,1,2.258,3.011,3.889,3.889,0,0,1-1.882,3.764c-1.631.753-3.136-.627-3.764-1.882a4.459,4.459,0,0,1,.5-4.642" transform="translate(17.123 30.789)" fill="#051c22"/>
          </g>
          <text id="I_m_going_to" data-name="I’m going to" transform="translate(33.12 28.947)" fill="#354952" font-size="12" font-family="GoodDogNew, GoodDog New"><tspan x="0" y="0">I’m going to</tspan></text>
          <text id="practice_running_with_a" data-name="practice running with a" transform="translate(10.789 41.493)" fill="#354952" font-size="12" font-family="GoodDogNew, GoodDog New"><tspan x="0" y="0">p</tspan><tspan y="0" letter-spacing="-0.03em">r</tspan><tspan y="0">actice running with a</tspan></text>
          <text id="ball._I_want_to_be_in_a" data-name="ball.  I want to be in a" transform="translate(15.807 54.039)" fill="#354952" font-size="12" font-family="GoodDogNew, GoodDog New"><tspan x="0" y="0" xml:space="preserve">ball.  I </tspan><tspan y="0" letter-spacing="-0.04em">w</tspan><tspan y="0">ant to be in a</tspan></text>
          <text id="football_team." data-name="football team." transform="translate(35.504 66.584)" fill="#354952" font-size="12" font-family="GoodDogNew, GoodDog New"><tspan x="0" y="0" letter-spacing="-0.07em">f</tspan><tspan y="0">ootball team.</tspan></text>
        </g>
      </g>
    </g>
  </g>
</svg>
