<svg xmlns="http://www.w3.org/2000/svg" xmlns:xlink="http://www.w3.org/1999/xlink" width="344" height="344" viewBox="0 0 344 344">
  <defs>
    <clipPath id="clip-path">
      <rect id="Rectangle_3286" data-name="Rectangle 3286" width="255.394" height="308.782" fill="none"/>
    </clipPath>
    <clipPath id="clip-Your_brain_is_amazing_16">
      <rect width="344" height="344"/>
    </clipPath>
  </defs>
  <g id="Your_brain_is_amazing_16" data-name="Your brain is amazing 16" clip-path="url(#clip-Your_brain_is_amazing_16)">
    <rect width="344" height="344" fill="#fff"/>
    <g id="feeling_3" data-name="feeling 3" transform="translate(127.697 171.39)">
      <g id="Group_3477" data-name="Group 3477" transform="translate(-127.697 -154.391)">
        <g id="Group_3476" data-name="Group 3476" clip-path="url(#clip-path)">
          <path id="Path_513613" data-name="Path 513613" d="M255.394,133.09c0,30.082-7.748,60.316-21.118,76.573a124.886,124.886,0,0,0-13.218,17.776c-13.674,22.941-12.61,38.894-18.383,50.745-11.395,23.4-46.946,35.4-74.9,28.715C90.246,297.934,73.686,256,70.04,246.582c-13.522-34.336.3-55-19.751-72.622S11.091,160.894,0,160.134V96.172c8.2,3.95,20.055,33.425,50.9,31.449,13.37-.76,36.159,1.975,25.98-23.093-2.583-6.381-8.66-6.533-15.649-16.256s-12-28.715-2.583-40.717,32.817-8.964,36.311-5.469l1.519,1.823.608.912A22.941,22.941,0,0,1,99.97,51.2c2.127,8.2-8.2,47.25,9.724,53.631,5.318,1.975,22.486-19.9,24.765-29.322,5.773-24.613-13.37-18.687-19.751-27.8l-2.735-3.95c-3.494-5.166-5.469-8.356-6.229-11.7-1.975-9.268,3.039-21.574,12.914-27.651A30.386,30.386,0,0,1,134,0c4.862,0,9.42,1.367,12,4.558,8.2,9.724-5.166,29.626,2.431,36.615,4.406,3.95,11.851.3,20.055-1.519,0,0,26.588-5.925,55.15,12.306,22.03,13.978,31.6,47.4,31.6,80.979" transform="translate(0 0)" fill="#4bacce"/>
          <path id="Path_513614" data-name="Path 513614" d="M96.7,30.168a17.776,17.776,0,0,0,5.014-12.306c-.152-4.1-1.671-10.787-6.685-12.914S80.442,8.9,76.947,15.127s-4.862,16.256.608,20.207S91.988,35.182,96.7,30.32" transform="translate(38.368 2.345)" fill="#fff"/>
          <path id="Path_513615" data-name="Path 513615" d="M68.383,50.406c1.064-1.671,5.166-8.2,2.887-13.522s-14.737-8.66-22.486-4.558S35.718,49.19,40.276,55.419s12.154,4.71,16.864,3.342a20.055,20.055,0,0,0,11.243-8.508" transform="translate(20.041 15.836)" fill="#fff"/>
          <path id="Path_513616" data-name="Path 513616" d="M90.905,20.179a6.533,6.533,0,0,0,.76-6.685,6.989,6.989,0,0,0-8.66-3.342c-4.1,1.671-5.621,7.293-3.342,10.331s8.508,2.887,11.243-.456" transform="translate(40.818 5.041)" fill="#051c22"/>
          <path id="Path_513617" data-name="Path 513617" d="M60.605,46.479a6.533,6.533,0,0,0,.76-6.685,6.989,6.989,0,0,0-8.66-3.342c-4.1,1.671-5.621,7.293-3.342,10.331s8.508,2.887,11.243-.456" transform="translate(25.083 18.699)" fill="#051c22"/>
          <path id="Path_513618" data-name="Path 513618" d="M238.226,175.731c-4.406,10.179-3.191,3.95-32.361,52.872-15.193,25.372-16.408,28.563-22.182,32.361-22.182,15.041-64.418,9.116-85.233-14.281-7.293-8.2-4.862-10.635-29.93-74.294-2.127-5.621-7.6-18.839-20.511-29.171-4.71-3.646-10.635-8.508-18.991-9.42C14.737,132.128,6.837,143.066,0,144.282V80.471c6.381,3.494,10.635,24.916,31.3,35.1,27.5,13.674,61.38-3.8,68.672-7.9,22.334-12.458,35.552-32.361,40.261-39.5,12.306-18.687,10.331-25.828,20.511-32.361,16.56-10.787,41.933-4.406,57.581,6.381C237.314,55.1,243.391,74.7,246.734,85.637c12.762,41.173-3.8,79-8.66,90.094" transform="translate(0 15.7)" fill="#cb8c00"/>
          <path id="Path_513619" data-name="Path 513619" d="M181.429,40.732c16.256,6.837,24.461,20.055,28.411,26.588a77.437,77.437,0,0,1,9.875,57.278c-6.989,32.361-33.425,48.769-41.173,53.479-39.806,24.613-84.473,11.851-111.668-16.408-10.179-10.635-32.969-22.03-27.043-30.842,3.342-5.014,10.483-4.406,21.726-5.621,5.318-.608,36.311-4.254,57.277-20.814C135.7,91.021,150.74,65.5,144.359,49.544c-1.215-2.887-3.039-5.469-1.823-8.052,3.039-6.989,23.549-6.837,38.894-.456" transform="translate(20.181 18.824)" fill="#fff"/>
          <path id="Path_513620" data-name="Path 513620" d="M57.065,126.791c5.925-3.646,15.193,11.395,34.944,20.966s49.225,12.154,71.407,3.039c16.256-6.685,26.892-18.232,29.474-15.5s-5.469,14.433-6.229,15.5a62.443,62.443,0,0,1-21.726,19.447c-17.928,9.116-41.477,1.671-88.575-13.218-6.989-2.279-17.32-5.621-20.966-14.737-2.127-5.469-2.127-13.218,1.519-15.5" transform="translate(28.016 65.552)" fill="#4bacce"/>
          <path id="Path_513621" data-name="Path 513621" d="M60.1,149.218c1.064-1.823,11.243,3.8,33.425,11.7s34.488,12.154,45.123,10.939c14.737-1.823,24.309-9.723,27.347-6.229s-.3,8.052-3.191,11.7-7.445,7.748-26.436,7.6a105.743,105.743,0,0,1-55.758-16.864c-10.787-6.989-21.574-16.712-20.359-18.687" transform="translate(31.21 77.309)" fill="#4bacce"/>
          <path id="Path_513622" data-name="Path 513622" d="M63.083,159.348c2.431-1.671,9.572,11.851,24.916,19.6,24.461,12.306,52.416.912,54.543,7.6.76,2.431-2.279,5.166-3.646,6.381-10.939,10.179-32.969,2.127-46.49-2.735-15.953-5.773-20.966-11.547-23.245-14.433-4.862-6.381-7.9-15.041-6.077-16.408" transform="translate(32.481 82.676)" fill="#4bacce"/>
        </g>
        <text id="To:_Brain" data-name="To: Brain" transform="translate(175.175 71.786)" fill="#161615" font-size="8" font-family="GoodDogNew, GoodDog New"><tspan x="0" y="0" letter-spacing="-0.1em">T</tspan><tspan y="0">o: B</tspan><tspan y="0" letter-spacing="-0.03em">r</tspan><tspan y="0">ain</tspan></text>
        <text id="From:_Ears" data-name="From: Ears" transform="translate(176.998 84.94)" fill="#161615" font-size="9" font-family="GoodDogNew, GoodDog New"><tspan x="0" y="0" letter-spacing="-0.07em">F</tspan><tspan y="0" letter-spacing="-0.01em">r</tspan><tspan y="0">om: Ears</tspan></text>
        <text id="Message:_Here_s_a" data-name="Message: Here’s a" transform="translate(166.515 97.094)" fill="#161615" font-size="9" font-family="GoodDogNew, GoodDog New"><tspan x="0" y="0">Mess</tspan><tspan y="0" letter-spacing="-0.01em">ag</tspan><tspan y="0">e: He</tspan><tspan y="0" letter-spacing="-0.03em">r</tspan><tspan y="0">e’s a</tspan></text>
        <text id="new_sound._What_do" data-name="new sound.  What do" transform="translate(159.982 108.249)" fill="#161615" font-size="8" font-family="GoodDogNew, GoodDog New"><tspan x="0" y="0" xml:space="preserve">new sound.  </tspan><tspan y="0" letter-spacing="-0.06em">W</tspan><tspan y="0">hat do</tspan></text>
        <text id="you_think_" data-name="you think?" transform="translate(175.175 121.403)" fill="#161615" font-size="9" font-family="GoodDogNew, GoodDog New"><tspan x="0" y="0">you think?</tspan></text>
        <text id="_.................................." data-name=".................................." transform="translate(151.93 133.557)" fill="#161615" font-size="9" font-family="GoodDogNew, GoodDog New"><tspan x="0" y="0">..................................</tspan></text>
        <text id="To:_Brain-2" data-name="To: Brain" transform="translate(154.664 144.712)" fill="#161615" font-size="8" font-family="GoodDogNew, GoodDog New"><tspan x="0" y="0" letter-spacing="-0.1em">T</tspan><tspan y="0">o: B</tspan><tspan y="0" letter-spacing="-0.03em">r</tspan><tspan y="0">ain</tspan></text>
        <text id="From:_Ears-2" data-name="From: Ears" transform="translate(129.444 157.866)" fill="#161615" font-size="9" font-family="GoodDogNew, GoodDog New"><tspan x="0" y="0" letter-spacing="-0.07em">F</tspan><tspan y="0" letter-spacing="-0.01em">r</tspan><tspan y="0">om: Ears</tspan></text>
        <text id="Mesaage:_It_makes_me_feel_very_calm._" data-name="Mesaage: It makes me feel very calm. " transform="translate(85.688 170.021)" fill="#161615" font-size="9" font-family="GoodDogNew, GoodDog New"><tspan x="0" y="0">Mesa</tspan><tspan y="0" letter-spacing="-0.01em">a</tspan><tspan y="0" letter-spacing="-0.02em">g</tspan><tspan y="0">e: It ma</tspan><tspan y="0" letter-spacing="-0.03em">k</tspan><tspan y="0">es me </tspan><tspan y="0" letter-spacing="-0.08em">f</tspan><tspan y="0">eel </tspan><tspan y="0" letter-spacing="-0.03em">v</tspan><tspan y="0">ery calm. </tspan></text>
        <text id="Keep_listening_" data-name="Keep listening!" transform="translate(127.925 182.175)" fill="#161615" font-size="9" font-family="GoodDogNew, GoodDog New"><tspan x="0" y="0" letter-spacing="-0.05em">K</tspan><tspan y="0">e</tspan><tspan y="0" letter-spacing="-0.02em">e</tspan><tspan y="0">p listening!</tspan></text>
      </g>
    </g>
  </g>
</svg>
