<svg xmlns="http://www.w3.org/2000/svg" xmlns:xlink="http://www.w3.org/1999/xlink" width="344" height="344" viewBox="0 0 344 344">
  <defs>
    <clipPath id="clip-path">
      <rect id="Rectangle_3182" data-name="Rectangle 3182" width="292" height="285" transform="translate(13130 982)" fill="#fff" stroke="#707070" stroke-width="1"/>
    </clipPath>
    <clipPath id="clip-path-2">
      <rect id="Rectangle_3185" data-name="Rectangle 3185" width="237.666" height="247.153" fill="none"/>
    </clipPath>
    <clipPath id="clip-Your_brain_is_amazing_10">
      <rect width="344" height="344"/>
    </clipPath>
  </defs>
  <g id="Your_brain_is_amazing_10" data-name="Your brain is amazing 10" clip-path="url(#clip-Your_brain_is_amazing_10)">
    <rect width="344" height="344" fill="#fff"/>
    <g id="Mask_Group_137" data-name="Mask Group 137" transform="translate(-13116 -952)" clip-path="url(#clip-path)">
      <g id="thinkbudart" transform="translate(13276 1124.5)">
        <g id="Group_3364" data-name="Group 3364" transform="translate(-118.833 -123.576)">
          <g id="Group_3363" data-name="Group 3363" clip-path="url(#clip-path-2)">
            <path id="Path_470001" data-name="Path 470001" d="M128.929,97.773c12.867-4.037,34.817-10.975,42.639-27,9.714-20.058-8.578-42.512-26.365-53.866C105.592-8.319,25.613-5.418,5.176,25.994-9.2,47.944,7.573,80.869,39.615,96.259c37.214,17.913,79.348,4.541,89.314,1.514" transform="translate(-0.004 -0.007)" fill="#e8e8e8"/>
            <path id="Path_470002" data-name="Path 470002" d="M159.152,70.355c1.892-.883,5.172-2.523,6.307-6.181s-1.261-9.714-3.911-12.363c-5.8-5.8-17.661-5.172-20.689,2.018-2.145,5.046.378,12.615,5.046,16.021s11.732,1.009,13.12.378" transform="translate(36.632 12.525)" fill="#e8e8e8"/>
            <path id="Path_470003" data-name="Path 470003" d="M167.23,86.169a8.2,8.2,0,0,0,4.668-4.794c1.135-3.532-1.009-7.443-2.9-9.461C164.581,67.5,155.75,68,153.479,73.554s.252,9.714,3.785,12.363,8.83.757,9.84.252" transform="translate(39.908 18.031)" fill="#e8e8e8"/>
            <path id="Path_470004" data-name="Path 470004" d="M127.333,210.88c16.021,4.668,30.654-3.532,34.313-5.677,31.79-17.913,48.946-70.518,34.943-100.667-1.766-3.911-6.938-15.012-18.039-18.166-21.572-6.055-46.171,23.212-51.217,29.267s-36.331,43.9-23.716,74.05c6.686,16.021,22.455,20.815,23.716,21.193" transform="translate(26.318 22.371)" fill="#e6a69c"/>
            <path id="Path_470005" data-name="Path 470005" d="M201.342,108.208c-5.3-1.009-6.56,18.67-26.239,31.664-14.633,9.587-21.824,4.037-43.143,14.255-11.858,5.677-28.636,13.75-30.907,28.258-1.766,11.227,5.929,22.959,14.129,29.014,20.31,15.012,57.02,5.929,77.077-15.012,30.4-31.79,17.787-86.539,9.209-88.179" transform="translate(26.358 28.286)" fill="#d2dea1"/>
            <path id="Path_470006" data-name="Path 470006" d="M156.791,88.816c3.532,3.658-11.48,16.147-11.353,39.485,0,17.283,8.326,19.806,11.48,42.765,1.766,12.867,4.163,30.907-6.055,41.125-8.074,7.947-21.445,8.7-30.654,5.677C97.5,210.425,85.264,175.734,91.319,147.6c9.209-42.765,59.669-64.715,65.472-58.912" transform="translate(23.477 22.952)" fill="#bcce72"/>
            <path id="Path_470007" data-name="Path 470007" d="M162.423,128.6c-.126-3.028-3.406-4.668-4.037-4.92a7.569,7.569,0,0,0-7.821.5c-2.271,1.766-3.911,5.3-2.9,8.074s5.551,4.163,8.452,3.28,6.434-3.785,6.307-7.064" transform="translate(38.534 32.118)" fill="#fff"/>
            <path id="Path_470008" data-name="Path 470008" d="M138.332,116.448c2.523-1.64,5.677,0,6.181.378a7.317,7.317,0,0,1,3.911,6.686c-.126,2.9-2.018,6.181-4.92,7.064s-6.434-2.145-7.317-4.92-.5-7.443,2.271-9.209" transform="translate(35.502 30.264)" fill="#fff"/>
            <path id="Path_470009" data-name="Path 470009" d="M142.431,120.8a2.9,2.9,0,0,1,2.145,2.018,3.532,3.532,0,0,1-.631,3.658,3.911,3.911,0,0,1-4.037,1.135c-1.64-.631-1.766-2.775-1.135-4.037s2.145-2.9,3.785-2.775" transform="translate(36.197 31.587)" fill="#051c22"/>
            <path id="Path_470010" data-name="Path 470010" d="M154.331,127a2.9,2.9,0,0,1,2.145,2.018,3.532,3.532,0,0,1-.631,3.658,3.911,3.911,0,0,1-4.037,1.135c-1.64-.631-1.766-2.775-1.135-4.037s2.145-2.9,3.785-2.775" transform="translate(39.309 33.209)" fill="#051c22"/>
          </g>
          <text id="I_have_an_idea_for_a" data-name="I have an idea for a" transform="translate(40.368 26.03)" fill="#354952" font-size="12" font-family="GoodDogNew, GoodDog New"><tspan x="0" y="0">I ha</tspan><tspan y="0" letter-spacing="-0.04em">v</tspan><tspan y="0">e an idea </tspan><tspan y="0" letter-spacing="-0.07em">f</tspan><tspan y="0">or a</tspan></text>
          <text id="picture..._There_s_going" data-name="picture...  There’s going" transform="translate(30.276 38.645)" fill="#354952" font-size="12" font-family="GoodDogNew, GoodDog New"><tspan x="0" y="0">pictu</tspan><tspan y="0" letter-spacing="-0.03em">re</tspan><tspan y="0" xml:space="preserve">...  </tspan><tspan y="0" letter-spacing="-0.05em">T</tspan><tspan y="0">he</tspan><tspan y="0" letter-spacing="-0.03em">r</tspan><tspan y="0">e’s going</tspan></text>
          <text id="to_be_a_dragon_and_a_fire_" data-name="to be a dragon and a fire," transform="translate(25.735 51.26)" fill="#354952" font-size="12" font-family="GoodDogNew, GoodDog New"><tspan x="0" y="0">to be a d</tspan><tspan y="0" letter-spacing="-0.03em">r</tspan><tspan y="0" letter-spacing="-0.01em">a</tspan><tspan y="0">gon and a fi</tspan><tspan y="0" letter-spacing="-0.02em">r</tspan><tspan y="0" letter-spacing="-0.06em">e</tspan><tspan y="0">,</tspan></text>
          <text id="and_the_dragon_is_going_to_live" data-name="and the dragon is going to live" transform="translate(14.633 63.875)" fill="#354952" font-size="12" font-family="GoodDogNew, GoodDog New"><tspan x="0" y="0">and the d</tspan><tspan y="0" letter-spacing="-0.03em">r</tspan><tspan y="0" letter-spacing="-0.01em">a</tspan><tspan y="0">gon is going to li</tspan><tspan y="0" letter-spacing="-0.03em">v</tspan><tspan y="0">e</tspan></text>
          <text id="in_a_cloud_house_in_the_sky." data-name="in a cloud house in the sky." transform="translate(22.707 76.49)" fill="#354952" font-size="12" font-family="GoodDogNew, GoodDog New"><tspan x="0" y="0">in a cloud house in the s</tspan><tspan y="0" letter-spacing="-0.01em">k</tspan><tspan y="0" letter-spacing="-0.07em">y</tspan><tspan y="0">.</tspan></text>
        </g>
      </g>
    </g>
  </g>
</svg>
