<svg xmlns="http://www.w3.org/2000/svg" xmlns:xlink="http://www.w3.org/1999/xlink" width="284" height="674" viewBox="0 0 284 674">
  <defs>
    <clipPath id="clip-path">
      <rect id="Rectangle_3579" data-name="Rectangle 3579" width="119" height="119" transform="translate(148 231)" fill="#fff" stroke="#707070" stroke-width="1"/>
    </clipPath>
    <clipPath id="clip-path-2">
      <rect id="Rectangle_3592" data-name="Rectangle 3592" width="72.547" height="119" fill="none"/>
    </clipPath>
    <clipPath id="clip-path-3">
      <rect id="Rectangle_3579-2" data-name="Rectangle 3579" width="119" height="119" transform="translate(275 231)" fill="#fff" stroke="#707070" stroke-width="1"/>
    </clipPath>
    <clipPath id="clip-path-4">
      <rect id="Rectangle_3617" data-name="Rectangle 3617" width="105.773" height="119" fill="none"/>
    </clipPath>
    <clipPath id="clip-path-5">
      <rect id="Rectangle_3594" data-name="Rectangle 3594" width="119" height="119" transform="translate(18 92)" fill="#fff" stroke="#707070" stroke-width="1"/>
    </clipPath>
    <clipPath id="clip-path-6">
      <rect id="Rectangle_3597" data-name="Rectangle 3597" width="119" height="93.553" fill="none"/>
    </clipPath>
    <clipPath id="clip-path-7">
      <rect id="Rectangle_3595" data-name="Rectangle 3595" width="119" height="119" transform="translate(145 92)" fill="#fff" stroke="#707070" stroke-width="1"/>
    </clipPath>
    <clipPath id="clip-path-8">
      <rect id="Rectangle_3599" data-name="Rectangle 3599" width="109.71" height="119" fill="none"/>
    </clipPath>
    <clipPath id="clip-path-9">
      <rect id="Rectangle_3596" data-name="Rectangle 3596" width="119" height="119" transform="translate(272 92)" fill="#fff" stroke="#707070" stroke-width="1"/>
    </clipPath>
    <clipPath id="clip-path-10">
      <rect id="Rectangle_3601" data-name="Rectangle 3601" width="119" height="114.147" fill="none"/>
    </clipPath>
    <clipPath id="clip-path-11">
      <rect id="Rectangle_3603" data-name="Rectangle 3603" width="119" height="119" transform="translate(21 231)" fill="#fff" stroke="#707070" stroke-width="1"/>
    </clipPath>
    <clipPath id="clip-path-12">
      <rect id="Rectangle_3615" data-name="Rectangle 3615" width="119" height="102.355" fill="none"/>
    </clipPath>
    <clipPath id="clip-who_is_around">
      <rect width="284" height="674"/>
    </clipPath>
  </defs>
  <g id="who_is_around" data-name="who is around" clip-path="url(#clip-who_is_around)">
    <rect id="Rectangle_3560" data-name="Rectangle 3560" width="267" height="657" rx="27" transform="matrix(1, -0.017, 0.017, 1, 2.287, 12.38)" fill="#fff" opacity="0.899"/>
    <text id="Who_would_you_like_to_live_around_your_tree_" data-name="Who would you like to live around your tree?" transform="translate(35 41)" fill="#344951" font-size="18" font-family="GoodDogNew, GoodDog New"><tspan x="11.631" y="14">Who would you like to live </tspan><tspan x="37.497" y="34">around your tree?</tspan></text>
    <g id="Mask_Group_167" data-name="Mask Group 167" clip-path="url(#clip-path)">
      <g id="slithery" transform="translate(207.5 290.5)">
        <g id="slithery-2" data-name="slithery" transform="translate(-36.274 -59.5)" clip-path="url(#clip-path-2)">
          <path id="Path_603129" data-name="Path 603129" d="M61.565,8.181c-.559,1.971-2.118,2.77-4.222,3.423C53.453,12.789,43,16.545,37.99,26.428,31,40.213,39.149,56.954,46.328,65.625,57.7,79.33,69.955,76.852,72.193,85.643c2.97,11.694-14.291,33.443-35.867,33.363-19.845-.08-33.363-18.58-35.867-33.363C-1.619,73.39,3.495,66.011,6.585,65.984c2.584-.027,4.408,3.25,4.728,4.648,1.891,8.511-.28,11.481.839,17.514,1.292,7.019,6.406,14.89,14.184,18.353,9.989,4.448,20.977,3.17,27.916-3.889,3.077-3.13,8.67-7.525,6.073-13.612s-13.638-9.11-18.992-13.372C27.269,64.466,21.662,42.757,29.08,24.377,34.967,9.766,47.753-2.833,55.518.563c3.876,1.691,6.779,5.074,6.06,7.618" transform="translate(0.021 -0.004)" fill="#c0d58c"/>
          <path id="Path_603130" data-name="Path 603130" d="M370.365,13.465a4.4,4.4,0,0,0-5.234-1.6c-2.131,1.039-2.664,4.049-1.6,6.1a4.322,4.322,0,0,0,5.221,2.317c2.344-.919,3.157-4.608,1.6-6.819" transform="translate(-314.653 -9.988)" fill="#fff"/>
          <path id="Path_603131" data-name="Path 603131" d="M381.85,45.9a1.394,1.394,0,0,0-1.665-.506,1.508,1.508,0,0,0-.506,1.931,1.384,1.384,0,0,0,1.665.733,1.631,1.631,0,0,0,.506-2.171" transform="translate(-328.975 -39.253)" fill="#29434c"/>
        </g>
      </g>
    </g>
    <g id="Mask_Group_178" data-name="Mask Group 178" transform="translate(-130 139)" clip-path="url(#clip-path-3)">
      <g id="thinking_bud_musical" data-name="thinking bud musical" transform="translate(334.5 290.5)">
        <g id="thinking_bud_musical-2" data-name="thinking bud musical" transform="translate(-52.887 -59.5)" clip-path="url(#clip-path-4)">
          <path id="Path_603308" data-name="Path 603308" d="M87.042,69.289c1.935-2.87,4.538-3.937,6.874-5.139,15.149-8.208,16.15-30.164,6.74-48.516C97.653,9.7,87.977,1.954,86.108.82c-8.876-5.272,9.676,18.152,4.338,28.562-7.608,15.015-7.875,7.808-11.678,9.81a17.151,17.151,0,0,1-6.607,2.069c-1.6.133-2.736.334-4.138-2.336s-.734-6.54-2.6-9.943c-5.205-9.743-9.81-13.28-21.488-17.618C28.05,5.491,11.3,15.1,11.633,16.9c.133.8,3.337,0,7.608,1.335,6.874,2.135,14.948,8.876,16.016,17.351,1.335,10.477-10.611,19.353-16.283,23.29s-4.138,4.538-6.54,7.941c-7.407,10.611-1,45.513,4.738,32.366.6-1.4.267-3.67,5.539-7.875,1.134-.868,11.678-9.343,13.347-7.808s-.667,3-1.735,5.739c-4.6,11.812.467,25.759,2.2,25.693s.2-4.2,2.4-9.61c2.936-7.074,10.611-15.349,20.087-16.016s9.943,15.616,25.159,22.556c10.611,4.8,21.822,2.736,22.089,1.2s-6.406-3-15.883-7.941c-2.2-1.134-5.472-3.67-8.075-10.677-.734-1.869-1.335-6.006.534-8.408.934-1.2,4.938-2.469,7.207-1.8,5.806,1.668,17.751-11.745,17.685-13.347s-12.613,2.8-17.284,1.668c-3.07-.734-4.271-1.869-3.337-3.27" transform="translate(-3.024 -0.019)" fill="#d2dea1"/>
          <path id="Path_603309" data-name="Path 603309" d="M97.505,84.846a41.245,41.245,0,0,0,3.737,4.071,14.147,14.147,0,0,1-5.272-.4c-6.54-1.8-12.746-8.809-11.545-14.014a5,5,0,0,1,.734-1.8l1.468,2c4.671,5.873,7.274,9.143,10.878,10.21" transform="translate(-28.035 -24.184)" fill="#e8e8e8"/>
          <path id="Path_603310" data-name="Path 603310" d="M125.364,67.679a39.306,39.306,0,0,1-5.539,7.141l-1-.267a11.345,11.345,0,0,1-3.6-2l-.6.334,2.4,1.8,1.869,1.2a32.766,32.766,0,0,1-6.006,4.6l-2-1.668-1.935-1.668h-.734a38.705,38.705,0,0,0,3.871,3.47,20.354,20.354,0,0,1-6.74,2.336,42.641,42.641,0,0,1-4.2-3.871l1,.2c1.668.267,4,.2,4.271-.6h0a.467.467,0,0,0-.067-.267V78.29c-.534-.6-2.069-1.268-3.871-3.136l-.2-.2h-.133a42.376,42.376,0,0,1-6.006-8.609l-.667-1.2h0l-.6-1.134-.267-.534,1.468-.467a31.766,31.766,0,0,0,3.537,6.807l.467.667c3.67,5.272,5.339,5.405,6.807,5.405h1c1.335.2,3,0,3.4-.667v-.067c.267-.934-2.269-2.2-4-3.6-3.4-2.8-4.471-7.007-5.072-10.744h0l1.4-.667c.467,3.537,1.134,6.607,2,7.875l.133.2a11.078,11.078,0,0,0,8.008,4h1c.868-.133,1.668-.467,1.8-.868v-.133c.133-.8-2.069-1.4-3.6-2.4-3.871-2.536-4.271-8.208-4.872-11.945l1.268-1.468h0a35.77,35.77,0,0,0,8.876,8.675,40.642,40.642,0,0,0,7.074,3.737" transform="translate(-31.47 -18.429)" fill="#e8e8e8"/>
          <path id="Path_603311" data-name="Path 603311" d="M137.053,29.928a31.166,31.166,0,0,1-3.27.133,29.509,29.509,0,0,0,3.27.133,32.1,32.1,0,0,1-.2,8.142,40.908,40.908,0,0,1-4.938-1l-.534.667a35.37,35.37,0,0,0,5.405,1,28.9,28.9,0,0,1-2.4,7.541c-2-.267-4.271-.133-6.807-1s-5.205-3.337-9.143-7.875L117.3,36.335a17.218,17.218,0,0,0,1.6-2.8c1.2,1,2.736,1.668,4.2,2.669s2.469,2.4,5.272,2.8a2.625,2.625,0,0,0,2.2-.2h0l.467-.467a.6.6,0,0,0,.133-.267.734.734,0,0,0,0-.133,1.935,1.935,0,0,0-.6-1h0a10.344,10.344,0,0,0-2.8-1.869h-.2c-3.47-1.134-5.472-3.8-6.874-5.606l-.334-.4.2-1A26.761,26.761,0,0,0,126.109,33c2.469,1.735,2.469.534,4,0s2.336.334,2.469.067,0-.2-.133-.4c-.934-1.2-4.671-2.336-5.939-3.337a36.718,36.718,0,0,1-3.136-2.736h0a31.031,31.031,0,0,1-2.2-2.4l-.2-.2a56.524,56.524,0,0,0-.6-9.409l5.606,2.069c1.4.534,2.4.934,2.87.4a2.169,2.169,0,0,0-.267-2.4c-.534-.734-2.2-1.134-3.4-1.335a11.145,11.145,0,0,1-5.539-3.07l-.2-1.2,2.469,1.468c2.736,1.6,3.337,1.6,3.8,1.4a1.869,1.869,0,0,0,.8-2.069c-.4-1.335-2.536-1-5.205-2.6a11.144,11.144,0,0,1-2.469-1.869c-.067-.667-.133-1.268-.133-1.8.6,1.268,2,2.069,3.4,2.87s2.135,1.268,2.536.8-.334-1.6-.934-2.6S121.5.9,120.17.1c1.935-.133,4.8,3.337,6.273,5.205V5.37l.2.267a48.92,48.92,0,0,1,3.137,4.6l.133.2a56.456,56.456,0,0,1,2.8,5.139v.133a50.98,50.98,0,0,1,2.2,5.405h-.467a42.176,42.176,0,0,1-11.211.267,40.908,40.908,0,0,0,12.012.4,40.306,40.306,0,0,1,1.735,8.075" transform="translate(-39.021 -0.031)" fill="#e8e8e8"/>
          <path id="Path_603312" data-name="Path 603312" d="M103.418,82.582h0c-.267.8-2.6.868-4.271.6l-1-.2h-.2c-3.537-1.068-6.206-4.338-10.878-10.21l-1.468-2c1.134-1.735,3.337-2.6,5.939-3.47l.267.534.6,1.134h0a42.91,42.91,0,0,0,6.673,9.743h.067l.2.2c1.6,1.668,3.337,2.469,3.871,3.136v.133a.667.667,0,0,1,.067.267" transform="translate(-28.476 -22.388)" fill="#354952"/>
          <path id="Path_603313" data-name="Path 603313" d="M111.982,77.815v.133a4.271,4.271,0,0,1-2.336,1.935h-.934c-1.8-.267-3.537-.2-8.008-6.74l-.467-.667A31.766,31.766,0,0,1,96.7,65.6a50.251,50.251,0,0,0,6.206-2.2c.534,3.737,1.6,8.008,5.072,10.744,1.735,1.4,4.271,2.6,4,3.6" transform="translate(-32.168 -21.091)" fill="#354952"/>
          <path id="Path_603314" data-name="Path 603314" d="M121.013,71.848c-.067.4-.667.934-1.4,1.4l-.6.334-.8.334c-2.936.934-6.74-3-8.075-4.938l-.133-.2c-.8-1.268-1.535-4.338-2-7.875l.734-.4h.133a17.484,17.484,0,0,0,3.6-2.8c.534,3.737,1,9.409,4.872,11.945,1.535,1,3.737,1.6,3.6,2.4" transform="translate(-35.927 -19.195)" fill="#354952"/>
          <path id="Path_603315" data-name="Path 603315" d="M132.78,51.608l-.534.667-.334.334-.467.467h0a2.8,2.8,0,0,1-1.935.8c-2.87,0-4.138-1.068-5.672-2.135s-2.936-3-4.137-4l.4-.934a21.555,21.555,0,0,0,1.068-3.6l.334.4a16.31,16.31,0,0,0,6.874,5.606h.2c2.069.667,5.472.133,4.2,2.2" transform="translate(-39.819 -14.371)" fill="#354952"/>
          <path id="Path_603316" data-name="Path 603316" d="M133.511,45.543c-1.6.934-4.271.868-6.74-.868a20.356,20.356,0,0,1-4.671-4.8,31.031,31.031,0,0,0,.4-4.071,10.089,10.089,0,0,0,5.539,4.2c3.67,1.268,6.073.467,7.007,1.668s-.6,3.337-1.535,3.871" transform="translate(-40.618 -11.909)" fill="#354952"/>
          <path id="Path_603317" data-name="Path 603317" d="M129.943,22.107c-.467.534-1.468.133-2.87-.4l-5.606-2.069c-.2-1.535-.467-3-.667-4.338a11.145,11.145,0,0,0,5.539,3.07c1.2.2,2.6.2,3.4,1.335s.734,1.935.267,2.4" transform="translate(-40.185 -5.09)" fill="#354952"/>
          <path id="Path_603318" data-name="Path 603318" d="M127.208,12.471a1.869,1.869,0,0,1-.8,2.069c-.4.267-1,.2-3.8-1.4l-2.469-1.468c-.2-1.335-.4-2.6-.534-3.67A11.145,11.145,0,0,0,122,9.935c2.669,1.6,4.8,1.2,5.205,2.6" transform="translate(-39.786 -2.661)" fill="#354952"/>
          <path id="Path_603319" data-name="Path 603319" d="M125.333,7.274c-.4.4-1.8-.4-2.536-.8s-2.736-1.6-3.4-2.87h0c-.067-1.8.133-3,1.068-3.4h.4c1.4.8,3.07,3.737,3.537,4.538s1.268,2.2.934,2.6" transform="translate(-39.714 -0.067)" fill="#354952"/>
          <path id="Path_603320" data-name="Path 603320" d="M134.184,64.544l-.4.734-1.134,2.069a40.642,40.642,0,0,1-7.074-3.737,35.77,35.77,0,0,1-8.876-8.675h0l.4-.534,1.134,1.335c3.937,4.538,5.939,6.74,9.143,7.875s4.8.8,6.807,1" transform="translate(-38.821 -18.097)" fill="#a5b0b5"/>
          <path id="Path_603321" data-name="Path 603321" d="M109.6,42.4h0" transform="translate(-36.46 -14.105)" fill="#a5b0b5"/>
          <path id="Path_603322" data-name="Path 603322" d="M129.705,83.336l-.934.934L126.9,83.135l-2.4-1.8.6-.334a11.344,11.344,0,0,0,3.6,2l1,.267" transform="translate(-41.416 -26.945)" fill="#a5b0b5"/>
          <path id="Path_603323" data-name="Path 603323" d="M107.7,58.3h0" transform="translate(-35.828 -19.394)" fill="#a5b0b5"/>
          <path id="Path_603324" data-name="Path 603324" d="M119.6,91.17l-.734.4A38.706,38.706,0,0,1,115,88.1h.734l1.935,1.6,1.935,1.535" transform="translate(-38.256 -29.307)" fill="#a5b0b5"/>
          <path id="Path_603325" data-name="Path 603325" d="M107,78.2h0" transform="translate(-35.595 -26.014)" fill="#a5b0b5"/>
          <path id="Path_603326" data-name="Path 603326" d="M108.4,94.871h-.667A41.243,41.243,0,0,1,104,90.8h.2a42.645,42.645,0,0,0,4.2,3.871" transform="translate(-34.597 -30.206)" fill="#a5b0b5"/>
          <path id="Path_603327" data-name="Path 603327" d="M102.3,88.5h0" transform="translate(-34.031 -29.44)" fill="#a5b0b5"/>
          <path id="Path_603328" data-name="Path 603328" d="M143.939,56.9l-.133.667a35.369,35.369,0,0,1-5.405-1l.534-.667a40.975,40.975,0,0,0,4.938,1" transform="translate(-46.04 -18.596)" fill="#a5b0b5"/>
          <path id="Path_603329" data-name="Path 603329" d="M119.9,48.5h0" transform="translate(-39.886 -16.134)" fill="#a5b0b5"/>
          <path id="Path_603330" data-name="Path 603330" d="M138.312,32.367a40.908,40.908,0,0,1-12.012-.4,42.176,42.176,0,0,0,11.211-.267h.467l.267.734" transform="translate(-42.015 -10.545)" fill="#a5b0b5"/>
          <path id="Path_603331" data-name="Path 603331" d="M126,32.1h0" transform="translate(-41.915 -10.678)" fill="#a5b0b5"/>
          <path id="Path_603332" data-name="Path 603332" d="M145.2,44.767v.2a30.681,30.681,0,0,1-3.4-.133,29.961,29.961,0,0,0,3.337-.133" transform="translate(-47.171 -14.87)" fill="#a5b0b5"/>
          <path id="Path_603333" data-name="Path 603333" d="M141.6,45h0" transform="translate(-47.105 -14.97)" fill="#a5b0b5"/>
          <path id="Path_603334" data-name="Path 603334" d="M138.937,23.4h0c-1.735.334-2.87.467-3.337.534a29.163,29.163,0,0,0,3.27-.734v.133" transform="translate(-45.109 -7.718)" fill="#a5b0b5"/>
          <path id="Path_603335" data-name="Path 603335" d="M134.7,15.4a21.6,21.6,0,0,1-3.2.467,29.165,29.165,0,0,0,3.07-.667Z" transform="translate(-43.745 -5.056)" fill="#a5b0b5"/>
          <path id="Path_603336" data-name="Path 603336" d="M130.169,7.967l-1.869.267,1.8-.334v.067" transform="translate(-42.68 -2.628)" fill="#a5b0b5"/>
          <path id="Path_603337" data-name="Path 603337" d="M62.069,84.172A42.375,42.375,0,0,0,59.4,78.9a16.75,16.75,0,0,1,5.539,2.069c6.54,4,10.878,12.946,7.808,17.885a5.405,5.405,0,0,1-1.4,1.535,19.874,19.874,0,0,0-.934-2.469c-3.07-7.407-4.8-11.545-8.342-13.747" transform="translate(-19.76 -26.247)" fill="#e8e8e8"/>
          <path id="Path_603338" data-name="Path 603338" d="M17.9,87.824a44.846,44.846,0,0,1,8.408-5.405l1,.6a12.412,12.412,0,0,1,3.2,3.2l.8-.133a23.843,23.843,0,0,0-2-2.536l-1.6-1.8a39.173,39.173,0,0,1,8.075-2.736l1.6,2.135,1.535,2.336.868.133a40.573,40.573,0,0,0-3-4.738,24.825,24.825,0,0,1,8.075-.2,44.311,44.311,0,0,1,3.2,5.272l-1-.534c-1.668-.8-4.2-1.468-4.8-.734h-.067a.467.467,0,0,0,0,.334v.133c.334.734,1.8,1.935,3.136,4.4l.133.267h0v.133a42.71,42.71,0,0,1,3.6,10.611l.267,1.2h0L49.6,101.1l.133.6h-1.6A31.5,31.5,0,0,0,46.6,93.63l-.267-.8c-2.135-6.473-4-7.141-5.606-7.608l-.734-.2-.334-.133c-1.4-.6-3.337-.934-3.937-.4h-.067c-.667.868,1.735,2.936,3.136,4.872,2.8,3.871,2.469,8.542,1.8,12.479h0l-1.735.267c.734-3.737,1-7.074.534-8.609v-.2a12.416,12.416,0,0,0-7.274-6.607h-.133l-1-.2a3.192,3.192,0,0,0-2.269.267v.133c-.4.8,1.8,2.069,3.136,3.6,3.337,3.8,1.869,9.676,1.2,13.614l-1.869,1.068h0a37.1,37.1,0,0,0-6.673-11.612A44.778,44.778,0,0,0,18.1,87.557" transform="translate(-5.955 -26.095)" fill="#e8e8e8"/>
          <path id="Path_603339" data-name="Path 603339" d="M.867,111.983a31.929,31.929,0,0,1,3.537.934,32.248,32.248,0,0,0-3.537-1.134A32.433,32.433,0,0,1,3.8,103.641a47.784,47.784,0,0,1,5.005,2.6l.8-.534a41.244,41.244,0,0,0-5.472-2.669A30.631,30.631,0,0,1,9.342,96.1c2.069.868,4.6,1.535,7.007,3.2s4.538,5.072,7.274,10.878l.734,1.668a19.085,19.085,0,0,0-2.669,2.336c-.934-1.335-2.4-2.536-3.67-4s-1.869-3.2-4.738-4.538a3.275,3.275,0,0,0-2.469-.534h-.067l-.6.267-.267.267v.133a1.935,1.935,0,0,0,.334,1.2h0a11.145,11.145,0,0,0,2.469,2.8l.2.133c3.4,2.2,4.671,5.539,5.539,7.808l.267.534-.534.934a28.028,28.028,0,0,0-4.338-6.74c-2.069-2.536-2.536-1.335-4.338-1.335s-2.4-1.134-2.669-.868-.067.2.067.4c.667,1.535,4.271,3.8,5.272,5.205a35.83,35.83,0,0,1,2.469,3.8h0a31.966,31.966,0,0,1,1.6,3.136l.133.267a56.323,56.323,0,0,0-2.536,9.676l-5.339-3.871c-1.335-1-2.336-1.668-3-1.335s-.868,1.6-.534,2.536,2,1.869,3.2,2.4a12.146,12.146,0,0,1,4.938,4.872l-.2,1.268-2.2-2.269c-2.469-2.469-3.07-2.736-3.67-2.6a2.069,2.069,0,0,0-1.535,1.869c0,1.535,2.4,1.8,4.8,4.271a11.745,11.745,0,0,1,1.935,2.736,15.29,15.29,0,0,1-.467,1.869c-.2-1.468-1.468-2.736-2.669-3.937s-1.935-1.935-2.469-1.668-.2,1.735.133,2.87,1.068,4.471,2.336,5.739c-2.135-.467-4.071-4.872-5.005-7.207v-.133l-.133-.334a49.117,49.117,0,0,1-1.869-5.606V134A56.323,56.323,0,0,1,.8,127.932v-.2a50.383,50.383,0,0,1-.534-6.206H.6a50.651,50.651,0,0,1,12.279,3.27A48.782,48.782,0,0,0,0,120.658a39.84,39.84,0,0,1,.868-8.675" transform="translate(0.001 -31.969)" fill="#e8e8e8"/>
          <path id="Path_603340" data-name="Path 603340" d="M54.3,84.748h.067c.6-.734,3.136,0,4.8.734l1,.534.2.133c3.47,2.2,5.272,6.34,8.342,13.747a24.853,24.853,0,0,1,.934,2.469c-1.869,1.335-4.538,1.6-7.674,1.6l-.133-.6-.267-1.335h0a43.177,43.177,0,0,0-3.937-11.945h0L57.5,89.82c-1.2-2.135-2.8-3.537-3.136-4.4v-.133a.667.667,0,0,1,0-.334" transform="translate(-18.063 -28.091)" fill="#354952"/>
          <path id="Path_603341" data-name="Path 603341" d="M44.485,87.335h.067A5.072,5.072,0,0,1,47.755,86l.868.133h.2c1.869.868,3.737,1.335,6.406,9.343l.267.8a31.5,31.5,0,0,1,1.535,8.075,61.328,61.328,0,0,0-7.541.334c.667-3.937.934-8.542-1.8-12.479-1.4-1.935-3.737-4-3.136-4.872" transform="translate(-14.788 -28.609)" fill="#354952"/>
          <path id="Path_603342" data-name="Path 603342" d="M33.843,90.968c.2-.4,1.068-.734,2-.934l.8-.133h.934c3.537,0,6.273,5.205,7.074,7.541v.2c.467,1.535.2,4.872-.534,8.609l-.934.2h-.2a20.754,20.754,0,0,0-4.872,1.735c.667-3.937,2.135-9.81-1.2-13.614-1.335-1.535-3.537-2.8-3.136-3.6" transform="translate(-11.22 -29.906)" fill="#354952"/>
          <path id="Path_603343" data-name="Path 603343" d="M12.972,110.506l.8-.534.467-.267.6-.267h.067a3.337,3.337,0,0,1,2.336-.2c3.07.868,4.138,2.4,5.405,3.937s2.2,3.937,3.136,5.339l-.734.8a22.891,22.891,0,0,0-2.336,3.27l-.267-.534a17,17,0,0,0-5.539-7.808l-.2-.133c-2-1.335-5.873-1.869-3.8-3.537" transform="translate(-4.097 -36.298)" fill="#354952"/>
          <path id="Path_603344" data-name="Path 603344" d="M9.98,116.542c2-.467,4.938.467,7.007,3a22.744,22.744,0,0,1,3.47,6.34,31.632,31.632,0,0,0-1.8,3.937,10.762,10.762,0,0,0-4.538-6.006c-3.47-2.4-6.406-2.336-7.074-3.871s1.8-3.136,2.936-3.4" transform="translate(-2.306 -38.73)" fill="#354952"/>
          <path id="Path_603345" data-name="Path 603345" d="M7.725,143.245c.667-.4,1.668.334,3,1.335l5.339,3.871c-.267,1.6-.534,3.136-.734,4.6a12.145,12.145,0,0,0-4.938-4.872c-1.2-.6-2.736-1-3.2-2.4s-.133-2.2.534-2.536" transform="translate(-2.32 -47.615)" fill="#354952"/>
          <path id="Path_603346" data-name="Path 603346" d="M8.2,154.355a2.069,2.069,0,0,1,1.535-1.869c.534-.133,1.2.133,3.67,2.6l2.2,2.269c-.2,1.468-.4,2.736-.667,3.937A11.812,11.812,0,0,0,13,158.559c-2.4-2.469-4.8-2.736-4.8-4.271" transform="translate(-2.728 -50.717)" fill="#354952"/>
          <path id="Path_603347" data-name="Path 603347" d="M9.75,160.182c.534-.267,1.869,1,2.469,1.668s2.469,2.469,2.669,3.937h0c-.534,1.869-1.2,3-2.269,3.07h-.467c-1.2-1.268-2.069-4.738-2.336-5.739s-.6-2.669-.133-2.87" transform="translate(-3.144 -53.274)" fill="#354952"/>
          <path id="Path_603348" data-name="Path 603348" d="M14,94.9l.667-.667L16.6,92.5a44.711,44.711,0,0,1,6.406,6.006,37.1,37.1,0,0,1,6.673,11.612h0l-.6.467-.734-1.668c-2.736-5.806-4.138-8.675-7.274-10.878S16.069,95.77,14,94.9" transform="translate(-4.657 -30.771)" fill="#a5b0b5"/>
          <path id="Path_603349" data-name="Path 603349" d="M40.9,134.1h0" transform="translate(-13.606 -44.61)" fill="#a5b0b5"/>
          <path id="Path_603350" data-name="Path 603350" d="M30.5,84.067l1.335-.667L33.5,85.2c.734.868,1.4,1.735,2,2.536l-.8.133a12.412,12.412,0,0,0-3.2-3.2l-1-.6" transform="translate(-10.146 -27.744)" fill="#a5b0b5"/>
          <path id="Path_603351" data-name="Path 603351" d="M48.4,118.6h0" transform="translate(-16.101 -39.454)" fill="#a5b0b5"/>
          <path id="Path_603352" data-name="Path 603352" d="M44.7,79.3l1-.2a40.374,40.374,0,0,1,3,4.738l-.868-.133L46.3,81.436,44.7,79.3" transform="translate(-14.87 -26.313)" fill="#a5b0b5"/>
          <path id="Path_603353" data-name="Path 603353" d="M55.9,98.8h0" transform="translate(-18.596 -32.867)" fill="#a5b0b5"/>
          <path id="Path_603354" data-name="Path 603354" d="M58.3,78.8l.8.133a42.378,42.378,0,0,1,2.669,5.272l-.2-.133a44.311,44.311,0,0,0-3.2-5.272" transform="translate(-19.394 -26.214)" fill="#a5b0b5"/>
          <path id="Path_603355" data-name="Path 603355" d="M64.6,89.8h0" transform="translate(-21.49 -29.873)" fill="#a5b0b5"/>
          <path id="Path_603356" data-name="Path 603356" d="M5.8,107l.334-.6a41.177,41.177,0,0,1,5.472,2.669l-.8.534A47.921,47.921,0,0,0,5.8,107" transform="translate(-1.929 -35.395)" fill="#a5b0b5"/>
          <path id="Path_603357" data-name="Path 603357" d="M31.733,124.633,31.6,124.5l.133.133" transform="translate(-10.512 -41.416)" fill="#a5b0b5"/>
          <path id="Path_603358" data-name="Path 603358" d="M0,132.9a48.716,48.716,0,0,1,12.88,4.2A50.585,50.585,0,0,0,.6,133.834H0v-.868" transform="translate(0 -44.211)" fill="#a5b0b5"/>
          <path id="Path_603359" data-name="Path 603359" d="M19.7,139.3h0" transform="translate(-6.553 -46.34)" fill="#a5b0b5"/>
          <path id="Path_603360" data-name="Path 603360" d="M1.267,119.767V119.5a29.745,29.745,0,0,1,3.6,1.2,36.436,36.436,0,0,0-3.67-.934" transform="translate(-0.399 -39.753)" fill="#a5b0b5"/>
          <path id="Path_603361" data-name="Path 603361" d="M7,121.4H7" transform="translate(-2.329 -40.385)" fill="#a5b0b5"/>
          <path id="Path_603362" data-name="Path 603362" d="M.9,143.4h0c2,.2,3.337.467,3.8.534a35.836,35.836,0,0,0-3.737-.267v-.2" transform="translate(-0.299 -47.704)" fill="#a5b0b5"/>
          <path id="Path_603363" data-name="Path 603363" d="M2.8,152.8a29.153,29.153,0,0,1,3.6.534c.467.133-1.735-.2-3.537-.267Z" transform="translate(-0.931 -50.831)" fill="#a5b0b5"/>
          <path id="Path_603364" data-name="Path 603364" d="M5.9,162.1l2.135.334-2.069-.2V162.1" transform="translate(-1.963 -53.924)" fill="#a5b0b5"/>
          <path id="Path_603365" data-name="Path 603365" d="M86.3,121.059a36.97,36.97,0,0,0-4.6,1.735,12.746,12.746,0,0,1,2.069-4.2c3.67-4.872,11.545-7.674,15.482-5.005a4.471,4.471,0,0,1,1.2,1.2l-2.135.6c-6.473,1.935-10.01,3.07-12.079,5.672" transform="translate(-27.178 -37.442)" fill="#e8e8e8"/>
          <path id="Path_603366" data-name="Path 603366" d="M87.4,149.391a35.3,35.3,0,0,1-4.071-7.007l.6-.734a10.21,10.21,0,0,1,2.87-2.336c0-.2-.067-.4-.067-.6l-2.269,1.4-1.6,1.134a29.5,29.5,0,0,1-1.8-6.54l1.869-1.134,2-1.068a2.069,2.069,0,0,1,.133-.667,34.5,34.5,0,0,0-4.137,2.069,18.352,18.352,0,0,1,.334-6.406,38.038,38.038,0,0,1,4.6-2.2l-.534.734c-.734,1.268-1.535,3.27-.934,3.737h.534a30.17,30.17,0,0,1,3.871-2.2h.4a37.9,37.9,0,0,1,9.143-2.2l1-.133h0l1.134-.133h.534l-.133,1.4a28.428,28.428,0,0,0-6.874.734l-.667.133c-5.606,1.268-6.273,2.669-6.74,3.937l-.2.534-.133.267c-.6,1.068-1,2.536-.534,3.07H85.8c.734.534,2.6-1.2,4.338-2.135,3.47-1.935,7.341-1.4,10.611-.667h0a9.957,9.957,0,0,0,.133,1.4c-3.136-.8-5.873-1.2-7.207-.934h-.2a9.943,9.943,0,0,0-6.006,5.339h0a5.474,5.474,0,0,0-.267.8c-.2.734-.2,1.535.133,1.8H87.4c.6.334,1.8-1.268,3.2-2.2,3.4-2.4,8.275-.868,11.545-.067a15.481,15.481,0,0,0,.8,1.535h0a32.033,32.033,0,0,0-10.144,4.538,36.437,36.437,0,0,0-5.472,4.671" transform="translate(-26.876 -41.616)" fill="#e8e8e8"/>
          <path id="Path_603367" data-name="Path 603367" d="M106.346,167.085a28.03,28.03,0,0,1,1-2.736c-.2.4-.667,1.335-1.2,2.669a28.7,28.7,0,0,1-6.74-2.87,36.971,36.971,0,0,1,2.469-3.8l-.4-.667a31.631,31.631,0,0,0-2.6,4.138,25.893,25.893,0,0,1-5.472-4.538,26.4,26.4,0,0,1,3.07-5.339c1.535-1.8,4.538-3.27,9.61-5.072l1.468-.467a15.483,15.483,0,0,0,1.8,2.269c-1.2.667-2.269,1.735-3.6,2.669s-2.8,1.268-4.071,3.47a2.353,2.353,0,0,0-.6,1.869h0l.2.534.2.2h.067a1.668,1.668,0,0,0,1-.2h0a9.209,9.209,0,0,0,2.469-1.735l.133-.133c2.069-2.536,4.938-3.27,6.94-3.871l.467-.133.734.467a23.958,23.958,0,0,0-5.939,3c-2.269,1.468-1.268,1.935-1.335,3.337s-1.068,1.8-.868,2.069h.334c1.335-.4,3.47-3.136,4.738-3.871s2.4-1.268,3.337-1.735h0l2.736-1.068h.267a50.316,50.316,0,0,0,8.008,2.6l-3.6,4c-.934,1-1.6,1.735-1.268,2.269a2.113,2.113,0,0,0,2.135.6c.8-.2,1.668-1.468,2.269-2.4a9.943,9.943,0,0,1,4.4-3.6l1.068.2-2.069,1.6c-2.269,1.8-2.469,2.269-2.4,2.669a1.735,1.735,0,0,0,1.468,1.335c1.268.133,1.668-1.8,3.871-3.47a10.01,10.01,0,0,1,2.4-1.335l1.535.467c-1.268.067-2.4,1-3.47,1.869s-1.735,1.4-1.535,1.869,1.468.267,2.469.133,3.8-.6,4.938-1.468c-.534,1.668-4.338,2.87-6.406,3.47h-.4a43.639,43.639,0,0,1-4.872,1.068h-.2a50.51,50.51,0,0,1-5.205.6h-.133a45.447,45.447,0,0,1-5.272.067l.133-.467a37.971,37.971,0,0,1,3.47-9.476,36.837,36.837,0,0,0-4.271,9.877,35.968,35.968,0,0,1-7.274-1.2" transform="translate(-31.07 -49.367)" fill="#e8e8e8"/>
          <path id="Path_603368" data-name="Path 603368" d="M86.324,126.978H86.19c-.6-.534.133-2.469.934-3.737l.534-.734.133-.133c2.069-2.6,5.606-3.737,12.079-5.672l2.135-.6c1.068,1.535,1.068,3.67.934,6.14h-.534l-1.134.133h0A38.371,38.371,0,0,0,91,124.709h-.267c-1.869.8-3.136,1.935-3.871,2.2h-.4" transform="translate(-28.599 -38.622)" fill="#354952"/>
          <path id="Path_603369" data-name="Path 603369" d="M87.933,135.874h-.067a3.871,3.871,0,0,1-.868-2.6,2.069,2.069,0,0,1,.133-.667h0v-.133c.8-1.4,1.335-2.87,8.275-4.4l.667-.133a28.429,28.429,0,0,1,6.874-.734,45.313,45.313,0,0,0-.2,5.939c-3.27-.8-7.141-1.268-10.611.667-1.735,1-3.6,2.736-4.338,2.135" transform="translate(-28.94 -42.313)" fill="#354952"/>
          <path id="Path_603370" data-name="Path 603370" d="M90.429,144.867a2.536,2.536,0,0,1-.667-1.6c0-.2-.067-.4-.067-.6a6.14,6.14,0,0,1,0-.734c.2-2.8,4.738-4.6,6.807-5.072h.2c1.335-.267,4.071.133,7.207.934l.133.734v.133a15.683,15.683,0,0,0,1.2,3.937c-3.27-.8-8.142-2.336-11.545.067-1.335.934-2.6,2.6-3.2,2.2" transform="translate(-29.834 -45.5)" fill="#354952"/>
          <path id="Path_603371" data-name="Path 603371" d="M105.692,161.51l-.4-.667-.2-.4-.2-.534h0a2.469,2.469,0,0,1-.067-1.869c.934-2.4,2.269-3.07,3.67-4s3.47-1.468,4.671-2.135l.667.667a19.486,19.486,0,0,0,2.6,2.069l-.467.133a14.424,14.424,0,0,0-6.94,3.871l-.133.133c-1.268,1.468-1.935,4.538-3.2,2.736" transform="translate(-34.82 -50.531)" fill="#354952"/>
          <path id="Path_603372" data-name="Path 603372" d="M110.678,164.274c-.267-1.6.667-3.871,2.936-5.339a16.884,16.884,0,0,1,5.606-2.336,27.9,27.9,0,0,0,3.27,1.668,8.974,8.974,0,0,0-5.339,3.2c-2.269,2.6-2.4,4.872-3.737,5.272s-2.536-1.6-2.669-2.536" transform="translate(-36.803 -52.095)" fill="#354952"/>
          <path id="Path_603373" data-name="Path 603373" d="M132.933,169.273c-.267-.534.4-1.268,1.268-2.269l3.6-4,3.8.868a9.943,9.943,0,0,0-4.4,3.6c-.6.934-1,2.135-2.269,2.4s-1.869-.067-2.135-.6" transform="translate(-44.177 -54.224)" fill="#354952"/>
          <path id="Path_603374" data-name="Path 603374" d="M142.364,170.306a1.735,1.735,0,0,1-1.468-1.335c-.067-.467.2-.934,2.4-2.669l2.069-1.6,3.27.734a10.011,10.011,0,0,0-2.4,1.335c-2.2,1.735-2.6,3.6-3.871,3.47" transform="translate(-46.867 -54.789)" fill="#354952"/>
          <path id="Path_603375" data-name="Path 603375" d="M147.288,170.237c-.2-.467.934-1.4,1.535-1.869s2.2-1.8,3.47-1.869h0c1.535.534,2.469,1.134,2.469,2a1.334,1.334,0,0,1-.067.4c-1.134.868-4.071,1.335-4.938,1.468s-2.269.334-2.469-.133" transform="translate(-48.989 -55.388)" fill="#354952"/>
          <path id="Path_603376" data-name="Path 603376" d="M92.569,159.145l-.534-.534-1.335-1.6a36.371,36.371,0,0,1,5.472-4.671,32.032,32.032,0,0,1,10.144-4.538h0l.334.534-1.468.467c-5.072,1.8-7.608,2.669-9.61,5.072s-2.2,3.737-3.07,5.339" transform="translate(-30.172 -49.167)" fill="#a5b0b5"/>
          <path id="Path_603377" data-name="Path 603377" d="M127.2,146h0" transform="translate(-42.314 -48.568)" fill="#a5b0b5"/>
          <path id="Path_603378" data-name="Path 603378" d="M84.367,149.27l-.467-1.134L85.5,147l2.269-1.4a1.848,1.848,0,0,0,.067.6,10.21,10.21,0,0,0-2.87,2.336l-.6.734" transform="translate(-27.91 -48.435)" fill="#a5b0b5"/>
          <path id="Path_603379" data-name="Path 603379" d="M114.6,139.2h0" transform="translate(-38.123 -46.306)" fill="#a5b0b5"/>
          <path id="Path_603380" data-name="Path 603380" d="M81.133,138.17l-.133-.8a34.5,34.5,0,0,1,4.138-2.069,2.069,2.069,0,0,0-.133.667l-2,1.068-1.869,1.134" transform="translate(-26.945 -45.009)" fill="#a5b0b5"/>
          <path id="Path_603381" data-name="Path 603381" d="M98.3,132h0" transform="translate(-32.701 -43.911)" fill="#a5b0b5"/>
          <path id="Path_603382" data-name="Path 603382" d="M81.5,127.636l.133-.6a36.769,36.769,0,0,1,4.6-1.735l-.133.133a38.04,38.04,0,0,0-4.6,2.2" transform="translate(-27.112 -41.682)" fill="#a5b0b5"/>
          <path id="Path_603383" data-name="Path 603383" d="M91.2,124.6h0" transform="translate(-30.339 -41.449)" fill="#a5b0b5"/>
          <path id="Path_603384" data-name="Path 603384" d="M102.134,169.771l-.534-.334a31.632,31.632,0,0,1,2.6-4.138l.4.667a36.97,36.97,0,0,0-2.469,3.8" transform="translate(-33.798 -54.989)" fill="#a5b0b5"/>
          <path id="Path_603385" data-name="Path 603385" d="M118.7,152.6h0" transform="translate(-39.487 -50.764)" fill="#a5b0b5"/>
          <path id="Path_603386" data-name="Path 603386" d="M123.667,173.277a36.837,36.837,0,0,1,4.271-9.877,37.972,37.972,0,0,0-3.47,9.476l-.133.467H123.6" transform="translate(-41.117 -54.357)" fill="#a5b0b5"/>
          <path id="Path_603387" data-name="Path 603387" d="M130.3,163.1h0" transform="translate(-43.346 -54.257)" fill="#a5b0b5"/>
          <path id="Path_603388" data-name="Path 603388" d="M112.7,175h-.2c.6-1.468,1.068-2.4,1.2-2.8a27.1,27.1,0,0,0-1,2.8" transform="translate(-37.424 -57.284)" fill="#a5b0b5"/>
          <path id="Path_603389" data-name="Path 603389" d="M114.4,171.9h0" transform="translate(-38.056 -57.184)" fill="#a5b0b5"/>
          <path id="Path_603390" data-name="Path 603390" d="M132.567,176.736H132.5a20.256,20.256,0,0,1,.667-2.936,26.431,26.431,0,0,0-.467,2.936h-.133" transform="translate(-44.078 -57.816)" fill="#a5b0b5"/>
          <path id="Path_603391" data-name="Path 603391" d="M140.7,175.8a19.027,19.027,0,0,1,.667-2.8,26.292,26.292,0,0,0-.467,2.8Z" transform="translate(-46.805 -57.55)" fill="#a5b0b5"/>
          <path id="Path_603392" data-name="Path 603392" d="M148.7,174.548c.2-.8.334-1.4.4-1.668a15.1,15.1,0,0,0-.267,1.6H148.7" transform="translate(-49.467 -57.496)" fill="#a5b0b5"/>
          <path id="Path_603393" data-name="Path 603393" d="M60.183,56.21c.868-5.205,1.068-6.406,1-8.275C60.717,36.79,45.7,30.851,44.968,30.384c-3.937-2.269-8.408-3.871-9.009-3s4.671,4.138,7.674,9.81c.267.534,5.873,11.145,1.335,17.684-1.2,1.668-3.871,2.936-9.209,5.405-7.207,3.27-8.675,3.337-12.346,5.139C14.271,69.823,9.065,76.7,9.2,76.9s4.138-4.338,11.545-8.142a54.989,54.989,0,0,1,11.345-4.138c7.407-1.869,10.477-3.07,14.481-1.535,5.739,2.135,8.342,6.74,8.609,14.348a10.044,10.044,0,0,1-3.871,7.474c-6.673,4.471-6.673,6.473-8.742,10.411s-3.4,8.942-2.8,9.143,2.135-3.2,6.14-8.142c3.07-3.8,5.472-5.806,7.608-5.739.934,0,1.735.067,2.069,5.405.667,10.01,1.8,11.745,3.47,14.481a58.525,58.525,0,0,0,5.405,7.407,78.026,78.026,0,0,1-4.738-8.075c-.734-1.735-4.938-11.278-.267-19.353,1.2-2.069,4.071-4.338,9.009-5.139s8.208.734,14.948,3.537c4.471,1.869,6.673,1.335,8.942.868,4.071-.934,7.274-3.8,7.074-4.271s-1.869.6-4.471,1c-4.8.734-12.012-.6-13.28-4.671s1.869-6.673,2.2-7.074a11.145,11.145,0,0,1,3.871-3c8.008-4,11.879-18.552,11.678-18.686a28.162,28.162,0,0,1-3.871,6.607,32.3,32.3,0,0,1-8.742,7.407c-3.937,2.336-9.409,5.672-16.617,5.272-1.869-.067-7.007-2.669-9.076-7.207-.667-1.468-1.869-3.47-1-9.009" transform="translate(-3.059 -9.029)" fill="#a5b0b5"/>
          <path id="Path_603394" data-name="Path 603394" d="M79.094,51.947a3.121,3.121,0,0,0-1.935-2.469,3.694,3.694,0,0,0-5.339,4.2c.534,1.468,2.669,2.069,4.138,1.735s3.2-1.8,3.136-3.47" transform="translate(-23.838 -16.311)" fill="#fff"/>
          <path id="Path_603395" data-name="Path 603395" d="M65.015,38.948a3.99,3.99,0,0,1,3.337.2,3.266,3.266,0,0,1,2,3.136,3.8,3.8,0,0,1-2.736,3.27,3.547,3.547,0,0,1-3.937-2.336,3.583,3.583,0,0,1,1.268-4.271" transform="translate(-21.105 -12.855)" fill="#fff"/>
          <path id="Path_603396" data-name="Path 603396" d="M68.382,43.067a1.5,1.5,0,0,1,.734,2.6,2.4,2.4,0,0,1-2.2.467,1.335,1.335,0,0,1-.6-1.869A2.269,2.269,0,0,1,68.382,43" transform="translate(-22.002 -14.304)" fill="#051c22"/>
          <path id="Path_603397" data-name="Path 603397" d="M78.122,51.8c.734.067,1,.868,1.068,1a1.735,1.735,0,0,1-.334,1.8,1.935,1.935,0,0,1-2,.534c-.8-.334-.8-1.335-.534-2A2.069,2.069,0,0,1,78.189,51.8" transform="translate(-25.336 -17.232)" fill="#051c22"/>
          <path id="Path_603398" data-name="Path 603398" d="M68.049,62.467c-.2,0-.868,2.069-.667,4.6.133,1.468.267,3.47,1.6,4.738,2.4,2.269,7.074.8,7.074.667a7.207,7.207,0,0,1-4.071-.667,7.541,7.541,0,0,1-3.2-3.871c-1.2-2.936-.534-5.472-.734-5.539" transform="translate(-22.403 -20.758)" fill="#354952"/>
          <path id="Path_603399" data-name="Path 603399" d="M63.794,29.043a37.438,37.438,0,0,0-8.742-5.606c-10.277-4.6-20.22-2.069-20.354-3s3.67-1.535,7.207-1.869A29.563,29.563,0,0,1,55.92,21.034,27.029,27.029,0,0,1,67.2,29.643c2.135,2.936,3.4,6.14,3.07,6.34s-2.4-3.47-6.473-7.074" transform="translate(-11.542 -6.153)" fill="#354952"/>
          <path id="Path_603400" data-name="Path 603400" d="M117.022,128.64c-.067-.868-1.869-9.076,5.873-6.874,2.269.667,4.671.4,8.475-1.4,8.275-3.871,11.612-13.947,11.412-14.281s-1.335,1.935-4.471,5.205-3.8,4-5.873,5.139c-4.471,2.536-11.545,3.47-15.549.6-.667-.467-2.2-1.668-2.2-1.2-.334,9.943,2.469,14.148,2.336,12.813" transform="translate(-38.142 -35.279)" fill="#354952"/>
          <path id="Path_603401" data-name="Path 603401" d="M55.171,119.877c-2.135.667-3.2,2.87-4.271,5.405-1.535,3.871-3.07,7.674-3.2,13.947-.067,4.071.4,8.075.868,8.075s.4-2.536,1.2-7.341,1.335-8.208,2.469-10.944c2.2-5.205,5.539-8.208,4.671-9.143s-1.335-.133-1.668,0" transform="translate(-15.865 -39.73)" fill="#354952"/>
        </g>
      </g>
    </g>
    <g id="Rectangle_3579-3" data-name="Rectangle 3579" transform="translate(21 509)" fill="#fff" stroke="#707070" stroke-width="1">
      <rect width="119" height="119" stroke="none"/>
      <rect x="0.5" y="0.5" width="118" height="118" fill="none"/>
    </g>
    <g id="Mask_Group_168" data-name="Mask Group 168" clip-path="url(#clip-path-5)">
      <g id="creepy" transform="translate(77.5 151.5)">
        <g id="creepy-2" data-name="creepy" transform="translate(-59.5 -46.777)" clip-path="url(#clip-path-6)">
          <path id="Path_603135" data-name="Path 603135" d="M440.536,307.161c-3.278-7.306-12.184-12.2-20.641-9.716-6.955,2.049-11.4,8.448-12.145,14.974-.8,7.043,2.663,14.681,9.306,17.8,8.965,4.224,19.861-1.571,23.47-9.716a17.363,17.363,0,0,0,0-13.354" transform="translate(-367.872 -267.839)" fill="#ca4b35"/>
          <path id="Path_603136" data-name="Path 603136" d="M45.545,262.01c.81-5.775-11.5-17.11-22.768-17.11C15.86,244.89-.869,261.015,0,262.312c.517.771,6.4-1.229,7.833-2.858,3.717-4.224,10.135-10.2,14.935-10.828,3.795-.5,4.965.254,8.828,4.673,5.3,6.068,7.823,12.6,11.052,12.262,1.395-.146,2.653-1.941,2.878-3.561" transform="translate(0.03 -221.01)" fill="#ca4b35"/>
          <path id="Path_603137" data-name="Path 603137" d="M623.7,63.336c-2.117-1.6,2.39-8.379,6.477-22.661,2.507-8.77,2.166-10.945,4.448-12.135,5.238-2.751,14.418,4.838,22.261,11.325,5.863,4.848,12.389,11.325,11.735,12.145s-8.311-3.765-14.564-8.5c-9.55-7.228-12.6-12.428-15.793-11.335-1.9.654-2.644,3.687-4.048,9.716-2.761,11.852-1.522,17.178-5.668,20.232-1.4,1.034-3.746,2.058-4.858,1.21" transform="translate(-562.37 -25.234)" fill="#ca4b35"/>
          <path id="Path_603138" data-name="Path 603138" d="M666.075,277.6c-.449-3.629,10.35-4.517,18.164-13.686,1.2-1.4,1.912-2.517,3.482-2.985,3.843-1.141,7.853,3.014,12.438,6.965,11.764,10.145,20.5,13,19.91,14.184s-8.028-.576-14.184-4.731a85,85,0,0,1-8.711-7.219c-4.39-4-6.1-6.116-8.214-5.726-1.766.332-2.292,2.136-3.98,4.731-4.507,6.906-12.847,12.584-16.925,10.7-.166-.078-1.824-.868-1.99-2.244" transform="translate(-601.088 -235.298)" fill="#ca4b35"/>
          <path id="Path_603139" data-name="Path 603139" d="M663.425,449.865c1.424-3.365,7.316-1.707,16.417-4.975,6.2-2.224,5.833-3.843,8.711-3.736,5.414.215,6.624,5.941,16.174,14.184,6.448,5.57,11.53,7.823,11.2,8.457s-6.594-.741-12.194-4.731c-9.092-6.477-9.726-14.954-15.179-15.179-1.727-.068-1.931.771-6.965,3.736-3.824,2.253-14.779,8.711-17.666,5.97a3.575,3.575,0,0,1-.5-3.736" transform="translate(-598.438 -398.115)" fill="#ca4b35"/>
          <path id="Path_603140" data-name="Path 603140" d="M587.693,597.64c5.707-1.317,8.292,4.575,16.417,6.224,6.185,1.249,7.96-1.492,11.2.751,2.878,1.99,3.609,5.648,4.975,12.438.624,3.083,1.658,9.453.751,9.706s-3.268-4.819-4.731-9.218c-1.99-6-1.356-8.272-3.482-9.95s-4.468-.6-8.955-.5c-10.038.215-19.666-5-19.412-7.462.137-1.278,2.936-1.922,3.239-1.99" transform="translate(-527.437 -539.169)" fill="#ca4b35"/>
          <path id="Path_603141" data-name="Path 603141" d="M334.519,557.43c-3.092-1.21-10.389,6.448-13.179,14.681-4.1,12.086,1.824,24.495,2.487,24.387.361-.059-.449-3.834-.254-12.935.127-6,.2-9,1-10.7,3.268-6.9,11.579-7.121,11.7-11.94.029-1.375-.6-3.044-1.746-3.483" transform="translate(-288.701 -502.939)" fill="#ca4b35"/>
          <path id="Path_603142" data-name="Path 603142" d="M151.028,460.684c-1.288-3-13.628-3.014-21.149,2.244-12.067,8.418-11.277,30.035-10.945,30.1a73.711,73.711,0,0,1,3.239-10.945c3.239-8.428,4.858-12.642,7.96-14.681,7.141-4.682,16.554,1.093,20.154-3.98.263-.361,1.2-1.688.751-2.741" transform="translate(-107.199 -413.909)" fill="#ca4b35"/>
          <path id="Path_603143" data-name="Path 603143" d="M61.124,34.862c1.785-2.848-2.692-7.726-7.716-15.676C45.214,6.212,46.96,3.091,42.463,1.023,35.6-2.128,26.787,2.944,21.061,6.241c-6.185,3.57-11.13,8.321-10.7,8.965s3.843-1.727,11.2-4.975C31.3,5.92,36.239,3.793,39.468,5c2.965,1.1,5.248,6.058,9.706,15.92,4.282,9.492,6.019,15.364,9.209,15.422a3.33,3.33,0,0,0,2.741-1.492" transform="translate(-9.326 -0.028)" fill="#ca4b35"/>
          <path id="Path_603144" data-name="Path 603144" d="M509.824,373.145A3.21,3.21,0,0,0,506,371.975a3.34,3.34,0,0,0-1.171,4.468,3.169,3.169,0,0,0,3.824,1.7c1.717-.673,2.312-3.375,1.171-4.995" transform="translate(-455.226 -335.462)" fill="#fff"/>
          <path id="Path_603145" data-name="Path 603145" d="M522.728,382.935a1.021,1.021,0,0,0-1.219-.371,1.1,1.1,0,0,0-.371,1.414,1.014,1.014,0,0,0,1.219.536,1.194,1.194,0,0,0,.371-1.59" transform="translate(-470.197 -345.173)" fill="#29434c"/>
          <path id="Path_603146" data-name="Path 603146" d="M571.125,339.445a3.21,3.21,0,0,0-3.824-1.171,3.34,3.34,0,0,0-1.171,4.468,3.169,3.169,0,0,0,3.824,1.7c1.717-.673,2.312-3.375,1.171-4.995" transform="translate(-510.547 -305.049)" fill="#fff"/>
          <path id="Path_603147" data-name="Path 603147" d="M583.928,340.634a1.021,1.021,0,0,0-1.219-.371,1.1,1.1,0,0,0-.371,1.414,1.014,1.014,0,0,0,1.219.537,1.194,1.194,0,0,0,.371-1.59" transform="translate(-525.427 -307)" fill="#29434c"/>
          <path id="Path_603148" data-name="Path 603148" d="M628.525,406.845a3.21,3.21,0,0,0-3.824-1.171,3.34,3.34,0,0,0-1.171,4.468,3.169,3.169,0,0,0,3.824,1.7c1.717-.673,2.312-3.375,1.171-4.995" transform="translate(-562.347 -365.875)" fill="#fff"/>
          <path id="Path_603149" data-name="Path 603149" d="M658.028,428.935a1.021,1.021,0,0,0-1.219-.371,1.1,1.1,0,0,0-.371,1.414,1.014,1.014,0,0,0,1.219.537,1.194,1.194,0,0,0,.371-1.59" transform="translate(-592.299 -386.686)" fill="#29434c"/>
          <path id="Path_603150" data-name="Path 603150" d="M562.724,428.245a3.21,3.21,0,0,0-3.824-1.171,3.339,3.339,0,0,0-1.171,4.468,3.169,3.169,0,0,0,3.824,1.7c1.717-.673,2.312-3.375,1.171-4.995" transform="translate(-502.966 -385.187)" fill="#fff"/>
          <path id="Path_603151" data-name="Path 603151" d="M600.328,446.634a1.021,1.021,0,0,0-1.219-.371,1.1,1.1,0,0,0-.371,1.414,1.014,1.014,0,0,0,1.219.536,1.194,1.194,0,0,0,.371-1.59" transform="translate(-540.228 -402.659)" fill="#29434c"/>
          <path id="Path_603152" data-name="Path 603152" d="M556.924,507.445a3.21,3.21,0,0,0-3.824-1.171,3.34,3.34,0,0,0-1.171,4.468,3.17,3.17,0,0,0,3.824,1.7c1.717-.673,2.312-3.375,1.171-4.995" transform="translate(-497.732 -456.661)" fill="#fff"/>
          <path id="Path_603153" data-name="Path 603153" d="M557.728,540.234a1.021,1.021,0,0,0-1.219-.371,1.1,1.1,0,0,0-.371,1.414,1.014,1.014,0,0,0,1.219.537,1.194,1.194,0,0,0,.371-1.59" transform="translate(-501.783 -487.129)" fill="#29434c"/>
          <path id="Path_603154" data-name="Path 603154" d="M624.124,485.945a3.21,3.21,0,0,0-3.824-1.171,3.34,3.34,0,0,0-1.171,4.468,3.169,3.169,0,0,0,3.824,1.7c1.717-.673,2.312-3.375,1.171-4.995" transform="translate(-558.376 -437.258)" fill="#fff"/>
          <path id="Path_603155" data-name="Path 603155" d="M627.328,518.634a1.021,1.021,0,0,0-1.219-.371,1.1,1.1,0,0,0-.371,1.414,1.014,1.014,0,0,0,1.219.537,1.194,1.194,0,0,0,.371-1.59" transform="translate(-564.594 -467.636)" fill="#29434c"/>
        </g>
      </g>
    </g>
    <g id="Mask_Group_169" data-name="Mask Group 169" clip-path="url(#clip-path-7)">
      <g id="spikey" transform="translate(204.5 151.5)">
        <g id="spikey-2" data-name="spikey" transform="translate(-54.855 -59.5)" clip-path="url(#clip-path-8)">
          <path id="Path_603177" data-name="Path 603177" d="M63.492,20.287c-11.131,5.478-26.664-9.516-28.184-5.035s14.662,10.339,13.965,15.3c-.9,6.349-29.118,4.069-29.055,6.333.048,1.868,20.837,1.172,21.644,5.542.934,5.035-25.429,13.712-24.653,16.1.633,1.948,18.209-4.259,21.138.507,3.594,5.874-17.464,24.621-15.612,26.664,1.488,1.631,14.994-10.213,18.114-7.553,3.5,2.977-8.328,22.024-6.539,23.149S44.571,87.595,49.4,89.21C54.752,91,52,111.535,54.435,111.852s4.544-16.91,9.057-17.116c5.114-.222,9.706,21.629,12.081,21.138,1.963-.4-1.108-15.374,3.024-17.116,4.528-1.9,14.393,13.443,16.609,12.081s-6.413-15.723-3.024-18.62,16.894,8.043,18.114,6.539S97.059,85.489,99.228,81.641s18.177,1.868,18.62.507-19.174-7.426-18.62-12.081c.507-4.133,16.657-4.766,16.609-7.046-.063-2.692-22.515-2.581-23.149-7.046S113.8,44.892,113.32,43.388s-17.765,4.576-19.634,1.045,14.773-15.976,13.585-17.607-16.53,9.627-19.618,6.539S96.568,13.652,94.7,12.227,80.576,27.111,76.08,24.815s3.515-20.726,0-24.162c-4.608-4.481-3.008,14.9-12.588,19.634" transform="translate(-14.472 0.012)" fill="#9a7221"/>
          <path id="Path_603178" data-name="Path 603178" d="M262.384,221.231a5.211,5.211,0,0,0-6.207-1.9c-2.549,1.235-3.183,4.813-1.9,7.252s3.99,3.626,6.207,2.755c2.787-1.093,3.753-5.478,1.9-8.107" transform="translate(-213.474 -184.26)" fill="#fff"/>
          <path id="Path_603179" data-name="Path 603179" d="M272.99,253.415a1.657,1.657,0,0,0-1.979-.6,1.792,1.792,0,0,0-.6,2.3,1.645,1.645,0,0,0,1.979.871,1.939,1.939,0,0,0,.6-2.581" transform="translate(-227.437 -212.675)" fill="#29434c"/>
          <path id="Path_603180" data-name="Path 603180" d="M334.084,208.631a5.211,5.211,0,0,0-6.207-1.9c-2.549,1.235-3.183,4.813-1.9,7.252s3.99,3.626,6.207,2.755c2.787-1.092,3.753-5.478,1.9-8.107" transform="translate(-273.822 -173.655)" fill="#fff"/>
          <path id="Path_603181" data-name="Path 603181" d="M344.69,240.715a1.657,1.657,0,0,0-1.979-.6,1.792,1.792,0,0,0-.6,2.3,1.645,1.645,0,0,0,1.979.871,1.939,1.939,0,0,0,.6-2.581" transform="translate(-287.784 -201.986)" fill="#29434c"/>
          <path id="Path_603182" data-name="Path 603182" d="M366.938,552.624c9.057,2.787,13.11,30.131,11.052,31.255-1.425.776-5.748-14.9-16.1-24.083-1.235-1.093-.269-4.481.19-5.637s2.3-2.328,4.861-1.536" transform="translate(-304.079 -464.907)" fill="#5a4217"/>
          <path id="Path_603183" data-name="Path 603183" d="M455.283,415.525c16.055-2.613,30.464,1.963,30.67.4.238-1.821-19.649-1.805-31.05-9.706-.934-.649-3.2-2.312-5.051-1.552-2.755,1.124-3.927,7.394-1.552,9.9,1.805,1.9,5.257,1.251,6.983.966" transform="translate(-376.242 -340.427)" fill="#5a4217"/>
          <path id="Path_603184" data-name="Path 603184" d="M181.168,529.952c.538,2.834-2.391,4.449-6.793,10.482-5.637,7.743-7.315,14.029-7.964,13.775s2.312-6.191,3.5-15.913c1.029-8.36-.143-12.128,2.138-13.4,2.692-1.488,8.439,1.457,9.12,5.051" transform="translate(-139.985 -441.458)" fill="#5a4217"/>
          <path id="Path_603185" data-name="Path 603185" d="M29.33,356.815c-1.979,3.309-6.175,2.217-18.24,4.845C4.092,363.2.466,364.668.023,363.8s3.626-3.911,6.6-6.017c8.93-6.318,17.654-12.477,21.549-9.706,2.233,1.583,2.771,6.033,1.172,8.74" transform="translate(0.009 -292.388)" fill="#5a4217"/>
          <path id="Path_603186" data-name="Path 603186" d="M266.4,44.747c4.006-5.748-5.89-19.634-8.344-18.826-.491.158-.475.855-.776,8.74-.364,9.468-.491,11.068.776,12.033,2.043,1.568,6.571.6,8.344-1.948" transform="translate(-216.33 -21.788)" fill="#5a4217"/>
          <path id="Path_603187" data-name="Path 603187" d="M179.445,336.442c.016,3.214,12.746,5.969,12.635,6.6s-11.954-1.789-12.809.586c-.206.586.3,1.3,5.241,6.413,3.721,3.848,4.877,4.924,4.655,5.241-.649.966-12.7-6.84-13.775-5.431s9.1,10.577,8.344,11.448-10.339-7.125-11.653-5.827,6.618,11.558,6.017,12.033-7.2-10.086-13-8.93c-3.642.728-5.415,5.763-6.6,5.241s1.3-7.553-.4-8.534c-2.138-1.235-9.421,7.964-10.482,7.188s5.1-8.423,2.913-11.258c-1.742-2.264-7.663-.016-8.154-1.362s6.333-4.655,5.827-6.207-9.643.111-9.9-.966,8.566-3.4,8.344-5.241S135,335.223,135,334.336s11.1-.174,12.223-3.689c.855-2.66-4.338-6.729-4.069-6.983s6.777,6.761,9.12,5.431c1.219-.7.744-3.357,1.552-3.5,1.108-.19,2.058,4.924,4.069,5.051s3.119-3.8,4.069-3.5-.253,4.117,1.172,5.051c1.963,1.283,7.283-3.974,7.964-3.293s-3.135,4.053-2.328,5.431c1.267,2.153,11.653-3.943,12.809-1.948,1.789,3.088-2.169,1.932-2.153,4.085" transform="translate(-113.625 -272.411)" fill="#cf9e24"/>
        </g>
      </g>
    </g>
    <g id="Mask_Group_170" data-name="Mask Group 170" transform="translate(-251 278)" clip-path="url(#clip-path-9)">
      <g id="fluffy" transform="translate(331.5 151.5)">
        <g id="fluffy-2" data-name="fluffy" transform="translate(-59.5 -57.073)" clip-path="url(#clip-path-10)">
          <path id="Path_603199" data-name="Path 603199" d="M113.163,78.048c-4.894,3.4-11.1,2.317-12.479,2.044.907.446,7.614,3.886,8.463,10.19.648,4.793-2.245,9.888-6.635,12.91a14.358,14.358,0,0,1-10.305,2.576,13.083,13.083,0,0,1-3.224-.95,13.975,13.975,0,0,1-2.677-1.54A15.084,15.084,0,0,1,81.7,97.723a8.736,8.736,0,0,1-.187,1.526c-.705,3.267-3.325,6.3-6.621,8.333-4.088,2.519-9.211,3.5-13,1.454a10.579,10.579,0,0,1-5.009-7.225,6.491,6.491,0,0,1-1.223,1.929,9.527,9.527,0,0,1-6.376,2.648c-4.375.317-9.456-1.31-12.392-4.62l-.4-.475a10,10,0,0,1-1.943-4.217,13.469,13.469,0,0,1,.187-5.8h0A14.9,14.9,0,0,1,35.6,88.67a15.5,15.5,0,0,1-1.036,1.8h0C31.541,94.96,26.417,97.464,21.8,96.8a9.931,9.931,0,0,1-1.439-.317c-6.4-1.914-9.614-9.96-7.916-15.99a14.21,14.21,0,0,1,6.333-7.844c-1.742.878-4.994,2.087-8.118.921C5.792,71.758,4.9,65.584,5.749,61.755c1.3-5.9,7.2-8.607,8.017-8.967-4.822,1.684-10.118,0-12.479-3.67-3.022-4.706-.043-10.852,3.569-12.234s7.527,1.885,8.477.82c1.223-1.4-6.246-6.1-5.354-11.011.748-4.073,7.369-8.808,13.817-6.937a10.55,10.55,0,0,1,3.929,2.13,12.853,12.853,0,0,1,.086-5.383c.331-1.4,1.526-6.477,5.354-7.34,2.245-.5,4.994.518,7.2,2.735a6.882,6.882,0,0,1-.518-3.958C38.882,2.284,48.122-2.091,54.771,1A11.082,11.082,0,0,1,61,10.546a9.787,9.787,0,0,1,3.569-5.455C69.841,1.147,79.3,2.644,82.852,8.358a10.231,10.231,0,0,1,.662,9.139,10.181,10.181,0,0,1,6.462-4.246c6.693-.993,13.788,6.347,12.925,13.04-.547,4.26-4.145,6.995-5.872,8.089,1.929-1.065,6.693-3.224,11.226-1.554,6.736,2.476,8.866,11.888,5.354,17.933-2.274,3.9-6.39,5.556-8.017,6.117,1.914-.4,6.549-1.123,9.8,1.223,5.613,4.016,4.62,15.228-2.231,19.977" transform="translate(-0.035 0.019)" fill="#c2e4ee"/>
          <path id="Path_603200" data-name="Path 603200" d="M127.988,197.821a4.737,4.737,0,0,0-5.642-1.727c-2.317,1.123-2.893,4.375-1.727,6.592a4.676,4.676,0,0,0,5.642,2.5c2.533-.993,3.411-4.98,1.727-7.369" transform="translate(-102.757 -167.553)" fill="#fff"/>
          <path id="Path_603201" data-name="Path 603201" d="M128.019,215.116a1.986,1.986,0,0,0-2.418-.792,2.449,2.449,0,0,0-.734,2.994,1.966,1.966,0,0,0,2.418,1.137,2.4,2.4,0,0,0,.734-3.354" transform="translate(-106.703 -183.336)" fill="#29434c"/>
          <path id="Path_603202" data-name="Path 603202" d="M199.688,185.221a4.737,4.737,0,0,0-5.642-1.727c-2.317,1.123-2.893,4.375-1.727,6.592a4.676,4.676,0,0,0,5.642,2.5c2.533-.993,3.411-4.98,1.727-7.369" transform="translate(-164.137 -156.767)" fill="#fff"/>
          <path id="Path_603203" data-name="Path 603203" d="M201.921,206.676a2.224,2.224,0,0,0-2.562-.734,2.17,2.17,0,0,0,1.785,3.915,2.146,2.146,0,0,0,.777-3.166" transform="translate(-169.796 -176.163)" fill="#29434c"/>
          <path id="Path_603204" data-name="Path 603204" d="M332.507,646.351c-3.3-.59-6.146,1.742-7.225,4.4-1.9,4.735,1.713,10.737,5.253,13.673.705.59,4.721,3.9,7.715,2.634,3.368-1.439,3.224-7.786,1.885-11.888-.288-.892-2.591-7.916-7.628-8.808" transform="translate(-278.016 -553.244)" fill="#a2d4e5"/>
          <path id="Path_603205" data-name="Path 603205" d="M265.792,711.82c-.864,3.282-2.533,6.189-4.807,7.2a5.364,5.364,0,0,1-5.93-1.223c-2.907-2.951-2.1-8.521-1.67-10.593,2.936,3.31,8.031,4.937,12.392,4.62" transform="translate(-216.54 -605.414)" fill="#a2d4e5"/>
          <path id="Path_603206" data-name="Path 603206" d="M701.508,646.5c-1.885,3.2.5,8.161,2.375,10.665,2.591,3.483,7.182,6.218,9.4,4.879,3.253-1.957,2.044-13-3.3-16.523-2.735-1.813-6.822-1.813-8.477.979" transform="translate(-599.952 -551.536)" fill="#a2d4e5"/>
          <path id="Path_603207" data-name="Path 603207" d="M630.637,722.627c-1.022,2.317-3.569,5.714-6.218,5.4s-5.556-4.663-6.419-9.3a13.084,13.084,0,0,0,3.224.95,14.341,14.341,0,0,0,10.305-2.576,11.889,11.889,0,0,1-.907,5.527" transform="translate(-529.052 -613.889)" fill="#a2d4e5"/>
        </g>
      </g>
    </g>
    <g id="Mask_Group_177" data-name="Mask Group 177" clip-path="url(#clip-path-11)">
      <g id="thinking_bud_ball" data-name="thinking bud ball" transform="translate(80.5 290.5)">
        <g id="thinking_bud_ball-2" data-name="thinking bud ball" transform="translate(-59.5 -51.177)" clip-path="url(#clip-path-12)">
          <path id="Path_603274" data-name="Path 603274" d="M54.966,25.19c4.174.073,5.346-6,12.522-10.252,10.838-6.444,21.676-.806,23.141,0,8.495,4.614,12.6,14.207,11.644,15.378S96.415,22.7,91.215,24.165c-3.442.952-3.076,7.543-6.664,11.058C75.471,44.01,65.8,42.253,65.218,45.4s-5.712,9.959-1.684,14.207c8.788,9.154,18.088,35.078,24.825,42.474.22.22-8.714,1.172-17.5-2.343-6.225-2.49-9.154-4.394-18.747-19.846-5.492-8.861-.366-19.04-3.735-18.674-1.684.22-2.2,3.076-5.053,6-4.247,4.394-9.593,4.54-13.4,4.614-11.644.293-27.388,7.25-26.436,4.028s4.394-13.474,9.74-19.553a54.7,54.7,0,0,1,15.745-12.3c3.808-1.9,5.858-2.27,6.3-3.954s-3.149-3.662-7.543-7.543S18.5,24.531,17.692,18.526C16.52,10.178,22.671-.221,24.8,0s.366,2.71,1.831,5.2c3,5.2,9.74.952,16.038,3.954,8.275,3.954,6.518,15.891,12.376,15.964" transform="translate(-0.922 0.001)" fill="#d2dea1"/>
          <path id="Path_603275" data-name="Path 603275" d="M80.438,69.2a23.142,23.142,0,0,1-1.391,2.27c-5.492,7.836-15.012,11.131-22.116,8.275h-.146l-.293-.146-.513-.22a13.108,13.108,0,0,1-2.856-1.9c-3.954-3.442-3.735-10.326-5.785-17.868C42.358,41.157,57.59,33.1,61.325,31.564s7.982-.293,12.449,3.369C80.585,40.645,87.688,56.1,80.512,69.2" transform="translate(-12.407 -8.277)" fill="#ffe485"/>
          <path id="Path_603276" data-name="Path 603276" d="M140.575,101.623c-4.028,2.124-5.639,7.25-4.76,11.424s4.687,8.422,9.007,8.568c6.151.22,12.01-7.47,9.959-13.767A10.179,10.179,0,0,0,140.5,101.7" transform="translate(-36.294 -26.928)" fill="#ffb900"/>
          <path id="Path_603277" data-name="Path 603277" d="M115.064,118.3c.146,1.318-4.467,4.54-9.007,5.712-6.957,1.758-12.156-1.684-14.573-3.3-6.737-4.614-3.735-7.836-10.545-13.841-4.54-3.954-6.664-4.98-12.376-9.447C66.585,95.822,63.07,94.8,60.8,93.845c7.177,2.783,16.623-.439,22.116-8.275a23,23,0,0,0,1.391-2.27l2.563.732c2.2.659,10.545,1.831,14.866,8.934,6,9.886-.952,21.823,5.785,24.532,3.222,1.318,7.4-.366,7.543.879" transform="translate(-16.276 -22.299)" fill="#ffd54e"/>
          <path id="Path_603278" data-name="Path 603278" d="M48.559,74.4c4.906,4.174,7.836,12.815,4.76,17.575-4.174,6.371-19.186,5.273-37.274,9.374-2.05.439-5.712,1.318-7.323,4.321s-.073,6.81-1.391,7.543-4.906-1.831-6.371-4.906C-2.482,101.2,4.328,90.437,9.747,84.8c9.74-10.179,29-18.674,38.812-10.252" transform="translate(-0.007 -19.037)" fill="#ffd54e"/>
          <path id="Path_603279" data-name="Path 603279" d="M85.179,59.058c4.833,2.783,10.838,0,12.083-.586,12.669-5.858,8.788-18.234,14.573-25.7.366-.439-2.417.732-4.174,4.174s-6.3,6.444-16.4,2.49c-4.76-1.9-7.177-.659-8.2.293C79.1,43.24,78.734,55.4,85.252,59.058" transform="translate(-21.468 -8.748)" fill="#ffd54e"/>
          <path id="Path_603280" data-name="Path 603280" d="M80.247,35.427a1.9,1.9,0,0,0-1.758-.732A2.264,2.264,0,0,0,76.878,38.5a2.115,2.115,0,0,0,2.71-.293,2.4,2.4,0,0,0,.659-2.71" transform="translate(-20.417 -9.283)" fill="#fff"/>
          <path id="Path_603281" data-name="Path 603281" d="M69.34,35.6a1.831,1.831,0,0,1,1.684-.806A2.2,2.2,0,0,1,73,35.969a2.343,2.343,0,0,1-.293,2.563,2.015,2.015,0,0,1-2.636-.22,2.558,2.558,0,0,1-.732-2.71" transform="translate(-18.518 -9.313)" fill="#fff"/>
          <path id="Path_603282" data-name="Path 603282" d="M73.181,36.286a.879.879,0,0,1,.879.22,1.025,1.025,0,0,1,.293,1.025,1.172,1.172,0,0,1-.879.879c-.513.073-.806-.439-.879-.879a1.245,1.245,0,0,1,.586-1.245" transform="translate(-19.43 -9.703)" fill="#051c22"/>
          <path id="Path_603283" data-name="Path 603283" d="M80.708,36.086a.879.879,0,0,1,.879.22,1.025,1.025,0,0,1,.366,1.025,1.172,1.172,0,0,1-.879.879c-.513.073-.806-.439-.879-.879a1.245,1.245,0,0,1,.586-1.245" transform="translate(-21.464 -9.65)" fill="#051c22"/>
          <path id="Path_603284" data-name="Path 603284" d="M68.2,18.911c1.977-2.563-.439-8.714-4.394-11.717C57.654,2.434,48.5,5.876,48.5,6.535s5.273-.952,9.447,2.27S61.9,19.57,65.27,20.083A3.3,3.3,0,0,0,68.2,18.838" transform="translate(-12.983 -1.262)" fill="#ffd54e"/>
          <path id="Path_603285" data-name="Path 603285" d="M28.414,16.2c-.732.22-.806,4.247.659,8.348.366,1.025,4.1,11.424,10.692,11.131,3.369-.146,6.957-3.149,7.177-6.225s-5.126-7.909-9.52-8.348c-1.831-.146-2.856.366-4.614-.439-3-1.391-3.735-4.614-4.394-4.394" transform="translate(-7.47 -4.337)" fill="#ffd54e"/>
          <path id="Path_603286" data-name="Path 603286" d="M51.206,61.969c-5.639-3.076-12.6-.513-16.038.806-5.273,1.977-9.666,5.2-9.374,5.785s2.929-.806,9.081-2.417c11.278-2.929,14.719-1.9,15.964-1.538,3.076,1.1,4.98,3,5.273,2.636s-1.758-3.515-4.906-5.273" transform="translate(-6.901 -16.2)" fill="#ffd54e"/>
          <path id="Path_603287" data-name="Path 603287" d="M101.707,79.573c5.346-.366,9.3,2.71,10.985,3.954,5.785,4.467,8.275,10.985,7.762,11.351s-2.27-3.588-7.177-7.177c-7.47-5.566-15.525-5.639-15.378-7.03s3.515-1.1,3.808-1.172" transform="translate(-26.206 -21.282)" fill="#ffd54e"/>
          <path id="Path_603288" data-name="Path 603288" d="M105.338,37.019c.659.732,3.222-.073,4.906-1.172,3.369-2.27,2.71-5.566,6-7.323,2.124-1.172,4.247-.732,4.321-1.318s-1.9-1.538-3.588-1.611c-6.3-.439-12.962,9.813-11.644,11.5" transform="translate(-28.153 -6.848)" fill="#ffd54e"/>
          <path id="Path_603289" data-name="Path 603289" d="M55.538,82.688c2.05,3-.366,7.909-2.929,10.326-7.25,7.03-22.482,1.1-22.409.146s9.081,1.684,13.108-3.222c2.636-3.222.952-6.957,3.735-8.788a6.4,6.4,0,0,1,8.422,1.538" transform="translate(-8.084 -21.467)" fill="#ffe485"/>
          <path id="Path_603290" data-name="Path 603290" d="M95.931,95.518c3.808-2.124,9.081,3.222,9.374,3.515,5.419,5.639,3.881,14.719,3.149,14.793s-.22-5.566-4.174-8.568-9.154-.513-10.692-3.222.22-5.346,2.417-6.518" transform="translate(-24.897 -25.436)" fill="#ffe485"/>
        </g>
      </g>
    </g>
    <g id="Rectangle_3803" data-name="Rectangle 3803" transform="translate(148 509)" fill="#fff" stroke="#707070" stroke-width="1">
      <rect width="119" height="119" stroke="none"/>
      <rect x="0.5" y="0.5" width="118" height="118" fill="none"/>
    </g>
  </g>
</svg>
