<svg xmlns="http://www.w3.org/2000/svg" xmlns:xlink="http://www.w3.org/1999/xlink" viewBox="0 0 883.1 690"><defs><style>.cls-1,.cls-9{fill:none;}.cls-2{fill:#ecf0d9;}.cls-3{fill:#fed252;}.cls-4{clip-path:url(#clip-path);}.cls-5{fill:#133139;}.cls-6{fill:#445a64;}.cls-7{fill:#fec800;}.cls-8{fill:#fff2d0;}.cls-9{stroke:#ecf0d9;stroke-miterlimit:10;}</style><clipPath id="clip-path"><rect class="cls-1" x="10.65" y="332.86" width="298.98" height="170.25" transform="translate(-280.95 494.16) rotate(-78.84)"/></clipPath></defs><g id="Layer_2" data-name="Layer 2"><g id="Layer_1-2" data-name="Layer 1"><rect class="cls-2" x="0.5" y="0.5" width="882.1" height="689"/><polygon class="cls-3" points="144.89 170.9 708.59 211.91 664.74 568.42 114.67 539.13 144.89 170.9"/><path class="cls-3" d="M636.26,192.4,468,175.67s17.75-88,90.95-79.23C642.54,106.5,636.26,192.4,636.26,192.4Z"/><path class="cls-3" d="M446.14,177.16a9.33,9.33,0,0,0,8.66-6.57c4.68-15.23,18.27-54.09,38.55-67.24,24-15.61,48.18-24.89,68.6-19.79s59.76,14.59,70.69,38.23c8.32,18,13.33,49.08,15.26,62.9a9.25,9.25,0,0,0,8,7.91l15.23,2a9.28,9.28,0,0,0,10.49-9.49c-.63-21.75-3.69-70-18.18-87.4C644.47,74.94,589,40.46,556.1,42.39S472,51.56,456.85,71.72s-45.7,78.54-46.07,93.66C410.5,176.65,434.12,177.47,446.14,177.16Z"/><path class="cls-3" d="M693.63,485.9l18.91-168s87.8,18.88,78,92C779.44,493.29,693.63,485.9,693.63,485.9Z"/><path class="cls-3" d="M711.33,296a9.3,9.3,0,0,0,6.46,8.74c15.17,4.88,53.84,19,66.74,39.42,15.29,24.25,24.25,48.5,18.9,68.85s-15.37,59.57-39.15,70.19c-18.1,8.08-49.24,12.7-63.09,14.44a9.27,9.27,0,0,0-8,7.87L691,520.71a9.28,9.28,0,0,0,9.35,10.61c21.76-.36,70-2.79,87.63-17.05,23-18.65,58.23-73.64,56.73-106.59s-8.09-84.18-28-99.61-78-46.72-93.06-47.29C712.29,260.36,711.17,284,711.33,296Z"/><g id="curious"><g class="cls-4"><g class="cls-4"><path class="cls-5" d="M140.24,468.54c-.22.93-.49,1.84-.78,2.79a7.38,7.38,0,0,1-.47,1.42s0,.11,0,.15c-.15.61-.38,1.19-.6,1.81-.69-.07-1.32-.18-1.95-.29a25,25,0,0,1-5.49-1.72c-.95-.44-1.63-.79-2-1l-.44-.22a7.54,7.54,0,0,0-.76-.37c-1.12-.57-2.22-1.08-3.29-1.56-.27-.12-.54-.2-.78-.33-1.45-.61-2.87-1.11-4.27-1.63-.34-.1-.69-.24-1-.38-1.76-.57-3.47-1.09-5.18-1.61-.6-.15-1.21-.34-1.82-.52-1.78-.5-3.49-1-5.17-1.51-.49-.14-1-.31-1.52-.49-1.75-.51-3.45-1.13-5.12-1.8l-.83-.35a36,36,0,0,1-4.47-2.26,6.43,6.43,0,0,1-1.06-.63,30,30,0,0,1-3.41-2.45,2.86,2.86,0,0,1-.35-.28c-.44-.4-.88-.77-1.32-1.17-1.5-1.49-2.74-3.1-2.94-4.87a2.92,2.92,0,0,1,0-1.1,4.89,4.89,0,0,1,.39-1.33,5.24,5.24,0,0,1,2.42-2.62c2.8-1.5,6.33.22,7.89,1a253.65,253.65,0,0,1,25.91,14.16,119.48,119.48,0,0,0,18.55,9.16"/><path class="cls-5" d="M172.79,430.57c-2.13,4.44-12.92,4.83-20.74,1.88-3.42-1.32-4.94-2.77-5.62-2.16-1.58,1.41,5,10.42,12.48,23.41,9.15,15.89,13.72,23.86,13.54,31.86-.27,12.64-8.65,22-12.15,25.85-7.49,8.39-15.72,11.88-23.28,15-10.33,4.31-26.42,10.94-43,6.91-23.75-5.75-37.31-30.49-37.34-30.62s4.6,4.61,13.51,12.41c6.17,5.34,7.19,5.91,8.6,6.2,2,.47,6,.73,19-8.5,6.19-4.4,7.93-6.35,14-11.12,12.74-9.92,13-7.58,17.61-12.33a36.53,36.53,0,0,0,5.09-6.51c.71-.19,1.43-.45,2.16-.72,1.12-.42,5.8-2.25,5.63-3.85-.1-.94-1.8-1.25-4.72-1.43a21.84,21.84,0,0,0,.81-2.17,56.05,56.05,0,0,0,1.89-6.17c1.11-4.36,1.8-8.74,2.45-12.93,1.06-7.06.79-11.23,0-14.79-1.08-4.92-2.79-7.25-5.58-12.55A2.32,2.32,0,0,0,138,428c.58-.27,1.91-1.16,2.26-5.29,1.45-17.2-8-32.64-8-32.64a42.57,42.57,0,0,0-3.46-4.93,10.84,10.84,0,0,1,2.56-3.12,9.81,9.81,0,0,1,2-1.32,2.18,2.18,0,0,1,.07.48.82.82,0,0,0,.07.34,1.09,1.09,0,0,0,.14.33c.24.44,1.51.56,1.71.16.05-.12-.07-.31-.08-.37a6.8,6.8,0,0,1-.46-1.61,17.09,17.09,0,0,1,8.56-.87l.22.06c-.06,1.19-.11,1.94-.15,2.24v.32a2.48,2.48,0,0,0,.05.38c.13.47,1.36.88,1.61.54.11-.13,0-.33,0-.4a16.49,16.49,0,0,1-.06-2.72,12.87,12.87,0,0,1,3.11,1.24,18.16,18.16,0,0,1,3.69,2.57,38.24,38.24,0,0,0-1,5.6,42.91,42.91,0,0,0,2.59,21.4c1.84,4.54,4.12,10.26,8.61,12.13,3.68,1.55,6.89-.22,8.82-1.78.13.26.29.51.42.8.43.83,3,5.93,1.54,9"/><path class="cls-6" d="M142.26,478.3c.17,1.6-4.51,3.43-5.63,3.85-.73.27-1.45.53-2.16.72.45-.74.89-1.47,1.29-2.23.18-.33.35-.68.5-1a4.26,4.26,0,0,0,.26-.59,1.61,1.61,0,0,0,.27-.56h0c.24-.51.47-1.06.71-1.61,2.92.18,4.62.49,4.72,1.43"/><path class="cls-6" d="M135.32,382c-.2.4-1.47.28-1.71-.16a1.09,1.09,0,0,1-.14-.33.82.82,0,0,1-.07-.34,2.11,2.11,0,0,0-.07-.48,6.11,6.11,0,0,1,1.45-.67,6.8,6.8,0,0,0,.46,1.61c0,.06.13.25.08.37"/><path class="cls-6" d="M145,379.59a16.49,16.49,0,0,0,.06,2.72c0,.07.09.27,0,.4-.25.34-1.48-.07-1.61-.54a2.48,2.48,0,0,1-.05-.38v-.32c0-.29.09-1.05.16-2.24a6,6,0,0,1,1.46.36"/><path class="cls-2" d="M132.24,390.08a42.57,42.57,0,0,0-3.46-4.93c-2.35-2.83-4-3.58-5.22-3.95a12.91,12.91,0,0,0-12,2.85c-4.62,4.1-4.55,10.31-4.52,11.4.17,10.77,7.66,16.61,20.34,26.5a92.25,92.25,0,0,0,8.32,6.08,1.87,1.87,0,0,0,1.4.23A2.32,2.32,0,0,0,138,428c.58-.27,1.91-1.16,2.26-5.29,1.45-17.2-8-32.64-8-32.64M119.86,408a4.53,4.53,0,0,1-3.85,1.3,5,5,0,0,1-3.77-3.8,5.91,5.91,0,0,1-.11-2.11c.2-1.39.8-2.88,1.2-2.82.58.05.14,3.42,1,3.61.53.14,1.48-.85,1.48-1.85,0-1.35-1.74-1.93-1.5-2.66s1.77-.84,3-.48a5.21,5.21,0,0,1,3,3.26c.21.48,1.37,3.5-.53,5.55"/><path class="cls-2" d="M119.86,408a4.53,4.53,0,0,1-3.85,1.3,5,5,0,0,1-3.77-3.8,5.91,5.91,0,0,1-.11-2.11c.2-1.39.8-2.88,1.2-2.82.58.05.14,3.42,1,3.61.53.14,1.48-.85,1.48-1.85,0-1.35-1.74-1.93-1.5-2.66s1.77-.84,3-.48a5.21,5.21,0,0,1,3,3.26c.21.48,1.37,3.5-.53,5.55"/><path class="cls-2" d="M174.35,416.33a12.77,12.77,0,0,1-1.73,2.68,10.33,10.33,0,0,1-1.79,1.74c-1.93,1.56-5.14,3.33-8.82,1.78-4.49-1.87-6.77-7.59-8.61-12.13a42.91,42.91,0,0,1-2.59-21.4,38.24,38.24,0,0,1,1-5.6,15.42,15.42,0,0,1,2.66-5.59c.36-.47,4.58-5.9,9.59-4.93.08,4,.44,7.76.76,11.32.72,8.06,1.92,19.95,9.51,32.13"/><path class="cls-2" d="M176.51,402.07c.11,3.6.25,9.5-2.16,14.26-7.59-12.18-8.79-24.07-9.51-32.13-.32-3.56-.68-7.35-.76-11.32a6,6,0,0,1,.79.19c7.68,2.45,11.36,19.07,11.64,29"/><path class="cls-5" d="M119.86,408a4.53,4.53,0,0,1-3.85,1.3,5,5,0,0,1-3.77-3.8,5.91,5.91,0,0,1-.11-2.11c.2-1.39.8-2.88,1.2-2.82.58.05.14,3.42,1,3.61.53.14,1.48-.85,1.48-1.85,0-1.35-1.74-1.93-1.5-2.66s1.77-.84,3-.48a5.21,5.21,0,0,1,3,3.26c.21.48,1.37,3.5-.53,5.55"/><path class="cls-5" d="M144.35,279.89c-1.2,2-2.86,2.54-5.5,4-8.27,4.46-9.38,5.73-13.65,11.43a8.59,8.59,0,0,0-1.28,3.12,12,12,0,0,0-.3,3.19c.26,2.68,0,3.13,1.37,15.77,1.11,10.32,2.74,21.44,3.33,25.26,2.31,15.53,5.27,32.23,6.46,37.41a6.8,6.8,0,0,0,.46,1.61c0,.06.13.25.08.37-.2.4-1.47.28-1.71-.16a1.09,1.09,0,0,1-.14-.33.82.82,0,0,1-.07-.34,2.11,2.11,0,0,0-.07-.48c-.77-5.34-9.45-44.4-9.45-44.4-6.82-30.87-5.1-22.64-6.36-28.12-.75-3.29-3.13-10.31-.19-16.38.45-.88.59-.88,2.84-3.78,6.29-8.16,9.45-12.26,11-15.82,1.33-3.24,1.82-5.87,4.38-7.32a6.06,6.06,0,0,1,3.94-.71c4.74,1.06,7.92,10.61,4.91,15.71"/><path class="cls-5" d="M177.21,285.36c-1.59,1.66-3.34,1.79-6.23,2.56-9,2.5-10.44,3.48-15.92,8a10.07,10.07,0,0,0-2,2.74,11.67,11.67,0,0,0-1,3.06c-.38,2.67-.73,3-2.31,15.68-1.29,10.27-2.22,21.49-2.53,25.32-1.21,14.7-2.09,30.57-2.25,36.86a16.49,16.49,0,0,0,.06,2.72c0,.07.09.27,0,.4-.25.34-1.48-.07-1.61-.54a2.48,2.48,0,0,1-.05-.38v-.32c0-.3.09-1.05.16-2.24.44-9.41.84-43.66.84-43.66.42-31.58.21-23.22.23-28.84,0-3.34-.66-10.73,3.57-16,.65-.78.76-.74,3.6-3.06,8-6.51,12-9.76,14.29-12.89,2.05-2.86,3.12-5.29,6-6.09a5.7,5.7,0,0,1,4,.16c4.37,2.14,5.3,12.14,1.16,16.46"/><path class="cls-7" d="M142.35,269.12c-1.61-3.24-3-3.61-4.25-3.89a2.54,2.54,0,0,0-2.95,1.56,11.69,11.69,0,0,0-.89,8.66c.55,1.67,1.29,3.92,3.71,4.85a5.57,5.57,0,0,0,4.32,0c2.19-1.21,2.18-4.36,1.75-6.1a16.64,16.64,0,0,0-1.69-5.05"/><path class="cls-7" d="M177.92,274.78c-.7-3.5-2-4.23-3.17-4.83a2.76,2.76,0,0,0-3.41.67,11,11,0,0,0-3.34,7.92c.08,1.72.18,4,2.36,5.59a6.14,6.14,0,0,0,4.35,1.15c2.55-.54,3.43-3.52,3.49-5.27a15.31,15.31,0,0,0-.28-5.23"/><path class="cls-7" d="M117.83,372.64c-2.65.44-6.28,2.5-9.29,4.2-4.37,2.47-5.69,5.87-6.49,5.42-.59-.35.27-2.15.89-6,.55-3.44.21-4.11.83-9.78.55-5.17,1-6,1.73-6.43,1.79-1.05,4.58.68,5.78,1.42,1.92,1.18,1.38,1.59,6.18,7.51.76.94,1.9,2.31,1.46,3.12a1.45,1.45,0,0,1-1.09.58"/><path class="cls-7" d="M150.94,359.16c2.24-.78,6-.55,9.06-.37,4.49.27,7,2.71,7.44,1.95.31-.57-1.17-1.79-3.4-5-2-2.81-2-3.55-5-8.33-2.75-4.34-3.45-4.88-4.22-4.94-1.86-.14-3.24,2.63-3.84,3.81-1,1.91-.35,2-1.4,9.4-.17,1.18-.43,2.89.27,3.42a1.21,1.21,0,0,0,1.11,0"/><path class="cls-5" d="M219,322.72a28.74,28.74,0,0,0-12.17-3.82c-20.2-1.37-34.56,21.66-35.53,23.26-6.36,10.48-7.53,21.12-7.25,30.72.08,4,.44,7.76.76,11.32.72,8.06,1.92,19.95,9.51,32.13.28.47.56.94.87,1.41,4.36,6.62,10.62,16.1,22.63,19.67a25.24,25.24,0,0,0,2.7.66,18.86,18.86,0,0,0-.24,2.68c-.12,2.87-1.62,40.91-3.76,54.6-.87,5.63.28,11.6-1.68,16.93a1.79,1.79,0,0,0-.08,1.44,2.08,2.08,0,0,0,1.82,1.17,3.21,3.21,0,0,0,2.28-1.42c3.87-4.93,12.18-46.34,12.18-46.34,3.25-16.1,9.54-25.71,12.1-31.92a52.18,52.18,0,0,0,6.89-3.63,45.35,45.35,0,0,0,14.87-14.82c7.21-12.27,5.78-24.72,4.19-37-1.29-9.85-5.79-44.24-30.09-57.08m20,55.76c1.83,10.51,3.89,22.47-2.65,34.38a42.1,42.1,0,0,1-5,7.38s0,0,0,0a25.59,25.59,0,0,1-10.92,7.5,23.61,23.61,0,0,1-4.82,1,1.11,1.11,0,0,1-.36,0,41.82,41.82,0,0,1-10.29-1.1s0,0-.08,0a44.18,44.18,0,0,1-19.65-12.86c-8.31-9.46-9-19.82-10.44-39.21-.8-10.85.1-18.47,1.49-23.86,0-.1.06-.19.08-.3s0-.11.06-.19a37.68,37.68,0,0,1,3.36-8.41,6.13,6.13,0,0,1,.34-.57,41.12,41.12,0,0,1,6.89-8.82c.56-.55,1.18-1.15,1.83-1.75h0c3.2-3,7.35-6.25,12-6.53,2.88-.16,7.69.71,16.66,10.88,6.43,7.31,17.68,20.47,21.45,42.4"/><path class="cls-2" d="M232.6,401.42c.6,7.33,1.16,13.82-1.24,18.82,0,0,0,0,0,0a25.59,25.59,0,0,1-10.92,7.5,23.61,23.61,0,0,1-4.82,1,1.05,1.05,0,0,1-.35,0,41.85,41.85,0,0,1-10.3-1.1s0,0-.08,0a44.18,44.18,0,0,1-19.65-12.86c-8.31-9.46-9-19.82-10.44-39.21-.8-10.85.1-18.47,1.49-23.86,0-.1.06-.19.07-.3s0-.11.07-.19a56.56,56.56,0,0,1,3.7-9,40.43,40.43,0,0,1,6.9-8.82c.55-.55,1.17-1.15,1.82-1.75h0a5.63,5.63,0,0,1,1.62-.42c1.22-.09,3.18.23,11,8.66,5.6,6,8.38,9,12,14.44,7.13,10.72,17.32,26,19.08,47"/><path class="cls-5" d="M202.91,387c.92,3.6,4.05,9,9.91,9.89a11.48,11.48,0,0,0,10-3.4c4.94-5.29,1.92-13.17,1.41-14.5s-2.62-6.84-7.91-8.45c-3.28-1-7.4-.35-7.9,1.26-.58,1.83,3.92,3.41,3.92,6.9,0,2.6-2.52,5.23-3.89,4.89-2.28-.56-1.17-9.33-2.68-9.53-1-.13-2.66,3.8-3.09,7.43a14.38,14.38,0,0,0,.22,5.51"/><path class="cls-5" d="M83.28,474.49a5.93,5.93,0,0,1-.52.58l-.34.39a7.65,7.65,0,0,0-.82.79c-.15.13-.3.27-.45.38A8.85,8.85,0,0,1,79.42,478c-.15.14-.34.21-.49.35-.32.18-.63.39-1,.56-.13.07-.21.16-.31.18a6.23,6.23,0,0,1-3.24-3.92,5.31,5.31,0,0,1,1.15-4.37,24.68,24.68,0,0,0,5.11,2.73c.85.35,1.74.65,2.59,1"/><path class="cls-5" d="M93.61,476.55c-.08.12-.13.24-.21.36a5.73,5.73,0,0,1-.56,1,11.58,11.58,0,0,1-1.06,1.66,2.76,2.76,0,0,1-.31.38c-.06.05-.11.13-.26.27s-.35.36-.61.63a14.88,14.88,0,0,1-2,1.61,3.46,3.46,0,0,1,.47.18,36.31,36.31,0,0,1-8.27-2.07,18.5,18.5,0,0,1-2.17-1c.31-.21.7-.51,1.13-.85.15-.14.34-.25.52-.39l.09-.06c.57-.48,1.06-.87,1.48-1.21a11.14,11.14,0,0,0,1.29-1.28c.12-.09.22-.26.37-.4l.08-.12a3.75,3.75,0,0,0,.47-.6,49.24,49.24,0,0,0,7.27,1.54l2.28.33"/><path class="cls-5" d="M103.24,477.51a1.5,1.5,0,0,1-.11.34c-.1.34-.24.69-.38,1a2.34,2.34,0,0,1-.09.24c-.13.35-.27.7-.44,1.05a10.71,10.71,0,0,1-.67,1.36,4.41,4.41,0,0,1-.3.56,6.86,6.86,0,0,1-.61.81h0a62.52,62.52,0,0,1-10.16-.14,6.86,6.86,0,0,1,1.1-1.31.67.67,0,0,0,.16-.24,2.33,2.33,0,0,0,.53-.65,10.16,10.16,0,0,0,.69-.94,6.5,6.5,0,0,0,.77-1.37c.23-.41.38-.83.58-1.23a2.2,2.2,0,0,1,.17-.39c2.41.29,5.35.58,8.79.86"/><path class="cls-5" d="M112.91,478.18c0,.18-.07.33-.1.52a8.22,8.22,0,0,1-.21.82c-.07.34-.18.68-.25,1a8.48,8.48,0,0,1-.28.85,4.44,4.44,0,0,1-.29.81.25.25,0,0,1,0,.1c0,.08-.07.16-.09.24-3.23,0-6.35.21-9.34.36,0-.12.09-.23.13-.38l.19-.58c.18-.47.38-1,.63-1.67l.31-.74a1.18,1.18,0,0,0,.11-.27,6.6,6.6,0,0,0,.43-1.3,1.09,1.09,0,0,0,.07-.34c2.61.22,5.49.41,8.7.6"/><path class="cls-5" d="M121.32,478.62l-.07.66c0,.18,0,.33-.07.48a10.35,10.35,0,0,1-.2,1.07,2.05,2.05,0,0,1-.08.44c-.07.34-.12.6-.14.67a.13.13,0,0,1,0,.08,8.31,8.31,0,0,1-.24.9,69.79,69.79,0,0,0-7.76-.41s0,0,0-.07a8.67,8.67,0,0,0,.19-.9c.08-.47.12-.77.14-1,.07-.37.1-.55.19-.93a1.6,1.6,0,0,1,.12-.45,3.4,3.4,0,0,0,.15-.42,1,1,0,0,0,.12-.45s0-.05,0-.08l2,.12,5.57.28"/><path class="cls-5" d="M128.08,481.92c-.07.33-.12.59-.14.67s0,.07,0,.07c-.09.41-.19.75-.27,1a25.33,25.33,0,0,1-4.17-.4c-.74-.13-1.47-.22-2.2-.31a4.63,4.63,0,0,1,.09-.73c0-.29.06-.54.08-.76s0-.51.07-.66a6.6,6.6,0,0,1,.08-.94,2.29,2.29,0,0,1,.06-.4.42.42,0,0,0,0-.22,1.16,1.16,0,0,0,.11-.48s0-.11,0-.15c3,.12,5.16.2,6.74.24l0,.33,0,.33a7.16,7.16,0,0,1-.1.84,3.06,3.06,0,0,1-.12.63,5.75,5.75,0,0,1-.16.89"/><path class="cls-5" d="M142.26,478.3c.17,1.6-4.51,3.43-5.63,3.85-.73.27-1.45.53-2.16.72a25.06,25.06,0,0,1-6,.85c0-.22.07-.48.11-.8s.06-.55.08-.77c.08-.62.06-.86.08-1.12a3.47,3.47,0,0,1,.07-.48,3.94,3.94,0,0,1,.05-.4,2.21,2.21,0,0,0,.12-.59s0-.08,0-.11a2.62,2.62,0,0,0,.05-.55c2.26.08,3.4.08,4.82.09,1,0,1.9.05,2.68.06a1.61,1.61,0,0,0,.27-.56c-1.3-.11-3-.23-5.29-.3l-2.58-.08,0-.11c-.05-.23-.22-.66-.32-.64s0,.44-.05.58,0,.11,0,.18l-6.74-.28a1.74,1.74,0,0,0-.07-.48c0-.24-.21-.66-.31-.64s0,.44-.06.58,0,.35,0,.53c-2.36-.09-4.87-.18-7.58-.23a1.93,1.93,0,0,0-.14-1c-.06-.27-.3-.71-.47-.68s-.1.52-.14.67a4.63,4.63,0,0,1,0,1c-.5,0-1.07,0-1.61,0a61,61,0,0,1-7.1-.45s0-.07,0-.11a3.9,3.9,0,0,0,0-1.51c-.14-.65-.49-1.46-.63-1.43a3.39,3.39,0,0,0,0,1,3.73,3.73,0,0,1-.17,1.5c0,.15-.07.3-.11.45-.66-.07-1.35-.17-2.15-.25-3.26-.43-5.18-.58-6.59-.7a2.92,2.92,0,0,0,.18-.46s0-.11,0-.15a4,4,0,0,0,.12-2.09c-.18-.49-.44-1-.55-1s0,.54,0,.92a4.38,4.38,0,0,1-.31,1.88c-.11.27-.23.55-.34.86-.55-.06-1-.1-1.5-.18A38.86,38.86,0,0,1,84.49,474a8.29,8.29,0,0,0,.4-.77,4.63,4.63,0,0,0,.42-2c0-.39-.1-1-.24-1s-.23,1.08-.62,2.09c-.06.19-.16.39-.25.62a5.1,5.1,0,0,1-.4.77,25.42,25.42,0,0,1-5.07-2.56c-.71-.45-1.38-1-2-1.41,2.21-1.44,5.35-1.06,6.89-.86A258.57,258.57,0,0,1,112.67,474c11,2.52,19.82,2.55,24.87,2.87,2.92.18,4.62.49,4.72,1.43"/><path class="cls-8" d="M162.6,423.75c-.08-.15-.24.09-1.18-.27a11.87,11.87,0,0,1-3.7-2.78,12.41,12.41,0,0,1-2-2.64c-.62-1.08-1.24-2.28-1.88-3.57s-1.28-2.66-1.92-4.11c-.32-.73-.64-1.48-.93-2.23s-.51-1.56-.76-2.38c-1.38-4.44-2.48-7.71-2.72-11a31.68,31.68,0,0,1,.08-5.22c.08-.92.2-1.89.33-2.91a23,23,0,0,1,.62-3.08,14.28,14.28,0,0,1,2.62-5.27c.61-.73,1.2-1.25,1-1.53s-.78-.22-1.66.17a6.71,6.71,0,0,0-2.58,2.27,16.84,16.84,0,0,0-2.58,8,31.32,31.32,0,0,0,.05,8.59,46.62,46.62,0,0,0,2.63,8.69c.27.72.53,1.45.8,2.19.14.37.27.74.4,1.12s.31.79.46,1.16c.65,1.5,1.35,3,2.07,4.54.27.58.87,1.88,1.81,3.58a20.16,20.16,0,0,0,1.77,2.82,15.53,15.53,0,0,0,2.82,2.64,10.26,10.26,0,0,0,2.6,1.42,2.79,2.79,0,0,0,1.43.15c.35-.09.43-.29.41-.33"/><path class="cls-8" d="M132.22,385.31c-.18.06.8,1.83,2.42,4.82a61.53,61.53,0,0,1,5.44,12.46c1,3.55,1.45,6.29,2,9,.26,1.38.53,2.77.78,4.25a25.9,25.9,0,0,1,.44,4.84,11,11,0,0,1-.27,2.17,7.05,7.05,0,0,1-1,2.25c-.42.66-.79,1.18-.61,1.37s.64.05,1.27-.37a5.23,5.23,0,0,0,1.79-2.11,12.24,12.24,0,0,0,.56-6.77c-.32-2.22-.85-4.38-1.39-6.61A81.29,81.29,0,0,0,139,396.37a49.55,49.55,0,0,0-4.28-7.73c-.45-.67-2.29-3.41-2.53-3.33"/><path class="cls-7" d="M82.76,475.07l-.34.39a8.76,8.76,0,0,0-.82.79c-.15.13-.3.27-.45.38-1.46-1-2.35-2.12-2.1-2.46s1-.05,2.1.32l1.61.58"/><path class="cls-7" d="M93.4,476.91a5.73,5.73,0,0,1-.56,1,11.58,11.58,0,0,1-1.06,1.66,28.8,28.8,0,0,1-8.66-1.89,6.8,6.8,0,0,1-1.27-.61,12,12,0,0,0,1.29-1.28c.12-.09.22-.26.37-.4l.08-.12a30.54,30.54,0,0,0,4.28,1c2,.24,3.83.45,5.53.61"/><path class="cls-7" d="M103.13,477.85c-.1.34-.24.69-.38,1a2.34,2.34,0,0,1-.09.24c-.13.35-.27.7-.44,1.05-.25,0-.47,0-.72,0-2.94-.14-5.78-.27-8.57-.52a6.5,6.5,0,0,0,.77-1.37c.23-.41.38-.83.58-1.23,3.16.31,6,.55,8.85.81"/><path class="cls-7" d="M112.81,478.7c0,.26-.13.56-.21.83s-.18.67-.25,1l-9.06-.27.31-.74a.85.85,0,0,0,.11-.27,6,6,0,0,0,.43-1.3c2.62.25,5.4.46,8.67.78"/><path class="cls-7" d="M121.25,479.28c0,.18,0,.33-.07.48a10.35,10.35,0,0,1-.2,1.07c-2.72-.12-5.34-.22-7.88-.28.07-.37.1-.55.19-.93a1.6,1.6,0,0,1,.12-.45,3.4,3.4,0,0,0,.15-.42l.19,0c2.64.21,5.13.37,7.5.5"/><path class="cls-7" d="M128.46,479.56a7.42,7.42,0,0,1-.1.84,3.06,3.06,0,0,1-.12.63c-2.91,0-5.09-.07-6-.13l-.76,0a6.73,6.73,0,0,1,.08-.94,2.29,2.29,0,0,1,.06-.4.57.57,0,0,0,0-.22c2.45.14,4.7.19,6.78.27"/><path class="cls-7" d="M140.36,479.88c0,.29-2.82.58-4.59.75l-1.15.11c-2.13.18-4.14.26-5.91.29a3.15,3.15,0,0,1,.07-.47,2.38,2.38,0,0,1,.06-.41,2.69,2.69,0,0,0,.11-.59l7.31.08c2.59,0,4.06,0,4.1.24"/><path class="cls-5" d="M197,500.21c-.16.15.55.89,2.24,1.12a7.4,7.4,0,0,0,6.07-2.46c2.1-2.08,2.72-5.85,1.63-9.17a15.34,15.34,0,0,0-2.56-4.87,8.53,8.53,0,0,0-5.56-3.47c-3.42-.31-5.82,1.27-7.62,2.47a29.76,29.76,0,0,1-4.52,2.95,19.36,19.36,0,0,1-5,1.25,3.26,3.26,0,0,1-1.85-.09,7.73,7.73,0,0,1-2.06-1.58c-1.11-1.05-3.62-3.38-6-4.14-1.22-.4-2.32-.35-2.7.19-.63.87.77,2.87,2.35,4.79.93,1.12,1.88,2.17,2.91,3.22a8.11,8.11,0,0,0,8.1,2.82c.83-.16,1.55-.33,2.37-.55a16.76,16.76,0,0,0,4.88-2.13c3-2.1,4.79-4.68,7.34-5.51a3.74,3.74,0,0,1,3.51.43,8.63,8.63,0,0,1,2.82,3.54,12.46,12.46,0,0,1,1.05,3.52,6.44,6.44,0,0,1-1.87,5.8,6.28,6.28,0,0,1-2.67,1.55c-1.28.4-2.69.06-2.89.32"/><path class="cls-5" d="M174.07,513.81c.09.57,1.8-.26,2.1-2.21.45-2.06-.94-4-1.65-5.83a17.86,17.86,0,0,0-3.9-5.95,1.89,1.89,0,0,0-2.17-.59,3.94,3.94,0,0,0-1.69,1.25,2.44,2.44,0,0,0-.38,2.36c.47,1.56,1.58,2.32,2.88,3.2s2.84,1.94,3.43,3.43a2.6,2.6,0,0,0,.32.69,7.65,7.65,0,0,1,.89,1.24,2.47,2.47,0,0,1,.23,1c0,.5-.18,1.07-.06,1.39"/><path class="cls-5" d="M172.51,537.58c.37.35,1.57-1.22,1.78-4.12s-.77-6.58-2.81-10.43a21.39,21.39,0,0,0-4.48-5.77,24,24,0,0,0-6.21-4.11c-.8-.4-2.75-1.15-4.29-.39a2.57,2.57,0,0,0-1.45,1.79c-.15,1.12.87,1.91,1.86,2.64,2.29,1.67,4.69,2.67,7.24,4.24s5.22,3.8,6.2,7.17c.14.7.85,2.6,1.56,5.46a11.67,11.67,0,0,1,.26,1.77c.08.76.05,1.54.34,1.75"/><path class="cls-5" d="M147.34,531.88c.7.22.44-2.14,1.12-5.13a11.93,11.93,0,0,0-.06-5.38,1.43,1.43,0,0,0-1.12-1.24,2.55,2.55,0,0,0-1.46.16,1.79,1.79,0,0,0-1,1.35c-.58,2.11,1.63,3.81,1.13,6.55a3.16,3.16,0,0,0,.4,2.27c.13.23.58,1.25,1,1.42"/><path class="cls-5" d="M141.18,550.59c.5.23,1.1-1.21,1.78-3.9a19.79,19.79,0,0,0,.59-5.06,11.55,11.55,0,0,0-2.13-6.55,17.06,17.06,0,0,0-6.22-5.1c-2-1-4-1.74-6.79-2.87-.82-.33-2.68-1.05-4.24-.38a2.75,2.75,0,0,0-1.64,1.74c-.27,1.17.79,2.2,1.93,3,2.61,2,5.77,2.64,9,3.54,3,.88,6.37,2.38,6.63,5.82.07.65.06,2.69.32,6.08.1.62.16,3.33.81,3.65"/><path class="cls-5" d="M111.07,543.65c-.09.39.82.52,2,0a8.54,8.54,0,0,0,3.28-3.44c1.18-2.49.82-4,.32-6.19a1.45,1.45,0,0,0-1.27-1.18,3.28,3.28,0,0,0-1.62.22,1.83,1.83,0,0,0-1.12,1.49,4.55,4.55,0,0,0,.65,3,2.42,2.42,0,0,1-.16,2.87,4.31,4.31,0,0,0-1,1.7c0,.26-.91,1.06-1.06,1.56"/><path class="cls-7" d="M90.59,447.81c-.4.66,5.28,5.42,12.09,9,2.33,1.21,2.1.88,14.75,5.66,9.6,3.62,13.29,5.16,15.24,6,4.51,1.91,6.77,3,6.8,2.92s-10.71-5.28-28.19-13.89c-16.14-7.94-20.36-10.18-20.69-9.65"/><path class="cls-2" d="M139,472.75s0,.1,0,.15A48.3,48.3,0,0,1,133,471c-3.12-1.14-9.7-4.25-19.18-7.13s-11.33-3.26-15.27-5a39.56,39.56,0,0,1-8.23-4.79c-3.33-2.58-3.49-3.79-5.24-4.83a2.92,2.92,0,0,1,0-1.1,4.79,4.79,0,0,1,.39-1.33c.85,1,2.06,2.93,3.71,4.81a28.47,28.47,0,0,0,10.29,7.11c1.46.64.87.24,8.74,2.76,4.67,1.51,4.49,1.51,6.85,2.24,7.27,2.19,7.4,2.16,10.27,3.38,5.8,2.51,13.19,5.42,13.39,5.52a1.38,1.38,0,0,1,.27.11"/><path class="cls-2" d="M94.19,453.42c-.76.42-1.39.62-2.17,1-.23.09-.49.18-.78.31s-.61.31-1,.54a3.58,3.58,0,0,0-.53.33,2.86,2.86,0,0,1-.35-.28c-.44-.4-.88-.77-1.32-1.17.79-.14,1.25.19,2.39,0a1.37,1.37,0,0,0,.38-.05,4.37,4.37,0,0,0,.67-.18,9,9,0,0,0,3.41-2l.59-.56c.4-.41.75-.8,1.06-1.15,1.15-1.43,1.52-2.5,1.68-2.43s-.06,1.36-1,2.77a6.27,6.27,0,0,1-1,1.4,5.35,5.35,0,0,1-.57.51h0a8.85,8.85,0,0,1-1.43.95"/><path class="cls-2" d="M103.91,457.42a9,9,0,0,1-1.8,2.17l-.15.14a4.58,4.58,0,0,1-.45.35,18.57,18.57,0,0,1-2,1.18l-.83-.35a11.35,11.35,0,0,0,1.84-1.22c.14-.14.3-.24.45-.38l0,0a12.46,12.46,0,0,0,2.22-2.23,7.63,7.63,0,0,0,.53-.68c.42-.66.84-1.35,1.19-2a5.77,5.77,0,0,0,.71-2.46c0-.07-.09-.41,0-.46s.34.39.4.51a3.19,3.19,0,0,1-.45,2.52.35.35,0,0,1-.1.16c-.6,1.17-1.11,2.09-1.56,2.83"/><path class="cls-2" d="M113.16,455.89c.11,0,.41.68.53,1.22a3.58,3.58,0,0,1,.06,1.33,5.83,5.83,0,0,1-.52,1.92c0,.08-.08.17-.1.25-.35.84-.62,1.52-.83,2.1-.07.17-.14.38-.19.5-.33.92-.55,1.47-.65,1.87-.64-.17-1.29-.37-1.94-.57a6.9,6.9,0,0,0,1.53-1.64c.08-.17.2-.31.27-.48a14.54,14.54,0,0,0,1-2.1,1.59,1.59,0,0,0,.07-.2,12.28,12.28,0,0,0,.66-2,3.5,3.5,0,0,0,.17-1.3c0-.34-.11-.86,0-.87"/><path class="cls-2" d="M121.18,459.82c.1,0,.4.4.51.74a2.47,2.47,0,0,1,0,1.82,3.64,3.64,0,0,0-.15.42,5.88,5.88,0,0,0-.31,1.06c-.09.41-.21,1-.34,1.68-.07.19-.09.41-.15.63,0,0,0,0,0,.08a15.47,15.47,0,0,0-.3,1.7,11.06,11.06,0,0,1-1-.38A4.35,4.35,0,0,0,120,466a3.82,3.82,0,0,1,.18-.61c.09-.41.22-1,.45-1.7.09-.27.17-.53.28-.84a4.73,4.73,0,0,0,.21-.69,3.47,3.47,0,0,0,.12-1.87c0-.1-.13-.44-.09-.44"/><path class="cls-2" d="M127.88,463.46c.1,0,.26.41.31.65a3,3,0,0,1,.07,1.44,3.78,3.78,0,0,1-.13.7,4.07,4.07,0,0,0-.06.41c-.1.52,0,.61-.15,1.59,0,.22,0,.47-.08.77-.16,1.06-.27,1.51-.31,1.84-.27-.12-.54-.2-.78-.33.15-.45.28-1,.47-1.77a.2.2,0,0,0,0-.07c0-.08.07-.34.13-.67s.19-.93.28-1.52a10.7,10.7,0,0,0,.14-1.17,11.4,11.4,0,0,0,0-1.29c0-.14,0-.56,0-.58"/><path class="cls-2" d="M134.53,466.6a3.06,3.06,0,0,1,.2,1.73c0,.08,0,.14,0,.22a4.69,4.69,0,0,0,0,.84,4.5,4.5,0,0,1,.11,1.15c0,.25-.05.44-.08.62s-.07.52-.06.73a4.56,4.56,0,0,0-.21,1.82,2,2,0,0,0,.05.38,7.41,7.41,0,0,0-.75-.37c.13-.38.22-.94.36-1.61a1.78,1.78,0,0,1,.08-.44c0-.22.08-.44.1-.7a6.83,6.83,0,0,0,.09-1.69,2.87,2.87,0,0,0-.09-.9.2.2,0,0,1,0-.07,7.6,7.6,0,0,1-.16-1.71c0-.1,0-.35.06-.37s.24.31.29.37"/><path class="cls-2" d="M136.79,478.49a1.61,1.61,0,0,1-.27.56c-.78,0-1.68-.06-2.68-.06-1.42,0-2.56,0-4.81-.09a3.55,3.55,0,0,1-.06.55s0,.07,0,.11a2.21,2.21,0,0,1-.12.59,3.94,3.94,0,0,0-.05.4,3.47,3.47,0,0,0-.07.48c0,.25,0,.5-.08,1.12,0,.22,0,.47-.08.77s-.09.58-.11.8c-.25,0-.53,0-.78,0,.07-.3.17-.64.26-1,0,0,0,0,0-.07s.07-.34.14-.67a6,6,0,0,0,.16-.89,3.06,3.06,0,0,0,.12-.63,5.67,5.67,0,0,0,.1-.84l0-.33c0-.11,0-.22,0-.33-1.58,0-3.69-.12-6.74-.24,0,0,0,.11,0,.15a1.16,1.16,0,0,1-.11.48.42.42,0,0,1,0,.22,2.29,2.29,0,0,0-.06.4,6.6,6.6,0,0,0-.08.94c0,.15,0,.37-.07.66s0,.47-.08.76a4.63,4.63,0,0,0-.09.73,6.77,6.77,0,0,0-.76-.08,7.92,7.92,0,0,0,.22-.9.11.11,0,0,0,0-.08c0-.07.07-.33.14-.67a2.05,2.05,0,0,0,.08-.44,10.35,10.35,0,0,0,.2-1.07c0-.15,0-.3.07-.48l.07-.66-5.57-.28-2-.12s0,0,0,.07a1.17,1.17,0,0,1-.12.46,2.89,2.89,0,0,1-.15.42,1.32,1.32,0,0,0-.12.45c-.09.38-.12.56-.19.93,0,.22-.06.51-.14,1a8.67,8.67,0,0,1-.19.9.2.2,0,0,1,0,.07c-.36,0-.72,0-1.07,0,0-.08.07-.16.09-.24a.25.25,0,0,0,0-.1,5.42,5.42,0,0,0,.29-.81c.09-.24.2-.55.28-.85s.18-.64.25-1,.16-.57.21-.83.07-.34.1-.52c-3.21-.19-6.09-.38-8.7-.6a1.09,1.09,0,0,1-.07.34,6.6,6.6,0,0,1-.43,1.3,1.18,1.18,0,0,1-.11.27l-.31.74c-.25.63-.45,1.2-.63,1.67l-.19.57c0,.16-.09.27-.13.39l-1.7.05a6.86,6.86,0,0,0,.61-.81,4.41,4.41,0,0,0,.3-.56,10.71,10.71,0,0,0,.67-1.36c.17-.35.31-.7.44-1.05a2.34,2.34,0,0,0,.09-.24c.14-.35.28-.7.38-1a1.67,1.67,0,0,0,.11-.34c-3.44-.28-6.38-.57-8.79-.86a2.2,2.2,0,0,0-.17.39c-.2.4-.35.82-.58,1.23a6.5,6.5,0,0,1-.77,1.37,10.16,10.16,0,0,1-.69.94,2.33,2.33,0,0,1-.53.65.67.67,0,0,1-.16.24,6.86,6.86,0,0,0-1.1,1.31c-.47,0-.91-.09-1.35-.13h0a3.46,3.46,0,0,0-.47-.18,14.88,14.88,0,0,0,2-1.61c.26-.27.47-.46.61-.63s.2-.22.26-.27a2.76,2.76,0,0,0,.31-.38,11.58,11.58,0,0,0,1.06-1.66,5.73,5.73,0,0,0,.56-1c.08-.12.13-.24.21-.36l-2.28-.33a49.24,49.24,0,0,1-7.27-1.54,4.43,4.43,0,0,1-.47.6l-.08.12c-.15.14-.25.31-.37.4a12,12,0,0,1-1.29,1.28c-.42.34-.91.73-1.48,1.21l-.09.06c-.18.14-.37.25-.52.39-.42.34-.82.64-1.13.85-.32-.14-.64-.32-1-.5.1,0,.18-.11.31-.18.32-.17.63-.38,1-.56.14-.14.34-.21.49-.35a8.85,8.85,0,0,0,1.73-1.37c.15-.11.3-.25.45-.38a7.65,7.65,0,0,1,.82-.79l.34-.39a5.93,5.93,0,0,0,.52-.58c-.85-.31-1.74-.62-2.59-1a24.68,24.68,0,0,1-5.11-2.73,1.72,1.72,0,0,1,.23-.26,4.63,4.63,0,0,1,.9-.73c.64.46,1.31,1,2,1.41a25.42,25.42,0,0,0,5.07,2.56,5.1,5.1,0,0,0,.4-.77c.09-.23.19-.43.25-.62.39-1,.45-2,.62-2.09s.23.59.25,1a4.86,4.86,0,0,1-.43,2,8.29,8.29,0,0,1-.4.77,38.71,38.71,0,0,0,7.82,1.81c.48.08,1,.12,1.5.18.11-.31.23-.59.34-.86a4.38,4.38,0,0,0,.31-1.88c0-.38-.13-.9,0-.92s.37.53.55,1a4,4,0,0,1-.12,2.09s0,.11,0,.15a2.42,2.42,0,0,1-.18.46c1.41.12,3.33.27,6.59.7.79.08,1.49.18,2.15.25,0-.15.07-.3.11-.45a3.73,3.73,0,0,0,.17-1.5,3.39,3.39,0,0,1,0-1c.14,0,.49.78.63,1.43a3.9,3.9,0,0,1,0,1.51s0,.08,0,.11a61,61,0,0,0,7.1.45c.54,0,1.11,0,1.61,0a4.63,4.63,0,0,0,0-1c0-.15,0-.64.14-.67s.41.41.47.68a1.93,1.93,0,0,1,.14,1c2.71,0,5.22.14,7.58.23,0-.18,0-.35,0-.53s0-.56.06-.58.26.4.31.64a1.76,1.76,0,0,1,.07.49l6.75.27c0-.07,0-.11,0-.18s0-.56.05-.58.27.41.32.65l0,.1,2.58.08c2.26.07,4,.19,5.29.3"/><path class="cls-2" d="M141.11,479.05s0,.1,0,.18c-.66.07-2.19-.09-4.56-.18a1.61,1.61,0,0,0,.27-.56h0a31.56,31.56,0,0,1,3.91.5,3.06,3.06,0,0,1,.37.07"/><path class="cls-7" d="M94.3,531.13c.15.54,1.48.82,2,.89a54.31,54.31,0,0,0,24.33-1.79c.7-.18,4.9-1.76,5.28-2.82s-1.6-2.48-4.43-5.64a64.35,64.35,0,0,1-6.92-9.72c-1.85-3-2.45-4.51-2.95-4.36-.76.21-1,4,.2,7.37.76,2.08,1.71,3,1.25,3.93s-2.61,1.72-4.16,1.11c-3.12-1.23-2.53-6.84-4.77-7.18-1.11-.17-2.3,1.06-2.77,2-.76,1.52-.2,3.33.8,6.44.57,1.78-.26,2.54-.47,2.68-.58.37-3.52-1.66-5.34-5.42-1-2.09-2.64,6.37-2.68,7a16.22,16.22,0,0,0,.59,5.52"/><path class="cls-7" d="M116.27,504.05c-.5,1.55.55,3.18,2.66,6.45,1.1,1.73,2.19,3.12,7.91,9.07,3.82,4,4.69,4.76,6.26,5,1.2.22,2.38.08,6.24-1.51,4.55-1.87,6.83-2.81,9.75-4.78,3.78-2.55,6-5,9.36-8.76,4.16-4.67,6.25-7,7.71-9.81,4.64-8.88,2.47-18.4,1.19-24a46.43,46.43,0,0,0-9.92-18.19,5.52,5.52,0,0,0-3-1.91c-2.75-.58-6.06,1.51-7.49,4.19-1.22,2.28,0,2.94-1,7.9-.7,3.31-1.58,4.51-.82,5.48,1.21,1.55,4.67-.07,5.63,1.51a2.14,2.14,0,0,1-.38,2.46c-1.2,1.08-3.2-.89-5.29.05a4.07,4.07,0,0,0-2.21,4.14,3.63,3.63,0,0,0,1.42,2.11c1.82,1.47,4.56.7,5.43,2,.42.62,1.9,1.47.32,3.89-.84,1.29-5.77-1.65-6.75-2.26a3.34,3.34,0,0,0-2.14-.79c-.86-.06-1.81.39-5.57,4.79-1.94,2.27-2.11,2.66-2.22,3.12-.4,1.77,1.43,2.66,3,4.07.93.83,2.32,3.32,1.69,4.13a3.83,3.83,0,0,1-1.76,1.16c-.8.29-1.81-.64-3.49-2.24s-1.94-2.3-2.88-2.67c-1.31-.52-2.62,0-4.17.6-8.92,3.6-9.3,4.17-9.49,4.76"/><path class="cls-2" d="M160,466.45a5.18,5.18,0,0,1-.47.78,5,5,0,0,1-1.43,1.87,6.83,6.83,0,0,1-2.55,1.68,19.53,19.53,0,0,1-3.25,1.2,44.92,44.92,0,0,1-5.26.78c-1.6-.37.29-3.05.69-3.25a2.31,2.31,0,0,1,1.68-.36c.89.24.77,1,1.44,1a7.34,7.34,0,0,0,2-.47,17.61,17.61,0,0,0,3.11-1.09,5.13,5.13,0,0,0,1.85-2c.38-.81.23-1.3.78-1.51a1.83,1.83,0,0,1,1.17,0c.48.22.54.83.26,1.37"/><path class="cls-2" d="M165.1,479.85a5.89,5.89,0,0,1-1,.84,6.88,6.88,0,0,1-2.79,1.88,9.79,9.79,0,0,1-4.24,1.14,28.85,28.85,0,0,1-5,.19c-.84-.11-7-.91-7.56-1.27-2-1.2,1.76-4,2.38-4.06a3.51,3.51,0,0,1,2.47.25c1.11.71.62,1.68,1.56,1.93a10.82,10.82,0,0,0,2.91.23,25.51,25.51,0,0,0,4.76-.09A7.25,7.25,0,0,0,162,479c.89-.93.9-1.65,1.75-1.69a2.76,2.76,0,0,1,1.59.55c.57.51.37,1.36-.26,2"/><path class="cls-5" d="M128,384.27c.23-.87-2.27-2.49-4.58-3.2a12.21,12.21,0,0,0-7.44.24,13.43,13.43,0,0,0-6.36,4.67c-2.92,3.92-2.73,8.24-2.63,10.4.21,4.79,2.13,8.5,2.49,8.4s-1.78-4.82.09-9.76a14.48,14.48,0,0,1,4.86-6.12,19.38,19.38,0,0,1,7.85-3.58c3.45-.77,5.51-.29,5.72-1.05"/><path class="cls-5" d="M138.66,427.55a3,3,0,0,1-1.14.69,2.55,2.55,0,0,1-1.17,0,2.14,2.14,0,0,1-1.18-.43c-.92-.52-14.33-10.16-16.9-12.55-4-3.65-10-11.48-8.65-10.37.27.21,8.42,10.33,14.26,14.14,2.13,1.39,9.2,7.34,12.5,7.32a3.69,3.69,0,0,0,2.64-.87c.74-.74,1.08-1.95,1.2-1.92s-.17.73-.28,1.21a7.06,7.06,0,0,1-.69,2,4.57,4.57,0,0,1-.59.78"/><path class="cls-2" d="M142.18,488c-1.34-.33-3.05.81-3.62,2.3a4.33,4.33,0,0,0,.86,3.93,5.81,5.81,0,0,0,2.35,1.87c8.57,3.94,7.5,3.65,10.13,4.73,7.58,3.1,9.12,2.61,10.15,1.9s1.72-1.9,1.42-2.47-1.94-.15-4.16-.18c-2,0-3.39-.51-6.16-1.47-4.29-1.49-6.43-2.23-7.42-4.24-.48-1-.29-1.4-1.13-3.21s-1.36-2.9-2.42-3.16"/><path class="cls-2" d="M128.56,504.38c-.36.77.36,2.59.68,3.14A30.4,30.4,0,0,0,133.1,513c4.6,3.82,6.28,1.91,7.18,4.64,0,.14.72,2.27-.2,3.08s-3.56-.42-4.29-.8c-3.67-2-4.07-4.38-8.47-10.07-3.16-4.09-4.76-5.18-4.3-6.86s4.87-3.68,6.5-3.16c.72.22.63,1.5.06,2.34a15.34,15.34,0,0,0-1,2.21"/><path class="cls-7" d="M146.33,454.7a2.58,2.58,0,0,1,.36-.46,3.15,3.15,0,0,1,1.07-1.09,5,5,0,0,1,1.82-.94,14.61,14.61,0,0,1,2.26-.62,35.45,35.45,0,0,1,3.59-.3c1.06.28-.37,1.85-.65,2a1.8,1.8,0,0,1-1.15.16c-.59-.17-.47-.63-.92-.63a5.25,5.25,0,0,0-1.36.22,12.12,12.12,0,0,0-2.16.56,3.32,3.32,0,0,0-1.36,1.14c-.31.49-.24.79-.62.9a1.34,1.34,0,0,1-.79-.06c-.31-.15-.31-.53-.09-.84"/><path class="cls-2" d="M216,439.5c-2.23,6.21-4.21,12.5-6.67,18.62-1,2.42-.06.91-2.7,13.24-3.63,16.95-5.43,20.15-5.94,28.26-.09,1.42-.28,5.36-.69,5.37s-.56-1.82-.66-2.79a22.68,22.68,0,0,1,1.3-10c1.43-4.22,2.07-8.67,3.24-13,3-11.16,1-10.82,4.09-23,2.74-10.93,5.31-15.1,5.5-16.86a2,2,0,0,1,.43-1c.58-.69,1.77-1,2.19-.55s.07,1.22-.09,1.66"/><path class="cls-7" d="M145.58,448.09a2.3,2.3,0,0,1,.26-.34,2.39,2.39,0,0,1,.78-.82,3.6,3.6,0,0,1,1.32-.7,10,10,0,0,1,1.64-.46,24.3,24.3,0,0,1,2.61-.21c.77.21-.26,1.4-.47,1.47a1.15,1.15,0,0,1-.83.12,2.48,2.48,0,0,0-.94-.09,3.39,3.39,0,0,0-1.2.11,5.76,5.76,0,0,0-1.32.37c-.6.3-.65.4-.76.57-.22.36-.17.59-.45.67a1,1,0,0,1-.57,0c-.23-.11-.23-.4-.07-.64"/><path class="cls-7" d="M87.62,528.23a2.39,2.39,0,0,1-.24-.36,2.36,2.36,0,0,1-.52-1,17.94,17.94,0,0,1-.69-2.16c-.38-1.05-.86-2.35-.44-2.85a8.89,8.89,0,0,1,1.65-.7c.73-.34,1.23.7,1.24.92a1.23,1.23,0,0,1-.16.83,2.48,2.48,0,0,0-.39.86,3.49,3.49,0,0,0-.29,1.16,5.92,5.92,0,0,0-.08,1.37c.09.67.17.75.29.91.27.32.51.35.49.64a.93.93,0,0,1-.23.52c-.18.18-.45.09-.63-.14"/><path class="cls-7" d="M214.23,433.25c0,1.21,5.93.38,11.36-3.12,7.13-4.61,13.08-8.83,16-14.46A56.42,56.42,0,0,0,247.21,398c1.38-23.49-5.52-44.2-7.16-43.08-.79.54-1.75,1-.48,3.59,2.23,4.58,2.64,8.31,3.85,12.87,1.82,6.87,3.87,17.38,1.37,28.13-3.37,14.48-4,13.79-6,17.62-.79,1.51-8.13,7.63-11.61,10.7-1.89,1.68-4.65,2.49-7.66,4.14-2.18,1.19-5.29.52-5.29,1.33"/><path class="cls-5" d="M205.77,494.22c-.39-1.94-1.12-2.35-1.76-2.68a1.53,1.53,0,0,0-1.89.37,6.11,6.11,0,0,0-1.85,4.39,3.55,3.55,0,0,0,1.31,3.09A3.39,3.39,0,0,0,204,500c1.41-.3,1.9-1.95,1.93-2.92a8.53,8.53,0,0,0-.15-2.89"/><path class="cls-5" d="M151.49,383.56c.14-.55.21-.82.31-1.15a14.77,14.77,0,0,1,.81-2.07,15.71,15.71,0,0,1,2-3.2,16.69,16.69,0,0,1,4.24-3.54,8.61,8.61,0,0,1,1.45-.63,7.13,7.13,0,0,1,1.49-.35,6.92,6.92,0,0,1,1.81,0l.27.05a3.16,3.16,0,0,1,1.69,3.45c-.51,1.35-2.62.5-5.81,2.07-.9.44-1.93.63-5,3.49a9.66,9.66,0,0,0-2.81,4,16,16,0,0,1-1,3.05c-.17.31-.25.32-.26.32s-.2,0-.19-.15a20.38,20.38,0,0,1,.45-3c.32-1.41.36-1.64.54-2.39"/><path class="cls-6" d="M167.82,422.55a12.25,12.25,0,0,0,3.46-2.24,10.09,10.09,0,0,0,2.29-2.59c.51-.73.57-1.64.89-1.63s.4.38.43.7c.07.69-.57,1.25-1.17,1.81-2.19,2.06-1.65,2.14-2.75,2.87a8.28,8.28,0,0,1-3.89,1.33s.3-.09.74-.25"/><path class="cls-5" d="M231.36,420.24c.69-4.41,1.71-8.33,1.53-12.79-.2-4.89-.07-10.21-2.7-19.59-3.16-11.31-7.76-19.18-11.47-25.43,0,0-5-8.46-21.07-26.42-.78-.87-.13-.07-3.86-3.36a5.31,5.31,0,0,0-2-1.15,3.54,3.54,0,0,0-1.5-.17c-1,.15-2.27,1.19-2.44,1s.77-1.15,1.25-1.51a2.81,2.81,0,0,1,2.38,0,8.69,8.69,0,0,1,2.23.93,20.17,20.17,0,0,1,3.54,2.71c1.82,1.77,2,2.37,4.09,4.66,1.31,1.45,1.51,1.51,3.17,3.23,0,0,2.26,2.34,4.77,5.36a110.57,110.57,0,0,1,8.95,12.7c1.25,2,2.46,3.9,3.94,6.55a96.17,96.17,0,0,1,7,15.19,75.5,75.5,0,0,1,4.1,16.83c.15,1.2.08.94.42,13.07a29.32,29.32,0,0,1-.33,4.24,11.29,11.29,0,0,1-1.27,3.88c-.13.23-.55,1-.73.92s0-.68,0-.86"/><path class="cls-2" d="M203.9,495a1.39,1.39,0,0,0-1-1.06,1,1,0,0,0-1,.13,2,2,0,0,0-.94,1.7,1.3,1.3,0,0,0,.71,1.22,2.32,2.32,0,0,0,1.28.27,1.15,1.15,0,0,0,1-1.12,2.39,2.39,0,0,0-.1-1.14"/><path class="cls-5" d="M175.1,511.74a1.36,1.36,0,0,0-.95-1.06,1,1,0,0,0-1,.12,2,2,0,0,0-.94,1.7,1.3,1.3,0,0,0,.72,1.22,2.17,2.17,0,0,0,1.27.27,1.15,1.15,0,0,0,1-1.12,2.5,2.5,0,0,0-.11-1.13"/><path class="cls-5" d="M147.61,530.62a1.39,1.39,0,0,0-1-1.07,1,1,0,0,0-1,.13,2,2,0,0,0-.94,1.7,1.3,1.3,0,0,0,.72,1.22,2.17,2.17,0,0,0,1.27.27,1.15,1.15,0,0,0,1-1.12,2.5,2.5,0,0,0-.11-1.13"/><path class="cls-5" d="M112.52,541.59a1.37,1.37,0,0,0-1-1.06,1,1,0,0,0-1,.13,2,2,0,0,0-.94,1.7,1.32,1.32,0,0,0,.72,1.22,2.39,2.39,0,0,0,1.28.27,1.16,1.16,0,0,0,1-1.13,2.51,2.51,0,0,0-.11-1.13"/></g></g></g><rect class="cls-9" x="0.5" y="0.5" width="882.1" height="689"/></g></g></svg>
