<svg xmlns="http://www.w3.org/2000/svg" viewBox="0 0 882.1 689"><defs><style>.cls-1{fill:#ecf0d9;}.cls-2{fill:#abc866;}.cls-3{fill:#153138;}.cls-4{fill:#d2dfb0;}.cls-5{fill:#bfd788;}</style></defs><g id="Layer_2" data-name="Layer 2"><g id="Layer_1-2" data-name="Layer 1"><rect class="cls-1" width="882.1" height="689"/><path class="cls-2" d="M453.64,38.18C503.11,78.9,589.73,166.76,639.23,207.44c41.83,34.38,67.55,59.78,109.4,94.14-14.38,14.38-11.59,16-26,30.35-63.76-51.5-66.11-61.41-136.55-125.69-34.51-31.49-105-95.15-131.82-130.76C418.55,117.22,345,196.21,289.79,237.88c-77.41,58.38-77.81,63.61-147,103.56-13.42-19.17-5.17-13.28-18.59-32.45,62.68-39.07,50.61-24.8,111.19-70.88C314.61,177.89,375.32,91.76,453.64,38.18Z"/><path class="cls-2" d="M455.22,89.86c19.83,26,54.7,56.9,81,81.07,71.89,65.94,104.25,96.32,157,144.22,1.92,82.9,4.51,176,6.42,258.85a2457.06,2457.06,0,0,0-293.32-13.26c-78.48,1.15-152.47,6-221.43,13.26,2.88-86.22,5.53-165.75,8.41-252C283.63,261.73,374.16,179.39,455.22,89.86Z"/><path class="cls-3" d="M196.75,468.53c-1.84-11.75-6.63-15.5-8.13-16.55-9.09-6.33-22.65-.67-27.14,1.2-25.44,10.61-42.27,41.49-45,70.87-2.55,27.58,7.38,53.22,10.22,52.91,1.67-.18,2.06-9.45,2.45-18.61.77-18.13-1.66-21.61-.33-30.64,2.18-14.84,12.55-31.15,20.62-30.49,10.68.87,9.84,30.76,20.62,32.3C182,531.24,201.19,496.92,196.75,468.53Z"/><path class="cls-4" d="M174.39,521.19c6.52-1.64,8.13-13.59,8.29-14.8,1.33-9.94-2.32-24.67-13.78-29.18-8.81-3.47-17.52,1-20.63,2.54-10.07,5.12-14.31,14.2-16.5,19.07-6.42,14.29-3.48,30.32-3,28.89s1.82-15.19,12.43-22.85c3.68-2.66,9.44-6.08,13-3.62,2.21,1.52,3.1,5.2,4.59,9.2C161.3,517,168.92,522.56,174.39,521.19Z"/><path class="cls-3" d="M178.2,475.73c-1.23,5.08-12.86,2.76-18.74,11.09-2.92,4.14-3,8.81-4.12,8.7s-2-4.23-1.74-7.83c.73-10.59,11.78-21.88,19-19.79C175.87,468.86,178.89,472.83,178.2,475.73Z"/><path class="cls-3" d="M133.63,485.53c2,6,5.89,11.56,7.5,14.35,1.1,1.92-6.66-1-10.4-8.18C129.55,489.43,133.06,483.81,133.63,485.53Z"/><path class="cls-1" d="M145.24,489.2c1.79,1.43,3.93,6.32,3.49,8.18-.07.31-.16.65-.54.53-1.22-.42-5.11-5.77-5-8.07C143.22,488.76,144.16,488.34,145.24,489.2Z"/><path class="cls-1" d="M133.06,501.06c1.46-.2,4.19,1.72,4.52,3.27,0,.25.11.54-.14.7-.83.52-4.69-.56-5.35-2.19A1.27,1.27,0,0,1,133.06,501.06Z"/><path class="cls-5" d="M180.19,483.85c8.09,1.17,38.59,5.77,64.41,14.78,1,.35,9.26,3.92,25.77,11.05,10.95,4.73,38.41,14.91,38.39,17.68,0,4.08-28.44-1.1-34.95.13-10.29,2-17.73-.44-25.2,0-7.93.51-6.43,9.61-22.84,24.42-20.18,18.21-28.78,19.3-39.71,35.34-5.27,7.73-11.27,12.77-14.85,34.4-2.06,12.48-2.33,16.19-9.72,8.48-1.79-1.87-8.38-19.34,4-61.5"/><path class="cls-3" d="M184.81,502.71s36,13.57,47.52,17.45c9.53,3.21,6.08,13.38,3,16.94s-11.12,11-18.46,6.84S184.81,502.71,184.81,502.71Z"/><path class="cls-4" d="M201.75,519.1c-1.74-2.85.29-6.07,3.32-5.26,6.72,1.8,16.19,4.5,21,6.62,7.89,3.49,6.31,12.29,4.34,15s-7.43,8.23-13.66,3.79C212.77,536.45,206.11,526.23,201.75,519.1Z"/><path class="cls-3" d="M182.66,491.2a1.9,1.9,0,0,1,2.23-1.67c6.49,1.19,28.89,5.33,40.11,7.55,13.89,2.75,48.87,16.37,56.47,21.71s-22.56,6.38-29.43,5.44c-5.31-.73-54.61-20.28-63.24-23.82C183,498,182.41,493.72,182.66,491.2Z"/><path class="cls-4" d="M198.27,496a1.29,1.29,0,0,1,1.52-1.14c4.43.81,19.72,3.64,27.38,5.15,9.48,1.88,33.36,11.18,38.55,14.82s-15.4,4.36-20.09,3.72c-3.63-.5-37.28-13.85-43.17-16.26C198.47,500.64,198.09,497.71,198.27,496Z"/><path class="cls-3" d="M183,508.07c8.17,14.74,15.89,23.58,21.76,29.09,2.22,2.07,6.16,5.54,6.71,10.81.66,6.32-3.93,11.75-6.49,14.76-2.26,2.68-8.07,9.53-11.58,8.14-4.39-1.73-.9-14.59-2.5-32A101.34,101.34,0,0,0,183,508.07Z"/><path class="cls-4" d="M194.67,536.4a1.68,1.68,0,0,1,3-1.36,60.76,60.76,0,0,0,6.85,7.68c1.39,1.3,3.87,3.48,4.22,6.79.41,4-2.48,7.39-4.08,9.28-1.42,1.68-5.07,6-7.28,5.11-2.76-1.08-.57-9.17-1.57-20.08A61.68,61.68,0,0,0,194.67,536.4Z"/><path class="cls-3" d="M180.74,514.39c1.22-.07,3.33,10.85,4,21.55,1.48,22.83,3.44,28.34-.51,41-1,3.14-15.61,34.07-18.12,26.3-.72-2.23.12-11.46,1.48-17.18,4.94-20.73,7-20.12,10.52-39.47C181.52,527.85,179.4,514.46,180.74,514.39Z"/><path class="cls-4" d="M180.49,550.63c.7,0,1.18,1.19,1.38,3.67,1,13.06,2,16.24-.3,23.5-.56,1.8-8.95,19.52-10.38,15.07-.42-1.28.07-6.57.85-9.85,2.82-11.88,4-11.53,6-22.62C180,549.66,179.72,550.67,180.49,550.63Z"/><path class="cls-5" d="M178.68,481.72c.83-9.19,3.71-43.89.73-75.87-.12-1.25-1.8-11.83-5.16-33-2.23-14-5.33-24.55-8.27-25.93-4.35-2.05-6.78,6.92-9.75,13.2-4.69,9.92-4,19-6.47,26.7-2.56,8.15-11.84,1.93-31.71,11.78-24.46,12.13-27.81,20.69-47.61,24.11-9.55,1.64-16.43,5.45-40.28-1.79-13.76-4.18-17.77-5.78-11.48,6,1.53,2.86,18.4,18.76,66.27,27.16"/><path class="cls-3" d="M159.86,467.2s-5.23-45.13-6.41-59.32c-1-11.75-12.65-13.27-17.2-11.86s-14.49,6.19-12,16.1S159.86,467.2,159.86,467.2Z"/><path class="cls-4" d="M146.78,440.86c2.58,3.3,6.52,2.79,6.43-.83-.2-8.06-.66-19.47-1.68-25.62-1.69-10.15-11.44-13-14.83-12.26s-10.63,3.68-7.5,12.56C131.18,420.32,140.33,432.6,146.78,440.86Z"/><path class="cls-3" d="M171.52,475.34a1.65,1.65,0,0,0,2.34-1.51c.39-7.5,1.7-33.37,2.2-46.4.63-16.13-4.92-60.2-8.65-71s-12.51,20.68-13.26,28.44c-.58,6,7.61,68.28,9.16,79.24C164.36,471.56,168.78,474.33,171.52,475.34Z"/><path class="cls-4" d="M170.41,456.34a1.13,1.13,0,0,0,1.6-1c.27-5.12,1.16-22.78,1.51-31.68.42-11-3.36-41.09-5.91-48.45s-8.54,14.12-9.05,19.42c-.4,4.1,5.19,46.61,6.25,54.09C165.53,453.76,168.54,455.65,170.41,456.34Z"/><path class="cls-3" d="M153.69,466.43c-13.55-16.18-21-28.87-25.31-37.92-1.64-3.41-4.31-9.36-9.76-12.63-6.54-3.92-13.47-1.82-17.32-.65-3.41,1-12.16,3.7-11.58,8.14.72,5.54,15.25,8.41,33.28,18.95A149.22,149.22,0,0,1,153.69,466.43Z"/><path class="cls-4" d="M126.63,439.56c1.76,1.29,3.44-.62,2.2-2.49a92.75,92.75,0,0,1-6.4-11.18c-1-2.14-2.71-5.88-6.14-7.94-4.1-2.46-8.46-1.14-10.87-.4-2.15.65-7.65,2.32-7.28,5.11.45,3.48,9.58,5.28,20.91,11.91A87.35,87.35,0,0,1,126.63,439.56Z"/><path class="cls-3" d="M146.43,465.55c.39-1.25-10.67-9.06-21.84-15.26C100.75,437.09,95.4,432.2,81,429.93c-3.58-.56-40.12-.81-32.52,5.82,2.19,1.89,12.19,5.71,18.61,7.18,23.24,5.34,23.13,2.82,44.54,9C132.35,457.86,146,466.94,146.43,465.55Z"/><path class="cls-4" d="M107.92,447.34c.22-.72-1-1.86-3.54-3.33-13.6-7.78-16.73-10.38-25-11.67-2.06-.33-23-.47-18.64,3.33,1.25,1.09,7,3.27,10.66,4.12,13.33,3.06,13.26,1.61,25.54,5.14C108.83,448.34,107.68,448.13,107.92,447.34Z"/><path class="cls-3" d="M160.82,503.52c-4,9.52-4.57,14.81,5.07,24.72,6.66,6.85,20.69,1.19,30.85-1.37,3.41-.87,7-3.8,10.57-7.85l.69-.79a122.35,122.35,0,0,0,9.39-13l1.46-2.29c2.89-4.59,5.62-9.22,8.1-13.26,6.77-11-.9-12-7-18.82-2.86-3.2-7.58-4.21-11.77-4.39a24.49,24.49,0,0,0-12.86,3.09,20.7,20.7,0,0,1-13.08,2.86C175.1,471.9,164.82,494,160.82,503.52Z"/><path class="cls-2" d="M201.85,513c7.5-8.62,17.79-16.5,20.54-23.17.26-.64,2.66-6.67-.62-8.91-2.24-1.53-5.22,0-6.56-1.79s1.36-4.64,0-7.18c-.84-1.59-2.75-2-4.43-2.41-7-1.54-26.54,12.9-25.66,10.18,1.7-5.25-8.33-7.85-8.8,2.76-.26,5.83-15.56,18.69-12.85,30.12,4.68,19.75,28.33,12.74,32.66,11.34,3.81-1.22,4.28-1.38,9.78-6.56C210.93,512.66,200.11,515,201.85,513Z"/><path class="cls-4" d="M213.49,482.8a9.46,9.46,0,0,1,5.45-.65,3.35,3.35,0,0,1,2.73,3.69c-.77,5.18-3.44,9.19-5.07,10.37-.29.22-1.24,1.41.19-2.95.9-2.76,1.61-5.24.36-6.46C215.57,485.23,210.71,484.25,213.49,482.8Z"/><path class="cls-4" d="M209.91,479.26c-.65,3.87,1.83,1.05,3-1.54.2-.45,3.83-6.62-3.2-6.67a18,18,0,0,0-9.34,2.5c-1.35.94.39.07,4.39.33,2.76.18,3.41-.15,4.37,1.19A4.82,4.82,0,0,1,209.91,479.26Z"/><path class="cls-3" d="M204.05,516.59c.26,2.28-12.51,6.46-22.5,5.46-4.54-.45-8.32-.82-11-3.82-3.66-4.07-3.83-11.24-1.68-16,2-4.49,7.8-10.61,8.56-13.28.39-1.38.75-2.92.75-2.92.15-.62.27-1.16.36-1.55.56-2.55.26-3.67.94-4.91.9-1.65,2.1-.88,2.84-.35,1.92,1.39-1.59,2.66-1.19,9.7.51,8.8,7.25,22.33,14.86,26C199.17,516.45,203.94,515.57,204.05,516.59Z"/><path class="cls-3" d="M216.58,477.4c1.8.73,10.88-5,14.69-11,5.28-8.29,7.42-13.8,9.31-25.09,2.51-15,3-11.42,1.29-24.79-.3-2.26,1.32-5.81-1.14-7.38-2.62-1.67-8.81-1.09-12.52,2.21-2.43,2.17-3.87,5.57-2.37,7.3,1.94,2.22,7.14-.19,10.51,1.94,2.3,1.43,3.21,7,3,10.62-.54,11.66-2.61,14.36-3.21,16.77-2.56,10.31-7.58,19.68-12.16,22.83-3.91,2.7-7.1.75-7.27,3.62C216.69,475.36,215.76,477.07,216.58,477.4Z"/><path class="cls-4" d="M228.37,415.43c-.53-1.35,2.17-3.48,2.46-3.7,3.07-2.38,7.89-2.69,8.83-1.06.62,1.08-.48,2.86-1.24,3.72C235.51,417.69,229.08,417.22,228.37,415.43Z"/><path class="cls-3" d="M223.32,478.23c1.89-3.69,38.83,15.37,52.52,12.73,1.08-.21,5.47-1.22,8,1.09a5.34,5.34,0,0,1,1.61,3.76c0,3.77-4.32,7.21-7.38,6.73-2.6-.41-2.6-3.39-6.89-6.5-1-.74-2.32-1.51-6.15-2.89-5.37-1.93-8.58-2.48-13.72-3.76-14.51-3.6-10.58-2.79-19-5.46-1.54-.49-5.85-.31-6.62-2C225.17,480.78,222.85,479.14,223.32,478.23Z"/><path class="cls-4" d="M280.75,492.46A4.23,4.23,0,0,1,283.8,496c.34,2.76-2.63,4.24-3.06,4.45-.62.3-2.11,1-3.28.3-1.55-.93-1.73-3.85-.81-5.74C276.72,494.92,278.22,491.94,280.75,492.46Z"/><path class="cls-1" d="M167.74,402.44c-1.68,1.34-4.62,1.64-6.14.22-1-.92-1-2.31-1.13-5.08s.13-4.14.82-5.37c1.18-2.12,3.4-5,5.2-3.73C169.59,390.63,170.65,400.14,167.74,402.44Z"/><path class="cls-1" d="M146.42,407.73c2,2,3.11,5.42,1.94,7.21-.77,1.16-3.53,4.7-6.62,4.84-3.25.14-5.46-1.45-7-2.25-2.7-1.38-4.64-6.14-3.65-8.23C134.28,402.49,143,404.33,146.42,407.73Z"/><path class="cls-3" d="M169.24,452.68c1,0-1.43-17.79-1.13-43.31,0-3.8.22-13.3-2.66-14.38a1.89,1.89,0,0,0-2,.4c-1.15,1.3.8,4.77,1.71,6.92,2.36,5.57-.31,23.56.41,28.91C167.69,446.93,168.18,452.63,169.24,452.68Z"/><path class="cls-1" d="M253.3,513.07c.42,2.11-6.34,2.55-8.3,3.25-1.26.45-2.52-.14-5-1.32s-3.62-2-4.4-3.2c-1.33-2,.45-3.23,2.39-4.26C241.29,505.77,252.59,509.43,253.3,513.07Z"/><path class="cls-1" d="M226.74,537.19c-1.9,2-5.31,3.31-7.15,2.19-1.18-.72-4.82-3.36-5.06-6.44-.26-3.24,1.25-5.51,2-7.11,1.27-2.76,6-4.85,8.08-3.94C231.54,524.88,230,533.68,226.74,537.19Z"/><path class="cls-3" d="M150.48,440.09c.53-.09-3.13-9.33-6.37-23-.49-2-1.66-7.13-3.34-7.36a7,7,0,0,0-2.61,1.43c-.45.84.13,2.85.9,3.89,2,2.69,5.52,11.24,6.62,14C148.9,437.21,149.92,440.2,150.48,440.09Z"/><path class="cls-3" d="M126.08,436.43c.28-.23-4.48-4.76-10.25-12.18-.86-1.11-3-3.89-4-3.47a5.36,5.36,0,0,0-1.13,1.77,3.2,3.2,0,0,0,1.64,2.12c1.93,1,6.42,5.15,7.85,6.51C124.33,435.17,125.77,436.69,126.08,436.43Z"/><path class="cls-3" d="M90.33,440.5c.06-.31-5.16-1.5-12.44-4.41-1.08-.43-3.79-1.53-4.25-.72a5.25,5.25,0,0,0,.13,1.88,2.59,2.59,0,0,0,2.07.83c1.72-.15,6.59.88,8.16,1.24C88.6,440.37,90.26,440.84,90.33,440.5Z"/><path class="cls-3" d="M218.85,502.91l-1.46,2.29c4.73,1.67,19.74,3.29,23.31,6.32,1.43,1.21,3.56,3.57,5.09,2.89a2.05,2.05,0,0,0,1.08-1.54c.21-2.62-7.72-4.51-10.88-5.28C229.54,506,223.76,504.39,218.85,502.91Z"/><path class="cls-3" d="M208,518.23l-.69.79c1,.8,2.25,1.77,3.73,3,1.88,1.5,7.61,6.24,9.07,8.46A3.59,3.59,0,0,0,223,532a8.5,8.5,0,0,0,2.18-1.86c.46-1.45-3.31-3.51-4.81-4.34C215.08,522.91,210.86,520.14,208,518.23Z"/><path class="cls-3" d="M197.41,536.65c.31-.18,2.23,4.73,6.16,11.09.59.94,2.07,3.3,1.32,4.08a5.85,5.85,0,0,1-1.9.56c-.57-.12-1.1-1.1-1.13-1.8-.09-1.82-1.8-6.42-2.38-7.89C197.79,538.37,197.09,536.85,197.41,536.65Z"/><path class="cls-3" d="M180.31,565.4c.28,0-.74,4.59-1.13,11.24-.05,1-.18,3.46-1,3.68a4.52,4.52,0,0,1-1.5-.51,2.11,2.11,0,0,1,.1-1.9c.79-1.39,1.81-5.64,2.12-7C179.76,566.86,180,565.39,180.31,565.4Z"/><path class="cls-3" d="M160.48,518.08c-.48,1.63-4.81-2.82-10.77-2.88-.78,0-6.3,0-6.63,3.86-.15,1.73.31,3-.19,4.07s-1.56,1-2.66,0c-2.73-2.52-4.15-8.9-2.68-10.53,1.87-2.07,1.78,2.56,3.75,3,1.77.4,2.53-1.66,4.06-3.3,3.54-3.81,9.55-3.54,13,1C159.56,514.81,160.75,517.15,160.48,518.08Z"/><path class="cls-3" d="M165.18,522.5c-1.39.07.24,5-2,10.47-.29.7-2.46,5.73-5.45,5.16-1.35-.25-2.13-1-3.12-.75s-1.36,1.2-1,2.43c.82,3.06,5,5.79,6.81,4.82,2.27-1.24-1.22-2.2-.79-4.1.39-1.7,2.22-1.93,4-2.95,4.22-2.37,6.36-7.91,4.34-12.12C167.27,524.08,166,522.47,165.18,522.5Z"/><path class="cls-3" d="M159.71,492.67a4.28,4.28,0,0,1-.94,4.67,4.15,4.15,0,0,1-5.48-.37c-1.93-2.14-.32-6.77,2.1-7.3C157,489.32,159,490.79,159.71,492.67Z"/><path class="cls-3" d="M143.52,498.26a4.28,4.28,0,0,1-.94,4.67,4.15,4.15,0,0,1-5.48-.36c-1.93-2.15-.32-6.78,2.11-7.3C140.82,494.92,142.82,496.38,143.52,498.26Z"/><path class="cls-1" d="M207.26,482.23c-1.25-2.54-4.36-4.68-7.45-3.68s-4.6,4.87-3.78,7.74c1.12,3.95,6.46,6.14,9.57,4.12C208,488.84,208.64,485,207.26,482.23Z"/><path class="cls-1" d="M215.51,488c-1.25-2.53-4.37-4.67-7.46-3.68s-4.59,4.88-3.78,7.74c1.12,4,6.46,6.15,9.57,4.13C216.25,494.66,216.88,490.85,215.51,488Z"/><path class="cls-3" d="M214.15,492.12a2,2,0,1,0-3.83,1.38,2.36,2.36,0,0,0,3.26,1.41A2.25,2.25,0,0,0,214.15,492.12Z"/><path class="cls-3" d="M206.38,486.84a2.23,2.23,0,0,0-2.54-1.26,2.19,2.19,0,0,0-1.29,2.64,2.36,2.36,0,0,0,3.26,1.41A2.26,2.26,0,0,0,206.38,486.84Z"/></g></g></svg>
