<svg xmlns="http://www.w3.org/2000/svg" viewBox="0 0 882.1 689"><defs><style>.cls-1{fill:#ecf0d9;}.cls-2{fill:#62b8d6;}.cls-3{fill:#153138;}.cls-4{fill:#98a3a8;}.cls-5{fill:#2c4149;}.cls-6{fill:#a3d4e4;}</style></defs><g id="Layer_2" data-name="Layer 2"><g id="Layer_1-2" data-name="Layer 1"><rect class="cls-1" width="882.1" height="689"/><path class="cls-2" d="M633.11,150.66a1966.48,1966.48,0,0,1,25.4,285.44c.67,42.51-.07,83.63-2,123.26a1714.49,1714.49,0,0,0-422,6.49l-35.17-29.19q-2-189.76-3.91-379.51c61.29-11.93,134.27-27.71,202.8-46.62,18.29-5,34.21-9.75,35.57-10.15,18.95-5.6,67.52-20.3,129.48-43.26l1.42-.53,3.21,11.29a2046.64,2046.64,0,0,1-198.58,57.87C310,139.86,253.81,150.44,201.91,158.4l21,11.6c78.89-7.55,162.73-13.34,251.07-16.54Q556.2,150.48,633.11,150.66Z"/><path class="cls-2" d="M617.19,143.68c-36.55.11-100-3.45-167.22.29-123.16,6.84-213.44,19.38-214,16.36-.5-2.57,65.44-10.77,146.44-29.22A1512.65,1512.65,0,0,0,580.92,71.5l-1.41,16.37c3.39-.11,17.38-1.72,20.78-1.82-.13,3.07-1.29,7.65-1.42,10.72h0l-1.53,8.89,12-.62c-.76,3.6-1.72,7.5-2.48,11.09h0l-1.53,8.26c3.47-.75,14.61-1.12,14.41-.13-.31,1.58-1.42,5.45-2.34,9.71C616.82,136.94,617.26,142.13,617.19,143.68Z"/><path class="cls-3" d="M628.9,460.09c.77,1.89-4.78,5.33-10.95,10.53-3.06,2.58-18.28,15.43-16.2,19.85,2.27,4.85,23.54-4.13,26.74,1.62,2.34,4.22-5.42,15.59-14.59,21.89-4.38,3-8.37,4.36-8.1,6.07.39,2.36,8.45,2.93,13.37,3.24,17.27,1.12,24.76-2.34,26.34.41,2.3,4-13.14,12.27-16.21,30-.39,2.25-1.82,10.49,1.62,12.56,5.94,3.56,21.45-14.21,24.32-11.75,1.65,1.41-3,7.73-4.86,20.26-.62,4.21-1.54,10.58.48,11.48a1,1,0,0,0,.49.11c4.15,0,13-19.89,21.36-18.51,7.79,1.28,9,20.13,13.75,20.13h0c5.6-.18,6.92-26.55,13.23-27,5.79-.45,9.59,21.29,14.77,21.29h.19c4.1-.4,8.15-14.49,5.75-27.6-2-10.93-7.87-17.8-6.33-19,1.93-1.48,12,8.51,12.66,9.21,12,12,14.46,20.82,17.25,20.13,3.37-.83,5.09-15,.58-28.19C739.78,522.62,730,515.89,732,513.19c1.76-2.4,9.66,2.79,24.72,4.61,1.76.21,3.53.37,5.26.47a5.53,5.53,0,0,0,5.82-5.53h0a5.51,5.51,0,0,0-2.4-4.56,43.92,43.92,0,0,1-8.1-7.07c-1.23-1.39-8.71-9.74-6.33-13.8.72-1.21,2.35-2.11,8.64-2.3.91,0,1.8,0,2.65,0,3.06,0,19.07-1.09,22-4.68l1.12-1.62c2.42-3.73-15.43-6.38-19.57-7.46-2.36-.62-6-1.29-8.5-1.75-4.64-.82-8.54-.41-9.78-2.87-1.51-3,1.62-9.1,6.33-11.5,3.89-2,6.76.11,10.84,1.41,1.73.55,9.79.88,19.94-2.64l16.28-6a2.92,2.92,0,0,1,.42-.13c16.91-4.74,6.84-6.38,4-7.22-14.32-4.26-39.69-11.75-40-12.42-.84-1.88,4.72-6.86,7.33-10.43a2.88,2.88,0,0,1,.27-.34l10.51-12c3.65-4,3.86-8.4,1.71-9.63-5.69-3.24-20.7,1.26-22.13,1.88-10,4.32-15.8,11.58-17.25,10.35-2-1.71,10-15.13,6.33-20.13-2.54-3.43-12.09-2.33-18.41,1.73-4.71,3-6.25,6.83-7.48,6.33-2.93-1.21,5.69-23.18,1.73-25.31-2.77-1.5-10.57,7.29-15,13.23-8.79,11.89-11.77,23-12.35,22.81-1.24-.38,14.79-51.79,10.54-53.49-2.91-1.15-12.49,21.89-19,20.27s-3.52-26.59-8.55-27.43c-4.11-.68-10.28,15.2-12.93,25.81-2.12,8.49-4,16.08-1.62,25.12s7.81,14.36,6.08,16.21c-1.55,1.66-6.46-2-14.18-4.05-8.83-2.34-14.44-.72-23.1,0-24.17,2-38.5-5.77-40.11-2-2.11,4.88,22.06,18.8,19.86,23.1-1.54,3-13.79-2.54-17,2-3,4.2,4,13.66,5.26,15.41,1.76,2.39,7.1,9.63,15.81,11.33C625.69,459.67,628.38,458.83,628.9,460.09Z"/><path class="cls-4" d="M685.22,545.38c-6.86-.89-7.42-10.81-18.83-33-15.77-30.62-26-33.63-25.88-49.42.11-11.87,6.08-29.2,20-32.94s30.15,7.3,33,17.65c.7,2.6,1.06,7.06,2,7.06s1.31-4.13,2.09-6.82c2.76-9.44,14.82-18,24.25-17.27,13.22,1,23.47,20.44,22.77,36.24-.53,12.23-7.3,15.24-30.5,46.15C695.83,537.33,691.92,546.24,685.22,545.38Z"/><path class="cls-1" d="M693.69,448.82c-2-3.14-8.21-4.21-12.87-1.65A10.94,10.94,0,0,0,675.21,458c.54,4.31,3.73,8.54,7.26,8.89C689.18,467.59,697.27,454.31,693.69,448.82Z"/><path class="cls-1" d="M705.65,452.73c-2-3.14-8.22-4.21-12.88-1.65a10.92,10.92,0,0,0-3,2.44,11.31,11.31,0,0,0-2.6,8.42c.53,4.28,3.79,8.54,7.26,8.89C701.13,471.5,709.23,458.22,705.65,452.73Z"/><path class="cls-3" d="M682.35,448a4.41,4.41,0,0,0-2.88,2.39,4.11,4.11,0,0,0,1.44,5,4.21,4.21,0,0,0,5.28-1.2c1.38-1.71,1.31-4.49-.24-5.74A4.11,4.11,0,0,0,682.35,448Z"/><path class="cls-5" d="M670.15,481.64c1.49-.65,6.34,4.41,12.36,5.36,7.45,1.17,14-9.25,15.91-7.81,1,.75-.28,3.91-2.7,9.91-3.69,9.13-5.8,10.52-6.91,11.1a10.4,10.4,0,0,1-6.9.91C672.64,498.67,667.91,482.6,670.15,481.64Z"/><path class="cls-6" d="M651.13,490c-2.59,3.05-3.71,14.6-5.86,19.89-3.44,8.45-29.79,21.33-47.4,21.74-6.8.16-12.25-5.91-16.26-3.1-3,2.11-3.45,6.93-2.6,10.18,1.75,6.65,10,10.41,15.76,9.18,4.42-.95,4.75-4.25,10.66-7.38,5.33-2.83,10-2.77,13.56-3,13-1,29.59-7.66,39-18.89,1.26-1.5,8-12.19,7-20.17C664,490,654.57,486,651.13,490Z"/><path class="cls-6" d="M711.91,508.51h0c0,.31,0,.63.06.93a12.75,12.75,0,0,0,.71,3.13c2,5.11,7.25,7.14,13.28,15.35a68.71,68.71,0,0,1,8.85,17.88c2.2,6.84,3.47,15,1.64,23.09-.1.4-.19.79-.28,1.16a34.09,34.09,0,0,1-3.73,8.76c-2.48,4.34,0,11.49,6.07,12.16l7.18,1.17c5.34.77,7-2.67,6.76-4.26-.71-4.64-3.7-7.48-3.05-12.63s2.28-11.22,3.13-18.54a71.74,71.74,0,0,0,.41-12.8c-.08-1.15-.17-2.27-.3-3.35-2-18-11.22-29.5-21.68-42.62a26.66,26.66,0,0,0-3.71-3.95h0a7.46,7.46,0,0,0-5.27-2c-2.76.23-5.42,2.59-7.32,5.86A20.3,20.3,0,0,0,711.91,508.51Z"/><path class="cls-6" d="M696,429.51c1.44,1.15,5.47-5.85,14.48-8.49a27.55,27.55,0,0,1,9.16-1,30.68,30.68,0,0,1,19.83,8.5c4.61,4.69,4.3,8.22,6.44,11.4a10.71,10.71,0,0,0,2.55,2.6c4.47,3.31,10.38,3.74,16,4.1,3.65.24,25.84-.77,25.84-2.84h0c0-2.6-23.16-5.78-24.65-6.46a10.67,10.67,0,0,1-3.64-2.69c-3.36-3.86-3.66-10.06-2.42-14.52,1.77-6.36,6.75-9.51,6.75-11a.56.56,0,0,0-.09-.31c-.9-1.32-6.37,2.3-15.54,3-4.67.37-9.38.75-11.3-1.82-3.24-4.32,4.15-13.42,1.82-15.33-.65-.53-1.89-.35-11.1,4.24-6.07,3-8,4.19-9.4,4a2.18,2.18,0,0,1-.69-.2c-3.78-1.72-1.85-10.76-4-11.29-1.9-.47-4.86,6-8.87,14.11C698.77,422.32,694.6,428.41,696,429.51Z"/><path class="cls-6" d="M680,422.77c-.36,1.13-7.51-2-17.6-.42-3.78.59-10.19,1.6-15.5,6.29-5.94,5.22-4.41,9.65-10.48,13.4a18.79,18.79,0,0,1-11.73,2.52c-6.06-.66-11.27-4.28-10.9-5.45.51-1.58,10.69,3.37,18-1.67,2.78-1.92,5.79-5.71,5.45-9.64-.72-8.26-15.8-12.08-15.09-14.25.51-1.54,8,.68,20.12,1.26,12.38.59,15.16-1.22,23.46.83S680.34,421.67,680,422.77Z"/><path class="cls-6" d="M717.29,442c3.53.72,5.67,3.21,7.54,5.45,1.25,1.5,10.5,12.92,6.28,23.89a13.63,13.63,0,0,1-6.28,7.54c-1.59.8-5.17,2.13-6.29.84-1.77-2.05,5.56-7.31,5.87-15.92.22-6-3-12.62-8-15.51-4.71-2.74-9.42-1.22-9.64-2.51S712.06,441,717.29,442Z"/><path class="cls-3" d="M694.09,452.49a4.44,4.44,0,0,0-2.89,2.39,4.12,4.12,0,0,0,1.45,5,4.21,4.21,0,0,0,5.28-1.2c1.37-1.71,1.3-4.49-.24-5.75A4.14,4.14,0,0,0,694.09,452.49Z"/><path class="cls-6" d="M698.91,550.11c-3.48-.92-12.41,6.46-12.61,6.7-7.95,9.06-2.24,33.37,9.05,49.2,2.22,3.11,7.12,9.35,5.12,12.6-1.66,2.69-6.68,1.13-8.66,4.33-1.59,2.57-.51,7.07,2,9,5.19,4.16,19-.85,21.65-8.66,2.13-6.2-4.12-10.09-9.84-22C694.09,577.3,706.34,552.09,698.91,550.11Z"/><path class="cls-6" d="M672.12,548.93c1.24,3.74-4.49,6.15-9.84,14.57-7.39,11.63-11.38,30.52-5.11,44.87,3.13,7.19,7.59,10.38,6.29,16.14-1.14,5.07-5.91,8.5-9.84,9.84-8.71,3-19.18-2.3-19.29-6.29-.08-3.06,6-3.12,9.85-9.06,2.9-4.44,2.45-8.93,1.57-19.29-1.35-15.92-2-23.89-2-26.76.23-10.91.47-22.47,7.88-27.17C658.69,541.32,670.53,544.1,672.12,548.93Z"/></g></g></svg>
