<svg xmlns="http://www.w3.org/2000/svg" xmlns:xlink="http://www.w3.org/1999/xlink" viewBox="0 0 151.91 91.48"><defs><style>.cls-1{fill:none;}.cls-2{clip-path:url(#clip-path);}.cls-3{fill:#d56d59;}.cls-4{fill:#fff;}.cls-5{fill:#28434d;}.cls-6{fill:#dadddf;}.cls-7{fill:#cb4a2f;}</style><clipPath id="clip-path" transform="translate(0 0)"><rect class="cls-1" width="151.91" height="91.48"/></clipPath></defs><g id="Layer_2" data-name="Layer 2"><g id="Layer_1-2" data-name="Layer 1"><g id="alphabet_stretch" data-name="alphabet stretch"><g class="cls-2"><g class="cls-2"><path class="cls-3" d="M121.73,89.76c18.47-9.4,13.45-11.88,19-16.44,10.63-8.75,13.65-27.57,9.19-41.35C142.21,8.15,110.06-7,84.46,3.26c-25,10-37.53,41.69-28.72,60.87C61.52,76.7,77.79,86.8,85.6,82.51c5.24-2.88,7.46-12.67,4.6-19.53-3.58-8.56-12.88-7.27-16.08-14.93C70.71,39.89,76.74,27.6,85.6,21.64,97,14,113.24,16.52,122.36,26.23c.83.88,10.21,11.21,6.89,24.12-2.87,11.14-14,19.51-22.39,18.94-2.52-.17-5.25-1.17-6.42.26-1.36,1.67.08,5.88,2.83,8,2.94,2.21,6.7,1.44,7.27,1.32,3.47-.77,5.11-3.25,6.06-2.6.72.49.78,2.59-.26,3.84-2.49,3-9.08-1.59-13.07,1.54-2.5,2-3.24,6.34-1.8,7.69,1.72,1.62,13.83,3.75,20.26.47" transform="translate(0 0)"/><path class="cls-4" d="M88.89,72.86a2.16,2.16,0,0,0-2.34-1,2.34,2.34,0,0,0-1.89,2.7A2.19,2.19,0,0,0,87.32,76a2.33,2.33,0,0,0,1.57-3.13" transform="translate(0 0)"/><path class="cls-4" d="M85.6,75.43a2.18,2.18,0,0,0-2.34-1,2.35,2.35,0,0,0-1.89,2.71A2.19,2.19,0,0,0,84,78.56a2.33,2.33,0,0,0,1.57-3.13" transform="translate(0 0)"/><path class="cls-5" d="M88.73,72.63A1.17,1.17,0,0,0,87.52,72,1.15,1.15,0,1,0,88,74.3a1.21,1.21,0,0,0,.74-1.67" transform="translate(0 0)"/><path class="cls-5" d="M85.48,75.12a1.13,1.13,0,0,0-1.2-.58A1.17,1.17,0,0,0,83.37,76a1.19,1.19,0,0,0,1.37.82,1.22,1.22,0,0,0,.74-1.68" transform="translate(0 0)"/><path class="cls-5" d="M85.27,81.2c-.67-.76-2.29-.78-3.4-.18-.6.32-.72.65-1.1.6-.78-.1-1-1.62-1.52-1.57-.27,0-.45.45-.5.71-.15.8.7,1.44.81,1.52a2.33,2.33,0,0,0,2.13.35c.75-.28.9-.92,1.41-.86s.42.45,1,.66,1.27.13,1.46-.25a1,1,0,0,0-.26-1" transform="translate(0 0)"/><path class="cls-3" d="M12.33,38.91c2.94-2.28,8.35-.86,10.84,2.14,1.35,1.62,1.94,5.07,3.06,11.92.87,5.34.78,6.51,1.94,7.94,2.2,2.72,4.87,1.46,8.06,3.37,4.31,2.57,7,9.37,6.12,14.06-1.72,9.08-17.73,14.83-29.19,9.78C6.06,85-.93,77,.1,70.39c.74-4.66,2-4.43,5.26-10.81,4.76-9.32,2.68-17.35,7-20.67" transform="translate(0 0)"/><path class="cls-5" d="M23.85,58.1c-2,1.76-5.2.57-5.73.37-3.25-1.22-4.55-4.39-5.18-5.92C11.9,50,11.67,47.2,12.2,47S13,48.63,15,50.15A8.83,8.83,0,0,0,21.26,52c1.76-.27,2.23-1.1,3-.74,1.41.7,1.81,4.94-.37,6.84" transform="translate(0 0)"/><path class="cls-4" d="M23,40a2.18,2.18,0,0,0-2.34-1,2.33,2.33,0,0,0-1.89,2.7,2.17,2.17,0,0,0,2.66,1.42A2.33,2.33,0,0,0,23,40" transform="translate(0 0)"/><path class="cls-4" d="M19.75,42.54a2.17,2.17,0,0,0-2.34-1,2.33,2.33,0,0,0-1.89,2.7,2.19,2.19,0,0,0,2.66,1.42,2.33,2.33,0,0,0,1.57-3.13" transform="translate(0 0)"/><path class="cls-5" d="M22.88,39.74a1.17,1.17,0,0,0-1.21-.59,1.16,1.16,0,1,0,.47,2.27,1.22,1.22,0,0,0,.74-1.68" transform="translate(0 0)"/><path class="cls-5" d="M19.63,42.24a1.14,1.14,0,0,0-1.2-.59,1.15,1.15,0,1,0,.46,2.26,1.21,1.21,0,0,0,.74-1.67" transform="translate(0 0)"/><path class="cls-6" d="M28.42,51.51c-.22-.95,1.44-1.75,2.74-4.7,1.57-3.55.62-5.69,1.89-9.64.25-.77,1.5-4.47,4.2-6.47s6.61-2.06,9.61,1.27,4.76,9.93,3.43,14.08C49.21,49.44,44,50.3,33.65,52c-1.73.28-4.95.77-5.23-.51" transform="translate(0 0)"/><path class="cls-5" d="M44.54,39.71c.13-.7.82-4.29-1.52-5.84-1.91-1.27-4.85-.53-6.35,1.4a5.39,5.39,0,0,0,.51,6.85c1.14,1.2,3.29,2.23,5.08,1.39s2.1-2.85,2.28-3.8" transform="translate(0 0)"/><path class="cls-6" d="M43.34,39.38c.09-.5.59-3.09-1.1-4.22a3.62,3.62,0,0,0-4.59,1A3.91,3.91,0,0,0,38,41.12a3.44,3.44,0,0,0,3.67,1,3.61,3.61,0,0,0,1.65-2.75" transform="translate(0 0)"/><path class="cls-7" d="M14.7,62.31a4.18,4.18,0,0,0,3.68-2.46,5.53,5.53,0,0,0-2.57-6.79,4.67,4.67,0,0,0-6.26,3.08c-.66,2.89,2.3,6.24,5.15,6.17" transform="translate(0 0)"/></g></g></g></g></g></svg>