<svg width="50" height="50" viewBox="0 0 50 50" fill="none" xmlns="http://www.w3.org/2000/svg">
<path d="M39.5832 22.9167H14.8749L22.4374 13.8333C22.791 13.4079 22.9612 12.8594 22.9104 12.3085C22.8596 11.7576 22.592 11.2495 22.1666 10.8958C21.7411 10.5422 21.1926 10.3721 20.6417 10.4229C20.0909 10.4737 19.5827 10.7412 19.2291 11.1667L8.81242 23.6667C8.74234 23.7661 8.67967 23.8705 8.62492 23.9792C8.62492 24.0833 8.62492 24.1458 8.47909 24.25C8.38466 24.4889 8.33521 24.7432 8.33325 25C8.33521 25.2569 8.38466 25.5111 8.47909 25.75C8.47909 25.8542 8.47908 25.9167 8.62492 26.0208C8.67967 26.1295 8.74234 26.2339 8.81242 26.3333L19.2291 38.8333C19.425 39.0685 19.6703 39.2576 19.9475 39.3873C20.2248 39.5169 20.5272 39.5838 20.8333 39.5833C21.32 39.5843 21.7918 39.4148 22.1666 39.1042C22.3775 38.9293 22.5519 38.7145 22.6797 38.4721C22.8076 38.2297 22.8863 37.9645 22.9115 37.6916C22.9366 37.4187 22.9077 37.1436 22.8263 36.8819C22.745 36.6202 22.6128 36.3772 22.4374 36.1667L14.8749 27.0833H39.5832C40.1358 27.0833 40.6657 26.8638 41.0564 26.4731C41.4471 26.0824 41.6666 25.5525 41.6666 25C41.6666 24.4475 41.4471 23.9176 41.0564 23.5269C40.6657 23.1362 40.1358 22.9167 39.5832 22.9167Z" fill="black"/>
</svg>
