<svg xmlns="http://www.w3.org/2000/svg" xmlns:xlink="http://www.w3.org/1999/xlink" viewBox="0 0 123.19 57.06"><defs><style>.cls-1{fill:none;}.cls-2{clip-path:url(#clip-path);}.cls-3{fill:#fcd236;}.cls-4{fill:#fbc605;}.cls-5{fill:#fff;}.cls-6{fill:#28434d;}</style><clipPath id="clip-path" transform="translate(0 0)"><rect class="cls-1" width="123.19" height="57.06"/></clipPath></defs><g id="Layer_2" data-name="Layer 2"><g id="Layer_1-2" data-name="Layer 1"><g id="cottonball_pass" data-name="cottonball pass"><g class="cls-2"><g class="cls-2"><path class="cls-3" d="M43.92,18.17c.94.63,2.68,2.25,2.38,3.9-.51,2.74-2.79,6.42-10,7.12-1.27.12-1.43,1.77-1.53,2.93-.16,1.79,1,3.12,5,7.39s5,5.31,5.16,7A6.45,6.45,0,0,1,43,51.64c-2.72,2.5-6,.26-12.69,1-5.28.56-5,2.12-12.42,3.49-5.5,1-9.62,1.72-11.57-.56s-.77-6.66-.56-7.39c.82-2.9,2-2.79,2.65-5C9.23,40,7.42,36.62,3.76,30,1.27,25.55.7,25.35.27,23.33A14.61,14.61,0,0,1,2.36,12.87C2.53,12.61,6.68,6.8,13.52,7c1.43,0,4.46.14,6.55,2.23,2.56,2.56,3.29,7.63,3.77,11,.25,1.78.32,3.14,1.39,3.91,1.68,1.19,4.45,0,5-.28,3.6-1.59,3.27-4.12,6.55-5.72.34-.17,4.19-2,7.11,0" transform="translate(0 0)"/><path class="cls-4" d="M3.34,23.75c-1.62.32-2.09,4.06-2.51,7.39-.61,4.8-1.06,8.33,1,12,.51.92,3.08,5.56,7.81,6,3.4.32,7.62-1.55,8-4.18.26-2-1.75-4-3.2-4.88-3.16-2-4.22-.59-5.41-2.24S8.82,34,8.22,30c-.52-3.4-3.24-6.6-4.88-6.27" transform="translate(0 0)"/><path class="cls-5" d="M19.1,14a2.73,2.73,0,0,0-2.25-2.24A2.91,2.91,0,0,0,13.4,14a2.73,2.73,0,0,0,2.41,2.89A2.92,2.92,0,0,0,19.1,14" transform="translate(0 0)"/><path class="cls-5" d="M13.37,15.5a2.72,2.72,0,0,0-2.25-2.24A2.91,2.91,0,0,0,7.67,15.5a2.73,2.73,0,0,0,2.42,2.89,2.91,2.91,0,0,0,3.28-2.89" transform="translate(0 0)"/><path class="cls-6" d="M19,13.65a1.44,1.44,0,0,0-1.12-1.24,1.44,1.44,0,1,0-.52,2.84A1.52,1.52,0,0,0,19,13.65" transform="translate(0 0)"/><path class="cls-6" d="M13.37,15.09a1.44,1.44,0,0,0-1.12-1.24,1.48,1.48,0,0,0-1.73,1.24,1.5,1.5,0,0,0,1.21,1.6,1.52,1.52,0,0,0,1.64-1.6" transform="translate(0 0)"/><path class="cls-6" d="M19.89,20.81a1.42,1.42,0,0,0-1.12-1.24,1.44,1.44,0,1,0-.52,2.83,1.51,1.51,0,0,0,1.64-1.59" transform="translate(0 0)"/><path class="cls-3" d="M98,20.53c-1.38.52-2.59-2.3-6.58-3.29-3-.74-6.94-.3-7.68,1.46C83,20.29,85,22.82,88.07,26.75c1.92,2.45,2.72,3,2.56,4-.34,2.18-4.45,1.77-6.94,4.75C81.45,38.2,81,43,83,45.76c3.34,4.74,13.12,2.73,15.73,2.2,4.44-.91,5.2-2.21,9.87-2.56,4.41-.33,5.51.68,8-.37,3.14-1.3,6.06-4.76,6.21-8.41.18-4.06-3.22-4.72-4-9.87-.68-4.44,1.64-5.24,1.47-10.24-.06-1.51-.3-8.7-5.86-12.07C110,1.78,103.47,2.2,100.51,5.54c-4.19,4.73-.06,14-2.56,15" transform="translate(0 0)"/><path class="cls-4" d="M115.14,18.41a4.25,4.25,0,0,1,6.94-.81c1.15,1.27,1.13,3,1.1,6.22,0,2.5,0,3.76-.73,5.12-1.58,3.09-6,5.46-9.14,4-1.84-.82-3.42-3-2.93-4.38.67-1.88,4.59-1,5.49-2.93,1.08-2.36-1.68-5-.73-7.24" transform="translate(0 0)"/><path class="cls-5" d="M101.26,7.4a2.64,2.64,0,0,1,2.1-2.25A2.76,2.76,0,0,1,106.6,7.4a2.67,2.67,0,0,1-2.27,2.88,2.79,2.79,0,0,1-3.07-2.88" transform="translate(0 0)"/><path class="cls-5" d="M105.28,8.35a2.67,2.67,0,0,1,2.11-2.25,2.76,2.76,0,0,1,3.24,2.25,2.68,2.68,0,0,1-2.27,2.88,2.8,2.8,0,0,1-3.08-2.88" transform="translate(0 0)"/><path class="cls-6" d="M101.34,7.05a1.34,1.34,0,0,1,2.67,0,1.36,1.36,0,1,1-2.67,0" transform="translate(0 0)"/><path class="cls-6" d="M105.28,7.94a1.4,1.4,0,0,1,1-1.24A1.39,1.39,0,0,1,108,7.94a1.46,1.46,0,0,1-1.13,1.59,1.47,1.47,0,0,1-1.54-1.59" transform="translate(0 0)"/><path class="cls-6" d="M100.51,14.2a1.41,1.41,0,0,1,1-1.24,1.39,1.39,0,0,1,1.62,1.24,1.36,1.36,0,1,1-2.67,0" transform="translate(0 0)"/><path class="cls-4" d="M65.83,2.25c-.35-.4-2.29-2.58-4.92-2.21s-3.9,3-4.24,3.73c-.23.49-1.8,3.94.17,6.62a6,6,0,0,0,3.9,2.21c.28.05,3.91.61,5.94-1.87s1-6.39-.85-8.48" transform="translate(0 0)"/></g></g></g></g></g></svg>