<svg xmlns="http://www.w3.org/2000/svg" viewBox="0 0 832 624"><defs><style>.cls-1{fill:#445a64;}.cls-2{fill:#697b83;}.cls-3{fill:#8f9ca2;}.cls-4{fill:#b4bdc1;}.cls-5{fill:#dadee0;}.cls-6{fill:#61b8d6;}.cls-7{fill:#81c6de;}.cls-8{fill:#a0d4e6;}.cls-9{fill:#c0e3ef;}.cls-10{fill:#dff1f7;}.cls-11{fill:#fff;}.cls-12{fill:#fdc800;}.cls-13{fill:#fdd333;}.cls-14{fill:#fede66;}.cls-15{fill:#fee999;}.cls-16{fill:#fff4cc;}.cls-17{fill:#96bc39;}.cls-18{fill:#abc961;}.cls-19{fill:#c0d788;}.cls-20{fill:#d5e4b0;}.cls-21{fill:#eaf2d7;}.cls-22{fill:#cc492f;}.cls-23{fill:#d66d59;}.cls-24{fill:#e09282;}.cls-25{fill:#04252d;}.cls-26{fill:#123038;}.cls-27{fill:#27424c;}.cls-28{fill:#155c68;}.cls-29{fill:#2b7b8e;}.cls-30{fill:#49a2ba;}.cls-31{fill:#5b4100;}.cls-32{fill:#9b7200;}.cls-33{fill:#d19f00;}.cls-34{fill:#323a05;}.cls-35{fill:#576812;}.cls-36{fill:#779321;}.cls-37{fill:#680e07;}.cls-38{fill:#8e1c10;}.cls-39{fill:#af3420;}.cls-40{fill:#ebb6ac;}.cls-41{fill:#f5dbd5;}</style></defs><g id="Layer_2" data-name="Layer 2"><g id="Layer_1-2" data-name="Layer 1"><rect class="cls-1" x="312.25" y="208" width="104" height="104"/><rect class="cls-2" x="416.29" y="208" width="104" height="104"/><rect class="cls-3" x="520.33" y="208" width="104" height="104"/><rect class="cls-4" x="624" y="208" width="104" height="104"/><rect class="cls-5" x="728" y="208" width="104" height="104"/><rect class="cls-6" x="312.25" y="104" width="104" height="104"/><rect class="cls-7" x="416.29" y="104" width="104" height="104"/><rect class="cls-8" x="520.33" y="104" width="104" height="104"/><rect class="cls-9" x="624" y="104" width="104" height="104"/><rect class="cls-10" x="728" y="104" width="104" height="104"/><rect class="cls-11" width="832" height="104"/><rect class="cls-12" x="312.25" y="312" width="104" height="104"/><rect class="cls-13" x="416.29" y="312" width="104" height="104"/><rect class="cls-14" x="520.33" y="312" width="104" height="104"/><rect class="cls-15" x="624" y="312" width="104" height="104"/><rect class="cls-16" x="728" y="312" width="104" height="104"/><rect class="cls-17" x="312.25" y="416" width="104" height="104"/><rect class="cls-18" x="416.29" y="416" width="104" height="104"/><rect class="cls-19" x="520.33" y="416" width="104" height="104"/><rect class="cls-20" x="624" y="416" width="104" height="104"/><rect class="cls-21" x="728" y="416" width="104" height="104"/><rect class="cls-22" x="312.25" y="520" width="104" height="104"/><rect class="cls-23" x="416.29" y="520" width="104" height="104"/><rect class="cls-24" x="520.33" y="520" width="104" height="104"/><rect class="cls-25" x="0.25" y="208" width="104" height="104"/><rect class="cls-26" x="104.29" y="208" width="104" height="104"/><rect class="cls-27" x="208.33" y="208" width="104" height="104"/><rect class="cls-28" x="0.25" y="104" width="104" height="104"/><rect class="cls-29" x="104.29" y="104" width="104" height="104"/><rect class="cls-30" x="208.33" y="104" width="104" height="104"/><rect class="cls-31" x="0.25" y="312" width="104" height="104"/><rect class="cls-32" x="104.29" y="312" width="104" height="104"/><rect class="cls-33" x="208.33" y="312" width="104" height="104"/><rect class="cls-34" x="0.25" y="416" width="104" height="104"/><rect class="cls-35" x="104.29" y="416" width="104" height="104"/><rect class="cls-36" x="208.33" y="416" width="104" height="104"/><rect class="cls-37" x="0.25" y="520" width="104" height="104"/><rect class="cls-38" x="104.29" y="520" width="104" height="104"/><rect class="cls-39" x="208.33" y="520" width="104" height="104"/><rect class="cls-40" x="624" y="520" width="104" height="104"/><rect class="cls-41" x="728" y="520" width="104" height="104"/></g></g></svg>