<svg xmlns="http://www.w3.org/2000/svg" viewBox="0 0 1219.95 959.04"><defs><style>.cls-1{fill:#ca4b35;}.cls-2{fill:#fff;}.cls-3{fill:#29434c;}</style></defs><g id="Layer_2" data-name="Layer 2"><g id="Layer_1-2" data-name="Layer 1"><path class="cls-1" d="M744.85,403.07C711.34,328.18,620,278,533.29,303.51,462,324.51,416.43,390.06,408.84,457c-8.2,72.23,27.31,150.46,95.41,182.53,91.89,43.28,203.56-16.11,240.6-99.56C774.74,472.62,747.46,408.91,744.85,403.07Z"/><path class="cls-1" d="M467.17,420.27C475.45,361,349.24,244.83,233.8,244.83,162.86,244.83-8.55,410.14.33,423.43c5.3,7.92,65.62-12.56,80.35-29.3,38.1-43.3,103.89-104.59,153.1-111,38.92-5.1,50.9,2.55,90.54,47.91,54.32,62.16,80.19,129.21,113.31,125.74C451.94,455.24,464.85,436.89,467.17,420.27Z"/><path class="cls-1" d="M628.7,390.63c-21.67-16.44,24.46-85.92,66.37-232.31C720.8,68.46,717.31,46.14,740.7,33.87,794.38,5.73,888.47,83.54,968.86,150c60.13,49.73,127,116.13,120.3,124.45s-85.23-38.59-149.34-87.11C842,113.34,810.65,60,778,71.2c-19.52,6.73-27.11,37.77-41.49,99.57-28.27,121.53-15.64,176.07-58.07,207.41C664.11,388.79,640.05,399.24,628.7,390.63Z"/><path class="cls-1" d="M666.15,433.58c-4.62-37.18,106.08-46.34,186.2-140.29,12.33-14.45,19.57-25.8,35.71-30.61,39.44-11.75,80.5,30.89,127.54,71.42,120.65,104,210.09,133.34,204.06,145.39-5.45,10.91-82.3-5.94-145.39-48.46-31.17-21-67-53.68-89.28-74-45-41-62.52-62.74-84.17-58.67-18.1,3.41-23.48,21.9-40.81,48.47-46.2,70.8-131.66,129-173.45,109.68C684.86,455.75,667.9,447.62,666.15,433.58Z"/><path class="cls-1" d="M666.15,530.51c14.6-34.51,75-17.49,168.35-51,63.59-22.83,59.79-39.41,89.27-38.26,55.5,2.17,67.92,60.87,165.8,145.4,66.07,57,118.22,80.22,114.79,86.72-3.63,6.86-67.64-7.61-125-48.46-93.22-66.41-99.7-153.27-155.6-155.6-17.71-.73-19.84,7.87-71.42,38.26-39.19,23.1-151.5,89.27-181.1,61.22C662.18,560.18,661,542.81,666.15,530.51Z"/><path class="cls-1" d="M617.69,599.38c58.46-13.52,85,46.92,168.34,63.77,63.39,12.8,81.6-15.35,114.79,7.65,29.5,20.44,37,57.86,51,127.54,6.36,31.64,17,96.91,7.65,99.48C950.85,900.19,926,848.5,911,803.44c-20.44-61.47-13.94-84.83-35.71-102-22.38-17.68-45.82-6.08-91.83-5.1-102.9,2.18-201.64-51.28-199-76.52C585.92,606.72,614.6,600.09,617.69,599.38Z"/><path class="cls-1" d="M469.74,558.57C438,546.19,363.18,624.66,334.56,709.06c-42,124,18.68,251.11,25.5,250,3.69-.61-4.56-39.3-2.55-132.64,1.33-61.54,2-92.32,10.2-109.68,33.46-70.67,118.69-73,119.89-122.43C487.94,580.18,481.42,563.12,469.74,558.57Z"/><path class="cls-1" d="M449.34,479.49c-13.23-30.79-139.7-30.85-216.81,23-123.7,86.32-115.65,307.93-112.24,308.64,1.49.31,5.61-40.48,33.16-112.23,33.17-86.39,49.76-129.59,81.63-150.5,73.2-48,169.7,11.19,206.61-40.81C444.34,503.81,454,490.26,449.34,479.49Z"/><path class="cls-1" d="M531,357.06c18.26-29.2-27.62-79.21-79.07-160.7-84-133-66.11-165-112.23-186.2C269.33-22.14,179,29.92,120.29,63.73,56.85,100.27,6.21,149,10.61,155.55c3.46,5.11,39.44-17.74,114.79-51C225.27,60.43,275.88,38.63,309.05,51c30.39,11.31,53.83,62.11,99.48,163.25,43.89,97.26,61.67,157.46,94.37,158.14C513.89,372.59,525.32,366.08,531,357.06Z"/><path class="cls-2" d="M559.67,386.29c-8.07-11.49-25.31-18.71-39.23-12-16.07,7.76-20.05,30.41-12,45.77,7.35,14,25.22,22.94,39.24,17.44C565.32,430.58,571.36,402.92,559.67,386.29Z"/><path class="cls-3" d="M538.45,387.07c-2.56-3.66-8-5.95-12.47-3.82-5.11,2.47-6.37,9.67-3.81,14.55,2.34,4.45,8,7.3,12.47,5.55C540.25,401.14,542.17,392.35,538.45,387.07Z"/><path class="cls-2" d="M621,352.57c-8.07-11.49-25.31-18.71-39.23-12-16.08,7.76-20.06,30.41-12,45.77,7.35,14,25.22,22.94,39.23,17.44C626.6,396.86,632.65,369.2,621,352.57Z"/><path class="cls-3" d="M599.74,344.76c-2.56-3.65-8-5.94-12.47-3.81-5.11,2.47-6.37,9.67-3.81,14.55,2.34,4.45,8,7.3,12.47,5.54C601.54,358.84,603.46,350.05,599.74,344.76Z"/><path class="cls-2" d="M678.43,420c-8.07-11.49-25.3-18.71-39.23-12-16.07,7.76-20.05,30.4-12,45.77,7.35,14,25.21,22.94,39.23,17.44C684.08,464.3,690.12,436.64,678.43,420Z"/><path class="cls-3" d="M673.84,433.07c-2.57-3.66-8.05-5.95-12.47-3.81-5.11,2.46-6.38,9.66-3.81,14.54,2.33,4.45,8,7.3,12.47,5.55C675.63,447.14,677.55,438.35,673.84,433.07Z"/><path class="cls-2" d="M612.61,441.44c-8.08-11.49-25.31-18.7-39.23-12-16.08,7.76-20.06,30.4-12,45.77,7.35,14,25.22,22.94,39.23,17.43C618.25,485.73,624.3,458.08,612.61,441.44Z"/><path class="cls-3" d="M616.06,450.78c-2.56-3.65-8-5.94-12.47-3.81-5.11,2.47-6.37,9.67-3.81,14.55,2.34,4.45,8,7.3,12.47,5.55C617.86,464.86,619.78,456.07,616.06,450.78Z"/><path class="cls-2" d="M606.8,520.58c-8.08-11.49-25.31-18.71-39.23-12-16.08,7.77-20.06,30.41-12,45.77,7.35,14,25.22,22.95,39.23,17.44C612.44,564.87,618.49,537.21,606.8,520.58Z"/><path class="cls-3" d="M573.52,544.36c-2.57-3.65-8-6-12.47-3.81-5.11,2.47-6.38,9.66-3.81,14.55,2.34,4.45,8,7.29,12.47,5.54C575.31,558.44,577.24,549.65,573.52,544.36Z"/><path class="cls-2" d="M674,499.06c-8.07-11.49-25.31-18.7-39.23-12-16.07,7.76-20,30.4-12,45.77,7.34,14,25.21,22.94,39.23,17.43C679.66,543.35,685.7,515.7,674,499.06Z"/><path class="cls-3" d="M643.05,522.84c-2.56-3.65-8-6-12.47-3.81-5.11,2.47-6.37,9.67-3.81,14.55,2.34,4.45,8,7.29,12.47,5.54C644.85,536.92,646.77,528.13,643.05,522.84Z"/></g></g></svg>