<svg xmlns="http://www.w3.org/2000/svg" viewBox="0 0 826.75 793.08"><defs><style>.cls-1{fill:#c2e4ee;}.cls-2{fill:#fff;}.cls-3{fill:#29434c;}.cls-4{fill:#a2d4e5;}</style></defs><g id="Layer_2" data-name="Layer 2"><g id="Layer_1-2" data-name="Layer 1"><path class="cls-1" d="M786,542.42c-34,23.57-77.07,16.06-86.72,14.16,6.28,3.11,52.86,27,58.85,70.8,4.54,33.25-15.6,68.67-46.09,89.73-20.61,14.23-45.95,21.9-71.6,17.9A90.89,90.89,0,0,1,618,728.44a97.14,97.14,0,0,1-18.58-10.75,104.79,104.79,0,0,1-32-38.57,60.68,60.68,0,0,1-1.31,10.57c-4.89,22.7-23.09,43.78-46,57.89-28.4,17.49-64,24.25-90.29,10.08-17.75-9.56-29.94-27.95-34.81-50.19a45.06,45.06,0,0,1-8.55,13.38C376.19,732,360.07,738,342.2,739.28c-30.35,2.23-65.74-9.09-86.12-32.1q-1.44-1.62-2.78-3.33a69.45,69.45,0,0,1-13.49-29.27c-3.08-15-1.32-29.45,1.26-40.29h0a103.49,103.49,0,0,1,6-18.12,107.71,107.71,0,0,1-7.22,12.53h0c-21,31.24-56.63,48.64-88.74,44a69,69,0,0,1-10-2.21c-44.54-13.32-66.82-69.2-55.05-111.08,8-28.43,30.48-46.07,44-54.55C118,511,95.44,519.35,73.67,511.26c-33.84-12.58-40-55.47-34.06-82.13,9-41,50-59.78,55.74-62.31-33.47,11.67-70.33,0-86.71-25.49-21-32.67-.29-75.42,24.77-85,24.41-9.3,52.34,13.12,58.85,5.67,8.46-9.7-43.39-42.42-37.17-76.47,5.17-28.32,51.16-61.23,96-48.15a73.31,73.31,0,0,1,27.26,14.77,89.35,89.35,0,0,1,.61-37.43c2.29-9.74,10.55-45,37.17-51,15.56-3.51,34.68,3.58,50,19-3.45-8.18-5.43-17.61-3.59-27.51C269.89,16,334.07-14.39,380.28,7.12,405.46,18.85,422,44.43,423.54,73.37,427,60.73,434,46.23,448.42,35.45c36.59-27.36,102.32-17,127,22.65C587,76.78,588.25,99.92,580,121.56c9.62-12.78,24.4-26.4,44.92-29.47,46.45-6.94,95.8,44.11,89.82,90.63-3.8,29.56-28.82,48.56-40.84,56.17,13.39-7.38,46.48-22.41,78-10.85,46.85,17.18,61.59,82.59,37.17,124.62-15.78,27.14-44.44,38.61-55.75,42.48,13.29-2.81,45.46-7.76,68.13,8.5C840.48,431.59,833.57,509.44,786,542.42Z"/><path class="cls-2" d="M175.34,210.35c-8.08-11.5-25.31-18.71-39.23-12-16.08,7.76-20.06,30.4-12,45.77,7.35,14,25.22,22.94,39.23,17.43C181,254.63,187,227,175.34,210.35Z"/><path class="cls-3" d="M148.13,220.78c-3.47-5.23-10.86-8.51-16.84-5.46-6.9,3.54-8.6,13.84-5.14,20.83,3.15,6.37,10.82,10.44,16.83,7.93C150.55,240.93,153.14,228.35,148.13,220.78Z"/><path class="cls-2" d="M247,197.71c-8.07-11.49-25.31-18.71-39.23-12-16.07,7.76-20,30.4-12,45.77,7.35,14,25.22,22.94,39.24,17.43C252.64,242,258.68,214.34,247,197.71Z"/><path class="cls-3" d="M223.15,212c-3.66-4.94-11.46-8-17.77-5.15-7.28,3.33-9.08,13.06-5.42,19.66,3.32,6,11.42,9.86,17.76,7.49C225.71,231,228.45,219.16,223.15,212Z"/><path class="cls-4" d="M378.63,646.85c-22.88-4.05-42.73,12.06-50.2,30.64-13.22,32.89,11.92,74.59,36.53,95,4.92,4.06,32.8,27.12,53.57,18.25,23.44-10,22.41-54.13,13.11-82.6C429.62,701.9,413.66,653.06,378.63,646.85Z"/><path class="cls-4" d="M342.2,739.28c-6,22.82-17.64,43-33.36,50-13.16,5.9-29.87,2.92-41.19-8.54-20.21-20.47-14.57-59.2-11.57-73.58C276.46,730.19,311.85,741.51,342.2,739.28Z"/><path class="cls-4" d="M705.56,659.75c-13.09,22.18,3.49,56.68,16.48,74.08,18,24.16,49.87,43.23,65.32,33.94,22.59-13.58,14.19-90.3-22.92-114.84C745.4,640.34,717,640.32,705.56,659.75Z"/><path class="cls-4" d="M705.78,755.47c-7.1,16.13-24.84,39.71-43.22,37.46-19-2.33-38.54-32.31-44.53-64.49A90.89,90.89,0,0,0,640.44,735c25.65,4,51-3.67,71.6-17.9C712.87,730.17,711.06,743.49,705.78,755.47Z"/></g></g></svg>