<svg xmlns="http://www.w3.org/2000/svg" xmlns:xlink="http://www.w3.org/1999/xlink" viewBox="0 0 106.99 88.22"><defs><style>.cls-1{fill:none;}.cls-2{clip-path:url(#clip-path);}.cls-3{fill:#fcd236;}.cls-4{fill:#fbc605;}.cls-5{fill:#28434d;}.cls-6{fill:#fff;}</style><clipPath id="clip-path" transform="translate(0 0)"><rect class="cls-1" width="106.99" height="88.22"/></clipPath></defs><g id="Layer_2" data-name="Layer 2"><g id="Layer_1-2" data-name="Layer 1"><g id="funny_faces" data-name="funny faces"><g class="cls-2"><g class="cls-2"><path class="cls-3" d="M102.38,81.76c-4.59,7.87-18.79,6.7-29.07,5.85C65.48,87,62.05,85.4,59.67,82.9c-.68-.71-4.31-4.68-3.41-8.77A4.46,4.46,0,0,1,57.36,72a13.13,13.13,0,0,0,3-4,7.42,7.42,0,0,0,.56-2.09,30.83,30.83,0,0,0,.28-4.43c1.61-1.35,4.21-.09,5.78-1.72a4.4,4.4,0,0,0,.19-5.37c-1.2-1.33-3.78-1.26-6.34-.34-.36-3.14-.79-3.83-.31-5.53,1.67-5.87,9.73-8.28,11.37-8.77,7.07-2.12,17.69-1.36,22.08,5.19a13.79,13.79,0,0,1,1.62,3.39c-1.48-.59-2.88-.93-3.78-.24-1.67,1.28-1.22,5.8,1.12,7.78a6.06,6.06,0,0,0,3.63,1.22c0,.45-.09.9-.15,1.33a17.7,17.7,0,0,1-.42,2c-.48,1.92-1,3-.39,4.64,1,2.81,3.66,3.37,5.77,5a6.45,6.45,0,0,1,1.86,2.15c1.62,3.08.57,7.22-.81,9.58" transform="translate(0 0)"/><path class="cls-3" d="M67.13,54.35a4.4,4.4,0,0,1-.19,5.37c-1.57,1.63-4.17.37-5.78,1.72,0-.72,0-1.52,0-2.41-.06-2.19-.2-3.79-.34-5,2.56-.92,5.14-1,6.34.34" transform="translate(0 0)"/><path class="cls-3" d="M96.52,57.05a6.06,6.06,0,0,1-3.63-1.22c-2.34-2-2.79-6.5-1.12-7.78.9-.69,2.3-.35,3.78.24a22.86,22.86,0,0,1,1,8.76" transform="translate(0 0)"/><path class="cls-4" d="M67.59,58.7a3.36,3.36,0,0,1-.54.9l-.11.12c-1.57,1.63-4.17.37-5.78,1.72a2,2,0,0,0-.33.32,3.28,3.28,0,0,0-.37,3.71,1.59,1.59,0,0,0,.42.4A7.42,7.42,0,0,1,60.32,68a13.13,13.13,0,0,1-3,4c-.55-.56-1-1.09-1.35-1.49-1.24-1.44-3.45-4-3.15-7.6a9.57,9.57,0,0,1,3.52-6.3A14.17,14.17,0,0,1,60.79,54c2.56-.92,5.14-1,6.34.34a4.42,4.42,0,0,1,.46,4.35" transform="translate(0 0)"/><path class="cls-4" d="M102.71,68.62c-.36.4-.83.89-1.38,1.41-2.11-1.62-4.79-2.18-5.77-5-.57-1.65-.09-2.72.39-4.64,1.51-1.18,2.76-2,2.5-2.71-.19-.53-1-.56-1.93-.64a6.06,6.06,0,0,1-3.63-1.22,4.43,4.43,0,0,1-.8-.87,4.78,4.78,0,0,1-.44-.69c-1.2-2.2-1.19-5.21.12-6.22.9-.69,2.3-.35,3.78.24.53.21,1.07.45,1.6.69,3.75,1.68,8.56,3.83,9.63,8.71,1.13,5.11-2.68,9.38-4.07,10.93" transform="translate(0 0)"/><path class="cls-5" d="M92.09,55c-.61.42-1.29.84-2,1.24-5.74,3.26-13.26,4-15.8,4.43a24.88,24.88,0,0,1-7.26-1,3.36,3.36,0,0,0,.54-.9l.49.18c3.64,1.3,4-.7,9.07,0,4.83.66,10.91-2.58,14.5-4.61a4.78,4.78,0,0,0,.44.69" transform="translate(0 0)"/><path class="cls-6" d="M75.62,59.36a3.22,3.22,0,0,0-2.43.13c-.51.25-1,.74-.57,1.16a2.83,2.83,0,0,0,2.43.36c1.08-.32,1.33-1.27.57-1.65" transform="translate(0 0)"/><path class="cls-6" d="M83.92,44.9a2.72,2.72,0,0,0-2.24-2.24,2.92,2.92,0,0,0-3.46,2.24,2.74,2.74,0,0,0,2.42,2.89,2.91,2.91,0,0,0,3.28-2.89" transform="translate(0 0)"/><path class="cls-6" d="M78.2,46.4A2.72,2.72,0,0,0,76,44.16,2.91,2.91,0,0,0,72.5,46.4a2.73,2.73,0,0,0,2.41,2.89A2.92,2.92,0,0,0,78.2,46.4" transform="translate(0 0)"/><path class="cls-5" d="M81.49,46a1.44,1.44,0,0,0-1.12-1.24,1.44,1.44,0,1,0-.52,2.84A1.52,1.52,0,0,0,81.49,46" transform="translate(0 0)"/><path class="cls-5" d="M78.2,46a1.44,1.44,0,0,0-1.12-1.24,1.44,1.44,0,1,0-.52,2.84A1.52,1.52,0,0,0,78.2,46" transform="translate(0 0)"/><path class="cls-3" d="M47.88,51.07a45.85,45.85,0,0,0,0,5.86c.73,11.29,5.53,16.12,1.75,21.13-6,7.88-23.7,3.62-26.7,2.9-4.71-1.13-10.67-2.56-15.67-7.83-5.66-6-9.47-16.26-5.8-23.22a9.39,9.39,0,0,1,5.17-4.47c2.17-1,4.46-1.77,6.44-4.53a11.13,11.13,0,0,0,1.81-4h0A15.45,15.45,0,0,0,15,31c.6-6.95,2.76-16.75.64-19.29a9.09,9.09,0,0,0-1.76-1.58C19,1,36.15-3.47,45.56,3.19c4.23,3,6.2,7.76,7.15,12.15a5.45,5.45,0,0,0-1.83,1.35c-2.29,2.66-.06,6.49.58,11.9a26.86,26.86,0,0,1-.78,10,44.06,44.06,0,0,0-1.45,4.3,38.52,38.52,0,0,0-1.35,8.15" transform="translate(0 0)"/><path class="cls-3" d="M50.68,38.31a26.86,26.86,0,0,0,.78-10c-.64-5.41-2.87-9.24-.58-11.9A5.45,5.45,0,0,1,52.71,15a50.21,50.21,0,0,1,1,8.16c.39,7.08-1.33,10.72-3,15.12" transform="translate(0 0)"/><path class="cls-4" d="M60.45,36.41c-2.92,12.45-6.28,15.71-7.54,16.83a24.53,24.53,0,0,1-5,3.38,45.85,45.85,0,0,1,0-5.86,38.52,38.52,0,0,1,1.35-8.15,36.76,36.76,0,0,0,1.45-4.3,26.86,26.86,0,0,0,.78-10c-.64-5.41-2.87-9.24-.58-11.9A5.45,5.45,0,0,1,52.71,15c2.54-1.18,6.2-1,8.32.77,3.56,3,2,9.71-.58,20.61" transform="translate(0 0)"/><path class="cls-4" d="M15.19,33.54a17.25,17.25,0,0,1-.32,3.08h0a11.13,11.13,0,0,1-1.81,4c-2,2.76-4.27,3.57-6.44,4.53-.17-1.4-.27-3.05-.37-4.91-1.06-20-1.52-30,2.34-31.51,1.64-.65,3.65,0,5.23,1.09h0a9.09,9.09,0,0,1,1.76,1.58c2.12,2.54.41,11.07-.19,18-.05.54-.18,3.64-.21,4.14" transform="translate(0 0)"/><path class="cls-6" d="M46.67,6.88a3,3,0,0,0-2.46-2.46,3.2,3.2,0,0,0-3.79,2.46A3,3,0,0,0,43.07,10a3.19,3.19,0,0,0,3.6-3.16" transform="translate(0 0)"/><path class="cls-6" d="M32.2,7.36a3.41,3.41,0,0,0-2.68-2.93,3.51,3.51,0,0,0-4.13,2.93,3.49,3.49,0,0,0,2.89,3.78A3.61,3.61,0,0,0,32.2,7.36" transform="translate(0 0)"/><path class="cls-5" d="M46,7a1.73,1.73,0,0,0-1.35-1.5A1.78,1.78,0,0,0,42.61,7a1.8,1.8,0,0,0,1.46,1.93A1.83,1.83,0,0,0,46,7" transform="translate(0 0)"/><path class="cls-5" d="M32.21,7.46a1.91,1.91,0,0,0-1.52-1.59,2,2,0,0,0-2.34,1.59A1.91,1.91,0,0,0,30,9.5a2,2,0,0,0,2.22-2" transform="translate(0 0)"/><path class="cls-5" d="M48.43,15.39c-.62-.16-1,1.88-3.67,1.52-1.95-.27-3.33-1.53-5.34-1.77s-2.05,1-3.8.67c-1.55-.27-2.1-1.3-4.22-1.82a7.46,7.46,0,0,0-1-.18c-2.05-.24-2.73.32-4.19-.1a4.28,4.28,0,0,1-1.38-.66,4.75,4.75,0,0,1-1.48-1.73c-1-1.78.35-2.64-.42-2.9a5.71,5.71,0,0,0-3,.56c-.92.41-4,2-.63,4.55.56.41,2.85.73,3.79,3s3.71,1.92,6.06,2.53a8.33,8.33,0,0,0,6.34-.6c2.52-1.24,2.91-1,5.31-.44,2,.47,2.38,1.87,3.91,2.17,1.71.34,2.81-1.08,3.28-1.68,1.11-1.44,1-2.94.5-3.08" transform="translate(0 0)"/><path class="cls-6" d="M23.92,13.58c.32-.21.76.82,2,1,.74.09,3.81-.08,4.49,0,1.42.16,3.66.77,4.34,2.57.25.67-1.59,1.59-3.61,1.34-1.06-.14-3.64-.83-4.21-.84a3.18,3.18,0,0,1-3.13-1.77c-.66-1.82-.29-2,.07-2.28" transform="translate(0 0)"/></g></g></g></g></g></svg>