<svg xmlns="http://www.w3.org/2000/svg" viewBox="0 0 2424.01 1896.52"><defs><style>.cls-1{fill:#05252c;}</style></defs><g id="Layer_2" data-name="Layer 2"><g id="Layer_1-2" data-name="Layer 1"><path class="cls-1" d="M1216.85,1715.1c-7.82-4.69-12.74-21.95,3.9-80.58,6.23-52.53-28.08-124.39-115.37-211.24-20.49-20.39-91-89.31-201.48-102.73-94-11.42-224.43,8-257.87,90.11-42,103.08,112.1,242.27,85.63,266.39-16.46,15-91.74-24.43-147.47-85.63-87.12-95.66-65.32-177.38-137.94-214.06-46.56-23.5-112.25-18.57-147.47,14.27-70,65.32.08,222.7,23.79,275.9,23.1,51.84,68.23,153.14,157,176,40.7,10.49,79.44,1.62,80.87,9.52,1.9,10.49-64.26,37.86-114.16,42.81-141.62,14.05-262.39-199.6-299.84-265C-4.27,1367.66-95.84,894.12,163.79,400.71,333.84,77.52,705.1,53.54,722.14,107.29,727.36,123.73,588.57,131.14,550.9,231c-15.16,40.16-141.7,284,142.51,602.7,95.79,107.42,186-163.09,186-46.09,0,63.84,62.1,152,215.52,230.71,206.21,105.81-10.38-292.76,135.52-129.38,34,38.11,106.67,156,143.6,109.64,196.85-247,155.83-193.14,180.53,41.84,29.38,279.42,561.13-257,419.4-754C1923.4,109,1570.91,19.19,1641.65,5.32c33.33-6.54,142-16.12,267.81,34.22,218,87.22,364.66,265.94,400.05,342.88C2485.94,766,2452,1337.8,2252.39,1581c-115.44,140.66-271.06,202.64-280.56,175.51-6.14-17.54,70.2-72.5,124.37-159.47,58-93.11,37.06-220.2-35.44-269.14-57.77-39-198.65,6.76-254.87,65.54-72.16,75.45-49.94,216.74-75.3,217-18.18.22-16.79-58.78-61.84-118.92-41.18-55-121.38-111.19-180.76-90.38-31.68,11.1-45.76,7.57-80.09,83.58-16.23,35.94-15.32,95.53-33.1,124.11C1330.31,1680.35,1238.54,1728.1,1216.85,1715.1Z"/></g></g></svg>