<svg xmlns="http://www.w3.org/2000/svg" viewBox="0 0 583.81 646.26"><defs><style>.cls-1{fill:#9a7221;}.cls-2{fill:#5a4217;}.cls-3{fill:#4ea3ba;}.cls-4{fill:#dbdee0;}.cls-5{fill:#b4bdc2;}</style></defs><g id="Layer_2" data-name="Layer 2"><g id="Layer_1-2" data-name="Layer 1"><path class="cls-1" d="M562.14,0H371.91a48.13,48.13,0,0,1,1.4,15c-.67,10.62-4.8,19.9-10.08,25.6-6.09,6.58-12.44,11-21.49,11a37.31,37.31,0,0,1-10.63-1.75,70.79,70.79,0,0,1-9.94-3.94c7.09,7.5,9.75,15.26,9.75,22.63,0,11.47-6.45,22-12.67,29.07-11.84,13.47-32.93,24.71-54.08-.7.2,3.08-7.9,23.16-21.68,32.31a29.28,29.28,0,0,1-4.12,2.31c-8.32,3.81-20.14,0-30.65-7.57V624.59a21.68,21.68,0,0,0,21.67,21.67H562.14a21.67,21.67,0,0,0,21.67-21.67V21.67A21.67,21.67,0,0,0,562.14,0ZM223.56,274.84a9.31,9.31,0,0,1,9.31-9.31H321.8a9.3,9.3,0,0,1,9.31,9.31v53.28a337.79,337.79,0,0,0-35-6.89c-5.83-.86-12.23-1.68-19.3-2.45-14.25-1.55-26.54-2.89-37.23-3.85-5.8-.52-11.12-.93-16-1.2Z"/><rect class="cls-2" x="460.42" y="15" width="107.55" height="114.18" rx="9.31"/><path class="cls-2" d="M449.29,24.31v95.56a9.31,9.31,0,0,1-9.31,9.31H351.05a9.31,9.31,0,0,1-9.31-9.31V51.56c9.05,0,15.4-4.38,21.49-11,5.28-5.7,9.41-15,10.08-25.6H440A9.31,9.31,0,0,1,449.29,24.31Z"/><path class="cls-2" d="M331.11,49.81v70.06a9.31,9.31,0,0,1-9.31,9.31H242.49C256.27,120,264.37,100,264.17,96.87c21.15,25.41,42.24,14.17,54.08.7,6.22-7.09,12.67-17.6,12.67-29.07,0-7.37-2.66-15.13-9.75-22.63A70.79,70.79,0,0,0,331.11,49.81Z"/><rect class="cls-2" x="460.42" y="140.26" width="107.55" height="114.18" rx="9.31"/><rect class="cls-2" x="341.74" y="140.26" width="107.55" height="114.18" rx="9.31"/><rect class="cls-2" x="223.56" y="140.26" width="107.55" height="114.18" rx="9.31"/><rect class="cls-2" x="460.42" y="265.53" width="107.55" height="114.18" rx="9.31"/><rect class="cls-2" x="341.74" y="265.53" width="107.55" height="114.18" rx="9.31"/><path class="cls-2" d="M331.11,274.84v53.28a337.79,337.79,0,0,0-35-6.89c-5.83-.86-12.23-1.68-19.3-2.45-14.25-1.55-26.54-2.89-37.23-3.85-5.8-.52-11.12-.93-16-1.2V274.84a9.31,9.31,0,0,1,9.31-9.31H321.8A9.3,9.3,0,0,1,331.11,274.84Z"/><path class="cls-2" d="M331.11,328.12V370.4a9.31,9.31,0,0,1-9.31,9.31H232.87a9.31,9.31,0,0,1-9.31-9.31V313.73c4.92.27,10.24.68,16,1.2,10.69,1,23,2.3,37.23,3.85,7.07.77,13.47,1.59,19.3,2.45A337.79,337.79,0,0,1,331.11,328.12Z"/><rect class="cls-2" x="460.42" y="390.79" width="107.55" height="114.18" rx="9.31"/><rect class="cls-2" x="341.74" y="390.79" width="107.55" height="114.18" rx="9.31"/><rect class="cls-2" x="223.56" y="390.79" width="107.55" height="114.18" rx="9.31"/><rect class="cls-2" x="460.42" y="516.06" width="107.55" height="114.18" rx="9.31"/><rect class="cls-2" x="341.74" y="516.06" width="107.55" height="114.18" rx="9.31"/><rect class="cls-2" x="223.56" y="516.06" width="107.55" height="114.18" rx="9.31"/><path class="cls-3" d="M583.81,320.25V624.59a21.67,21.67,0,0,1-21.67,21.67H229.39a21.68,21.68,0,0,1-21.67-21.67V313.4c4.77-.12,10,0,15.84.33,4.92.27,10.24.68,16,1.2,10.69,1,23,2.3,37.23,3.85,7.07.77,13.47,1.59,19.3,2.45a337.79,337.79,0,0,1,35,6.89c3.82,1,7.33,1.93,10.63,2.87,18.61,5.28,30.83,9.71,57.85,9.8,21.59.07,34.75-2.68,49.7-6.18,3.56-.83,7.23-1.71,11.13-2.6,15.68-3.57,35.22-7.37,67.58-9.56,16.62-1.13,29.59-2,40-2.31C574.07,320,579.28,320,583.81,320.25Z"/><polygon class="cls-4" points="567.97 367.34 583.81 348.44 583.81 373.16 567.95 399.52 542.78 441.35 480.42 504.97 469.54 516.06 460.42 525.37 446.2 516.09 445.83 515.85 429.18 504.97 341.74 447.88 449.29 491.19 460.42 495.67 548.32 390.79 557.6 379.71 567.97 367.34"/><polygon class="cls-4" points="395.51 405.44 265.58 420.05 369.53 623.87 242.49 405.44 321.8 390.79 405.79 405.44 395.51 405.44"/><polygon class="cls-4" points="532.59 641.69 527.66 646.26 489.14 646.26 471.29 630.24 460.42 620.48 449.29 610.49 385.83 553.52 449.29 591.65 460.42 598.33 513.53 630.24 532.59 641.69"/><path class="cls-4" d="M296.13,321.23l-72.57,46.62L207.72,378V339.77l15.84-12.34,16-12.5c10.69,1,23,2.3,37.23,3.85C283.9,319.55,290.3,320.37,296.13,321.23Z"/><path class="cls-5" d="M127.6,463.27C103.44,464.25,0,509,0,478.41c0-18.3,21-16.22,48-25.55,43.35-15,62-56.89,82.6-50.63,50.51,15.32,69.7-83.14,77.15-88.83,18.81-14.37,104.62-14.61,153.39,2.66,10.49,3.71,19.43,7.89,26.12,12.22,6.39,4.12,16.79,12.36,12.36,12.51C375.35,341.6,254.1,458.15,127.6,463.27Z"/><path class="cls-4" d="M387.23,328.28l-37.11,20.16-83.06,19L131.39,447.88,245.91,348s102-7.47,104.39-14.51l10.81-17.39C371.6,319.77,380.54,324,387.23,328.28Z"/></g></g></svg>