<svg xmlns="http://www.w3.org/2000/svg" viewBox="0 0 498.98 650.7"><defs><style>.cls-1{font-size:12px;font-family:MyriadPro-Regular, Myriad Pro;letter-spacing:-0.01em;}.cls-2{letter-spacing:0em;}.cls-3{fill:#fee99e;}.cls-4{fill:#d46d5c;}.cls-5{fill:#fddd70;}</style></defs><g id="Layer_2" data-name="Layer 2"><g id="Layer_1-2" data-name="Layer 1"><text class="cls-1" transform="translate(0 10.04)">f<tspan class="cls-2" x="3.35" y="0">ood</tspan></text><path class="cls-3" d="M498.54,418.47c-4.28,26-17.31,68.66-56.61,108.08-1.48,1.49-3,3-4.57,4.46-35.9,34-68.76,61.93-97.46,82.63-24.65,17.79-46.23,30.28-64.07,36.76-7.53,2.74-19.46-13.6-33.8-41.69-6.78-13.29-14.1-29.21-21.74-47-9.49-22.07-19.48-47-29.57-73.28-13.35-34.76-26.85-71.92-39.58-108-5-14.12-9.84-28.07-14.52-41.65-4.63-13.43-9.09-26.5-13.32-39-5.65-16.69-10.9-32.39-15.62-46.64-9.3-28.07,20.24-53.22,46.47-39.56l4.17,2.17,111.25,58,36.75,19.15,60.32,31.44h0L481.26,384A32.87,32.87,0,0,1,498.54,418.47Z"/><path class="cls-4" d="M393.79,373.28c26.31,2.4,46.24,18.93,53.83,37.26,14,33.78-14,73.6-42.29,77.92-38.71,5.89-91.43-52.49-73.06-88.08C341.4,382.69,368,370.93,393.79,373.28Z"/><path class="cls-4" d="M202.1,488.46a39.44,39.44,0,0,1-11.38,0c-13.35-34.76-26.85-71.92-39.58-108a75.77,75.77,0,0,1,39.43-7.15c26.31,2.4,46.24,18.93,53.83,37.26C258.37,444.33,230.42,484.14,202.1,488.46Z"/><path class="cls-4" d="M269.57,273.7c-8.47,16.83-23.87,29.84-39.38,32.2-38.7,5.9-91.42-52.48-73.05-88.07.36-.71.76-1.4,1.18-2.09Z"/><path class="cls-5" d="M286.55,575.24c-9.13,7.41-25.87,21-44.52,33.47-6.78-13.29-14.1-29.21-21.74-47,11.21,1.6,22.75,1.33,34-5.31,30.47-17.94,25.73-62.8,45.66-64.47,11.56-1,24.63,13.15,26.87,26.86C328.1,526.5,327.28,542.18,286.55,575.24Z"/><path class="cls-5" d="M366.64,324.29c-21.19,5-44.34,12.9-58.6,33.35-19.2,27.56-10.36,60.83-18.8,61.79-7.94.9-23.44-27.69-21.49-56.41,1.75-25.75,17.53-51.74,38.57-70.17Z"/><path class="cls-5" d="M214,341.53c-1.4,6.08-37.21-5.54-77.4-2.75-4.63-13.43-9.09-26.5-13.32-39,14,5.33,30.65,12.14,50.43,20.26C203,332.05,214.84,338,214,341.53Z"/><path class="cls-5" d="M441.93,526.55c-1.48,1.49-3,3-4.57,4.46-35.9,34-68.76,61.93-97.46,82.63,7.1-48.17,30.83-104,60.65-107.7C414,504.29,429,513.23,441.93,526.55Z"/></g></g></svg>