<svg xmlns="http://www.w3.org/2000/svg" viewBox="0 0 1279.95 1621.22"><defs><style>.cls-1{fill:#97bb45;}</style></defs><g id="Layer_2" data-name="Layer 2"><g id="Layer_1-2" data-name="Layer 1"><path class="cls-1" d="M471.5,1577.58c-60.05-41.25-85.19-200.14-177-197.37C188.32,1383.42,87.91,1270.44,119.32,1155c17.49-64.28,70.42-60.9,110-148.32,27.37-60.38,49.16-165.79,0-229.66-53.79-69.9-141.87-24.16-196.16-90.9C-24.65,615-3.75,465.9,71.47,413.37c74.13-51.76,160.7,18.38,210.52-33.49,48.48-50.47-17.89-133.09,33.49-239.23C349,71.51,410,38.7,425.53,30.61,547.56-32.91,724,8,774.8,102.37c37.63,70-16.28,127.36,23.92,172.25,55.77,62.26,175.44-30.45,282.29,28.7,99.38,55,146.77,218.77,95.69,287.08-50.41,67.41-68.38,42.55-135.84,117-58.3,64.37-27.8,124.85,38.28,186,83.24,77,87.28,21.92,159.76,94.12,74.51,74.23,41,271.16-47.85,315.78-69.77,35-138.2-41.59-200.95,0-54.11,35.87-21.47,105-81.33,191.38-35.73,51.57-114,96.62-181.82,110C619.18,1626.07,555.66,1635.39,471.5,1577.58Z"/></g></g></svg>