<svg xmlns="http://www.w3.org/2000/svg" viewBox="0 0 1024 768"><defs><style>.cls-1{fill:#fed252;}.cls-2{fill:#29424c;}.cls-3{fill:#04252d;}.cls-4{fill:#fff4cc;}.cls-5{fill:#d09f05;}.cls-6{fill:#bfd788;}.cls-7{fill:#eaf1d7;}</style></defs><g id="Layer_2" data-name="Layer 2"><g id="Layer_1-2" data-name="Layer 1"><rect class="cls-1" width="1024" height="768"/><path class="cls-2" d="M710.9,290.41a300.66,300.66,0,0,0-12.4-34.77c-13-30.34-28.42-51.09-34.57-91.15-1.48-9.64-2.34-19.86-9-32.46-1.45-2.75-12.29-22.63-34.58-34.93q-1.23-.7-2.52-1.35c-.5-.25-1-.5-1.5-.74h0a76.62,76.62,0,0,0-15.17-5.43c-17.61-4.3-32-1.3-43.53,1.25a145.75,145.75,0,0,0-33.74,12l-1.12.56a181.7,181.7,0,0,0-36.88,25.32c-8,6.93-14.72,13.75-20.44,19.58a293.48,293.48,0,0,0-51.22,71.17c-.53,1-1.05,2-1.56,3s-1,2-1.52,3C358.35,332.19,373,438.91,378.41,470.41c10.28,59.89,18.25,106.37,60.18,137.36,20.14,14.89,42.36,21.94,62.49,24.93l.84.12c28.75,4.11,53.1,0,60.86-1.33C637.85,618.78,678,562.85,687,550.33q4.17-5.8,7.73-11.65C724.57,490,725,440.21,725.39,400.49,725.5,388.51,725.92,342.11,710.9,290.41Zm-12.4-34.77c-13-30.34-28.42-51.09-34.57-91.15-1.48-9.64-2.34-19.86-9-32.46-1.45-2.75-12.29-22.63-34.58-34.93q-1.23-.7-2.52-1.35c-.5-.25-1-.5-1.5-.74h0a76.62,76.62,0,0,0-15.17-5.43c-17.61-4.3-32-1.3-43.53,1.25a145.75,145.75,0,0,0-33.74,12l-1.12.56a181.7,181.7,0,0,0-36.88,25.32c-8,6.93-14.72,13.75-20.44,19.58a293.48,293.48,0,0,0-51.22,71.17c-.53,1-1.05,2-1.56,3s-1,2-1.52,3C358.35,332.19,373,438.91,378.41,470.41c10.28,59.89,18.25,106.37,60.18,137.36,20.14,14.89,42.36,21.94,62.49,24.93l.84.12c28.75,4.11,53.1,0,60.86-1.33C637.85,618.78,678,562.85,687,550.33q4.17-5.8,7.73-11.65C724.57,490,725,440.21,725.39,400.49c.11-12,.53-58.38-14.49-110.08A300.66,300.66,0,0,0,698.5,255.64Zm53.71-54.22C720.06,99.12,666.84,70,642.3,53.26,630.8,45.4,573.94,18.94,511,41.89c-30.14,11-52.58,18.75-74.2,44-58.61,68.36-122,141-130.31,258.13C304,380.15,288.78,604.54,427,678.38c94.06,50.23,193.51,52.93,290.22-68.46C814.72,487.6,785.58,307.58,752.21,201.42Zm-4,219.21c-.76,1.93-6.4-.67-10.37,1.94-5.64,3.72-2.28,14.3-3.24,28.5-.7,10.45-3.38,17.63-8.42,31.09-7.61,20.37-13.65,24.37-11.66,34.34,1.75,8.75,8.07,13.91,5.83,16.84-2.12,2.77-8.05-1.51-14.9,0-3.83.84-6.23,3.11-8.48,6.73-3.3,5.31-6.28,13.5-12.89,24.36-13,21.38-23.88,26.35-22,38.22.93,6,4.54,10.33,2.6,12.3-2.66,2.69-9.84-4.94-19.44-3.88-9.38,1-9.47,9.1-21.37,15.54-10.39,5.62-13.61,1.25-33,7.13-11,3.33-19.59,6-21.37,12.3-2.23,7.83,7.4,16.76,6.47,17.49s-7.91-9.19-20.08-16.84c-6.41-4-16.1-10.13-24-6.48-5.47,2.55-7.7,8.64-8.42,11-1.45,4.78-1.17,12.57-2,13-.2.1-1,.82-1.88-5.2-1.42-9.59-6.22-15.77-12.31-19.43a15.53,15.53,0,0,0-6-2.1c-.29-.05-.58-.09-.88-.12-1.85-.21-3.82-.24-6.1-.37-6.65-.38-27.49-1.55-42.75-11-9.94-6.16-11.2-11.92-21.38-14.25-2.81-.64-8.53-1.86-14.25.65-9.16,4-12.55,15.12-12.95,14.9s3.74-6.49,5.83-14.9c1.08-4.34,3-12.14,0-20.73-.68-1.91-4.52-12.82-13-14.89-6.69-1.65-12.95,3.09-13.6,1.94-.81-1.44,10.51-6.21,11.66-14.25.8-5.61-3.8-9.62-7.78-14.9-3.68-4.9-4.78-8.18-13-43.4-5.53-23.82-8.29-35.74-8.42-36.92-1.52-13.71-2.21-36.4-5.83-49.88-1.23-4.6-2.28-8.49-5.18-12.95s-4.84-5.08-5.18-7.77c-.69-5.44,6.36-8.06,10.36-14.9,3.5-6,1.85-10.38.65-25.91-1.32-16.93-2-26.13,0-36.92,2.27-12.07,7.1-21.49,10.36-27.86,6-11.68,10-15.08,14.25-27.2,4.94-14.19,2.75-19.17,1.94-20.73-3.76-7.27-13.36-9.2-13-10.36s10.73,4.1,19.43,1.29c5-1.61,8-5.43,10.74-10.93.53-1.07,1.06-2.2,1.58-3.4,1.58-3.58,3.19-7.69,5.17-12.23,8.17-18.73,21.18-35,31.74-52.46s16-26.29,24.62-27.86c7-1.26,14.72,1.54,18.5-1.58a5,5,0,0,0,.93-1c1.57-2.23,1.43-5.61,1.29-9.07-.24-6.15-2.16-7.8-1.29-9.71,1.91-4.2,13.44,1.18,24-1.3A53.51,53.51,0,0,0,522.13,102c.38-.19.75-.39,1.11-.59,11.3-6.11,16.2-14.29,31.28-17,16.37-2.94,28.25,3.51,33.68-3.89,3.55-4.84,1.2-11.31,3.89-12.3,3.24-1.21,7.84,7.79,14.9,15.54a50.72,50.72,0,0,0,10.5,8.93c.49.31,1,.61,1.47.89.84.49,1.69.94,2.52,1.36l.08,0c12.92,6.49,24.71,5.44,34.66,19.23,5.65,7.84,6.84,15.13,14.89,18.13,7.24,2.7,15,.05,15.55,2,.52,1.75-6.35,3.12-9.72,8.42-5.25,8.25,1,21.31,7.13,33.68,9.18,18.59,12.48,15.56,16.19,27.2,5,15.67.31,25.12,8.42,32.39,4.86,4.35,9.5,3.62,11.66,8.42,2.33,5.18-1.64,9.23-3.88,17.49a51,51,0,0,0,.41,26.74c1.94,6.55,5.27,12.17,10,15.36s8.94,2.73,10.36,6.48c1.78,4.69-3.44,9.1-6.47,14.9-8.32,15.9,8.31,25.86,7.12,55.06-.57,13.93-4.8,22.56,1.3,30.44C742.78,415.63,749,418.6,748.2,420.63ZM710.9,290.41a300.66,300.66,0,0,0-12.4-34.77c-13-30.34-28.42-51.09-34.57-91.15-1.48-9.64-2.34-19.86-9-32.46-1.45-2.75-12.29-22.63-34.58-34.93q-1.23-.7-2.52-1.35c-.5-.25-1-.5-1.5-.74h0a76.62,76.62,0,0,0-15.17-5.43c-17.61-4.3-32-1.3-43.53,1.25a145.75,145.75,0,0,0-33.74,12l-1.12.56a181.7,181.7,0,0,0-36.88,25.32c-8,6.93-14.72,13.75-20.44,19.58a293.48,293.48,0,0,0-51.22,71.17c-.53,1-1.05,2-1.56,3s-1,2-1.52,3C358.35,332.19,373,438.91,378.41,470.41c10.28,59.89,18.25,106.37,60.18,137.36,20.14,14.89,42.36,21.94,62.49,24.93l.84.12c28.75,4.11,53.1,0,60.86-1.33C637.85,618.78,678,562.85,687,550.33q4.17-5.8,7.73-11.65C724.57,490,725,440.21,725.39,400.49,725.5,388.51,725.92,342.11,710.9,290.41Z"/><path class="cls-3" d="M501.92,632.82l-.66,4.65c-.29-.05-.58-.09-.88-.12-1.85-.21-3.82-.24-6.1-.37-6.65-.38-27.49-1.55-42.75-11-9.94-6.16-11.2-11.92-21.38-14.25-2.81-.64-8.53-1.86-14.25.65-9.16,4-12.55,15.12-12.95,14.9s3.74-6.49,5.83-14.9c1.08-4.34,3-12.14,0-20.73-.68-1.91-4.52-12.82-13-14.89-6.69-1.65-12.95,3.09-13.6,1.94-.81-1.44,10.51-6.21,11.66-14.25.8-5.61-3.8-9.62-7.78-14.9-3.68-4.9-4.78-8.18-13-43.4-5.53-23.82-8.29-35.74-8.42-36.92-1.52-13.71-2.21-36.4-5.83-49.88-1.23-4.6-2.28-8.49-5.18-12.95s-4.84-5.08-5.18-7.77c-.69-5.44,6.36-8.06,10.36-14.9,3.5-6,1.85-10.38.65-25.91-1.32-16.93-2-26.13,0-36.92,2.27-12.07,7.1-21.49,10.36-27.86,6-11.68,10-15.08,14.25-27.2,4.94-14.19,2.75-19.17,1.94-20.73-3.76-7.27-13.36-9.2-13-10.36s10.73,4.1,19.43,1.29c5-1.61,8-5.43,10.74-10.93.53-1.07,1.06-2.2,1.58-3.4l7.8.78c-.51,1-1,2-1.52,3C358.35,332.19,373,438.91,378.41,470.41c10.28,59.89,18.25,106.37,60.18,137.36,20.14,14.89,42.36,21.94,62.49,24.93Z"/><path class="cls-3" d="M485.92,128.68c-8,6.93-14.72,13.75-20.44,19.58a293.48,293.48,0,0,0-51.22,71.17c-.53,1-1.05,2-1.56,3l-7.8-.78c1.58-3.58,3.19-7.69,5.17-12.23,8.17-18.73,21.18-35,31.74-52.46s16-26.29,24.62-27.86c7-1.26,14.72,1.54,18.5-1.58Z"/><path class="cls-3" d="M523.92,102.8l-1.12.56a181.7,181.7,0,0,0-36.88,25.32l-1-1.12a5,5,0,0,0,.93-1c1.57-2.23,1.43-5.61,1.29-9.07-.24-6.15-2.16-7.8-1.29-9.71,1.91-4.2,13.44,1.18,24-1.3A53.51,53.51,0,0,0,522.13,102c.38-.19.75-.39,1.11-.59Z"/><path class="cls-3" d="M617.49,92.73,616.37,95h0a76.62,76.62,0,0,0-15.17-5.43c-17.61-4.3-32-1.3-43.53,1.25a145.75,145.75,0,0,0-33.74,12l-.68-1.35c11.3-6.11,16.2-14.29,31.28-17,16.37-2.94,28.25,3.51,33.68-3.89,3.55-4.84,1.2-11.31,3.89-12.3,3.24-1.21,7.84,7.79,14.9,15.54A50.72,50.72,0,0,0,617.49,92.73Z"/><path class="cls-3" d="M716.87,288.67l-6,1.74a300.66,300.66,0,0,0-12.4-34.77c-13-30.34-28.42-51.09-34.57-91.15-1.48-9.64-2.34-19.86-9-32.46-1.45-2.75-12.29-22.63-34.58-34.93q-1.23-.7-2.52-1.35c-.5-.25-1-.5-1.5-.74l1.12-2.28c.49.31,1,.61,1.47.89.84.49,1.69.94,2.52,1.36l.08,0c12.92,6.49,24.71,5.44,34.66,19.23,5.65,7.84,6.84,15.13,14.89,18.13,7.24,2.7,15,.05,15.55,2,.52,1.75-6.35,3.12-9.72,8.42-5.25,8.25,1,21.31,7.13,33.68,9.18,18.59,12.48,15.56,16.19,27.2,5,15.67.31,25.12,8.42,32.39,4.86,4.35,9.5,3.62,11.66,8.42,2.33,5.18-1.64,9.23-3.88,17.49A51,51,0,0,0,716.87,288.67Z"/><path class="cls-3" d="M748.2,420.63c-.76,1.93-6.4-.67-10.37,1.94-5.64,3.72-2.28,14.3-3.24,28.5-.7,10.45-3.38,17.63-8.42,31.09-7.61,20.37-13.65,24.37-11.66,34.34,1.75,8.75,8.07,13.91,5.83,16.84-2.12,2.77-8.05-1.51-14.9,0-3.83.84-6.23,3.11-8.48,6.73l-2.25-1.39C724.57,490,725,440.21,725.39,400.49c.11-12,.53-58.38-14.49-110.08l6-1.74c1.94,6.55,5.27,12.17,10,15.36s8.94,2.73,10.36,6.48c1.78,4.69-3.44,9.1-6.47,14.9-8.32,15.9,8.31,25.86,7.12,55.06-.57,13.93-4.8,22.56,1.3,30.44C742.78,415.63,749,418.6,748.2,420.63Z"/><path class="cls-3" d="M684.07,564.43c-13,21.38-23.88,26.35-22,38.22.93,6,4.54,10.33,2.6,12.3-2.66,2.69-9.84-4.94-19.44-3.88-9.38,1-9.47,9.1-21.37,15.54-10.39,5.62-13.61,1.25-33,7.13-11,3.33-19.59,6-21.37,12.3-2.23,7.83,7.4,16.76,6.47,17.49s-7.91-9.19-20.08-16.84c-6.41-4-16.1-10.13-24-6.48-5.47,2.55-7.7,8.64-8.42,11-1.45,4.78-1.17,12.57-2,13-.2.1-1,.82-1.88-5.2-1.42-9.59-6.22-15.77-12.31-19.43a15.53,15.53,0,0,0-6-2.1l.66-4.65c28.75,4.11,53.1,0,60.86-1.33C637.85,618.78,678,562.85,687,550.33q4.17-5.8,7.73-11.65l2.25,1.39C693.66,545.38,690.68,553.57,684.07,564.43Z"/><path class="cls-4" d="M725.39,400.49c-.36,39.72-.82,89.52-30.68,138.19q-3.57,5.84-7.73,11.65c-9,12.52-49.13,68.45-124.2,81.16-7.76,1.32-32.11,5.44-60.86,1.33l-.84-.12c-20.13-3-42.35-10-62.49-24.93-41.93-31-49.9-77.47-60.18-137.36-5.41-31.5-20.06-138.22,32.77-244.91.5-1,1-2,1.52-3s1-2,1.56-3a293.48,293.48,0,0,1,51.22-71.17c5.72-5.83,12.48-12.65,20.44-19.58a181.7,181.7,0,0,1,36.88-25.32l1.12-.56a145.75,145.75,0,0,1,33.74-12c11.55-2.55,25.92-5.55,43.53-1.25A76.62,76.62,0,0,1,616.36,95h0c.51.24,1,.49,1.5.74q1.29.65,2.52,1.35C642.68,109.4,653.52,129.28,655,132c6.62,12.6,7.48,22.82,9,32.46,6.15,40.06,21.53,60.81,34.57,91.15a300.66,300.66,0,0,1,12.4,34.77C725.92,342.11,725.5,388.51,725.39,400.49Z"/><path class="cls-2" d="M566.65,20.21c0,1.93,18.85.65,45.43,7.1a210.51,210.51,0,0,1,66,29.11c7.39,4.79,36.12,24,63.89,62.47,30.94,42.81,41,82.17,53.25,129.92C806.34,292.16,820,345.52,813,413.52c-3.81,37-13.38,74.84-9.22,76,2.8.76,9.69-15.81,12.77-24.14a174.76,174.76,0,0,0,10.65-58.92c.85-65.34,1.27-98-1.42-120.69-6.66-56.29-12.3-103.92-41.88-156.9-10.46-18.73-25.5-45.07-55.38-69.57-11.46-9.39-43.32-34.88-90.87-42.6C600.36,10.62,566.64,17.64,566.65,20.21Z"/><path class="cls-5" d="M711.81,145.67c-6.74-1-11.93,2.79-14.91,5-5.79,4.23-10.35,10.77-9.23,12.07.69.8,3.19-.66,7.64-2.65,15.74-7,25.06-6.82,25.12-9.73C720.48,148.13,715.27,146.17,711.81,145.67Z"/><path class="cls-5" d="M724.83,167.91c-1.58-2.2-6-1.5-9.42-.95-1.89.3-11.45,1.83-16,9.74-1,1.65-3.2,5.54-1.57,8.48s5.9,3.08,7.22,3.14c5.38.26,9.4-2.87,11.31-4.4C721.93,179.45,727.21,171.22,724.83,167.91Z"/><path class="cls-5" d="M745.87,204.65c-.91-2.71-2.45-7.28-6.6-9.11-3-1.32-5.86-.46-11.62,1.26a33.08,33.08,0,0,0-12.24,6c-3.11,2.52-6.8,6.59-6,7.86.57.87,2.84-.24,8.16-1,3.42-.45,9.72-1.29,10.37.32s-4.88,5.71-9.11,8.79c-4.94,3.6-7.36,4.59-7.22,6.28.2,2.47,5.62,3.84,6.59,4.09,1.47.37,5.72,1.25,12.88-1,6.61-2,11.3-3.47,14.13-8.16C749,213.85,746.59,206.78,745.87,204.65Z"/><path class="cls-5" d="M750,247.05c-3.28-.38-8.73-1-14.44,1.88-.73.37-10.38,5.39-9.74,11.93.23,2.38,1.83,5.13,3.77,5.34,2.46.28,3.66-3.75,7.22-7.53,7.81-8.31,19.68-7.71,19.47-9.74C756.11,247.76,752.12,247.3,750,247.05Z"/><path class="cls-5" d="M759.06,267.15c-3.14-1.84-6.82-.17-13.19,2.82-7.08,3.33-16.73,7.87-16.33,13.51.16,2.23,1.84,3.71,4.4,6,2.1,1.85,5.77,4.45,16.33,6.91,7.5,1.75,13.74,3.21,14.76,1.26.91-1.75-2.72-5.65-5.66-7.85-6.11-4.59-13-4.61-12.87-5.66.06-.79,4-.42,9.1-2.51,3.1-1.25,5.89-2.38,6.91-5C763.77,273.35,762,268.89,759.06,267.15Z"/><path class="cls-5" d="M768.48,326.5c-1.65-3-6.8-2.91-11.93-2.82a29.83,29.83,0,0,0-15.39,4.08c-2.42,1.45-8.49,5.09-7.85,8.48.59,3.14,6.6,4.33,10.05,5,4.67.93,13.62,2.72,20.1-2.82C766.91,335.48,770.33,329.87,768.48,326.5Z"/><path class="cls-5" d="M769.74,362.3c-.33-2.12-6.51-2.75-10.37-3.14-6.31-.64-10.75-1.09-13.5,1.89-2.29,2.47-3.09,7-1.26,9.1,2.34,2.73,8.23.8,13.51-.94C759.05,368.91,770.19,365.25,769.74,362.3Z"/><path class="cls-5" d="M771.62,401.25c-1.51-4.65-5.13-7-6.91-8.17-1.58-1-6.93-4.51-13.19-2.83-.87.24-6.52,1.77-7.22,5.34-.8,4.09,5.39,8.15,10.68,11.62,5.71,3.75,11.65,7.65,15.07,5.34C773,410.54,772.75,404.73,771.62,401.25Z"/><path class="cls-5" d="M770.37,434.22c-1.79-2.41-5.93-2.05-14.14-1.25s-12.35,1.25-14.13,4.08c-.46.72-1.1,2.1,0,9.73,1,7.07,1.53,10.6,3.14,14.14,1.46,3.2,5.34,11.73,12.25,12.56,3.41.41,7.31-1.1,7.54-2.83.3-2.29-6.11-2.92-9.74-8.79-2-3.24-3.39-8.46-1.26-11,1.9-2.26,4.9-.39,10.37-3.14a12.05,12.05,0,0,0,5.34-4.4C771.24,440.85,772.2,436.7,770.37,434.22Z"/><path class="cls-5" d="M733.62,492.64c1-1,3.62,1.69,13.19,5.33,6.91,2.64,9.75,2.82,10.68,5.34,1,2.7-.74,6.61-3.46,7.85-3.45,1.58-7.53-1.62-10.67-4.08C736.94,502.05,732.11,494.21,733.62,492.64Z"/><path class="cls-5" d="M725.14,514.62c1.26-.87,3.8,3,14.13,10.68,5.36,4,7.85,5.33,7.86,7.85,0,2.94-3.38,6.14-6.6,6.28-4.39.19-7.57-5.31-10.68-10.68C727.17,524.12,723.39,515.83,725.14,514.62Z"/><path class="cls-5" d="M727.34,554.5c-1-4.3-5.6-6-8.17-6.91-1.6-.58-7-2.55-11.93.32-3.59,2.1-6.51,6.56-5.34,8.79,1,1.83,3.81.47,8.8,2.2,6.43,2.23,7.34,6.44,10.67,6C724.87,564.37,728.4,559.08,727.34,554.5Z"/><path class="cls-5" d="M706.61,589.36c2.35-.83,3.28-4.72,2.83-7.53-1-6.47-9.94-11-12.56-9.11-2.17,1.56-.71,7.94,2.2,11.93C699.51,585.25,703.41,590.49,706.61,589.36Z"/><path class="cls-5" d="M694.68,611.66c2-1.78.94-6.72-1.26-9.73-3.13-4.31-8.67-4.72-12.87-5s-8.35-.62-10.37,1.89c-2.51,3.12-.11,8.56,2.2,13.81,2.16,4.92,4.55,10.34,9.42,11.31,2.38.47,5.78,0,6.6-1.88,1.61-3.65-7.78-10.2-6.6-11.94S691.65,614.4,694.68,611.66Z"/><path class="cls-5" d="M663,645.58c2.19-.76,2.77-5.51,2.2-8.79-1.58-9.12-13.36-14.89-15.71-12.88-1.34,1.15.26,5,1.58,8.16C653.8,638.76,659.72,646.7,663,645.58Z"/><path class="cls-5" d="M645.06,647.15c.6-3.63-3.56-6.59-5.34-7.85s-4.61-3.27-7.54-2.51c-2.59.67-4,3.07-5,5-3.34,6.09-4.7,15.69-.94,17.9,2.06,1.22,5.71.22,7.22-1.88,2-2.8-.44-6.65,1.25-7.85s4.51,2.2,7.54.94A5.1,5.1,0,0,0,645.06,647.15Z"/><path class="cls-5" d="M616.17,671c2.31-3.06-3.67-11-6-14.14s-4.91-6.49-9.42-9.1c-3.1-1.8-7.37-4.27-11.94-2.83-2.79.88-6.2,3.37-6.28,6.28-.06,2.39,2.18,3.08,6.6,8.17,3.31,3.82,5.51,6.35,6.59,10.05,1.6,5.47-.66,8.71,1.26,10s6.86-.49,8.48-3.77c2.09-4.24-1.52-10.12-.94-10.37s2.1,5.32,6.28,6.6C612.55,672.49,615.11,672.41,616.17,671Z"/><path class="cls-5" d="M569.69,681.38c.63-2.21-.45-4.68-5.66-10.36-11.25-12.29-17.58-19.2-23.55-17.28-7.51,2.42-9,17-7.85,25.44.14,1,1.5,10.58,5,11,2.36.28,5.08-3.58,6.28-6.59,2.05-5.11.19-8.9,1.89-9.74s5.45,2.6,7.22,4.71c3.33,4,2.69,6.28,5,7.54C561.65,688,568.51,685.45,569.69,681.38Z"/><path class="cls-5" d="M506.25,687.35c4.83-2.94,5.13-9.85,5.34-14.76.15-3.63.4-9.48-3.46-14.76-1.73-2.38-5.46-6.23-7.22-5.34-2.66,1.34,3.8,11.13.31,22.92-1.91,6.47-5.67,9.68-4.08,11.94C498.55,689.36,503.21,689.19,506.25,687.35Z"/><path class="cls-5" d="M489,673.22c1.52-1.62-3.77-5.77-3.76-12.88,0-7.45,5.82-11.62,4.08-13.82-1.25-1.58-5.46-1-8.17.94-6.16,4.33-6.68,16.76-.94,22.62C483.06,673,487.74,674.53,489,673.22Z"/><path class="cls-5" d="M456.63,666c3.05-2.61-1.22-7.68,1.25-16.64,1.69-6.12,5.1-8.91,3.77-10.68-1.17-1.56-5.34-1.42-7.85.63-3.64,3-.78,7.52-4.08,15.39-2.22,5.27-4.9,6.55-4.09,8.79C446.79,666.65,453.75,668.46,456.63,666Z"/><path class="cls-5" d="M426.16,649.66c4.06-2.26,3.67-9.46,3.46-13.5-.07-1.36-.76-14.26-5.34-15.08-.92-.16-2.13.13-9.42,8.8-8.1,9.61-8.35,11.32-7.85,12.56.93,2.33,4.81,3.69,7.53,2.82,3.35-1,4.59-5.33,5.34-5,.95.38-2.08,6.64.32,9.11C421.54,650.72,424.33,650.68,426.16,649.66Z"/><path class="cls-5" d="M395.07,606.32c1-9.62.87-12.66-1.25-14.44-2.49-2.09-6.31-1.25-9.11-.63-10.38,2.28-19.38,11.19-17.9,14.44,1,2.18,6.64,1.74,8.79,1.57,7.25-.56,10.41-4.08,11.94-2.82,2.79,2.3-7.31,14.49-2.83,21.67,1.08,1.73,3.22,3.51,5,3.14C392.72,628.63,393.54,621.18,395.07,606.32Z"/><path class="cls-5" d="M374,557c1.57.31,2.44,6.84.63,12.87-.2.67-4,12.7-13.51,14.13-3.44.52-9.07-.13-10.67-3.76-1.16-2.62,0-6.18,2.2-8.17,3.39-3.16,7.05-.48,11.93-2.83C371.55,565.92,372.13,556.64,374,557Z"/><path class="cls-5" d="M365.24,543.83c2.48,4.53,1.4,10.76-2.2,14.76A13.83,13.83,0,0,1,353.3,563c-4.37.09-9.69-1.94-12.24-6.91a13.08,13.08,0,0,1,2.19-14.76C349.12,535.29,361.28,536.59,365.24,543.83Z"/><path class="cls-5" d="M337,512.11c8-.54,12-.81,15.71-.32,6.2.82,8.65,2.49,10.36.94,2-1.85,1.8-7.23-.94-9.73-4.75-4.34-14.6,2.1-17.28-1.57-1.27-1.75-.41-5.09,1.26-6.91,3-3.24,7.52-.48,10.68-3.45,2.73-2.58,3.2-8.29.63-11-3.4-3.58-10.77-.49-11.94,0-5.83,2.45-5.41,5.82-11,8.8-7.29,3.89-14,1.36-14.76,3.77-.8,2.7,7.83,5.47,7.85,11,0,4.32-5.27,6.6-4.4,8.48C323.88,513.65,327.75,512.73,337,512.11Z"/><path class="cls-5" d="M326.92,443.33c.67,4.36,10.43,8.07,17.59,5,2.48-1.05,6.58-3.74,6.28-6.59-.46-4.37-11.25-9.11-18.53-5.34C329.88,437.66,326.5,440.52,326.92,443.33Z"/><path class="cls-5" d="M345.14,417.26c-2.62-4.14-6.67-5.69-10.68-7.22-4.56-1.74-12.2-4.65-17.59-.94-2.34,1.61-4.56,4.67-3.77,6.59.64,1.53,2.89,1.6,10.68,2.51,11.53,1.35,13,2,14.13,2.52,5.71,2.87,7.39,7.58,8.8,6.91S347.77,421.43,345.14,417.26Z"/><path class="cls-5" d="M315.93,386.49c.93,3,9.46,3.28,15.39,2.19,3.11-.56,10.43-1.9,15.07-8.16,3.15-4.24,5.2-10.91,2.83-13.19-1.22-1.18-2.77-.37-7.85,0-9.28.68-13.77-1.29-14.76.63-1.15,2.22,4.39,5.84,3.14,8.48-1,2.06-4.75.65-9.11,3.45C318.31,381.39,315.29,384.43,315.93,386.49Z"/><path class="cls-5" d="M328.81,347.23a15.41,15.41,0,0,0,10.36-.94,15.17,15.17,0,0,0,6.28-5.66c2.48-4,3.63-10.31.63-15.07-2.43-3.84-6.44-4.91-11.62-6.28-7.65-2-15.71-1.6-16,0s8.89,2.51,11.94,9.42c1.36,3.08,1.55,7.51-.63,9.42-3.41,3-10.64-1.91-11.62-.31S322,345.5,328.81,347.23Z"/><path class="cls-5" d="M329.54,289.07c3.8,5.33,6.4,6.78,7.7,7.21,5.81,1.92,13.92,3.47,16.38-.56,1.79-2.94-.32-7.56-2.2-10.05-6.57-8.69-22.63-7.73-23.87-4.39C327.29,282,325.67,283.65,329.54,289.07Z"/><path class="cls-5" d="M344.44,247.31c2.51,3.72,8,.28,15.4,3.74,6.65,3.09,8.23,8.61,11.88,7.7a4.92,4.92,0,0,0,3.52-4.18c.11-1.8-1.26-3.25-4-5.5-5.91-4.93-8.86-7.4-13.86-9-4.29-1.4-9.67-3.15-12.32-.44A6.61,6.61,0,0,0,344.44,247.31Z"/><path class="cls-5" d="M359.59,212.34c1,3.93,6.64,5.22,16.4,7.46,7.06,1.62,10.64,2.39,13.43.75,4.95-2.93,6.93-10.88,4.47-13.43-1.86-1.93-4.83.74-11.93.75-10.51,0-15-5.84-19.39-3A7.36,7.36,0,0,0,359.59,212.34Z"/><path class="cls-5" d="M378.23,181c-.31,3.63,8.36,7.91,15.66,8.2,2.47.1,7.74.31,9.7-3,1.72-2.9.2-7.39-2.24-9.7C394.91,170.44,378.64,176.22,378.23,181Z"/><path class="cls-5" d="M400.61,146c-.89,3.54,5.34,9.38,11.93,9.7,3.45.17,8.35-1.11,8.95-3.73.84-3.71-6.85-10.44-14.17-9.7C405.14,142.46,401.21,143.53,400.61,146Z"/><path class="cls-5" d="M426.71,111.66c-2.68,2.46-.35,12,6,15.66,4,2.37,10.21,2.65,11.93,0,2-3-2.31-9.41-6.71-12.68C434.74,112.3,428.93,109.61,426.71,111.66Z"/><path class="cls-5" d="M462.51,112.4c-7.18,1.45-17.33-9.7-16.41-20.13.72-8.23,8.06-13.09,9.7-14.18,11.44-7.57,29.11-5,35.8,4.48,2.38,3.37,4.07,8.58,2.23,10.44-2.18,2.21-7.95-1.75-21.63-5.22-4.13-1.05-14-3.54-14.91-1.49C456.13,88.8,470,94.05,470,102.71,470,107.13,466.35,111.63,462.51,112.4Z"/><path class="cls-5" d="M505.77,58c-3,2.4-.31,14.46,7.45,18.64,3.68,2,7.59,1.7,10.45,1.49,3.6-.25,8.48-.61,11.18-3.72,5.72-6.59-1.14-22.25-6-22.38-3.11-.08-3.38,6.32-8.95,8.21C513.56,62.35,508.34,55.87,505.77,58Z"/><path class="cls-5" d="M549,49c-2,1-1.31,11.08,5.22,17.15,3.43,3.19,9.16,5.91,10.45,4.48C567.27,67.75,552.33,47.42,549,49Z"/><path class="cls-5" d="M569.91,43.79c-4.43,3.5-3.53,12.38,1.49,15.66a9,9,0,0,0,9.69,0c3.91-2.58,4.92-8,3-11.93C581.45,42.24,573.84,40.67,569.91,43.79Z"/><path class="cls-5" d="M631.81,61.69c-5.59,3-2.44,14.3-6.71,15.66-4,1.26-10.48-7.22-13.43-11.93-5.09-8.15-5.22-14.17-7.46-14.17s-4.87,5.74-4.47,11.18c.14,1.93.83,6.14,10.44,15.66,8.62,8.55,12.93,12.82,18.64,13.43,6.48.69,15-2,18.65-9,.45-.85,3.4-6.66.75-12.68C645.18,63,636.33,59.27,631.81,61.69Z"/><path class="cls-5" d="M680.29,95.25c-1.23-6-8.92-10.94-13.43-9-3.89,1.71-4.31,8.06-4.47,10.44-.29,4.3.56,12.15,4.47,13.42C671.73,111.76,681.92,103.31,680.29,95.25Z"/><path class="cls-5" d="M697.07,114.23c-5.49-3-13.76-2.52-15.67,1.49-1.33,2.81.73,6.79,3,9,5.84,5.58,17.82,3.57,19.39-.74C704.89,120.86,700.85,116.29,697.07,114.23Z"/><path class="cls-5" d="M708.86,56.86C711,55,730.24,72.21,744.44,88.21c32.48,36.59,45.7,74.66,55.07,102.51,19.76,58.72,22.77,113.06,20.33,113.53-1.23.23-3.73-13.29-13.55-46.6-14.92-50.58-22.38-75.87-35.59-100.82C760,136.69,745,114.11,728.34,89.06,715.88,70.32,707.21,58.29,708.86,56.86Z"/><path class="cls-5" d="M405.25,89.4c-5.4,5.52-3.13,8.52-8.47,16.94-6.6,10.43-13.47,11.19-21.18,18.64-10.31,10-9.88,20-15.25,35.59-8,23-20.51,34.45-29.65,46.59-29.83,39.61-37.85,106-41.51,136.4-5.24,43.36-12.72,105.28,11.86,157.58,5.78,12.31,14.2,25.92,20.33,50,7.27,28.55,2.89,38.71,12.71,61,8.36,19,20,30.88,28.8,39.81,20.53,20.93,40.92,30.71,56.77,38.13,18.37,8.6,102.33,28.58,107,21.36,1.8-2.77-54.1-13.57-56.19-24.75-2.61-13.92.52-25.16-.85-25.42s-2.1,11-10.17,16.1c-1.07.68-6,4.06-11,2.54-6.25-1.89-9.09-10.29-9.32-16.09,0,0-.16-4.12,5.93-19.49,0,0,1.69-6-.07-7.39-1.07-.89-3.61-.25-5.31,1.1-4.95,3.91-.28,11.68-5.32,18.38-.33.44-3.52,4.56-8.19,4.86-3.81.25-6.33-2.21-11.29-6-4-3,6.05,5-15.05-10-19.88-14.05-22.51-16.7-22.36-20.15.18-4,3.93-6.3,2.66-8.41-1.17-1.95-4.66-.38-9.74-1.55-6.58-1.51-13.49-7.1-13.5-12.39,0-4.05,4-5.67,3.1-8.64s-4.78-2-8.86-5.09c-4.43-3.32-3.75-7.21-8.41-17.71-3.52-7.94-4.19-6.33-6.2-11.73-1.53-4.11-5.87-15.77-.66-24.13,3.35-5.37,9-6.78,8.41-8.63s-7.11.08-14.39-3.54a23,23,0,0,1-6.42-4.87c-7.23-7.33-12.19-21-7.52-30.77,1.11-2.33,4.14-5.24,10.18-11.07,7.38-7.1,11.28-9.4,10.63-11.73s-5.15-1.46-11.52-4.2c-7.28-3.14-15.65-10.47-14.83-16.61s10.71-8.61,9.74-12.17c-.58-2.17-4.37-1.63-8.41-5.53a17.94,17.94,0,0,1-4.2-6.64c-2.11-5.28-3.3-14.43,1.1-17.93,3.33-2.65,8.3-.86,8.64-2.22s-5.21-2.29-8.19-6.86c-2.81-4.3-2.93-11.19.22-15,2.83-3.49,6.88-2.74,7.74-5.76s-3-5.22-2-7.74c.83-2.06,4.19-2.59,10.85-3.55,6-.86,8.91-.67,9.07-1.55.09-.46-.6-1.28-7.08-4-9.87-4.11-12.32-3.89-14.83-6.42s-2.91-5.67-3.54-11.51c-.9-8.36-2.37-22,4.65-26.56,3-1.93,7.6-1.58,16.82-.89,6.14.47,9.82,1.41,10.18.44s-3.27-2.83-9.29-7.3-9.13-6.78-10.63-9.3c-3.55-6-3.43-16.05,2.44-21.91,6.15-6.14,15.66-4.7,17.26-4.43,8.61,1.48,13.26,7.83,15.72,6,1.36-1,1.34-4,.22-6-2.37-4.15-8.43-1.61-13.73-5.31-6.85-4.78-6.49-15.84-6.41-18.37,0-1.42.44-13.93,7.08-16.61,5-2,10.83,2.59,12,.89.8-1.2-2.22-3.32-3.54-8-1.18-4.15-.28-7.74.44-10.62,1-4.05,2.91-11.57,8.19-13.51,2.91-1.06,4,.6,13.95,2,2.66.37,8.57,1.2,8.85.22.34-1.16-7.89-2.33-12.61-9.08-1.13-1.61-4-6.37-2.88-11.73,1.52-7,9-10.4,10.62-11.07,14-5.82,31.1,5.61,31.88,4,.55-1.16-9.09-5-14.39-15.06-1.42-2.7-3-5.85-2.43-9.74,1-6.61,7.84-12.49,14.16-12.61,5.49-.11,8.56,4.17,11.29,2.43,2-1.26,2-4.53,2-7.3,0-8.35-4-10.57-2.87-15,1.13-4.67,6.92-8.29,11.95-8.64,8.33-.57,14.67,7.85,15.94,6.64,1.11-1.05-5.21-6.15-6-13.94-1-10.22,8.32-16.78,6-19.92-.73-1-2.61-1.65-16.61,2.43C416.1,83.3,409.2,85.37,405.25,89.4Z"/><path class="cls-2" d="M463.09,689.91c-21-4.66-40.27-15.21-57.17-25.9-6.13-3.88-25.56-11.06-45.05-36.38C345.29,607.38,337.74,589,335.46,590c-1.63.72,1,10.56,3.61,17.53A89.41,89.41,0,0,0,359.69,639c28.29,28.82,62.41,45.9,62.41,45.9,20.6,10.32,38.48,14.62,74.26,23.21,38.13,9.16,50.29,8.27,55.7,1.55,4.06-5.07,5.13-14.46,2.58-16-2.22-1.32-6.54,4.34-9.29,5.16C522.66,705.55,488.62,695.59,463.09,689.91Z"/><path class="cls-2" d="M312.49,468.78c-.15-8.45-5.21-11.85-9.69-20.07-6.77-12.41-1.08-15.37-4.15-53.28-1.38-17-3.16-24.16,2.07-30.44,5-6,13.72-8,13.15-11.08-.39-2.12-4.48-1.42-8.26-4.29-7.6-5.76-5.78-19.7-4.49-29.62.86-6.6,2-15,7.14-16.92,2.8-1.07,5.67.24,6.34-1.06.88-1.69-3.86-4.17-6.08-9.52-2.77-6.68.27-13.34-.26-13.48s-3.44,5.84-7.14,20.09c-6.12,23.53-7.37,42.7-8.2,57.92-1.87,34.32-2.8,51.48-2.12,65.31.49,9.8,3.18,64.06,12.43,64.79C307.25,487.45,312.64,477.68,312.49,468.78Z"/><path class="cls-2" d="M400.91,115.54a159.16,159.16,0,0,1-13.74,10.61c-8.37,6-9.63,6.11-11.55,9.06-.79,1.21-4.88,7.48-2.5,14.36a14.62,14.62,0,0,0,5.62,7.18c4.52,3.11,10.58,3.61,11.24,2.19s-5-3.23-6.24-8.43c-1-4.24,1.44-8.18,4.37-12.8s5.92-9.38,11.24-10.93c5.58-1.63,10.07,1.28,11.24-.63,1.05-1.71-2.62-4-3.12-8.74-.66-6.23,9-8,6.55-12.48C412,101.27,406.91,110.22,400.91,115.54Z"/><path class="cls-5" d="M520,708.34c0,.28.74.46,7,1.78,2.14.46,5.07,1.08,8.59,1.81a213.46,213.46,0,0,0,22.19,2.8c9.87.63,71.48.06,121.72-45.89,31.6-28.89,43.61-61.92,49.81-59.06,3.64,1.68-.56,13,0,37.71.52,22.39,4.64,42.8,6.41,42.7,1.24-.08,1-10.2,2.13-31.31,1.43-26.37,2.5-44.88,7.12-65.46,4.83-21.58,13.25-44.06,16.36-43.41,2.06.43.67,10.67.72,27.75.08,32.26,5.19,61.28,7.11,61.2,1.46-.07,1.06-16.78,2.85-60.49.85-20.81,1.51-37,2.84-54.08,3.05-39.21,9.54-82.74,12.1-82.54,2.84.23-3.06,70.86,0,71.16,2.15.21,9.07-34.15,12.1-72.58,0,0,7.08-90-24.91-185,0,0-13-38.74-20.63-37-1.94.45-1.76,4-7.12,11.39-3.68,5.06-6.4,7-5.69,8.54,1,2.07,6.48-.43,12.1,2.13,3.8,1.73,8.19,5.19,7.82,8.54-.11,1-.66,1.93-2.9,3.93-5.85,5.26-11.44,7.53-11.23,8.11s5.47-2.25,11.65-.83a15.52,15.52,0,0,1,6.86,3.54c4.65,4.27,6.72,12,4,16.21-1.58,2.38-4,2.4-4.16,4.37-.23,2.15,2.49,2.91,4.78,6.44,1.95,3,3.74,8.24,1.66,12.27-1.53,3-4.63,4.22-6,4.78-5.64,2.26-10.18,0-10.82,1.46-.52,1.24,2.22,3.89,5,5.4,4,2.19,5.92.79,9.15,2.29,5.34,2.48,6.95,9.47,7.69,12.68.8,3.44,2.23,9.65-1,13.31-3.53,4-10.41,2.48-10.6,4.15-.14,1.25,3.7,1.67,7.9,5.41a17,17,0,0,1,5.2,7.28c.35,1,2.3,7.18-.83,11.22-2.84,3.67-7.69,2.84-8.11,5.2-.31,1.77,2.28,3,5.2,6.24a34,34,0,0,1,5.82,10.39c2,5.54,3.71,16.57-1.87,22.25-5.2,5.29-14.38,3.51-14.56,5.82-.12,1.6,4.3,2,8.11,6.45a18.61,18.61,0,0,1,3.95,8.1c1.35,5.6,1,14.62-3.74,17.26-4.05,2.25-9.17-1.33-10.19.42-.56,1,.84,2.4,4.79,8.52,3.52,5.46,3.81,6.5,4,7.07.82,3.49.09,8.59-2.92,11.23-6,5.22-18.35-1.45-19.33.83-.74,1.73,6,6.63,7.69,7.9,4.39,3.21,6,3.31,7.28,5.61,1.06,1.95,1,4-.21,10-2,9.67-2.93,14.51-4.78,15.59-6.21,3.64-18.43-7.88-19.54-6.44-.95,1.22,7.53,10,9.56,12.06,3.53,3.64,4.25,4,5.2,5.82.26.5,4.18,8.48-.63,14.76a13.13,13.13,0,0,1-12.26,4.78c-6.09-1-9.5-6.8-10.19-6.24s3.25,5.17,5.82,12.48c1.79,5.07,3.58,10.16,1.25,13.51-3.6,5.18-14.66,2.8-16,2.5-8.51-1.93-13.82-7.5-14.35-6.87s3.74,4.18,8.53,10.82c3.73,5.17,5.59,7.81,5.4,10.6-.4,6.05-8.28,11.94-15,11.43-6-.45-9.9-6-10.82-5.19s4.18,5.64,5.62,12.26c2.37,10.92-5.6,25.15-13.72,26-7.14.74-13.49-9-15-7.69-.95.82,2.09,4.35,3.32,10.81.62,3.2,1.66,8.67-.83,13.1-4.09,7.27-15.58,8-18.09,8.1-8.57.51-13.8-2.66-15.59-.2-1.6,2.19,2.3,5.12,1.46,9.77-1.1,6-9.46,11.17-17,11.64s-12.66-3.75-15-1.25c-1.53,1.66.41,3.85-1,6.86-2,4.17-8.92,6.63-13.72,4.79-5.88-2.27-7.56-10.61-8.73-10.19-.89.32.93,4.75-.63,10a19.5,19.5,0,0,1-3.95,6.65c-5.93,6.66-19,8.2-37.42,10.19C529.87,706.32,520,707.3,520,708.34Z"/><path class="cls-5" d="M242.92,356.31c4.12-.06,6.4-58,7.34-81.92C255,155.09,246.93,35.94,240.48,36c-2.74,0-4.63,21.56-7.34,52.57A878.25,878.25,0,0,0,230.7,201C231.15,213.45,236.45,356.4,242.92,356.31Z"/><path class="cls-5" d="M289.65,768c-.64-9.67-2-21-2.71-33.88-1.79-34.35,3.46-44,6.11-80.7,7.21-99.42-16.14-237.77-24.45-237.2-2.81.19-3.73,16.31-4.89,36.68-3.18,56,4.84,82,7.34,135.72,1.89,40.78.25,90.06-4.89,90.48-4.16.33-10.47-31.3-13.45-52.58-7.56-53.81-1.05-92.35-4.89-92.92-2.77-.41-9.59,19.07-13.45,42.79-8.2,50.27,5.51,66.31,8.55,127.16,1.38,27.49-.2,48.65-.49,64.45Z"/><path class="cls-5" d="M402.29,0c-.07,18.67-4.2,40.53-10.2,58-4.52,13.17-12.32,30.25-15.89,29.34-4.07-1,3.23-23.91,1.22-59.91C376.84,17.14,375.63,8,374.4,0Z"/><path class="cls-5" d="M169.56,149.68c4.7,0,9.68,71,9.78,134.49.16,93.44-10.34,110.09-9.78,201.74.46,74.26,7.71,123,3.67,123.5-3.79.5-14-41.87-19.56-83.15-8.57-63.87-3.66-108.53,1.22-167.5C166.75,215.45,165,149.65,169.56,149.68Z"/><path class="cls-5" d="M112.27,0c1.3,13,3.09,29.64,5.94,49.42C128,117.63,135.75,121,139,163.13c2.69,35-2.41,35.19-7.34,114.93-4.84,78.28-2.49,119.62-6.11,119.82s-11.16-44-13.45-89.25c-2.76-54.38,4-69,3.67-141.83,0-10.34-.49-82.85-6.12-83.15-3.37-.17-7.27,25.68-8.56,34.24C91,184.91,99.68,233.51,96.2,234c-2.58.4-12.12-25.58-14.67-59.91C78.74,136.46,86.63,119.22,95,66.54,99.33,39.11,101.5,16.59,102.89,0Z"/><path class="cls-5" d="M82.89,0C83.57,8.27,84,17.25,84,26.19c-.06,43.06-10,82.3-13.45,81.92-2.09-.24-1.8-16.87-1.23-50.13.3-16.67.68-39.07,1.5-58Z"/><path class="cls-5" d="M63.19,190c3.89-.39,11.63,40.26,15.89,73.36,8.49,65.89,4.78,114,2.45,154.05C73.2,561,80.46,640.87,74.19,641.2c-4.79.24-11.56-46.44-14.67-80.7C53,488.42,60.76,451.25,64.41,383.21,70.64,267.09,57.86,190.55,63.19,190Z"/><path class="cls-5" d="M101.09,382c-2.12.14-2.64,21.69-3.67,64.8-1.54,64.58-1.11,166,4.9,166.28,4.12.17,9.12-47.48,9.78-53.79C121.86,466.12,106.29,381.65,101.09,382Z"/><path class="cls-5" d="M51,43.3a31.11,31.11,0,0,1-.06,5c0,.54-.42,33.33-1.16,98.89C49,216.86,48.56,251.67,48.52,258.5c-.72,115.28,1.72,158.57-2.45,158.94-3.88.35-10.87-36.82-14.67-66-7.62-58.51-3.47-92.78,0-167.51C36,84.47,34.42,21.69,41.18,21.3,44.09,21.13,50.26,32.38,51,43.3Z"/><path class="cls-5" d="M161.76,750.65c2.21-.57,1.44-7.2-5.66-81.13-8.35-87-9.58-101.7-13.2-101.88-5.71-.29-15.24,35.51-15.1,71.69C128,699.82,155.23,752.35,161.76,750.65Z"/><path class="cls-5" d="M56.11,752.54c-.35,5.68-.78,10.82-1.26,15.46H0V0H18.89c.61,12.92,1,27.74,1.29,44.18.29,18.68.38,39.45.3,62q0,15.16-.19,31.34c-.21,22.47-.54,46.32-1,71.25q-.21,11.92-.43,24.17c-1.08,57.34-2.58,119.64-4.12,183.52,0,0-1.81,74.92,4.79,75.47,4.89.41,9.94-43.47,15.78-43.13,5.2.31,6.45,35.28,12.38,127.05Q50,610.32,51.11,628c.8,12.38,1.2,18.65,1.22,18.87.28,3.74.56,7.34.83,10.84C56,694.34,58.19,719,56.11,752.54Z"/><path class="cls-5" d="M496.88,768H475.47c.39-8.4.71-17.55.88-27.48.27-16.22.06-30.09,2.7-30.46,3.38-.46,8.92,21.55,11.35,31.2C492.78,750.73,495,759.65,496.88,768Z"/><path class="cls-5" d="M715.83,768c4.16-29.37-1.77-55.16-4.92-55.1-3.7.07-4,36.07-8.5,36.16-2.92.06-6.18-14.66-7.1-27.65-1.8-25.72,5.66-44.22,4.26-44.67s-10.42,15.93-15.6,39A135.18,135.18,0,0,0,682.16,768Z"/><path class="cls-5" d="M1024,0V768H970.43c1.14-11.11,4.72-25.81,9.53-45.47,3.62-14.8,7-23.93,8.87-23.64,2,.31.2,12.07,4.13,29,2.69,11.52,8,25.28,10.64,24.82,3.18-.56.25-21.62,0-49.06,0-3.6-.48-53,3.7-94.59,1.55-15.47,3.74-29.87,6.84-40.41,0-.12.07-.23.1-.34a43.34,43.34,0,0,0,2.09-12.64,27.33,27.33,0,0,0-2.68-12.18c-1.52-3.07-5.76-10-9-9.32-4.73,1-2.79,17.19-2.91,42,0,9.57-.4,20.42-1.56,32.17A259.59,259.59,0,0,1,993,649c-4,15-13.61,45.68-19.47,44.77-6.76-1-9.22-44.33-6-98.42A837,837,0,0,1,979.34,495.2c2-10.84,3.49-20.35,4.91-31.12.52-3.92,1-8,1.55-12.4.74-6.12,1.5-12.81,2.36-20.42q.44-3.87.91-8.08c3-26.38,4.83-48.69,0-75.92-2.45-13.87-8.47-39.3-13.62-38.93-6.14.43-9.56,37.26-9.73,64.23-.19,29.48,3.5,46.37,4.23,61.43a75.76,75.76,0,0,1-1.52,20.6,81.22,81.22,0,0,1-2.71,9.47c-.43,1.24-.89,2.47-1.38,3.68-7.55,19.06-20.65,35.19-25.88,33.3-3.34-1.2-2.9-9.53-1.28-22.64.55-4.42,1.23-9.39,2-14.81.89-6.72,1.84-14.13,2.66-22.07q.27-2.58.51-5.22c2.88-31.44-.43-30.71-3.84-120.19-2.41-63.52-1.86-93.22,2.42-119.15,1-5.78,2.09-11.37,3.42-17.11,7.33-31.59,17.67-55.3,21.42-54.51,2.55.54.5,12.12-.14,30.53h0c-.57,16.49,0,38.46,6,62.9,6.37,26,19.13,55.78,25.3,54.51,7.42-1.53,5.48-47.88,1.23-101C996,146.42,993.38,118.89,991,94.2c-3.82-39.92-7.48-70.83-9.38-94.2Z"/><path class="cls-5" d="M953.73,0c.37,15.46-.05,32.91-1.3,49-3.67,47.08-15.86,98.9-23,98.25-6.88-.63-8.71-50.11-6.27-87.8A508.9,508.9,0,0,1,930.68,0Z"/><path class="cls-5" d="M976.52,111c-1.7.3-1.13,12.42,0,36.66.86,18.39,2.22,32.26,3.1,40.36,2.89,26.77,5,46,7.54,46,3.05,0,7.3-26.81,5.92-54.41C991.24,142.81,979.71,110.4,976.52,111Z"/><path class="cls-5" d="M919.75,333.3c2.7.19,3.06,23.82,3.55,56.77.82,54.72-2.2,95.48-3.55,114.72-8,114.78-5.79,164.31-9.46,164.39-4.28.1-11.6-67-11.83-136C898.12,428.08,914.3,332.92,919.75,333.3Z"/><path class="cls-5" d="M886.64,81.39c5.74-.7,20.16,55.69,24.83,112.36,4.18,50.73-.41,90.14-3.55,115.9-6.13,50.33-18.15,102.28-22.47,101.71-2.76-.37-1-22,0-74.51.34-18.22.23-51.57,0-118.27C885.07,105.37,883,81.84,886.64,81.39Z"/><path class="cls-5" d="M817.91,0a187.6,187.6,0,0,0-9.33,32.9c-8.42,45.81,3.88,90.17,9.46,89.89,2.8-.15,4.63-18.23,8.28-54.41,2.94-29.12,5.35-53,5.95-68.38Z"/><path class="cls-5" d="M839.46,666.2a319.12,319.12,0,0,0-.4-36.86c-.94-14.25-2.67-27-4.45-37.75-.7-4.24-1.41-8.18-2.08-11.79-3-16.33-5.29-26-2.66-26.52,2.8-.6,8.21,9.75,12.92,23.43,1.25,3.64,2.46,7.53,3.55,11.51.91,3.29,1.73,6.66,2.45,10a128.72,128.72,0,0,1,3,31.34c-.16,9.05-.84,18.66-.81,31.93,0,3.82.07,7.93.23,12.42.45,13.05,1.53,25.8,2.9,36.69,2.33,18.72,5.5,32,7.74,31.9,2.46-.07,3.41-16.16,4.79-30,1-10.4,2.33-19.54,4.67-19.66,2.57-.13,5.63,10.57,8,23.65,1,5.7,1.94,11.85,2.63,17.75,1.12,9.69,2,21.5,2.23,33.77H820.51c2.9-18.43,10.57-38.65,15.27-66.89A297.71,297.71,0,0,0,839.46,666.2Z"/><path class="cls-5" d="M214.33,303.43c-11.49,26.58-13.28,31-13.42,39.36-.09,5.94.44,26.89,16.1,42,4.88,4.71,14.09,13.62,23.26,11.63,3.68-.8,11.42-4.24,23.26-52.78,11.69-47.93,7.91-60.07,5.36-66.19-4.54-10.92-15.34-27.07-25.94-25.94C236.81,252.2,233.83,258.32,214.33,303.43Z"/><path class="cls-6" d="M195,427.21a139,139,0,0,0-38.22,7.46c-5.44,1.89-33.77,11.72-50.33,30.76-28,32.22,1.5,63.37-19.58,113.73-20.22,48.31-67.55,67.76-61.52,78.3,3.17,5.56,17.47,2.17,39.15-1.86,89.86-16.75,89.82-4.42,114.65-16.78,63.12-31.43,73.09-115.87,73.65-121.19,1.19-11.5,7.47-72-24.24-88.55C217.51,423.34,205,424.54,195,427.21Z"/><path class="cls-2" d="M247.41,329.43h0c-.14.31-.26.55-.36.76a71.28,71.28,0,0,1-7.65,12.66c-4.28,5.57-9.42,10-14.12,9.11-7.58-1.49-4.54-15.15-15.84-25.73a26.38,26.38,0,0,0-3.59-2.84c-7.69-5-15.88-4.26-26.92-7.1a65.69,65.69,0,0,1-11.06-3.92,41.93,41.93,0,0,1-9-5.59c-9.12-7.36-12.24-15.81-16.73-14.2-5.24,1.87-5.88,14-5.23,21.62,1.19,13.79,7.41,21.52,18.55,37.6,1.56,2.25,3.22,4.67,5,7.29A189.12,189.12,0,0,1,174.54,383h0a192.06,192.06,0,0,0,12.25,20.23c6.47,9.64,11.81,16.81,15.62,22.37,5.54,8.09,7.86,12.8,5.76,16.82-2.93,5.6-13.36,7.8-17.81,4.27-4.09-3.23-1.23-9.79-2.14-18.52l-.06-.48c-1.25-10.49-7.25-16.57-15.38-25.2-2.93-3.11-6.14-6.55-9.5-10.66a109.31,109.31,0,0,1-10-14.33c-4.27-7.23-8.41-15.72-14.26-27.71-3.9-8-7.22-14.85-9.85-20.86-6.28-14.34-8.67-24-5.82-33.3,1.87-6.12,5.28-10.91,3.56-17.81-2-7.88-8.68-10.72-15-15.81l-.71-.58c-10.16-8.55-12.69-18.71-14.61-27.92h0c-1.74-8.35-3-15.91-9-20.78a18.61,18.61,0,0,0-2.79-1.88c-4.57-2.53-9.92-3.2-15.21-2.77a43.74,43.74,0,0,0-7.43,1.3,48.66,48.66,0,0,0-12.28,5c-.35.21-.69.42-1,.63-8.12,5.22-7.49,10-16.09,14.33A31,31,0,0,1,29,231.06a35.3,35.3,0,0,1-10.09,1.85A57.8,57.8,0,0,1,0,230V210.37c2.29,0,4.7-.05,7.23-.2a99.84,99.84,0,0,0,12.1-1.43,83.41,83.41,0,0,0,11-2.73c10.48-3.4,16.27-7.8,18.25-9.38.21-.17.42-.33.63-.51a54.85,54.85,0,0,0,7.6-7,17.5,17.5,0,0,0,4.59-10.29c.37-6.61-4.05-12-11.78-18.56-3.33-2.81-7.28-5.83-11.73-9.23l-5-3.8q-6.85-5.26-12.62-9.74C12.06,131.08,5.39,125.76,0,121.16V85.92C4,90.08,8.67,95,14.35,100.44c2,2,4.09,3.86,6.13,5.71,4.63,4.21,9.21,8.14,13.41,11.55,6.73,5.47,12.51,9.63,16,11.59,1.94,1.06,3.21,1.47,3.6,1.08.57-.57-.95-2.52-3.54-5.93a131.2,131.2,0,0,1-12.84-19.73c-1-1.91-1.89-3.77-2.71-5.62-4.13-9.33-6.36-18.66-10.12-35.71-1.69-7.67-3-14-4.15-19.2-5.59-26.53-4.48-25-6.54-31.39A114.65,114.65,0,0,0,8.65,0H36.54c1.06,3.66,2,6.9,2.67,9.53,1.2,4.39,2.17,8.39,3,12.11,2.79,12.23,4.28,21.51,8.58,32.3a110.09,110.09,0,0,0,6.21,13c2.26,4,3.58,5.95,11.89,16.79,2,2.65,4.46,5.82,7.43,9.69l2.46,3.21,8.67,11.31c4.89,6.41,9.08,11.91,12.67,16.65,7.22,9.54,12,16,15.37,20.8,5.28,7.47,7,10.66,8.81,14.58,10.87,23.2,5.12,26.21,14,42.39.55,1,1.15,2,1.82,3.14,6.37,10.55,13.71,18.48,23.25,26.88,4.55,4,9.61,8.12,15.31,12.68l5,4c17.73,14.14,26.6,21.21,39.59,27.71.76.38,1.49.74,2.21,1.08,3.41,1.65,6.37,2.94,9,4.08,6.95,3.08,11.23,5.17,14.56,10.68q.24.39.45.78C257,306.92,249.68,324.44,247.41,329.43Z"/><path class="cls-6" d="M971.67,128.08a95.85,95.85,0,0,1-6.09,27.79h0c-5.55,14.9-14.38,28.87-24.7,41.08A172.13,172.13,0,0,1,913,223.27a121,121,0,0,1-27.49,15.93c-10.57,4.16-19.64,5.07-25.34,1.86-10.64-6-3.08-22.69-7.86-71.88-5.8-59.85-21.24-79.09-25.75-103.26v0c-1.57-8.4-1.82-17.4.12-28.91a71.94,71.94,0,0,1,4.14-15.4h0C833.74,14.36,837.74,8.75,843.3,0h75a248.58,248.58,0,0,0,8.36,25c7.63,19.25,16.12,33,23.67,44.64h0c11.58,17.93,20.92,31,21.46,51.68C971.85,123.5,971.81,125.74,971.67,128.08Z"/><path class="cls-6" d="M324.88,46.31c-.68,31.81-1.7,78.83-34.69,117.1a153.87,153.87,0,0,1-38.53,31.69,116.29,116.29,0,0,1-20.82,9.65c-12,4.07-22.17,4.45-27.4-.13-6.73-5.9-1.18-16.38-2.17-36.87-1.75-36.61-21.83-52.13-34.69-80.24C155.76,63.87,149.79,30.75,154.69,0h170C325.56,15.31,325.21,31.19,324.88,46.31Z"/><path class="cls-6" d="M964.19,768H796.35A144.15,144.15,0,0,1,776,727.25c-5.13-16.18-14-44.06,0-67.22a51.73,51.73,0,0,1,9.45-11.48,61.34,61.34,0,0,1,10.76-7.85c12.56-7.26,27.92-10.8,42.89-11.36a111.27,111.27,0,0,1,12.68.22,102.51,102.51,0,0,1,15.3,2.28,96.66,96.66,0,0,1,38.55,19c2.35,1.86,4.61,3.81,6.77,5.81,22.9,21.17,35.15,48.47,39.25,57.6C961.16,735.51,963.05,751.48,964.19,768Z"/><path class="cls-6" d="M1024,430V562.36c-3,1.95-6.28,4-9.86,6.25-3.77,2.35-7.89,4.85-12.4,7.53-5.3,3.14-11.14,6.52-17.6,10.15s-12,6.63-16.65,9.05c-16.47,8.53-23.22,10.21-31.06,10.47a74.64,74.64,0,0,1-22.08-2.72A81.11,81.11,0,0,1,900.6,598c-11.35-5.45-21.69-13.71-28.84-24.69a59.56,59.56,0,0,1-4.72-8.65c-.76-1.71-1.43-3.43-2-5.14-10-29.63,6.1-58.31,10.67-66.43A101,101,0,0,1,900.47,464a125.94,125.94,0,0,1,22.29-14.34,158.51,158.51,0,0,1,19-8.1A196.46,196.46,0,0,1,970,434c6.79-1.31,13-2.16,18.21-2.73,7.51-.8,13-1,15.5-1.11C1008.87,430,1015.83,429.68,1024,430Z"/><path class="cls-2" d="M786.73,561.55c1.86,13.5-1.52,16.21-3.5,36.74-1.56,16.18-3.63,40.34,7,63.85,1.49,3.31,8.75,19.37,14.86,18.37,2.81-.46,5-4.44,5.25-7.88.54-6.6-6-10.14-10.49-16.61-2.83-4-3.9-7.82-4.38-35.87-.56-33.34.81-37.49,3.5-38.48,3.55-1.3,5.87,4.18,14,7.87,17.21,7.82,37.52-2.86,43.73-6.12,14-7.35,27.57-20.39,25.36-24.49-1.84-3.41-15.21-1.68-25.36,4.37-10.89,6.49-10.24,13.27-18.37,15.75-10,3.05-24.11-3.29-30.61-13.12-7.12-10.78-2.08-21.11-10.5-27.12-3.69-2.63-9.41-4-12.24-1.75C780.87,540.38,785.08,549.64,786.73,561.55Z"/><path class="cls-7" d="M305.35,100.34c-12.1,35.9-36.17,62.27-53.82,76.28-10.86,8.62-19.28,12.57-21,11.18a.77.77,0,0,1-.28-.5h0a1.43,1.43,0,0,1,0-.42h0c.12-1.73,2.15-6.2,8.72-19.09,4.48-8.78,8.43-16.3,11.92-22.77,21.69-40.22,25.64-40.08,28.12-52,7.81-37.69-28.95-51.13-21.22-93h47.3c.09.44.17.87.26,1.29C311.81,33.46,317.82,63.37,305.35,100.34Z"/><path class="cls-7" d="M227.38,467c8.81,3.73,8,23.8,7.37,39-.86,21.11-2.52,61.79-32.66,90.61-17.66,16.89-39.52,22.15-83.24,32.67-23.35,5.61-44.79,8.38-45.31,6.32s18-5.6,41.09-19c12.6-7.31,28.73-16.67,40-32.67,15.72-22.24,5.53-33.84,17.92-63.22C186,488.91,215.13,461.84,227.38,467Z"/><path class="cls-7" d="M1024,452.1v7.18c-6.68.39-14.82,1.1-24.25,2.48-5.54.81-10.69,1.57-15.5,2.32-7.39,1.16-14,2.31-19.91,3.66-10.91,2.48-19.64,5.62-27.16,10.66a55.26,55.26,0,0,0-8,6.54c-3.81,3.73-5.79,6.69-8.8,11.26A324.45,324.45,0,0,1,898.46,526l-.92,1.14C887.46,539.46,883,544,880.68,542.89c-3.81-1.76-1.93-18.76,4.21-32.66a72,72,0,0,1,14.35-21A101,101,0,0,1,921.81,472a142.59,142.59,0,0,1,17.32-8.37,182.91,182.91,0,0,1,29.3-9,168.17,168.17,0,0,1,17.37-2.91c.94-.1,1.82-.18,2.64-.25,1.3-.11,2.79-.2,2.88-.21A184.85,184.85,0,0,1,1024,452.1Z"/><path class="cls-7" d="M903.32,28.73c-4.23,15.56-17.62,15-25.71,31.23-1.59,3.19-3.85,8.79-.92,47.75,2.1,27.88,3.93,33.93,3.89,43.64,0,1.8-.08,3.73-.22,6-1.59,24.49-9.76,46.21-12.76,45.75-3.35-.52,4.15-27.81-2.43-67.79-4.6-28-11.17-32.26-14.52-62.94-3.79-34.74,2.69-47.1,4.84-50.84,4.9-8.5,13-16.81,21.16-21.48H898C903.93,6.17,906,18.79,903.32,28.73Z"/><path class="cls-7" d="M929.32,768H916.71c-7.08-20.66-18.29-42.43-37.43-51.52-1.14-.55-2.32-1.05-3.52-1.5a54.45,54.45,0,0,0-9.17-2.49c-4.35-.83-8.58-1.25-12.53-1.89-7.39-1.16-13.82-3-18.28-9.49-6.5-9.42-6-24.59,1.49-32.87a17.53,17.53,0,0,1,2.19-2,23.65,23.65,0,0,1,11.47-4.71c11-1.67,24.27,2.1,33.08,6.75,25.46,13.42,32.78,44.16,41.24,79.73C926.89,754.86,928.24,761.61,929.32,768Z"/><path class="cls-7" d="M227.76,302c.85-4.77-14.91-9.63-33.16-19.65,0,0-29.39-16.12-54-43-36.24-39.48-37.57-86-44.21-84.74-4.48.87-5.51,22.27-1.23,40.53,3.91,16.69,11.5,27.43,23.33,44.21a239.83,239.83,0,0,0,34.39,39.3c16.84,15.23,28.72,25.69,46.67,28.25C212.2,308.72,227,306.44,227.76,302Z"/></g></g></svg>