<svg xmlns="http://www.w3.org/2000/svg" viewBox="0 0 673.71 486.2"><defs><style>.cls-1{fill:#29424c;}.cls-2{fill:#fff;}.cls-3{fill:#fed252;}</style></defs><g id="Layer_2" data-name="Layer 2"><g id="Layer_1-2" data-name="Layer 1"><polygon class="cls-1" points="47.32 95.33 559.9 162.98 500.76 486.2 0 429.98 47.32 95.33"/><path class="cls-1" d="M494.9,141.29,342.12,117S363,37.54,429.42,49.51C505.24,63.18,494.9,141.29,494.9,141.29Z"/><path class="cls-1" d="M322.09,117.18a8.51,8.51,0,0,0,8.26-5.53C335.44,98,349.93,63.23,369.16,52.3c22.8-13,45.33-20.14,63.71-14.39s53.79,16.53,62.5,38.7c6.63,16.88,9.55,45.53,10.56,58.26a8.49,8.49,0,0,0,6.86,7.65l13.8,2.66a8.49,8.49,0,0,0,10.09-8.1c.59-19.9.38-64.11-11.92-80.79C508.68,34.46,459.89,0,429.72,0s-77.26,3.87-92.2,21.47-45.94,69.28-47.09,83.06C289.57,114.81,311.1,116.82,322.09,117.18Z"/><path class="cls-1" d="M531.56,412.39l26.27-152.45S637,281.88,624.18,348.1C609.53,423.74,531.56,412.39,531.56,412.39Z"/><path class="cls-1" d="M557.9,239.91a8.53,8.53,0,0,0,5.43,8.33c13.59,5.26,48.16,20.21,58.83,39.57,12.67,23,19.56,45.59,13.58,63.89s-17.23,53.57-39.51,62c-17,6.41-45.65,9-58.39,9.81a8.47,8.47,0,0,0-7.74,6.76L527.26,444a8.5,8.5,0,0,0,8,10.2c19.89.84,64.1,1.2,80.94-10.88,22-15.8,57.12-64.13,57.51-94.3s-2.87-77.31-20.27-92.47S584.73,209.74,571,208.41C560.69,207.42,558.4,228.92,557.9,239.91Z"/><path class="cls-2" d="M337.37,405.21a5,5,0,0,1-2.35,6.44c-3.34,1.39-12.82.25-14.63,1.61s-.95,12.06-.86,14.26c.07,1.84.27,9,.29,10.85-.19,3.11,1.08,13.42-4,13.3-2.23-.05-5.84-1.38-6.75-2.74s-.38-9.14-.44-10.54c-.06-1.58-.18-8.47-.41-10.12-.05-3.44-.8-7.68-1.42-13-3-2.56-10.47-.18-14.06-1.66a6.75,6.75,0,0,1-3.95-5.45,4.87,4.87,0,0,1,3.68-4c2.18-.48,10.52.05,12.18-.9s1.32-6.62,1.41-8.75c.07-5.4-2-11.55,7.63-12,6.08-.29,5.43,2.42,5.13,5.54-.45,4.66-2.41,10.24.48,14.12C321,404.34,335.7,400.53,337.37,405.21Z"/><path class="cls-2" d="M348.59,410c-1-3.94,3.45-5.71,6.92-7.07,7-2.72,13.29-5.36,20.08-3.35,4,1.2,8.06,6.86,9,12.42,1.17,6.88-.34,14.63-1.24,19.88a169.32,169.32,0,0,1-3.67,17.28c-.69,2-3.32,5.36-5.69,5.38a23.75,23.75,0,0,1-7.73-2.23c-6.19-3.21-11-5.65-16.1-10.87-2.05-1.82-4.4-4.13-5-6.44-1.73-5.36.74-8.57,3-10.58a22,22,0,0,1,8.18-3.8c5.3-1.17,14.91.14,16.63-1.84,2.67-3.37-1.59-9.43-3.89-9.51-7.39-.26-13.5,5.52-17.14,4.62C349.94,413.34,349,411.76,348.59,410Zm7.13,21.55c.55,5.88,9.44,9.94,13.66,10.18,2.63.15,3.31-7.73,3.19-11.39-1.44-1.28-5.55-1.12-7.61-1.2C360.84,428.94,357.2,429.64,355.72,431.51Z"/><path class="cls-2" d="M419.88,409.79c7.79,1.95,15.13,7.89,14.55,17.45-.55,9.09-6.91,16.24-12.23,20.7a41.87,41.87,0,0,1-12.39,7.2c-2.48.94-10.81,3.18-13.9,2.32-4.75-1.34-6.33-6.16-6.73-10.18-.48-4.79.9-11.65,1.28-16.8.79-10.6,2.36-21.25,3.94-31.79.55-4.23.73-13,2.62-16.46,1.75-3.17,9.11-4.52,11.17-.1,1.56,3.35-.26,9.92-.9,13.93s-1,6.76-.49,10.47C409.72,409.37,415.5,408.69,419.88,409.79Zm-20.11,36.58c3.11.41,11.84-4,14.76-6.88,2.7-2.62,8.18-7.11,8.26-11.33.13-6.4-12.83-11.4-17.53-9.36-2.32,1-3.73,8.68-4.12,14.16C400.58,438.34,400.3,441,399.77,446.37Z"/><path class="cls-2" d="M459.75,395.67c-3.61,17.1-7.75,34.07-11.36,51.17-.76,3.43-3,12.69-4.07,15.05-1.67,3.6-6.25,6.09-8.87,3.58-3-2.84,1.57-17.52,2.71-23.09,2.79-12.95,6.12-26.08,8.4-38.83,1.48-8.26,2.34-22.27,11.11-25.33C465.41,375.52,461.33,388.56,459.75,395.67Z"/><path class="cls-2" d="M478.53,458.6c6.29,3,11.34-3.14,13.57.4,1.72,2.72.19,7.3-1.84,8.74-5.94,3.69-15.63,2.73-20-1.16-6.46-5.76-9.71-10.1-10.46-20.11-.78-10.3,2.45-18.32,6.16-23.27,3.52-4.7,9.43-9.41,13.76-10.65,10.76-3.07,20.81,3.5,21.41,15.08a34.63,34.63,0,0,1,.2,9.4c-.65,3.42-3.51,7.59-6.45,8.3-5,1.2-7.71,2.64-12.64,3.5-3.34.59-7.76,1.4-10.36,2C472,455.06,474.4,456.64,478.53,458.6Zm-6.8-20.18c.62.73,8.59-.9,12.34-1.28,2.48-.25,5.93-2,6.89-4.09-.75-10.09-7.16-11.29-14.94-5.77C472.81,429.56,471,437.53,471.73,438.42Z"/><path class="cls-3" d="M155.2,281.05a334.82,334.82,0,0,1-10.8,53.89C140.25,349.45,136.75,372.2,119,375c-16.35,2.58-25.21-18.81-30.07-30.24-9.08-21.34-19.74-49.16-25.45-74.47-2.1,21.53-2.82,43.56-6.89,64.66-2.56,13.31-5.1,26.83-7.85,40.21C46.05,387.46,45,415.68,27,415.7c-6.84,0-6-4.42-4.21-18.6C28.61,351,37.34,305,44.59,259c1.76-15.75,2.77-35.15,10.68-49.26,2.71-3.24,10.35-6.26,15.92-6,3.43.15,7.63,7.82,10.08,13.23,7,16.79,11.78,34.45,17.21,51.76,4.11,13.87,7.73,29.45,15.85,41.68,6.75-16.11,10-34.58,12.06-51.85,3.54-20.83,7.07-41.68,11.08-62.43,1.91-7.29,4.42-15.64,7.52-18.82,3.49-3.57,12.83-7.94,16.62-5.44,1.68,1,5.48,10.5,6.8,15.47,10.32,35.6,20,71.45,29.61,107.19,5.68,21.24,11.28,42.68,17.29,63.77,3,10.58,6.64,19.8,5.52,23.8-.6,2.42-12.3,4.2-17.25,3.37-8.74-1.46-11.15-15.23-13.46-23.32-3.2-11.24-6.07-23-8.82-34.44C174.13,297.85,169.22,267,161,237.18,158.88,251.78,157.51,266.48,155.2,281.05Z"/><path class="cls-3" d="M234.34,378.26c-2.64,5.14-9.59,3.71-10.79-.62-.86-3.09-1.22-11.19-2.25-20.11-5.63-51.15-10.45-103-3.89-154.25,2.59-20.21,5.16-37.25,28.66-38.72,12.64-.79,18.71,1.27,21.53,13.76C277.46,222,294,268.43,302.16,314.78c2.28,12.74,7.34,27.64,6.66,38.34-.27,4.15-11.1,9-16.13,10.32-12.78,3.38-14.83-37.35-20.37-46.43-11.32,4.23-30.41,9.3-33.27,15.54C235.52,340.25,240.33,366.62,234.34,378.26Zm8.9-154.53c-5.45,21.49-4.89,45.86-2.86,67.77,6.22,1.77,22-5.6,22.79-9.49,2.61-12.91-7.19-41.55-17.19-58.54Z"/><path class="cls-3" d="M391.86,171.32c6.53-2.78,15.12-6.59,21.66-6.83,12.65-.46,22.14,4,21.23,9s-14,11-22,15c-24,14.29-45.46,31.7-58.21,57.2-.25,5.33,1.82,10.52,4.47,15.39,10.91,20.22,20.64,41.07,31.66,61.23,3.87,6.32,12.22,14.36,10,20.09-2.39,6.18-15.33,8.65-23.87,8.28-7.49-.33-10.55-4.12-12.82-8.28a185.61,185.61,0,0,1-13.28-34c-1.57-5.95-2.74-16.54-6.39-26.07-2.69,19.78-.52,41-6.83,60.13-2.17,5-6.38,8.28-13.11,9.19-3.53.48-5-2.8-4.43-11.26,2.24-31,2.62-62.73,3.38-93.2.59-23.26-6.76-60.74,6.39-81.86,6-5.62,17.85-6.56,19.42-2.77,4.84,11.62-3.18,36.94-4.12,55C361.83,200.1,366,180.65,391.86,171.32Z"/><path class="cls-3" d="M460.45,327.93c12.17.43,24.16.64,36.28-.41,6.74-.59,19.62-5.4,21.77-3.18,1.29,1.33.65,9.91-1.6,17.26-3.11,10.18-9.31,8.89-21.35,8.69-17.48-.28-35.4-.66-52.52-.25-16.34.4-24.86-1.18-20.17-18,3.61-12.93,7.82-26.45,11.17-39.54,7.36-28.8,14.35-59.06,21-87.88,2.43-10.58,3.89-28.48,14.39-33,13.08-5.58,33.13-2.05,48.43-.32,8.7,1,27.07,1.28,27.57,9.42.33,5.26-2.15,13.1-8.07,13.38a70.3,70.3,0,0,1-7.39-.31c-10.68-.8-22.43-2.09-32.9,1.18-3.89,1.78-5.32,6.77-7.29,13.33-3.15,10.48-10.6,26.15-5.76,37.2,2,2.54,4.51,3.39,7.91,3.61,8.22.54,19.25-3.84,25.34-3.47,4,.24,6.43,3.58,6,10.48-.85,13.17-6.38,20.07-12.15,22.5a80.6,80.6,0,0,1-10.5,1.52c-9,.75-21.89,1.21-28.59,6-4.36,3.11-6.49,12.73-8.25,21.25-1.32,6.39-2.82,13.18-3.24,17.66-.24,1.05-.11,1.83-.29,2.59Z"/></g></g></svg>