<svg xmlns="http://www.w3.org/2000/svg" xmlns:xlink="http://www.w3.org/1999/xlink" viewBox="0 0 1097.56 1093.96"><defs><style>.cls-1{fill:none;}.cls-2{clip-path:url(#clip-path);}.cls-3{fill:#d09f05;}.cls-4{fill:#fed436;}.cls-5{fill:#fdc804;}.cls-6{fill:#fff;}.cls-7{fill:#0f3841;}.cls-8{fill:#29424c;}.cls-9{fill:#fff4cc;}.cls-10{fill:#9b7314;}.cls-11{fill:#6a7c83;}.cls-12{fill:#b59942;}.cls-13{fill:#ffea9a;}.cls-14{fill:#dadee0;}.cls-15{fill:#b4bdc2;}.cls-16{fill:#fddd70;}.cls-17{clip-path:url(#clip-path-2);}.cls-18{fill:#133139;}.cls-19{fill:#445a64;}.cls-20{fill:#fec800;}.cls-21{fill:#fff2d0;}</style><clipPath id="clip-path" transform="translate(68.28 262.2)"><rect class="cls-1" width="1024" height="768"/></clipPath><clipPath id="clip-path-2" transform="translate(68.28 262.2)"><rect class="cls-1" x="-132.15" y="412.92" width="590.29" height="336.14" transform="translate(-437.19 518.53) rotate(-68.39)"/></clipPath></defs><g id="Layer_2" data-name="Layer 2"><g id="Layer_1-2" data-name="Layer 1"><g class="cls-2"><path class="cls-3" d="M407.49,154.86h-1l4.78.08ZM62.86.23l-.67-.44-.6.44H.81v768h195l3.11.21,6.06.39q-.19-.3-.36-.6h820.92V.23ZM842.49,487.29h-.15c-.66,0-1.25,0-1.73,0h-.81q-18.43.36-37.35.79l-28.33.66-20.26.46-6.9.17q-16.63.38-33.46.75l-6.78.14-1.49,0q-18.24.39-36.62.72l-9.54.17h0q-21,.34-42.14.58l-17.56.16-3.77,0h0l-4.19,0-13.45.06q-12.81,0-25.56,0l-12.1-.05L531,491.9h0l-5.65-.06-1.52,0-3.63,0h-.11l-3.72,0h-.74l-4.4-.05q-6.4-.09-12.77-.21l-5.52-.11-8.13-.13-7.88-.12c-13.83-.21-26.59-.34-38.41-.43L427,490.61h-2.38c-11.87,0-22.73,0-32.76,0l-2.8,0h-1.17l-2,0h-.4l-2.33,0h-1.11c-2.53,0-5,0-7.44.09-3.64.05-7.16.1-10.57.17q-3.33,0-6.52.12h-.26c-45,.89-71.33,2.71-107,3.34l-2,0-9.24.11c-7.14.07-14.71.08-22.9,0l-5.25,0-5.42-.06-5.11-.07c-4.58-.06-9.34-.15-14.33-.26-10.39-.22-11.9.52-18.08-4.28-6-4.68-4.75-13.8-4.9-16.8-.62-13.2-1.14-33.76-1.58-58.15-.29-16.31-.55-34.32-.77-53,0-.19,0-.38,0-.57-.15-13.52-.3-27.38-.43-41.18-.43-46.83-.69-93-.84-123.08-.06-12.75-.1-22.6-.13-28.37V167.1c0-1.56-.39-4.15,3.07-7.17,3.63-3.14,10.07-3.25,13.33-3.23h1.83l7.17-.16c23.48-.53,60-1.62,107.37-2.09q19.43-.18,41.22-.2,9.61,0,19.66,0h0l4.72,0,4.77,0,3.21,0,4,0,6.07.05,15.95.18,4.7.06,4.73.07,3.48,0,1.86,0,4.78.08h.08l4.51.08h.56l5.18.1,8.64.18q27.46.63,57.13,1.65c4.9.18,10.74.29,17.36.33,6.83.06,14.53.06,22.91,0h1.5l10.07-.09,2.06,0,6.28-.08,2.13,0,4.42-.07a.67.67,0,0,0,.2,0l7.58-.12,5.16-.09c13-.25,26.74-.55,40.86-.89,11.37-.27,23-.57,34.63-.9,10.1-.26,20.24-.55,30.28-.85,20.27-.59,40.15-1.2,58.6-1.78l6-.18c.3,0,.61,0,.91,0h0l33.18-1,8.72-.27,4.11-.13,19.44-.56h0c6.13-.17,11.35-.3,15.49-.38l2.52,0,4.11-.06c2.72,0,5-.07,7-.05a30.72,30.72,0,0,1,8.7,1,15,15,0,0,1,1.51.55h0a21,21,0,0,1,3.5,1.94c5,3.31,5.27,9.42,4.86,11.75a186.74,186.74,0,0,0-1.63,20.5h0c-.11,2.81-.21,5.82-.29,9v0c-.1,3.31-.17,6.8-.23,10.48h0c0,1.71,0,3.46-.07,5.24,0,1,0,1.94,0,2.93h0c0,3.63-.06,7.39-.08,11.27,0,3.1,0,6.28,0,9.52v4.82c0,1.4,0,2.82,0,4.24,0,1.91,0,3.85,0,5.8q0,4.25,0,8.61c0,.83,0,1.67,0,2.52.46,56.1,2.2,123.72,3.61,168.51.7,22.76,1.33,39.62,1.66,46.11.28,5.48.37,6.26-2.94,9.72-2.56,2.68-6.29,3.11-9,3.13Z" transform="translate(68.28 262.2)"/><path class="cls-3" d="M614.18-39.49h0l.24.28Z" transform="translate(68.28 262.2)"/><path class="cls-3" d="M614.18-39.49h0l.24.28Z" transform="translate(68.28 262.2)"/><path class="cls-3" d="M614.18-39.49h0l.24.28Z" transform="translate(68.28 262.2)"/><path class="cls-3" d="M614.18-39.49h0l.24.28Z" transform="translate(68.28 262.2)"/><path class="cls-3" d="M614.18-39.49h0l.24.28Z" transform="translate(68.28 262.2)"/><path class="cls-3" d="M614.18-39.49h0l.24.28Z" transform="translate(68.28 262.2)"/><path class="cls-3" d="M614.18-39.49h0l.24.28Z" transform="translate(68.28 262.2)"/><path class="cls-3" d="M614.18-39.49h0l.24.28Z" transform="translate(68.28 262.2)"/><path class="cls-3" d="M614.18-39.49h0l.24.28Z" transform="translate(68.28 262.2)"/><path class="cls-3" d="M614.18-39.49h0l.24.28Z" transform="translate(68.28 262.2)"/><path class="cls-3" d="M614.18-39.49h0l.24.28Z" transform="translate(68.28 262.2)"/><path class="cls-3" d="M614.18-39.49h0l.24.28Z" transform="translate(68.28 262.2)"/><path class="cls-3" d="M614.18-39.49h0l.24.28Z" transform="translate(68.28 262.2)"/><path class="cls-3" d="M614.18-39.49h0l.24.28Z" transform="translate(68.28 262.2)"/><path class="cls-3" d="M614.18-39.49h0l.24.28Z" transform="translate(68.28 262.2)"/><path class="cls-3" d="M591.39,492l4.18,0h0Z" transform="translate(68.28 262.2)"/><path class="cls-3" d="M591.39,492l4.18,0h0Z" transform="translate(68.28 262.2)"/><path class="cls-3" d="M407.49,154.86h-1l4.78.08Z" transform="translate(68.28 262.2)"/><path class="cls-3" d="M393.73,154.66h-2l4.7.06Z" transform="translate(68.28 262.2)"/><path class="cls-3" d="M407.49,154.86h-1l4.78.08Z" transform="translate(68.28 262.2)"/><path class="cls-3" d="M407.49,154.86h-1l4.78.08Z" transform="translate(68.28 262.2)"/><path class="cls-3" d="M407.49,154.86h-1l4.78.08Z" transform="translate(68.28 262.2)"/><path class="cls-3" d="M591.39,492l4.18,0h0Z" transform="translate(68.28 262.2)"/><path class="cls-3" d="M591.39,492l4.18,0h0Z" transform="translate(68.28 262.2)"/><path class="cls-3" d="M614.18-39.49h0l.24.28Z" transform="translate(68.28 262.2)"/><path class="cls-3" d="M614.18-39.49h0l.24.28Z" transform="translate(68.28 262.2)"/><path class="cls-3" d="M614.18-39.49h0l.24.28Z" transform="translate(68.28 262.2)"/><path class="cls-3" d="M614.18-39.49h0l.24.28Z" transform="translate(68.28 262.2)"/><path class="cls-3" d="M614.18-39.49h0l.24.28Z" transform="translate(68.28 262.2)"/><path class="cls-3" d="M614.18-39.49h0l.24.28Z" transform="translate(68.28 262.2)"/><path class="cls-3" d="M614.18-39.49h0l.24.28Z" transform="translate(68.28 262.2)"/><path class="cls-3" d="M614.18-39.49h0l.24.28Z" transform="translate(68.28 262.2)"/><path class="cls-3" d="M614.18-39.49h0l.24.28Z" transform="translate(68.28 262.2)"/><path class="cls-3" d="M614.18-39.49h0l.24.28Z" transform="translate(68.28 262.2)"/><path class="cls-3" d="M614.18-39.49h0l.24.28Z" transform="translate(68.28 262.2)"/><path class="cls-3" d="M614.18-39.49h0l.24.28Z" transform="translate(68.28 262.2)"/><path class="cls-3" d="M614.18-39.49h0l.24.28Z" transform="translate(68.28 262.2)"/><path class="cls-3" d="M614.18-39.49h0l.24.28Z" transform="translate(68.28 262.2)"/><path class="cls-3" d="M614.18-39.49h0l.24.28Z" transform="translate(68.28 262.2)"/><path class="cls-3" d="M614.18-39.49h0l.24.28Z" transform="translate(68.28 262.2)"/><path class="cls-3" d="M614.18-39.49h0l.24.28Z" transform="translate(68.28 262.2)"/><path class="cls-4" d="M282.29,768.22H249.11c-6.78-4.9-13.71-10.33-20.92-16.5q-5.83-5-11.91-10.65c-8.35-7.81-17.1-16.69-26.44-26.91-1.36-1.5-2.74-3-4.14-4.58-1-1.07-1.91-2.15-2.87-3.23-11.08-12.54-21.83-25.41-29.23-31.6-3.64-3-6.47-4.48-8.14-3.48a2.87,2.87,0,0,0-1.19,1.67c-2.61,8,9.28,38.57,19.49,62.6,4.1,9.61,7.92,18.19,10.45,23.84q1.71,3.82,3.39,7.54l.6,1.3H163.38c-.23-.77-.45-1.54-.68-2.31-3.28-11-7-21.56-11.08-31.64-3.4-8.5-7-16.64-10.66-24.32a437.33,437.33,0,0,0-31.87-56.15c-1.38-2-2.67-3.89-3.84-5.53-16-22.38-28.33-31.24-43.38-41.39-2.41-1.63-4.9-3.29-7.49-5C40.6,592.44,24.08,580.36.81,556.25v-65c16,11.92,30.43,24,43.86,36.28C66.05,547,84.86,566.84,103.14,587c6.6,7.28,13.12,14.61,19.68,22,8.37,9.43,16.8,18.93,25.47,28.48,11.15,12.31,22.71,24.72,35.1,37.22l3.19,3.2q5,5,9.9,9.87,6,6,11.92,11.85c15.78,15.62,31.5,30.88,47.53,45.49l0,0C264.6,753,273.37,760.75,282.29,768.22Z" transform="translate(68.28 262.2)"/><path class="cls-5" d="M722.29,768.22H204.57q.17.3.36.6l-6.06-.39-3.11-.21q-8.52-.59-17.53-1.26l-.63,0-2.59-.2c-3.94-.29-8-.55-12.31-.81a1095.5,1095.5,0,0,0-129.42-.43l-1.53.09q-15.18.9-30.94,2.32V727.38q1.76-.24,3.6-.45,6-.69,12.87-1c7.58-.37,15.91-.42,25-.2,29.14.67,65.88,4.07,109.35,8.55l4.19.44,7.95.83,24,2.52,4.25.45q11.87,1.26,24.28,2.56l5.93.62q16.41,1.71,33.72,3.42l0,0q33.15,3.29,69.46,6.4,12.9,1.1,26.19,2.13,8.34.65,16.82,1.26,6.9.51,13.89,1c32.2,2.23,65.92,4.1,101,5.38q15.89.59,32.15,1,15.16.38,30.65.6c99.38,1.41,170-.58,175.73,4.91Z" transform="translate(68.28 262.2)"/><path class="cls-5" d="M1025.49,616.59v61.76c-18.12,11.71-37.46,22-54.67,30.52-9.61,4.75-18.55,9-26.26,12.63-3.07,1.45-6.11,2.85-9.13,4.26-26.14,11.9-51.12,21.42-73.3,29.43-8.12,2.94-15.86,5.66-23.13,8.21l-12.33,4.34-1.35.48H749a569.36,569.36,0,0,0,60.14-38.79c10.15-7.6,18.14-14.41,23.2-19.74.75-.8,1.51-1.62,2.24-2.42v0c39.37-42.46,62.76-90,81.23-131.22q5.31-11.92,10.19-23c7.1-16,13.69-30.58,20.62-42.79A141.59,141.59,0,0,1,958,493h0l0,0c10-12.75,21.41-20.5,36-21.21,6.89-.35,26.3.28,28,5.87a3.15,3.15,0,0,1,.11.74c0,6.56-25,13.88-45.31,30.45-.41.34-.82.67-1.23,1a89,89,0,0,0-15,15.93c-7.41,10.2-12.18,21.3-16.89,33.74-2.46,6.45-4.9,13.26-7.69,20.49-.21.56-.43,1.13-.67,1.69A502,502,0,0,1,908,640.47l-1.79,3.24c-25.44,45.77-46.22,67.38-37.49,75.76,9.63,9.25,43.86-8.61,59.56-17.53,3-1.69,5.31-3.07,6.67-3.87,8.23-4.86,15.94-10,23.2-15.33C987.08,661.6,1008.66,637.64,1025.49,616.59Z" transform="translate(68.28 262.2)"/><path class="cls-6" d="M853.1,484c-2.57,2.68-6.31,3.11-9,3.13h-.17c-.72,0-1.32,0-1.74,0h-.81q-18.51.36-37.49.79l-28.43.66-20.33.46-6.92.17q-16.7.38-33.58.75l-6.8.14-1.5,0q-18.3.39-36.75.72L660,491h0q-21.11.35-42.29.58l-17.62.16-3.79,0h0l-4.21,0-13.5.06q-12.86,0-25.65,0l-12.14,0q-8.28-.06-16.53-.14l-3.64,0-3.84-.05H516q-8.24-.1-16.41-.26l-6.36-.11c-20.21-.36-38.3-.57-54.61-.68l-11.55-.06H424.7c-11.91,0-22.81,0-32.87.05l-2.81,0h-1.18l-2,0h-.41l-2.33,0H382c-2.54,0-5,.05-7.46.09-3.66.05-7.19.1-10.61.17q-3.34,0-6.54.12h-.27c-45.13.89-71.58,2.71-107.36,3.34l-2,0-9.27.11c-7.17.07-14.76.08-23,0l-5.27,0-5.44-.06-5.13-.07q-6.51-.11-13.57-.26c-10.42-.22-11.94.52-18.14-4.28-6-4.68-4.77-13.8-4.92-16.8-.62-13.24-1.14-33.87-1.58-58.34-.29-16.14-.55-33.94-.78-52.41-.95-79.56-1.3-171.31-1.41-194,4.05-2.19,8.92-4.7,14.51-7.3,3.15-1.47,6.53-3,10.13-4.44,29.76-.66,81-2.26,149.15-2.3l19.73,0h0l4.74,0,4.78,0,3.22,0,4,0,6.09,0,16,.18,4.71.06,4.75.07,3.49.05,1.87,0,4.79.08h.09l4.52.08h.56l5.2.1,8.67.18q27.57.63,57.33,1.65c4.92.18,10.78.29,17.42.33,6.86.06,14.59.06,23,0h1.5l10.11-.09,2.06,0,6.31-.08,2.13,0,4.44-.07h.2l7.61-.12,5.17-.09c92.24-1.64,222.24-6.49,256.47-7.06l3.31-.06c2.73,0,5-.07,7,0a30.91,30.91,0,0,1,8.73,1,15.23,15.23,0,0,1,1.52.55h0a21,21,0,0,1,3.51,1.94c5,3.31,5.29,9.42,4.88,11.75a183.66,183.66,0,0,0-1.64,20.5h0c-.11,2.81-.21,5.82-.29,9v0c-.1,3.31-.17,6.8-.23,10.48h0c0,1.71,0,3.46-.07,5.24,0,1,0,1.94,0,2.93h0c0,3.63-.06,7.39-.08,11.27,0,3.1,0,6.28,0,9.52l-1.89.09c-.89,0-1.79,0-2.71,0h-.67l-.79,0-1.21,0H843l-1.54-.09c-.69,0-1.38-.12-2.06-.19l-1.24-.14-.81-.1c-.57-.07-1.13-.15-1.7-.24l-.16,0-.56-.09-1.2-.21h0l-1.76-.35h0c-.61-.13-1.23-.26-1.84-.41l-.79-.19-.72-.18-.88-.24-.36-.1-1.34-.38-.53-.17c-.44-.13-.88-.28-1.31-.42l-.17-.06-.27-.09h0l-.72-.26-1.12-.4-.83-.32-.05,0c-.67-.27-1.33-.54-2-.83l-1.38-.62-.35-.16-.73-.36-.72-.36c-.85-.42-1.68-.87-2.5-1.34l-.06,0c-.58-.33-1.17-.67-1.73-1s-1.17-.74-1.74-1.13c-.32-.21-.63-.43-.94-.65a59.53,59.53,0,0,1-4.87-3.85c-.81-.7-1.56-1.4-2.28-2.08s-1.33-1.27-1.93-1.87l-.67-.67-.7-.71-.69-.68-.31-.32c-.18-.19-.36-.37-.53-.53l-.42-.42a.38.38,0,0,0-.09-.09l-.2-.2-.28-.28-.84-.78h0l0,0,0,0-.2-.17-.22-.19c-.21-.19-.42-.36-.62-.51a5.61,5.61,0,0,0-.51-.38l-.25-.17a3.21,3.21,0,0,0-.38-.23,2.61,2.61,0,0,0-.37-.19,1.85,1.85,0,0,0-.29-.13,2.53,2.53,0,0,0-.36-.12,1.22,1.22,0,0,0-.26-.06l-.11,0h-.07a2.16,2.16,0,0,0-1.12.18,3.84,3.84,0,0,0-.39.22l-.18.13-.12.11,0,0a3.38,3.38,0,0,0-.26.27s0,0,0,0l-.12.15L789,209l-.2.3-.16.26-.15.27s-.05.1-.08.16a.54.54,0,0,0-.07.13s0,.1-.07.16l-.07.15c-.07.17-.15.36-.21.55l-.05.12h0a4.56,4.56,0,0,0-.18.52l-.06.19c0,.15-.09.29-.13.45s-.11.44-.17.68a.25.25,0,0,1,0,.07c0,.21-.09.42-.13.64-.1.51-.19,1.05-.26,1.61a.22.22,0,0,1,0,.11c0,.2,0,.4-.07.61l0,.32c-.07.72-.11,1.48-.12,2.27,0,.41,0,.82,0,1.25v.06c0,.2,0,.41,0,.62l0,.82c0,.27,0,.54,0,.82a2.46,2.46,0,0,0,0,.28c0,.38.06.77.1,1.17a2.11,2.11,0,0,0,0,.25c0,.31.07.63.13.94l.12.8c0,.27.08.54.13.81s0,.27.07.41,0,.17,0,.26.07.36.11.55c.12.64.27,1.28.42,1.92,0,.1.06.2.08.3l.17.62c.15.55.31,1.09.49,1.63.08.26.17.53.26.79q.27.81.6,1.62c.11.26.22.53.34.79s.19.45.29.67c.25.56.52,1.12.81,1.66.11.23.24.46.36.68s.32.57.49.85c.26.44.53.88.83,1.31a2.4,2.4,0,0,0,.19.29l.08.12.12.16c.21.3.43.6.65.89s.48.62.74.92h0l.07.09.07.09h0c.26.3.53.6.8.89l.47.47c.15.16.3.3.46.45l.37.35.37.33.06.05.41.35c.47.39,1,.76,1.45,1.11l.58.4.65.41c.19.12.38.24.58.35l.28.16.45.24,0,0c.3.16.59.31.89.45s.73.34,1.11.5l1.4.55h0l1.4.46.11,0c.22.07.45.13.67.18l1.35.34.22.05.68.13a6.92,6.92,0,0,0,.77.14l.44.07a5.43,5.43,0,0,0,.56.09l.55.08c.52.07,1.06.13,1.59.18l.8.06c.3,0,.6,0,.91.06.56,0,1.12.06,1.68.07s1.13,0,1.71,0l1.23,0h.25a2.54,2.54,0,0,0,.39,0l1.47,0,.88-.05,1.63-.11c1.48-.11,3-.26,4.49-.43h0l2-.22.39-.05c3.42-.43,6.9-.94,10.39-1.43l2.07-.29,2.09-.27.59-.08,1.2-.15.29,0,.75-.09,1.83-.2.34,0q0,4.24,0,8.61c0,.83,0,1.67,0,2.52.46,56.1,2.21,123.72,3.62,168.51.7,22.76,1.34,39.62,1.67,46.11C856.33,479.75,856.42,480.53,853.1,484Z" transform="translate(68.28 262.2)"/><path class="cls-7" d="M239.06,494.59l9.24-.11Q243.8,494.55,239.06,494.59Z" transform="translate(68.28 262.2)"/><path class="cls-7" d="M250.3,494.45c35.66-.63,62-2.45,107-3.34C312.47,492,286.17,493.86,250.3,494.45Z" transform="translate(68.28 262.2)"/><path class="cls-7" d="M357.55,491.11q3.19-.08,6.52-.12Z" transform="translate(68.28 262.2)"/><path class="cls-7" d="M374.64,490.82c2.42,0,4.91-.06,7.44-.09Z" transform="translate(68.28 262.2)"/><path class="cls-7" d="M393.73,154.66l2.66,0-4.7-.06h2Z" transform="translate(68.28 262.2)"/><path class="cls-7" d="M407.49,154.86l3.8.07h-.05l-4.78-.08Z" transform="translate(68.28 262.2)"/><path class="cls-7" d="M595.59,491.92l3.77,0-8,.05,4.19,0Z" transform="translate(68.28 262.2)"/><path class="cls-7" d="M839.8,487.27h.81c-76.32,1.5-159,4-241.25,4.63l17.56-.16q21.09-.23,42.14-.58h0l9.54-.17q18.38-.33,36.62-.72l1.49,0,6.78-.14q16.82-.36,33.46-.75l6.9-.17,20.26-.46,28.33-.66Q821.35,487.64,839.8,487.27Z" transform="translate(68.28 262.2)"/><path class="cls-7" d="M793.22,243.17l-.07-.09.08.1Z" transform="translate(68.28 262.2)"/><path class="cls-7" d="M841.56,150.59a30.72,30.72,0,0,0-8.7-1c7.48,0,10.37.71,14.53,3.48,5,3.31,5.27,9.42,4.86,11.75-1.71,10.11-2.35,36.07-2.36,68.95l-.81.05c0-3.24,0-6.42,0-9.52,0-3.88,0-7.64.08-11.27h0c0-1,0-2,0-2.93,0-1.78,0-3.53.07-5.24h0c.06-3.68.13-7.17.23-10.48v0c.08-3.19.18-6.2.29-9h0a186.74,186.74,0,0,1,1.63-20.5c.41-2.33.13-8.44-4.86-11.75a21,21,0,0,0-3.5-1.94h0A15,15,0,0,0,841.56,150.59Z" transform="translate(68.28 262.2)"/><path class="cls-8" d="M184.67,156.57c-3.58,1.48-6.95,3-10.09,4.44-5.57,2.6-10.42,5.11-14.46,7.3V167.1c0-1.56-.39-4.15,3.07-7.17,4.34-3.76,12.72-3.18,14.85-3.22Z" transform="translate(68.28 262.2)"/><path class="cls-9" d="M790.94,685.45C731,770.78,654,736.75,564.74,736.75c-37.69,0-68.8-25.24-67.86-83.46.41-25.12,16.36-27.76,21-38.59,6-14-24.8-30-39-69.5a58.63,58.63,0,0,1-1.84-5.86c-9.81-34.89,9.65-55.37,22.31-57a7.33,7.33,0,0,1,5.34,1.63c5.61,4.11,10.74,15.11,16.48,26.26,3.79,7.49,7.9,15,12.58,20.68s9.81,9.24,15.88,9.24c8,0,12.54-6.51,18.4-15.67C574,515.2,601,469.11,615.92,460.4c15.45-9,46.38-14.63,71.24-5.06,12.16,4.67,18.65,15.77,20.85,27,6.21,31.85-1.39,67.54,20.11,80.45,12.09,7.25,20,5.19,26.38-6.57,2.16-3.91-4.52-21.76-5.45-26.2-3.87-18.2-7-30.13,1.66-52.68,4.81-12.54,18.24-21.54,30.17-22.64a17,17,0,0,1,2-.08c26.5,0,16.65,53,24.79,85,.28,1.05.57,2.07.85,3.05C829.12,609.73,816.18,649.54,790.94,685.45Z" transform="translate(68.28 262.2)"/><path class="cls-10" d="M541.06,484.63a25.06,25.06,0,0,0-2.77,3.76c-4.12,6.63-11.08,15.14-19.35,24.51-13.84,15.74-31.31,34-45.16,50.26-8.85,10.45-16.22,20.08-20.19,27.75-1,1.85-3.48,7-7.13,7.1-3.37.13-7.23-4.08-7.1-7.82.13-4,4.83-6.84,6.39-7.84,6.67-4.19,15-12.15,23.89-21.89,15.61-17.13,32.84-39.68,45.46-56.29,7.34-9.69,13.13-17.36,16.09-20.77a10.31,10.31,0,0,0,2.09-3.63A29.84,29.84,0,0,0,541.06,484.63Z" transform="translate(68.28 262.2)"/><path class="cls-9" d="M526.37,517.94a49.46,49.46,0,0,1-7.65,16.41c-.25.32-.45.65-.7.93-9,11.6-24.46,17-35.78,11.73a20.45,20.45,0,0,1-7.17-5.5C467,532,467,516,470.11,505c.53-1.95,4.31-14.73,15.14-22a32,32,0,0,1,22-5.17A22.49,22.49,0,0,1,523.89,489C528.93,497.58,529,508.33,526.37,517.94Z" transform="translate(68.28 262.2)"/><path class="cls-6" d="M706.2,493.54c2.53-7.82-4.19-21.52-15.05-27.9a26.39,26.39,0,0,0-8.38-3.2c-1.4-.26-10.92-1.89-18,4.69-6.59,6.12-9.36,17.71-5.13,25.13C667.78,506.58,701.77,507.24,706.2,493.54Z" transform="translate(68.28 262.2)"/><path class="cls-8" d="M683.71,461.43c-.68-.58-3.56-2.85-7.14-2.17-3.4.65-6.69,3.83-6.39,7.94.33,4.3,4.41,7.15,8,7.49,4.32.41,8.68-2.77,8.92-6.73C687.29,464.47,684.2,461.85,683.71,461.43Z" transform="translate(68.28 262.2)"/><path class="cls-6" d="M670.08,484.19c-1.18-8.67-14.31-19.74-28.1-22.05a30.12,30.12,0,0,0-9.82-.08c-1.51.26-11.73,2.16-15.67,11.29-3.67,8.49-1,21,6.73,26.75C638.07,511.25,672.13,499.37,670.08,484.19Z" transform="translate(68.28 262.2)"/><path class="cls-11" d="M576,434.29c-.06.71-2.31.49-5.55,2.11a17.93,17.93,0,0,0-6.54,5.73c-3.09,4.36-4.34,10.52-2.85,11.38,1.74,1,5.85-5.9,7.83-5,1.75.82,1.93,7.93-.19,15-1.71,5.59-4.84,11.16-9.78,13.5-2.62,1.23-5.16,1.31-7.93,1.88,2.64-6.76,5.94-13.7,4.36-14.67-1.85-1.14-8.31,7-10.1,5.77-1-.67.49-3.44,1.83-6.78s2.51-7.13,1.06-10c-1.06-2.13-3.3-3.28-6.13-3.84a28.21,28.21,0,0,1,2-4.34c.61-1.12,7.3-13.15,19.22-14.26C569.84,430.12,576.13,433.08,576,434.29Z" transform="translate(68.28 262.2)"/><path class="cls-12" d="M551,478.89a17.55,17.55,0,0,0-7,3.1,20.19,20.19,0,0,0-2.91,2.64s0,0,0,0a29.84,29.84,0,0,1-7.78-4.86,6.57,6.57,0,0,0-.22-4.79c-2.39-10.37-2-15,.74-20,.32-.58.67-1.17,1.06-1.77,1.55-2.44,3.78-4.08,4.27-3.76s-1.18,2.7-.9,6.07c.23,2.72,1.68,5.12,2.29,5s-.16-3.35.62-7.78a22.16,22.16,0,0,1,.89-3.45c2.83.56,5.07,1.71,6.13,3.84,1.45,2.92.26,6.76-1.06,10s-2.81,6.11-1.83,6.78c1.79,1.21,8.25-6.91,10.1-5.77C557,465.19,553.65,472.13,551,478.89Z" transform="translate(68.28 262.2)"/><path class="cls-13" d="M885.79,486.77c-5.47,2.55-13.1-59.48-47.55-64.86-25-3.89-65.72,26.24-68.29,48.55-2.77,24,29,39.07,22.14,56.79-4,10.42-19.82,17.54-28.46,13.26-16.5-8.17-1.31-69.08-20.12-80.59-9.27-5.68-35.75,8.37-37.43,20.8-4.19,31.07,4.24,83,31.33,119.65,13.2,17.83,43.43,58.68,92.32,58.71,54.94,0,87.22-51.48,93-60.65,1.6-2.56,36-59.52,12-118.18-15.89-38.8-29.88-66.55-39.65-64.34C850,426.08,891.64,484,885.79,486.77Z" transform="translate(68.28 262.2)"/><rect class="cls-14" x="723.56" y="138.32" width="144.35" height="101.63" rx="3.75" transform="translate(155.27 43.12) rotate(16.57)"/><rect class="cls-15" x="710.9" y="223.59" width="144.35" height="16.2" rx="0.7" transform="translate(166.88 48.5) rotate(16.57)"/><rect class="cls-6" x="828.51" y="222.37" width="10.83" height="10.83" rx="0.7" transform="matrix(0.96, 0.29, -0.29, 0.96, 167.87, 33.84)"/><rect class="cls-6" x="815.48" y="218.49" width="10.83" height="10.83" rx="0.7" transform="matrix(0.96, 0.29, -0.29, 0.96, 166.23, 37.39)"/><rect class="cls-6" x="802.44" y="214.61" width="10.83" height="10.83" rx="0.7" transform="translate(164.58 40.95) rotate(16.57)"/><rect class="cls-6" x="789.4" y="210.73" width="10.83" height="10.83" rx="0.7" transform="translate(162.93 44.51) rotate(16.57)"/><rect class="cls-6" x="776.38" y="206.86" width="10.83" height="10.83" rx="0.7" transform="translate(161.28 48.06) rotate(16.57)"/><rect class="cls-6" x="763.64" y="203.07" width="10.83" height="10.83" rx="0.7" transform="translate(159.67 51.54) rotate(16.57)"/><rect class="cls-6" x="750.6" y="199.19" width="10.83" height="10.83" rx="0.7" transform="translate(158.03 55.1) rotate(16.57)"/><rect class="cls-6" x="737.57" y="195.31" width="10.83" height="10.83" rx="0.7" transform="translate(156.38 58.65) rotate(16.57)"/><rect class="cls-6" x="724.18" y="191.32" width="10.83" height="10.83" rx="0.7" transform="translate(154.69 62.3) rotate(16.57)"/><rect class="cls-6" x="845.28" y="213.72" width="10.83" height="10.83" rx="0.7" transform="matrix(0.96, 0.29, -0.29, 0.96, 166.1, 28.7)"/><rect class="cls-6" x="832.24" y="209.84" width="10.83" height="10.83" rx="0.7" transform="translate(164.45 32.26) rotate(16.57)"/><rect class="cls-6" x="819.21" y="205.96" width="10.83" height="10.83" rx="0.7" transform="translate(162.81 35.81) rotate(16.57)"/><rect class="cls-6" x="806.17" y="202.08" width="10.83" height="10.83" rx="0.7" transform="translate(161.16 39.37) rotate(16.57)"/><rect class="cls-6" x="793.13" y="198.2" width="10.83" height="10.83" rx="0.7" transform="translate(159.51 42.92) rotate(16.57)"/><rect class="cls-6" x="780.11" y="194.33" width="10.83" height="10.83" rx="0.7" transform="translate(157.87 46.48) rotate(16.57)"/><rect class="cls-6" x="767.37" y="190.54" width="10.83" height="10.83" rx="0.7" transform="translate(156.26 49.95) rotate(16.57)"/><rect class="cls-6" x="754.32" y="186.66" width="10.83" height="10.83" rx="0.7" transform="translate(154.61 53.51) rotate(16.57)"/><rect class="cls-6" x="741.3" y="182.78" width="10.83" height="10.83" rx="0.7" transform="translate(152.96 57.07) rotate(16.57)"/><rect class="cls-6" x="727.91" y="178.79" width="10.83" height="10.83" rx="0.7" transform="translate(151.27 60.72) rotate(16.57)"/><rect class="cls-6" x="849.17" y="200.62" width="10.83" height="10.83" rx="0.7" transform="translate(162.53 27.04) rotate(16.57)"/><rect class="cls-6" x="836.13" y="196.74" width="10.83" height="10.83" rx="0.7" transform="translate(160.88 30.6) rotate(16.57)"/><rect class="cls-6" x="823.11" y="192.87" width="10.83" height="10.83" rx="0.7" transform="translate(159.24 34.15) rotate(16.57)"/><rect class="cls-6" x="810.07" y="188.99" width="10.83" height="10.83" rx="0.7" transform="translate(157.59 37.71) rotate(16.57)"/><rect class="cls-6" x="797.03" y="185.11" width="10.83" height="10.83" rx="0.7" transform="translate(155.94 41.27) rotate(16.57)"/><rect class="cls-6" x="784" y="181.23" width="10.83" height="10.83" rx="0.7" transform="matrix(0.96, 0.29, -0.29, 0.96, 154.29, 44.82)"/><rect class="cls-6" x="771.26" y="177.44" width="10.83" height="10.83" rx="0.7" transform="translate(152.68 48.3) rotate(16.57)"/><rect class="cls-6" x="758.22" y="173.56" width="10.83" height="10.83" rx="0.7" transform="translate(151.04 51.86) rotate(16.57)"/><rect class="cls-6" x="745.19" y="169.69" width="10.83" height="10.83" rx="0.7" transform="translate(149.39 55.41) rotate(16.57)"/><rect class="cls-6" x="731.8" y="165.7" width="10.83" height="10.83" rx="0.7" transform="translate(147.7 59.06) rotate(16.57)"/><rect class="cls-6" x="852.9" y="188.09" width="10.83" height="10.83" rx="0.7" transform="translate(159.11 25.46) rotate(16.57)"/><rect class="cls-6" x="839.86" y="184.21" width="10.83" height="10.83" rx="0.7" transform="translate(157.46 29.02) rotate(16.57)"/><rect class="cls-6" x="826.83" y="180.34" width="10.83" height="10.83" rx="0.7" transform="translate(155.82 32.57) rotate(16.57)"/><rect class="cls-6" x="813.8" y="176.46" width="10.83" height="10.83" rx="0.7" transform="translate(154.17 36.13) rotate(16.57)"/><rect class="cls-6" x="800.76" y="172.58" width="10.83" height="10.83" rx="0.7" transform="translate(152.52 39.69) rotate(16.57)"/><rect class="cls-6" x="787.73" y="168.7" width="10.83" height="10.83" rx="0.7" transform="translate(150.87 43.24) rotate(16.57)"/><rect class="cls-6" x="774.99" y="164.91" width="10.83" height="10.83" rx="0.7" transform="translate(149.26 46.72) rotate(16.57)"/><rect class="cls-6" x="761.95" y="161.03" width="10.83" height="10.83" rx="0.7" transform="translate(147.62 50.27) rotate(16.57)"/><rect class="cls-6" x="748.92" y="157.16" width="10.83" height="10.83" rx="0.7" transform="translate(145.97 53.83) rotate(16.57)"/><rect class="cls-6" x="735.53" y="153.17" width="10.83" height="10.83" rx="0.7" transform="translate(144.28 57.48) rotate(16.57)"/><rect class="cls-6" x="779.68" y="144.12" width="38.24" height="22.42" rx="1.43" transform="translate(145.75 40.85) rotate(16.57)"/><path class="cls-13" d="M614.18-39.49l.23.28-.24-.28Z" transform="translate(68.28 262.2)"/><path class="cls-13" d="M615-38.52l-.59-.69,1.56,1.8Z" transform="translate(68.28 262.2)"/><path class="cls-13" d="M903.55.23a79,79,0,0,1-.81,10c-.09.61-.18,1.22-.28,1.83l-.06.36a102.45,102.45,0,0,1-9.62,28.7v0c-.52,1-1,2.06-1.6,3.07a103.47,103.47,0,0,1-7.08,11.33,86.17,86.17,0,0,1-11.59,13.28q-.42.41-.84.78l0,0c-.7.64-1.39,1.23-2.1,1.81s-1.42,1.15-2.12,1.69-1.25.94-1.88,1.35l-.11.08c-.21.16-.42.3-.64.44a6.33,6.33,0,0,1-.54.36l-.11.07c-.24.18-.5.34-.76.5-.67.43-1.36.84-2.06,1.23s-1.38.76-2.06,1.1c-.48.25-1,.48-1.46.7l-.63.28c-.76.33-1.52.63-2.29.91-.61.2-1.22.41-1.84.6s-1.43.39-2.15.56-1.4.28-2.1.39-1.39.18-2.08.23a84.85,84.85,0,0,1-12.59,0c-3.89-.27-7.22-.72-10.36-1l-.06,0c-.78-.18-1.57-.36-2.37-.52s-1.38-.28-2.07-.4l-1.44-.25c-1.07-.18-2.14-.34-3.23-.47-.57-.08-1.14-.14-1.71-.2l-.49,0c-.65-.07-1.29-.13-1.95-.18h-.2c-.49,0-1-.08-1.46-.1-.88-.06-1.75-.1-2.63-.11q-1,0-1.95,0c-.75,0-1.49,0-2.24,0a73.26,73.26,0,0,0-9,.85c-.87.13-1.74.29-2.59.45l-1.26.25c-1.56.33-3.09.7-4.6,1.11-.51.13-1,.28-1.53.43s-1.18.34-1.76.52-1.1.35-1.64.54c-1.38.45-2.73.94-4,1.46l-1,.39-.12,0c-.45.17-.9.36-1.34.55s-1.18.49-1.75.75l-.38.17-1.81.84q-2.24,1-4.31,2.18l-.53.29c-1.19.64-2.34,1.3-3.44,2-.4.24-.8.48-1.19.73-.1,0-.2.12-.3.18-.44.27-.87.54-1.29.82l-1.24.81a58.78,58.78,0,0,0-10.9,9l-.3.35a7.53,7.53,0,0,0-1.15,1.69,1.6,1.6,0,0,0-.14.4.65.65,0,0,0,0,.4c.54,1.14,6.64-.6,9.64-1.67,8.27-3,12.19-7.8,16.07-10.88.36-.28.72-.56,1.08-.82s.63-.45,1-.66l.14-.1h0c.5-.33,1-.64,1.52-.93.27-.16.55-.31.83-.46a31.83,31.83,0,0,1,3.09-1.43c.37-.15.75-.3,1.13-.43a34.07,34.07,0,0,1,3.66-1.12c.37-.1.76-.19,1.13-.27l.46-.1,1.35-.26c.45-.08.89-.16,1.33-.22A52.74,52.74,0,0,1,797.18,86c.63,0,1.22.07,1.75.12h0l1,.09.85.1.68.09.68.1.34.06a13.65,13.65,0,0,0-1.36,1.49c-5.25,6.5-5.17,17-8.77,29.62a70.62,70.62,0,0,1-12.52,24.81,55.74,55.74,0,0,1-8.37,8.6l0,0a66.36,66.36,0,0,1-7,5.1q-2,1.29-4.2,2.45a79.58,79.58,0,0,1-11.92,5.24c-1.29.46-2.6.88-3.92,1.26h0c-1.4.42-2.82.8-4.26,1.15q-3.74.93-7.57,1.53h0c-2,.32-4,.58-6,.76-1.43.14-2.86.24-4.29.31-1.85.1-3.72.13-5.6.11-13-.16-25.68-3.1-35.92-9a40.54,40.54,0,0,1-7.93-5.84s0,0,0,0l-.42-.4c-.79-.78-1.53-1.59-2.24-2.42a35.44,35.44,0,0,1-2.76-3.69c-6.31-9.3-10.24-22.16-23.43-43.32l-.54-.86c-.85-1.35-1.68-2.66-2.54-3.94s-1.49-2.27-2.24-3.38c-.4-.59-.81-1.2-1.22-1.78s-.93-1.36-1.41-2c-.6-.87-1.21-1.71-1.8-2.54s-1-1.4-1.53-2.1l-2.22-2.91c-1.66-2.17-3-4.57-4.93-6.19q-4-3.28-7.75-6.73C594.81,50.76,579.91,25.79,570.4.23Z" transform="translate(68.28 262.2)"/><path class="cls-8" d="M802.49,86.58l-.35-.07c-2.21-.36-19.89-2.92-32,6.77-3.88,3.09-7.8,7.91-16.07,10.88-3,1.08-9.1,2.81-9.64,1.67-1.24-2.64,25.17-26.15,57.54-27.17A85.07,85.07,0,0,1,823.71,81a31.42,31.42,0,0,0-16.17,2.34A16.36,16.36,0,0,0,802.49,86.58Z" transform="translate(68.28 262.2)"/><path class="cls-6" d="M757.86,135.33c.55.83,4.24,6.2,10.43,6.71,10,.82,16.1-11.86,16.44-12.59.75-1.62,5.83-13.08-.45-19.66-5.47-5.74-16.24-4.28-22.48.89C754.51,116.72,753.07,128.12,757.86,135.33Z" transform="translate(68.28 262.2)"/><path class="cls-8" d="M786.92,124.23c-.24-1-1.33-4.93-4.74-6.6a7.6,7.6,0,0,0-10,3.25c-2.25,4.19-.48,9.46,2.33,12.07,3.39,3.16,8.92,3,11.44-.5C788.16,129.35,787.09,124.93,786.92,124.23Z" transform="translate(68.28 262.2)"/><path class="cls-13" d="M1025.49,108.15v124.4c-8.28,1.26-16.27-.29-19.79-4.85-6.68-8.63,8-21.07,9.64-42.62.1-1.35.15-2.7.15-4-.1-36.59-38.79-67.58-55.57-81l-3.43-2.77c-3.29-2.69-6.27-5.18-9-7.47-5.1-4.3-9.27-7.89-13-10.75-5.85-4.55-10.45-7.27-15.51-8.09h0a23.4,23.4,0,0,0-7.63.12l-4.79.81q-9.42,1.56-17.6,2.86-4,.63-7.67,1.18c-2.47.37-4.84.72-7.13,1-6.06.85-11.51,1.53-16.41,2-5.62.55-10.51.86-14.75.89-11.67.07-18.47-2-22-6.66a13.91,13.91,0,0,1-2-3.83,75,75,0,0,1-3-13.84c-1.59-11.84-2-28.71,2.32-45.24a82.57,82.57,0,0,1,3.31-10h93.3c3.79,5.49,8,11.21,12.73,16.94a164.43,164.43,0,0,0,25.15,24.7q6.47,5.07,12.65,10c23.25,18.47,43.35,35.49,58.54,54.39C1024.5,106.87,1025,107.51,1025.49,108.15Z" transform="translate(68.28 262.2)"/><path class="cls-13" d="M662.8,33.09c-23-3.29-43.85,34-51.09,51.38C607.35,95,595.35,123.85,607.5,155c14.33,36.73,51.56,49,71.66,55.68,24.34,8,67.17,15,77.2-1.74,4.56-7.63,2.46-20.37-4.24-26.75s-17.32-5.59-24-5.06c-9.58.75-15.88,3.8-19.38,5.09-18.07,6.66-49.76-1-63.75-22.8-18.06-28.11-.47-70.16,21.41-80.11,10.91-5,20.11-.66,23.74-6.66C696.08,62.82,680.94,35.68,662.8,33.09Z" transform="translate(68.28 262.2)"/><path class="cls-4" d="M62.86.23h65.85l-3.33,1.89A180.16,180.16,0,0,0,109,12.68,128.09,128.09,0,0,0,94.59,24.92C85.9,33.49,79.39,42.3,70.36,52.86,58.26,67,41.65,84.27,9.23,108.27c-2.72,2-5.53,4.06-8.42,6.11v-65C14.24,37.32,27.73,26.25,41.3,15.67Q51.41,7.8,61.59.23l.6-.44Z" transform="translate(68.28 262.2)"/><path class="cls-5" d="M1025.49,193.69V251c-11.31-6.69-23.66-20.65-37.62-40.76-13.74-19.8-29-45.56-46.45-76.22q-8.58-15.14-17.88-31.81-2.7-4.83-5.46-9.8l-4.6-8.26-3.81-6.84-3-5.48q-7.49-13.45-15.43-27.65l-5.43-9.69q-5.32-9.47-10.85-19.23-4.2-7.44-8.55-15.06h29.95q3.12,4.85,6.43,10l.35.55c8.25,12.91,17.29,27.33,27.07,43.42l4.07,6.73q2.38,4,4.85,8.1c3.64,6.1,7.63,12.66,12,19.6q2.63,4.22,5.44,8.61c15.75,24.73,35.51,53.62,59,83.8Q1020.38,187.33,1025.49,193.69Z" transform="translate(68.28 262.2)"/><path class="cls-4" d="M50.27,391.91c-2.7.24-4.93-2.8-5.62-3.67C38.86,381,19.84,373.88.81,370.3V354.51c25,1.94,54.51,1.83,58.68,15.25C62,377.79,55.67,391.46,50.27,391.91Z" transform="translate(68.28 262.2)"/><path class="cls-4" d="M33.18,767.48l.56.74H.81v-46.8c1.19,1.84,2.4,3.68,3.6,5.51,1.36,2.05,2.73,4.1,4.11,6.13q11.22,16.56,23.23,32.51C32.22,766.21,32.7,766.84,33.18,767.48Z" transform="translate(68.28 262.2)"/><path class="cls-4" d="M102.34,73.89C98.43,81.83,93,87.51,89,87.23a5.52,5.52,0,0,1-3.56-2C82,81.62,80,73.93,79.21,71.45a84.63,84.63,0,0,0-8.85-18.59c-7-11.46-17.1-24.47-29.06-37.19C36.38,10.43,31.14,5.24,25.69.23h35.9l.6-.44.67.44C74.22,7.78,86,15.74,94.59,24.92c7.49,8,12.58,16.89,12.91,27.24C107.74,59.59,105.51,67.47,102.34,73.89Z" transform="translate(68.28 262.2)"/><path class="cls-4" d="M758.13.23c-2.41,10-3.87,19.5-4.31,22.39-4.49,29.11,0,43.64-9.24,49.84a19.73,19.73,0,0,1-10.84,2.83c-7.37,0-15.62-2.94-20.56-8.36a17.43,17.43,0,0,1-1.67-2.14,16.53,16.53,0,0,1-.9-1.5,15.84,15.84,0,0,1-.74-1.56,19.83,19.83,0,0,1-1.42-7.44c0-.38,0-.76,0-1.15s0-.55,0-.83q.06-1.19.24-2.43a1.65,1.65,0,0,1,0-.31c.07-.51.15-1,.26-1.56.06-.35.12-.69.2-1,.17-.85.38-1.71.62-2.59.16-.62.33-1.24.53-1.87s.4-1.27.61-1.92l.33-1c.22-.65.46-1.3.71-2,.12-.33.25-.66.38-1,.25-.67.51-1.35.8-2l.42-1,.89-2.08c.3-.7.61-1.4.94-2.11s.64-1.43,1-2.15c.67-1.45,1.37-2.91,2.1-4.41.36-.74.72-1.48,1.1-2.24.55-1.13,1.13-2.28,1.71-3.44l1.54-3.06.83-1.63c2-4,4.07-8,6.12-12.25Z" transform="translate(68.28 262.2)"/><path class="cls-4" d="M821.5,84.55c.18,5.25.21,9.64,0,13.34-.49,8.81-2.34,13.73-6.76,17-4.84,3.6-12.26,4.9-18.82,3.69a21.9,21.9,0,0,1-3.56-.94,17.73,17.73,0,0,1-5.4-2.94,12.65,12.65,0,0,1-1.76-1.67,11.87,11.87,0,0,1-2.56-4.68c-1.36-4.86.2-10.83,2.8-18.12.43-1.23.89-2.49,1.38-3.79.74-2,1.53-4.09,2.33-6.28,1.83-5,3.74-10.45,5.34-16.45v0a105.71,105.71,0,0,0,3.65-31.9,114.29,114.29,0,0,0-6-31.61H818c.13,2.35.2,5.38.32,10,.2,8.09.57,21.09,1.7,43.89.09,1.73.2,3.52.28,5.38.26,5,.51,9.5.72,13.64.13,2.56.24,5,.33,7.24,0,.13,0,.26,0,.39C821.42,82.11,821.46,83.35,821.5,84.55Z" transform="translate(68.28 262.2)"/><path class="cls-4" d="M1025.49,69.86v37.77c-.5-.47-1-.93-1.5-1.39-10.91-9.91-24.06-18.81-41.2-20.84a79.16,79.16,0,0,0-31.74,3.23c-1.18.35-2.37.73-3.54,1.14a88.3,88.3,0,0,0-8.36,3.35c-.47.2-.93.42-1.39.64a85.88,85.88,0,0,0-14.22,8.48,68.19,68.19,0,0,0-14.2,13.91,51.64,51.64,0,0,0-6,9.87c-8.47,18.4-2.94,35.7,3.78,56,3.54,10.71,7.4,22.24,9.71,35.22A128.76,128.76,0,0,1,919,240.39a130.71,130.71,0,0,1-2.68,26c-.77,3.82-1.72,7.68-2.8,11.46C909,293.65,902.36,307.56,897.85,307c-1.41-.2-2.44-1.73-3.22-4.56-.11-.41-.22-.84-.32-1.29-1.95-8.75-2.14-27-2.9-52.76-.3-10.32-.69-21.85-1.32-34.47-.78-15.55-1.92-32.76-3.71-51.41v0c-1.33-13.85-3-28.49-5.16-43.83-1.94-13.8-4-26.13-6.12-37.26-.29-1.5-.58-3-.88-4.43-.19-1-.4-2-.6-3q-.54-2.62-1.1-5.15c-2.11-9.61-4.32-18.23-6.66-26.1A222.89,222.89,0,0,0,848.67.23h21.87c1.63,5.35,3.08,10.39,4.37,15.06,2.47,9,4.34,16.6,5.68,22.49,1.92,8.46,2.77,13.3,2.77,13.3.27,1.54.51,3,.75,4.46,1.36,8.28,2.42,14.76,4.91,19.18a12.15,12.15,0,0,0,5.13,5.13c4.86,2.49,9.83.91,15.52-2.51,2.91-1.75,6-4,9.37-6.41h0c3.75-2.7,7.83-5.63,12.36-8.36.92-.55,1.86-1.1,2.82-1.64a68.81,68.81,0,0,1,26.4-8.77c1.74-.19,3.33-.29,4.82-.31C982.41,51.6,986.05,61.58,1025.49,69.86Z" transform="translate(68.28 262.2)"/><path class="cls-4" d="M316.42,618c-3.06,2.86-11.08-4.92-24.49-8.72a66.76,66.76,0,0,0-30.69-.89,72,72,0,0,0-28.07,11.75c-15.7,11.36-22.89,29.27-25.16,47.64a123.51,123.51,0,0,0,.39,31.81,125.9,125.9,0,0,0,3.43,16.61,131,131,0,0,0,10.38,25.46,116.28,116.28,0,0,0,6,10,86.33,86.33,0,0,0,14,16.5H204.57q.17.3.36.6l-6.06-.39a2.12,2.12,0,0,1-.11-.21A137.28,137.28,0,0,1,189.07,743v0q-.69-2.4-1.32-4.93c-.55-2.2-1.06-4.49-1.55-6.88a182.54,182.54,0,0,1-3.37-24.83,201.1,201.1,0,0,1,.56-31.65c.63-7.12,1.45-13.76,2.09-20.1,2-19.05,2.21-35.55-9.43-54.92-.18-.28-.35-.59-.52-.87-4.52-7.32-9.27-12.7-14.77-18.81a249,249,0,0,1-32.21-43.08c-1.83-3-3.86-6.42-5.87-9.87-7.28-12.46-14.34-25.87-11.19-28.57,1.82-1.56,7.28.3,14.69,4.92,12.07,7.47,29.33,22.24,44.4,41.29,2.74,3.48,5.42,7.11,8,10.84a157.16,157.16,0,0,1,9,14.78c9.33,17.45,9.09,25.59,20,30.64a28.49,28.49,0,0,0,12.72,2.64c14.55-.22,29.78-10,44.48-16.63,12.12-5.49,23.87-8.88,34.58-3.09C314.22,591.92,320.59,614.17,316.42,618Z" transform="translate(68.28 262.2)"/><path class="cls-4" d="M376.44,747.44c-2.77,2.66-5.53,5.21-8,7.48-4.28,3.9-7.78,7-9.3,8.29-.28.23-.56.47-.82.71-1.72,1.49-3.4,2.93-5,4.3H297.73c6.84-4.38,15.6-10,27.68-16.69q2.85-1.59,6-3.27c1-.56,3.52-1.9,7-3.71,6.12-3.2,15.21-7.84,24.37-12.12,15.13-7.06,30.42-13.09,32.71-9.78S386.92,737.4,376.44,747.44Z" transform="translate(68.28 262.2)"/><path class="cls-4" d="M521.07,768.22H484.84c-.63-2.36-1.13-4.68-1.51-6.93-2.2-13-.52-23.68,3.88-25.83,5.61-2.74,12.71,9.71,28.27,26.82C517.24,764.2,519.1,766.19,521.07,768.22Z" transform="translate(68.28 262.2)"/><path class="cls-4" d="M1025.49,542.8v37.73c-13.3,5.31-26.27,19.36-39.79,34.14l-.67.73c-17.92,19.63-27.62,30.23-29.37,46.39a47.79,47.79,0,0,0,2.51,21c3.24,9.5,8.64,17.84,12.65,26.13,4.43,9.16,7.17,18.23,3.39,28.68-.39,1-5.55,14.88-13.93,15.46-7.88.56-17.81-10.69-24.85-27.25a113.4,113.4,0,0,1-7.13-23.82,102.39,102.39,0,0,1-1.19-31c.28-2.49.69-5,1.21-7.41a87,87,0,0,1,2.59-9.5c9.35-28.34,27.56-39.09,35.23-48.21,2.48-3,3.86-5.81,3.43-9-1-7.84-11.79-9.25-34.17-15.16-5.74-1.54-12.26-3.35-19.58-5.66-8.34-2.66-17.71-5.92-28.19-10.09C862.15,555.77,850,548.1,832,552c-20,4.37-30.35,19.33-33.56,16.68-4.39-3.65,5.39-39.35,29.67-50.89,29.63-14,59.56,18,97.94,35.21a123.31,123.31,0,0,0,17.75,6.5A88.79,88.79,0,0,0,982,562,93.8,93.8,0,0,0,1014,550.39,115.36,115.36,0,0,0,1025.49,542.8Z" transform="translate(68.28 262.2)"/><path class="cls-4" d="M1025.49,13.55V39.13c-28.87,1.34-31.19-2.23-31.56-3.64-1.36-5,13.43-13.09,18.62-15.94A101.51,101.51,0,0,1,1025.49,13.55Z" transform="translate(68.28 262.2)"/><path class="cls-4" d="M1025.49,341.35v39.51c-21-4-40.41-6.12-43.52-19.65-1.82-7.84,2.48-16.65,8-21.28C998.86,332.4,1011.41,335.54,1025.49,341.35Z" transform="translate(68.28 262.2)"/><path class="cls-4" d="M862.13,755.19c2.51,3.41,6,7.92,10.2,13H827l-.28-.48c-1.39-2.33-2.66-4.64-3.87-7-5.83-11.08-9.91-21.71-13.65-31.36-8-20.52-14.53-36.69-33.09-43.26-23.71-8.42-42.61,7.45-55.11-6.13-9.55-10.35-9.57-31.6,0-39.8,15.64-13.44,58.44,6.69,85.74,30.62,14.84,13,21.75,24.23,27.9,36.39v0c6.33,12.48,11.81,25.92,24.15,43.22C859.56,751.63,860.7,753.23,862.13,755.19Z" transform="translate(68.28 262.2)"/><path class="cls-16" d="M679.93.23H643.34a250,250,0,0,1,15,32.73c4.49,11.47,7.07,18.32,11.32,17.75,2.89-.39,5.82-4.11,8.07-9.86C681.59,31.07,683.48,15.4,679.93.23Zm319.7,93.53c-.1-.49-.21-1-.32-1.47h0c-.9-4.26-1.89-8.61-2.88-13.26-1.08-5.07-2.16-10.48-3.15-16.45-.45-2.68-.85-5.45-1.25-8.37l-.09-.64a264.31,264.31,0,0,1-2.42-36.39c0-5.85.24-11.49.64-16.94H968.49A86.43,86.43,0,0,1,965,10.78c-.22.55-.45,1.1-.69,1.64-3.62,8.28-8.49,15.35-14.79,20.63-.62.52-1.23,1-1.85,1.47a38,38,0,0,1-5.17,3.26c-4.38,2.31-9.09,3.67-14.73,4.94-10.62,2.4-24.55,4.41-45.85,11.45l-4,1.35c-6.47,2.24-13.61,4.93-21.5,8.22v0c-.22.08-.46.17-.69.28-5.94,2.48-38.1,16-44.11,23.32a2.92,2.92,0,0,0-.88,2.46c.53,1.82,4.66,2.52,10.61,2.54,3.73,0,8.17-.24,12.89-.65h0c4.25-.37,8.72-.87,13.12-1.43,5.59-.71,11-1.5,15.69-2.21,6.62-1,11.66-1.91,13.27-2.2,2.48-.43,4.84-.88,7.1-1.32,4.63-.89,8.82-1.77,12.63-2.62,3.24-.72,6.2-1.42,8.93-2.08,10-2.44,16.9-4.43,22.49-5.37a33.12,33.12,0,0,1,8.07-.51,24.58,24.58,0,0,1,7.73,1.93l.54.23c.47.22,1,.43,1.42.67s.93.48,1.39.74c.82.45,1.59.92,2.37,1.44a2.26,2.26,0,0,1,.28.2c.48.3.93.65,1.36,1a13.9,13.9,0,0,1,1.15.91l.12.09c.78.62,1.51,1.29,2.23,2,.37.37.76.71,1.12,1.1s.74.78,1.08,1.17.72.8,1.06,1.21.69.82,1,1.25a44.89,44.89,0,0,1,2.83,4,7.51,7.51,0,0,1,.62,1c.09.13.18.28.26.41.33.5.63,1,.91,1.53.47.8.91,1.62,1.34,2.46.11.24.24.46.32.69.43.83.82,1.67,1.21,2.51a.72.72,0,0,1,.09.24c.43.93.84,1.88,1.21,2.83s.75,1.9,1.1,2.87c.06.17.13.34.19.54.31.82.59,1.66.85,2.5a1.59,1.59,0,0,1,.12.41c.67,2.08,1.26,4.19,1.8,6.31a124.24,124.24,0,0,1,3.52,34.53A123.45,123.45,0,0,1,969,182c-3.68,11.4-9.2,22.76-17.07,31.92a55.2,55.2,0,0,1-25.35,17.21l-1.73.52-.08,0q-.91.25-1.86.48c-1,.24-2,.46-3,.64h0a4.51,4.51,0,0,1-.53.1c-.37.07-.74.14-1.11.19s-.66.11-1,.15-.48.08-.72.1-.74.1-1.12.14-.82.1-1.24.13c-.25,0-.51.06-.76.07l-1.11.09-.57,0-.81.05c-.62,0-1.25.07-1.88.09-.89,0-1.79,0-2.7,0h-.67l-.79,0-1.2-.05h-.39l-1.54-.09c-.68-.05-1.37-.12-2-.19l-1.23-.14-.81-.1c-.57-.07-1.13-.15-1.7-.24l-.16,0-.55-.09-1.2-.21h0c-.58-.11-1.17-.22-1.75-.35h0c-.61-.13-1.23-.26-1.84-.41l-.78-.19-.72-.18-.88-.24-.36-.1-1.33-.38-.53-.17c-.44-.13-.88-.28-1.31-.42l-.17-.06-.26-.09h0l-.72-.26-1.12-.4-.82-.32-.05,0c-.67-.27-1.33-.54-2-.83l-1.37-.62-.35-.16-.73-.36-.72-.36c-.84-.42-1.67-.87-2.49-1.34l-.06,0c-.58-.33-1.16-.67-1.72-1s-1.17-.74-1.74-1.13l-.93-.65a59.32,59.32,0,0,1-4.86-3.85c-.8-.7-1.55-1.4-2.27-2.08s-1.32-1.27-1.92-1.87l-.67-.67-.7-.71-.68-.68-.31-.32-.53-.53-.42-.42-.09-.09c-.07-.06-.13-.13-.2-.2a3.7,3.7,0,0,1-.28-.28l-.83-.78h0l0-.05s0,0,0,0l-.2-.17-.22-.19c-.21-.19-.42-.36-.62-.51a5.61,5.61,0,0,0-.51-.38l-.25-.17a3.21,3.21,0,0,0-.38-.23,2.09,2.09,0,0,0-.36-.19,1.85,1.85,0,0,0-.29-.13l-.36-.12a1.22,1.22,0,0,0-.26-.06l-.11,0h-.07a2.16,2.16,0,0,0-1.12.18,3.84,3.84,0,0,0-.39.22l-.17.13-.12.11,0,0a3.38,3.38,0,0,0-.26.27s0,0,0,0l-.12.15-.09.11-.2.3-.16.26L849,210c0,.05-.05.1-.08.16a.54.54,0,0,0-.07.13c0,.05,0,.1-.07.16l-.07.15c-.07.17-.15.36-.21.55l-.05.12h0a4.56,4.56,0,0,0-.18.52l-.06.19c0,.15-.09.3-.13.45s-.11.44-.17.68a.25.25,0,0,1,0,.07c0,.21-.09.42-.13.64-.1.51-.18,1-.26,1.61a.41.41,0,0,1,0,.11c0,.2-.05.4-.07.61l0,.32c-.06.72-.1,1.48-.12,2.27,0,.41,0,.82,0,1.25V220c0,.2,0,.41,0,.62l0,.82c0,.27,0,.55,0,.82a2.46,2.46,0,0,0,0,.28c0,.38.06.77.1,1.17a2.11,2.11,0,0,0,0,.25c0,.31.07.63.12.94l.12.8c0,.27.08.54.13.81s0,.27.07.41,0,.17,0,.26.07.37.11.55c.12.64.27,1.28.42,1.92,0,.1.06.2.08.3l.17.62c.15.55.31,1.09.49,1.63.08.26.17.53.26.79q.27.81.6,1.62l.33.79c.09.22.19.45.29.67.25.56.52,1.12.81,1.66.11.23.24.46.36.68s.32.57.49.85c.26.44.53.88.82,1.31l.19.29.08.12.12.16c.21.3.43.59.65.89s.48.62.74.92h0l.07.09.07.09h0c.26.3.53.6.8.89s.3.32.46.47.3.3.46.45l.37.35.37.33.06.05.41.35q.71.59,1.44,1.11l.58.4.65.41c.19.12.38.24.58.35l.28.16.44.24,0,0c.29.16.59.31.89.45s.73.34,1.11.5l1.39.55h0l1.4.46.11,0q.33.1.66.18l1.35.34.22,0,.68.13.76.14.44.07c.18,0,.37.06.56.09l.55.08c.52.07,1.05.13,1.58.18l.8.06.91.06c.55,0,1.11.06,1.67.07s1.13,0,1.7,0l1.23,0h.64l1.46-.05.88,0,1.62-.11c1.48-.11,3-.26,4.48-.43h0l2-.22.39,0c3.41-.43,6.88-.94,10.35-1.43l2.07-.29c.69-.1,1.39-.19,2.08-.27l.59-.08,1.19-.15.29,0,.75-.09,1.82-.2.34,0,.83-.07c1.17-.11,2.34-.2,3.49-.27h0c10.89-.68,21,.6,28.7,7.81,9.84,9.29,4.31,17.8,11.33,45.18.11.43.22.84.35,1.3.26,1.06.56,2.16.88,3.28,11.71,40.84,37.34,74.21,43.54,71.68,4.65-1.9-.47-24.58-3.91-39.85-7.49-33.15-15.55-45.44-20.81-59.93a83.17,83.17,0,0,1-3.07-10.13,68.32,68.32,0,0,1-1.73-22.4c.94-9.89,4.11-18.77,8.16-28.09,4.65-10.69,10.45-21.95,15.3-36a172.1,172.1,0,0,0,8.31-36.39c.45-3.81.76-7.4.94-10.8C1004.14,118.25,1002.25,106.39,999.63,93.76ZM441.79,30.67a16,16,0,0,0-7.28-7.82c-10-5.42-26.24-3-40.71-14.25a39.18,39.18,0,0,1-4-3.6,36,36,0,0,1-3.9-4.77h-31a118.61,118.61,0,0,0,6.65,13,166.51,166.51,0,0,0,15.7,22.21c8.14,9.77,17.22,18.45,26,24.35,9.92,6.68,19.42,9.79,26.63,6.83C441,62.12,447.32,42.92,441.79,30.67Zm30.78,72.4c-48.42-5.13-56.59,40.27-78.69,40.27l-.76,0c-3.81-.17-8.05-1.69-13-5-23.2-15.75-35.46-23.38-41.82-27a39.4,39.4,0,0,0-5.83-2.92c-.05-.56-.94-2.16-4.27-6.1-10.62-12.57,37.15-13.55,75-42.47A111.2,111.2,0,0,0,417.39,47a113.42,113.42,0,0,0,8.87-10.75,107.12,107.12,0,0,0,8.25-13.36A113,113,0,0,0,443.37.23H389.94c0,1.58,0,3.17-.16,4.77a36,36,0,0,1-3.9-4.77h-31a118.61,118.61,0,0,0,6.65,13,166.51,166.51,0,0,0,15.7,22.21c-11.94,14.09-31.48,22.89-63.42,37.31-16.23,7.3-32.1,14.45-47.08,19.53-11.74,4-22.94,6.7-33.34,7.2a56.88,56.88,0,0,1-19.94-2.26c-.63-.2-1.26-.41-1.88-.65h0C201.48,93,192.91,86,186,76.62a82.42,82.42,0,0,1-7.72-12.69c-.57-1.15-1.13-2.33-1.65-3.52a131.58,131.58,0,0,1-10.07-37.48A164.62,164.62,0,0,1,165.4.23H62.86l-.67-.44-.6.44H.81V348.79A86.81,86.81,0,0,1,16,348c2.29.09,4.59.27,6.84.57,13.53,1.76,26.36,7.29,38.59,14.47,22.58,13.29,43.2,32.23,62.93,43.45,7.1,4,14.09,7.07,21,8.47a42,42,0,0,0,7.35.85l1.11,0H154a34.44,34.44,0,0,0,7.54-.84l.81-.19c-.29-16.14-.55-33.94-.77-52.41l-.81-.4-.16-.08c-6.86-3.41-14.54-6.78-22.49-10.29-29-12.82-61.67-27.64-71.46-53.89-5.59-15-2.73-31.05,5.11-46.73C77.15,240.11,85,229.45,94,219.47a252.15,252.15,0,0,1,51.68-42.77l3-1.81.65-.39c2.21-1.33,5.58-3.34,10-5.75l.81-.44c4-2.19,8.89-4.7,14.46-7.3,3.14-1.47,6.51-3,10.09-4.44l0,0a234.28,234.28,0,0,1,48.78-14.39c8.24-1.44,20.59-4.09,33.52-6.56,14.83-2.82,30.43-5.42,41.51-5.75,6.74-.2,11.69.35,15.31,1.43,14.55,4.31,7.65,17,9.47,23h0l19.66,0h0c1.53-.5,3.16-1.08,4.93-1.72,1.53-.56,4.22.13,7.77,1.79l4,0,6.07.05,15.95.18h2l2.66,0,4.73.07,3.48,0,1.86,0h1l3.75.07h.08l4.51.08h.56l5.18.1C429.49,122.44,496,105.55,472.57,103.07Z" transform="translate(68.28 262.2)"/><path class="cls-16" d="M42.27,725.72a130.27,130.27,0,0,0-8.63,35c-.16,1.51-.28,3.09-.36,4.71,0,.66-.07,1.32-.1,2l0,.74H.81v-30c2.66-1.6,5.23-3.33,7.71-5.16a112.14,112.14,0,0,0,8.76-7.14c27.72-25,41.43-62.14,32.21-81.28-3.3-6.84-10.78-13.91-9.24-24.4,1.28-8.77,8.44-17.13,14.13-18.41a5.75,5.75,0,0,1,2.67,0c2.06.51,3.62,2.4,4.82,5.09,3.35,7.53,3.79,21.31,4,28.54C67.23,676.52,52.43,699.16,42.27,725.72Z" transform="translate(68.28 262.2)"/><path class="cls-16" d="M261.24,608.42c-10.69,16.44-35.8,35-53.23,59.39a109.72,109.72,0,0,0-11.53,20,79.5,79.5,0,0,0-6.5,24.66c0,.58-.1,1.15-.14,1.73A79,79,0,0,0,192,738.51c.28,1.14.58,2.28.91,3.42a111.46,111.46,0,0,0,11.66,26.29q.17.3.36.6l-6.06-.39-3.11-.21H175.9l-.89-1.5c-5.29-8.88-11.58-19.33-19-31.72-.06-.1-.12-.19-.17-.29-5.5-9.16-10.43-17.37-14.85-24.76-17.21-28.8-26.67-45.15-31.87-56.15s-6.17-16.6-6.36-23.95c-.47-16.2-.17-30.75.41-42.82,1.09-22.6,3.19-36.55,3.19-36.55.71-4.77,1.45-9,1.9-12.72.07-.56.13-1.1.18-1.64.64-6.55.19-11.4-3.22-14.88-10.4-10.59-31.61,8.56-60.52,6.26a61,61,0,0,1-7.88-1.16c-16.07-3.48-17.43-10.67-36-24.21V466.64c6.29,9.2,14.41,17.6,25.92,23,25.18,11.79,64.27,8.17,84-12.89C138.55,447,108.41,402.93,141.1,346c5.7-9.91,13.09-19.84,19.18-25.8,4.17-4.11,7.73-6.31,9.7-5.36,4.29,2.05-.74,18.29-9.27,46.54-9.07,30.11-22.16,73.9-32.2,128.69q-1.26,6.9-2.33,13.33-2.1,12.66-3.5,23.65c-.47,3.58-.86,7-1.21,10.39,0,.34-.06.67-.11,1-3.12,30.25-2.07,51.45,1.46,70.57.59,3.23,1.25,6.39,2,9.53a251.56,251.56,0,0,0,19.47,54.41c7,14,13.1,22.29,14.54,21.74s-2-7.76-5.21-19.93a152.35,152.35,0,0,1-5.31-37.27c-.06-4.13.06-8.42.41-12.86.7-8.85,1.45-7.3,12.06-44.62,1.51-5.27,3.19-11.29,5.11-18.25,1.77-6.45,3.33-12.11,4.71-17.06,5.75-20.49,9-28.72,16.91-31.33,9-3,22.46,1.79,26.16,10.51,5.18,12.25-12.57,23.54-26.07,46.44a97.86,97.86,0,0,0-10,23.13c-.58,2.07-1.1,4.14-1.53,6.24-5.71,26.24-.82,53,7.19,54.94a5,5,0,0,0,2.24,0c10.41-2.46,26.68-34.21,29.4-39.52,2.11-4.13,3.88-8,5.4-11.49,7.75-18,9.33-28.45,17.9-30.8s22.07,4.32,26.58,14.17a2.1,2.1,0,0,1,.13.26C267.94,594.08,266,601,261.24,608.42Z" transform="translate(68.28 262.2)"/><path class="cls-16" d="M389,768.22h-28.9q-.85-2.29-1.75-4.3a34.61,34.61,0,0,0-6.7-10.26c-.26-.29-.55-.57-.84-.84a44.09,44.09,0,0,0-12.42-8.27c-29.19-13.07-69,4.23-84.37-18.29-5.49-8-7.45-20.37-2.27-26.7,12.39-15.16,72.13-3.37,111,32.87a121.46,121.46,0,0,1,13.73,15c.91,1.21,1.81,2.42,2.68,3.67,1.11,1.58,2.17,3.19,3.19,4.8A113,113,0,0,1,389,768.22Z" transform="translate(68.28 262.2)"/><path class="cls-16" d="M839.36,768.22H815.51a48.55,48.55,0,0,1,7.29-7.43c4.82-3.89,9.55-5.88,12.35-4.71,2.29.93,3.37,4,3.85,7.32A36.52,36.52,0,0,1,839.36,768.22Z" transform="translate(68.28 262.2)"/><path class="cls-16" d="M975.6,509.84c12.76,11.44,34.41,23.87,49.89,27.47v55C1009,601.81,996,608.58,985.7,614.67c-17.3,10.19-27.12,18.42-33.34,33.9-3.87,9.63-7.69,25.36-16.09,26.18-2.92.28-6.33-1.23-9.16-3.78a17.36,17.36,0,0,1-5.31-8.45c-1.28-5,.32-10.71,3.8-16.71.47-.82,1-1.67,1.55-2.51,8.28-12.61,24.15-26.28,39-37.45,13.8-10.41,26.71-18.63,31.74-21.85,17.28-11,25.51-14.26,25.55-21.17,0-4.62-3.65-8.7-9.39-12.44-13.35-8.74-37.88-15.85-53.39-24.62-8.1-4.55-13.73-9.59-14-15.55,0-.21,0-.45,0-.67.13-6.34,6.27-14.18,11.34-16.58h0l0,0a5.42,5.42,0,0,1,3.61-.65c2.51.58,3.61,4,4,5C966.91,500.94,970.56,505.3,975.6,509.84Z" transform="translate(68.28 262.2)"/><g id="curious"><g class="cls-17"><g class="cls-17"><path class="cls-18" d="M106.27,672c-.76,1.74-1.6,3.41-2.51,5.16a16.16,16.16,0,0,1-1.42,2.58c.07.07,0,.21-.13.28-.52,1.11-1.17,2.17-1.82,3.28-1.31-.37-2.49-.81-3.68-1.25a49.8,49.8,0,0,1-10-5.31c-1.69-1.18-2.88-2.1-3.59-2.7-.28-.19-.49-.39-.77-.59-.43-.33-.92-.73-1.34-1-2-1.51-3.93-2.89-5.83-4.2-.49-.33-1-.59-1.4-.92-2.59-1.7-5.18-3.2-7.69-4.69-.63-.33-1.26-.72-1.89-1.11-3.21-1.75-6.35-3.36-9.49-5-1.12-.51-2.23-1.1-3.35-1.68-3.27-1.61-6.41-3.16-9.48-4.77-.91-.45-1.89-1-2.79-1.49-3.21-1.62-6.29-3.44-9.3-5.33l-1.47-1a70.56,70.56,0,0,1-7.88-6,13.53,13.53,0,0,1-1.83-1.59,58.74,58.74,0,0,1-5.75-6,5.68,5.68,0,0,1-.57-.67c-.72-.93-1.43-1.8-2.15-2.74-2.37-3.42-4.2-7-4-10.51a5.56,5.56,0,0,1,.35-2.14,9,9,0,0,1,1.22-2.44A10.38,10.38,0,0,1,13.33,606c6-1.91,12.23,2.69,15,4.8,18.56,13.89,27.77,20.87,45.22,36.78A234.16,234.16,0,0,0,106.27,672" transform="translate(68.28 262.2)"/><path class="cls-18" d="M183.07,609.94c-5.72,7.87-26.82,4.77-40.95-3.77C136,602.38,133.52,599,132,600c-3.56,2.18,6.06,22,15.87,49.93,12.06,34.12,18.09,51.22,14.88,66.7-5.05,24.44-24.67,39.55-32.84,45.84C112.33,776,95.1,779.88,79.29,783.27c-21.61,4.67-55.2,11.77-86-2-44.06-19.66-61.52-72.55-61.53-72.82.07,0,7.27,10.6,21.78,28.94,10.08,12.58,11.84,14,14.48,15.12,3.62,1.59,11.3,3.55,39.9-9.71,13.59-6.34,17.67-9.49,31.24-16.57C67.4,711.54,67,716.15,77.73,708.6a72,72,0,0,0,12.21-10.82c1.44-.11,2.94-.37,4.44-.62,2.32-.42,12.07-2.31,12.32-5.47.14-1.86-3-3.06-8.65-4.46a44.54,44.54,0,0,0,2.34-3.92,107.5,107.5,0,0,0,5.88-11.3c3.73-8.08,6.62-16.33,9.39-24.24,4.58-13.32,5.56-21.52,5.33-28.72-.32-9.93-2.82-15.07-6.33-26.35a5,5,0,0,0,1.71-.19c1.22-.31,4.13-1.57,6.28-9.46,9-32.88-3.82-66.23-3.82-66.23A85,85,0,0,0,113.89,506a21.12,21.12,0,0,1,6.08-5.13A18.82,18.82,0,0,1,124.3,499a3.85,3.85,0,0,1,0,1,1.82,1.82,0,0,0,0,.68,2,2,0,0,0,.16.68c.31,1,2.73,1.63,3.26.93.13-.21,0-.62,0-.75a14.61,14.61,0,0,1-.31-3.29,33.71,33.71,0,0,1,16.93,1.38l.41.2c-.54,2.28-.91,3.73-1.1,4.28l-.11.63a5.13,5.13,0,0,0-.05.75c.1,1,2.34,2.19,2.94,1.62.26-.21.18-.62.18-.76a33.16,33.16,0,0,1,.86-5.31,25.79,25.79,0,0,1,5.6,3.53,35.77,35.77,0,0,1,6.24,6.32,75.85,75.85,0,0,0-4,10.49,84.93,84.93,0,0,0-2.63,42.48c2,9.48,4.32,21.41,12.38,26.64,6.58,4.32,13.44,2,17.76-.29.15.54.38,1.09.53,1.7.54,1.76,3.7,12.57-.24,18.05" transform="translate(68.28 262.2)"/><path class="cls-19" d="M106.7,691.69c-.25,3.16-10,5-12.32,5.47-1.5.25-3,.51-4.44.62,1.13-1.27,2.26-2.54,3.31-3.88.46-.56.92-1.19,1.32-1.76a10.92,10.92,0,0,0,.72-1,3.4,3.4,0,0,0,.72-1h.07c.66-.92,1.31-1.9,2-2.88,5.6,1.4,8.79,2.6,8.65,4.46" transform="translate(68.28 262.2)"/><path class="cls-19" d="M127.7,502.27c-.53.7-3,0-3.26-.93a2,2,0,0,1-.16-.68,1.82,1.82,0,0,1,0-.68,3.85,3.85,0,0,0,0-1,12.33,12.33,0,0,1,3.06-.79,14.61,14.61,0,0,0,.31,3.29c0,.13.16.54,0,.75" transform="translate(68.28 262.2)"/><path class="cls-19" d="M147.42,501a32.07,32.07,0,0,0-.86,5.31c0,.14.08.55-.18.76-.6.57-2.84-.66-2.94-1.62a5.13,5.13,0,0,1,.05-.75c.06-.35.11-.62.11-.62.19-.56.56-2,1.1-4.29a12.12,12.12,0,0,1,2.72,1.21" transform="translate(68.28 262.2)"/><path class="cls-6" d="M118.83,516.82A85,85,0,0,0,113.89,506c-3.57-6.34-6.44-8.37-8.74-9.53-7.54-4-17.19-3-24.25,1.25C70.46,504,68.38,516.1,68,518.24c-3.51,21,8.94,35,30,58.73a185.36,185.36,0,0,0,14,14.79,3.77,3.77,0,0,0,2.64.94,4.77,4.77,0,0,0,1.71-.19c1.22-.31,4.13-1.57,6.28-9.46,9-32.88-3.82-66.23-3.82-66.23M88.37,547.16a8.86,8.86,0,0,1-7.92,1.14c-4.17-1.51-5.82-5.92-6-8.73a11.58,11.58,0,0,1,.55-4.13c.88-2.64,2.58-5.3,3.34-5.05,1.11.31-1,6.69.71,7.39,1,.45,3.19-1.13,3.54-3.06.47-2.63-2.67-4.38-2-5.7.58-1.12,3.74-1,6,.15,3.7,1.94,4.52,6.37,4.69,7.39s1.4,7.3-3,10.6" transform="translate(68.28 262.2)"/><path class="cls-6" d="M88.37,547.16a8.86,8.86,0,0,1-7.92,1.14c-4.17-1.51-5.82-5.92-6-8.73a11.58,11.58,0,0,1,.55-4.13c.88-2.64,2.58-5.3,3.34-5.05,1.11.31-1,6.69.71,7.39,1,.45,3.19-1.13,3.54-3.06.47-2.63-2.67-4.38-2-5.7.58-1.12,3.74-1,6,.15,3.7,1.94,4.52,6.37,4.69,7.39s1.4,7.3-3,10.6" transform="translate(68.28 262.2)"/><path class="cls-6" d="M191.19,582.86a24.94,24.94,0,0,1-4.31,4.59,21.56,21.56,0,0,1-4.1,2.74c-4.32,2.33-11.17,4.61-17.76.29-8.06-5.23-10.43-17.16-12.38-26.64a84.93,84.93,0,0,1,2.63-42.48,75.85,75.85,0,0,1,4-10.49,30.06,30.06,0,0,1,7.16-9.9c.87-.79,11-9.82,20.39-6.14-1.26,7.72-1.92,15.22-2.58,22.24-1.49,15.9-3.42,39.43,7,65.79" transform="translate(68.28 262.2)"/><path class="cls-6" d="M200.49,555.94c-1.08,7-2.91,18.55-9.3,26.92-10.38-26.36-8.45-49.89-7-65.79.67-7,1.33-14.52,2.59-22.24a13.22,13.22,0,0,1,1.46.64c14,7.51,15.24,41.09,12.22,60.47" transform="translate(68.28 262.2)"/><path class="cls-18" d="M88.37,547.16a8.86,8.86,0,0,1-7.92,1.14c-4.17-1.51-5.82-5.92-6-8.73a11.58,11.58,0,0,1,.55-4.13c.88-2.64,2.58-5.3,3.34-5.05,1.11.31-1,6.69.71,7.39,1,.45,3.19-1.13,3.54-3.06.47-2.63-2.67-4.38-2-5.7.58-1.12,3.74-1,6,.15,3.7,1.94,4.52,6.37,4.69,7.39s1.4,7.3-3,10.6" transform="translate(68.28 262.2)"/><path class="cls-18" d="M181.8,307.2c-3.05,3.46-6.47,3.91-12.1,5.73-17.66,5.71-20.27,7.78-30.6,17.31a17.06,17.06,0,0,0-3.6,5.6,23.3,23.3,0,0,0-1.72,6.1c-.45,5.29-1.11,6.07-3,31.1-1.55,20.43-2.35,42.62-2.59,50.24-1.07,31-1.31,64.47-.84,75a14.61,14.61,0,0,0,.31,3.29c0,.13.16.54,0,.75-.53.7-3,0-3.26-.93a2,2,0,0,1-.16-.68,1.82,1.82,0,0,1,0-.68,3.85,3.85,0,0,0,0-1c.42-10.65-2.44-89.6-2.44-89.6-2.19-62.37-1.8-45.78-2.29-56.88-.28-6.64-2.39-21.12,5.5-31.87,1.19-1.55,1.46-1.49,6.87-6.33,15.14-13.58,22.74-20.41,26.93-26.79,3.73-5.81,5.63-10.75,11.12-12.64.75-.23,4.42-1.44,7.9,0,8.83,3.76,11.58,23.44,3.91,32.26" transform="translate(68.28 262.2)"/><path class="cls-18" d="M243.64,329.59c-3.69,2.65-7.13,2.28-13,2.74-18.47,1.62-21.51,3-33.78,9.86a19.66,19.66,0,0,0-4.8,4.61,22.41,22.41,0,0,0-3,5.59c-1.69,5.06-2.5,5.63-10.11,29.62-6.17,19.47-12,40.93-14,48.26-7.61,28.1-15,58.6-17.57,70.75a31.91,31.91,0,0,0-.86,5.31c0,.14.08.55-.18.76-.6.57-2.84-.66-2.94-1.62a5.13,5.13,0,0,1,.05-.75c.06-.35.11-.62.11-.62.19-.56.56-2,1.1-4.29C148.93,481.7,162,415.34,162,415.34c12.12-61.17,8.72-45,10.78-55.92,1.23-6.48,2.55-21.07,12.64-29.7,1.53-1.28,1.74-1.15,8.08-4.64,17.87-9.77,26.84-14.65,32.37-19.9,5-4.83,7.94-9.18,13.76-9.7a11.25,11.25,0,0,1,7.67,1.74c7.73,5.73,5.95,25.47-3.64,32.37" transform="translate(68.28 262.2)"/><path class="cls-20" d="M181.76,285.58c-2-6.88-4.57-8.1-6.85-9.08s-4.5-.23-6.28,2A23.1,23.1,0,0,0,163.8,295c.46,3.42,1.09,8.06,5.46,10.74.56.35,4.61,2.76,8.4,1.49,4.69-1.56,5.79-7.69,5.59-11.22-.22-3.89.1-4.83-1.49-10.41" transform="translate(68.28 262.2)"/><path class="cls-20" d="M248.81,309.31c-.1-7.05-2.4-8.94-4.43-10.52s-4.46-1.5-6.85.08a21.7,21.7,0,0,0-9.33,14.18c-.46,3.36-1.09,7.92,2.58,11.69.47.49,3.88,3.91,8,3.8,5.14-.14,7.91-5.61,8.66-9,.84-3.73,1.42-4.53,1.33-10.24" transform="translate(68.28 262.2)"/><path class="cls-20" d="M97.09,477.8c-5.29-.1-13.09,2.59-19.54,4.82C68.18,485.86,64.4,492,63,490.82c-1-.88,1.29-4.07,3.89-11.41,2.29-6.47,1.87-7.89,5.1-18.7,2.93-9.83,4.07-11.28,5.66-11.85,3.86-1.39,8.66,2.95,10.72,4.82,3.31,3,2.12,3.6,9.31,16.8,1.15,2.11,2.85,5.17,1.73,6.58a3,3,0,0,1-2.34.74" transform="translate(68.28 262.2)"/><path class="cls-20" d="M166.2,463.48c4.63-.71,11.8,1.06,17.73,2.53,8.62,2.12,12.69,7.77,13.76,6.44.79-1-1.64-3.88-4.82-10.87-2.81-6.15-2.61-7.61-6.78-18-3.79-9.42-5-10.72-6.42-11.1-3.57-.94-7.24,3.93-8.82,6-2.53,3.36-1.41,3.82-6.09,17.75-.75,2.23-1.87,5.46-.7,6.73a2.38,2.38,0,0,0,2.14.46" transform="translate(68.28 262.2)"/><path class="cls-18" d="M311.47,417.1c-4.78-3.76-11.75-9.16-22.26-11.78-38.74-9.88-74.87,29.69-77.32,32.45-16.1,18.08-22.18,38.3-25.08,57.06-1.26,7.72-1.92,15.22-2.59,22.24-1.48,15.9-3.41,39.43,7,65.79.38,1,.75,2,1.2,3,6.08,14.43,14.83,35.07,36.87,46.31a53.69,53.69,0,0,0,5,2.24,36.7,36.7,0,0,0-1.42,5.13c-1.26,5.52-17.8,78.85-26.86,104.66-3.7,10.62-3.6,22.62-9.33,32.27a3.64,3.64,0,0,0-.67,2.77,4.12,4.12,0,0,0,3.12,2.92c2.21.47,4.28-1.38,4.94-2,9.28-8.18,40.23-85.6,40.23-85.6,12.08-30.1,27.75-46.51,34.94-57.65a102.34,102.34,0,0,0,14.67-4.58A89.42,89.42,0,0,0,328.08,609c18.4-21.24,20.08-45.92,21.36-70.25,1-19.59,4.61-88-38-121.61m18.84,115.42c-.22,21.07-.49,45-17.46,65.81a83.4,83.4,0,0,1-12.36,12.54s.07.06-.07.07a50.39,50.39,0,0,1-23.88,10.64,46.18,46.18,0,0,1-9.73.31,1.85,1.85,0,0,1-.69-.12,81.87,81.87,0,0,1-19.6-5.82c-.07,0-.07-.07-.14-.07-14.72-7.42-26.66-20.49-33.54-32-12.76-21.34-10.46-41.72-6.25-79.87,2.34-21.34,6.82-35.83,11.44-45.78.06-.21.19-.35.26-.56s.12-.21.19-.35A72.77,72.77,0,0,1,228,442.2a9.55,9.55,0,0,1,.86-1,81.1,81.1,0,0,1,16.54-14.66c1.28-.87,2.69-1.81,4.17-2.74h.07c7.26-4.62,16.51-9.51,25.74-8.36,5.65.71,14.68,4.13,28.44,27.08,9.86,16.5,27,46.08,26.47,90" transform="translate(68.28 262.2)"/><path class="cls-6" d="M309.63,574.76c-1.46,14.46-2.7,27.26-9.14,36.11,0,0,.07.06-.07.07a50.39,50.39,0,0,1-23.88,10.64,46.18,46.18,0,0,1-9.73.31,1.81,1.81,0,0,1-.69-.12,81.87,81.87,0,0,1-19.6-5.82c-.07,0-.07-.07-.14-.07-14.72-7.42-26.66-20.49-33.54-32-12.76-21.34-10.46-41.72-6.25-79.87,2.34-21.34,6.82-35.83,11.44-45.79.06-.2.19-.34.25-.55s.14-.21.2-.35a110.46,110.46,0,0,1,10.4-16.11,80.53,80.53,0,0,1,16.55-14.66c1.27-.87,2.68-1.81,4.16-2.75h.07a11,11,0,0,1,3.29-.24c2.41.27,6.08,1.59,18.29,20.76,8.74,13.65,13.07,20.44,18.18,32.35,10,23.35,24.31,56.66,20.21,98.09" transform="translate(68.28 262.2)"/><path class="cls-18" d="M257.13,536.21c.5,7.32,4.66,18.92,15.69,22.77a22.76,22.76,0,0,0,20.67-3c11.48-8.51,8.44-24.89,7.92-27.65-.48-2.61-2.64-14.24-12.32-19.25-6-3.12-14.24-3.32-15.81-.37-1.77,3.33,6.41,8,5.15,14.78-.94,5.06-6.77,9.26-9.3,8.12-4.22-1.91,1.08-18.55-1.79-19.47-1.95-.63-6.52,6.43-8.66,13.32a28.39,28.39,0,0,0-1.55,10.77" transform="translate(68.28 262.2)"/><path class="cls-18" d="M-6.46,663.18a11.18,11.18,0,0,1-1.21.93l-.8.65A17.31,17.31,0,0,0-10.35,666a7.46,7.46,0,0,1-1,.58,17.08,17.08,0,0,1-3.85,2.05c-.33.21-.74.29-1.08.51-.68.23-1.35.53-2,.75a4.19,4.19,0,0,1-.68.23c-2.83-2.52-4.84-5.4-4.88-8.76a10.42,10.42,0,0,1,3.79-8.08,49.63,49.63,0,0,0,8.94,7.12c1.54,1,3.15,1.89,4.69,2.8" transform="translate(68.28 262.2)"/><path class="cls-18" d="M12.86,670.87c-.2.21-.33.42-.53.63a11.66,11.66,0,0,1-1.46,1.77,19.76,19.76,0,0,1-2.65,2.82,4.25,4.25,0,0,1-.73.64c-.14.08-.27.22-.61.44s-.8.57-1.41,1A30.86,30.86,0,0,1,1,680.58a4.79,4.79,0,0,1,.84.52,71.92,71.92,0,0,1-15.31-7,37.89,37.89,0,0,1-3.86-2.69c.67-.3,1.55-.74,2.5-1.25.33-.22.74-.37,1.14-.58.07,0,.14-.08.21-.08,1.28-.72,2.36-1.31,3.3-1.82a23,23,0,0,0,3-2c.27-.15.53-.43.87-.65l.19-.21a7.29,7.29,0,0,0,1.14-1,97.54,97.54,0,0,0,13.56,5.61c1.32.44,2.77.94,4.3,1.44" transform="translate(68.28 262.2)"/><path class="cls-18" d="M31.21,676.19a2.82,2.82,0,0,1-.32.62c-.33.63-.72,1.26-1.11,1.89-.06.14-.2.28-.26.42-.39.63-.78,1.26-1.25,1.89a19.15,19.15,0,0,1-1.77,2.39,11.41,11.41,0,0,1-.79,1,14.52,14.52,0,0,1-1.47,1.35h-.07a123.06,123.06,0,0,1-19.68-3.9A13.44,13.44,0,0,1,7.1,679.7a1.2,1.2,0,0,0,.4-.43,4.7,4.7,0,0,0,1.27-1.07,18,18,0,0,0,1.66-1.56,12.87,12.87,0,0,0,2-2.4c.59-.7,1.05-1.47,1.57-2.17a4,4,0,0,1,.46-.7c4.58,1.43,10.18,3,16.76,4.82" transform="translate(68.28 262.2)"/><path class="cls-18" d="M49.75,681c-.13.34-.26.62-.38,1a14.94,14.94,0,0,1-.71,1.53c-.25.63-.57,1.26-.83,1.81A13.48,13.48,0,0,1,47,686.8a9.66,9.66,0,0,1-.84,1.47.81.81,0,0,1-.06.2c-.07.14-.2.28-.26.42-6.28-1.1-12.41-1.86-18.27-2.64a6.27,6.27,0,0,0,.39-.7c.13-.21.39-.7.58-1,.53-.85,1.11-1.89,1.83-3,.26-.41.52-.84.85-1.33a2.34,2.34,0,0,0,.33-.49,12.18,12.18,0,0,0,1.29-2.37,2.8,2.8,0,0,0,.26-.63c5,1.35,10.51,2.76,16.67,4.28" transform="translate(68.28 262.2)"/><path class="cls-18" d="M65.93,684.82l-.38,1.25a9.35,9.35,0,0,1-.31.9,18.34,18.34,0,0,1-.76,2,3.9,3.9,0,0,1-.32.84l-.5,1.25a.24.24,0,0,1-.07.14,17.72,17.72,0,0,1-.77,1.67,132.31,132.31,0,0,0-14.93-3.57.26.26,0,0,0,.06-.14,15.28,15.28,0,0,0,.7-1.67c.32-.9.51-1.46.63-1.87a18.07,18.07,0,0,1,.7-1.74,2.92,2.92,0,0,1,.39-.84,7.49,7.49,0,0,0,.45-.77,2.23,2.23,0,0,0,.39-.83c0-.07.06-.07.06-.14,1.31.3,2.63.67,3.94,1l10.72,2.54" transform="translate(68.28 262.2)"/><path class="cls-18" d="M77.87,693.64c-.25.62-.44,1.11-.51,1.25a.2.2,0,0,1-.06.14c-.32.76-.64,1.39-.9,2a50,50,0,0,1-8-2.29c-1.39-.5-2.78-.94-4.16-1.38a7.52,7.52,0,0,1,.43-1.38c.19-.56.31-1,.44-1.46s.24-1,.37-1.24a11.12,11.12,0,0,1,.49-1.8,4.83,4.83,0,0,1,.25-.77,1,1,0,0,0,.12-.41,2.13,2.13,0,0,0,.39-.9c0-.07.06-.21.06-.28,5.87,1.32,10,2.22,13,2.88l-.19.62-.18.63a10.94,10.94,0,0,1-.5,1.59,6.86,6.86,0,0,1-.44,1.18,13.11,13.11,0,0,1-.64,1.67" transform="translate(68.28 262.2)"/><path class="cls-18" d="M106.7,691.69c-.25,3.16-10,5-12.32,5.47-1.5.25-3,.51-4.44.62a49.51,49.51,0,0,1-12-.51c.12-.41.31-.9.5-1.52s.31-1,.43-1.46a19.66,19.66,0,0,0,.55-2.14,7.22,7.22,0,0,1,.32-.91,5.11,5.11,0,0,1,.25-.76,5.47,5.47,0,0,0,.44-1.11c0-.07.07-.14.06-.21a5.13,5.13,0,0,0,.31-1c4.36,1,6.57,1.37,9.33,1.9,1.93.35,3.66.78,5.18,1.07a3.4,3.4,0,0,0,.72-1c-2.49-.68-5.81-1.53-10.16-2.49l-5-1.08v-.2c0-.48-.18-1.37-.38-1.36s-.25.83-.31,1.1-.06.21-.06.35l-13-2.95a4.25,4.25,0,0,0,0-1c0-.48-.18-1.37-.39-1.36s-.25.83-.31,1.11-.11.69-.17,1c-4.56-1-9.4-2.1-14.65-3.17a3.56,3.56,0,0,0,.08-1.92c0-.55-.32-1.5-.66-1.49s-.38,1-.51,1.25a11.2,11.2,0,0,1-.42,1.87c-1-.25-2.08-.42-3.11-.66a118.22,118.22,0,0,1-13.63-3.41c0-.07.07-.14.06-.21a7.77,7.77,0,0,0,.46-3c0-1.3-.44-3-.71-3a6.25,6.25,0,0,0-.28,2,7.73,7.73,0,0,1-.87,2.84l-.39.84c-1.25-.37-2.56-.81-4.09-1.24-6.17-2-9.84-3-12.54-3.72a5.56,5.56,0,0,0,.53-.84c.07-.07.06-.21.13-.28a8,8,0,0,0,1-4c-.17-1-.49-2.18-.69-2.17s-.24,1-.29,1.79a8.68,8.68,0,0,1-1.26,3.54c-.32.49-.65,1-1,1.54-1-.31-1.94-.56-2.84-.87a77.33,77.33,0,0,1-14.54-6.33,14.62,14.62,0,0,0,1.06-1.34,9.44,9.44,0,0,0,1.53-3.68c.11-.76.14-1.93-.13-2s-.83,2-1.94,3.84c-.2.35-.46.7-.72,1.12A9.82,9.82,0,0,1-5.2,662a49.94,49.94,0,0,1-8.93-6.78c-1.2-1.13-2.33-2.32-3.4-3.46,4.81-2,10.77-.13,13.68.8,22.05,7.19,33,10.82,54.64,20.22,20.39,8.82,37.57,12,47.26,14.48,5.6,1.4,8.79,2.6,8.65,4.46" transform="translate(68.28 262.2)"/><path class="cls-21" d="M165.73,593.06c-.11-.32-.51.09-2.21-.94a24,24,0,0,1-6.18-6.72,24.5,24.5,0,0,1-3-5.85c-.81-2.32-1.59-4.88-2.36-7.61s-1.55-5.63-2.26-8.68c-.36-1.52-.71-3.09-1-4.66s-.43-3.2-.64-4.88c-1.07-9.12-2-15.85-1.32-22.41a62.34,62.34,0,0,1,2-10.09c.49-1.77,1.06-3.6,1.69-5.53a43.81,43.81,0,0,1,2.31-5.76c1.11-2.43,4.07-7.17,7-9.29,1.44-1.21,2.77-2,2.56-2.61-.16-.42-1.44-.7-3.3-.26a13.18,13.18,0,0,0-5.83,3.49c-4.11,4.07-6.32,9.41-7.87,14.62a61.85,61.85,0,0,0-3,16.7c-.15,5.94,1,11.83,2,17.81.26,1.5.51,3,.78,4.54.12.77.24,1.54.37,2.31s.3,1.65.48,2.43c.72,3.15,1.54,6.3,2.38,9.54.32,1.23,1,4,2.23,7.62a42.45,42.45,0,0,0,2.43,6.09,30,30,0,0,0,4.54,6.14,20.75,20.75,0,0,0,4.53,3.69,5.56,5.56,0,0,0,2.74.81c.7-.06.93-.41.91-.5" transform="translate(68.28 262.2)"/><path class="cls-21" d="M120.5,507.55c-.38.05.9,3.83,3,10.22s5.12,15.41,6.1,26.15c.6,7.22.57,12.73.63,18.26,0,2.77,0,5.57,0,8.52a50.46,50.46,0,0,1-.89,9.55,19.87,19.87,0,0,1-1.31,4.13,14,14,0,0,1-2.69,4c-1.06,1.14-2,2-1.68,2.45.2.28,1.23.32,2.6-.28a10.16,10.16,0,0,0,4.23-3.45c2.78-4,3.26-8.61,3.51-13s-.09-8.8-.33-13.33a161.48,161.48,0,0,0-3.87-29.37,97.68,97.68,0,0,0-5.56-16.56c-.62-1.46-3.23-7.43-3.71-7.36" transform="translate(68.28 262.2)"/><path class="cls-20" d="M-7.67,664.11l-.8.65A17.31,17.31,0,0,0-10.35,666a7.46,7.46,0,0,1-1,.58c-2.48-2.46-3.8-4.95-3.2-5.52s2,.28,4,1.38c.91.52,1.89,1.11,2.93,1.69" transform="translate(68.28 262.2)"/><path class="cls-20" d="M12.33,671.5a11.62,11.62,0,0,1-1.45,1.76,20.51,20.51,0,0,1-2.66,2.83c-5.54-1.6-11.15-3.41-16.13-6.75a14.87,14.87,0,0,1-2.25-1.65,23,23,0,0,0,3-2c.26-.15.53-.43.87-.65l.2-.21a60.33,60.33,0,0,0,7.93,3.52c3.81,1.18,7.27,2.24,10.53,3.16" transform="translate(68.28 262.2)"/><path class="cls-20" d="M30.89,676.81c-.33.63-.72,1.26-1.11,1.89-.06.14-.2.28-.26.42-.39.63-.78,1.26-1.24,1.89-.49-.12-.9-.17-1.39-.3-5.66-1.33-11.13-2.59-16.46-4.07a13.08,13.08,0,0,0,2-2.39c.59-.71,1.05-1.48,1.57-2.18,6,1.73,11.36,3.2,16.9,4.74" transform="translate(68.28 262.2)"/><path class="cls-20" d="M49.37,681.92a14.94,14.94,0,0,1-.71,1.53c-.25.63-.57,1.25-.83,1.81-6-1.32-11.82-2.57-17.48-3.77.26-.41.52-.83.85-1.32a2.2,2.2,0,0,0,.32-.5,11.67,11.67,0,0,0,1.3-2.37c5,1.42,10.32,2.83,16.55,4.62" transform="translate(68.28 262.2)"/><path class="cls-20" d="M65.56,686.07c-.13.35-.19.62-.32.9a18.34,18.34,0,0,1-.76,2c-5.25-1.2-10.3-2.34-15.2-3.35a18.07,18.07,0,0,1,.7-1.74,2.92,2.92,0,0,1,.39-.84,8.5,8.5,0,0,0,.45-.76c.14.06.21.06.35.12,5,1.35,9.82,2.57,14.39,3.66" transform="translate(68.28 262.2)"/><path class="cls-20" d="M79.45,689.19a10.69,10.69,0,0,1-.5,1.6A6.14,6.14,0,0,1,78.5,692c-5.65-1-9.87-2-11.53-2.38l-1.45-.36a11.12,11.12,0,0,1,.49-1.8,4.45,4.45,0,0,1,.25-.76,1.13,1.13,0,0,0,.13-.42c4.7,1.15,9,2,13.06,2.94" transform="translate(68.28 262.2)"/><path class="cls-20" d="M102.45,694.09c-.12.55-5.69.11-9.2-.19-1-.11-1.79-.15-2.27-.2-4.2-.42-8.13-1-11.58-1.55a7.22,7.22,0,0,1,.32-.91,5.11,5.11,0,0,1,.25-.76,5.47,5.47,0,0,0,.44-1.11l14.16,2.78c5,.93,7.87,1.53,7.88,1.94" transform="translate(68.28 262.2)"/><path class="cls-18" d="M205.16,753.84c-.37.24.75,1.92,3.94,3s8.14.7,12.68-2.59c4.81-3.29,7.37-10.39,6.44-17.22A30,30,0,0,0,225,726.62c-1.75-3.31-4.65-7.18-9.56-8.72-6.52-1.83-11.74.37-15.67,2.05s-7,3.47-9.83,4.12a38.54,38.54,0,0,1-10.11.64,6.45,6.45,0,0,1-3.56-.83,15.36,15.36,0,0,1-3.44-3.81c-1.79-2.43-5.82-7.86-10.15-10.19-2.22-1.2-4.38-1.51-5.32-.6-1.52,1.47.47,5.85,2.86,10.14,1.39,2.51,2.86,4.89,4.5,7.31s4.1,5.78,8.75,7.47a18,18,0,0,0,6,.89c1.67,0,3.13-.08,4.8-.22a32.37,32.37,0,0,0,10.24-2.39c6.66-3,11-7.37,16.22-8.05a7.36,7.36,0,0,1,6.66,2.09,17.17,17.17,0,0,1,4.21,7.87,24.6,24.6,0,0,1,.78,7.22c-.2,3.41-1.23,7.63-5.72,10.59a12.5,12.5,0,0,1-5.73,2.06c-2.62.31-5.24-.85-5.72-.42" transform="translate(68.28 262.2)"/><path class="cls-18" d="M155.74,772c0,1.16,3.59.14,4.88-3.52,1.61-3.84-.39-8.16-1.12-11.91-1.19-5.5-2.49-8.11-5.44-13a3.73,3.73,0,0,0-4-1.93,8,8,0,0,0-3.73,1.81,4.8,4.8,0,0,0-1.58,4.46c.34,3.19,2.24,5.07,4.45,7.23s4.8,4.8,5.42,7.9a5.61,5.61,0,0,0,.36,1.45,14.36,14.36,0,0,1,1.3,2.73,5,5,0,0,1,.09,2.06c-.12,1-.75,2-.63,2.67" transform="translate(68.28 262.2)"/><path class="cls-18" d="M144.21,817.63c.58.8,3.48-1.81,4.93-7.36s.86-13-1.73-21.27a42.26,42.26,0,0,0-6.62-12.8A48.48,48.48,0,0,0,130.21,766c-1.42-1.06-4.94-3.21-8.2-2.28a5.06,5.06,0,0,0-3.46,2.94c-.7,2.13,1,4,2.67,5.8,3.85,4.06,8.15,6.86,12.54,10.83,4.23,3.9,8.78,9.24,9.47,16.13,0,1.41.72,5.35,1.07,11.16a21.65,21.65,0,0,1-.13,3.54c-.11,1.51-.45,3,0,3.52" transform="translate(68.28 262.2)"/><path class="cls-18" d="M97.38,797.55c1.28.66,1.62-4,4-9.58a23.47,23.47,0,0,0,1.82-10.45,2.82,2.82,0,0,0-1.73-2.81,5.06,5.06,0,0,0-2.89-.21,3.49,3.49,0,0,0-2.51,2.24c-1.88,3.89,1.81,8-.14,13.13a6.24,6.24,0,0,0,0,4.55c.17.49.67,2.62,1.49,3.13" transform="translate(68.28 262.2)"/><path class="cls-18" d="M78.72,831.66c.89.63,2.57-1.95,4.84-6.94a39.14,39.14,0,0,0,3-9.6,23,23,0,0,0-1.8-13.48c-3-6.16-6.81-9.28-10.25-12.13s-7.24-4.83-12.15-8c-1.48-.94-4.83-3-8.11-2.25a5.44,5.44,0,0,0-3.8,2.8c-1,2.17.74,4.54,2.66,6.56,4.35,4.76,10.25,7.19,16.12,10.09,5.5,2.78,11.53,6.91,10.8,13.67-.1,1.29-.85,5.24-1.56,11.92,0,1.24-.88,6.52.27,7.37" transform="translate(68.28 262.2)"/><path class="cls-18" d="M22.74,807.4c-.31.73,1.41,1.31,3.91.63a16.73,16.73,0,0,0,7.61-5.5c3.19-4.41,3-7.43,2.83-11.91a2.82,2.82,0,0,0-2-2.75,6.47,6.47,0,0,0-3.22-.15,3.62,3.62,0,0,0-2.72,2.5c-.92,2.38-.3,4.16.17,6.1s.63,4.21-1.33,5.51c-.49.26-1.16.82-2.61,2.94-.18.48-2.13,1.73-2.61,2.63" transform="translate(68.28 262.2)"/><path class="cls-20" d="M17.3,614c-1,1.13,8.3,12.41,20.26,21.77,4.08,3.2,3.74,2.47,26.6,16.27,17.34,10.47,24,14.78,27.44,17.06,8.09,5.32,12.08,8.22,12.18,8.09.2-.28-18.91-14.08-49.78-37.05C25.5,618.94,18.11,613.08,17.3,614" transform="translate(68.28 262.2)"/><path class="cls-6" d="M102.34,679.75c.07.07,0,.21-.13.28a93.78,93.78,0,0,1-10.82-5.76C85.72,671,74.07,662.54,56.7,653.55s-20.85-10.38-27.86-15.23a77.81,77.81,0,0,1-14.25-12.24c-5.55-6.21-5.42-8.61-8.46-11.26a5.56,5.56,0,0,1,.35-2.14,9,9,0,0,1,1.22-2.44c1.31,2.16,3,6.43,5.49,10.67,5.72,9.56,13.71,14.93,17.43,17.49,2.6,1.77,1.61.77,16,8.48,8.51,4.6,8.17,4.54,12.49,6.8,13.33,6.85,13.6,6.84,18.72,10.25,10.37,6.94,23.67,15.23,24,15.5a3,3,0,0,1,.49.32" transform="translate(68.28 262.2)"/><path class="cls-6" d="M22.28,626.18c-1.63.53-2.93.71-4.57,1.1-.47.09-1,.17-1.63.33s-1.29.38-2.11.69a8,8,0,0,0-1.15.44,6.46,6.46,0,0,1-.57-.66c-.72-.94-1.43-1.81-2.15-2.75,1.58,0,2.36.82,4.63.88a2.56,2.56,0,0,0,.75,0,9.85,9.85,0,0,0,1.38-.12,17.75,17.75,0,0,0,7.32-2.63c.47-.29.94-.58,1.35-.87.93-.65,1.74-1.29,2.47-1.86,2.74-2.35,3.85-4.31,4.13-4.11s-.61,2.63-2.86,5a12.49,12.49,0,0,1-2.53,2.35c-.41.28-.88.57-1.28.79h-.07a18,18,0,0,1-3.11,1.34" transform="translate(68.28 262.2)"/><path class="cls-6" d="M39.72,637.42A17.69,17.69,0,0,1,35.44,641c-.13.07-.2.14-.34.22a7.36,7.36,0,0,1-1,.51,35.93,35.93,0,0,1-4.34,1.58l-1.47-1a22.24,22.24,0,0,0,4-1.7c.34-.22.68-.36,1-.58l.07-.07a24.63,24.63,0,0,0,5.1-3.53c.4-.35.87-.71,1.27-1.13,1.06-1.14,2.12-2.34,3-3.53A11.47,11.47,0,0,0,45,627.24c0-.14,0-.83.18-.9s.5.88.58,1.15c.47,1.83-1.11,3.87-1.77,4.72a1,1,0,0,1-.26.28c-1.59,2-2.91,3.66-4,4.93" transform="translate(68.28 262.2)"/><path class="cls-6" d="M58.22,637.76c.22,0,.56,1.46.59,2.57a7.32,7.32,0,0,1-.35,2.6,11.79,11.79,0,0,1-1.71,3.54c-.07.15-.21.3-.28.45-1,1.51-1.74,2.72-2.36,3.78-.21.3-.41.68-.55.9-1,1.66-1.6,2.65-1.94,3.4-1.18-.56-2.37-1.19-3.55-1.81a13.52,13.52,0,0,0,3.56-2.64c.21-.3.49-.53.7-.83A29.17,29.17,0,0,0,55,646c.07-.15.14-.22.21-.37a23.5,23.5,0,0,0,2-3.69,7.16,7.16,0,0,0,.79-2.47c.05-.67.09-1.71.24-1.71" transform="translate(68.28 262.2)"/><path class="cls-6" d="M72.38,648.25c.2,0,.65.94.74,1.63a5,5,0,0,1-.71,3.52c-.2.28-.33.56-.46.77a12.79,12.79,0,0,0-1,2c-.32.76-.76,1.81-1.27,3.13-.19.35-.32.76-.51,1.18,0,.07-.07.07-.07.14a32,32,0,0,0-1.2,3.19c-.62-.32-1.25-.71-1.88-1.1a8.29,8.29,0,0,0,1.89-2.88,9.77,9.77,0,0,1,.59-1.11A31.43,31.43,0,0,1,70,655.53c.26-.49.52-1,.85-1.53a10.47,10.47,0,0,0,.64-1.26,6.94,6.94,0,0,0,.92-3.6,1.82,1.82,0,0,1,0-.89" transform="translate(68.28 262.2)"/><path class="cls-6" d="M84.08,657.74c.21,0,.37.88.39,1.36a6,6,0,0,1-.39,2.82,6.7,6.7,0,0,1-.51,1.32,6.62,6.62,0,0,0-.25.76c-.38,1-.3,1.18-.86,3-.12.42-.25.9-.43,1.46-.7,2-1.08,2.84-1.27,3.47-.49-.33-1-.59-1.4-.92.46-.84.9-1.88,1.54-3.27a.24.24,0,0,0,.07-.14c.06-.14.25-.63.51-1.25s.7-1.74,1.07-2.85a27.76,27.76,0,0,0,1.23-4.71c.06-.27.17-1.1.3-1.1" transform="translate(68.28 262.2)"/><path class="cls-6" d="M95.88,666.2a6.31,6.31,0,0,1-.23,3.44c-.07.14-.06.28-.13.41a14.45,14.45,0,0,0-.22,1.66,8.29,8.29,0,0,1-.2,2.27,10.33,10.33,0,0,1-.38,1.18c-.11.55-.31,1-.36,1.38A8.56,8.56,0,0,0,93.3,680a2.93,2.93,0,0,0,0,.76c-.43-.33-.92-.72-1.34-1a31.9,31.9,0,0,0,1.28-3,4.28,4.28,0,0,1,.32-.83c.12-.42.31-.83.43-1.32a13.08,13.08,0,0,0,.79-3.25,5.28,5.28,0,0,0,.15-1.78v-.14a15.35,15.35,0,0,1,.3-3.37c0-.21.12-.69.25-.7s.37.68.44.81" transform="translate(68.28 262.2)"/><path class="cls-6" d="M96,690.11a3.22,3.22,0,0,1-.72,1c-1.52-.29-3.25-.72-5.18-1.07-2.76-.53-5-.94-9.32-1.9a5.66,5.66,0,0,1-.32,1c0,.07-.06.14-.06.21a5.24,5.24,0,0,1-.44,1.11,5.11,5.11,0,0,0-.25.76,7.22,7.22,0,0,0-.32.91,19.66,19.66,0,0,1-.55,2.14c-.12.42-.24.9-.43,1.46s-.38,1.1-.5,1.52c-.48-.12-1-.17-1.52-.29.26-.56.58-1.19.9-2a.26.26,0,0,0,.06-.14c.07-.14.26-.63.51-1.26a13.89,13.89,0,0,0,.64-1.66,6.86,6.86,0,0,0,.44-1.18,10.69,10.69,0,0,0,.5-1.6l.18-.62c.07-.21.13-.41.19-.62-3-.66-7.12-1.56-13-2.88,0,.07-.07.21-.06.27a2.12,2.12,0,0,1-.39.91.84.84,0,0,1-.12.42,4.45,4.45,0,0,0-.25.76,11.12,11.12,0,0,0-.49,1.8c-.13.28-.19.69-.37,1.24s-.25.9-.44,1.46a8.39,8.39,0,0,0-.43,1.38,11.51,11.51,0,0,0-1.46-.43,17.72,17.72,0,0,0,.77-1.67.24.24,0,0,0,.07-.14c.06-.14.25-.63.51-1.25a4.58,4.58,0,0,0,.31-.84,18.34,18.34,0,0,0,.76-2c.13-.28.19-.55.32-.9l.37-1.25-10.72-2.54c-1.31-.3-2.63-.67-3.94-1,0,.07-.07.07-.06.14a2.31,2.31,0,0,1-.39.83,6,6,0,0,1-.46.77,3.15,3.15,0,0,0-.38.84,18.07,18.07,0,0,0-.7,1.74c-.12.41-.31,1-.63,1.87a14.5,14.5,0,0,1-.7,1.67.26.26,0,0,1-.06.14c-.69-.19-1.38-.3-2.07-.42.06-.14.19-.28.26-.42a.81.81,0,0,0,.06-.2A10.31,10.31,0,0,0,47,686.8a15.27,15.27,0,0,0,.84-1.54c.25-.56.58-1.18.83-1.81a14.94,14.94,0,0,0,.71-1.53c.12-.35.25-.63.38-1-6.16-1.52-11.69-2.93-16.67-4.28a2.4,2.4,0,0,1-.26.63,12.18,12.18,0,0,1-1.29,2.37,2.69,2.69,0,0,1-.33.5c-.33.49-.59.91-.85,1.32-.72,1.13-1.3,2.17-1.83,3-.19.35-.45.84-.58,1a6.27,6.27,0,0,1-.39.7c-1.17-.17-2.21-.34-3.31-.51a15.68,15.68,0,0,0,1.47-1.35,9.78,9.78,0,0,0,.79-1A20.29,20.29,0,0,0,28.28,681c.45-.63.85-1.26,1.24-1.89.06-.14.2-.28.26-.42.39-.63.78-1.26,1.11-1.89a2.82,2.82,0,0,0,.32-.62c-6.58-1.78-12.18-3.39-16.76-4.82a3.44,3.44,0,0,0-.45.7c-.53.7-1,1.47-1.58,2.18a13.49,13.49,0,0,1-2,2.39,18,18,0,0,1-1.66,1.56,4.7,4.7,0,0,1-1.27,1.07,1.2,1.2,0,0,1-.4.43,13.44,13.44,0,0,0-2.61,2.14c-.89-.18-1.73-.49-2.56-.74H1.86a4.79,4.79,0,0,0-.84-.52,30.86,30.86,0,0,0,4.45-2.41c.61-.43,1.08-.72,1.41-1s.47-.36.61-.44a4.25,4.25,0,0,0,.73-.64,19.92,19.92,0,0,0,2.66-2.83,11.62,11.62,0,0,0,1.45-1.76c.2-.21.33-.42.53-.63-1.53-.5-3-1-4.3-1.44A97.54,97.54,0,0,1-5,663.82a7.29,7.29,0,0,1-1.14,1l-.19.21c-.34.22-.6.5-.87.65a23,23,0,0,1-3,2c-.94.51-2,1.1-3.3,1.82-.07,0-.14.07-.21.08-.4.21-.81.36-1.14.58-.95.51-1.83,1-2.5,1.25-.57-.4-1.13-.86-1.69-1.32a4.19,4.19,0,0,0,.68-.23c.67-.23,1.35-.52,2-.75.34-.22.75-.3,1.08-.51a16.88,16.88,0,0,0,3.85-2.05,6.53,6.53,0,0,0,1-.58,17.31,17.31,0,0,1,1.88-1.22l.8-.65a11.18,11.18,0,0,0,1.21-.93c-1.54-.91-3.15-1.82-4.69-2.8a49.63,49.63,0,0,1-8.94-7.12,3.09,3.09,0,0,1,.54-.43,9.52,9.52,0,0,1,2-1.1c1.07,1.14,2.2,2.33,3.4,3.46A50.49,50.49,0,0,0-5.2,662a10.58,10.58,0,0,0,1.06-1.34c.26-.42.52-.77.72-1.12,1.11-1.82,1.59-3.76,1.93-3.84s.25,1.23.14,2a9.44,9.44,0,0,1-1.53,3.68,14.62,14.62,0,0,1-1.06,1.34A77.33,77.33,0,0,0,10.6,669c.91.31,1.8.56,2.84.87.33-.56.66-1,1-1.54a8.68,8.68,0,0,0,1.26-3.54c.05-.76.08-1.79.29-1.79s.52,1.15.69,2.17a8.09,8.09,0,0,1-1,4c-.07.07-.07.21-.13.28a6.38,6.38,0,0,1-.52.84c2.7.74,6.36,1.72,12.53,3.72,1.53.43,2.84.87,4.09,1.24l.39-.84a7.73,7.73,0,0,0,.87-2.84,6.74,6.74,0,0,1,.27-2c.28,0,.68,1.7.72,3a7.86,7.86,0,0,1-.46,3c0,.06-.06.13-.06.2A118.22,118.22,0,0,0,47,679.18c1,.24,2.14.41,3.1.66a11.28,11.28,0,0,0,.43-1.87c.12-.28.3-1.24.51-1.25s.64.94.66,1.49a3.56,3.56,0,0,1-.08,1.92c5.25,1.07,10.09,2.15,14.65,3.17.06-.34.12-.69.17-1s.18-1.11.31-1.11.37.88.39,1.36a4.23,4.23,0,0,1,0,1c4.49,1,8.78,2,13,2.95,0-.14.06-.21.06-.34.06-.28.17-1.11.31-1.11s.37.88.39,1.36v.2l5,1.08c4.36,1,7.68,1.81,10.17,2.49" transform="translate(68.28 262.2)"/><path class="cls-6" d="M104.19,692.73c.07.07,0,.2-.13.35-1.3-.1-4.21-1-8.77-2a3.22,3.22,0,0,0,.72-1h.07a55.83,55.83,0,0,1,7.42,2.37,5.38,5.38,0,0,1,.69.25" transform="translate(68.28 262.2)"/><path class="cls-20" d="M-5.34,777.09c.11,1.12,2.58,2.12,3.65,2.47,25.2,8.2,40.05,5.69,47.88,5.22,1.42-.08,10.13-1.65,11.26-3.57,1.28-2.17-2.22-5.39-6.59-12.55a127.89,127.89,0,0,1-10-21.34c-2.5-6.53-3.13-9.63-4.17-9.53-1.54.14-3.44,7.36-2.25,14.38.74,4.32,2.27,6.38,1,8.09-1.42,1.94-5.7,2.4-8.49.65-5.6-3.5-2.46-14.17-6.69-15.64-2.1-.73-4.83,1.23-6.09,2.9-2,2.68-1.58,6.4-.75,12.79.47,3.66-1.41,4.83-1.88,5-1.26.52-6.23-4.47-8.41-12.44C2,749.14-4.21,765-4.51,766.17a32.06,32.06,0,0,0-.83,10.92" transform="translate(68.28 262.2)"/><path class="cls-20" d="M47,732.37c-1.52,2.84-.07,6.39,2.84,13.5,1.53,3.75,3.14,6.82,12.12,20.44,6,9.09,7.39,10.92,10.35,12.05,2.25.85,4.59,1,12.65-.71,9.51-2,14.26-3,20.65-5.79,8.24-3.59,13.49-7.6,21.3-13.66,9.76-7.57,14.64-11.35,18.5-16.28,12.18-15.58,11.36-34.84,10.89-46.17a91.79,91.79,0,0,0-12.75-38.88,10.9,10.9,0,0,0-5.09-4.77c-5.14-2.11-12.31.76-16,5.45-3.19,4-1,5.72-4.82,15-2.54,6.18-4.67,8.21-3.55,10.34,1.8,3.45,9.09,1.54,10.39,5a4.2,4.2,0,0,1-1.62,4.64c-2.71,1.66-5.88-2.88-10.29-1.79a8,8,0,0,0-5.76,7.24,7.25,7.25,0,0,0,2,4.61c3,3.5,8.61,3,9.84,5.81.59,1.35,3.16,3.53-.77,7.65-2.1,2.21-10.62-5.26-12.31-6.8-2.29-2.09-2.65-2-3.87-2.29-1.64-.44-3.65.1-12.52,7.29-4.59,3.72-5.06,4.41-5.43,5.28-1.4,3.28,1.82,5.67,4.38,9,1.52,2,3.32,7.29,1.81,8.63a7.57,7.57,0,0,1-3.84,1.63c-1.66.26-3.27-1.91-6-5.61-2.91-4-3-5.16-4.63-6.22-2.36-1.48-5.08-1-8.31-.31-18.62,3.78-19.56,4.75-20.13,5.82" transform="translate(68.28 262.2)"/><path class="cls-6" d="M145.45,675.05a7.84,7.84,0,0,1-1.19,1.34,9.34,9.34,0,0,1-3.44,3.12,13.42,13.42,0,0,1-5.55,2.35c-2.37.46-4.74,1.2-6.74,1.18-1.16,0-9.63,0-10.49-.38-3-1.28,1.66-5.82,2.5-6.06a4.66,4.66,0,0,1,3.39-.11c1.64.79,1.15,2.22,2.46,2.39.31.08.93.14,4-.21,3.53-.41,5.38-.59,6.44-1a10.11,10.11,0,0,0,4.29-3.19c1-1.45.93-2.46,2.07-2.66a3.6,3.6,0,0,1,2.25.47c.87.6.76,1.82,0,2.76" transform="translate(68.28 262.2)"/><path class="cls-6" d="M150.5,702.89a11.65,11.65,0,0,1-2.22,1.26,13.49,13.49,0,0,1-6.09,2.66c-2.81.54-3.59,1.24-8.64.7-3.45-.45-7-.5-9.76-1.42-1.58-.52-13.21-4.26-14.22-5.17-3.5-3,4.83-7.09,6.09-7a6.82,6.82,0,0,1,4.69,1.36c1.91,1.78.6,3.5,2.33,4.3.4.24,1.22.6,5.58,1.5,5,1,7.63,1.6,9.27,1.52a14.5,14.5,0,0,0,7.28-2.38c2.05-1.49,2.34-2.89,4-2.65a5.28,5.28,0,0,1,2.88,1.64c.92,1.19.23,2.77-1.19,3.71" transform="translate(68.28 262.2)"/><path class="cls-18" d="M112.67,504c.77-1.62-3.5-5.65-7.74-7.86A24,24,0,0,0,90.4,494a26.57,26.57,0,0,0-14,6.78c-7.09,6.58-8.26,15-8.85,19.26-1.3,9.37,1.11,17.25,1.84,17.21s-1.73-10,3.67-18.93c3.59-5.92,9.15-8.84,11.63-10.14A38.56,38.56,0,0,1,101.2,504c7-.24,10.8,1.42,11.47,0" transform="translate(68.28 262.2)"/><path class="cls-18" d="M117.88,591.87a5.73,5.73,0,0,1-2.46.92,5.15,5.15,0,0,1-2.29-.35,4.4,4.4,0,0,1-2.14-1.25c-1.58-1.34-24.18-24.87-28.32-30.42-6.34-8.51-15.4-25.91-13.07-23.25.45.52,12.65,23.08,22.62,32.56,3.63,3.47,15.24,17.56,21.64,18.7,1,.18,3.49.63,5.45-.74,1.7-1.17,2.8-3.41,3-3.3s-.6,1.36-1,2.24a14,14,0,0,1-2,3.58,8.33,8.33,0,0,1-1.42,1.31" transform="translate(68.28 262.2)"/><path class="cls-6" d="M103.06,710.53c-2.49-1.12-6.21.49-7.84,3.18-2,3.25-.21,7,.25,7.93a11.56,11.56,0,0,0,3.9,4.48c15.23,10.72,13.25,9.77,18,12.8,13.61,8.74,16.78,8.34,19,7.34,2.1-.94,4-3.07,3.62-4.3-.45-1.4-3.71-1-8-1.84-3.89-.78-6.41-2.21-11.45-5.06-7.78-4.42-11.67-6.63-12.88-10.88-.59-2.07,0-2.83-1-6.65s-1.6-6.1-3.56-7" transform="translate(68.28 262.2)"/><path class="cls-6" d="M70.75,737.43c-1,1.35-.22,5.16.2,6.33,3.1,8.46,5.54,12,5.54,12,7.57,9.07,11.5,6,12.27,11.59,0,.28.6,4.66-1.48,5.9-2.37,1.41-6.78-2.08-8-3.09-6.43-5.11-6.34-10-12.84-22.58-4.68-9.07-7.4-11.75-5.91-14.86s10.78-5.4,13.77-3.81c1.3.69.67,3.14-.73,4.56a33.41,33.41,0,0,0-2.78,3.94" transform="translate(68.28 262.2)"/><path class="cls-20" d="M123.05,647.32a5.28,5.28,0,0,1,.87-.76,6.32,6.32,0,0,1,2.47-1.73,9.76,9.76,0,0,1,3.86-1.17,30.37,30.37,0,0,1,4.61-.4,70.09,70.09,0,0,1,7.08.71c1.95.92-1.39,3.45-2,3.56a3.49,3.49,0,0,1-2.29-.09c-1.08-.55-.68-1.4-1.56-1.56a10.54,10.54,0,0,0-2.72-.06,25.34,25.34,0,0,0-4.4.31,6.78,6.78,0,0,0-3,1.74c-.77.83-.74,1.44-1.53,1.51a2.64,2.64,0,0,1-1.5-.39c-.56-.4-.42-1.13.12-1.67" transform="translate(68.28 262.2)"/><path class="cls-6" d="M263.69,642.75C257.14,654,251,665.52,244.06,676.51c-2.76,4.34-.44,1.74-10,24.75C221,732.87,216.32,738.44,212.44,754c-.68,2.72-2.47,10.3-3.27,10.17-.55-.08-.43-3.74-.28-5.66A44.77,44.77,0,0,1,215,739.65c4.29-7.69,7.14-16.1,10.94-24,9.87-20.6,5.92-20.64,16.18-43.15,9.23-20.25,15.71-27.42,16.72-30.76a3.81,3.81,0,0,1,1.19-1.85c1.39-1.14,3.8-1.23,4.45-.29s-.29,2.39-.76,3.19" transform="translate(68.28 262.2)"/><path class="cls-20" d="M124,634.23a4.09,4.09,0,0,1,.63-.57,4.6,4.6,0,0,1,1.8-1.31,6.85,6.85,0,0,1,2.81-.89,19.8,19.8,0,0,1,3.36-.31,48.26,48.26,0,0,1,5.14.53c1.42.69-1,2.61-1.43,2.69a2.42,2.42,0,0,1-1.67-.06,4.66,4.66,0,0,0-1.79-.52,7.06,7.06,0,0,0-2.36-.22,11.46,11.46,0,0,0-2.7.25c-1.27.37-1.4.55-1.68.83-.56.63-.53,1.09-1.11,1.15a1.91,1.91,0,0,1-1.09-.3c-.4-.3-.31-.86.09-1.27" transform="translate(68.28 262.2)"/><path class="cls-20" d="M-17.27,769.08a3.91,3.91,0,0,1-.33-.78,4.54,4.54,0,0,1-.66-2.13,39.75,39.75,0,0,1-.57-4.44c-.36-2.19-.82-4.87.16-5.7.44-.37,2.68-.58,3.47-.78,1.52-.39,2.14,1.82,2.08,2.24a2.47,2.47,0,0,1-.61,1.56,4.73,4.73,0,0,0-1.07,1.52,7,7,0,0,0-1,2.15,11,11,0,0,0-.64,2.64c-.06,1.32.06,1.5.23,1.86.42.73.86.86.72,1.42a1.79,1.79,0,0,1-.63.93c-.42.29-.91,0-1.17-.49" transform="translate(68.28 262.2)"/><path class="cls-20" d="M262.56,630c-.46,2.36,11.38,2.88,23.18-2,15.5-6.38,28.55-12.45,36.32-22.31,10.54-13.38,16.52-29.75,17.18-32.42,11.09-45.11,5.11-87.79,1.53-86.2-1.73.77-3.76,1.29-2.23,6.8,2.69,9.69,2.16,17.07,2.87,26.36,1.08,14,1.29,35.12-7.41,55.11-11.73,26.91-12.66,25.34-17.95,32.06C314,610,297.53,619.3,289.67,624c-4.28,2.57-9.93,3.16-16.35,5.28-4.67,1.54-10.45-.89-10.76.68" transform="translate(68.28 262.2)"/><path class="cls-18" d="M224.31,745.34c-.06-3.91-1.33-5-2.46-5.83a3,3,0,0,0-3.79,0,12,12,0,0,0-5.17,7.85c-.26,1.86-.61,4.39,1.43,6.48a6.69,6.69,0,0,0,4.45,2.1c2.85-.08,4.38-3.11,4.8-5a16.68,16.68,0,0,0,.74-5.67" transform="translate(68.28 262.2)"/><path class="cls-18" d="M158.55,511.06c.46-1,.69-1.53,1-2.13a30.2,30.2,0,0,1,2.31-3.74,31.67,31.67,0,0,1,5.07-5.48,32.72,32.72,0,0,1,9.5-5.35,16.63,16.63,0,0,1,3-.72,14.75,14.75,0,0,1,3-.13,13.27,13.27,0,0,1,3.5.7c.2.07.38.13.51.19,1.89.83,3.34,5.17,2,7.31-1.46,2.43-5.26,0-12,1.93-1.9.54-4,.53-11,5-4.14,2.61-6.35,5.54-6.88,6.75a33.37,33.37,0,0,1-3,5.57c-.43.53-.59.52-.62.53-.21.08-.4,0-.31-.37a40.19,40.19,0,0,1,1.94-5.61c1.11-2.62,1.28-3.06,1.91-4.43" transform="translate(68.28 262.2)"/><path class="cls-19" d="M176.3,592.59a24.15,24.15,0,0,0,7.51-3.09,20.44,20.44,0,0,0,5.38-4.22c1.25-1.23,1.69-3,2.3-2.84.4.1.63.87.59,1.5-.11,1.38-1.56,2.24-2.92,3.11-5,3.21-4,3.55-6.37,4.57a16.44,16.44,0,0,1-8,1.2s.6-.06,1.53-.23" transform="translate(68.28 262.2)"/><path class="cls-18" d="M300.49,610.87c2.91-8.32,6.29-15.56,7.54-24.29,1.37-9.56,3.52-19.84,1.78-39-2.09-23.09-8.21-40-13.18-53.49,0,0-6.72-18.22-31.44-58.83-1.21-2-.22-.19-6.28-7.91a10.52,10.52,0,0,0-3.5-3,6.62,6.62,0,0,0-2.85-.86c-2.07-.09-4.84,1.49-5.11,1.13s1.89-1.95,3-2.48c1.4-.69,3,0,4.64.79a17,17,0,0,1,4,2.61,39.78,39.78,0,0,1,5.91,6.53c2.9,4.09,3.06,5.31,6.27,10.5,2,3.29,2.39,3.48,5,7.42,0,0,3.54,5.35,7.34,12.11A220.1,220.1,0,0,1,296.4,490c1.71,4.29,3.37,8.45,5.29,14.13a187.07,187.07,0,0,1,8.21,32,148.73,148.73,0,0,1,2,34.16c-.15,2.37-.18,1.85-3.88,25.51a56.65,56.65,0,0,1-2.16,8.12A22.25,22.25,0,0,1,302,611c-.33.4-1.43,1.73-1.75,1.54s.15-1.34.27-1.68" transform="translate(68.28 262.2)"/><path class="cls-6" d="M220.41,746.14a2.76,2.76,0,0,0-1.47-2.41,2,2,0,0,0-2-.1,4,4,0,0,0-2.43,3,2.6,2.6,0,0,0,1,2.63,4.54,4.54,0,0,0,2.38,1,2.28,2.28,0,0,0,2.34-1.83,5,5,0,0,0,.2-2.23" transform="translate(68.28 262.2)"/><path class="cls-18" d="M158.49,768.37A2.75,2.75,0,0,0,157,766a2,2,0,0,0-2-.1,3.92,3.92,0,0,0-2.43,3,2.61,2.61,0,0,0,.95,2.63,4.63,4.63,0,0,0,2.39,1,2.28,2.28,0,0,0,2.33-1.83,5.07,5.07,0,0,0,.2-2.24" transform="translate(68.28 262.2)"/><path class="cls-18" d="M98.35,795.19a2.76,2.76,0,0,0-1.46-2.41,2,2,0,0,0-2-.1,4,4,0,0,0-2.43,3,2.56,2.56,0,0,0,1,2.63,4.5,4.5,0,0,0,2.38,1,2.26,2.26,0,0,0,2.33-1.83,4.9,4.9,0,0,0,.2-2.23" transform="translate(68.28 262.2)"/><path class="cls-18" d="M26.3,803.93a2.73,2.73,0,0,0-1.47-2.4,2,2,0,0,0-2-.1,3.92,3.92,0,0,0-2.43,3,2.59,2.59,0,0,0,.95,2.62,4.53,4.53,0,0,0,2.39,1,2.28,2.28,0,0,0,2.33-1.83,5.09,5.09,0,0,0,.2-2.24" transform="translate(68.28 262.2)"/></g></g></g><rect class="cls-1" x="69.09" width="1028.47" height="1030.42"/><path class="cls-9" d="M843.21,151.55c4.47,15.57-24.81,25.69-24.75,48.34.06,23.93,32.84,40.05,34.92,41.05,24.62,11.74,60.27,10.23,73.66-8.1,14.18-19.42-2.49-49.7,9-55.5,5.53-2.8,15.31,1.27,18.77,7.65,6,11-10.39,21.89-8.53,43.26,1,10.9,6.61,24.23,14.36,25.41,9.57,1.45,20.52-15.93,24.84-29.85,4-12.85,2.63-23.84.06-38.47-6.65-37.86-10-56.79-15.55-65.62-23.89-37.81-88.57-48.57-133.79-29.33-21.21,9-52.55,30.78-52.19,56.2.15,10.53,5.74,21.69,10.35,21.69,7,0,6.47-25.5,20.34-30.58C824.57,134.08,840.3,141.43,843.21,151.55Z" transform="translate(68.28 262.2)"/><path class="cls-8" d="M646.6,461.43c-.69-.58-3.57-2.85-7.14-2.17-3.4.65-6.7,3.83-6.39,7.94.32,4.3,4.41,7.15,8,7.49,4.32.41,8.68-2.77,8.92-6.73C650.18,464.47,647.09,461.85,646.6,461.43Z" transform="translate(68.28 262.2)"/><path class="cls-13" d="M614.18-39.49l.23.28-.24-.28Z" transform="translate(68.28 262.2)"/><path class="cls-13" d="M204.57,768.22q.17.3.36.6l-6.06-.39-3.11-.21Z" transform="translate(68.28 262.2)"/><path class="cls-13" d="M825.32,768.22h0Z" transform="translate(68.28 262.2)"/><rect class="cls-1" x="68.28" y="262.2" width="1024" height="768"/></g></g></g></svg>