<svg xmlns="http://www.w3.org/2000/svg" xmlns:xlink="http://www.w3.org/1999/xlink" width="139.557" height="118.598" viewBox="0 0 139.557 118.598">
  <defs>
    <clipPath id="clip-path">
      <rect id="Rectangle_11665" data-name="Rectangle 11665" width="139.557" height="118.598" fill="none"/>
    </clipPath>
  </defs>
  <g id="sensory_bag" data-name="sensory bag" transform="translate(69.779 59.299)">
    <g id="sensory_bag-2" data-name="sensory bag" transform="translate(-69.779 -59.299)" clip-path="url(#clip-path)">
      <path id="Path_637428" data-name="Path 637428" d="M206.209,7.74c-6.588,7.557-5.387,15.618-5.464,38.949-.077,36.275-2.984,52.126,1.55,59.993.5.891,2.6,4.224,1.356,6.588s-4.689,2.4-6.007,2.48c-25,1.55-50.575-2.519-75.146,2.48-1.046.194-4.573,1.008-6.007-.7s-.271-4.534,0-5.309C120.4,100.752,110.6,72.616,121.1,47c7.48-18.331,25.617-36.042,21.238-41.158-.581-.7-2.48-2.209-2.093-3.449s3.914-1.55,5.271-1.55c13.681-.233,20.5-.349,32.438.581,19.378,1.511,31.12-3.72,32.438-.194.7,1.821-2.132,4.108-4.186,6.511" transform="translate(-70.915 0.011)" fill="#ffd54e"/>
      <path id="Path_637429" data-name="Path 637429" d="M150.274,99.662c-1.4-.581-8.216,9.417-12.208,21.858-2.713,8.41-7.635,23.679.039,36.081a26.9,26.9,0,0,0,9.34,9.069c10.813,6.2,24.416,3.372,24.726.969s-10.968-1.55-18.951-10.309c-7.363-8.1-7.6-19.378-7.751-27.129-.349-18.021,6.24-29.88,4.767-30.539" transform="translate(-82.065 -61.023)" fill="#ffe485"/>
      <path id="Path_637430" data-name="Path 637430" d="M173.616,19.456c-2.093,2.4-6.588,1.163-9.844.891a11.859,11.859,0,0,0-3.255.194h0a31.47,31.47,0,0,0-5.077,1.55,3.643,3.643,0,0,1,.039-2.635l4.534-1.163.31-.078,2.635-.659c7.48-1.86,10.774-2.093,11.472-.775s-.155,1.977-.775,2.674" transform="translate(-95.06 -9.767)" fill="#ffe485"/>
      <path id="Path_637431" data-name="Path 637431" d="M60.386,24.939a3.643,3.643,0,0,0-.039,2.635l-2.945,1.2-6.356,2.752C45.5,33.969,36.59,35.713,28.336,43.774c-9.224,8.991-6.7,12.518-21.354,20.928-2.6,1.473,2.4,5.658-2.015,7.867-1.356.659-3.565-.543-4.5-2.287-1.318-2.48.581-5,.814-5.271A6.472,6.472,0,0,1,4.772,62.88c5.93-1.628,13.06-13.642,21.974-21.587,6.123-5.5,11.82-7.906,23.021-12.673a73.8,73.8,0,0,1,7.17-2.674L60.425,24.9" transform="translate(-0.006 -15.25)" fill="#ffe485"/>
      <path id="Path_637432" data-name="Path 637432" d="M230.889,18.721c-2.6,0-3.565-.853-4.341-.155s-.659,2.287,0,3.294c1.511,2.364,6.007,1.356,6.7,1.2s3.527-.775,3.72-2.248a2.563,2.563,0,0,0-1.356-2.248c-.775-.465-2.132.155-4.767.155" transform="translate(-138.42 -11.203)" fill="#ffe485"/>
      <path id="Path_637433" data-name="Path 637433" d="M279.977,20.24c-1.124-1.2-2.945-.969-4.922-.736-1.2.155-2.093.271-2.4.891s.194,1.705.891,2.248,1.822.078,4.341.465c1.705.233,2.287.659,2.674.31s.31-2.17-.581-3.139" transform="translate(-166.928 -11.831)" fill="#ffe485"/>
      <path id="Path_637434" data-name="Path 637434" d="M316.957,20.345c-1.628-1.434-4.534-1.473-5.5-.155a1.9,1.9,0,0,0-.31,1.783c.233.543.775.853,2.519,1.356,2.674.736,4.031,1.124,4.457.581s-.039-2.558-1.2-3.565" transform="translate(-190.499 -11.78)" fill="#ffe485"/>
      <path id="Path_637435" data-name="Path 637435" d="M155.375,20.3a7.524,7.524,0,0,1-.078.853,5.4,5.4,0,0,1-2.093,3.682,4.069,4.069,0,0,1-3.8.426,4.147,4.147,0,0,1-2.015-2.209,6.24,6.24,0,0,1-.5-2.79,4.69,4.69,0,0,1,.814-2.6,5.983,5.983,0,0,1,3.565-1.9,4,4,0,0,1,2.519,0,3.27,3.27,0,0,1,1.356,2.17l-.31.078L150.3,19.175a3.643,3.643,0,0,0-.039,2.635,31.468,31.468,0,0,1,5.077-1.55" transform="translate(-89.956 -9.525)" fill="#3793ae"/>
      <path id="Path_637436" data-name="Path 637436" d="M160.334,20.971,155.8,22.134a2.17,2.17,0,0,1,.271-.465,3.607,3.607,0,0,1,2.209-1.163,2.773,2.773,0,0,1,1.589,0,1.357,1.357,0,0,1,.465.465" transform="translate(-95.419 -12.484)" fill="#256b7c"/>
      <path id="Path_637437" data-name="Path 637437" d="M160.716,27.8a5.037,5.037,0,0,1-.116.853,3.255,3.255,0,0,1-1.279,2.054,2.558,2.558,0,0,1-2.364.271A2.674,2.674,0,0,1,155.6,29.35a31.469,31.469,0,0,1,5.077-1.55Z" transform="translate(-95.297 -17.026)" fill="#256b7c"/>
      <path id="Path_637438" data-name="Path 637438" d="M127.962,29.2a5.154,5.154,0,0,1-.039.7,6.289,6.289,0,0,1-1.705,4.341,3.682,3.682,0,0,1-3.72.814,4.5,4.5,0,0,1-2.248-2.287,7.867,7.867,0,0,1-.775-3.1,5.774,5.774,0,0,1,.581-2.984,5.809,5.809,0,0,1,3.372-2.48,3.772,3.772,0,0,1,2.519-.233,3.2,3.2,0,0,1,1.55,2.17l-.271.155c-1.589.62-2.984,1.318-4.341,1.86a4.651,4.651,0,0,0,.233,2.984,25.811,25.811,0,0,1,4.922-1.977" transform="translate(-73.163 -14.588)" fill="#3793ae"/>
      <path id="Path_637439" data-name="Path 637439" d="M133.683,37a6.393,6.393,0,0,1,0,.93,3.759,3.759,0,0,1-1.046,2.442,2.287,2.287,0,0,1-2.325.5A2.945,2.945,0,0,1,128.8,39.17a25.928,25.928,0,0,1,4.922-1.977Z" transform="translate(-78.883 -22.661)" fill="#256b7c"/>
    </g>
  </g>
</svg>
