<svg xmlns="http://www.w3.org/2000/svg" viewBox="0 0 652.93 638.54"><defs><style>.cls-1{fill:#29424c;}.cls-2{fill:#d66d59;}.cls-3{fill:#fff;}</style></defs><g id="Layer_2" data-name="Layer 2"><g id="Layer_1-2" data-name="Layer 1"><path class="cls-1" d="M415.4,434.56c2.33,9,9.93,33.37,33,49.36,31.56,21.92,82.35,21.34,110.2-11.25,24-28.1,22.49-70.09,6.63-93.75-13-19.4-34.61-24.86-32.57-33.18s23.9-5.57,44-11.48c45.73-13.46,86.14-72.69,74.23-107.86-11.45-33.84-75.56-57.81-151.47-34.48,8.76-4.07,32.83-16.7,41.9-42.43,14-39.76-16.86-85.24-51.6-102.73-41.16-20.72-97.44-7-133.56,36.36.92-9.74,2.93-43.8-19.44-65.65C305.31-13.14,247,.53,214.54,27.34c-23.66,19.54-32.38,45.07-35.63,57.19C139.65,55.69,90.81,49.74,53.6,70.08,27.87,84.15-8.59,119.69,1.82,159.49c9.83,37.6,54.12,50.82,57.31,51.72C49.94,219,13.53,251.4,10.57,302.6c-.49,8.49-3.95,68.49,31.68,82.16,24.55,9.42,60.07-6.05,80.24-40.6-4.47,8.26-22,42.95-11.17,86.07,13.4,53.18,59.11,75.84,65.55,78.9,7.16,10.65,13.23,24.07,9.89,37.28-9.09,36-81.8,45.72-79.61,56.45.8,3.91,10.89,4.84,17.12,5.42,29.58,2.74,52.15-13.78,59.74-19.9a242,242,0,0,1,27.22,25.79C224,628.29,231,639.4,232.6,638.49c1-.59-.23-6.24-11.35-30a217,217,0,0,0,28.26,15.24c24.5,11,47.36,15.67,47.94,14s-20.89-5.74-42.74-23.59c-9.1-7.42-7.87-28.53-14.49-52.41-6.13-22.12,17.39-51.63,20.71-60.39,7.89-1.87-13.75,11.4,0,0a88.68,88.68,0,0,0,27.91-42c1.39,2.58,17.48,31.27,50.48,34.79,26,2.79,51.86-11.24,65-35.47Z"/><path class="cls-2" d="M234.12,247.55c-3,15.29-6.93,30.61-10.51,45.53-2.77,11.55-7.14,38.4-14,39-6.53.59-12.92-25.8-15.48-35.3-5.56-20.63-13.39-43.42-19.61-65.25-.2,18.32.58,36.83-.78,55.05-.93,12.36-1.81,24.81-2.61,37.23-.59,8.65,1.46,63-14.94,59.75-11.18-2.22-9.24-24.32-8.72-34.09,2.21-42,4.57-84,6.82-125.94-.08-20.79,1-43.42,6.83-63.51,2.84-7.15,10.61-12.93,15.74-9.76,3.16,2,7.11,18,9.26,25.6,4.71,18.1,8.84,36.31,12.93,54.55,2.58,12.44,4.73,25.14,9,37.14,4.13-14.71,6.54-30,8.74-45.06,4.11-20.89,8.82-41.62,13.45-62.4,2.7-10.42,5-21.51,9.82-31,3.89-7.56,15.49-12.76,19.63-1.43,2.93,10.3,3.72,21.57,4.22,32.25,1.72,34.79,3.56,69.62,4.47,104.38.54,20.91.7,42.26,1.7,62.83.68,13.77,2.39,28.2-.41,42.09-1.7,8-13.81,9.79-16.65,5.53-7.12-10.65-5-31.66-5.44-45.71-.43-12.4-.92-24.88-1.3-37.22-.82-26.87-.18-54.17-2.19-81.14C240.19,222.86,237.24,235.24,234.12,247.55Z"/><path class="cls-2" d="M302.34,320.09c8.93-.07,16.26-1.53,23.84-3,5.2-1.05,18.26-7.49,23.05-4.92,2.93,1.57,5.16,11.73,2.7,22.91-2.62,11.87-12.76,17.52-24.08,18.21-10.76.66-23,2.49-32.66,5.6-15.81,5.08-13.83-22-13.67-29.89.32-15.44,1.32-31.31,2.13-46.74,1.56-29.51,3.59-60,4.81-89.27.63-14.9-1.1-34.23,5.68-46.62,5.32-9.74,22.65-11.9,33-8.66,10.68,3.34,30.2,7.39,30.72,21.1.41,10.8-1.74,19-9.3,18.41-2.12-.16-5-.68-8.35-1.26-9.17-1.57-21.63-4-26.06.85-2.53,2.74-3,9-3.79,16.59-1.18,11.77-5.14,27.18-.67,38.74,1.49,2.29,3.25,2.75,5.57,3,5.59.56,13.52-3.59,19.12-3,3.67.39,6.86,3.85,7.43,10.53,1.07,12.58-4.23,19.11-9.11,21.44-2.12.52-5.2,1-8.46,1.47-6.51.95-15.65,2.35-18.77,7.17-2.57,4-2.88,13.32-3.16,22.78-.21,7.09-.45,15.2-.25,20.91,0,1.35.12,2.35.09,3.36Z"/><path class="cls-3" d="M410.55,239.49c.62,3.24-.64,6.81-2.85,8.22-3.25,2.09-11.9,1.66-13.79,3.68s-2.78,16.29-3.06,19.28c-.23,2.49-1.22,12.32-1.58,14.8-.63,4.25-1.37,18.36-6.64,19.93-2.31.69-5.8-.06-6.42-1.71-.69-1.84,1.65-13.28,1.9-15.3.27-2.3,1.49-12.24,1.68-14.44.41-4.71.74-10.75,1.16-18.14-2.32-3.19-9.78,1.18-12.75-.5-2.19-1.25-2.81-5.42-2.42-7.56.42-2.34,2.21-5.41,4.22-6.24s9.5-.79,11.16-2.23,2.34-9.2,2.74-12.09c1-7.28.15-15.64,8.43-16,5.23-.24,4.37,3.11,3.68,7.26-1,6.18-4,13-1.47,18.39C395.66,239.23,409.48,233.85,410.55,239.49Z"/><path class="cls-3" d="M429,246.13c2.63.84,6.23-3.09,8.85-4.28,2.79-1.27,7.24-3.1,10.95-2.74,2.16.21,4.81,1.6,5.16,3.67.74,4.32-3.27,7.24-5.37,7.9s-6.74,2.16-8.53,2.95c-4.32,1.62-11.43,7.49-11.48,9.43-.16,5.38-.2,18.81-1.48,23.87-1,4.11-3.08,4.63-7.05,4.83-1.57.08-3.86-1.14-4.32-2.49s.08-4.27.31-6.75c1.09-11.56.88-24,2-35.83.84-8.79.84-13.08,6.43-13.5a5.16,5.16,0,0,1,4.21,1.69C429.82,238.85,429.19,242.26,429,246.13Z"/><path class="cls-3" d="M478.28,274.84c7,.79,10.86-5.36,14-3.15,2.23,1.56,1.79,5.44,0,7.1-5.37,4.44-15.88,6.7-21.07,4.79-7.91-2.92-11.84-5.88-14.11-14.47a29,29,0,0,1,2.52-21.65c2.67-4.61,7.27-9.53,11.48-11,9.42-4,19.65-.3,23.49,9.39a23.22,23.22,0,0,1,2.22,7.15c.1,2.68-1.79,6.43-4.64,7.58-4.74,2-7.18,3.68-12,5.47-3.25,1.22-7.58,2.9-10.11,4C470.9,273.61,473.65,274.32,478.28,274.84Zm-10.54-15.16c1.9.2,8.36-2.38,12-3.38,2.41-.66,5.48-2.68,6-4.5-2.74-7.89-9.06-8.18-15.7-2.3C467.32,251.93,466.9,257.77,467.74,259.68Z"/><path class="cls-3" d="M525.47,270.2c7,.66,10.81-5,14-3,2.21,1.39,1.79,4.92,0,6.44-5.37,4.09-15.87,6.26-21.06,4.57-8-2.6-11.85-5.27-14.12-13.08a24.6,24.6,0,0,1,2.53-19.79c2.65-4.19,7.27-8.73,11.48-10,10.33-3.63,19-.86,23.49,8.47a19.33,19.33,0,0,1,2.21,6.47,7.8,7.8,0,0,1-4.63,6.91c-4.74,1.86-7.18,3.39-12,5.06-3.26,1.13-7.58,2.69-10.11,3.71C518.09,269.15,520.84,269.77,525.47,270.2Zm-10.54-13.73c1.9.17,8.36-2.22,12-3.15,2.41-.62,5.48-2.47,6-4.13-2.74-7.15-9.06-7.41-15.69-2C514.51,249.4,514.09,254.73,514.93,256.47Z"/></g></g></svg>