<svg xmlns="http://www.w3.org/2000/svg" viewBox="0 0 770.69 524.4"><defs><style>.cls-1{fill:#29424c;}.cls-2{fill:#fff;}.cls-3{fill:#abc866;}</style></defs><g id="Layer_2" data-name="Layer 2"><g id="Layer_1-2" data-name="Layer 1"><path class="cls-1" d="M411.22,0c49.47,40.72,148.93,120.36,198.43,161,41.83,34.38,119.18,97.93,161,132.28l-43.14,43.14c-69.15-49.39-140.41-103.87-212.8-163.92Q460.81,127.8,411.22,83.4c-44.53,40.31-94.28,82-149.53,123.65A2171.1,2171.1,0,0,1,40.26,353.71L0,296.2q94-58.62,189.8-120.78C272.52,121.69,332.91,53.58,411.22,0Z"/><path class="cls-1" d="M412.38,104.55c19.84,22.57,54.71,49.35,81.05,70.3,71.9,57.19,104.25,83.53,157,125.07,1.92,71.89,4.51,152.58,6.43,224.48A2829.39,2829.39,0,0,0,363.5,512.89C285,513.89,211,518.1,142.07,524.4c2.87-74.77,5.52-143.75,8.4-218.51C240.8,253.59,331.33,182.19,412.38,104.55Z"/><path class="cls-2" d="M541.06,441.6c-5-3.21-9.88-5.07-14.31-10.38-4.13-4.94-9.18-13.74-10.47-20.2-1.34-6.68-.2-12.62,1.46-15.71,2.13-4,5-7.18,9-8.52,4.4-1.48,9.46-.68,15.09,1.08,3.61-2.76,1.24-20.66,3.12-26.13.57-1.37,3.43-1.19,4.84-.16,4.46,2.32,2.78,14.86,2.46,21.7-.43,9.43-1,19.24-1.12,28.53-.08,11.38,1,23.61.14,35.11-.35,4.84-3.53,7-7,4.35C542.25,449.73,542.28,444.55,541.06,441.6Zm.58-39.07c-.93-2.57-3.47-2-7.56-3-6.55-1.64-11,7.75-6.48,17.48,2.71,5.8,9.42,12.71,13.59,12.84.85-2.37.61-10.22.8-13.93S542.51,404.91,541.64,402.53Z"/><path class="cls-2" d="M577.54,437.51c5.71,2,8.72-4,11.23-1.31,1.93,2,1.52,5.86.11,7.35-4.24,3.94-12.53,5-16.86,2-6.36-4.37-9.74-8.42-11.85-18.5-2.16-10.26-.59-18.41,1.57-23s5.76-8.77,9.18-9.42c8.38-2.15,15.52,2.75,19.35,14.48a34.86,34.86,0,0,1,1.89,8c.12,2.91-1.36,6.56-3.64,7.35-3.8,1.44-5.75,2.85-9.61,4-2.61.77-6.09,1.81-8.12,2.5C571.55,434.94,573.81,436.22,577.54,437.51Zm-8.87-18.29c1.55.61,6.77-1,9.71-1.4,1.93-.29,4.4-1.94,4.79-3.82-2.36-9-7.53-10.48-12.83-5.41C568.15,410.68,567.94,417,568.67,419.22Z"/><path class="cls-2" d="M612,415.56a24.43,24.43,0,0,1,7.21-7.8c2.19-1.41,5.62-3.2,9,0,1,.89,2.44,4.67,2.7,7.73.54,6.6-1.7,17.11-1.74,23.69,0,1.62.34,3.81,0,4.75-1.13,2.87-7,3.87-9,.49a81.34,81.34,0,0,1,.75-14.13c.54-4.52.94-7.22.41-11.69-2.67,0-4.38,3.45-6.09,6-4.27,6.05-3.66,6.07-6.18,10.92-1.43,2.91-4.16,11.42-6.43,12-6,1.6-5.07-4.95-4.58-11.5.55-7.27,1.33-13.79,1.49-21.3.14-6-.19-13.64,3.74-13.79,6.84-.25,4,12,5.09,18.85A21.36,21.36,0,0,0,612,415.56Z"/><path class="cls-3" d="M219.75,469.24c-.56,3.62-.53,6.22-1.63,7.49-2.07,2.1-10.19,4.19-11.59,2-9.94-15.62.85-57,3.31-80.84,2.93-28.42,6.46-57.37,11.14-85.16,1.57-9.34,4-20.16,11.35-26.78,2.58-2.33,6.13-4.92,10.61-8.37,10.13-7.8,26.84-21.4,41-17,10.4,4.55,15.12,18.09,16.67,28.33a155.91,155.91,0,0,1-4.32,64.29c-5.27,17.9-13.68,36.63-26.53,49.44-12.69,12.65-31.32,19.81-46.7,31C221.33,445.47,221.55,457.75,219.75,469.24Zm15.93-166.86a319.89,319.89,0,0,0-5.81,37.68c-1.52,18.32-4.77,36.92-4.49,55.58,27.19-11.12,50.42-39.61,49.86-67.86C274.79,305.2,259.56,286.75,235.68,302.38Z"/><path class="cls-3" d="M348.32,198.48c7.24,21.72-2.65,53.87-4.14,76.24-2.2,32.83-5,65.89-6.53,98.76-1,22.14-8.21,62.94-2.09,69.21,1,1,13.24-2,16.86-3.72,8-3.77,14.87-7.42,18.3-.2,4.5,9.48,2.06,20.84-3.28,22.31-12.22,3.36-25.33,6.58-37.25,8.76-2.54.46-4.38,1.19-6.7.5-8.33-6.44-5.3-19.93-5.16-29.15.76-52.22,3.05-106.2,4.93-158.3.73-20.4-5.58-68.7,16.39-81.26C344.2,199,346.16,197.46,348.32,198.48Z"/><path class="cls-3" d="M392.84,461.59c-1.95,5-11.75,3-12.9-2.2-.82-3.75,1.16-13.68,2.43-24.49,8.09-63.94,17.77-127.71,31.12-190.78,3.77-18.17,4.29-63.12,30.75-62.86,23.48.23,22,18.61,20.75,36.86-4.2,63.47-16.9,126-26.57,188.79-2.41,16-2.64,34.67-2.75,49.13,0,5.73-9.89,9-12.2,8.28-8-2.38,2.94-48.87,2.11-59.78-8.11,1.07-21.62,1.72-24,6.3C396.28,421.08,398.3,447.81,392.84,461.59Zm36.89-181.3c-9.91,26.39-15.13,55.44-18.88,83.3,3.78,4.23,16.61,1.12,18.47-3.28,7.59-17.91,7.23-54.08,2.83-79.48Z"/><path class="cls-3" d="M524.34,305c12.07-12.67,23.06-22,39.11-29.07,3.42-.95,8.19-2,12.47-2.79,3.54-.62,12-1.1,14.49-.32,5.46,1.84,14.2,11,5.86,16.48-7.72,5.1-21.51,5.22-26.09,6.94-20.91,7.83-34.28,24.35-46.74,42-3.57,5.48-6.85,11.53-10.26,17.69-3.83,6.93-8,13.55-9.92,20.32a170.63,170.63,0,0,0-5.48,33.48C497,420.68,496,432,496.36,443c.17,5.51,1.61,14.1,1.68,16.59-.71,3.53-7.07,7-17.44,6.59C458,465.31,469,429.26,471,416.31c2.72-17.51,5.77-35,6.41-52.76-.16-9.55-1.2-19.08-.78-28.64,1.54-20.58.64-41.22,1.79-61.81.52-10.19.92-20.56.78-30.64-.14-9.57-1.09-19.89.19-29.48,1.69-12.66,18.64-28.21,28.46-12.16,3.15,8.71,2,18.78,1.47,27.84.05,10.78-.4,21.63-1.16,32.37-1.87,21.58-7,44.69-2.88,66.24C513.16,321.72,518.52,312.39,524.34,305Z"/></g></g></svg>