<svg xmlns="http://www.w3.org/2000/svg" viewBox="0 0 360.15 306.01"><defs><style>.cls-1{fill:#fede67;}.cls-2{fill:#ffea9a;}.cls-3{fill:#4aa3bb;}.cls-4{fill:#337d8e;}</style></defs><g id="Layer_2" data-name="Layer 2"><g id="Layer_1-2" data-name="Layer 1"><path class="cls-1" d="M349.06,20c-16.95,19.5-13.93,40.3-14.07,100.49-.2,93.57-7.7,134.52,4,154.75,1.32,2.27,6.74,10.95,3.48,17-3,5.65-12.15,6.19-15.55,6.41-64.54,4-130.52-6.46-193.9,6.4-2.65.54-11.77,2.62-15.55-1.83-3.49-4.11-.67-11.74,0-13.72,10.07-29.58-15.21-102.23,11.89-168.29,19.37-47.2,66.25-92.91,54.88-106.1-1.51-1.76-6.44-5.7-5.39-8.86,1.24-3.76,10.07-4,13.61-4,35.29-.58,52.93-.87,83.7,1.52,50,3.87,80.25-9.63,83.7-.51C361.66,8,354.42,13.85,349.06,20Z"/><path class="cls-2" d="M176,99.74c-3.64-1.55-21.17,24.31-31.5,56.36-7,21.75-19.68,61.08.12,93.1a69.54,69.54,0,0,0,24.12,23.4c27.94,16,63,8.67,63.81,2.52.72-5.65-28.26-4-48.86-26.63-19.05-20.88-19.59-50-20-70C162.84,132,179.84,101.39,176,99.74Z"/><path class="cls-2" d="M202.7,25c-5.41,6.15-17,3-25.4,2.25a30.65,30.65,0,0,0-8.45.54h0a81.21,81.21,0,0,0-13.1,4,9.45,9.45,0,0,1,.12-6.79c3.6-1,7.41-2,11.69-3l.76-.19,6.77-1.67c19.34-4.77,27.81-5.35,29.62-2C205.76,20,204.3,23.13,202.7,25Z"/><path class="cls-2" d="M155.84,25a9.45,9.45,0,0,0-.12,6.79c-2.34.89-4.86,1.92-7.59,3.06-4.76,2-10.15,4.36-16.35,7.09-14.27,6.27-37.35,10.82-58.6,31.56C49.29,96.8,55.79,105.92,18,127.62c-6.69,3.84,6.22,14.63-5.24,20.26-3.48,1.71-9.23-1.45-11.6-5.95-3.36-6.4,1.53-12.86,2.09-13.58a16.68,16.68,0,0,1,9-5.52C27.63,118.7,46,87.7,69,67.16,84.76,53,99.49,46.79,128.38,34.54c6.89-2.93,12.65-5.07,18.46-6.92C149.78,26.68,152.73,25.82,155.84,25Z"/><path class="cls-2" d="M238.58,19.42c-6.71,0-9.23-2.18-11.17-.38s-1.68,5.85,0,8.47C231.34,33.6,243,31,244.74,30.58c2.51-.56,9-2,9.62-5.77.33-2.19-1.47-4.6-3.47-5.77C247.66,17.14,245.42,19.42,238.58,19.42Z"/><path class="cls-2" d="M291.7,21.73c-2.9-3.06-7.56-2.52-12.7-1.92-3.06.35-5.42.65-6.16,2.31s.48,4.37,2.31,5.77c2.57,2,4.66.25,11.16,1.15,4.41.62,5.86,1.75,6.93.77C294.75,28.43,294,24.17,291.7,21.73Z"/><path class="cls-2" d="M326.34,22.12c-4.2-3.75-11.67-3.77-14.24-.39a4.92,4.92,0,0,0-.77,4.62c.59,1.42,2,2.21,6.55,3.46,6.94,1.92,10.41,2.87,11.54,1.54C331,29.51,329.28,24.73,326.34,22.12Z"/><path class="cls-3" d="M168.82,27.75a19.37,19.37,0,0,1-.24,2.15c-.63,3.83-2.36,7.46-5.45,9.52a10.5,10.5,0,0,1-9.76,1.09,10.66,10.66,0,0,1-5.24-5.69,16.11,16.11,0,0,1-1.29-7.2A12.1,12.1,0,0,1,149,21c2.64-3.53,7.39-4.51,9.22-4.88,2.63-.54,4.75-1,6.51,0s2.88,3,3.53,5.65l-.76.19c-4.28,1.06-8.09,2-11.69,3a9.45,9.45,0,0,0-.12,6.79A81.21,81.21,0,0,1,168.82,27.75Z"/><path class="cls-4" d="M167.53,21.94c-4.28,1.06-8.09,2-11.69,3a5.57,5.57,0,0,1,.68-1.19c1.65-2.2,4.6-2.8,5.74-3,1.63-.33,3-.6,4.05,0A3.49,3.49,0,0,1,167.53,21.94Z"/><path class="cls-4" d="M168.85,27.75a13,13,0,0,1-.27,2.15,8.38,8.38,0,0,1-3.28,5.35,6.57,6.57,0,0,1-6.08.68,6.85,6.85,0,0,1-3.5-4.17,81.21,81.21,0,0,1,13.1-4Z"/><path class="cls-3" d="M141.4,37.7a11.91,11.91,0,0,1-.07,1.79c-.22,4.37-1.56,8.61-4.42,11.22a9.46,9.46,0,0,1-9.6,2.14,11.64,11.64,0,0,1-5.82-5.91,20.38,20.38,0,0,1-2-8,14.83,14.83,0,0,1,1.47-7.68c2.26-4.22,6.88-5.77,8.67-6.36,2.56-.85,4.62-1.55,6.48-.61s3.05,2.72,4,5.62c-.26.1-.5.27-.74.36-4.15,1.59-7.7,3.39-11.18,4.84a11.93,11.93,0,0,0,.6,7.65A67.05,67.05,0,0,1,141.4,37.7Z"/><path class="cls-4" d="M141.37,37a15.44,15.44,0,0,1,0,2.45,9.69,9.69,0,0,1-2.7,6.32,5.93,5.93,0,0,1-6,1.34,7.55,7.55,0,0,1-3.92-4.37A67,67,0,0,1,141.4,37.7Z"/></g></g></svg>