<svg xmlns="http://www.w3.org/2000/svg" xmlns:xlink="http://www.w3.org/1999/xlink" width="130.752" height="128.92" viewBox="0 0 130.752 128.92">
  <defs>
    <clipPath id="clip-path">
      <rect id="Rectangle_3389" data-name="Rectangle 3389" width="130.752" height="128.92" fill="none"/>
    </clipPath>
  </defs>
  <g id="sensory_bag" data-name="sensory bag" transform="translate(65.376 64.46)">
    <g id="Group_3591" data-name="Group 3591" transform="translate(-65.376 -64.46)" clip-path="url(#clip-path)">
      <path id="Path_557204" data-name="Path 557204" d="M0,353.626c1.219-.118,2.35.1,3.5.044a52.588,52.588,0,0,0,6.052-1.028c2.012-.353,4.275-.4,6.419-.558a2.4,2.4,0,0,0,2.2-1.484,72.594,72.594,0,0,0,3.907-9.842l.191-.558a3.853,3.853,0,0,1,.705,1.19q1.631,3.364,3.246,6.728a13.207,13.207,0,0,1,.529,1.366c.294.852.676,1.087,1.557.808,1.234-.382,2.5-.676,3.731-1.014a45.8,45.8,0,0,1,5.6-1.058c1.087-.162,2.13-.5,3.349-.808-.588.793-1.087,1.454-1.542,2.13q-3.423,5.024-6.816,10.062c-.911,1.366-.911,1.4.485,2.247a31.378,31.378,0,0,1,5.832,4.642,75.989,75.989,0,0,0,6.287,5.391A7.947,7.947,0,0,1,46.8,373.5a10.827,10.827,0,0,1-4.187-.338c-5.523-1.542-11.193-2.438-16.776-3.761a14.757,14.757,0,0,0-3.393-.558,1.9,1.9,0,0,0-2.159,1.454,30.837,30.837,0,0,0-1.058,3.628,26.06,26.06,0,0,1-.867,3.026c-.852,2.336-1.968,4.568-2.806,6.919-.147.4-.323,1-.749,1s-.441-.632-.573-1.014a28.091,28.091,0,0,1-1.381-7.227c-.191-2.2-.059-4.392-.147-6.6a26.541,26.541,0,0,0-.573-5.8c-.073-.279.088-.47.162-.69a1.673,1.673,0,0,0-.881-2.38A31.939,31.939,0,0,1,5.773,357.5a28.037,28.037,0,0,0-5.1-3.335c-.22-.117-.514-.162-.676-.543" transform="translate(0 -290.226)" fill="#fff4cc"/>
      <path id="Path_557205" data-name="Path 557205" d="M369.059,88.313a10.738,10.738,0,0,0,.544-3.981,7.979,7.979,0,0,0-3.32-6.684,11.878,11.878,0,0,0-3.878-2.159c-.338-.088-.353-.264-.309-.529a47.716,47.716,0,0,1,3.849-12.648,56.356,56.356,0,0,0,4.216-9.886,62.675,62.675,0,0,0,1.895-11.987c.25-3.526.338-7.08.69-10.606a71.183,71.183,0,0,1,1.91-11.678A20.661,20.661,0,0,1,376.624,14a21.323,21.323,0,0,0,1.719-3.643c.117-.382.279-.294.529-.191l1.851.705c.353.132.72.162.837-.279s-.22-.544-.529-.661l-.279-.073c-2.967-1.1-2.233-.235-2.615-3.379A19.013,19.013,0,0,0,376.58.5c-.264-.588.25-.5.485-.514a11.076,11.076,0,0,1,3.144.191c3.2.72,6.493,1.1,9.68,1.983,2.159.6,4.378.984,6.508,1.719a5.92,5.92,0,0,0,2.306.353c.69-.044.984.264,1.028.911.015.294.1.588.088.867-.059,1.219.529,2.365.338,3.6a.409.409,0,0,0,.382.529c.308.015.544-.308.558-.646a19.655,19.655,0,0,0-.1-3.129c-.206-1.733-.176-1.7,1.484-1.851.793-.073,1.586-.235,2.394-.264.441-.015.617.088.558.573a20.658,20.658,0,0,0-.25,2.483c-.015.837-.029,1.689-.044,2.527,0,.294.147.544.485.514s.353-.279.382-.529q.206-2.262.441-4.51c.088-.823.309-.984,1.028-.661a3.613,3.613,0,0,0,1.7.353c.294-.015.573,0,.573.455a18.621,18.621,0,0,0,1.028,5.949c.22.69.088.984-.646,1.014a6.669,6.669,0,0,0-1.087.176c-.308.073-.676.147-.6.588s.411.455.749.426a12.911,12.911,0,0,0,1.6-.235c.411-.1.573.015.676.4a8.306,8.306,0,0,0,3,4.392,12.281,12.281,0,0,1,3.893,5.67,133.545,133.545,0,0,1,3.716,14.69c1.263,5.788,2.483,11.6,4.26,17.26,1.116,3.584,3.026,6.831,4.671,10.18a96.261,96.261,0,0,1,4.98,10.753,58.8,58.8,0,0,1,2.38,11.384c.411,2.982.823,5.949,1.116,8.946a27.316,27.316,0,0,1-.294,8.182c-.646,3.1-2.673,4.818-5.582,5.817a37.05,37.05,0,0,1-11.869,1.91c-5.053.044-10.121.206-15.174-.073-1.7-.1-3.393-.411-5.1-.573-3.79-.353-7.595-.632-11.384-1.028a51.576,51.576,0,0,1-8.006-1.763c-.426-.118-.367-.279-.206-.6a14.409,14.409,0,0,0,1.895-5.2c.279-3.408.132-6.728-2.174-9.534a15.578,15.578,0,0,0-8.711-5.465,10.16,10.16,0,0,0-3.8-.367m61.9,11.355c-.308-.4-.176-.705.044-1.087.588-1,1.469-1.88,1.469-3.129,0-.455.088-.661.529-.72a1.749,1.749,0,0,0,.6-.25.715.715,0,0,1,1.028.147,2.014,2.014,0,0,0,1.307.558c.485.059.558.029.661-.279a.659.659,0,0,0-.308-.749c-.25-.191-.617-.147-.867-.382a1.864,1.864,0,0,0-2.35-.206,4.027,4.027,0,0,1-2.571.514,5.845,5.845,0,0,0-3.364.455c-1.072.544-2.115.881-3.1,1.469a6.067,6.067,0,0,1-3.07.823,3.555,3.555,0,0,0-1.675.485,1.834,1.834,0,0,0-.837,1.895c.029.764.455.97,1.014,1.19a1.632,1.632,0,0,0,1.66-.573A12.5,12.5,0,0,1,424.1,97.2a42.046,42.046,0,0,1,4.157-1.983,4.445,4.445,0,0,1,2.732-.044c.514.132.588.382.382.779a16.938,16.938,0,0,1-1.2,2.071,10.5,10.5,0,0,0-1.895,6.184,6.962,6.962,0,0,0,.147,1.381c.044.294.191.617.529.632s.485.264.661.485a11.075,11.075,0,0,0,1.44,1.557,2.7,2.7,0,0,0,2.674.529,6.5,6.5,0,0,0,3.643-4.377,10.615,10.615,0,0,0-3.423-8.77c-.279-.279-.676-.734-1.028-.382s.176.676.426.955a18.608,18.608,0,0,1,1.895,2.615,1.856,1.856,0,0,0-1.542,1.924c-.147,2.057-.6,4.245,1.645,5.611a8.676,8.676,0,0,1-.573.676,2.383,2.383,0,0,1-2.483.9,4.532,4.532,0,0,1-2.512-3.966c.073-.779.088-1.557.132-2.336.029-.338.088-.69.147-1.087.338.22.294.485.338.705s.029.632.426.676.47-.323.573-.632a8.731,8.731,0,0,1,.676-1.851,8.343,8.343,0,0,1,.029,2.483c-.029.162-.029.367-.235.426-.47.147-.441.529-.426.9.044.734.1,1.454.191,2.189.029.279.015.6.47.6s.544-.206.617-.573c.162-.793.22-1.6.353-2.394a13.679,13.679,0,0,0-.279-4.436c-.1-.588-.47-.617-.925-.191a5.908,5.908,0,0,0-.881,1.249m-7.066,1.322a2.556,2.556,0,0,1,.925,2.115,22.838,22.838,0,0,1-.1,2.629c-.029.323,0,.69.426.734s.5-.323.544-.646a14.556,14.556,0,0,0,.044-3.511,2.938,2.938,0,0,0-1.175-2.042c-.661-.514-1.19-.382-1.5.382-.191.455-.323.925-.485,1.381s-.147.426-.544.25a7.169,7.169,0,0,0-1.836-.441c-.72-.088-1.072.25-1.028.97a15.406,15.406,0,0,0,.22,1.6,14.083,14.083,0,0,1,.441,4.363,16.587,16.587,0,0,1-1.058-3.07c-.1-.338-.206-.69-.646-.676s-.529.411-.6.779a3.575,3.575,0,0,1-.308,1.293c-.5-1-.94-1.91-1.41-2.82-.191-.353-.294-1.028-.852-.779s-.088.779.029,1.16a6.154,6.154,0,0,1,.382,1.557c-.382-.676-.705-.235-1.058-.22-1.263.073-1.41,1.058-1.689,1.895a1.822,1.822,0,0,0,.734,2.145c.734.544,1.263.382,1.631-.367a4.7,4.7,0,0,0,.441-2.923c-.029-.176-.191-.4.059-.485s.294.206.367.367a30.769,30.769,0,0,1,1.278,3.114c.1.294.264.529.632.485s.441-.353.441-.661a6.038,6.038,0,0,1,.132-1.513c.279.632.47,1.116.705,1.586s.47.852,1.043.764.676-.573.779-1.043a8.573,8.573,0,0,0,.132-1,1.836,1.836,0,0,1,.279.558c.132.294.323.5.676.411s.338-.382.323-.646a3.1,3.1,0,0,0-.088-.573,5.625,5.625,0,0,1-.132-2.277l.308,1.16c.088.308.294.646.558.588a.756.756,0,0,0,.529-.764,26.773,26.773,0,0,0-.044-3.437,4.187,4.187,0,0,1,.514-2.409m4.157,1.043c-.25-1.116-.044-2.262-.264-3.393-.117-.632-.426-.661-.837-.4a2.416,2.416,0,0,0-1.2,2.13c.015.544.264.97.911.852.279-.044.382.015.367.264a4.237,4.237,0,0,1-.132,1.6,2.439,2.439,0,0,0-.088,1.513,4.142,4.142,0,0,1-.5,3.1,1.652,1.652,0,0,1-2.718.338c-.323-.323-.661-.588-1.058-.191s-.162.808.191,1.131a2.978,2.978,0,0,0,4.466-.617,5.41,5.41,0,0,0,.676-4.01,1.328,1.328,0,0,1,0-.793,3.771,3.771,0,0,0,.191-1.513M410.4,110.127c.338.25.485.632.881.47s.353-.514.323-.823a3.129,3.129,0,0,1,.676-2.262c.206-.264.367-.588.044-.852s-.646-.088-.911.176a3.1,3.1,0,0,0-.808,1.91c-.015.235.073.5-.147.72a1.73,1.73,0,0,0-2.262-1.131,1.043,1.043,0,0,0-.779.705,1.427,1.427,0,0,0,1.278,1.939c.147.015.426-.176.382.206s.162.69.588.632a.863.863,0,0,0,.734-.808,7.433,7.433,0,0,0,0-.911m-8.3-96.2h1.542c.367,0,.646-.147.646-.544s-.294-.544-.646-.544l-3.055.1c-.279.015-.573.1-.588.426s.264.5.588.514,1.014,0,1.528,0M378.431,2.143c-.485.015-.705.514-.367.97.558.734,1.16,1.44,1.763,2.13.176.206.441.485.734.235s.1-.514-.044-.734c-.5-.764-1.028-1.528-1.557-2.292a.646.646,0,0,0-.544-.308m16.732,11.135c.47-.059,1.014.015,1.014-.617s-.5-.573-.925-.573A11.987,11.987,0,0,1,393.282,12c-.353-.059-.749-.015-.808.411s.294.529.617.588l2.042.294m-7.315-.9c.353,0,.6-.1.646-.426a.5.5,0,0,0-.441-.573l-2.35-.544c-.25-.059-.529-.044-.632.235s.1.514.367.632a10.523,10.523,0,0,0,2.409.661M395.412,8c-.029-.338-.029-.676-.073-1.014s-.029-.544-.353-.544-.4.294-.411.529c-.088.779-.147,1.542-.191,2.321-.015.279.1.485.4.5a.426.426,0,0,0,.485-.353,5.332,5.332,0,0,0,.162-1.454M390.9,6.771c-.059-.338.176-.823-.309-.881s-.47.411-.529.749-.147,1.014-.264,1.513-.147.6.25.705.588-.191.646-.514.147-1.058.206-1.572m-6.067-.676a4.594,4.594,0,0,0,.059.646c.044.206.088.514.411.514s.426-.294.426-.573-.073-.72-.1-1.087-.073-.47-.323-.5-.4.235-.426.485a4.038,4.038,0,0,0-.029.514" transform="translate(-308.89 0.045)" fill="#fdd436"/>
      <path id="Path_557206" data-name="Path 557206" d="M856.184,683.5a8.649,8.649,0,0,1,.455,4.172c-.029.323-.22.867-.426.837a1.508,1.508,0,0,1-.955-.455,3.59,3.59,0,0,1-.558-2.218.293.293,0,0,1,.132-.22c.925-.308,1.175-1.087,1.351-2.115" transform="translate(-729.148 -583.096)" fill="#fdd436"/>
      <path id="Path_557207" data-name="Path 557207" d="M755.156,667.112c-.367.411-.661.749-.984,1.072s-.455.617-.749.25a.676.676,0,0,1,.191-1.014,2.174,2.174,0,0,1,1.542-.308" transform="translate(-642.618 -569.088)" fill="#fdd436"/>
      <path id="Path_557208" data-name="Path 557208" d="M854.714,680.895a2.3,2.3,0,0,1,.558-1.895,1.818,1.818,0,0,1-.558,1.895" transform="translate(-729.147 -579.258)" fill="#fdd436"/>
      <path id="Path_557209" data-name="Path 557209" d="M759.042,703.827c-.176-1.087-.353-2.071-.485-3.055-.029-.191-.162-.485.1-.588a1.257,1.257,0,0,1,.852.132c.264.1.162.382.118.573L759.1,703.4a2.4,2.4,0,0,0-.044.441" transform="translate(-647.078 -597.298)" fill="#fdd436"/>
      <path id="Path_557210" data-name="Path 557210" d="M713.089,726a5.73,5.73,0,0,1-.206,2.321c-.044.147-.059.382-.279.382s-.279-.176-.367-.323a2.121,2.121,0,0,1,.852-2.365" transform="translate(-607.5 -619.353)" fill="#fdd436"/>
      <path id="Path_557211" data-name="Path 557211" d="M171.387,519.945c2.615-.353,5.009.852,7.169,2.762a5.979,5.979,0,0,1,1.983,3.423,10.6,10.6,0,0,1-.382,5.773c-.426,1.161-.044,1.572,1.16,1.337a6.682,6.682,0,0,1,2.541.044,15.084,15.084,0,0,1,8.579,4.686,9.455,9.455,0,0,1,2.394,5.611,13.171,13.171,0,0,1-1.2,7.183,11.326,11.326,0,0,1-6.023,5.391,4.069,4.069,0,0,1-4.642-.544.687.687,0,1,0-.984.955,3.932,3.932,0,0,1,.5,3.746,22.729,22.729,0,0,1-3.761,7.8,11.023,11.023,0,0,1-9.71,4.3,8.091,8.091,0,0,1-4.275-1.572,4.449,4.449,0,0,1-1.91-3.834c.015-1.131-.191-1.351-1.322-1.307a38.145,38.145,0,0,1-3.863.308,7.918,7.918,0,0,1-1.66-.235,14.45,14.45,0,0,1-8.549-6.507,12.756,12.756,0,0,1-1.748-7.521,4.191,4.191,0,0,1,1.822-2.982c.132-.1.279-.191.426-.294s.573-.485.441-.911-.47-.47-.867-.514c-2.982-.353-4.627-1.44-5.23-4.172-.837-3.878,1.058-7.624,5.2-8.579a3.816,3.816,0,0,0,.632-.176.707.707,0,0,0,.264-1.234,2.933,2.933,0,0,1-.925-2.306,12.678,12.678,0,0,1,.426-4.642c.323-1.175.867-1.513,2.057-1.293,4.745.881,9.46,1.968,14.146,3.129a14.609,14.609,0,0,0,4.524.22,3.167,3.167,0,0,0,.426-.088c.411-.088.837-.206.955-.676s-.176-.734-.455-1.014a35.986,35.986,0,0,0-3.7-3.32c-.925-.676-.925-.72-.015-1.352,2.174-1.5,2.879-1.7,5.611-1.6m19.537,25.677a2.57,2.57,0,0,0,1.146-.22c.97-.367,1.131-1.219.308-1.851-.441-.338-.646-.573-.176-1.014a.467.467,0,0,0,.059-.426,1.964,1.964,0,0,0-2.85-1.072c-.206.162-.367.338-.264.617a.46.46,0,0,0,.6.264,1.316,1.316,0,0,1,.925-.059c.323.161.544.1.558.382s-.323.25-.5.367-.955.162-.9.705.661.426,1.072.514.969.132.969.573-.6.279-.955.308-.823-.044-.837.47.485.4.823.441m-5.582-8.153c0,.734.367.925.808.94s.676,0,.661.5a.352.352,0,0,0,.382.353.441.441,0,0,0,.382-.4,3.172,3.172,0,0,1,.353-.955,1.307,1.307,0,0,0-.676-1.866,1.451,1.451,0,0,0-1.939,1.41m-3.893-1.234c-.015.779.279,1.116,1.131,1.366.323.1.661.162.823-.206s-.162-.5-.4-.676-.646-.191-.558-.646.455-.441.808-.426.544-.088.588-.426-.25-.5-.529-.588a1.473,1.473,0,0,0-1.851,1.572m9.049,1.586a5.418,5.418,0,0,0-2.541,1.954.44.44,0,0,0,.147.529.426.426,0,0,0,.573-.132,7.551,7.551,0,0,1,1.689-1.381,1.014,1.014,0,0,0,.455-.558c.088-.279-.015-.426-.309-.411m-1.072,11.737c-.485,0-.823.22-.852.661a.887.887,0,0,0,.823.852c.441.059.69-.338.705-.749a.69.69,0,0,0-.676-.764m1.542-1.983a.665.665,0,0,0-.734-.646c-.441,0-.72.176-.734.632s.176.808.646.808.72-.353.808-.793m-3.511,4.818c-.308.015-.4.25-.4.5a.382.382,0,0,0,.4.426.406.406,0,0,0,.441-.455.4.4,0,0,0-.441-.455" transform="translate(-121.207 -443.515)" fill="#dff1f7"/>
      <path id="Path_557212" data-name="Path 557212" d="M442.752,635.6c-.162-.044-.455.059-.4-.264s.176-.529.5-.558.558.117.544.367-.353.4-.646.441" transform="translate(-377.369 -541.529)" fill="#dff1f7"/>
    </g>
  </g>
</svg>
