<svg xmlns="http://www.w3.org/2000/svg" viewBox="0 0 93.61 46.46"><defs><style>.cls-1{fill:#fff;}.cls-2{fill:#28424c;}</style></defs><g id="Layer_2" data-name="Layer 2"><g id="Layer_1-2" data-name="Layer 1"><path class="cls-1" d="M93.2,45.05a2.06,2.06,0,0,1-1.58.41c-14.47.29-30.64.85-46,.57-18.25-.34-23.86.13-30.76.33-3.09.1-6.44.14-11.3,0H3.44c-1.25,0-1.47,0-2.27-.57S.53,44,.51,43.56C.39,41.19.31,37.07.24,32.31.07,20.75,0,5.43,0,2.36a1,1,0,0,1,.42-1,3.28,3.28,0,0,1,2-.44C8.55.84,23.55.26,44.17,1c8.63.31,38.76-.87,45-1,2.14,0,2.58,0,3.34.46a1.65,1.65,0,0,1,.66,1.58c-.83,4.93.2,37.72.41,41.69C93.63,44.47,93.64,44.58,93.2,45.05Z"/><path class="cls-2" d="M86.52,42c-5.51.07-19,.48-37.51-.23-7.75-.3-34.84.53-40.47.59-1.91,0-2.31,0-3-.4A1.32,1.32,0,0,1,5,40.64C5.76,36.55,5.12,9.26,5,6c0-.62,0-.71.37-1.09a1.93,1.93,0,0,1,1.42-.34c13-.17,27.54-.55,41.3-.24,23.75.54,23.69-.46,37.79-.1,1.26,0,1.44,0,2.18.5s.56,1.55.58,1.88c.27,6.75.12,30.67.1,34.27a.86.86,0,0,1-.38.8A3.15,3.15,0,0,1,86.52,42Z"/><path class="cls-1" d="M24.71,23.31A36.5,36.5,0,0,1,23,27.41c-.61,1.29-1.08,3.44-2.45,3.39-1.21,0-2-2.2-2.56-3.51-.69-1.59-2.37-5-3.05-6.61-.08,1.07-.13,4.06-.37,5.23s-.41,2.31-.61,3.52c-.81,4.6-.59,5.82-2.89,5.64C9.5,35,9.46,33.4,9.73,31.58c.62-4.2,1.23-7.94,1.86-12.29.08-1.83.66-4.76,1.43-5.91a2.26,2.26,0,0,1,2.59-.31c.5.31,1.09,1.94,1.41,2.73.82,2.05,1.25,3.4,2,5.46a19.56,19.56,0,0,0,1.42,3.62A19.54,19.54,0,0,0,22,21c.77-2.2,1.37-3.6,2.14-5.67a14.27,14.27,0,0,1,1.47-2.84c.61-.69,2.28-1.2,2.93-.16a10.77,10.77,0,0,1,.73,3c.39,3.54.74,6,1,9.64.16,1.82.31,3.94.53,5.83.14,1.22.57,2.68.09,3.89-.27.73-2.27.83-2.9.39s-.85-1.92-1-4.24c-.08-1.16-.19-2.35-.27-3.41-.17-2.38-.19-5.73-.45-7.44C25.85,20.69,25.13,22.38,24.71,23.31Z"/><path class="cls-1" d="M35.08,34.1a1.82,1.82,0,0,1-2.92-.5,10,10,0,0,1,.72-2.89c1.39-4.58,2.95-8.94,4.51-13.3.78-2.2,1.08-5.42,3.24-5.62,1.69-.16,1.64,1.1,1.9,3,.66,4.88,2,8.76,2.82,13.18.26,1.42,1.09,3.81,1.21,5.15.07.87-1.43,1.63-2.16,1.58-1.84-.12-1.54-5.46-2.68-7.06-1.32.21-4.08.33-4.52.85S35.87,33,35.08,34.1Zm4.69-14.6A22.94,22.94,0,0,0,38.3,25a4.34,4.34,0,0,0,2.78-.51c.3-.71-.57-4.34-1-5Z"/><path class="cls-1" d="M57.27,14.45c.57-.45,1.27-1.2,1.84-1.32a1.73,1.73,0,0,1,2.15,1.27c.05.78-1,1.63-1.66,2.15a50.57,50.57,0,0,0-5.72,5.71,2.27,2.27,0,0,0,.93,1.38,41.91,41.91,0,0,1,5.34,5.89c.6.72,1.7,1.7,1.73,2.7a2,2,0,0,1-2,1.9c-.84,0-1.56-1-2.09-1.72a51.38,51.38,0,0,0-3.58-4.32,31.74,31.74,0,0,0-2.46-2.57c-.38,1.53.35,5.19-.06,6.85a2,2,0,0,1-2.38,1.42c-.7-.12-1.18-1.16-1.26-2.39-.15-2.63-.09-5.46.06-9.19.09-2.34-.25-7,.62-9.1.68-1.15,2.44-1.44,3-.42.64,1.29-.28,5.14-.34,7C53.4,18.75,55.25,15.75,57.27,14.45Z"/><path class="cls-1" d="M67.1,29.88a25.39,25.39,0,0,0,4-.24c.87-.1,3-.75,3.85-.49a1.93,1.93,0,0,1,.81,2.3c-.43,1.58-2.27,1.66-3.93,1.7-1.9,0-3.82.16-5.64.33-2.28.2-2.43-.61-2.59-2.88-.08-1.08,0-3.09,0-4.35,0-2,.14-5,.13-8.3,0-1.67-.12-3.58.52-4.35s2.9-1.06,4.92-1.08c2.45,0,4.75.09,4.93,1.3s0,1.92-1.18,2l-1.31,0c-1.45,0-3.4.11-4,.56-.36.26-.38.85-.42,1.56s-.4,3,.26,3.64a1.26,1.26,0,0,0,.92.27c.91,0,2.15-.5,3-.51a1.29,1.29,0,0,1,1.34.93,1.71,1.71,0,0,1-1.21,2.17c-.34.07-.84.14-1.38.21-1.06.14-2.53.28-3,.74s-.35,1.24-.31,2.12c0,.67.07,1.43.15,2,0,.12,0,.22,0,.32Z"/></g></g></svg>