<svg xmlns="http://www.w3.org/2000/svg" viewBox="0 0 93.61 45.4"><defs><style>.cls-1{fill:#fff;}.cls-2{fill:#28424c;}</style></defs><g id="Layer_2" data-name="Layer 2"><g id="Layer_1-2" data-name="Layer 1"><path class="cls-1" d="M2.41.85C8.55.74,23.53.19,44.14.93c8.63.3,38.75-.82,45-.92,2.13,0,2.57,0,3.34.45A1.63,1.63,0,0,1,93.15,2c-.83,4.82.24,36.93.44,40.81,0,.72,0,.82-.39,1.28a2.14,2.14,0,0,1-1.58.41c-14.46.26-30.62.79-45.93.5-26.43-.5-26.35.67-42,.32-1.4,0-1.6.07-2.43-.57S.57,42.94.55,42.55C.16,34.61,0,6.47,0,2.22a1,1,0,0,1,.41-.94A3.36,3.36,0,0,1,2.41.85Z"/><path class="cls-2" d="M86.56,41.06c-5.49.07-18.89.46-37.32-.24-7.72-.3-34.67.5-40.27.56-1.91,0-2.3,0-3-.39a1.29,1.29,0,0,1-.58-1.29c.79-4,.14-30.72,0-33.95,0-.6,0-.69.36-1.06a2,2,0,0,1,1.42-.33c12.94-.16,27.4-.53,41.09-.22,23.63.53,23.58-.44,37.61-.08,1.25,0,1.43,0,2.17.48s.56,1.52.57,1.84c.28,6.61.13,30,.11,33.56a.8.8,0,0,1-.37.78A3.18,3.18,0,0,1,86.56,41.06Z"/><path class="cls-1" d="M19.28,32.56a5.06,5.06,0,0,1-.36,1.57c-.44.57-2.22,1.49-3.12.66s-.33-8.72-.27-10.15c.14-3.9.1-4.17.33-8.35.1-1.93.31-3.58,2.26-3.74A14.79,14.79,0,0,1,21,13c3,.5,5.76,1.31,7.64,2.79a8.67,8.67,0,0,1,2.56,3.53,5.59,5.59,0,0,1-.65,4.32,9.49,9.49,0,0,1-3.78,2.89c-2,.91-4.4.92-7.06,1.8C19.4,29.5,19.54,31.23,19.28,32.56ZM20,16.43a11.55,11.55,0,0,0-.42,3.69c0,1.52-.36,3.2,0,4.75,3.21-.1,7.65-1.15,7.73-3.74C27.45,18.26,22.74,16.59,20,16.43Z"/><path class="cls-1" d="M38.72,13.12c.68,1.34-.22,5.35-.33,6.75-.12,1.65-.49,4.12-.56,6,0,1.27-.31,4.81,0,5a13,13,0,0,0,3.54-.08c1.76-.24,3.42-.55,4.26.14a1.49,1.49,0,0,1-.81,2.64,80.5,80.5,0,0,1-8.45.69c-.87,0-1.27.17-1.75,0-1.08-.46-.91-2.08-.75-3.77.27-2.95.7-8.17.9-10.64s.27-7,2.55-7C38,12.74,38.33,12.72,38.72,13.12Z"/><path class="cls-1" d="M51,33.91c-.84,1.06-3,.37-3.18-.49a8.85,8.85,0,0,1,.77-2.85c1.49-4.52,3.16-8.82,4.84-13.12.84-2.17,1.16-5.34,3.5-5.55,1.85-.16,1.8,1.09,2.09,3,.74,4.81,2.19,8.63,3.13,13,.3,1.4,1,3.61,1.34,5.08,0,1-1.54,1.6-2.34,1.55-2-.12-1.7-5.38-3-7-1.43.2-4.44.31-4.91.84S51.8,32.84,51,33.91Zm5-14.4A21.06,21.06,0,0,0,54.42,25a5.09,5.09,0,0,0,3-.5c.29-.66-.65-4.27-1.15-4.95Z"/><path class="cls-1" d="M72.26,19.35c1.12-1.58,2.08-2.93,3.26-4.51.28-.35.66-.84,1-1.29a10.37,10.37,0,0,1,1-1.45c.52-.41,2.24-.57,2.68.66s-1.12,2.51-1.53,3a66.4,66.4,0,0,0-4.68,6.06c-.35.54-.66,1.1-1,1.64A6.76,6.76,0,0,0,72,25.26a17.55,17.55,0,0,0-.14,2.85c0,1.14-.08,2.13-.16,3.28,0,.62-.08,1.75-.17,2.13a2.37,2.37,0,0,1-2.29,1.18c-2.07-.18-1.13-4.35-1.13-5.93a9.49,9.49,0,0,0-.56-4.18c-.34-.68-1-1.3-1.29-2-.64-1.46-1.79-2.73-2.53-4.1-.33-.59-.81-1.4-1.21-2.08a5.42,5.42,0,0,1-1.05-2.17c0-1.25,2-3.09,3.41-2.23a8.85,8.85,0,0,1,1.39,2.36c.52.87,1,1.71,1.41,2.45,1,1.83,1.42,3.58,2.77,4.72C71.35,21.11,71.72,20.11,72.26,19.35Z"/></g></g></svg>