<svg xmlns="http://www.w3.org/2000/svg" viewBox="0 0 461.7 507.5"><defs><style>.cls-1{fill:#29424c;}.cls-2{fill:#fff;}.cls-3{fill:#62b8d6;}</style></defs><g id="Layer_2" data-name="Layer 2"><g id="Layer_1-2" data-name="Layer 1"><path class="cls-1" d="M436.15,93.74A1962.31,1962.31,0,0,1,461.46,378.2c.66,42.36-.08,83.34-1.95,122.84A1708.67,1708.67,0,0,0,38.94,507.5l-35-29.09Q2,289.3,0,100.21C61.07,88.32,133.81,72.6,202.1,53.75c18.23-5,34.09-9.71,35.44-10.11,18.89-5.59,67.3-20.23,129-43.12L368,0l3.2,11.24A2040.29,2040.29,0,0,1,173.3,68.92C114.1,83,58.15,93.52,6.42,101.45l21,11.56C106,105.49,189.54,99.72,277.58,96.53Q359.5,93.56,436.15,93.74Z"/><path class="cls-1" d="M420.28,86.79c-36.43.11-99.62-3.44-166.65.28-122.74,6.82-212.7,19.32-213.29,16.31-.5-2.56,65.22-10.73,145.94-29.12a1508.27,1508.27,0,0,0,197.85-59.4q-.7,8.15-1.4,16.3c3.38-.1,17.32-1.71,20.71-1.81C403.31,32.41,402.15,37,402,40h0L400.5,48.9l12-.62c-.77,3.59-1.72,7.47-2.48,11.06h0l-1.53,8.22c3.47-.75,14.57-1.11,14.37-.13-.31,1.58-1.42,5.44-2.33,9.68C419.9,80.06,420.34,85.24,420.28,86.79Z"/><path class="cls-2" d="M170.72,372.12c5.23,3.28,10.72,7.63,11.91,11.72a3.89,3.89,0,0,1-2.62,4.92c-2.16,1.2-8.48-4.5-11-6.21-6.77-3.5-9.78-3.05-9.23,1,.47,3.54,6.61,8,7.78,9.13,5.32,5.07,13.85,12,15.12,20.92a13.66,13.66,0,0,1-5.74,13.69c-2.66,1.91-8.15,2.53-11.57,1.48-8.1-2.5-8.58-3.74-9.28-10.36a4.15,4.15,0,0,1,1.13-3.15c3.55-3,9.11,7.28,13.67-2.4-.35-5.41-8.4-11.06-11.51-14.06-3.82-3.7-8-8.46-9.37-14-.83-3.47-1.61-9.11-.9-11.24,1.9-5.19,6.37-6.17,12.34-5.18A46.06,46.06,0,0,1,170.72,372.12Z"/><path class="cls-2" d="M233.14,394c.6,2.3-.11,4.95-1.58,5.86-2.17,1.33-9.49-1-11.19-.11s-1.32,11.81-1.32,14.08c0,1.9,0,9.36-.15,11.19-.2,3.09.57,13.28-4.65,13.54-2.29.11-6.1-1-7-2.31s.23-9.89.25-11.47c0-1.76.17-9.66.12-11.44-.1-3.66-.47-8.78-.86-14.65-3-3.46-11.35-2.73-15.21-5.39-2.85-2-4.18-5.93-4-7.47a4,4,0,0,1,4.32-3.3c2.47.24,11.46,3.61,13.28,3.25s1.8-5.62,2-7.34c.48-4.38-.86-8.95,8.44-6,5.87,1.86,4.91,3.35,4.49,5.41-.67,3.2-2.75,7.19-.24,11.45C221.36,391.88,232.09,390,233.14,394Z"/><path class="cls-2" d="M269.18,402c.41,7.75-2.39,16.77-7.26,22.14a14.25,14.25,0,0,1-10.83,4.66c-3.81-.1-8.3-2.63-10.6-5.24-4.32-6.46-4.3-17.08-1.36-23.48,1.52-3.53,1.83-4.55,4.6-8a15.77,15.77,0,0,1,5.43-4.67C260.57,380,268.63,391.8,269.18,402Zm-14.32,16.5c2.33-1.27,5.47-5.7,6-10.46,1-8.89-4-15.35-9.36-12.58-4.17,2.14-7.32,11.69-6.21,17.58C246.18,417.62,249.9,421,254.86,418.5Z"/><path class="cls-2" d="M284.21,393.57c1.86,1.4,4.71-.85,6.84-.92a17.61,17.61,0,0,1,9.33,2c1.86,1.09,4.1,3.41,4.21,5.37.23,4-3.48,4.83-5.27,4.5a53.6,53.6,0,0,0-7-.88c-3.44-.21-8.6,3-8.67,4.78-.2,4.8-.46,16.74-1.37,20.85-.73,3.33-2.18,3.27-4.95,2.83a4.58,4.58,0,0,1-3.05-2.72c-.33-1.19,0-3.65.19-5.78.73-10.25.41-21.2,1.29-31.58.64-7.54.64-11.3,5.29-10.45a5,5,0,0,1,3.24,2.39C285,387.54,284.44,390.26,284.21,393.57Z"/><path class="cls-2" d="M339.34,408.74c1.87-1.68,6.44-2.05,6.08,1.47-1.37,13.16-14.86,31.09-24.27,43.47-3.08,3.73-4.85,7.37-7.87,9.51-1.12.81-6.39,5.42-9.88-.5-3.06-5.19,2.83-6,4.29-7a22.68,22.68,0,0,0,7.49-10c.94-2.63-1-6.61-1.54-10.09-1.17-7.53-3.27-12.93-4.37-21-.59-3.68-2.06-8.7-1.16-11.94,1.15-4.15,5.57-5.2,9.17-1.43,1.41,1.51,1.43,4.77,1.62,8,.88,8.1,1.8,19.43,3.94,26.6C328.34,426.8,332.49,416.81,339.34,408.74Z"/><path class="cls-3" d="M99.41,393.76c-5.56-12.48-5.24-29-6.83-42.67-3-25.73-6.08-51.87-9.66-77.41-3.69-26.32-5.15-54.59-13.35-80.21-3.13-6.54-14.4,6.94-19.35-3.72-1.35-2.84-4.44-15.82-4.67-22.84,1-11.93,17.11-11.06,25.67-10.52,10.08.64,21.31-.52,31.18-1.16,2.75-.19,9.08,1.35,10,6.54,1.15,6.33-.4,14.62-2.63,17.53-3.7,4.54-16.71,2.2-18.85,10.3-5.08,19.29,2.8,46.43,5,66.26,4.49,41.31,12.23,83.76,12.33,125.54C108.12,391.46,102.19,400,99.41,393.76Z"/><path class="cls-3" d="M150.1,243.54a8.07,8.07,0,0,0,7.29-6.55c1.47-25-.17-50.68-2.06-75.27-.53-6.88-1.41-11.28-.3-14.06,1.57-4,11.29-7.49,14.94-4.95,6.65,4.63,2.74,30.41,3.22,40.75,1.93,42,4.72,84.86,4.29,127.26,0,11,1.19,22.76-.81,33.64-1.83,6.6-9.28,2.48-11.16.42-10.19-11.12-2.06-44.82-5.73-63.17-2.09-2.58-4.26-.72-6.16-1-3-.37-6.61-2.86-8.87,1.32-.22,22.34,2.38,44.7,1.76,67-.63,3.06-4.91,7.18-9.58,10.08-3.82,2.37-2.42-1.3-3-11.94-1.24-22.65-2.08-46.85-3.35-69.93-1.84-33.29-4.26-67.81-5.2-100.79-.24-8.29-6-29.7,4.91-32.63,2.75,0,5.49.49,6.24,1.15,3.46,9.78,1.75,21.58,2.06,31.82.63,20.19-.73,44.23,3.34,60.84C143.22,242.85,147.87,243.56,150.1,243.54Z"/><path class="cls-3" d="M211.3,140.48c4.68,16.3-.34,36.91-.15,53.67.41,35.87.51,72.16,2,108,.63,15.14,5.22,37.47-.51,49.48-1.59,3.34-10.48,4.77-14.45,3-5.91-2.65-5-12.2-5.32-24.23-.34-14.52-1.46-29.11-1.84-43.61-.91-34.27-1.28-68.77-1.8-103.15-.19-12.68-2.94-28.76.8-38.88,1.12-3,8.31-5.59,12.31-6.21C203.94,138.32,209.61,137.32,211.3,140.48Z"/><path class="cls-3" d="M280.86,239.59c.46-22.53,1.29-45.58,1.62-67.74.15-9.52-1.27-20.83,1-30.42.86-2.92,4.81-7.06,10.46-7.85,5.17-.72,12.5-.62,15,2.15,6.91,11.1.95,30.73-.39,42.65-5.8,51.72-5.95,106.83-7.72,159.8-.28,8.36,1.19,22.83-4.16,29-2.31,2.67-11.87,1.74-16.95-1.76-2.44-1.72-3.79-5.16-5.52-11.27-8.2-26.94-10.44-55.07-13.65-82.91-2.71-20.84-7.11-41.43-9.72-62.29-1.62,36.42-.21,73.43-.67,109.34-.15,11.84,1.64,28.08-3.58,39.26-2,2.61-9,3.07-12.18.12-7.06-6.55-1.79-27.37-1.66-37.73.58-49.37,1.38-100,1.62-149.72,0-9.48-1.31-22,3.19-30.78,1.86-2.38,8.34-5.08,11.95-4.08,3.78,1,5.32,9.36,7.41,21.19,4.41,24.26,6.23,49,9.51,73.38,3.11,22.36,5.95,45.15,12.1,66.92C280.66,277.92,280.47,258.58,280.86,239.59Z"/><path class="cls-3" d="M415.45,153.38c4.06-4.53,8.43-11.45,11.31-12.45,5.45-1.89,8,4.12,7.93,12.5s-3.75,18.65-7.17,25.07c-13,26.48-29.6,51.19-44.85,76.37-.33,7.1,2.84,14.84,6.3,22.23a342.51,342.51,0,0,1,26,91.08c1.93,9.48,3.35,20.34,2.23,30-1.09,9.43-4.47,13.6-8.59,12.13-3.56-1.28-6.61-8.68-9-15.87-6.26-18.75-13.17-37.19-20.61-55.51-5.38-13.88-11.74-27.26-18.45-40.54-5.8,25.86,1.22,54.42-7,79.65-2.93,6.25-10.41,8.26-21.63,2.72-5.87-2.9-9.22-10.54-9-21.91.83-38.08,4-77.36,6.76-114.5,2.25-30.73-4.84-76.56,10.63-105.22,7.27-8,25.06-9.1,28.84-2.6,8.51,14.63-5.08,52.65-7.23,77.2C385.78,200.52,396.41,171.75,415.45,153.38Z"/></g></g></svg>