<svg xmlns="http://www.w3.org/2000/svg" xmlns:xlink="http://www.w3.org/1999/xlink" width="1024" height="768" viewBox="0 0 1024 768">
  <defs>
    <clipPath id="clip-path">
      <rect id="Rectangle_3480" data-name="Rectangle 3480" width="1024" height="768" fill="#fff" stroke="#707070" stroke-width="1"/>
    </clipPath>
    <clipPath id="clip-path-2">
      <rect id="Rectangle_3481" data-name="Rectangle 3481" width="1023.254" height="768" fill="none"/>
    </clipPath>
  </defs>
  <g id="Mask_Group_142" data-name="Mask Group 142" clip-path="url(#clip-path)">
    <g id="Artwork_23" data-name="Artwork 23" transform="translate(511.627 384)">
      <g id="Group_3682" data-name="Group 3682" transform="translate(-511.627 -384)" clip-path="url(#clip-path-2)">
        <path id="Path_560417" data-name="Path 560417" d="M1023.254,0V277.3c-31.677,22.384-62.355,41.47-84.538,49.764l.4,6.5c.6,9.493,1.1,18.986,1.6,28.279h0c4.9,87.736,6.7,166.678-18.087,242.723l-1.8,5.3,1.5.5a362.838,362.838,0,0,1-41.27,86.137A461.67,461.67,0,0,1,823.5,767.44h199.754v.6H0v-408.5a67.655,67.655,0,0,1,12.191,6.1c13.79,8.893,18.387,20.085,21.984,18.586,1.7-.7,2.1-3.9,1.7-8.594-1.7-18.087-15.189-58.357-7.495-65.252l.7-.5c8.094-4.4,31.077,21.384,43.968,38.872A250.316,250.316,0,0,1,95.93,386.418l5.7-5.4C89.735,335.855,69.749,262.109,78.443,258.611c3.4-1.3,9.893,8.494,17.587,20.485h0c11.791,18.387,26.681,41.869,38.372,38.972,8.993-2.2,11.891-19.186,13.79-36.873,2.3-20.585,3.4-42.369,11.292-43.668s22.484,26.381,31.477,53.561c25.481-29.878,42.469-58.957,50.163-96.63,4.1-20.285,4.2-36.274,2.9-52.762-.5-6.5-1.2-13.09-2-19.985-2.7-24.882-5.9-54.46-1.9-102.225.6-6.895,1.2-13.39,2-19.386Z" fill="#ecf1d7"/>
        <path id="Path_560418" data-name="Path 560418" d="M331.279,768.228H62.675v-.6c-.8-6.8-1.5-14.19-2.1-22.583s-1.3-19.686-2-31.477-1.4-26.88-2.2-43.169c-.6-11.591-1.2-24.282-2-38.172l-.4-8.094-.2-4.5c-1.2-20.985-2.5-44.268-3.9-68.75-.5-8.194-1-16.588-1.6-25.082-.8-12.891-1.7-25.881-2.6-39.072-.7-10.093-1.4-20.285-2.2-30.478q-.7-9.893-1.5-19.686c-1-11.991-2-23.783-3.1-35.474q-1.2-12.99-2.5-25.581c-1.4-13.79-2.9-27.08-4.4-39.871q-1.6-13.19-3.3-25.282l.7-.5c8.094-4.4,31.077,21.384,43.968,38.872a250.32,250.32,0,0,1,22.584,37.872l5.6-5.4C89.755,336.044,69.77,262.3,78.464,258.8c3.4-1.3,9.893,8.494,17.587,20.485h0c11.791,18.387,26.681,41.869,38.372,38.972,8.993-2.2,11.891-19.186,13.79-36.973l3.9,41.969.8,8.294c6.8,72.447,12.791,119.313,21.284,159.783,4.4,20.785,9.393,39.971,15.589,60.056h0l.4,1.3.4,1.3c4.1,13.09,8.594,26.681,13.79,41.37,3,8.494,6.1,17.387,9.593,26.78A267.9,267.9,0,0,0,240.146,674.8a290.37,290.37,0,0,0,16.988,23.982,329.659,329.659,0,0,0,35.674,38.672q12.491,11.491,26.181,21.884,5.6,4.2,11.392,8.294l.8.6" transform="translate(-0.021 -0.188)" fill="#949fa4"/>
        <path id="Path_560419" data-name="Path 560419" d="M978.276,39.171c-1.8,11.092-8.894,51.363-43.168,80.441l-4.9,3.9-1.2.9-3.6,2.6-1.6,1-1.6,1-1.6,1-1.6.9-1.6.9-1.6.8-1.6.8-1.6.8-3.1,1.4-1,.4h-.3l-6.4,2.4-1,.3-1.6.5c-3.7,1.1-7.395,2-10.992,2.8l-1.5.3-1.5.3-13.291,2.4q-2.7-9.093-5.7-18.287-2-6-4.1-11.991c3.4-4.4,1.8-13.79-3.6-26.88l-2.2-5.1c-2.6-5.8-5.9-12.291-9.693-19.286s-9.493-17.088-15.289-26.481h0l-5.1-8.194Q817.743,14.839,808,0H973.28l.3,1.1.9,3.7.5,2.3.3,1.6.5,2.5.3,1.3.5,2.5.4,2.5.2,1.2.2,1.2h0l.3,1.9.3,3v5.3c0,.3.1,1.2.1,1.8s.1,1.5.1,2.2a32.268,32.268,0,0,1-.2,5.1" transform="translate(-0.589)" fill="#949fa4"/>
        <path id="Path_560420" data-name="Path 560420" d="M961.727,767.7l-.4.6H723.8l.8-.6a449.57,449.57,0,0,0,76.544-63.654,409.094,409.094,0,0,0,48.065-60.056,327.566,327.566,0,0,0,24.682-45.167c33.676-75.345,33.376-153.188,28.679-240.625l5.6.9,2.5.4,1.3.2,4.8.6h.1l2.9.3,5.9.6,2.4.2,6.9.4h6.5c4.9,87.736,6.7,166.678-18.087,242.723l-1.8,5.4,1.5.4a362.838,362.838,0,0,1-41.27,86.137A461.658,461.658,0,0,1,824.027,767.7Z" transform="translate(-0.527 -0.261)" fill="#949fa4"/>
        <path id="Path_560421" data-name="Path 560421" d="M1023.889,277.3c-31.677,22.484-62.354,41.47-84.538,49.764l.4,6.4c.6,9.493,1.1,18.986,1.6,28.279h-6.4l-6.9-.4-2.4-.2-5.9-.6-2.9-.3h-.1l-4.7-.6-1.3-.2-2.5-.4-5.6-.9c-.6-10.792-1.2-21.784-1.9-32.976l-.4-6.5c-.5-8.594-1.1-17.887-2-28.079s-1.8-19.486-3-30.178-2.9-22.384-4.9-34.375c-2.5-14.989-5.6-30.778-9.593-47.266q-1.3-5.2-2.6-10.592-2.9-11.292-6.4-23.083l13.39-2.4,1.5-.3,1.5-.3c3.6-.8,7.295-1.7,10.992-2.8l1.6-.5,1-.3,6.4-2.4h.3l1-.4,3.1-1.4,1.6-.8,1.6-.8,1.6-.8,1.6-.9,1.6-.9,1.6-1,1.6-1,1.6-1,3.6-2.6,1.2-.9,4.9-3.9c34.175-29.079,41.37-69.349,43.069-80.441a32.283,32.283,0,0,0,.2-5.1v-2.2a9.711,9.711,0,0,0-.1-1.8c-.1-.6,0-.6-.1-.9v-4.5l-.3-3-.2-1.9h0l-.2-1.2-.2-1.2-.4-2.5-.5-2.5-.2-1.3-.5-2.5-.7-1.7-.5-2.3-.9-3.7-.3-1h7.894q6.2,9.993,12.291,20.285c5.2,8.794,10.193,17.687,14.889,26.681q8.294,15.788,15.489,31.577Z" transform="translate(-0.635)" fill="#949fa4"/>
        <path id="Path_560422" data-name="Path 560422" d="M922.7,604.459l-1.8,5.4A362.836,362.836,0,0,1,881.427,690.6a465.159,465.159,0,0,1-63.354,76.844l-.6.6H231.8l-.5-.6a349.768,349.768,0,0,1-25.381-32.576A312.175,312.175,0,0,1,178.24,685.9h0q-2.1-4.7-4.1-9.493a11.475,11.475,0,0,1-.5-1.2c-1.2-2.9-2.3-5.8-3.4-8.794l-4.5-12.491-.8-2.3-2.7-7.794c-5.6-15.589-10.492-29.978-14.989-43.768l-1.1-3.4-.7-2.2-.9-3-2.9-9.293v-.2q-2.2-7.495-4.3-14.989c-1.3-4.7-2.6-9.293-3.8-13.99h0l-1.8-6.995-1.6-6.7v-.6l-.3-1.2c-1.8-7.395-3.4-14.889-5-22.683s-2.8-13.79-4-20.985c-.7-4-1.4-7.994-2.1-12.091l-.7-4.4q-1.3-7.894-2.5-16.388c-2-13.99-4-29.079-5.9-45.467v-.9l-.6-4.9h0l-1.6-11.991q-1.1-9.693-2.1-20.085c-1.5-14.39-2.9-29.678-4.5-46.166-1.8-19.186-3.4-36.473-4.8-52.262,11.791,18.387,26.681,41.869,38.372,38.972,8.993-2.2,11.791-19.186,13.79-36.973,2.3-20.585,3.4-42.369,11.292-43.668s22.484,26.381,31.477,53.561c25.481-29.878,42.469-58.957,50.163-96.63,4.1-20.285,4.2-36.274,2.9-52.762-.5-6.5-1.2-13.09-2-19.985-2.7-24.882-5.9-54.46-1.9-102.225.6-6.895,1.2-13.39,2-19.386H853.448l5.7,11.092q10.942,21.884,19.985,43.169c1.7,3.9,3.3,7.794,4.9,11.691l3.5,8.794c8.194,20.985,14.989,41.47,20.685,61.255h0c22.684,78.243,27.98,145.394,30.678,191.061l.4,6.4c.6,9.493,1.1,18.986,1.6,28.279h0c4.9,87.736,6.7,166.678-18.087,242.723" transform="translate(-0.07 0)" fill="#144c56"/>
        <path id="Path_560423" data-name="Path 560423" d="M887.23,124.485q-15.589.9-31.277,2.3c-180.868,15.689-226.235,13.09-406.3,17.987-87.037,2.4-141.6,2-205.45-3-.5-6.5-1.2-13.09-2-19.985a2005.111,2005.111,0,0,0,204.851,5.8c170.576-3.9,286.391-7.195,430.486-23.483h1.2c3,6.895,5.8,13.69,8.394,20.485" transform="translate(-0.176 -0.076)" fill="#7e8c92"/>
        <path id="Path_560424" data-name="Path 560424" d="M922.433,610.673a362.84,362.84,0,0,1-41.27,86.137,461.672,461.672,0,0,1-57.558,71.048l-.6.6H226.541l-.5-.6a344.143,344.143,0,0,1-21.884-28.979,310.38,310.38,0,0,1-28.079-50.863l-2.3-5.5a6.109,6.109,0,0,1-.5-1.2c-1.2-2.9-2.3-5.8-3.4-8.794s-3.1-8.394-4.5-12.491l-2.7-7.694-.8-2.4c-6-16.888-11.292-32.276-15.988-47.066l-.7-2.2,2.1-.2,15.289-1.3h.7l41.17-3.4c25.182-2,52.262-4,81.441-6.1l44.368-3.1,26.381-1.8,27.68-1.8,32.476-2.1,77.543-4.9,23.982-1.5s17.787-1.1,50.063-1.1c38.172,0,96.53,1.5,169.876,8.094q18.187,1.6,37.473,3.7c40.97,4.3,72.847,8.993,97.829,13.79a467.165,467.165,0,0,1,47.465,11.292l1.5.4" transform="translate(-0.106 -0.418)" fill="#265660"/>
        <path id="Path_560425" data-name="Path 560425" d="M783.064,767.8l-.4.6H474.189l-.5-.6C460.6,753.113,454,740.123,465.5,735.626c30.178-11.891,63.853-10.992,82.94-50.463,7.195-14.889,7.195-24.982,6.5-36.473-.5-9.593-1.5-20.185,1-35.174l.6-3.2a134.793,134.793,0,0,1,3.2-13.29,181.065,181.065,0,0,1,8.694-23.583,192.061,192.061,0,0,1,10.193-19.486A164.482,164.482,0,0,1,601.9,523.081C617.685,506.893,635.871,496.4,654.358,497c37.772,1.1,70.049,48.265,82.14,79.442.7,1.7,1.3,3.4,1.8,5,11.392,33.476,1.8,52.662,23.283,80.941,16.988,22.384,32.876,23.383,39.271,41.77l.3.9c7.794,23.783-8.194,49.264-18.187,62.754" transform="translate(-0.335 -0.362)" fill="#91cbde"/>
        <path id="Path_560426" data-name="Path 560426" d="M381.1,664.216c1.7-9.993,13.89-20.285,21.085-32.776,9.393-16.388,11.791-38.772,16.388-58.058,3.8-16.388,18.786-23.783,39.871-23.783,23.383,0,39.871,28.579,49.164,53.461,6.4,16.988,21.185,8.694,30.578,21.584,13.09,18.087,9.893,25.781,9.393,40.271-.6,17.287-18.487,36.273-20.085,37.573-34.175,27.68-97.529,21.584-128.706-5.8-4.8-4.3-20.185-17.687-17.587-32.476" transform="translate(-0.278 -0.4)" fill="#91cbde"/>
        <path id="Path_560427" data-name="Path 560427" d="M609.473,556.774c6.895-6.5,7.095-18.387,1.5-26.381a21.485,21.485,0,0,0-18.387-9.093c-11.392.5-21.984,11.392-20.385,22.184s13.69,15.089,15.289,15.688,13.89,5.2,21.884-2.4" transform="translate(-0.417 -0.38)" fill="#fff"/>
        <path id="Path_560428" data-name="Path 560428" d="M581.494,538.992c2.8-2.1,3.4-6.895,1-9.193s-5.1-1.5-7.095-.2-4,6-2,8.594,5.7,2.5,8.094.8" transform="translate(-0.417 -0.385)" fill="#10252b"/>
        <path id="Path_560429" data-name="Path 560429" d="M557.2,597.7c4.6-2.8,9.993,4.3,20.285,3,8.594-1.1,12.591-7.095,14.589-5.6s-.3,10.692-6.6,16.188c-7.994,7.095-23.483,9.493-29.179,2.5-3.9-4.7-3.2-13.59.9-16.188" transform="translate(-0.403 -0.433)" fill="#10252b"/>
        <path id="Path_560430" data-name="Path 560430" d="M130.394,649.9a8.194,8.194,0,0,1,5.3,4.4c1.3,3,.6,7.295-2.7,9.293s-7.594.4-9.793-2.2-2.4-8.294.4-10.592,6.1-1,6.6-.9" transform="translate(-0.089 -0.473)" fill="#10252b"/>
        <path id="Path_560431" data-name="Path 560431" d="M403.406,490.915c2,2.9,2.5,6.6,2,10.692-1.8,13.39-14.489,30.678-17.387,34.575s-13.09,17.787-27.88,26.281a60.557,60.557,0,0,1-18.586,7.095c-11.991,2.4-19.885-.1-21.384,3.6s3,7.395,10.093,13.19,13.49,10.592,21.584,17.387l.5.4c4.4,3.7,17.287,14.589,28.679,26.281A152.472,152.472,0,0,1,393.013,644c5.7,7.495,8.993,14.19,6.995,18.387s-9.593,4.9-19.286,4l-10.093-1.3c-16.588-2.4-35.774-6.2-44.867-1.8h0a9.193,9.193,0,0,0-4.3,3.8,9.491,9.491,0,0,0-1,2.8c-1.9,9.493,7.295,26.181,21.085,41.47a134.2,134.2,0,0,0,22.783,20.085c12.891,8.894,24.582,12.791,23.783,17.887-1.1,6.895-24.782,8.594-39.271,9.493-11.192.7-21.085.8-29.578.5-29.978-.9-44.168-5.6-47.765.7-1.2,2.1-.7,4.6.9,7.594l.3.6H0v-8.294c11.292-16.288,20.885-25.781,17.287-30.678-2.3-3.1-7.894-1.9-17.287.8V359.711a67.655,67.655,0,0,1,12.191,6.1c13.79,8.893,18.387,20.085,21.984,18.586,1.7-.7,2.1-3.9,1.7-8.594-1.7-18.087-15.189-58.357-7.495-65.252l.7-.5c8.094-4.4,31.077,21.384,43.968,38.872A250.316,250.316,0,0,1,95.93,386.591c8.694,17.487,12.391,29.578,13.39,29.279h.1c.3-.4,0-2.4-.7-5.8h0c-1.2-6.1-3.9-16.388-7.195-28.779C89.735,336.028,69.749,262.282,78.443,258.785c3.4-1.3,9.893,8.494,17.587,20.485h0c11.791,18.387,26.681,41.869,38.372,38.972,8.993-2.2,11.891-19.186,13.79-36.973,2.3-20.585,3.4-42.369,11.292-43.668s22.484,26.381,31.477,53.561c2.6,7.694,4.8,15.389,6.5,22.284,6.2,24.982,11.791,47.266,4.8,73.846s-22.983,42.169-17.887,47.565,18.986-5.9,41.67-11.891c25.981-6.895,42.469-2.1,67.851,0,71.048,5.9,113.118-16.888,117.914-6s-45.467,43.668-56.659,60.556h0c-1.9,2.9-2.7,5.4-1.7,7.295,3.7,7.195,29.079-2.6,43.069,1.4h0a12.291,12.291,0,0,1,6.995,4.6" transform="translate(0 -0.173)" fill="#1e333b"/>
        <path id="Path_560432" data-name="Path 560432" d="M285.991,581.928c0,2.7-.1,5.3-.2,7.694-2.1,29.878-19.086,44.568-45.667,85.538a584.067,584.067,0,0,0-30.078,51.962l-4.1,8.094-1.8,3.6c-5.3,10.792-9.593,20.385-13.39,28.979l-.2.6H98.728l-.4-.6C90.934,757.4,82.24,745.409,71.948,731.719l-2-2.7L58.457,713.832c-11.592-15.089-21.584-27.68-30.178-38.272C16.288,660.77,6.995,649.678,0,640.385V521.272C11.691,502.786,27.58,489.2,45.467,487.1l1.8-.2c27.68-2.1,63.154,22.983,71.248,50.763.5,1.6.9,3.4,1.3,5.2s1.1,5.4,1.7,7.794c.9,4,1.9,7.095,3.2,7.095s1.9-2.1,2.6-5.2h0l.4-1.8c.4-1.7.7-3.7,1.1-5.6s.6-3.2.9-4.8h0l.2-1.1.6-2.2c4.7-17.187,22.084-35.074,43.768-45.367,16.588-7.894,35.574-11.292,53.061-6.5,40.87,10.992,58.457,61.955,58.757,96.829" transform="translate(0 -0.352)" fill="#859398"/>
        <path id="Path_560433" data-name="Path 560433" d="M129.8,540.193c6-9.193,24.082-12.391,37.772-4.8a32.176,32.176,0,0,1,16.488,31.877c-1.6,12.591-10.992,25.082-21.384,26.081-19.686,2-43.468-37.073-32.976-53.161" transform="translate(-0.093 -0.387)" fill="#fff"/>
        <path id="Path_560434" data-name="Path 560434" d="M94.7,551.693c6-9.193,24.082-12.391,37.772-4.8a31.479,31.479,0,0,1,8.894,7.195c1.2,1.4,9.293,11.192,7.594,24.682s-11.092,25.082-21.384,26.081c-19.686,2-43.468-37.073-32.976-53.161" transform="translate(-0.067 -0.395)" fill="#fff"/>
        <path id="Path_560435" data-name="Path 560435" d="M163.19,537.7c1.3.4,6.3,2,8.494,6.995s.9,11.592-4.2,14.789-12.191.6-15.489-3.5-3.8-13.19.7-16.888,9.693-1.7,10.592-1.4" transform="translate(-0.109 -0.391)" fill="#10252b"/>
        <path id="Path_560436" data-name="Path 560436" d="M198.939,636.694c-4.4-1.9-18.586,12.991-36.274,15.789-21.884,3.4-41.07-27.18-46.766-22.983-2.9,2.2.8,11.492,7.894,29.079,10.792,26.88,16.988,30.977,20.285,32.676,1,.5,10.292,5.3,20.285,2.6,27.18-7.195,41.17-54.36,34.575-57.158" transform="translate(-0.084 -0.458)" fill="#213239"/>
        <path id="Path_560437" data-name="Path 560437" d="M76.244,715.665h0a24.5,24.5,0,0,1-.2,2.7,35.973,35.973,0,0,1-2.1,9.193,29.777,29.777,0,0,1-2,4.2c-2.8,4.9-6.7,8.994-11.592,13.59s-13.59,12.491-21.784,22.584l-.4.6H0V710.568c6.4-8.594,13.19-17.088,20.285-25.881a92.441,92.441,0,0,1,7.994-8.993l2.9-2.6h0c4.6-3.8,9.793-6.4,15.489-6a20.084,20.084,0,0,1,9.593,3.7,40.97,40.97,0,0,1,11.891,13.59,60.04,60.04,0,0,1,8.094,31.377" transform="translate(0 -0.486)" fill="#91cbde"/>
        <path id="Path_560438" data-name="Path 560438" d="M123.01,483.418c-1,.8-2.5.2-4.5-1.2-6.3-4.6-17.987-17.887-38.072-23.783a81.04,81.04,0,0,0-26.88-3,91.925,91.925,0,0,0-10.292,1.1C27.38,459.236,11.991,465.931,0,476.024V382.692c4.7,1.9,11.791,5.3,22.783,10.692l15.888,7.994c6.1,3,9.193,4.1,11.691,3.9a7.093,7.093,0,0,0,2-.6c11.092-5.1,5.4-31.577,11.791-33.176,4.4-1.1,10.792,10.592,19.086,27.28l6.995,14.19c10.892,21.884,19.286,37.573,24.982,48.465,7.195,13.79,9.893,20.085,7.694,21.884" transform="translate(0 -0.271)" fill="#91cbde"/>
        <path id="Path_560439" data-name="Path 560439" d="M60.368,520.3c-10.392,2.1-16.688,9.393-22.184,15.988-3.7,4.4-30.877,37.972-18.487,70.149,1.6,4.3,6.4,16.088,18.487,22.184,4.7,2.4,15.189,6.3,18.487,2.5,5.2-6-16.288-21.484-17.287-46.766-.6-17.587,8.794-37.073,23.383-45.567s27.68-3.6,28.279-7.395S75.657,517.2,60.268,520.3" transform="translate(-0.012 -0.379)" fill="#91cbde"/>
        <path id="Path_560440" data-name="Path 560440" d="M128.69,551c1.3.4,6.3,2,8.494,6.995s.9,11.592-4.2,14.789-12.191.6-15.489-3.5-3.8-13.19.7-16.888,9.693-1.7,10.592-1.4" transform="translate(-0.084 -0.401)" fill="#10252b"/>
        <path id="Path_560441" data-name="Path 560441" d="M1023.856,0V277.3c-31.677,22.384-62.355,41.47-84.538,49.764-13.49,5.1-23.883,6.1-29.279,1.5a67.146,67.146,0,0,1-9.593-9.993c-8.893-11.692-7.095-20.785-2-28.08,10.992-15.689,37.373-22.883,4-28.779l-6.995-1.4c-27.28-6.3-36.174-18.586-49.364-35.374l-4.6-5.8C826.6,200.953,823,174.473,828,148.592l.2-1h0l.2-1h0a126.586,126.586,0,0,1,5.2-17.987,124.517,124.517,0,0,1,9.893-20.885,106.427,106.427,0,0,1,15.289-19.985q3-3,6.2-5.8a79.142,79.142,0,0,1,14.689-9.893,12.691,12.691,0,0,0,3.7-2.6,3.1,3.1,0,0,0,.7-3.5,9.793,9.793,0,0,0-3.8-3.8h0l-3.5-2c-11.991-6.2-34.875-13.09-45.267-23.283h0a17.088,17.088,0,0,1-5.1-8.194,12.191,12.191,0,0,1,.5-6.995C830.6,11.492,835.593,4.6,841.389,0Z" transform="translate(-0.602)" fill="#91cbde"/>
        <path id="Path_560442" data-name="Path 560442" d="M886.559,146.985c-2-12.291-14.889-21.284-27.88-21.085A28.679,28.679,0,0,0,835,139.29c-7.894,12.991-3.8,32.576,9.293,38.672s26.781-3.9,28.579-5.2,16.088-11.292,13.69-25.781" transform="translate(-0.605 -0.092)" fill="#fff"/>
        <path id="Path_560443" data-name="Path 560443" d="M854.8,218.171c5.7,10.093,19.886,14.09,30.977,10.093a25.382,25.382,0,0,0,16.188-18.686c2.7-13.59-7.195-29.379-20.485-30.778s-21.984,11.292-23.183,12.891S848,206.28,854.7,218.171" transform="translate(-0.621 -0.13)" fill="#fff"/>
        <path id="Path_560444" data-name="Path 560444" d="M846.289,164.594c-.2-4.6-5-8.794-9.293-7.894s-5.5,4.4-5.5,7.594,3.5,8.794,7.994,8.494,6.995-4.4,6.9-8.294" transform="translate(-0.606 -0.114)" fill="#10252b"/>
        <path id="Path_560445" data-name="Path 560445" d="M884.29,219.094c-.1-4.4-4.6-8.394-8.594-7.395s-5.1,4.3-5.2,7.395,3.2,8.394,7.295,8.094,6.6-4.3,6.5-7.994" transform="translate(-0.634 -0.154)" fill="#10252b"/>
        <path id="Path_560446" data-name="Path 560446" d="M255.7,700.335c8.094-8.494,41.57-15.289,56.359-23.183,23.683-12.591,53.261-93.532,49.064-145.194-1.6-19.885-20.985-33.975-13.99-46.566,5.2-9.393,19.186-12.191,28.979-10.692,19.985,3.1,33.476,25.981,31.577,43.268-1.4,13.19-10.992,15.189-18.287,33.376-6.6,16.388-5.1,30.078-4.8,40.57,1.1,38.172-13.39,88.835-43.368,119.813-4,4.1-33.176,27.08-56.759,26.581s-39.571-26.78-28.779-38.072" transform="translate(-0.184 -0.346)" fill="#91cbde"/>
        <path id="Path_560447" data-name="Path 560447" d="M241.124,194.458c-7.694,37.673-24.782,66.751-50.163,96.63-8.993-27.18-22.084-55.06-31.477-53.561s-8.993,23.083-11.292,43.668c-2,17.787-4.9,34.675-13.79,36.873-11.592,2.9-26.481-20.685-38.372-38.972h0c-7.794-12.091-14.19-21.884-17.587-20.585-8.694,3.5,11.392,77.244,23.183,122.511l-5.7,5.4a250.317,250.317,0,0,0-22.883-37.673c-12.891-17.487-35.774-43.268-43.968-38.872l-.7.5c-7.794,6.895,5.8,47.166,7.495,65.252.4,4.7.1,7.894-1.7,8.594-3.6,1.5-8.094-9.693-21.984-18.586A67.657,67.657,0,0,0,0,359.538V0H242.223c-.7,6.1-1.4,12.491-2,19.386-4,47.765-.8,77.444,1.9,102.225.8,6.995,1.5,13.49,2,19.985,1.3,16.488,1.2,32.476-2.9,52.762" fill="#ecf1d7"/>
        <path id="Path_560448" data-name="Path 560448" d="M1023.854,277.5V767.643H824.1a461.662,461.662,0,0,0,57.558-71.048,362.837,362.837,0,0,0,41.27-86.137l-1.5-.5,1.8-5.3c24.782-75.945,22.983-154.987,18.087-242.723h0c-.5-9.293-1.1-18.786-1.6-28.279l-.4-6.4c22.184-8.294,52.861-27.38,84.538-49.764" transform="translate(-0.601 -0.202)" fill="#ecf1d7"/>
        <path id="Path_560449" data-name="Path 560449" d="M390.465,64.3c3.9,1.3-4.2,16.788,0,40.57,1.6,8.894,4.2,15.289.6,18.986s-5.4,1.7-14.489,1.6c-20.285-.1-28.479,3.6-32.576-1.6-1.2-1.5-2.1-3.9-1.3-5.5s6.3-1.5,15.489-1.3c10.892.2,16.288.3,18.986-2.3s2.7-7.395,2.6-17.088c-.1-11.991-1.9-14.19-.3-19.985,2.1-7.495,8.194-14.489,10.992-13.49" transform="translate(-0.249 -0.047)" fill="#1e333b"/>
        <path id="Path_560450" data-name="Path 560450" d="M689.3,56.6c-3.2,1.8,5.7,16.188,5.1,40.271-.2,8.993-1.7,15.589,1.8,18.886s4.8,1.1,12.691,0c17.487-2.3,24.982.5,27.88-5.1.8-1.6,1.4-4.1.4-5.6s-5.6-.8-13.49.4-14.09,2.1-16.688-.2-3.2-7.095-4.4-16.688c-1.4-11.891-.1-14.29-2.2-19.886C697.593,61.5,691.5,55.2,689.3,56.5" transform="translate(-0.502 -0.041)" fill="#1e333b"/>
      </g>
    </g>
  </g>
</svg>
