<svg xmlns="http://www.w3.org/2000/svg" viewBox="0 0 198.31 198.43"><defs><style>.cls-1{fill:#337d8e;}.cls-2{fill:#4aa3bb;}.cls-3{fill:#a5aeb3;}.cls-4{fill:#909da2;}.cls-5{fill:#1a5e68;}.cls-6{fill:#a1d4e6;}.cls-7{fill:#336873;}.cls-12,.cls-13,.cls-8{fill:#fff;}.cls-9{fill:#28424c;}.cls-10{fill:#153138;}.cls-11{fill:#dff1f7;}.cls-12,.cls-13{font-size:7.63px;font-family:GoodDogNew, GoodDog New;}.cls-13{letter-spacing:-0.01em;}.cls-14{letter-spacing:0em;}.cls-15{fill:none;}.cls-16{fill:#98a3a8;}.cls-17{fill:#2c4149;}</style></defs><g id="Layer_2" data-name="Layer 2"><g id="Layer_1-2" data-name="Layer 1"><rect class="cls-1" width="198.31" height="198.43"/><path class="cls-2" d="M19,164.45c-.69,11.68-1.64,23.18-2.73,34H6.64c.38-6.79.69-11.86.79-13.6,4.92-81.27,10.62-84,4.76-106A116.86,116.86,0,0,0,0,49.63V0H8.68c-5.35,16.89,4,37.21,9.62,57.78C24.05,78.9,22.36,107.41,19,164.45Z"/><path class="cls-2" d="M44.8,19.73c6.19,30.58,2.38,59.35-.68,59.79-2.32.34-6.9-15.21-9.51-27.86C30.14,30,30.45,12.2,30.38,0H41C41.43,5.81,43.32,12.39,44.8,19.73Z"/><path class="cls-2" d="M93.27,198.43a353.93,353.93,0,0,0,5.89-38.06,376.19,376.19,0,0,0,1.36-47.56c-.49-20.07-.89-37-4.76-59.11C92.32,34,88.58,24.18,90.32,6.14c.2-2,.45-4.09.76-6.14H66.84c.94,13.89-1,32.19-2.34,45.55-1.06,10.28-2.2,17.55-3.4,23.73l-.24,1.22c-2.64,13.18-5.56,21.75-8.59,45.71-5.1,40.4-2.85,63.92-2,71.34.4,3.66.89,7.31,1.44,10.88H62.74c-.08-5.55-.18-11.87-.27-19-.73-56.49,0-68.66,1.36-80.86,1-8.32,2.4-18.07,4.13-27.28l.15-.82C71.4,53.1,75.67,37.89,79.45,38.07c6.33.31,9.89,43.76,10.19,72,.2,18.3-1.22,36.91-4.07,73.38-.43,5.54-.84,10.51-1.21,15Z"/><path class="cls-2" d="M106.63,28.56c-1.72-12.18-3-21.51-4-28.56h5.31c1.29,7.33,5.92,13.45,8.89,22.45,7.27,22-.78,44.83-3.39,44.84C112.52,67.29,111.73,64.58,106.63,28.56Z"/><path class="cls-2" d="M132.45,81.56c-12.21,45.89-10.49,89.1-8.58,116.87H112c-.78-3.92-1.45-7.86-2-11.56-1.85-13.62-2.08-28.39,4.07-68.62C121.18,72,124.15,74,125.66,51.66A265,265,0,0,0,124.11,0h12.62c1.16,3.32,2.29,6.77,3.19,10.22a82.36,82.36,0,0,1,2.71,22.22C142.37,50.16,136.65,65.76,132.45,81.56Z"/><path class="cls-2" d="M162.35,17.69c8.56,37.19,1.39,71.85-1.36,72-2,.12-5.35-18-6.8-33.29a223.27,223.27,0,0,1-1-23.86C153.38,19,154.63,8.44,154.74,0h3.46C159.21,5.89,160.93,11.5,162.35,17.69Z"/><path class="cls-2" d="M186.81,60.49c-12.63,54.74-9.11,105.22-4.81,137.94h-4.22c-.67-4.62-1.3-9.43-1.85-14.28C169.85,130.51,173.68,76,176.05,0h19.41C196.1,25,190.23,45.65,186.81,60.49Z"/><path class="cls-2" d="M158.67,198.43H137.84c-4.72-36.67-1.62-64.65,1.4-82.22,2.21-12.82,4.1-23.77,6.8-23.78,7,0,11.61,73.09,12.23,82.89C158.33,176.25,158.85,185.07,158.67,198.43Z"/><path class="cls-2" d="M39.51,198.43H21.93c2.67-26.35,10.86-55.53,13.57-55,2.09.37-1.86,17.83,3.1,49.6C38.89,194.88,39.2,196.69,39.51,198.43Z"/><path class="cls-3" d="M127.35,67.78c-.52-.86-1.06-1.72-1.61-2.56C124,62.48,122,59.84,120,57.29c-.64-.83-1.29-1.65-1.94-2.46-.38-.45-.75-.91-1.13-1.37s-.75-.91-1.13-1.35v0c-1.63-2-3.26-3.84-4.85-5.66-.32-.38-.65-.75-1-1.12l-1.1-1.26a95.72,95.72,0,0,0-8.68-9.17,5.88,5.88,0,0,1,1.19,1.7c.56,1.22-.44,2.11-2.14,7.9-.13.47-.28,1-.42,1.51l-.24.9c-.59,2.2-1,3.79-1.26,5h0l-.16.71.13.15.77.88c.43.51.86,1,1.26,1.55l.54.67c.6.79,1.18,1.58,1.72,2.35a96.2,96.2,0,0,1,5.21,8.45l.63,1.12.73,1.36a73.75,73.75,0,0,1,3.53,7.67c.34.88.65,1.74,1,2.59a19,19,0,0,0,1.77-2.67c1.22-2.2,1.6-3.7,3.91-5.2,3.51-2.27,5.36-.59,8.77-2.58a6.61,6.61,0,0,0,.68-.44Z"/><path class="cls-3" d="M158.9,117.81a95.94,95.94,0,0,1-3.51,17.69c-3,8.89-9.7,28.24-29.59,42.77a84.51,84.51,0,0,1-53.22,16,71.31,71.31,0,0,1-17.69-3.1c-6.18-1.91-23.6-7.32-31.21-22-3-5.76-2.66-9.5-3.68-28-.62-11-1.5-27-3-39.17C13.21,71.15,6.23,71.29,8.07,55.72c.41-3.44,3.5-26.27,23.76-40.29C46.85,5,63,5.23,71.85,5.33c5.25.07,16.14.32,27.78,5a57.3,57.3,0,0,1,10.8,5.72c.23.14.44.29.65.43h0c.72.5,1.4,1,2,1.52l.07.07,0,0c.56.46,1.22,1,2,1.67a147.43,147.43,0,0,1,12.58,12.58A173.94,173.94,0,0,1,141.61,50c.4.58.79,1.16,1.18,1.76a19.25,19.25,0,0,1,2.61,10,18.09,18.09,0,0,1-5.85,10.92c-3.06,2.6-5.93,3-8.58,3.46-.39-1.35-.84-2.72-1.33-4.12,2.06-2.63-9.28-18.48-18.21-31.57,0,0,0,0,0,0a51.48,51.48,0,0,0-21-14.53,50.37,50.37,0,0,0-19.25-3c-3.48.2-13,.82-21.67,6.67-13.89,9.4-16,25.84-16.36,29-2.26,17.86-1.92,19.26.13,41.7,2,21.22,3.36,26.67,8.4,40.59,4.86,13.4,18.69,24.75,34.62,27.57,23.19,4.11,42.82-11.21,51.54-24.63,7.92-12.18,8-24.56,7.25-38.82a44.34,44.34,0,0,0,24.36-3.19A108.65,108.65,0,0,1,158.9,117.81Z"/><path class="cls-4" d="M159.5,101.83A44.34,44.34,0,0,1,135.14,105c-.08-1.46-.17-3-.25-4.47A103.93,103.93,0,0,0,131,76.11c2.65-.45,5.52-.86,8.58-3.46a18.09,18.09,0,0,0,5.85-10.92,19.25,19.25,0,0,0-2.61-10q2.37,3.52,4.66,7.39c.71,1.2,1.39,2.4,2,3.62A90.27,90.27,0,0,1,159.5,101.83Z"/><path class="cls-5" d="M137.93,138.5a49.2,49.2,0,0,1-5.6,11.7c-9.78,15-31.77,32.21-57.75,27.6-17.31-3.07-32.41-15.13-38.26-29.54a1.11,1.11,0,0,1-.07-.16c-.16-.39-.32-.79-.46-1.19-.21-.57-.42-1.14-.61-1.69l-.49-1.37c-.82-2.29-1.53-4.39-2.17-6.4l-.1-.3-.51-1.67c-.61-2-1.15-4-1.63-6-.23-1-.46-2-.67-3.08s-.37-1.87-.54-2.85c-.13-.72-.26-1.47-.38-2.23-.41-2.55-.78-5.34-1.15-8.52-.09-.75-.18-1.53-.27-2.33-.29-2.7-.58-5.68-.89-9-1.74-19-2.38-24.56-1.5-34.81.08-.88.17-1.78.27-2.74v0c.18-1.76.4-3.68.67-5.83.1-.92.22-1.91.36-2.93,0-.12,0-.24,0-.37.07-.51.17-1.35.35-2.43A57.39,57.39,0,0,1,28,45.94c.25-.58.52-1.21.83-1.88.36-.82.77-1.68,1.22-2.6C33.29,35,38.54,26.27,44.56,22.2c9.69-6.55,20.38-7.25,24.27-7.47a56.55,56.55,0,0,1,21.58,3.33c12,4.34,23.13,16,29.65,24.41.51.66,1,1.3,1.44,1.91.13.19.25.38.37.58,1.95,3,3.56,5.84,4.91,8.26l.34.61.29.52c.28.51.56,1,.82,1.52.37.68.72,1.37,1.06,2.05q1.5,3,2.71,5.85c.4.94.78,1.86,1.14,2.79a110.46,110.46,0,0,1,7,35.14C141,115.16,141.65,127.09,137.93,138.5Z"/><path class="cls-6" d="M31.93,25.78a19.76,19.76,0,0,0-4.33,4.51c-2,2.85-2.93,5.23-6,12.9-2.8,6.89-4.89,11.78-5.42,14.44-2.46,12.56-3.68-.83-2.22-7.37a57,57,0,0,1,5.91-16.64A35.11,35.11,0,0,1,29.09,22c3.37-2.85,5.91-5.69,9.11-7.11,4.73-2.1,11.89-4,11.36-3.45C47,13.93,44,14.29,40.11,18.22A70.93,70.93,0,0,1,31.93,25.78Z"/><path class="cls-4" d="M128.19,56.66c-21.52,1.78-28.26,1.5-51.42,2.13-20.32.54-27.61,0-50.63-2.94,0-.12,0-.24,0-.36.06-.51.17-1.35.34-2.43a281.53,281.53,0,0,0,49.91,3.4c20.3-.46,33.93-.66,50.3-2.45l.35.61c.09.18.19.35.28.52C127.64,55.65,127.92,56.15,128.19,56.66Z"/><path class="cls-4" d="M133.09,67.34c-1.41.09-2.82.19-4.24.31-24.55,2.13-30.7,1.78-55.15,2.44-19.8.54-27.22,0-48.86-2.7.07-.88.16-1.79.26-2.75v0a277.77,277.77,0,0,0,48.26,3.15c23.15-.52,38.87-1,58.43-3.18l.16,0C132.36,65.5,132.74,66.42,133.09,67.34Z"/><path class="cls-4" d="M121.83,45.74c-17,1.27-24.53,1.1-45.37,1.66-19.42.52-26.94.05-47.66-2.56.37-.81.78-1.68,1.23-2.59a280.88,280.88,0,0,0,46.09,2.83c17.6-.41,30.18-.61,43.9-1.82l1.43,1.9Z"/><polygon class="cls-3" points="31.27 46.81 29.95 53.34 32.01 53.65 33.35 46.98 31.31 46.63 31.27 46.81"/><polygon class="cls-3" points="33.66 45.76 32.3 53.64 34.66 54.02 35.95 46 33.66 45.76 33.66 45.76"/><polygon class="cls-1" points="36.03 46.43 35.16 54.21 36.76 54.38 37.57 46.37 36.05 46.27 36.03 46.43"/><polygon class="cls-3" points="37.82 47.38 36.94 54.35 39.02 54.56 39.9 47.44 37.85 47.18 37.82 47.38"/><polygon class="cls-6" points="40.26 46.34 39.43 54.74 41.81 55 42.56 46.46 40.26 46.34 40.26 46.34"/><polygon class="cls-1" points="42.73 46.71 42.38 54.98 43.99 55.07 44.26 46.56 42.73 46.55 42.73 46.71"/><polygon class="cls-1" points="44.54 48.57 49.23 55.52 50.6 54.71 45.7 47.61 44.44 48.43 44.54 48.57"/><polygon class="cls-7" points="28.96 45.35 26.58 52.59 28.57 53.21 30.98 45.83 29.03 45.15 28.96 45.35"/><path class="cls-8" d="M38.91,77.33c6.14-.11,21.15-.69,41.8,0,8.64.3,38.82-.88,45.08-1,2.14,0,2.58-.06,3.35.45a1.69,1.69,0,0,1,.66,1.59c-.84,4.93.2,37.79.4,41.76,0,.74.05.85-.4,1.31a2,2,0,0,1-1.58.42c-14.48.29-30.68.85-46,.57-26.47-.49-26.4.71-42.12.37-1.4,0-1.6.06-2.43-.58S37,120.41,37,120c-.39-8.13-.49-36.93-.51-41.28a1.06,1.06,0,0,1,.41-1A3.34,3.34,0,0,1,38.91,77.33Z"/><path class="cls-9" d="M123.12,118.46c-5.52.06-19,.47-37.56-.24-7.76-.3-34.88.53-40.52.59-1.92,0-2.31,0-3-.4a1.32,1.32,0,0,1-.58-1.32c.79-4.1.15-31.44,0-34.74,0-.62,0-.7.37-1.09a2,2,0,0,1,1.42-.34c13-.17,27.58-.55,41.36-.24,23.77.54,23.72-.46,37.84-.1,1.26,0,1.44,0,2.18.5s.56,1.55.58,1.89c.27,6.76.11,30.72.09,34.33a.82.82,0,0,1-.38.8A3.22,3.22,0,0,1,123.12,118.46Z"/><path class="cls-7" d="M137.89,139.29A49.58,49.58,0,0,1,132.28,151c-9.77,15.05-31.77,32.21-57.75,27.61-17.3-3.07-32.4-15.13-38.26-29.54,0-.05,0-.11-.07-.16-.16-.4-.31-.79-.46-1.19l-.61-1.7c-.17-.46-.33-.92-.48-1.37-.82-2.28-1.53-4.39-2.18-6.39l-.09-.31C44.65,136.86,61,135.71,83,134.38c0,0,13.63-.83,34.93,1.45C128.13,136.91,134.19,138.14,137.89,139.29Z"/><path class="cls-3" d="M176.74,197.69c3.5-1.39,11.38-5.26,12-11.11.22-2.11-1.3-5.84-1-6s4.33,4.07,6,5.92c1.4,1.57.59,1.13,1.92,2.55l1.44-4c-.68-.83-2.21-1.8-3.45-3.22-6-6.89-2.48-5.6-.74-5.79,1-.11,1.94-.5,3.69-.82.42-.08.84-.18,1.26-.29v-2.07a32.39,32.39,0,0,1-6.81.35,53.17,53.17,0,0,1-15.85-3.52c-1.87-.68-3.64-1.42-5.29-2.16-.81-.35-1.59-.71-2.31-1.05a.18.18,0,0,0-.1,0c-1.91-.8-4.13,5.33-9.51,6-.21,0-.41,0-.62.05h-.23c-4.07.05-7.32-3.21-7.77-3.66-.6-.62-3.43-3.66-3.27-7.15a9.77,9.77,0,0,0-4.28,4.67c-2,5,1.62,9.76,2.15,10.42,3.07,3.88,7.72,4.8,10.42,5.27-.83-1.42-1.24-3-.48-4.26a4.89,4.89,0,0,1,3.57-2.06,4,4,0,0,1,2.49.39c1.44.85,1.44,2,2.54,3.42a3.58,3.58,0,0,0,2.89,1.62c.26-.07.54-.13.83-.19h0c1.51-.35,3.22-.7,5.3-1a14.12,14.12,0,0,1,3.43-.54c3.74.37,7.38-1.46,9.75,3.27,2.8,5.58-8.59,12.76-10.64,15Z"/><path class="cls-6" d="M171.45,179.93c1.18-.19,2.32-.38,3.43-.54a9.12,9.12,0,0,1-1.08,2.39c-.73,1.17-3.19,5.1-8,5.92a11.34,11.34,0,0,1-8.61-2.28,13.38,13.38,0,0,1-2.92-3.37c-.84-1.43-1.25-3-.49-4.26a4.91,4.91,0,0,1,3.57-2.06,4.11,4.11,0,0,1,2.5.39c1.43.85,1.43,2,2.53,3.42a3.58,3.58,0,0,0,2.88,1.62,2.23,2.23,0,0,0,.84-.19h0C167.66,180.62,169.38,180.26,171.45,179.93Z"/><path class="cls-6" d="M157.27,172.49c-4.17.16-7.53-3.19-8-3.65-.59-.62-3.42-3.66-3.26-7.15a5.09,5.09,0,0,1,.13-1c.71-3.29,3.94-4.7,3.24-6.4-.16-.37-.46-.17-2.19-1.27-.6-.39-1.06-.72-1.16-.8-1.15-.9-1.14-4.12.45-8.21,1.3-3.35,3.93-10.09,9-10.71,4.48-.54,8.27,4,10.6,6.76,4.87,5.8,6,11.59,8,22.93.46,2.6.79,4.82,1,6.72-1.87-.68-3.64-1.42-5.29-2.16l-2.31-1.05a.31.31,0,0,0-.1,0c-1.91-.78-4.12,5.33-9.51,6C157.69,172.47,157.48,172.48,157.27,172.49Z"/><path class="cls-8" d="M150.54,140.07c-.68-1-2.72-1.3-4.25-.47a3.44,3.44,0,0,0-1.81,3.47,3.18,3.18,0,0,0,2.43,2.78C149.13,146,151.75,141.8,150.54,140.07Z"/><path class="cls-8" d="M154.5,141.26c-.68-1-2.72-1.3-4.25-.47a3.55,3.55,0,0,0-1,.79,3.49,3.49,0,0,0-.82,2.67,3.22,3.22,0,0,0,2.43,2.79C153.09,147.22,155.7,143,154.5,141.26Z"/><path class="cls-10" d="M150.05,141.62a.91.91,0,0,0-.59.48.81.81,0,0,0,.31,1,.9.9,0,0,0,1.09-.26.83.83,0,0,0-.06-1.14A.91.91,0,0,0,150.05,141.62Z"/><path class="cls-10" d="M146.4,139.83a.91.91,0,0,0-.59.48.81.81,0,0,0,.31,1,.89.89,0,0,0,1.09-.25.83.83,0,0,0-.06-1.14A.89.89,0,0,0,146.4,139.83Z"/><path class="cls-10" d="M151.17,153.92c-.2-.33,1.85-1.13,2.71-3.1.53-1.23.36-2.38.55-2.38s.32.67.31,1.26a3.56,3.56,0,0,1-.32,1.39c-.45,1.1-.92,2.26-2.11,2.72C151.89,154,151.27,154.1,151.17,153.92Z"/><path class="cls-11" d="M173,91.71c-3.75,4.3-29.87,26-34.05,22.35-7.08-6.09,6.17-7.79-1-9.07-4.92-.86-11.94-3.17-14.29-6-4.49-5.51-4.66-18.18,11.18-19.7,3.9-.38-8.53-3-7.16-6.85,2.41-6.66,8.94-3,11.23-3.46,6.09-1.14,6.1-6.12,6.34-7.62a19.3,19.3,0,0,0-2.61-10,16.38,16.38,0,0,0-1.18-1.76,175.07,175.07,0,0,0-13.84-17.65c4.59-1.39,11.28-1.33,15.05-1,4.43.36,19.57,1.56,29.78,13.49C183.46,57.36,184.72,78.26,173,91.71Z"/><path class="cls-8" d="M125.19,92.4a3.77,3.77,0,0,0-3.78-2.87,3.92,3.92,0,0,0-3.22,1.83c-1.07,1.76-.51,4.43,1.26,5.26s3.64-.54,3.88-.71S125.51,94.37,125.19,92.4Z"/><path class="cls-8" d="M121,101.11a3.58,3.58,0,0,0,4.21,1.37,3.44,3.44,0,0,0,2.2-2.54,3.6,3.6,0,0,0-2.78-4.18c-1.74-.19-3,1.53-3.15,1.76S120,99.5,121,101.11Z"/><path class="cls-10" d="M119.72,94.79a1.17,1.17,0,0,0-1.27-1.07,1.09,1.09,0,0,0-.75,1,1.15,1.15,0,0,0,1.08,1.16A1.11,1.11,0,0,0,119.72,94.79Z"/><path class="cls-10" d="M122.54,100.91a.94.94,0,1,0-.88,1.09A1.07,1.07,0,0,0,122.54,100.91Z"/><path class="cls-6" d="M121.41,152.11c-.86-2.6-3-2.71-5.38-5.79-3.06-4-1.48-6.69-3.41-11.67-1.64-4.24-6-10.64-11.15-10.79-6-.18-11.92,8.34-13.28,15.39-.92,4.8.76,6.32-1.1,10.16-2.59,5.37-7.16,5.24-11.26,6.85s9.43,11.64,9.86,11.91c9.85,6.08,25.73,1.94,32.57-6.65C119.32,160.19,122.67,156,121.41,152.11Z"/><path class="cls-8" d="M52.83,107.59c-.49-.73-.36-2.9-.3-4.1.08-1.46.17-3.83.1-5.16-.06-1.16.08-4.28-.67-5.42-.51-.52-3.85.38-4.91-.49a2.13,2.13,0,0,1-.32-2c.49-1.06,5-1,6.62-.84a58.72,58.72,0,0,0,6-.23c.54,0,1.75.16,1.86.8A1.88,1.88,0,0,1,60.42,92c-.81.42-3.25.16-3.92.79s-.41,2.88-.44,4.75c-.07,3.78.31,7.42-.39,9.89C55.34,108.65,53.48,108.58,52.83,107.59Z"/><path class="cls-8" d="M69.14,97.65a3.35,3.35,0,0,0,2.14-.59c.57-1.44.58-5.19.51-7.1a5.69,5.69,0,0,1,.08-2.23,1.91,1.91,0,0,1,2.7-.73c.78.59.26,3.9.28,5.47a97.4,97.4,0,0,1-.31,10.68,22.94,22.94,0,0,1-.45,3.88c-.41,1.06-1.79.58-2.42.38-1.23-.39.3-5.25-.47-6.68a4.65,4.65,0,0,0-1.71,0,7.19,7.19,0,0,0-2.65.15c-.72,2.3-.26,5.29-.56,7.61a2.13,2.13,0,0,1-2.58,1.32c-1-.37-.66-1.53-.66-3,0-2.06.24-4.47.33-6.66.1-2.65.16-5.75.37-8.39.17-2.12-.17-5.16,1.49-5.45a2.33,2.33,0,0,1,1.65.36c.71.76.17,3.7.09,5-.13,2.09-.65,4.49-.14,5.49C67.05,97.63,68.33,97.67,69.14,97.65Z"/><path class="cls-8" d="M80.74,87.68c.45,1-.11,4.58-.12,5.95,0,2.79-.23,5.49-.14,8.48,0,1.46.18,4.61-.24,5.28a2.51,2.51,0,0,1-2.37.88c-1-.37-.82-2-.78-3.3,0-.81-.06-3.06,0-4,.07-2.43.24-5.46.33-8.36A36.35,36.35,0,0,1,77.66,88a2.3,2.3,0,0,1,1.78-1C79.66,87,80.49,87,80.74,87.68Z"/><path class="cls-8" d="M94.35,97c0-2.09,0-3.17.06-5.13a13.67,13.67,0,0,1,0-3.14,1.88,1.88,0,0,1,1.27-1.16c.6-.11,1.41-.07,1.68.33.59.73.27,3.24.16,4.34S97.36,103,97.39,104s.18,2.58-.28,3.34a2.22,2.22,0,0,1-2.4.68c-.42-.17-.71-.72-1.09-1.45-1.37-2.39-2.84-4.54-4-7A30,30,0,0,1,87.34,95c-.32,1.88-.3,6.5-.41,8.3-.08,1.28-.1,3.78-.73,4.44a2.08,2.08,0,0,1-2.3.26c-1-.56-.31-3.26-.27-4.43.13-4.09.55-7.5.68-11.88,0-1.23.07-3.08.52-3.58A2.53,2.53,0,0,1,87,87.6c.8.27,1.24,1.62,1.81,2.88,1,2.24,1.76,3.82,2.85,6a39.09,39.09,0,0,0,2.45,4.66A30.28,30.28,0,0,0,94.35,97Z"/><path class="cls-8" d="M108.56,89.55c.54-.42,1.18-1.12,1.72-1.23a1.64,1.64,0,0,1,2,1.18c0,.72-.92,1.51-1.54,2a45.15,45.15,0,0,0-5.32,5.3,2.2,2.2,0,0,0,.88,1.28,39.33,39.33,0,0,1,5,5.44c.57.67,1.6,1.58,1.64,2.51a1.84,1.84,0,0,1-1.87,1.75c-.79,0-1.47-.92-2-1.59a48.65,48.65,0,0,0-3.39-4,30.54,30.54,0,0,0-2.32-2.38c-.35,1.41.37,4.81,0,6.34a1.85,1.85,0,0,1-2.22,1.32c-.66-.11-1.11-1.08-1.19-2.22-.17-2.43-.13-5,0-8.5.07-2.17-.28-6.51.51-8.43.63-1.06,2.28-1.33,2.76-.38.61,1.19-.22,4.75-.26,6.45C105,93.53,106.69,90.74,108.56,89.55Z"/><text class="cls-12" transform="matrix(1.05, -0.01, 0.01, 1, 44.37, 88.5)">THE</text><text class="cls-13" transform="matrix(1.05, -0.01, 0.01, 1, 106.64, 115.38)">B<tspan class="cls-14" x="3.35" y="0">ANK</tspan></text><path class="cls-11" d="M64.39,146.57c.24-1.35,1.88-2.75,2.85-4.46,1.28-2.22,1.61-5.27,2.22-7.88C70,132,72,131,74.87,131c3.18,0,5.41,3.88,6.67,7.26.86,2.3,2.88,1.17,4.15,2.93,1.77,2.45,1.35,3.5,1.27,5.46-.08,2.35-2.51,4.93-2.72,5.1C79.6,155.52,71,154.7,66.77,151,66.11,150.4,64,148.58,64.39,146.57Z"/><polygon class="cls-3" points="65.04 40.91 58.1 40.65 58.08 42.64 65.17 42.91 65.24 40.93 65.04 40.91"/><polygon class="cls-3" points="59.92 51.69 51.33 51.3 51.35 53.4 59.83 53.71 59.92 51.69 59.92 51.69"/><polygon class="cls-3" points="63.14 49.16 62.84 56.18 64.93 56.23 65.22 49.07 63.15 48.97 63.14 49.16"/><polygon class="cls-1" points="61.35 47.82 61.01 56.09 62.61 56.18 62.88 47.67 61.36 47.65 61.35 47.82"/><polygon class="cls-7" points="65.36 48.6 66.85 56.37 68.44 56.11 66.82 48.13 65.33 48.44 65.36 48.6"/><polygon class="cls-7" points="60.46 53.92 51.35 53.6 51.14 55.61 60.74 56.14 60.71 53.94 60.46 53.92"/><polygon class="cls-3" points="97.21 55.43 97.46 48.78 95.37 48.79 95.13 55.57 97.2 55.62 97.21 55.43"/><polygon class="cls-3" points="90.96 55.92 90.44 47.26 88.84 47.33 89.42 55.88 90.96 55.92 90.96 55.92"/><polygon class="cls-1" points="98.51 52.54 106.65 51.81 106.52 50.28 98.15 51.1 98.34 52.55 98.51 52.54"/><polygon class="cls-3" points="110.02 54.75 109.76 47.73 107.67 47.84 107.95 54.99 110.02 54.95 110.02 54.75"/><polygon class="cls-6" points="85.79 55.97 85.23 47.32 82.83 47.41 83.48 55.96 85.79 55.97 85.79 55.97"/><polygon class="cls-1" points="72.69 56.09 72.51 47.81 70.91 47.81 71.17 56.32 72.69 56.25 72.69 56.09"/><polygon class="cls-1" points="116.92 53.27 111.16 47.11 109.94 48.11 115.93 54.4 117.04 53.4 116.92 53.27"/><polygon class="cls-7" points="93.35 55.68 92.8 48.12 90.71 48.23 91.28 55.94 93.36 55.89 93.35 55.68"/><polygon class="cls-3" points="73.25 56.28 82.41 56.01 82.39 54.06 73.03 54.29 73 56.3 73.25 56.28"/><polygon class="cls-3" points="98.27 55.29 106.83 54.4 106.46 52.34 98.04 53.28 98.27 55.29 98.27 55.29"/><polygon class="cls-3" points="88.95 55.6 88.11 48.62 86.04 48.88 86.91 56 88.97 55.79 88.95 55.6"/><polygon class="cls-1" points="95.32 55.47 94.33 47.25 92.73 47.4 93.83 55.84 95.34 55.63 95.32 55.47"/><polygon class="cls-3" points="70.64 56.1 70.76 48.19 69.16 48.16 69.12 56.29 70.64 56.26 70.64 56.1"/><polygon class="cls-7" points="73.06 54.03 82.92 53.91 82.9 52.37 73 52.56 73.06 54.03 73.06 54.03"/><path class="cls-8" d="M95.36,132a2.87,2.87,0,0,0,.21-3.59,2.94,2.94,0,0,0-2.5-1.23,2.9,2.9,0,0,0-2.76,3c.22,1.4,1.87,2.05,2.08,2.13A3,3,0,0,0,95.36,132Z"/><path class="cls-10" d="M91.57,129.56a.86.86,0,0,0,.13-1.24.8.8,0,0,0-1,0,.87.87,0,0,0-.27,1.16A.82.82,0,0,0,91.57,129.56Z"/><path class="cls-10" d="M88.27,137.53c.62-.38,1.35.58,2.75.4,1.17-.15,1.71-1,2-.75s0,1.45-.89,2.2c-1.09,1-3.18,1.29-4,.34A1.65,1.65,0,0,1,88.27,137.53Z"/><polygon class="cls-3" points="94.35 62.19 87.41 62.66 87.63 64.64 94.7 64.16 94.54 62.19 94.35 62.19"/><polygon class="cls-3" points="86.81 42.24 78.47 42.14 78.43 44.43 86.91 44.44 86.81 42.24 86.81 42.24"/><polygon class="cls-3" points="85.81 39.78 78.47 39.57 78.44 41.57 85.92 41.78 86.01 39.8 85.81 39.78"/><polygon class="cls-6" points="75.13 42.27 66.31 42.39 66.29 44.68 75.24 44.48 75.13 42.27 75.13 42.27"/><polygon class="cls-1" points="65.61 43.24 56.96 43.01 56.88 44.54 65.78 44.7 65.78 43.24 65.61 43.24"/><polygon class="cls-7" points="94.76 64.56 86.85 65 86.94 67 95 66.55 94.98 64.56 94.76 64.56"/><polygon class="cls-3" points="72.77 41.76 73.09 35.11 71 35.09 70.69 41.87 72.75 41.94 72.77 41.76"/><polygon class="cls-3" points="75.22 41.91 75.55 33.69 73.35 33.73 73.11 41.85 75.22 41.91 75.22 41.91"/><polygon class="cls-3" points="79.69 60.49 72.35 60.87 72.5 62.87 79.97 62.47 79.89 60.49 79.69 60.49"/><polygon class="cls-1" points="80.93 65.98 69.77 66.41 69.86 67.67 81.12 67.16 81.15 65.97 80.93 65.98"/><polygon class="cls-7" points="69.44 36.55 65.65 41.44 66.98 42.28 70.81 37.21 69.52 36.45 69.44 36.55"/><polygon class="cls-7" points="78 44.35 78.25 35.63 76.15 35.45 75.68 44.64 77.99 44.59 78 44.35"/><polygon class="cls-3" points="43.37 64.92 50.24 63.84 49.83 61.89 42.83 63 43.18 64.95 43.37 64.92"/><polygon class="cls-3" points="55.48 67.51 59.09 59.71 57.63 59.08 54.12 66.81 55.48 67.51 55.48 67.51"/><polygon class="cls-1" points="39.93 58.4 40.77 66.18 42.36 66.03 41.42 58.04 39.92 58.24 39.93 58.4"/><polygon class="cls-3" points="32.53 65.35 39.82 66.2 40.04 64.21 32.61 63.35 32.33 65.32 32.53 65.35"/><polygon class="cls-6" points="60.2 67.65 63.63 60.43 62.01 59.56 58.69 66.74 60.2 67.65 60.2 67.65"/><polygon class="cls-1" points="66.01 59.37 65.9 67.64 67.51 67.69 67.54 59.18 66.01 59.2 66.01 59.37"/><polygon class="cls-1" points="29.68 64.39 36.06 58.8 35.01 57.65 28.49 63.45 29.55 64.5 29.68 64.39"/><polygon class="cls-7" points="53.65 67.15 56.5 60.07 54.55 59.33 51.65 66.55 53.56 67.34 53.65 67.15"/><polygon class="cls-3" points="83.53 58.96 83.76 67.21 85.8 67.14 85.6 58.71 83.51 58.74 83.53 58.96"/><polygon class="cls-3" points="64.06 59.31 61.98 67.28 63.83 67.66 65.82 59.78 64.06 59.31 64.06 59.31"/><polygon class="cls-3" points="58.22 67.34 61.06 60.86 59.12 60.11 56.24 66.73 58.14 67.51 58.22 67.34"/><polygon class="cls-1" points="43.29 66.63 51.87 65.58 51.7 64.05 42.88 65.21 43.12 66.65 43.29 66.63"/><polygon class="cls-3" points="67.89 59.79 67.64 67.69 69.25 67.75 69.42 59.62 67.89 59.63 67.89 59.79"/><polygon class="cls-7" points="81.42 58.8 81.48 67.11 83.09 67.05 82.95 58.7 81.42 58.8 81.42 58.8"/><polygon class="cls-1" points="80.91 64.35 69.75 64.78 69.84 66.04 81.1 65.54 81.13 64.34 80.91 64.35"/><polygon class="cls-1" points="80.97 62.77 69.8 63.2 69.89 64.45 81.16 63.95 81.19 62.76 80.97 62.77"/><line class="cls-15" x1="0.11" y1="180.49" x2="0.11" y2="173.98"/><path class="cls-10" d="M30.38,144.61a1.1,1.1,0,0,1,.72.6,1,1,0,0,1-.36,1.26,1.06,1.06,0,0,1-1.32-.3,1.07,1.07,0,0,1,.06-1.44A1,1,0,0,1,30.38,144.61Z"/><path class="cls-9" d="M55.49,147c-.3.76,1.91,2.13,4.37,4.21,1.22,1,7.29,6.15,6.46,7.92-.91,1.93-9.39-1.65-10.66.64-.94,1.69,2.16,6.23,5.81,8.74,1.75,1.2,3.34,1.74,3.24,2.42-.16.94-3.37,1.17-5.34,1.29-6.88.45-9.87-.93-10.5.17-.92,1.6,5.24,4.89,6.46,12,.16.9.73,4.19-.64,5-2.37,1.42-8.56-5.67-9.7-4.69-.66.56,1.21,3.08,1.94,8.08.24,1.68.61,4.22-.19,4.59a.48.48,0,0,1-.2,0c-1.66,0-5.2-7.94-8.52-7.39-3.11.51-3.6,8-5.48,8h0c-2.24-.07-2.76-10.59-5.28-10.78-2.31-.18-3.82,8.49-5.89,8.49h-.07c-1.64-.16-3.26-5.79-2.3-11,.8-4.36,3.14-7.1,2.52-7.57s-4.76,3.39-5,3.67c-4.77,4.79-5.77,8.31-6.88,8-1.35-.33-2-6-.23-11.25,1.92-5.64,5.84-8.33,5-9.4s-3.85,1.11-9.86,1.83a30.89,30.89,0,0,1-4.42.24v-3.46A17.74,17.74,0,0,0,4.3,163.4c.49-.55,3.48-3.88,2.53-5.5-.29-.49-.94-.85-3.45-.92a25.81,25.81,0,0,0-3.27.1v-4.79a13.84,13.84,0,0,1,4.19-1.51c1.85-.33,3.41-.17,3.9-1.15.6-1.2-.65-3.63-2.52-4.59s-3.61,0-5.57.85V135.13a1.91,1.91,0,0,0,1-.88c.34-.76-.13-1.76-1-2.9V121.4a17.34,17.34,0,0,1,1.9.69c4,1.73,6.3,4.62,6.88,4.13.81-.68-4-6-2.53-8,1-1.37,4.83-.93,7.35.69,1.87,1.21,2.49,2.72,3,2.52,1.17-.48-2.27-9.25-.69-10.1,1.1-.59,4.21,2.91,6,5.28,3.51,4.75,4.7,9.18,4.93,9.11.49-.16-5.9-20.67-4.2-21.35,1.16-.46,5,8.74,7.59,8.09s1.41-10.61,3.41-11c1.64-.27,4.1,6.07,5.16,10.3.84,3.39,1.6,6.42.64,10s-3.11,5.73-2.42,6.47,2.58-.8,5.66-1.62c3.52-.93,5.76-.29,9.21,0,9.64.8,15.35-2.3,16-.81.84,2-8.8,7.5-7.92,9.22.61,1.18,5.49-1,6.78.81,1.2,1.67-1.58,5.45-2.09,6.14-.71,1-2.84,3.85-6.31,4.53C56.77,146.87,55.7,146.53,55.49,147Z"/><path class="cls-16" d="M33,181.07c2.74-.35,3-4.31,7.51-13.15,6.29-12.22,10.38-13.42,10.32-19.72,0-4.73-2.42-11.65-8-13.14s-12,2.91-13.14,7c-.28,1-.43,2.81-.79,2.82s-.52-1.65-.83-2.72c-1.1-3.77-5.91-7.19-9.68-6.9-5.27.41-9.35,8.16-9.08,14.47.22,4.87,2.92,6.07,12.17,18.41C28.8,177.86,30.36,181.41,33,181.07Z"/><path class="cls-8" d="M29.65,142.54c.82-1.25,3.28-1.68,5.14-.66A4.36,4.36,0,0,1,37,146.22c-.21,1.71-1.48,3.4-2.89,3.54C31.45,150,28.22,144.73,29.65,142.54Z"/><path class="cls-8" d="M24.89,144.1c.81-1.25,3.27-1.68,5.13-.66a4.13,4.13,0,0,1,1.2,1,4.51,4.51,0,0,1,1,3.35c-.21,1.71-1.51,3.41-2.9,3.55C26.69,151.59,23.46,146.29,24.89,144.1Z"/><path class="cls-10" d="M34.18,142.2a1.79,1.79,0,0,1,1.15,1,1.65,1.65,0,0,1-.58,2,1.68,1.68,0,0,1-2.11-.48,1.71,1.71,0,0,1,.1-2.29A1.62,1.62,0,0,1,34.18,142.2Z"/><path class="cls-17" d="M39,155.63c-.59-.25-2.53,1.76-4.93,2.14-3,.47-5.58-3.69-6.34-3.11-.4.29.11,1.56,1.07,4,1.48,3.65,2.32,4.2,2.76,4.43a4.09,4.09,0,0,0,2.75.36C38.05,162.43,39.93,156,39,155.63Z"/><path class="cls-6" d="M46.63,159c1,1.22,1.48,5.83,2.33,7.94,1.37,3.37,11.89,8.51,18.91,8.68,2.71.06,4.88-2.36,6.48-1.24,1.2.84,1.38,2.77,1,4.06-.7,2.65-4,4.16-6.29,3.66-1.76-.37-1.89-1.69-4.25-2.94a12,12,0,0,0-5.41-1.21c-5.16-.39-11.8-3.06-15.57-7.54-.5-.6-3.19-4.87-2.78-8C41.51,159,45.25,157.36,46.63,159Z"/><path class="cls-6" d="M22.39,166.36h0l0,.37a4.59,4.59,0,0,1-.28,1.25c-.78,2-2.89,2.85-5.3,6.13a27.65,27.65,0,0,0-3.53,7.13,17.73,17.73,0,0,0-.65,9.22c0,.15.08.31.11.46,1,3.76,3,4.82,2.76,7.38H5.94l.28-.27c1.32-1.33,1.48-3,1.22-5s-.91-4.48-1.25-7.4a27.22,27.22,0,0,1-.16-5.1c0-.46.06-.91.11-1.34.81-7.17,4.48-11.77,8.65-17a12,12,0,0,1,1.48-1.58h0a3,3,0,0,1,2.11-.81,4.22,4.22,0,0,1,2.92,2.34A8.19,8.19,0,0,1,22.39,166.36Z"/><path class="cls-6" d="M50.37,194.24a16.29,16.29,0,0,1-1.2,3.69c-.06.13-.11.25-.17.37H43.41c0-.49,0-1,0-1.42a26.1,26.1,0,0,0-.63-5.63,25,25,0,0,0-2.17-5.59,9.11,9.11,0,0,1-1-5.17c.08-.9.38-4.23,1.79-4.59,1.89-.47,6.25,4.21,8.21,10.1a20,20,0,0,1,.87,3.84A14.43,14.43,0,0,1,50.37,194.24Z"/><path class="cls-6" d="M28.74,134.83c-.58.46-2.18-2.33-5.78-3.39a11,11,0,0,0-3.65-.4,12.17,12.17,0,0,0-7.91,3.39c-1.84,1.87-1.71,3.28-2.57,4.55a4.24,4.24,0,0,1-1,1c-2.18,1.62-5.29,1.48-7.82.84v-2.57a4.7,4.7,0,0,0,2.42-1.41,6.59,6.59,0,0,0,1-5.8c-.71-2.53-2.7-3.79-2.7-4.38a.2.2,0,0,1,0-.13c.36-.52,2.54.92,6.2,1.21,1.86.15,3.73.3,4.5-.73,1.3-1.72-1.65-5.35-.72-6.11.25-.22.75-.14,4.42,1.69,2.42,1.21,3.19,1.67,3.75,1.61a1.47,1.47,0,0,0,.28-.08c1.5-.69.73-4.3,1.6-4.51s1.94,2.41,3.54,5.63C27.63,132,29.29,134.39,28.74,134.83Z"/><path class="cls-6" d="M35.12,132.14c.14.45,3-.8,7-.16a11.55,11.55,0,0,1,6.18,2.5c2.37,2.09,1.76,3.86,4.18,5.35a7.48,7.48,0,0,0,4.68,1c2.41-.27,4.49-1.71,4.34-2.18-.2-.63-4.26,1.35-7.18-.66a4.7,4.7,0,0,1-2.18-3.85c.29-3.3,6.3-4.82,6-5.69-.2-.61-3.2.27-8,.51s-6-.49-9.36.33S35,131.7,35.12,132.14Z"/><path class="cls-6" d="M20.24,139.83a5.33,5.33,0,0,0-3,2.18c-.5.6-4.19,5.15-2.51,9.53a5.4,5.4,0,0,0,2.51,3c.63.32,2.06.85,2.5.33.71-.81-2.21-2.91-2.34-6.35a7.19,7.19,0,0,1,3.18-6.19c1.87-1.09,3.75-.48,3.84-1S22.33,139.41,20.24,139.83Z"/><path class="cls-6" d="M35.18,198.43H29.06c.44-2.17.88-4.69,1.39-7.64.75-4.33.9-6.73,1.59-6.78.93-.07,2.08,4.14,2.6,7.17A41.54,41.54,0,0,1,35.18,198.43Z"/><path class="cls-10" d="M29.5,144a1.75,1.75,0,0,1,1.14,1,1.62,1.62,0,0,1-.57,2,1.69,1.69,0,0,1-2.11-.47,1.72,1.72,0,0,1,.1-2.3A1.69,1.69,0,0,1,29.5,144Z"/></g></g></svg>