<svg xmlns="http://www.w3.org/2000/svg" viewBox="0 0 1144.47 1120.29"><defs><style>.cls-1{fill:#fcd248;}.cls-2{fill:#97bb45;}.cls-3{fill:#4ea3ba;}.cls-4{fill:#d46d5c;}.cls-5{fill:#909da2;}</style></defs><g id="Layer_2" data-name="Layer 2"><g id="Layer_1-2" data-name="Layer 1"><path class="cls-1" d="M159.68,121.13c26-24.3,118.69-105,255.17-119.08C553.55-12.29,658.2,50.3,800.44,138.14,982.83,250.78,1074,307.1,1118,416c85.35,211.44-41,538-300.53,657.77-280.19,129.31-622.07-25.6-754.17-283.52C-49.13,570.75-8.63,278.57,159.68,121.13Z"/><path class="cls-2" d="M681.36,192.38C823.89,265.05,960.68,334.8,993.23,476.75c40.54,176.75-97.52,391.48-266.51,467.63-202.14,91.1-487,1.23-572.71-246.45-82.15-237.39,51.75-524,221.15-581.39C469.79,84.5,558.55,129.76,681.36,192.38Z"/><path class="cls-3" d="M363.82,287.17c36.59-8.84,66.47-1.8,124.75,12.64,239.11,59.24,255.69,67.29,277.85,88.47,12.66,12.1,76.75,73.36,85.05,170.62,9.82,115-63.58,219.39-141.76,265.41C575.64,903.24,417,816.75,335.46,729.52,264.76,653.86,179.2,499.59,233.4,388.28,271,311,359.65,288.17,363.82,287.17Z"/><path class="cls-4" d="M596.3,697.93c32.61-7,103.63-22.33,124.75-82.16,21.83-61.84-24.44-129.39-39.69-151.66C636.36,398.4,532.79,314,443.2,363c-49.2,26.93-86.28,89.78-85.05,158,1.79,100.09,85,151,96.39,158C514.36,715.58,573.14,702.92,596.3,697.93Z"/><path class="cls-5" d="M454.54,470.43c9.23-12.12,39.42-47.71,85.06-50.56C606.78,415.68,677.35,484.3,670,539.94c-5.95,45.17-61.47,68.35-79.39,75.83-52.85,22.08-140.32,26.81-164.44-25.27C407.88,551,434.45,496.81,454.54,470.43Z"/></g></g></svg>