<svg xmlns="http://www.w3.org/2000/svg" viewBox="0 0 1324.61 1211.94"><defs><style>.cls-1{fill:#327c8e;}.cls-2{fill:#acc867;}.cls-3{fill:#c0d68c;}.cls-4{fill:#4ea3ba;}.cls-5{fill:#1a5d68;}.cls-6{fill:#97bb45;}</style></defs><g id="Layer_2" data-name="Layer 2"><g id="Layer_1-2" data-name="Layer 1"><path class="cls-1" d="M1073.4,347.81a342.25,342.25,0,0,0-58-57.28c-91.61-70.72-204.65-80-214.53-150.18-3.56-25.27,6.6-55.93,27.58-70.49,36.5-25.34,101.32,1.13,159.46,36s109.58,78.18,119.43,86.57c19.52,16.64,107.89,93.94,183.61,206-21.15-62.82-52.35-122.45-93.84-175.71-57-73.16-127.39-126.63-204.91-162.82C804.59-27.63,575.2-14,393,66.7a688,688,0,0,0-112.92,62.93c-6.51,4.5-34.26,24.24-69.94,57.31A782.69,782.69,0,0,0,115.34,292C50.55,378.83-6.8,497,.66,638.3,10.45,823.85,128.28,979.45,285,1081.55c95,62,204.4,104.21,312.61,121.54a698,698,0,0,0,83.69,8.36,733.32,733.32,0,0,0,180.58-16c62.51-13.57,132.35-37.77,199.12-80.29a335,335,0,0,0-51.76-74.88c50.14-63.29,110.89-154.63,142.32-260.61,18.35-61.89,26.7-128.77,17.1-198C1165.52,559.22,1149.36,442.73,1073.4,347.81ZM623,1108.53c-64.56-3.82-137.11-18.85-208-54.1a483.69,483.69,0,0,1-101.32-67.3c-101.53-87.7-144.86-198.56-167.22-255.79-12.46-31.9-66.69-170.65-21-205.61,18.42-14.08,50.4-9.27,71.33,4.2,47.21,30.38,33.59,101.78,46.16,167.84,12.17,63.94,47.92,117.86,91.54,162,77.5,78.46,179.85,126.09,219,144.29a629.58,629.58,0,0,0,107.89,38.71c104.45,27.11,177.67,17.94,177.44,28.42C838.51,1083,745,1115.78,623,1108.53Z"/><path class="cls-2" d="M146.43,731.34c22.36,57.23,65.69,168.09,167.22,255.79A785.24,785.24,0,0,1,285,1081.55C128.28,979.45,10.45,823.85.66,638.3-6.8,497,50.55,378.83,115.34,292,162.43,339.26,205.17,393,237.08,444.86,329.43,594.81,336.41,737,337.39,774.42a750.34,750.34,0,0,1-2.91,85.37c-43.62-44.16-79.37-98.08-91.54-162-12.57-66.06,1.05-137.46-46.16-167.84-20.93-13.47-52.91-18.28-71.33-4.2C79.74,560.69,134,699.44,146.43,731.34Z"/><path class="cls-2" d="M1168.64,581.68c9.6,69.21,1.25,136.09-17.1,198q-15.91-3.12-33.24-5.24c-98.65-12-172.07,9.54-200.6-35.82-22.8-36.25-8.09-101.19,28.66-129,49.08-37.09,121.46,4.28,136.12-21.49,15-26.32-62.67-65.7-64.48-136.13-1.23-48,33.8-73,55.4-104.21C1149.36,442.73,1165.52,559.22,1168.64,581.68Z"/><path class="cls-2" d="M987.91,105.88a214.26,214.26,0,0,1,4.29-45.94c77.52,36.19,147.92,89.66,204.91,162.82C1238.6,276,1269.8,335.65,1291,398.47c-75.72-112.08-164.09-189.38-183.61-206C1097.49,184.06,1046,140.76,987.91,105.88Z"/><path class="cls-2" d="M1061,1115.15c-66.77,42.52-136.61,66.72-199.12,80.29a733.32,733.32,0,0,1-180.58,16,698,698,0,0,1-83.69-8.36c3.18-30.8,11.81-63.4,25.4-94.56,122,7.25,215.52-25.5,215.78-37.32.23-10.48-73-1.31-177.44-28.42,34.9-45.88,82.92-80.81,141.74-89.26,79.57-11.42,153.6,29.26,206.15,86.74A335,335,0,0,1,1061,1115.15Z"/><path class="cls-2" d="M724.26,301.57c-6.21,83.06-98.69,138.68-171.94,143.29-75.38,4.74-127.92-44.68-222.1-136.12C288,267.74,246,227,210.13,186.94c35.68-33.07,63.43-52.81,69.94-57.31A688,688,0,0,1,393,66.7c20.76,36.22,47.49,65.91,87.68,77.25,56.3,15.89,83.05-20,143.29,7.17C676,174.6,729.28,234.42,724.26,301.57Z"/><path class="cls-3" d="M334.48,859.79a894.89,894.89,0,0,1-20.83,127.34c-101.53-87.7-144.86-198.56-167.22-255.79-12.46-31.9-66.69-170.65-21-205.61,18.42-14.08,50.4-9.27,71.33,4.2,47.21,30.38,33.59,101.78,46.16,167.84C255.11,761.71,290.86,815.63,334.48,859.79Z"/><path class="cls-4" d="M661.33,1042.79A320.46,320.46,0,0,0,623,1108.53c-64.56-3.82-137.11-18.85-208-54.1a483.69,483.69,0,0,1-101.32-67.3,894.89,894.89,0,0,0,20.83-127.34c77.5,78.46,179.85,126.09,219,144.29A629.58,629.58,0,0,0,661.33,1042.79Z"/><path class="cls-3" d="M838.77,1071.21C838.51,1083,745,1115.78,623,1108.53a320.46,320.46,0,0,1,38.34-65.74C765.78,1069.9,839,1060.73,838.77,1071.21Z"/><path class="cls-4" d="M392.75,565.61c-39.34,45.34-32.11,116.5-31,127.75,6.15,60.49,39.29,100,65.82,131.63,14.35,17.12,46,54.08,100.65,81.3,38.2,19,111.4,55.48,182,23.23,58.06-26.55,80.25-84.06,85.17-96.79,37.69-97.69-22.26-190.21-27.1-197.44C684.5,510.38,466.73,480.34,392.75,565.61Z"/><path class="cls-5" d="M1285.4,830.77c-26.14,71.66-65.25,138.13-117,194.41a536.9,536.9,0,0,1-107.47,90,335,335,0,0,0-51.76-74.88c50.14-63.29,110.89-154.63,142.32-260.61A412.64,412.64,0,0,1,1285.4,830.77Z"/><path class="cls-6" d="M1285.4,830.77a412.64,412.64,0,0,0-133.86-51.11c18.35-61.89,26.7-128.77,17.1-198-3.12-22.46-19.28-138.95-95.24-233.87,10.51-15.19,17.84-31.87,16.25-53.4-4.37-59-69.09-65.31-93.14-136.12a172.82,172.82,0,0,1-8.6-52.41c58.13,34.88,109.58,78.18,119.43,86.57,19.52,16.64,107.89,93.94,183.61,206C1338,538.29,1335.33,694,1285.4,830.77Z"/><path class="cls-5" d="M1073.4,347.81a342.25,342.25,0,0,0-58-57.28c-91.61-70.72-204.65-80-214.53-150.18-3.56-25.27,6.6-55.93,27.58-70.49,36.5-25.34,101.32,1.13,159.46,36a172.82,172.82,0,0,0,8.6,52.41c24,70.81,88.77,77.12,93.14,136.12C1091.24,315.94,1083.91,332.62,1073.4,347.81Z"/><path class="cls-6" d="M1061,1115.15c-66.77,42.52-136.61,66.72-199.12,80.29,22.91-20.62,50.87-46.09,80-77.43,14.39-15.48,39.2-42.19,67.37-77.74A335,335,0,0,1,1061,1115.15Z"/></g></g></svg>