<svg xmlns="http://www.w3.org/2000/svg" viewBox="0 0 560.38 1177.54"><defs><style>.cls-1{fill:#f4dbd6;}.cls-2{fill:#de9284;}.cls-3{fill:none;}.cls-4{fill:#143138;}</style></defs><g id="Layer_2" data-name="Layer 2"><g id="Layer_1-2" data-name="Layer 1"><path class="cls-1" d="M283.38,754.78h0c-51.54-16.3-107.07-17.12-161.06-12.48-22.76,2-45.55,4.88-67.47,11.28a214.22,214.22,0,0,0-51.78,23,178.81,178.81,0,0,1,24.42-59.46c5-.67,10.08-1.26,15.12-1.8,42.8-4.57,86.21-5.36,128.77,1.1C210.63,722.4,249.2,734.67,283.38,754.78Z"/><path class="cls-2" d="M288.2,756.36l-2.18-.73c-18.32-25.29-37.74-49.94-60.23-71.47a166.4,166.4,0,0,1,23.58,20.32c10.66,11.12,18.25,15.7,27,28.65A111.17,111.17,0,0,1,288.2,756.36Z"/><path class="cls-1" d="M290.06,761.25c-.15-.21-.3-.43-.46-.64l-1.48-2.07h0l-1.08-.24c-2.95-.63-5.92-1.16-8.91-1.61,2.61.06,5.22.23,7.81.54-.84-.82-1.67-1.62-2.53-2.43.88.27,1.75.55,2.62.84l2.18.73.47,1.22.18.5h0c.09.23.18.45.26.67l.69,1.84C289.89,760.82,290,761,290.06,761.25Z"/><path class="cls-2" d="M282,765.28c-16.74,5.94-31.21,17.89-42.43,31.85-13.27,16.52-22.53,35.81-31.68,54.92-7.44,15.55-14.91,31.17-20.14,47.6-9.29,29.21-11.26,60.17-12.63,90.79q-.27,6-.5,11.92-7-4.44-14.7-9c-8-4.73-15.37-9.09-22.19-13.14-7.36-4.37-14.07-8.39-20.23-12.13-11-6.66-20.23-12.46-28.26-17.88a404.3,404.3,0,0,1,93.55-134.45C210.4,789.72,244.41,766.67,282,765.28Z"/><path class="cls-1" d="M253.74,961.73c.46,39.1,2.84,78.12,6.43,117-12.84-18.09-36.38-45.14-85.53-76.42q.23-6,.5-11.92c1.37-30.62,3.34-61.58,12.63-90.79,5.23-16.43,12.7-32,20.14-47.6,9.15-19.11,18.41-38.4,31.68-54.92,11.22-14,25.69-25.91,42.43-31.85a70.41,70.41,0,0,1,8.23-2.37q1.89,3.52,3.73,7.08C258.7,826,253,895.5,253.74,961.73Z"/><path class="cls-2" d="M326,1145.85a231.52,231.52,0,0,1-13.46,31.32c-3.5-2-8.06-12.17-13.85-25.58s-12.83-30.23-21.21-45.36c-2.09-3.77-4.26-7.44-6.52-10.93-2.61-4-5.94-9.62-10.82-16.5v0c-3.59-38.93-6-77.95-6.43-117C253,895.5,258.7,826,294,770,353.38,885,369.47,1024,326,1145.85Z"/><path class="cls-1" d="M406.07,1032.07c-18.88,28.34-29.35,47.27-44.91,70.38-23.4,34.75-39.18,75.23-47.4,75.09a2.45,2.45,0,0,1-1.18-.37A231.52,231.52,0,0,0,326,1145.85C369.47,1024,353.38,885,294,770q-1.85-3.56-3.73-7.08l.45-.1c.64,1.45,1.17,2.26,1.71,2.28,1.68.08,2-.47,3.13-3,3,1.13,6,2.32,9.06,3.54,29.65,24.11,49.65,58.75,65.79,93.68,11.83,25.61,22.12,52,28.61,79.49A303.32,303.32,0,0,1,406.07,1032.07Z"/><path class="cls-2" d="M555.71,789a227.65,227.65,0,0,1-8,25.75,312.41,312.41,0,0,1-14.61,32.91q-5.26,10.29-11.29,20.62a292.62,292.62,0,0,0-18.31-26.07c-8.29-10.6-17.23-20.83-27.84-29.12-22.31-17.42-50.47-25.16-77.85-32.38-32.14-8.48-64.65-16.83-97.79-18.64-1.06-.8-2.13-1.59-3.21-2.36,72.68-24,154.21-20.22,224.32,10.53A223.31,223.31,0,0,1,555.71,789Z"/><path class="cls-1" d="M304.6,765.6c-3-1.22-6-2.41-9.06-3.54a2.14,2.14,0,0,1,.1-.22l.88-2a2.72,2.72,0,0,0,.11-.25l.21.14c1.08.77,2.15,1.56,3.21,2.36C301.6,763.2,303.11,764.39,304.6,765.6Z"/><path class="cls-2" d="M559,739.2A248.46,248.46,0,0,0,480.89,718c-63.08-6.43-127.29,10.27-182.75,41l2.77-3,31.24-18.53c23-13.65,46.17-27.36,71.12-37,41-15.86,86.28-19.93,129.54-12.43.46.46.92.93,1.37,1.4A92.64,92.64,0,0,1,554,720.83,96.48,96.48,0,0,1,559,739.2Z"/><path class="cls-2" d="M396.72,675c-37.53,18.48-67.33,49.85-95.81,80.89l-3.58,2.12c2.26-4.83,6.48-12.8,15.54-25.84,3.67-5.29,15-17.38,33.09-30.41C360.51,691.33,375.6,681.86,396.72,675Z"/><path class="cls-1" d="M532.81,687.94c-43.26-7.5-88.57-3.43-129.54,12.43-24.95,9.67-48.1,23.38-71.12,37l-31.24,18.53c28.48-31,58.28-62.41,95.81-80.89h0c19.62-6.33,44.46-10.38,78.9-10.8C497.86,664,517.84,673.09,532.81,687.94Z"/><path class="cls-3" d="M298.14,759l-.2.22"/><path class="cls-3" d="M297.33,758.05l-.59.35"/><path class="cls-1" d="M559.7,767.09a182.32,182.32,0,0,1-4,21.89,223.31,223.31,0,0,0-34.55-18.76c-70.11-30.75-151.64-34.55-224.32-10.53l-.21-.14c.22-.46.45-1,.7-1.5l3.58-2.12-2.77,3c55.46-30.73,119.67-47.43,182.75-41A248.46,248.46,0,0,1,559,739.2h0A98.59,98.59,0,0,1,559.7,767.09Z"/><path class="cls-3" d="M298.14,759,298,759"/><path class="cls-3" d="M296.84,759.69l-.32.11-2.21.74"/><path class="cls-1" d="M521.84,868.26C506,895.53,486.4,923,465.34,950.63c-4.47-14.44-9.69-28.65-15.33-42.51C444.68,895,439,882.06,431.9,869.81c-27.88-48.41-75.41-83-127.3-104.21-1.49-1.21-3-2.4-4.55-3.55,33.14,1.81,65.65,10.16,97.79,18.64,27.38,7.22,55.54,15,77.85,32.38,10.61,8.29,19.55,18.52,27.84,29.12A292.62,292.62,0,0,1,521.84,868.26Z"/><path class="cls-3" d="M300.05,762.05q-2.21-.13-4.41-.21l-.75,0h0c-.87,0-1.73-.06-2.6-.08"/><path class="cls-3" d="M296.63,759.55l-1.37-1"/><path class="cls-2" d="M465.34,950.63q-2.73,3.58-5.49,7.16-4.08,5.3-7.88,10.29c-8.31,10.93-15.63,20.81-22.14,29.82-9.37,13-17.09,24.16-23.76,34.17a303.32,303.32,0,0,0-7.07-93.3c-6.49-27.45-16.78-53.88-28.61-79.49-16.14-34.93-36.14-69.57-65.79-93.68,51.89,21.16,99.42,55.8,127.3,104.21C439,882.06,444.68,895,450,908.12,455.65,922,460.87,936.19,465.34,950.63Z"/><path class="cls-3" d="M295.54,762.06l-.65-.24-.72-.27"/><path class="cls-1" d="M286,755.63c-.87-.29-1.74-.57-2.62-.84h0a323.44,323.44,0,0,0-158.79-81.86,318.71,318.71,0,0,0-45.86-5.58c28.61-14.85,60.6-15.12,93.73-7.57a150.45,150.45,0,0,1,53.33,24.39C248.28,705.69,267.7,730.34,286,755.63Z"/><path class="cls-3" d="M290.52,761.89l-.46-.64"/><path class="cls-3" d="M288.11,758.53l-.83-1.15c-.11-.16-.22-.31-.34-.46h0c-.29-.43-.61-.85-.91-1.28"/><path class="cls-3" d="M288.27,759.5,287,758.29l-1.1-1.07"/><path class="cls-2" d="M283.36,754.78c-32.27-18.32-67.65-31.23-112-38.33l-1.16-.18c-4.64-.73-9.33-1.33-14-1.83-38.33-4.12-78.46-1.47-113.57.91l-.34,0c-4.31.3-8.6.92-12.89,1.51l-.63.09-1.26.17h0a.91.91,0,0,1,.08-.13,178.82,178.82,0,0,1,11-15.55,130.78,130.78,0,0,1,29.69-27.9,107.37,107.37,0,0,1,10.47-6.21l2.88.15,2.89.18a321.86,321.86,0,0,1,37.25,4.7l2.84.55q9.72,1.91,19.29,4.42l2.74.73q4.08,1.13,8.15,2.34,2.72.83,5.4,1.68,5.39,1.73,10.71,3.64l2.66,1q8,2.94,15.75,6.3l2.59,1.13a326.3,326.3,0,0,1,35.17,18.14q8.52,5.07,16.7,10.64l2.33,1.6c2.32,1.62,4.63,3.26,6.91,4.93s4.54,3.38,6.77,5.11L262,736.3q5.55,4.4,10.91,9l2.13,1.86q1.8,1.59,3.57,3.19l1.2,1.09,2.59,2.41,1,.9Z"/><path class="cls-3" d="M283.4,754.79c1.19.69,2.36,1.4,3.53,2.12,0,0,0,0,0,0,.3.17.6.35.89.54l1,.62h0c.53.32,1,.65,1.57,1h0c.5.3,1,.61,1.47.93"/><path class="cls-3" d="M292.92,758c-1.57-.56-3.14-1.11-4.72-1.63"/><path class="cls-3" d="M291.58,759.37l-1.13-.28h0l-1.31-.32-1-.22"/><path class="cls-3" d="M285.93,757.22c.45,0,.9.1,1.35.16l.55.08q.42,0,.84.12,3.19.48,6.35,1.26"/><path class="cls-2" d="M285.93,757.22c-2.59-.31-5.2-.48-7.81-.54-7.94-1.19-16-1.8-24-2.27a710.27,710.27,0,0,0-71.19-.55,401.13,401.13,0,0,0-42,3.69A279.47,279.47,0,0,0,.84,821.71,145.15,145.15,0,0,1,3.07,776.6a214.22,214.22,0,0,1,51.78-23c21.92-6.4,44.71-9.32,67.47-11.28,54-4.64,109.52-3.82,161.06,12.48h0C284.26,755.6,285.09,756.4,285.93,757.22Z"/><path class="cls-1" d="M278.12,756.68a171.42,171.42,0,0,0-24.88,1.57,538.07,538.07,0,0,0-94,20C142.05,783.57,125,789.83,110,799.8c-12.45,8.31-23.13,19-33.09,30.19a396.54,396.54,0,0,0-45.78,63q-3.82-5.34-8-11.43A130.3,130.3,0,0,1,.84,821.71,279.47,279.47,0,0,1,141,757.55a401.13,401.13,0,0,1,42-3.69,710.27,710.27,0,0,1,71.19.55C262.15,754.88,270.18,755.49,278.12,756.68Z"/><path class="cls-3" d="M289.6,760.61h.2l1.56-.11"/><path class="cls-3" d="M286.94,765.22c-1.65,0-3.28,0-4.92.06"/><path class="cls-2" d="M289.6,760.61c-23,1.53-46.36,3.3-67.91,11.46-13,4.94-25.08,12.1-37.06,19.23-24.4,14.52-49.15,29.32-68.51,50.09C103.19,855.26,93,871.45,83.93,888.1a454.53,454.53,0,0,0-20.37,42.47c-3.91-3.51-7.58-7.11-11.15-11a225.12,225.12,0,0,1-15-18c-2-2.7-4.14-5.56-6.31-8.58A396.54,396.54,0,0,1,76.9,830c10-11.18,20.64-21.88,33.09-30.19,15-10,32.06-16.23,49.24-21.53a538.07,538.07,0,0,1,94-20,171.42,171.42,0,0,1,24.88-1.57c3,.45,6,1,8.91,1.61l1.08.24h0Z"/><path class="cls-3" d="M291.44,762.65l-.74.16"/><path class="cls-1" d="M290.7,762.81l-.45.1a70.41,70.41,0,0,0-8.23,2.37c-37.61,1.39-71.62,24.44-99.21,50.47A404.3,404.3,0,0,0,89.26,950.2a232.4,232.4,0,0,1-25.7-19.63A454.53,454.53,0,0,1,83.93,888.1c9.07-16.65,19.26-32.84,32.19-46.71,19.36-20.77,44.11-35.57,68.51-50.09,12-7.13,24-14.29,37.06-19.23,21.55-8.16,44.9-9.93,67.91-11.46.16.21.31.43.46.64C290.28,761.83,290.5,762.35,290.7,762.81Z"/><path class="cls-3" d="M290.25,762.91,289,760.67"/><path class="cls-3" d="M294.77,768.73c-.27.42-.53.84-.79,1.26"/><path class="cls-4" d="M252.7,589.29c1.76,1.25,3.82,2.19,4.53,4.53a2.77,2.77,0,0,0,.94,1.17c2.4,2,5.23,3.55,7.13,6.17.3.42,1.61.05,1.69-.45.35-2.13,1.05-4.31.86-6.39s.06-4,0-6c0-4.26-.56-8.28-2.66-11.94-.73-1.28-.5-2.61-1-3.85-.24-.62-.39-1.51.24-1.88,1-.55,1.5.36,2,1a9.19,9.19,0,0,0,1.5,2c3.4,2.44,4.61,6.1,5.62,9.85,1.71,6.28,3.27,12.59,5,18.87a5,5,0,0,1,.06,2.46c-.19.9,0,1.88.8,2.19,1.38.51,1.58-.91,2-1.69,1.49-3,2.58-6.27,4.35-9.1,3.87-6.19,5.17-13.54,9.21-19.63.19-.28.49-.59.48-.87-.16-4.92,3.11-8.76,4.15-13.32.48-2.12,1.19-4.21,1.5-6.38s.1-4.34,2.09-5.95c.52-.42.56-1.54.67-2.36a34.15,34.15,0,0,0,.27-8,5.37,5.37,0,0,1-.08-1.49c1.37-6.86.92-13.74-.06-20.57-.61-4.29-1.51-8.54-2.26-12.81a20.84,20.84,0,0,0-2.67-7.59c-2.95-4.65-7.48-6.33-12.7-6.61-.82,0-1.7.36-2.47-.1-2.35-1.4-5-1.91-7.53-2.87-4.16-1.58-4.51-2-8.16-7l.1.15c.55-1.06,1.27-1.49,1.88-1,.34.27.4.84.68,1.21a1.06,1.06,0,0,0,.77.39c.5-.05.55-.34.19-.68-.92-.89-.95-2.5-2.47-2.94-.84-.24-1.24-1-1.6-1.82a1.37,1.37,0,0,1,1.23-2.11,5.9,5.9,0,0,1,1.92.26,5.84,5.84,0,0,0,3.91.11c0,2.17.06,2.39,1.55,2.81a.9.9,0,0,0,.81-.29.84.84,0,0,0-.1-.83c-.76-.57-1.58-1.05-2.38-1.57a76.67,76.67,0,0,1-18-11.62,34,34,0,0,0-3.67-2.63c-.85-.54-1.79-.86-2-2.05a1.74,1.74,0,0,0-.9-1.14c-4.47-1.73-8-5.43-13-6.08a4,4,0,0,1-2.31-.84c-1.46-1.33-3.31-1.59-5.16-1.75-2.45-.2-4.57-.9-6.11-3-1.06-1.45-2.69-1.85-4.44-2a44.88,44.88,0,0,1-10.38-2c-1.85-.64-3.57.07-5.26.73-.31.12-.48,1.2-.9.23-.62-1.43-1.72-1.32-2.94-1.27-3.18.12-6.42-.21-9.33,1.54a14.53,14.53,0,0,0-10.7,3.31c-.67.51-1.95.29-2.95.31a5.86,5.86,0,0,0-3.81,1.07c-1.49,0-3,0-4.48-.15a1.44,1.44,0,0,1-1.44-1.17c-.14-1,.61-1.49,1.45-1.67,1.79-.39,3.59-.77,5.4-1,3.36-.42,6.34-1.95,9.46-3.06a1.34,1.34,0,0,0,.66-1.15c-.1-.36-.68-.69-1.12-.83a12.63,12.63,0,0,0-2-.26,1.26,1.26,0,0,1-.79-.6.71.71,0,0,0-.68-.3c-3.44-1.52-6.56-3.4-8.65-6.72-.8-1.25-2.14-2.14-3.14-3.28a13.41,13.41,0,0,1-2.78-3.58c-1.3-3.29-4.11-5.62-5.26-9a8.4,8.4,0,0,0-4-4.4c-2-1.14-4-2.57-4.85-5-.63-1.71-2.35-2.41-3.83-3.13a5.43,5.43,0,0,1-2.21-1.91,27.8,27.8,0,0,0-6.46-7.06c-2-1.44-2.88-4.14-5.27-5.32a1.25,1.25,0,0,1-.54-.82c-.47-2.77-2.74-4.64-3.57-7.24-.33-1-1.5-1.88-.7-3.21a1,1,0,0,0-.13-.92c-2.83-2.79-3.7-6.67-5.58-10a15.22,15.22,0,0,0-1.14-1.62.49.49,0,0,0-.43-.06c-.38.17-.51.63-.18.79a18.42,18.42,0,0,0,2.34.8l.9.32c-1.13,1.82.41,2.33,1.52,3s2.39,1.19,3.57,1.77c1.38-1.39-.44-2.93.52-4.4s-.21-2.88-.75-4.27a1.49,1.49,0,0,1-.12-1c1.13-2.78-.15-5.39-.81-7.92-.78-3-.5-5.88-.26-8.87a2.07,2.07,0,0,1,1.95,1.68,13.26,13.26,0,0,0,1.92,5,5.35,5.35,0,0,1,.89,3.37c-.51,5.14,1.05,10,2.24,14.88a10.46,10.46,0,0,1,.62,2.43c-.12,5.43,2.83,9.6,5.85,13.58,3.74,5,7.86,9.63,11.94,14.32a10,10,0,0,0,3.17,2.33,29.06,29.06,0,0,1,6.09,4.5,22.3,22.3,0,0,0,4.19,2.82c1.33.71,2.51,1.26,3,3,.47,1.61,2.25,2.41,3.8,3.14a10.8,10.8,0,0,1,5,4c1.61,2.72,4.38,2.86,7,3.08a23.28,23.28,0,0,1,5.64,1.39c4.74,1.59,9.45,3.33,14.6,3.66,3,.19,6,.83,9,1.19a9.73,9.73,0,0,1,3.34,1.1c2.23,1.18,4.58,2.05,6.87,3,2.09.91,4.14,2.18,6.25,3.21a25.2,25.2,0,0,0,7.63,2.43,22.81,22.81,0,0,1,3.4.92c3.05.91,5.45,3.5,8.87,3.43a47.22,47.22,0,0,0,8.2,3.86,12.5,12.5,0,0,1,2.08,1.38c2.22,1.49,4.25,3.25,6.95,4a9.38,9.38,0,0,1,2.95,1.89,100.62,100.62,0,0,0,16.29,10.63,19.84,19.84,0,0,1,3.75,2.55,12.57,12.57,0,0,0,4,2.11c2.66,1,4.76-.15,5.34-2.84a15.83,15.83,0,0,0,0-8,30.23,30.23,0,0,1-.83-5.49c-.52-4.47-1.4-8.89-2.29-13.3-.39-1.94-1.58-3.68-.52-5.79a2.73,2.73,0,0,0-.34-2,28.92,28.92,0,0,1-2.52-9.68,17.84,17.84,0,0,0-1.27-3.82c.05-.75.09-1.51.14-2.26l0,0a4,4,0,0,1,2.66,3.38,5.63,5.63,0,0,0,1.44,3.15,1.25,1.25,0,0,0,.84.43,1,1,0,0,0,1-.93,19.17,19.17,0,0,0-1.08-10.38l0-1.11-.45-1.62c-.26-4.7-.42-9.4-2.56-13.76a2.52,2.52,0,0,1-.06-2c1.08-2.29.13-4.41-.69-6.35s-1.06-4.26-2.8-5.84c-.42-.38-.42-1.24-.54-1.9-1-5.36-2.61-10.46-5.86-14.93a3.19,3.19,0,0,1-.52-.86c-1.65-5-5.44-8.28-9.16-11.79-2.49-2.35-5.54-3.61-8.12-5.7s-5.18-3.89-8.38-4.55c-1.93-.4-2-2.75-3.82-3.11-1.48-.29-3.22.24-4.42-.81-2.95-2.59-6.59-2.55-10-2.51a22.5,22.5,0,0,1-7.83-1.36,13.3,13.3,0,0,0-6.9-.8c-2.44.42-5-.25-7.45.83-.64.29-1.64-.13-2.45-.35-2.38-.66-4.65.52-7,.39a2.62,2.62,0,0,0-1.91,1.45c-1.1,2.84-3.58,4.76-4.71,7.67-.77-2.44-.79-2.44.24-6a1.07,1.07,0,0,0-.48-1.29c-.4-.2-1.15-.34-1.41-.12-3.17,2.71-7.52,3.67-10.2,7.23-1,1.38-2.17,3.14-4,3.68s-1.88,3.18-4,3.51c-1,.16-1.44,1.34-1.88,2.26-1.19,2.48-3.44,4-5.24,6a3.07,3.07,0,0,1-.48-3.15,12.53,12.53,0,0,0,1.37-3.76,4.79,4.79,0,0,1,2.27-3.21,16.06,16.06,0,0,0,4.84-5.07,10.73,10.73,0,0,1,2.69-3,52,52,0,0,0,10.15-10.42c-.52-3.7-3.87-4.74-6.56-6.09a7.75,7.75,0,0,1-2.88-2.53,1,1,0,0,1-.1-1.34,1.84,1.84,0,0,1,1.34-.6c2.43.54,5,.71,6.87,2.75.56.63,1.33,1.09,1.83,1.75,1.72,2.25,3.6,2.91,6.6,2.24a36.87,36.87,0,0,1,11.52-.79c3.29.32,6.74.52,10-.62.43-.15,1.14-.25,1.42,0,2.33,2,5.08.65,7.59,1.08a28.67,28.67,0,0,1,5.43,1.06,25,25,0,0,0,6.39,1.47c4.89.5,9.5,2.2,14.27,3.23a29.83,29.83,0,0,1,6.05,2.5c1.06.5,2,1.29,3.22,1.37,1,0,2.2,1.34,2.77.51.89-1.3,3.07-.77,3.31-2.66a2.07,2.07,0,0,0,0-.5,3.69,3.69,0,0,0-.14-1.31c-.16-.33-.69-.77-.95-.71-.94.22-.29,1-.35,1.48-1.52-.13-1.29-2.38-2.91-2.4a1.29,1.29,0,0,0-.48,0c-.06,0-.07.22-.1.35a2.83,2.83,0,0,0,.87,0,1.12,1.12,0,0,0,.74-1.59,13.08,13.08,0,0,0-1.57-2.58,4.53,4.53,0,0,1-1.27-2.13,3.47,3.47,0,0,1,3.16.26,17.15,17.15,0,0,0,2.75,1.21,1.45,1.45,0,0,0,1.93-1.1,10.7,10.7,0,0,0,.36-2.5c0-5.05.06-10.1-1.16-15.05-1.13-4.57-2.27-9.13-3.48-13.68a13.81,13.81,0,0,0-1.27-2.7C268,284,265,278.52,262.26,273c-1.49-3-2.6-6.22-3.9-9.33a16.79,16.79,0,0,0-1.51-3.17c-2.84-4.05-4.42-8.65-6-13.27-.33-.95-.73-1.88-1.15-2.79-1.41-3-2.69-6.14-3.89-9.28-1.72-4.51-3.31-9.16-6.11-13.2a2.11,2.11,0,0,1-.46-.89c-.31-5.08-4.5-8.09-6.51-12.25l-.17-.12-1.78-1.42-.86-.62a3.21,3.21,0,0,1-1.74-1.87,8.15,8.15,0,0,1,1.47-.08c4.88.6,5.05.08,2.87-4.06-.53-1-1-2.06-1.53-3.09a3.94,3.94,0,0,0-.56-2.74l0,.08c-.1-.84-.21-1.69-.32-2.53a.72.72,0,0,0-.45-1l-.73-1.22c.88-1.56,2.18-.74,3.36-.59l.39,2c-.14.64.15,1,.76,1.06a1.3,1.3,0,0,1,.47.86l.74,1.09a.91.91,0,0,1,.39.74,3.12,3.12,0,0,0,1.22,3.28c.11.69.21,1.38.31,2.07l.39,1,2.08,2.91a3.9,3.9,0,0,0,1.74,4.25c.44.93.89,1.86,1.34,2.79A44.76,44.76,0,0,0,243,216a5.64,5.64,0,0,0,2.87,4l.12.17q.54,2.66,1.07,5.33a3.5,3.5,0,0,0,2.16,2.53,1.62,1.62,0,0,1,.11,1.67,6.44,6.44,0,0,0,3.26,5.55,14.23,14.23,0,0,0,2.33,3.29,10.68,10.68,0,0,1,2.63,4.83,17.84,17.84,0,0,0,5,8c2.14,2.09,3.56,4.79,5.77,6.9,1.08,1,1.16,3.1,1.79,4.65a1.67,1.67,0,0,0,1.1.9,1,1,0,0,0,1-.88c.7-5.33,1.46-10.65,2.06-16a42.26,42.26,0,0,0,.17-6.56,37.11,37.11,0,0,1,.91-8.54c.25-1.31.7-2.54-.34-3.82-.68-.83-.11-1.94,0-2.94a91.1,91.1,0,0,0,.34-19.67,4,4,0,0,1,.35-2.92c1.6-2.11,1.29-4.56,1.06-6.83s.34-4.37-.68-6.48c-.3-.63.08-1.62.23-2.43,1-5.31,2-10.62,1.37-16.07a15,15,0,0,1,.2-2.48c.15-3,1.23-6,.45-9a1.06,1.06,0,0,1,0-.5c.58-2.29,1.34-4.54,1.7-6.85.34-2.12-.76-4.32.24-6.46a6,6,0,0,0,.34-1.48c.9-4.85,1.31-9.65-.63-14.43a34.7,34.7,0,0,1-1.52-6.38c-.23-1.15-.23-2.28-1.43-3-.47-.29-.64-1.13-.86-1.75-.91-2.52-1.89-5-2.65-7.6a14.09,14.09,0,0,0-4.78-7,56.94,56.94,0,0,0-6-4.65,62.55,62.55,0,0,1-7.45-5.22c-4.93-4.16-10.81-6.71-16.48-9.54-3.48-1.74-6.8-3.7-10.1-5.72-.57-.35-1.27-1.08-1.7-1-2.7.81-4.52-1.06-6.56-2-7.25-3.54-14.54-7-22.5-8.62a4.73,4.73,0,0,1-3-1.76c-1.35-1.81-3.34-2.2-5.4-2.25a31.07,31.07,0,0,1-7.51-.72A4.45,4.45,0,0,0,178.29,61c-2.39.49-4.68,0-7-.26-3.84-.34-7.73-.92-11.46.74l-2.23-1.52-5.29-1.35,4.44-2.07a11.45,11.45,0,0,1,5.52,0,6.94,6.94,0,0,0,4.92-.62,1.15,1.15,0,0,0,.56-.76,1,1,0,0,0-.49-.76,28.3,28.3,0,0,0-5.19-2,43.28,43.28,0,0,1-12.71-4.62,4.29,4.29,0,0,0-1.93-.5c-3.2-.07-5.77-1.53-8.34-3.29-2.77-1.9-5.8-3.43-8.73-5.12l-.91-.76-1-1.19c.29-.93.59-1.87.89-2.81l1.12.94a3.43,3.43,0,0,0,3.24.91c1.52.05,2.1,1.62,3.36,2.11.78.3,1.64,1.2,2.24,1,2.62-.71,4.51.73,6.59,1.77.52.27,1.3,0,2,0,1.25,0,2.29,0,2.48,1.7.08.68,1.05.7,1.62.16a2.11,2.11,0,0,1,2.76-.22c1.69,5.32,1.84,4.34,6.62,4.31a12.82,12.82,0,0,0,2.4-.5l2.24,1.4c1.31,2.76,3.69,2.82,6.23,2.48,4.22,1.92,8.66,3.29,12.9,5.23s9.25,2.85,13.94,4.06c2.76.71,5.64,1,8.38,1.75,2.5.7,5.06-.06,7.47.56s4.76,1.67,7.15,2.46a13,13,0,0,0,2,.26c3.5.59,6.87,1.42,9.77,3.71,2.36,1.86,5,3.37,7.4,5.18a9,9,0,0,1,2.17,2.74,16,16,0,0,0,6.19,5.75,43.76,43.76,0,0,0,7.6,3.78A18.68,18.68,0,0,1,263.25,89a1.54,1.54,0,0,0,1.8.44c.67-1.1-.05-2.29.14-3.43,1.28-.62,2.3-.35,2.71,1.05.61,2,1,4.14,2.81,5.6.78.63,1.41.75,2.12,0s1.11-1.21,1.67-1.81c1.35,1,1.62,2.51,1.84,4a4.56,4.56,0,0,0,2,3.32,6.29,6.29,0,0,1,2.77,5.11,8.81,8.81,0,0,0,1.79,4.69c.8,1.11,1.5,2.2.74,3.7-.33.65.2,1.19.89,1.54a16.47,16.47,0,0,1,1.93,1.32c1.4-2.13,1.19-4.62,1.77-6.89,1.69-6.49,3.33-13,4.64-19.6a58.58,58.58,0,0,1,5.64-16.19c.94-1.77,2.29-3.33,1.46-5.56a2.09,2.09,0,0,1,.36-1.44c2.84-5,3.94-10.73,6.93-15.66,2.46-4.06,3.85-8.57,5.12-13.11A8.44,8.44,0,0,1,314.26,32c2.1-2.09,3.16-4.9,4-7.51,1.11-3.32,2.63-6.5,3.24-10.06.56-3.27,2.78-6.08,4.52-9a4.31,4.31,0,0,0,1-3.12l0,.11,1-1.35a.7.7,0,0,1,.15-.59c1.06-.91,1.87-.7,2.44.55,0,3.52-2.33,6.26-3.16,9.51-.07.26-.7.42-.71.65-.22,3.46-2.22,6.27-3.32,9.4a94.39,94.39,0,0,0-4.42,15,13.15,13.15,0,0,1-1.52,3.17,3.34,3.34,0,0,0-.58,2.4c.47,1.77.58,3.3-1.7,3.94-.49.14-.36.91,0,1.23a2.45,2.45,0,0,1,.78,3.15c-.48,1.09-1,2.11-.52,3.36.12.27.09.87-.07,1-3.62,1.85-1.14,6.07-3.3,8.46-1.21,5.75-3.55,11.21-4.25,17.1-.23,2-2.19,3.48-1.6,5.7-1.74,5.6-1.23,11.74-4.15,17.07a4.66,4.66,0,0,0-.44,2c-.3,5.42-2.79,10.36-3.42,15.7-.19,1.58-1.25,2.76-1.67,4.22-1.72,6-2.52,12.11-3.63,18.2-.48,2.64-.81,5.24.36,7.83a7.86,7.86,0,0,1,.47,3,93.44,93.44,0,0,0,4.09,24.78c.61,2,.31,4,.4,6a1.7,1.7,0,0,0,.76,1.12c.54.37,1-.14,1.25-.52,3.07-4,6.82-7.43,9.29-11.92a13.11,13.11,0,0,1,3.36-3.73c1.35-1.07.78-2.91,2.05-3.95a24.24,24.24,0,0,0,4.41-5.51,24.46,24.46,0,0,0,2.63-4.29,4.33,4.33,0,0,1,2.58-2.84c1.57-.56,2.23-2.13,2.65-3.53,1.11-3.67,3.42-6.46,6.08-9a3.71,3.71,0,0,1,2,2.1l-.55.93a.87.87,0,0,0-.59.63l-.75,1.23c-1.67.55-1.69.59-1.18,2.2-1.08,2.24-2.92,4.09-3.39,6.65a3,3,0,0,1-.65,1.37c-3.09,3.58-4.9,8-7.84,11.68s-6.09,7.15-9.31,10.55a27.67,27.67,0,0,0-4.29,5.5,19.79,19.79,0,0,1-4.89,6.34c-4,3.15-4,7.94-4.83,12.26-.39,2-.64,3.94-1.13,5.91-1,4.06-2,8.16-1.88,12.41.1,2.94-1.16,5.6-1.71,8.4-.77,4-1.6,7.89-1.4,12a18.16,18.16,0,0,1-.35,3,37.54,37.54,0,0,0,0,11,23.7,23.7,0,0,1-.47,9.07,25.9,25.9,0,0,0,.7,12.51,58.38,58.38,0,0,1,2,17.48c-.19,5.88,1.21,11.3,3,16.73a45,45,0,0,0,1.91,4.68c.44,1-.32,2.79,1.28,2.87,1.2.07,1.77-1.47,2.35-2.45,4.41-7.44,10.61-13.51,15.6-20.5a39.32,39.32,0,0,1,4.52-4.78c1.61-1.6,4.12-2.51,4.13-5.39,0-.38.62-.76,1-1.13a46,46,0,0,0,10.6-18.71,3,3,0,0,1,1.34-2.07c2.52-1.13,3-3.61,3.66-5.77a26.87,26.87,0,0,0,1.38-6.85c.05-2.79,1.75-5.41,2.14-8.29.31-2.33,1.18-4.62,1.25-6.95a31.81,31.81,0,0,1,1.49-7.89c.74-2.57,1.4-5.15,1.95-7.77s2.2-5.26,3.37-7.87l2,3.09c-.23,1.47-1.47,2.68-1,4.35.32,1.23.17,2.36-1.33,2.79-.41.12-.54.5-.22.8,1.47,1.37.48,2.72.18,4.19a12.45,12.45,0,0,0-.12,4.9,28.2,28.2,0,0,1-.06,10.48c-.91,5.46-1.32,11-3.17,16.28-.11.33.26.92.55,1.27.14.16.64.08,1,0a2.63,2.63,0,0,0,.9-.45c5.84-4.18,12.54-6.39,19.32-8.39a46.5,46.5,0,0,0,9.71-4.22,38.3,38.3,0,0,1,4.09-2c.63-.26,1.31-.4,1.54-1.12.67-2,2.41-2.65,4.17-3.35,5.61-2.24,11.1-4.79,17-6.39A31.93,31.93,0,0,0,417,229.5a4.59,4.59,0,0,1,2.31-.91c3.75.18,6.38-2.1,8.82-4.29,2.2-2,5.18-3.14,6.56-6.07.3-.63,1.37-.93,2.12-1.31a99.4,99.4,0,0,0,12.42-7.73A40.92,40.92,0,0,0,453.1,206a81.27,81.27,0,0,1,8.09-6.75,9.1,9.1,0,0,0,3.14-3.83,11.11,11.11,0,0,1,4.67-5.17l1.3-.94.9-1,1.07-1.16,1-.87,1.37.12c0,.82-.05,1.65-.08,2.48a23.37,23.37,0,0,0-1.86,1.57c-.74.77-2,1.26-1.72,2.66,0,.1.27.23.4.22,1.32-.12,1.91-1.16,2.46-2.14a12.3,12.3,0,0,0,.76-2.29c3-1.94,6.17-3.76,7-7.69l-.12,0a2.78,2.78,0,0,0,2.48-1.53c1.44-2.78,4.3-4.22,6.05-6.65a32,32,0,0,1,6.14-6.68,8.4,8.4,0,0,0,2.09-2.81,49.5,49.5,0,0,1,9.46-12.42A44.33,44.33,0,0,0,516,140.4a31.43,31.43,0,0,1,5.36-6.64,22.81,22.81,0,0,0,4.77-6.42c.61-1.35,2.24-2.35,2.55-3.71.91-4,4.18-6.37,6.18-9.6a71.41,71.41,0,0,0,7.6-15.34,8.39,8.39,0,0,1,1.05-1.7,6.47,6.47,0,0,0,1.85-3.22l-.05.09,1.08-1.14.94-.93a2.62,2.62,0,0,1,.06,3.27,2.55,2.55,0,0,0-.29,2.83,2.22,2.22,0,0,1-.37,2c-1.66.28-2.3,1.38-2.34,3-2.74,6.89-6.52,13.24-10.26,19.6a6.4,6.4,0,0,1-1.57,2,7.32,7.32,0,0,0-2.77,4.1,2.25,2.25,0,0,1-.43.91c-3.63,4-4.91,9.57-8.69,13.5-.48,2.31-2.77,3.23-4,5.06-1.41,2.15-2.14,4.6-3.52,6.68s-3.3,3.69-4.6,5.92c-3.2,5.53-7.7,10.08-12,14.72a11.05,11.05,0,0,0-1.75,1.81c-2.25,3.86-5.9,6.18-9.23,8.95-2.28,1.89-4.54,3.86-6.8,5.81-1.25,1.08-2.1,2.66-4,2.9-1.92,2.61-4.94,4-7,6.38a95.53,95.53,0,0,1-10.45,9.46c-3.36,2.79-6.45,5.91-9.55,9-1.71,1.71-3.42,3.19-5.89,3.71-1.89.39-1.86.52-2.05,3.06a3.55,3.55,0,0,1-.32.83c-.25-.38-.49-.76-.75-1.13-.5-.73-1.16-.58-1.75-.2-.4.27-.91.68-1,1.11-.5,2.71-3.76,3.16-4.57,5.68a2.45,2.45,0,0,1-2.19.93c-2.91-.77-5,1-6.69,2.58a7.25,7.25,0,0,1-4.3,2.12,6.27,6.27,0,0,0-4,1.91c-1.79,1.83-4.56,1.76-6.76,3s-4.32,2.63-6.85,3.19c-.59.12-1.07.77-1.58,1.2s-.93,1.09-1.52,1.32c-5.44,2.08-9.53,6.24-14.36,9.25-1,.62-2.18.88-3.21,1.43-5,2.71-10.4,4.59-14.54,8.78q-8.14,8.25-16.73,16.06a160.76,160.76,0,0,1-14.2,12,16.3,16.3,0,0,0-4.46,4c-1.21,1.83-3.77,2-5.24,3.73-.94,1.11-2.43,1.7-2.78,3.4s-2.49,2.36-2.92,4-.64,3.33-2.27,4.31c-.52,3.05-2.7,5.37-3.64,8.24a43,43,0,0,1-5.05,10.41c-2.11,3.23-3.85,6.71-5.73,10.09-1.62,2.9-.94,5.9-.28,8.86.54,2.44,1.49,4.8,1.86,7.26s2.31,4.5,2.24,7.12a2.37,2.37,0,0,0,.91,1.73c.59.58,1.46,1,1.72,1.75.8,2.1,2.56,3,4.28,4.1,1.55.95,3.06,2.54,4.86,2.24a9.76,9.76,0,0,0,5.59-3.22,20.36,20.36,0,0,0,4.64-7.72c.66-2.34.76-4.58-.72-6.7-.38-.54-.41-1.38-.86-1.81-2.31-2.18-1.37-5-1.48-7.58-.06-1.3,1.25-2.66,1.95-4a2.34,2.34,0,0,1,1.55,2.84c-.86,3.26.61,5.53,3,7.47.53.91,1.07,1.82,1.6,2.74,1.67,1.17,3.35,1.83,5.15.23a22,22,0,0,0,6.42-3.49c1.84-1.39,3.85-3.26,6.81-2.42,1.47.42,2.95-.62,4.14-1.59a30.14,30.14,0,0,1,4.15-2.84,6.29,6.29,0,0,1,2.69-.52c2.53-.29,5.34-.35,6.94-3.1.94-1.62,2.59-2.61,4.1-3.7,1.88-1.37,4.15-2.14,5.74-4,.65-.78,2.09-1,3.22-1.27a20.1,20.1,0,0,0,5-2.12c2.24-1.26,4.34-2.47,5.81-4.6.45-.65,1.12-.69,1.75-.86a1.08,1.08,0,0,1,1.5.87c.35,2.54-.3,4.73-2.65,6.06-1.17.66-2.47,1.07-3.7,1.63-.92.43-1.38,1-2.32,2.82a2,2,0,0,0,1.75-.81c1-1.16,2.4-1.13,3.7-1.39,1-.2,1.55.49,2,1.18a1.51,1.51,0,0,1-.12,1.85,11.42,11.42,0,0,1-7,4.55,31.16,31.16,0,0,0-6.93,2.77,27.08,27.08,0,0,1-9.52,3,9.17,9.17,0,0,0-5.79,2.79,27.43,27.43,0,0,1-7.68,5.38c-3.3,1.61-6.44,3.58-9.79,5.08-3,1.33-4.3,4.17-6.42,6.25a48.87,48.87,0,0,0-5.53,6.49c-3.27,4.58-7,8.88-9.45,14a21.14,21.14,0,0,0-2.1,7.69c-.33,4.52-1.16,9-.93,13.57.15,3,.9,5.93,1.05,9a81.83,81.83,0,0,1-.53,13.57c-.46,4-.11,7.73,2.09,11.18a5,5,0,0,1,.87,1.81c.4,2.54,1.76,4.67,2.76,7a89.15,89.15,0,0,1,6.05,19.64,21,21,0,0,0,.7,2.94c.19.59.25,1.38,1.1,1.54s1.2-.45,1.58-1a12.2,12.2,0,0,0,.71-1.34c1.77-3.07,3.52-6.11,6.29-8.48a12.46,12.46,0,0,0,3.44-4.93c1.06-2.67,3-4.94,4.21-7.44,2-4.15,5.36-7.72,6.1-12.5l1.35-1.44a.72.72,0,0,1,.24-.58l.58-1.05c.2-.38.4-.75.59-1.13.16-.61.31-1.22.46-1.83l.11-.06.92-.87.6-1.35a5.4,5.4,0,0,0,.17-3.23,12.28,12.28,0,0,1,2.56-3.73l.73-.87.06-.1a3.17,3.17,0,0,0,1.75-2.39,1,1,0,0,1,.21-.7l.72-1.61a.44.44,0,0,1,.36-.39c2.4-.07,2.4-.07,2.67-2.54.14-.85.29-1.71.44-2.56l.85-.86a12.77,12.77,0,0,0,3-4.22c1.92-1.24,2.57-3.44,3.87-5.14.91-1.2,1.71-.49,2.42.33a4.2,4.2,0,0,1-.58,2.83c-.7,1.1-1.43,2.18-2.07,3.31a2.33,2.33,0,0,0,.4,2.72c0,.34,0,.68,0,1a6.12,6.12,0,0,0-1.29.34c-.91.47-.93,1.06-.07,1.66a6.46,6.46,0,0,1,0,3.09l-.63.91c.25.53.38,1.24.79,1.56.57.44,1.12.09,1.35-.61l-.13.13c-.32.64-.15,1.33.51,1.34s.84-.69.61-1.35l-.15-.15a1.29,1.29,0,0,0,1.68.64c4-1.35,7.4-3.79,10.8-6.21,1.21-.86,2.11-2.25,4-1.64a1.72,1.72,0,0,0,1.37-.45c3.38-3,7.77-4.52,11.13-7.68,1.73-1.63,4.41-2.31,6.95-2.59.23,0,.52.3.72.52.06.06,0,.32-.1.46-.16.29-.3.68-.57.83a18.36,18.36,0,0,0-5.45,4.94,8.32,8.32,0,0,1-2.93,1.91c-3.31,1.66-6.59,3.3-9.2,6.09-1.23,1.32-3.08,2-4.52,3.17-3.68,2.92-7.52,5.7-10.23,9.66a5.17,5.17,0,0,1-1.32,1.53c-2.56,1.59-3.91,4-5.06,6.68-2.35,5.54-5.53,10.7-7.89,16.23A68.63,68.63,0,0,0,369.18,470a17.31,17.31,0,0,0-.4,2.48c-.17,2.12.21,4.41,1.82,5.56s3.63.18,5.33-.62c3-1.43,6-3,9-4.51a6.37,6.37,0,0,0,1.62-1.2c2.06-2.14,4.42-3.65,7.5-3.72a2.56,2.56,0,0,0,2.19-1.1c1.31-2.18,3.62-2.84,5.59-4.09,2.54-1.61,4.77-3.69,7.41-5.19a4.24,4.24,0,0,1,2.32-.75c2.85.09,5.67-.64,8.54-.06.89.18,1.54-.52,1.75-1.46h.12c-.41-.21-.79-.82-1.28-.28s-.67,1.11-1.07,1.62c-1,1.28-1.83,2.78-4,2.17-1.26-.36-2.21.93-3,1.55-2.37,2-5.12,3.21-7.77,4.67a8,8,0,0,0-2,1.45,1.49,1.49,0,0,0,.07,2.25,4,4,0,0,0,3.58,1.38c3.78-.67,7.76.26,11.44-1.44a5.28,5.28,0,0,1,2.48.1,29.09,29.09,0,0,0,4,.44c3-.15,6-.74,8.32,2,.13.15.6,0,.91,0a3.54,3.54,0,0,0,.67-.23c-.21-.23-.38-.59-.63-.65-1.35-.35-2.53.39-3.7.82-.58.21-1.05,1-1.75.8-3.78-1.07-7.3.42-10.71,1.47s-6.62.43-9.87,1.11c-2,.42-4,.62-6,1a5.68,5.68,0,0,0-2.39.74c-2.69,2-5.92,3-8.83,4.51-5.2,2.72-10.74,4.66-15.88,7.45a7.53,7.53,0,0,1-2.39.72c-2.31.37-3.57,1.71-5,3.62-3.11,4.13-5.94,8.52-10.25,11.75a65,65,0,0,0-8.62,8.46,10.37,10.37,0,0,0-1.95,4,15.57,15.57,0,0,1-2.18,5.09,10.25,10.25,0,0,0-1.73,6.21c-.06,2,.12,3.89-1.4,5.7-.84,1-.65,2.88-.79,4.38-.26,2.66-.4,5.29-2,7.65a9.9,9.9,0,0,0-1.36,5.34c-.11,5.32-2.05,10.08-4.08,14.89a26.11,26.11,0,0,0-2.34,10.25,5.66,5.66,0,0,0,.82,2.89,1.37,1.37,0,0,0,1.95-.13h0l2.08-.85.12-.06,1.81-1.26a3.71,3.71,0,0,1,2.11-1.84l2-1h0a1.13,1.13,0,0,0,.91-.27l1.31-1.68,1.84-1,1.94-1.17,1.11-.72,2.87-2.37c1.18-.07,2.4-.07,3.1-1.28a.71.71,0,0,1,.32-.64,1.17,1.17,0,0,0,.79-.54l1.93-1.57c4.37.47,4.37.47,2.09,3.94l-.21.08c-3.25,1.44-5.16,4.17-6.86,7.1-.34.67-.67,1.34-1,2l-1,1-.14.13a5.47,5.47,0,0,0-4,3.86c-1.8,2.18-3.26,4.73-6.2,5.66-2.8,3.09-6.81,4.92-9.05,8.61-4.34,3.33-5.74,8.25-7.31,13.17-2,6.22-3,12.7-5.34,18.83a26.94,26.94,0,0,0-1.37,8.92c-.14,6.38-1.54,12.67-1.41,19,.14,6.66-.45,13.47,2.23,19.87.29.68.7,1.2,1.43,1.18a1.84,1.84,0,0,0,1.58-1.08,52.75,52.75,0,0,0,5.42-15,20,20,0,0,0,.6-5.47c-.22-1.91.42-3.65.66-5.46a1.66,1.66,0,0,1,1-1c.56-.2,1,.31,1.09.81a18.73,18.73,0,0,0,1.65,5.21,3.6,3.6,0,0,1,0,2.93,30.91,30.91,0,0,0-1.15,8.47,11.33,11.33,0,0,1-1.78,6.23c-1,1.56-1.79,3.23-2.67,4.85a3.45,3.45,0,0,0-1.37,2c-.55,2.39.53,3.72,2.82,3.28a17.66,17.66,0,0,0,6.1-2l.17-.2a4.39,4.39,0,0,0,2.85-.94l.17-.1c1.35-.14,2.93-1.23,3.77.86v.28h.28a9.24,9.24,0,0,0,3.21-2.33c1.75-1.54,3.47-3.15,5.76-3.91.05.74.09,1.47.14,2.21-1.93,3.23-5.13,5.26-7.62,8a4.75,4.75,0,0,1-2.23,1.14,112,112,0,0,1-11.72,2.72c-5,.72-9.85,2.24-13,6.77a21.13,21.13,0,0,1-3.48,3.66c-3.18,2.76-3.62,6.29-2.83,10.07a36.25,36.25,0,0,1,.9,6.47,17.14,17.14,0,0,0,2.73,9.07c1.73,2.67,3.28,5.44,5.15,8,2.35,3.25,4.43,6.69,6.67,10a30.35,30.35,0,0,0,3.27,4.47,24.17,24.17,0,0,0,4.08,3c1.57,1,2.79-.86,4.35-.6.75.13,1.61-.4,2.43-.6.55-.13,1.11.06,1.2.61a2.42,2.42,0,0,1-.37,1.38,1.78,1.78,0,0,1-.79.59,1.49,1.49,0,0,0-.82,2.07,1.89,1.89,0,0,0,2.07,1.16c2.24-.61,4.67-.64,6.65-2.09a7.17,7.17,0,0,1,2.19-1.18c5.66-1.6,10.69-4.53,15.79-7.32,2-2.56,5.14-3,7.87-4,2.93-1.06,6.16-1.28,9.37-1.88-.23,1.56-2.31,2.22-1.76,4-.34,0-.67,0-1,.06-.6.07-1.43-.08-1.39.84,0,.23.8.59,1.23.6a8.75,8.75,0,0,0,1.93-.41,15.55,15.55,0,0,0,4.89-1.22c1.38-.62,2.63-1.18,4.3-.44,1.42.63,2.93-.3,4.37-.79,1.08-.38,2-1.19,3.32-1,4.76.77,9.34-.45,13.95-1.32a2.53,2.53,0,0,1,1-.16c3.24.87,6.68.28,9.9,1.52,2,.76-.21.91-.06,1.36-.67-.3-1.32-.22-1.54.51-.08.28.42.73.65,1.1a3.85,3.85,0,0,0,2.82,1c3.57,0,6.84,1.67,10.38,1.77a3.37,3.37,0,0,1,1.84.7c3.81,2.92,8.41,3.49,12.88,4a38.17,38.17,0,0,1,9.79,2.35c5.63,2.26,11.59,3.36,17.31,5.31a56.64,56.64,0,0,1,9.27,4c1.43,2.41,3.39,1.29,5.26.8a1.16,1.16,0,0,1,.84.28l1.25.72a1.35,1.35,0,0,1,.78.21l2.24.8a1.16,1.16,0,0,1,.8.29c2,2,4.52,2,7.08,1.86h.06c2.7,2.17,5.84,2.32,9.09,2h0c2.14,1.36,4.57.83,6.89,1.07l1.21,1.09a6.6,6.6,0,0,0,3,1.23c1.29.26,1.74,1.23,2,2.38L525,774l-8.86-1.83c-.17,0-.33-.14-.49-.12-.48,0-1.14-.07-1.4.2-.58.61,0,1.19.36,1.73a5.51,5.51,0,0,1,.81,1.24,1.28,1.28,0,0,1-1.36,1.63c-5.43-1.47-11.25-1.39-16.36-4.17a10.17,10.17,0,0,0-4.41-.84l-.26,0-.21-.13c-.52-1.52-2-1.89-3.14-2.74h0a47.74,47.74,0,0,1-8.65-1.18,1.1,1.1,0,0,1-.5-.62.64.64,0,0,0-.63-.31l-3.32-.68a2.81,2.81,0,0,0-2.9-1.35,7,7,0,0,1-2.34-.83c-3.26-1.66-6.59-3.2-9.89-4.78a1.08,1.08,0,0,0-.48-.15c-4,0-7.36-2.22-11.2-2.68a15.48,15.48,0,0,1-3.32-1.13c-2.66-1-5.18-2.18-8.14-2.45s-5.74-1.79-8.57-2.79a59.13,59.13,0,0,0-10.65-2.54c-3.15-.5-6.31-.81-9.45-1.45a12.59,12.59,0,0,0-7.34,1c-4.46,1.84-9.21,3-13.85,4.42a10.23,10.23,0,0,1-2,.2c-3.82.4-7.75.11-11.4,1.76a5.14,5.14,0,0,1-2.51.17,11.77,11.77,0,0,0-8.05,2.26c-3.64,2.46-7.72,4.11-11.64,6a1.14,1.14,0,0,0-.37,2c2.37,2.1,4.36,4.62,7.45,5.91a69.43,69.43,0,0,1,6.63,3.67c.42.23,1,.64,1.32.5,2.37-1,4.32.41,6.33,1.1,6,2.08,12.17,2.4,18.42,2a2.91,2.91,0,0,1,.51,0c1.74.19,3-1.63,4.81-1.16a11.82,11.82,0,0,0,4.51-.11c3.63-.46,4-.17,6,3.42,1.4,1.16,1.29,2.54.66,4-.06.14.28.61.51.68a1.08,1.08,0,0,0,.9-.21c1.23-1.23,1.15-3.07,2-4.5l1.81-.14c1.79.26,3.57.55,5.37.77a7.08,7.08,0,0,0,6-1.69h0l1.09,0h0a11.7,11.7,0,0,0,6.6,1.68,13.33,13.33,0,0,1,2.45,0c1.48.3,1.71,1.35,1.31,2.65-2.86,2.23-6.17,1.66-9.41,1.52.09-.34.17-.68.26-1a14.5,14.5,0,0,1-5.91.79l-.9-.09c0,.39.23.47.68.38a1.8,1.8,0,0,1,1,.08c.49.24.79.85.5,1.24a6.2,6.2,0,0,1-4.25,2.23,3.38,3.38,0,0,1-3.76-1.9c-1-.58-.14-1,.1-1.52.33-.7,0-.86-.58-.58-.3.14-.17.46.18.7.53.37,1.18.74.21,1.34a1.58,1.58,0,0,1-1,1.62c-2.32.94-4.57,1.83-7.29,1.46-3.65-.5-7.39-.27-11.08-.57-6-.51-12-1.21-17.73-3.45a8.19,8.19,0,0,0-5.86-.5c-1.24.4-2.69.11-4,.35-2.28.4-4-1.17-6.08-1.65-2.29-.53-4.35,1.08-6.39.07-1.66-.83-3.46-1.36-5.06-2.22-5.08-2.72-10.1-2-15.12-.09-4.09,1.58-8.18,3-12.67,2.54-1.17-.12-2,.3-2,1.63a2.16,2.16,0,0,0,1.5,1.32,3.55,3.55,0,0,1,2.82.87.75.75,0,0,0,.67.36l1.51.73,1.91.14c.32.33.64.66,1,1-.51.64-1,1.31-1.54,1.9-1.44,1.51-1.46,1.49.62,3.25l.82,1.19.87.92.14.14,1.07.81,1.08.87,1.86,1.21c.05,1.68,1.17,2.76,2.2,3.89a3,3,0,0,0,1.89,1.17l.05,0v2l0,0-2.82-.06c-2.53-1.63-5.33-2.9-6.92-5.7-.76-1.33-2.38-1.71-3.5-2.74-3.23-3-5.15-7-8.36-10a25.38,25.38,0,0,0-2.52-2.46c-3.58-2.49-7.19-4.93-10.87-7.25a8.71,8.71,0,0,0-3.36-1c-3.81-.53-7.66-.81-11.45-1.44-2.12-.36-4.44-.37-6.24-1.73-1.46-1.1-3,.34-4.38-.39-1.63-.84-2.72.5-4.09.91-3.25,1-6.17,2.6-9.27,3.85a57.9,57.9,0,0,0-6.33,3.1,6.5,6.5,0,0,0-3.17,3.06,16.72,16.72,0,0,1-3.51,4.87,8.37,8.37,0,0,0-2.06,3.43,40.12,40.12,0,0,1-2.78,6.49c-.67,1.47-.83,3.35-2.81,3.94a1.19,1.19,0,0,0-.61.76c-1.19,4.27-5,7-6.36,11.22-2,1.91-4,4-7.06,4.14,0-.18-.11-.36-.05-.43.7-1,1.45-2.24.89-3.22-.75-1.3-2.13-.15-3.22,0s-2.27.79-3.33-.3c1.17-.67,1.74-2.35,3.5-2a21,21,0,0,0,8.16-7.88c1.27-2.32,2.66-4.66,2.93-7.42.16-1.62,1.24-2.75,2.24-3.89a14.78,14.78,0,0,0,3.4-7.16,37.85,37.85,0,0,1,3.13-9.58c.49-1,1.42-1.92.93-3.51-5.56.33-10.72,1.25-15,5.57a27.39,27.39,0,0,1-14.77,8.08,4,4,0,0,0-1,.24,34,34,0,0,1-10.65,2.8,10.74,10.74,0,0,0-7.07,3.62c-1.76,2-4.6,2.85-5.7,5.57-.25.62-1.37.88-2.1,1.3-3,1.74-7.74,6.35-9.33,9.46a13.31,13.31,0,0,1-4.72,5c-3.25,2.16-6.24,4.58-8.25,8l-1.91.5-1.12,1.53a3.51,3.51,0,0,1-2.12-2.17l.56-1.82a2.87,2.87,0,0,0,1.65-1.76l.38-.2A5.77,5.77,0,0,0,171,816c.85-1.58,2.59-2.19,3.74-3.45l1-1.21h0a3.27,3.27,0,0,0,3.13-2.11,2.35,2.35,0,0,1,1.26-1.64l1-1a6,6,0,0,1,2.35-3.17,9.44,9.44,0,0,0,2.79-3.52,1.05,1.05,0,0,0-.85-1.47c-2-.16-4.22-.32-5.9.77a9.27,9.27,0,0,1-5.2,1.32,34.3,34.3,0,0,0-12.64,2.91,5.79,5.79,0,0,1-3.35.82c-2.23-.37-4.32.44-6.46.81,1.5-1.16,3.35-2,3.94-4a18.93,18.93,0,0,0,2.38-.78,38.47,38.47,0,0,1,8.51-3c6.13-1.32,11.61-4.35,17-7.53a12.72,12.72,0,0,1,3.08-1.68c4.59-1.12,8.75-3.32,13.13-5a38,38,0,0,0,14.5-9.76c3.46-3.74,7.08-7.06,11.81-9.12-2.37-2.75-4.52-4-7.28-3.58a52.64,52.64,0,0,1-8,.41,17.84,17.84,0,0,0-7.2,2.07c-2.66,1.21-5.6,1.19-8.18,2.48a2.46,2.46,0,0,1-1.41-.07c-.48-.1-1.09-.61-1.39-.45-2.92,1.52-6.39.3-9.24,1.91s-6.07,1.92-9.24,2.13c-3.8.24-7.3,1-10,4a3.65,3.65,0,0,1-2.26,1,14.21,14.21,0,0,0-6.71,3.31,4.45,4.45,0,0,0-3.44,1l-1.37.6a6.39,6.39,0,0,1-.93-3.15,3.33,3.33,0,0,1,1.87-2,3.51,3.51,0,0,0,3.4-1.52,1,1,0,0,1,.56-.55,5.66,5.66,0,0,0,4.42-2.84l0,0c1.63.09,3.15-.1,4.11-1.67a1.46,1.46,0,0,1,.75-.45,4.18,4.18,0,0,0,3.38-1.58l.27-.14,1.61-.8,1-.43,1.13-.71.19-.18a7.29,7.29,0,0,0,1.64-1c1-1.09.86-2-.39-2.8a4.8,4.8,0,0,0-1.41-.38l-1.75-1.08-6.23-1c-1.32-.24-2.58-.84-4-.53-.65.15-1.49.46-2,.2-3-1.64-5.45-.45-7.85,1.41-1,.8-1.77.55-2.4-.62a11,11,0,0,1-.55-1.42c-.73-1.85-2.22-2.43-4-2.38-1.18,0-2.35.13-3.53.2-6.54.39-13-1.12-19.57-.73-1.81.11-3.64-.33-5.35.89-.72.51-2,.29-3,.41-5.51.66-11.07,1.09-16.25,3.34a9.68,9.68,0,0,1-3,.33c-3,.33-6,.43-8.8,1.93a10.93,10.93,0,0,1-4.91,1,30.86,30.86,0,0,0-12.78,2.75,22.1,22.1,0,0,1-3.39,1c-2.22.66-4.64.71-6.54,2.4a3.48,3.48,0,0,1-2.39.64c-3.2-.21-5.85,1.08-8.5,2.67-1.73,1-3.48,2-4.61,3.73a2.32,2.32,0,0,0-1.76.79l-.23.14h-.27c-.9-.3-2.1-.46-1.27-1.87a6.83,6.83,0,0,1,2.6-2.76c.69.37.59,0,.47-.48.56-1,1.13-1.95,1.7-2.92l0,0c5-.43,9.38-2.81,13.81-4.92.26-.12.37-.52.55-.79a.74.74,0,0,1,.66-.45l1.18-.16L60,759.7a3.4,3.4,0,0,0,2.35-.74l.1-.08,2-1.06a.55.55,0,0,1,.52-.23c2.24.38,4.46.54,6.57-.59a1.63,1.63,0,0,1,.8-.3,12.58,12.58,0,0,0,8.3-1.49l3.16-.05A30.93,30.93,0,0,0,96.82,752a1.15,1.15,0,0,1,.77-.39A3.61,3.61,0,0,0,101,750a.92.92,0,0,1,.73-.42l2.21-1h0a19.93,19.93,0,0,0,9.19-.93l1.44-.21,1.53-.31,1-.56c1.5-.11,3-.16,4.48-.37,1-.14,1.25-1,.66-2.25-.21-.45-.75-.89-.36-1.32a1.61,1.61,0,0,1,1.34-.33,88,88,0,0,0,18.35,2.3l1,.43a10.7,10.7,0,0,0,2,1.38,20.6,20.6,0,0,0,10.37,1.16.9.9,0,0,1,.86.19,2.8,2.8,0,0,0,2.08.83h0c1,.91,2.4,1.08,3.57,1.66a6.09,6.09,0,0,0,6.55-.35,9.9,9.9,0,0,1,6.67-1.24c4.35.41,8.74.53,13.11.7a18.06,18.06,0,0,0,3-.3,8.89,8.89,0,0,1,2.48-.42c5,.81,9.67-.73,14.48-1.35,5.48-.7,11-1.3,16.48-1.76a47.64,47.64,0,0,1,7.06.17,13.36,13.36,0,0,0,6.89-1.13,20.07,20.07,0,0,1,7.34-1.58,43.22,43.22,0,0,0,16.36-4.52,10.16,10.16,0,0,0,4-3.79,39.12,39.12,0,0,0,5.17-14.42,7.82,7.82,0,0,0-3.79-7.75,6.38,6.38,0,0,1-3-4.34c1.34-.72,2.36.1,3.46.38,4,1,6.82-1.33,6.74-5.18-.09-4.36,1.57-8.56,1.22-12.95,2.05-2.7.29-5.84,1-8.77a8.33,8.33,0,0,0-1.17-5.31c-1.85-3.36-3-7.21-6-9.85a3.29,3.29,0,0,1-.8-1.79c-.14-.47-.35-1.15-.7-1.29-3-1.17-5.11-3.94-8.33-4.66a27.16,27.16,0,0,1-6.54-2.49c-2.15-1.11-4.59-2.31-6.21-4.19-2.34-2.72-5.5-3.42-8.56-3.46-2.53,0-4.45-1.36-6.73-1.82a9.75,9.75,0,0,1-6-3.44c-.08-.1-.69,0-.79.18-.39.66.13,1,.62.83a23.17,23.17,0,0,1,10.44-.37,6.09,6.09,0,0,0,2-.12,6.6,6.6,0,0,1,5.27.82,7.85,7.85,0,0,0,5.33,1.06,35.36,35.36,0,0,0,4.53-.34c2.36-.62,4.2.09,6.13,1.37,2.84,1.91,6.26,2.36,9.49,3.25.78.22,1.78-.89,1.41-1.6-1.6-3-2.21-6.45-4.88-9.08-2.47-2.44-4.13-5.72-6.13-8.63-.18-.27-.43-.66-.36-.91.78-2.84-.51-5.26-1.44-7.78a4.92,4.92,0,0,1,.11-2,18.36,18.36,0,0,0-3.74-13.25,46.92,46.92,0,0,0-4.81-5.84,63.88,63.88,0,0,1-6.68-7.47,11.67,11.67,0,0,0-3.9-3c-2.56-1.51-5.37-2.55-5.73-6.34-.16-1.71-2.26-2.82-4-3.56s-4-1-5.1-3A1.53,1.53,0,0,0,222,577c-2.77.59-3.86-1.56-5.3-3.14l-1-.77-1-.74c.23-1.11.64-1.78,2-1.28,2.44.88,2.84.59,2.88-1.75a5.61,5.61,0,0,0-.72-3.33c0-1,.07-2.09.1-3.14l.54-2.16c0-.51,0-1,0-1.53,0-.93-.07-1.86-.11-2.79l-.06-1.15c1.27-.36,1.91.31,2.15,1.43.9,4.07,2,8.08.89,12.37-.75,3,.57,5,3.68,5.42,3.3.5,6.45,1.84,9.85,1.67h0c1.87,2.25,4.64,2.32,7.17,3l0,0,1,1.09a7.65,7.65,0,0,0,.95.34l1.47.51,1.65,2,1.13,1.11c.28.34.56.69.85,1l1.16,1,0-.07C251.71,587.17,251.8,588.41,252.7,589.29ZM493.36,172.45c-.4-.08-.73-.26-1-.18a1,1,0,0,0-.52,1.22c.1.43.47.52.74.18A10.11,10.11,0,0,0,493.36,172.45ZM286.22,118.1l-.22-.36a6.12,6.12,0,0,0-.56.45.54.54,0,0,0,.22.33C286,118.63,286.2,118.46,286.22,118.1Zm-54,465.54c-.12.09-.22.19-.32.28l.3.28c.09-.15.18-.3.28-.44Z"/><path class="cls-4" d="M452,968.08c-8.31,10.93-15.63,20.81-22.14,29.82a202.07,202.07,0,0,0-4.53-40.36c-12.47-60-43.16-101.64-38.37-104.44,3-1.75,15.95,14,25.58,27.71C430.54,906.53,442.59,933.38,452,968.08Z"/><path class="cls-4" d="M301.68,1121.66c-.79,10.22-1.66,20.28-2.95,29.93-5.8-13.47-12.83-30.23-21.21-45.36,5.34-29.6,11-70.83,18.83-128.44,6.63-48.75,7-55.44,8.52-55.42C311.37,922.43,308.13,1038.2,301.68,1121.66Z"/><path class="cls-4" d="M137.75,980.21c-7.36-4.37-14.07-8.39-20.23-12.13A266.35,266.35,0,0,1,132,937c11-19.93,24.84-38.11,27.88-36.56C163.93,902.5,140.33,934.93,137.75,980.21Z"/><path class="cls-4" d="M67.43,884.91c-6.79,12.63-11.08,23.9-15,34.7a225.12,225.12,0,0,1-15-18,320.88,320.88,0,0,1,36.39-45.43c22.14-22.83,46.3-40.1,48-38.37C123.68,819.76,91,841.07,67.43,884.91Z"/><path class="cls-4" d="M1.15,788.28c13.34-6.89,24.58-10.62,25.26-5.73C26.67,784.42,14,795.69,0,808.09Z"/><path class="cls-4" d="M198.87,711.75c.76,2.27-56.31-20.5-123.12-14.24-13.62,1.27-26,2.76-37.18,4a130.78,130.78,0,0,1,29.69-27.9c9.18,1.86,19.24,3.84,30.26,5.94C161.13,691.4,196.78,705.51,198.87,711.75Z"/><path class="cls-4" d="M547.74,814.73a312.41,312.41,0,0,1-14.61,32.91,131.28,131.28,0,0,0-19.38-27.58c-29.52-32.2-67.53-41.33-66.07-44.76,1.1-2.58,22.49,2.8,44.76,11.73A391.75,391.75,0,0,1,547.74,814.73Z"/><path class="cls-4" d="M554,720.83c-11.95-3-24-8.54-39.22-12.67-57.66-15.62-106.2,3.66-106.57,1.07-.32-2.21,35.84-10.88,81-16,3.1-.35,22.3-2.46,44.94-3.9A92.64,92.64,0,0,1,554,720.83Z"/></g></g></svg>