<svg xmlns="http://www.w3.org/2000/svg" xmlns:xlink="http://www.w3.org/1999/xlink" width="441.696" height="506.658" viewBox="0 0 441.696 506.658">
  <defs>
    <clipPath id="clip-path">
      <rect id="Rectangle_2288" data-name="Rectangle 2288" width="441.696" height="506.658" fill="none"/>
    </clipPath>
  </defs>
  <g id="where_-_another_planet" data-name="where - another planet" transform="translate(220.848 253.329)">
    <g id="where_-_another_planet-2" data-name="where - another planet" transform="translate(-220.848 -253.329)" clip-path="url(#clip-path)">
      <path id="Path_194503" data-name="Path 194503" d="M51.74,791.743c-3.362,3.906-10.285,11.966-18.641,11.125-.841-.1-5.884-.593-7.713-3.956-1.434-2.621.1-4.945-1.286-7.219A181.906,181.906,0,0,1,49.614,773.3l.1.148c2.225,4.153,7.862,1.335,9.79,5.291,1.533,3.115-3.659,8.307-7.713,13" transform="translate(-12.184 -390.938)" fill="#143138"/>
      <path id="Path_194504" data-name="Path 194504" d="M441.7,786.058v52.264a23.783,23.783,0,0,1-23.783,23.783H23.783A23.783,23.783,0,0,1,0,838.322v-70.41q1.879-2.126,3.857-4.1h0c2.621-2.72,5.34-5.241,8.06-7.615,1.384,2.274-.148,4.6,1.286,7.219,1.879,3.362,6.873,3.857,7.713,3.956,8.356.841,15.279-7.219,18.641-11.125,4.055-4.7,9.3-9.84,7.713-13-1.978-3.956-7.565-1.088-9.79-5.291l-.1-.148,6.626-3.857,1.829-1.038c14.438-8.109,43.71-21.311,117.631-26.107s111.351-7.219,155.7,7.219c40.5,13.2,92.512,41.435,122.575,72.091" transform="translate(0 -355.438)" fill="#ae3527"/>
      <path id="Path_194505" data-name="Path 194505" d="M297.771,291.352c.89.643,1.879,1.088,2.225,2.225a1.433,1.433,0,0,0,.445.593c1.187.989,2.571,1.731,3.511,3.066.148.2.791.049.841-.247a13.949,13.949,0,0,0,.445-3.165c-.1-1.038.049-1.978,0-2.967a11.343,11.343,0,0,0-1.335-5.884,13.8,13.8,0,0,1-.494-1.928c-.247-.643-.2-.742.1-.939s.742.2.989.494a4.8,4.8,0,0,0,.742.989c1.681,1.187,2.275,3.016,2.769,4.9.841,3.115,1.632,6.23,2.472,9.345a2.472,2.472,0,0,1,.049,1.236.892.892,0,0,0,.4,1.088c.4.148.791-.445.989-.841a47.171,47.171,0,0,1,2.176-4.5c1.928-3.066,2.571-6.675,4.549-9.691.1-.148.247-.3.247-.445-.1-2.423,1.533-4.351,2.027-6.576.247-1.038.593-2.077.742-3.165s.049-2.126,1.038-2.967.3-.742.346-1.187a17.008,17.008,0,0,0,.148-3.956,2.67,2.67,0,0,1-.049-.742,29.364,29.364,0,0,0-.049-10.186c-.3-2.126-.742-4.2-1.137-6.329a10.235,10.235,0,0,0-1.335-3.758,7.438,7.438,0,0,0-6.28-3.263c-.4,0-.841.2-1.236-.049a26.086,26.086,0,0,0-3.708-1.434c-2.077-.791-2.225-.989-4.055-3.461v.1c.3-.544.643-.742.939-.494s.2.4.346.593a.494.494,0,0,0,.4.2c.247,0,.3-.148.1-.346s-.494-1.236-1.236-1.434-.593-.494-.791-.89a.692.692,0,0,1,.593-1.038,2.917,2.917,0,0,1,.939.148,2.917,2.917,0,0,0,1.928.049c0,1.088.049,1.187.742,1.384a.331.331,0,0,0,.346-.544l-1.187-.791a38.123,38.123,0,0,1-8.9-5.736,16.711,16.711,0,0,0-1.829-1.286c-.4-.247-.89-.445-.989-1.038a.841.841,0,0,0-.445-.544c-2.225-.841-3.956-2.67-6.428-3.016a1.978,1.978,0,0,1-1.137-.4,4.017,4.017,0,0,0-2.571-.841,4.035,4.035,0,0,1-3.016-1.483,2.182,2.182,0,0,0-2.176-.989,22.251,22.251,0,0,1-5.142-.989,3.987,3.987,0,0,0-2.621.346c-.841.3-.247.593-.445.1s-.841-.643-1.434-.643c-1.582.049-3.165-.1-4.6.742a7.219,7.219,0,0,0-5.291,1.632c-.346.247-.989.148-1.483.148a2.868,2.868,0,0,0-1.879.544l-2.225-.1a.692.692,0,0,1-.692-.593.776.776,0,0,1,.692-.841,26.825,26.825,0,0,1,2.67-.494,22.545,22.545,0,0,0,4.7-1.483.692.692,0,0,0,.346-.593c-.049-.2-.346-.346-.544-.4a5.883,5.883,0,0,0-.989-.148.643.643,0,0,1-.4-.3.346.346,0,0,0-.346-.148,8.8,8.8,0,0,1-4.252-3.313,15.787,15.787,0,0,0-1.533-1.632,6.724,6.724,0,0,1-1.384-1.78c-.643-1.632-2.027-2.769-2.621-4.45a4.153,4.153,0,0,0-1.978-2.176,4.92,4.92,0,0,1-2.423-2.472c-.445-1.187-1.187-1.187-1.879-1.533a2.67,2.67,0,0,1-1.088-.939,13.745,13.745,0,0,0-3.214-3.511c-.989-.692-1.434-2.027-2.621-2.621a.643.643,0,0,1-.247-.4c-.247-1.384-1.335-2.274-1.78-3.56-.148-.544-.742-.939-.346-1.582a.494.494,0,0,0-.049-.445c-1.384-1.384-1.829-3.313-2.769-4.945a7.267,7.267,0,0,0-.544-.791h-.2c-.2.1-.247.3-.1.4a8.7,8.7,0,0,0,1.137.4l.445.148c-.544.89.2,1.137.742,1.483l1.78.89c.692-.692-.2-1.434.247-2.176s-.1-1.434-.4-2.126a.742.742,0,0,1-.049-.494c.544-1.384-.1-2.67-.4-3.906a16.061,16.061,0,0,1-.148-4.4,1.038,1.038,0,0,1,.939.841,6.526,6.526,0,0,0,.939,2.472,2.621,2.621,0,0,1,.445,1.681c-.247,2.522.494,4.945,1.088,7.367a5.042,5.042,0,0,1,.3,1.187c-.049,2.67,1.384,4.747,2.917,6.725s3.906,4.747,5.884,7.071a4.994,4.994,0,0,0,1.582,1.137,14.587,14.587,0,0,1,3.016,2.225,10.731,10.731,0,0,0,2.077,1.384c.643.346,1.236.643,1.483,1.483s1.137,1.187,1.879,1.533a5.34,5.34,0,0,1,2.472,1.978c.791,1.335,2.176,1.434,3.412,1.533a11.67,11.67,0,0,1,2.769.692,29.756,29.756,0,0,0,7.219,1.829c1.483.1,2.967.4,4.45.593a4.9,4.9,0,0,1,1.632.544c1.088.593,2.275.989,3.412,1.483s2.027,1.088,3.115,1.582a12.313,12.313,0,0,0,3.758,1.187,11.378,11.378,0,0,1,1.681.445c1.483.445,2.67,1.731,4.4,1.681a23.534,23.534,0,0,0,4.055,1.928,5.931,5.931,0,0,1,1.038.692,11.452,11.452,0,0,0,3.461,1.978,4.6,4.6,0,0,1,1.434.939,49.694,49.694,0,0,0,8.06,5.241,9.741,9.741,0,0,1,1.879,1.286,6.379,6.379,0,0,0,1.978,1.038,1.8,1.8,0,0,0,2.621-1.384,7.764,7.764,0,0,0,0-3.956,14.684,14.684,0,0,1-.4-2.719c-.247-2.225-.692-4.4-1.137-6.576-.2-.939-.791-1.829-.247-2.868a1.335,1.335,0,0,0-.148-.989,14.289,14.289,0,0,1-1.236-4.8,8.9,8.9,0,0,0-.643-1.879v-1.137h0a1.978,1.978,0,0,1,1.335,1.681,2.769,2.769,0,0,0,.692,1.533.643.643,0,0,0,.4.2.494.494,0,0,0,.495-.445,9.493,9.493,0,0,0-.544-5.142V202.8l-.2-.791c-.148-2.324-.2-4.648-1.286-6.823a1.286,1.286,0,0,1-.049-.989c.544-1.137.049-2.176-.346-3.165s-.544-2.126-1.384-2.868-.2-.593-.247-.939a17.119,17.119,0,0,0-2.917-7.367,1.632,1.632,0,0,1-.247-.445c-.791-2.472-2.67-4.1-4.549-5.835s-2.72-1.78-4.005-2.818a10.111,10.111,0,0,0-4.153-2.274c-1.582-.346-.989-1.335-1.879-1.533s-1.582.1-2.176-.4c-1.483-1.286-3.263-1.236-4.945-1.236a11.175,11.175,0,0,1-3.857-.692,6.576,6.576,0,0,0-3.412-.4c-1.187.2-2.472-.148-3.708.4-.3.148-.791-.049-1.187-.2-1.187-.346-2.324.247-3.461.2a1.286,1.286,0,0,0-.939.742c-.544,1.384-1.78,2.373-2.324,3.807-.4-1.187-.4-1.187.1-2.967a.544.544,0,0,0-.247-.643.861.861,0,0,0-.692-.049c-1.582,1.335-3.708,1.829-5.043,3.56a4.433,4.433,0,0,1-1.978,1.829c-.89.3-.939,1.582-1.978,1.731s-.692.643-.939,1.137a13.38,13.38,0,0,1-2.571,2.967,1.533,1.533,0,0,1-.247-1.582,6.231,6.231,0,0,0,.692-1.879,2.373,2.373,0,0,1,1.137-1.582,7.862,7.862,0,0,0,2.373-2.522,5.439,5.439,0,0,1,1.335-1.483,25.71,25.71,0,0,0,5.043-5.142c-.247-1.829-1.928-2.324-3.263-3.016a3.857,3.857,0,0,1-1.434-1.236.5.5,0,0,1-.049-.643.89.89,0,0,1,.643-.3c1.187.247,2.472.346,3.412,1.335a11.44,11.44,0,0,0,.89.841,2.749,2.749,0,0,0,3.263,1.088,18.1,18.1,0,0,1,5.686-.4,11.965,11.965,0,0,0,4.945-.3c.2-.1.544-.148.692,0,1.137.989,2.522.346,3.758.544a14.337,14.337,0,0,1,3.016.692,12.411,12.411,0,0,0,3.165.742,69.471,69.471,0,0,1,7.071,1.582,14.634,14.634,0,0,1,3.016,1.236,4.983,4.983,0,0,0,1.582.692c.593.049,1.088.643,1.384.247s1.533-.4,1.632-1.335a1.091,1.091,0,0,0,0-.247,1.829,1.829,0,0,0-.049-.643c-.1-.148-.346-.4-.494-.346s-.148.494-.148.742-.643-1.187-1.434-1.187h-.247c-.049,0-.049.1-.049.148h.445a.544.544,0,0,0,.346-.791,6.183,6.183,0,0,0-.791-1.286,2.225,2.225,0,0,1-.643-1.038,1.731,1.731,0,0,1,1.582.148,8.155,8.155,0,0,0,1.335.593.742.742,0,0,0,.939-.544,5.342,5.342,0,0,0,.2-1.236,29.3,29.3,0,0,0-.593-7.466c-.643-2.472-1.137-4.5-1.731-6.774a6.773,6.773,0,0,0-.643-1.335c-1.434-2.72-2.868-5.39-4.252-8.159-.742-1.483-1.286-3.066-1.928-4.6a8.255,8.255,0,0,0-.742-1.582,27.121,27.121,0,0,1-2.967-6.576,14.187,14.187,0,0,0-.544-1.384q-1.038-2.225-1.928-4.6a31.146,31.146,0,0,0-3.016-6.527.989.989,0,0,1-.247-.445c-.148-2.522-2.225-4.005-3.214-6.082h-.1l-.89-.692-.445-.3a1.582,1.582,0,0,1-.841-.939h.742c2.423.3,2.472.049,1.434-2.027l-.742-1.533a1.928,1.928,0,0,0-.3-1.335h0l-.148-1.236a.346.346,0,0,0-.247-.494L286,93.966c.445-.791,1.088-.346,1.681-.3l.2.989a.434.434,0,0,0,.4.544.643.643,0,0,1,.247.445l.346.544a.445.445,0,0,1,.2.346,1.533,1.533,0,0,0,.593,1.632l.148,1.038.2.494,1.038,1.434a1.928,1.928,0,0,0,.841,2.126l.643,1.384a22.107,22.107,0,0,0,.4,2.225,2.818,2.818,0,0,0,1.434,1.978v.1l.544,2.621a1.731,1.731,0,0,0,1.088,1.236.791.791,0,0,1,.049.841,3.214,3.214,0,0,0,1.632,2.769,6.773,6.773,0,0,0,1.137,1.632,5.341,5.341,0,0,1,1.286,2.373,8.752,8.752,0,0,0,2.472,3.956c1.038,1.038,1.78,2.373,2.868,3.412s.593,1.533.89,2.324a.841.841,0,0,0,.544.445.494.494,0,0,0,.494-.445c.346-2.621.742-5.291,1.038-7.911a21.115,21.115,0,0,0,.1-3.263,18.247,18.247,0,0,1,.445-4.2,1.967,1.967,0,0,0-.148-1.879c-.494-.643-.049-.939,0-1.434a45.146,45.146,0,0,0,.148-9.741,1.978,1.978,0,0,1,.148-1.434,4.527,4.527,0,0,0,.544-3.362c-.1-1.088.148-2.176-.346-3.214s.049-.791.1-1.187a26.862,26.862,0,0,0,.692-7.961,7.814,7.814,0,0,1,.1-1.236c.1-1.483.593-2.917.247-4.45a.545.545,0,0,1,0-.247c.3-1.137.643-2.225.841-3.412s-.4-2.126.1-3.214a3.018,3.018,0,0,0,.148-.742,12.479,12.479,0,0,0-.3-7.12,17.053,17.053,0,0,1-.742-3.165c-.1-.593-.1-1.137-.692-1.483s-.3-.544-.445-.89c-.445-1.236-.939-2.472-1.286-3.758a7.021,7.021,0,0,0-2.373-3.461,28.088,28.088,0,0,0-2.967-2.274,30.857,30.857,0,0,1-3.659-2.571c-2.423-2.077-5.34-3.313-8.158-4.7-1.731-.841-3.362-1.829-4.994-2.818-.3-.148-.643-.544-.841-.445-1.335.4-2.225-.544-3.263-1.038a49.694,49.694,0,0,0-11.125-4.252,2.324,2.324,0,0,1-1.483-.89,3.259,3.259,0,0,0-2.67-1.137,15.131,15.131,0,0,1-3.708-.346,2.176,2.176,0,0,0-1.829-.593,10.143,10.143,0,0,1-3.461-.148c-1.879-.148-3.807-.445-5.686.346l-1.088-.742-2.621-.692,2.225-1.038a5.686,5.686,0,0,1,2.72,0,3.461,3.461,0,0,0,2.423-.3.544.544,0,0,0,.3-.4.494.494,0,0,0-.247-.4,13.845,13.845,0,0,0-2.571-.989,21.261,21.261,0,0,1-6.28-2.274,2.126,2.126,0,0,0-.939-.247,7.323,7.323,0,0,1-4.1-1.632c-1.236-.89-2.868-1.681-4.3-2.522l-.445-.4-.544-.593.445-1.384.544.445a1.731,1.731,0,0,0,1.582.445c.742,0,1.038.791,1.681,1.038s.791.593,1.088.494c1.286-.346,2.225.346,3.263.89.247.148.643,0,.989,0s1.137,0,1.236.841.544.346.791.1a1.038,1.038,0,0,1,1.384-.1c.841,2.621.89,2.126,3.263,2.126a5.933,5.933,0,0,0,1.187-.247l1.088.692c.643,1.384,1.829,1.384,3.066,1.236,2.077.939,4.3,1.632,6.378,2.571a42.65,42.65,0,0,0,6.873,2.027c1.385.346,2.769.494,4.153.89s2.522-.049,3.708.3,2.373.841,3.56,1.236a6.677,6.677,0,0,0,.989.148,10.2,10.2,0,0,1,4.846,1.829c1.434,1.137,2.472,1.681,3.659,2.571a4.4,4.4,0,0,1,1.088,1.335,7.911,7.911,0,0,0,3.066,2.868,21.509,21.509,0,0,0,3.758,1.879,9.3,9.3,0,0,1,3.066,1.632.742.742,0,0,0,.89.2c.346-.544-.049-1.137.049-1.681s1.137-.148,1.335.494A5.615,5.615,0,0,0,306.77,45.9c.89.742.692.346,1.038,0l.841-.89a2.561,2.561,0,0,1,.89,1.978,2.225,2.225,0,0,0,.989,1.632,3.115,3.115,0,0,1,1.384,2.522,4.4,4.4,0,0,0,.89,2.324,1.572,1.572,0,0,1,.346,1.829c-.4.742.1.593.445.742a8.258,8.258,0,0,1,.939.643c.692-1.038.593-2.274.89-3.412.841-3.214,1.632-6.428,2.275-9.691a28.924,28.924,0,0,1,2.769-8.01c.445-.89,1.137-1.632.742-2.769a1.038,1.038,0,0,1,.2-.692c1.384-2.472,1.928-5.291,3.412-7.763a21.834,21.834,0,0,0,2.522-6.477,4.2,4.2,0,0,1,.939-2.027,8.74,8.74,0,0,0,1.978-3.708,37.44,37.44,0,0,0,1.582-4.994c.3-1.78,1.384-3.016,2.225-4.45a2.126,2.126,0,0,0,.494-1.533h0l.494-.643a.346.346,0,0,1,.049-.3c.544-.445.939-.346,1.187.247,0,1.731-1.137,3.115-1.582,4.7-.049.148-.346.2-.346.346-.1,1.731-1.088,3.115-1.632,4.648a46.773,46.773,0,0,0-2.176,7.417,6.329,6.329,0,0,1-.742,1.582,1.632,1.632,0,0,0-.3,1.187c.247.89.3,1.632-.841,1.928-.247.049-.2.445,0,.593a1.236,1.236,0,0,1,.4,1.533,2.005,2.005,0,0,0-.247,1.681c.247.643.049.445-.049.494-1.78.939-.544,3.016-1.632,4.2-.593,2.818-1.78,5.538-2.126,8.455-.1.989-1.088,1.731-.791,2.818-.841,2.769-.593,5.785-2.077,8.455a2.324,2.324,0,0,0-.2.989c-.148,2.67-1.384,5.142-1.681,7.763a9.611,9.611,0,0,1-.841,2.077c-.841,2.967-1.236,5.983-1.78,9a6.079,6.079,0,0,0,.2,3.857,4.005,4.005,0,0,1,.247,1.483,46.379,46.379,0,0,0,2.027,12.262,11.994,11.994,0,0,1,.2,2.967.841.841,0,0,0,.4.544c.247.2.494-.049.643-.247,1.533-1.978,3.362-3.659,4.6-5.884a6.478,6.478,0,0,1,1.681-1.829c.643-.544.4-1.434.989-1.928a12.064,12.064,0,0,0,2.176-2.719,12.463,12.463,0,0,0,1.286-2.126,2.126,2.126,0,0,1,1.286-1.384,2.5,2.5,0,0,0,1.335-1.731,9.938,9.938,0,0,1,3.016-4.45,1.879,1.879,0,0,1,.989,1.038l-.3.445a.4.4,0,0,0-.3.3l-.4.593c-.841.247-.841.3-.593,1.088-.544,1.088-1.434,2.027-1.681,3.313a1.484,1.484,0,0,1-.3.692c-1.533,1.78-2.423,3.956-3.857,5.785s-3.016,3.511-4.6,5.192a13.746,13.746,0,0,0-2.126,2.719,9.841,9.841,0,0,1-2.423,3.115c-1.978,1.582-1.978,3.906-2.373,6.082-.2.989-.3,1.928-.544,2.917a23.63,23.63,0,0,0-.939,6.131c.049,2.077-.593,2.769-.841,4.153a28.356,28.356,0,0,0-.692,5.933,9.2,9.2,0,0,1-.148,1.483,18.493,18.493,0,0,0,0,5.439,11.62,11.62,0,0,1-.247,4.5,12.856,12.856,0,0,0,.346,6.181,28.678,28.678,0,0,1,.989,8.653,26.479,26.479,0,0,0,2.423,10.581c.2.494-.148,1.384.643,1.434s.89-.742,1.137-1.236c2.176-3.659,5.241-6.675,7.714-10.136a19.084,19.084,0,0,1,2.225-2.373c.791-.791,2.027-1.236,2.027-2.67,0-.2.3-.4.494-.544A22.794,22.794,0,0,0,339.6,130.7a1.483,1.483,0,0,1,.643-1.038c1.236-.544,1.483-1.78,1.829-2.868a13.1,13.1,0,0,0,.692-3.412c.049-1.384.89-2.67,1.038-4.1s.593-2.274.643-3.412a15.823,15.823,0,0,1,.742-3.906c.346-1.286.692-2.522.989-3.857a20.693,20.693,0,0,1,1.681-3.906l.989,1.533c-.1.742-.742,1.335-.494,2.126s.1,1.187-.643,1.384a.2.2,0,1,0-.1.4c.742.692.247,1.335.1,2.077a6.182,6.182,0,0,0-.049,2.423,13.9,13.9,0,0,1-.049,5.192,44.683,44.683,0,0,1-1.582,8.06c-.049.148.148.445.247.643s.3.049.494,0l.445-.2a30.445,30.445,0,0,1,9.543-4.153,22.9,22.9,0,0,0,4.8-2.077,19.526,19.526,0,0,1,2.027-.939c.3-.148.643-.2.742-.544a4.706,4.706,0,0,1,2.077-1.632,81.564,81.564,0,0,1,8.406-3.165,15.822,15.822,0,0,0,4.351-1.731,2.225,2.225,0,0,1,1.137-.445c1.879.1,3.165-1.038,4.351-2.126s2.571-1.533,3.263-3.016c.148-.3.692-.445,1.038-.643a49.2,49.2,0,0,0,6.131-3.807,20.461,20.461,0,0,0,1.928-1.582,40.693,40.693,0,0,1,4.005-3.362,4.5,4.5,0,0,0,1.533-1.879,5.439,5.439,0,0,1,2.324-2.571l.643-.445.445-.494.544-.593.494-.445h.692v1.236a10.575,10.575,0,0,0-.939.791c-.346.4-.989.643-.841,1.335l.2.1c.643-.049.94-.593,1.236-1.038a6.085,6.085,0,0,0,.4-1.137c1.483-.939,3.066-1.879,3.461-3.807h-.049a1.385,1.385,0,0,0,1.236-.742c.692-1.384,2.126-2.077,3.016-3.313a15.97,15.97,0,0,1,3.016-3.313,4.154,4.154,0,0,0,1.038-1.384,24.474,24.474,0,0,1,4.7-6.131,21.855,21.855,0,0,0,4.1-5.291,15.726,15.726,0,0,1,2.67-3.263,11.174,11.174,0,0,0,2.373-3.165c.3-.692,1.088-1.187,1.286-1.829.445-1.978,2.077-3.165,3.066-4.747a35.157,35.157,0,0,0,3.758-7.565,4.1,4.1,0,0,1,.494-.841,3.214,3.214,0,0,0,.939-1.582h-.049l.544-.544.445-.445a1.286,1.286,0,0,1,.049,1.632,1.286,1.286,0,0,0-.148,1.384,1.088,1.088,0,0,1-.2.989A1.335,1.335,0,0,0,442.349,51a67.1,67.1,0,0,1-5.093,9.691,3.164,3.164,0,0,1-.791.939,3.61,3.61,0,0,0-1.384,2.027,1.137,1.137,0,0,1-.2.445c-1.78,1.978-2.423,4.747-4.3,6.675-.247,1.137-1.384,1.582-1.978,2.522s-1.038,2.274-1.731,3.313-1.632,1.829-2.274,2.917a41.888,41.888,0,0,1-5.934,7.268,5.789,5.789,0,0,0-.841.89c-1.137,1.928-2.917,3.066-4.549,4.45L409.913,95c-.643.544-1.038,1.335-1.978,1.434-.94,1.286-2.423,1.978-3.461,3.165a47.171,47.171,0,0,1-5.142,4.7,57.314,57.314,0,0,0-4.7,4.45c-1.483,1.533-1.681,1.582-2.917,1.829s-.94.247-1.038,1.533a1.58,1.58,0,0,1-.148.4l-.4-.544a.542.542,0,0,0-.841-.1c-.247.2-.445.346-.494.544-.247,1.335-1.879,1.582-2.274,2.818a1.236,1.236,0,0,1-1.088.445c-1.434-.4-2.472.494-3.313,1.286A3.56,3.56,0,0,1,380,118a3.115,3.115,0,0,0-1.978.939c-.89.89-2.274.89-3.362,1.483A13.446,13.446,0,0,1,371.246,122c-.3.049-.544.4-.791.593s-.445.544-.742.643c-2.67,1.038-4.7,3.066-7.12,4.6-.494.3-1.088.445-1.582.692-2.472,1.335-5.142,2.274-7.17,4.351s-5.439,5.39-8.257,7.961a80,80,0,0,1-7.021,5.933,8.01,8.01,0,0,0-2.225,1.978c-.593.89-1.879.989-2.571,1.829s-1.187.841-1.384,1.681-1.236,1.187-1.434,1.978-.3,1.632-1.137,2.126c-.247,1.533-1.335,2.67-1.78,4.055a21.41,21.41,0,0,1-2.472,5.142c-1.038,1.582-1.928,3.313-2.818,4.994s-.445,2.917-.148,4.4.742,2.373.939,3.61,1.137,2.225,1.088,3.511a1.187,1.187,0,0,0,.445.841c.3.3.742.494.841.841a7.646,7.646,0,0,0,2.126,2.027c.841.544,1.533,1.236,2.423,1.088a4.846,4.846,0,0,0,2.769-1.582,10.136,10.136,0,0,0,2.274-3.807,3.591,3.591,0,0,0-.346-3.313c-.2-.247-.2-.692-.445-.89-1.137-1.088-.692-2.472-.742-3.758s.643-1.335.939-1.978a1.137,1.137,0,0,1,.791,1.384c-.445,1.632.3,2.719,1.483,3.708l.791,1.335c.841.593,1.681.89,2.522.1a10.976,10.976,0,0,0,3.164-1.731c.89-.692,1.879-1.632,3.362-1.187s1.434-.3,2.027-.791a14.838,14.838,0,0,1,2.077-1.384,3.066,3.066,0,0,1,1.335-.247c1.236-.148,2.621-.2,3.412-1.533s1.286-1.286,2.027-1.829a12.236,12.236,0,0,0,2.818-1.978c.742-.939,1.038-.494,1.582-.643a9.989,9.989,0,0,0,2.472-1.038,8.6,8.6,0,0,0,2.868-2.274c.742-1.038.544-.346.841-.445a.544.544,0,0,1,.742.445,2.787,2.787,0,0,1-1.335,3.016,7.131,7.131,0,0,1-1.829.791c-.593.247-.692.494-1.137,1.384a.989.989,0,0,0,.841-.4c.494-.593,1.187-.544,1.829-.692s.791.247.989.593a.742.742,0,0,1-.049.89,5.637,5.637,0,0,1-3.461,2.225,15.526,15.526,0,0,0-3.412,1.384,13.45,13.45,0,0,1-4.7,1.483,4.5,4.5,0,0,0-2.868,1.384,13.6,13.6,0,0,1-3.807,2.67c-1.632.791-3.165,1.78-4.846,2.522s-2.126,2.077-3.165,3.066a24.428,24.428,0,0,0-2.719,3.214,50.131,50.131,0,0,0-4.7,6.922,10.532,10.532,0,0,0-1.038,3.807,50.636,50.636,0,0,0-.445,6.725c.1,1.483.445,2.917.544,4.45a40.546,40.546,0,0,1-.247,6.725,8.049,8.049,0,0,0,1.038,5.538,2.571,2.571,0,0,1,.445.89,14.9,14.9,0,0,0,1.384,3.461,44.156,44.156,0,0,1,3.016,9.691,10.477,10.477,0,0,0,.346,1.434c.1.3.148.692.544.742s.593-.247.791-.494a6.87,6.87,0,0,0,.346-.643,15.232,15.232,0,0,1,3.115-4.2,6.131,6.131,0,0,0,1.681-2.423c.544-1.335,1.483-2.423,2.077-3.659.989-2.077,2.67-3.807,3.016-6.181l.643-.692a.346.346,0,0,1,.1-.3l.3-.544.3-.544.247-.89h.049l.445-.445.3-.692a2.67,2.67,0,0,0,.1-1.582,6.082,6.082,0,0,1,1.286-1.829l.346-.445h.049a1.582,1.582,0,0,0,.841-1.187.494.494,0,0,1,.1-.346l.346-.791a.2.2,0,0,1,.2-.2c1.187-.049,1.187-.049,1.335-1.236l.2-1.286.445-.445a6.378,6.378,0,0,0,1.483-2.077c.94-.593,1.286-1.681,1.928-2.522s.841-.247,1.187.148a2.126,2.126,0,0,1-.3,1.384l-1.038,1.632a1.137,1.137,0,0,0,.2,1.335v.494a2.867,2.867,0,0,0-.643.148c-.445.247-.445.544-.049.841a3.115,3.115,0,0,1,0,1.533l-.3.445c.148.247.2.593.4.791s.544.049.643-.3h-.049c-.148.3-.049.643.247.643s.4-.346.3-.643h-.1a.643.643,0,0,0,.841.3,22.03,22.03,0,0,0,5.34-3.066c.593-.445,1.038-1.088,1.978-.791a.84.84,0,0,0,.692-.247c1.681-1.483,3.857-2.225,5.488-3.807a6.132,6.132,0,0,1,3.461-1.286c.1,0,.247.148.346.247s0,.148-.049.247-.148.346-.3.4a9.1,9.1,0,0,0-2.72,2.423,4.2,4.2,0,0,1-1.434.939,15.526,15.526,0,0,0-4.549,3.016c-1.286,1.384-1.533.989-2.225,1.582a22.109,22.109,0,0,0-5.043,4.8,2.571,2.571,0,0,1-.643.742,6.729,6.729,0,0,0-2.522,3.313c-1.187,2.719-2.72,5.291-3.906,8.01a33.963,33.963,0,0,0-2.027,5.538,8.408,8.408,0,0,0-.2,1.236,3.048,3.048,0,0,0,.89,2.769c.791.593,1.78.1,2.621-.3l4.45-2.225a3.115,3.115,0,0,0,.791-.593,5.363,5.363,0,0,1,3.708-1.829,1.285,1.285,0,0,0,1.088-.544c.643-1.088,1.78-1.384,2.769-2.027s2.373-1.829,3.659-2.571a2.077,2.077,0,0,1,1.137-.4,29.81,29.81,0,0,1,4.2-.049c.445.1.742-.247.841-.742h.049c-.2-.1-.4-.4-.643-.148a7.541,7.541,0,0,0-.544.791c-.2.247-.89,1.384-1.978,1.088s-1.088.445-1.483.791a23.5,23.5,0,0,1-3.857,2.324,3.906,3.906,0,0,0-.989.742.742.742,0,0,0,.049,1.137,1.978,1.978,0,0,0,1.78.692c1.879-.346,3.857.148,5.637-.692a2.669,2.669,0,0,1,1.236.049,13.6,13.6,0,0,0,1.978.2c1.483-.049,2.967-.346,4.1.989.049.1.3,0,.445,0l.346-.1c-.1-.1-.2-.3-.3-.3a12.583,12.583,0,0,0-1.829.4c-.593.2-.494.494-.841.4-1.879-.544-3.609.2-5.291.742s-3.263.2-4.9.544l-2.967.494a2.818,2.818,0,0,0-1.187.346,30.078,30.078,0,0,1-4.351,2.225c-2.571,1.335-5.291,2.324-7.862,3.659a3.708,3.708,0,0,1-1.187.346,3.75,3.75,0,0,0-2.472,1.78c-1.533,2.027-2.917,4.2-5.043,5.785a32.293,32.293,0,0,0-4.252,4.2,5.092,5.092,0,0,0-.939,1.978,7.813,7.813,0,0,1-1.088,2.522,5.043,5.043,0,0,0-.841,3.066,4.164,4.164,0,0,1-.692,2.818c-.742.89-.3,1.434-.4,2.176a8.855,8.855,0,0,1-.989,3.758,4.9,4.9,0,0,0-.692,2.621,20.217,20.217,0,0,1-2.027,7.367,13.052,13.052,0,0,0-1.137,5.093,2.769,2.769,0,0,0,.4,1.434.692.692,0,0,0,.939-.049h0l1.038-.4h.049l.89-.643a1.829,1.829,0,0,1,1.038-.89l.989-.494h0a.544.544,0,0,0,.445-.148l.643-.841.89-.494.939-.593.544-.346,1.434-1.187c.593-.049,1.187-.049,1.533-.643a.346.346,0,0,1,.148-.3.593.593,0,0,0,.4-.247l.939-.791c2.176.247,2.176.247,1.038,1.928h-.1a7.813,7.813,0,0,0-3.412,3.511l-.494.989-.494.494h-.049a2.719,2.719,0,0,0-1.978,1.928c-.89,1.088-1.632,2.324-3.066,2.818-1.384,1.533-3.362,2.423-4.45,4.252-2.126,1.632-2.818,4.1-3.61,6.527s-1.483,6.28-2.621,9.3a13.2,13.2,0,0,0-.692,4.4c-.049,3.165-.742,6.28-.692,9.395s-.247,6.675,1.088,9.84c.148.346.346.593.692.593a.89.89,0,0,0,.791-.544,26.008,26.008,0,0,0,2.67-7.417,9.788,9.788,0,0,0,.3-2.72,10.008,10.008,0,0,1,.346-2.72.84.84,0,0,1,.494-.494c.3-.1.494.148.544.4a9.3,9.3,0,0,0,.791,2.571,1.78,1.78,0,0,1,0,1.434,15.378,15.378,0,0,0-.593,4.2,5.637,5.637,0,0,1-.89,3.066c-.494.791-.89,1.582-1.335,2.373a1.681,1.681,0,0,0-.692.989c-.3,1.187.247,1.83,1.384,1.632a8.8,8.8,0,0,0,3.016-.989l.1-.1a2.126,2.126,0,0,0,1.384-.445h.1c.692-.049,1.434-.593,1.879.445v.148h.148a4.6,4.6,0,0,0,1.582-1.137,8.877,8.877,0,0,1,2.868-1.928v1.088c-.94,1.582-2.522,2.621-3.758,3.956a2.324,2.324,0,0,1-1.088.544,55.28,55.28,0,0,1-5.785,1.335c-2.472.346-4.846,1.088-6.428,3.362a10.483,10.483,0,0,1-1.731,1.829,4.774,4.774,0,0,0-1.384,4.994,17.851,17.851,0,0,1,.445,3.214,8.455,8.455,0,0,0,1.335,4.5c.841,1.335,1.632,2.67,2.571,3.956s2.176,3.313,3.313,4.945a15.133,15.133,0,0,0,1.632,2.225,11.719,11.719,0,0,0,2.027,1.483c.791.494,1.385-.445,2.126-.3s.791-.2,1.187-.3.544.049.593.3a1.236,1.236,0,0,1-.2.692.89.89,0,0,1-.4.3.742.742,0,0,0-.4,1.038.939.939,0,0,0,1.038.593c1.088-.3,2.324-.3,3.313-1.038a3.559,3.559,0,0,1,1.088-.593,37.357,37.357,0,0,0,7.812-3.61c.989-1.286,2.522-1.483,3.906-1.978a32.187,32.187,0,0,1,4.648-.939c-.1.791-1.137,1.088-.89,1.978h-.494c-.3.049-.692-.049-.692.4s.4.3.593.3a4.248,4.248,0,0,0,.94-.2,7.812,7.812,0,0,0,2.423-.593,2.292,2.292,0,0,1,2.126-.2c.841.4,1.434-.148,2.176-.4s.989-.593,1.632-.494c2.373.4,4.6-.247,6.873-.643a1.758,1.758,0,0,1,.494-.1c1.582.445,3.313.148,4.9.742s-.1.445-.049.692-.643-.1-.742.247.2.346.346.544a1.929,1.929,0,0,0,1.384.494c1.78,0,3.362.841,5.142.89a1.681,1.681,0,0,1,.89.346c1.879,1.434,4.153,1.731,6.378,1.978A18.789,18.789,0,0,1,399.974,372c2.769,1.137,5.736,1.681,8.554,2.621a27.939,27.939,0,0,1,4.6,1.978c.692,1.187,1.681.643,2.621.4a.593.593,0,0,1,.4.148l.593.346.4.1,1.088.4a.593.593,0,0,1,.4.148c.989.989,2.225.989,3.511.939h.049a5.8,5.8,0,0,0,4.5.989h0c1.038.692,2.274.4,3.412.544l.593.544a3.264,3.264,0,0,0,1.483.593c.643.148.841.593.989,1.187l-.593.148-4.4-.89h-.247c-.247,0-.544-.049-.692.1s0,.593.2.841a2.917,2.917,0,0,1,.4.593.643.643,0,0,1-.692.791c-2.67-.742-5.587-.692-8.109-2.077a5.043,5.043,0,0,0-2.176-.4h-.4c-.247-.742-.989-.939-1.533-1.335h0a23.788,23.788,0,0,1-4.3-.593.544.544,0,0,1-.247-.3.3.3,0,0,0-.3-.148l-1.632-.346a1.385,1.385,0,0,0-1.434-.692,3.461,3.461,0,0,1-1.137-.4l-4.9-2.373-.247-.1c-1.978,0-3.659-1.088-5.538-1.335a7.715,7.715,0,0,1-1.632-.544,16.228,16.228,0,0,0-4.005-1.187,17.788,17.788,0,0,1-4.252-1.384A29.517,29.517,0,0,0,380,370.069c-1.533-.247-3.115-.4-4.648-.692a6.23,6.23,0,0,0-3.609.494c-2.225.89-4.549,1.483-6.873,2.176a5.334,5.334,0,0,1-.989.1c-1.879.2-3.857.049-5.637.89a2.521,2.521,0,0,1-1.236.1A5.835,5.835,0,0,0,353,374.272a41.98,41.98,0,0,1-5.736,2.967.544.544,0,0,0-.2.989c1.187,1.038,2.176,2.274,3.659,2.917a34.016,34.016,0,0,1,3.263,1.83c.2.1.494.3.643.247,1.187-.494,2.126.2,3.115.544a22.754,22.754,0,0,0,9.1.989h.247c.841.1,1.483-.791,2.373-.593a5.933,5.933,0,0,0,2.225-.049c1.78-.247,1.978-.1,2.967,1.681a1.532,1.532,0,0,1,.346,1.978c-.3.742.148.3.247.346a.544.544,0,0,0,.445-.1c.593-.593.593-1.533.989-2.225h.89l2.67.4a3.511,3.511,0,0,0,2.967-.841h.593a5.785,5.785,0,0,0,3.263.841,6.373,6.373,0,0,1,1.236,0c.742.148.841.643.643,1.286-1.434,1.088-3.066.841-4.648.742l.148-.494a7.219,7.219,0,0,1-2.917.4h-.445c0,.2.1.247.346.2a.841.841,0,0,1,.494.049.416.416,0,0,1,.247.593,3.066,3.066,0,0,1-2.126,1.088,1.681,1.681,0,0,1-1.879-.94c-.494-.3-.049-.494.049-.742s0-.445-.3-.3-.1.247.1.346.593.346.1.643a.791.791,0,0,1-.494.791,7.4,7.4,0,0,1-3.61.742c-1.335-.148-3.659-.148-5.488-.3a31.179,31.179,0,0,1-8.752-1.681,4.055,4.055,0,0,0-2.917-.247,12.83,12.83,0,0,1-1.978.148c-.643.1-1.978-.593-3.016-.791s-2.176.544-3.165.049-1.731-.692-2.522-1.088c-2.522-1.335-4.994-.989-7.466-.049s-4.055,1.483-6.28,1.236c-.593-.049-.989.148-.989.791a1.088,1.088,0,0,0,.742.643,1.78,1.78,0,0,1,1.384.445.346.346,0,0,0,.346.2l.742.346h.939l.494.494c-.247.3-.494.643-.742.939s-.742.742.3,1.632l.4.593.445.445h.049l.544.4.544.445.939.593a2.943,2.943,0,0,0,1.088,1.928,1.532,1.532,0,0,0,.939.593h.049v.989h-1.384c-1.236-.791-2.621-1.434-3.412-2.818s-1.187-.841-1.731-1.335c-1.582-1.483-2.522-3.461-4.153-4.945a12.9,12.9,0,0,0-1.236-1.236c-1.78-1.236-3.56-2.423-5.39-3.56a4.252,4.252,0,0,0-1.681-.494c-1.879-.247-3.807-.4-5.686-.692a7.28,7.28,0,0,1-3.066-.841c-.89-.643-1.483.148-2.176-.2s-1.335.247-2.027.445c-1.582.494-3.066,1.286-4.6,1.879a29.422,29.422,0,0,0-3.115,1.533,3.214,3.214,0,0,0-1.582,1.533,8.159,8.159,0,0,1-1.731,2.423,4.2,4.2,0,0,0-1.038,1.681,19.584,19.584,0,0,1-1.384,3.214c-.346.742-.4,1.681-1.384,1.928a.594.594,0,0,0-.3.4c-.593,2.126-2.472,3.461-3.164,5.538-.989.939-1.978,1.978-3.511,2.027a.511.511,0,0,0-.049-.2s.742-1.088.445-1.582-1.038-.1-1.582,0-1.137.4-1.632-.148c.593-.346.841-1.137,1.731-.989a10.334,10.334,0,0,0,4.055-3.906,9.006,9.006,0,0,0,1.434-3.659c.1-1.335.593-1.335,1.088-1.928a7.318,7.318,0,0,0,1.681-3.56,18.987,18.987,0,0,1,1.533-4.747c.247-.494.692-.939.445-1.731-2.769.148-5.291.593-7.417,2.769a13.548,13.548,0,0,1-7.318,4.005l-.494.1a16.81,16.81,0,0,1-5.241,1.384,5.34,5.34,0,0,0-3.511,1.78c-.89.989-2.275,1.434-2.818,2.769-.148.3-.692.445-1.038.643a14.9,14.9,0,0,0-4.6,4.7,6.577,6.577,0,0,1-2.324,2.472,12.9,12.9,0,0,0-4.055,3.956l-.939.247-.544.742a1.731,1.731,0,0,1-1.038-1.088l.3-.89a1.434,1.434,0,0,0,.841-.89l.2-.1a2.868,2.868,0,0,0,1.286-1.928c.4-.791,1.286-1.088,1.83-1.681l.544-.593h0a1.582,1.582,0,0,0,1.533-1.038,1.187,1.187,0,0,1,.643-.791l.494-.494a2.967,2.967,0,0,1,1.187-1.582,4.7,4.7,0,0,0,1.384-1.731.494.494,0,0,0-.445-.742,4.52,4.52,0,0,0-2.917.4,4.6,4.6,0,0,1-2.571.643,16.961,16.961,0,0,0-6.23,1.434,2.867,2.867,0,0,1-1.632.4,8.976,8.976,0,0,0-3.214.4c.742-.593,1.632-.989,1.928-1.978a9.547,9.547,0,0,0,1.187-.4,19.135,19.135,0,0,1,4.2-1.483,28.346,28.346,0,0,0,8.406-3.708,6.179,6.179,0,0,1,1.533-.841,48.606,48.606,0,0,0,6.477-2.472,18.74,18.74,0,0,0,7.17-4.846,17.8,17.8,0,0,1,5.835-4.5c-1.187-1.384-2.225-1.978-3.609-1.78a26.609,26.609,0,0,1-3.956.2,8.852,8.852,0,0,0-3.56,1.038c-1.335.593-2.769.593-4.055,1.236a1.187,1.187,0,0,1-.692-.049c-.247-.049-.544-.3-.692-.2-1.434.742-3.164.148-4.549.939a10.384,10.384,0,0,1-4.549,1.038,7.371,7.371,0,0,0-4.945,1.928,1.78,1.78,0,0,1-1.137.494,7.07,7.07,0,0,0-3.313,1.632,2.175,2.175,0,0,0-1.681.494l-.692.3a3.214,3.214,0,0,1-.445-1.582,1.632,1.632,0,0,1,.939-.94,1.731,1.731,0,0,0,1.681-.742.494.494,0,0,1,.3-.247,2.818,2.818,0,0,0,2.077-1.978h0a1.97,1.97,0,0,0,2.027-.841.692.692,0,0,1,.4-.2,2.076,2.076,0,0,0,1.681-.791h.148l.791-.4.494-.2.544-.346.1-.1a3.511,3.511,0,0,0,.791-.494c.494-.544.445-.989-.2-1.384a2.324,2.324,0,0,0-.692-.2l-.89-.544-3.066-.494a5.314,5.314,0,0,0-1.978-.247c-.692.148-.742.247-.989.1-1.483-.791-2.72-.2-3.857.692s-.89.3-1.187-.3a6.077,6.077,0,0,1-.3-.692,1.837,1.837,0,0,0-1.978-1.187l-1.731.1c-3.214.2-6.428-.544-9.691-.346a4.651,4.651,0,0,0-2.67.445c-.89.593-.989.148-1.483.2-2.719.346-5.488.544-8.06,1.632a4.749,4.749,0,0,1-1.483.148,11.106,11.106,0,0,0-4.351.939,5.389,5.389,0,0,1-2.423.494,15.179,15.179,0,0,0-6.329,1.384,10.98,10.98,0,0,1-1.681.494c-1.088.346-2.274.346-3.214,1.187a1.78,1.78,0,0,1-1.187.3,7.086,7.086,0,0,0-4.2,1.335c-1.286.791-1.731.989-2.274,1.829a1.137,1.137,0,0,0-.89.4h-.247c-.445-.148-1.038-.247-.643-.939a3.362,3.362,0,0,1,1.286-1.384c.346.2.3-.049.247-.247l.841-1.434h0c2.472-.2,4.648-1.384,6.823-2.423.148-.049.2-.247.3-.4a.346.346,0,0,1,.346-.247l.593-.1.89-.445a1.681,1.681,0,0,0,1.187-.346h.049l.989-.544a.247.247,0,0,1,.247-.1,4.956,4.956,0,0,0,3.263-.3l.4-.148a6.23,6.23,0,0,0,4.1-.742h1.582a15.23,15.23,0,0,0,6.477-1.582.544.544,0,0,1,.4-.2,1.78,1.78,0,0,0,1.681-.791.445.445,0,0,1,.346-.2l1.088-.494h0a9.79,9.79,0,0,0,4.549-.445l.692-.1.742-.148.494-.3,2.225-.2c.494-.049.593-.494.346-1.137s-.346-.445-.2-.643a.791.791,0,0,1,.643-.148,43.662,43.662,0,0,0,9.1,1.137l.494.2a5.339,5.339,0,0,0,.989.692,10.136,10.136,0,0,0,5.142.593.445.445,0,0,1,.445.1,1.385,1.385,0,0,0,1.038.4h0a7.357,7.357,0,0,0,1.78.841,3.016,3.016,0,0,0,3.263-.2,4.9,4.9,0,0,1,3.313-.593c2.176.2,4.3.247,6.477.346a8.605,8.605,0,0,0,1.483-.148,4.5,4.5,0,0,1,1.236-.2c2.472.4,4.8-.346,7.17-.643s5.439-.643,8.158-.89a23.2,23.2,0,0,1,3.511.1,6.626,6.626,0,0,0,3.412-.544,9.889,9.889,0,0,1,3.609-.791,21.409,21.409,0,0,0,8.109-2.225,4.994,4.994,0,0,0,1.978-1.879,19.335,19.335,0,0,0,2.571-7.12,3.857,3.857,0,0,0-1.879-3.857,3.165,3.165,0,0,1-1.483-2.126c.643-.346,1.187.049,1.731.2a2.448,2.448,0,0,0,3.313-2.571c-.049-1.928.791-4.252.593-6.379.989-1.335.148-2.868.494-4.351a4.154,4.154,0,0,0-.593-2.621c-.939-1.681-1.483-3.56-2.967-4.846a1.631,1.631,0,0,1-.4-.89.919.919,0,0,0-.346-.643c-1.483-.593-2.522-1.928-4.1-2.324a13.6,13.6,0,0,1-3.214-1.236,9.89,9.89,0,0,1-3.066-2.077,6.551,6.551,0,0,0-4.252-1.731c-1.533-.049-2.176-.692-3.313-.89a4.845,4.845,0,0,1-2.967-1.681.41.41,0,0,0-.4.1c-.049.1.049.494.3.4a11.422,11.422,0,0,1,4.945-.2,3.017,3.017,0,0,0,.989-.049,3.263,3.263,0,0,1,2.621.4,3.857,3.857,0,0,0,2.621.544,16.733,16.733,0,0,0,2.228-.149,3.467,3.467,0,0,1,3.013.693,18.6,18.6,0,0,0,4.7,1.582c.4.1.89-.445.692-.791-.791-1.483-1.088-3.214-2.423-4.5a24.678,24.678,0,0,1-3.016-4.252,1.119,1.119,0,0,1-.2-.445c.4-1.384-.247-2.621-.692-3.857a2.423,2.423,0,0,1,.049-.989,9.1,9.1,0,0,0-1.829-6.576,23.4,23.4,0,0,0-2.373-2.868,31.252,31.252,0,0,1-3.313-3.708,5.835,5.835,0,0,0-1.928-1.483c-1.286-.742-2.67-1.286-2.818-3.115-.1-.841-1.137-1.384-1.978-1.78s-1.978-.494-2.522-1.483a.742.742,0,0,0-.643-.3c-1.384.3-1.928-.791-2.621-1.533l-.494-.4-.494-.346c.1-.544.3-.89.989-.643s1.384.3,1.434-.841a2.769,2.769,0,0,0-.346-1.632v-1.533l.247-1.088v-2.72c.643-.2.939.148,1.088.692.445,2.027.989,4.005.445,6.131s.3,2.423,1.829,2.67a25.954,25.954,0,0,0,4.9.841h0c.939,1.088,2.274,1.137,3.56,1.483h0l.494.544.445.148.742.247.791.989.544.544.4.494.593.494h0a3.786,3.786,0,0,0,.692,1.582M416.736,85.214c-.2-.049-.346-.148-.494-.1a.494.494,0,0,0-.247.593c.049.2.247.247.346.1a4.747,4.747,0,0,0,.346-.593M314.335,58.365l-.1-.2-.3.247a.247.247,0,0,0,.1.148c.148.049.247-.049.3-.2m-26.7,230.169-.148.148.148.148.148-.2h-.148" transform="translate(-96.528 0.03)" fill="#143138"/>
      <path id="Path_194506" data-name="Path 194506" d="M757.131,860.239c2.472-3.659,2.967-8.01,2.324-12.411a32.087,32.087,0,0,0-1.483-5.785,43.653,43.653,0,0,0-1.83-4.4,53,53,0,0,0-3.51-6.23l-.346-.544c-.841-1.236-1.632-2.324-2.373-3.214s-1.187-1.434-2.373-2.67A33.956,33.956,0,0,0,743.583,828l-1.088-.643a3.339,3.339,0,0,1,.148-2.571c.3-.841.742-2.225,1.187-3.313a39.856,39.856,0,0,0-10.878-6.576,75.916,75.916,0,0,0-4.4,6.972c-.593-2.868-1.038-5.736-1.384-8.653a28.877,28.877,0,0,0-9.84-.1,35.549,35.549,0,0,0-8.109,2.324q.742,2.175,1.335,4.351a1.988,1.988,0,0,1-.049,1.681,26.256,26.256,0,0,0-4.648-4.4h0a26.011,26.011,0,0,0-9.988,9.049q1.928,2.472,3.708,5.093l-5.439-1.286a13.291,13.291,0,0,0-.346,1.335c-1.187,5.241.346,10.532,3.56,15.378a11.322,11.322,0,0,1,5.538,0,30.318,30.318,0,0,1-2.917,3.461,50.285,50.285,0,0,0,12.658,10.384c1.137.643,2.275,1.285,3.412,1.879a49.838,49.838,0,0,0,8.5,3.362,58.636,58.636,0,0,0,9.889,1.78q.495-2.472,1.038-4.994l.643-.2q.841,2.621,1.483,5.34c5.736.2,12.164-.643,16.713-4.3l-1.928-4.7.2-.989a32.939,32.939,0,0,1,4.648,2.571m-5.043-11.372-.939-.247h-.3a7.762,7.762,0,0,1-.247,2.077c-.742,2.67-3.461,4.5-6.774,5.637a22.914,22.914,0,0,1,1.434,2.571,1.286,1.286,0,0,1-.445,1.681,1.236,1.236,0,0,1-1.681-.445,22.394,22.394,0,0,0-1.78-3.115,33.868,33.868,0,0,1-7.713.939H733.5a25.319,25.319,0,0,1-4.6-.445,15.1,15.1,0,0,1-.4,1.731,1.236,1.236,0,1,1-2.373-.643,5.014,5.014,0,0,0,.3-1.236l.1-.445a29.766,29.766,0,0,1-11.57-6.576l-.89.643a4.936,4.936,0,0,1-1.73.939,1.434,1.434,0,0,1-1.533-.989,1.484,1.484,0,0,1,0-.791,1.533,1.533,0,0,1,.643-.791,1.137,1.137,0,0,1,.89-.148l.346-.247.544-.4a30.708,30.708,0,0,1-3.807-4.747,39.478,39.478,0,0,1-2.423-4.45l-1.829.148h-2.077a1.731,1.731,0,0,1-1.335-.643,1.335,1.335,0,0,1,.1-1.78,1.236,1.236,0,0,1,1.731-.049H706.1a9.418,9.418,0,0,1,.2-6.774,7.27,7.27,0,0,1,.791-1.335l-2.818-2.571a1.236,1.236,0,0,1,1.73-1.731l2.818,2.571a13.546,13.546,0,0,1,3.511-1.829,27.687,27.687,0,0,1,7.268-1.335q-.346-1.286-.791-2.571a1.236,1.236,0,0,1,.841-1.533,1.286,1.286,0,0,1,1.533.89q.544,1.582.939,3.165a24.723,24.723,0,0,1,9.2,2.126l2.719,1.137c.593-1.088,1.088-2.176,1.582-3.263s1.137-.742,1.681-.445a1.286,1.286,0,0,1,.593.742,1.334,1.334,0,0,1-.1.94q-.643,1.483-1.384,2.967a18.48,18.48,0,0,1,8.554,6.329l.544.742,1.038-.692.742-.495.2-.148h0a1.327,1.327,0,0,1,2.522.049c.4,1.286-1.187,1.978-2.077,2.571l-1.038.692A26.649,26.649,0,0,1,750.554,846l.89.148,1.483.346c.593.148,1.385.3,1.731.89l.148.346a1.335,1.335,0,0,1-.742,1.582,1.384,1.384,0,0,1-1.582-.4l-.346-.1" transform="translate(-350.541 -410.879)" fill="#d46d5c"/>
      <path id="Path_194507" data-name="Path 194507" d="M762.264,856.684a1.384,1.384,0,0,1-1.582-.4l-.346-.1-.94-.247h-.3a7.762,7.762,0,0,1-.247,2.077c-.742,2.67-3.461,4.5-6.774,5.637a22.994,22.994,0,0,1,1.434,2.571,1.286,1.286,0,0,1-.445,1.681,1.236,1.236,0,0,1-1.681-.445,22.39,22.39,0,0,0-1.78-3.115,33.87,33.87,0,0,1-7.713.939h-.247a25.319,25.319,0,0,1-4.6-.445,15.139,15.139,0,0,1-.4,1.731,1.236,1.236,0,1,1-2.373-.643,5.025,5.025,0,0,0,.3-1.236l.1-.445a29.765,29.765,0,0,1-11.471-6.576l-.89.643a4.934,4.934,0,0,1-1.731.94,1.434,1.434,0,0,1-1.533-.989,1.484,1.484,0,0,1,0-.791,1.533,1.533,0,0,1,.643-.791,1.137,1.137,0,0,1,.89-.148l.346-.247.544-.4a30.7,30.7,0,0,1-3.807-4.747,39.491,39.491,0,0,1-2.423-4.45l-1.83.148h-2.077A1.731,1.731,0,0,1,710,846.2a1.335,1.335,0,0,1,.1-1.78,1.236,1.236,0,0,1,1.731-.049h2.522a9.417,9.417,0,0,1,.2-6.774,7.265,7.265,0,0,1,.791-1.335l-2.818-2.571a1.236,1.236,0,0,1,1.731-1.731l2.818,2.571a13.554,13.554,0,0,1,3.511-1.829,27.7,27.7,0,0,1,7.268-1.335q-.346-1.285-.791-2.571a1.236,1.236,0,0,1,.841-1.533,1.286,1.286,0,0,1,1.533.89q.544,1.582.939,3.164a24.724,24.724,0,0,1,9.2,2.126l2.72,1.137c.593-1.088,1.088-2.176,1.582-3.263s1.137-.742,1.681-.445a1.285,1.285,0,0,1,.593.742,1.334,1.334,0,0,1-.1.939q-.643,1.483-1.384,2.967a18.481,18.481,0,0,1,8.554,6.329l.544.742,1.038-.692.742-.494.2-.148h0a1.327,1.327,0,0,1,2.522.049c.4,1.286-1.187,1.978-2.077,2.571l-1.038.692a26.652,26.652,0,0,1,3.659,8.752l.89.148,1.483.346c.593.148,1.385.3,1.731.89l.148.346a1.335,1.335,0,0,1-.742,1.582" transform="translate(-358.789 -418.202)" fill="#de9284"/>
      <path id="Path_194508" data-name="Path 194508" d="M763.2,860.126a7.761,7.761,0,0,1-.247,2.077c-.742,2.67-3.461,4.5-6.774,5.686l-2.472.742a33.917,33.917,0,0,1-7.714.939h-.247a25.418,25.418,0,0,1-4.6-.445l-2.373-.593a29.768,29.768,0,0,1-11.471-6.576l-1.829-1.731a30.66,30.66,0,0,1-3.807-4.747,39.463,39.463,0,0,1-2.423-4.4,19.172,19.172,0,0,1-.89-2.373,9.417,9.417,0,0,1,.2-6.774,7.265,7.265,0,0,1,.791-1.335,8.6,8.6,0,0,1,1.78-1.731,13.551,13.551,0,0,1,3.511-1.829A27.7,27.7,0,0,1,731.9,835.7h2.522a24.723,24.723,0,0,1,9.2,2.126l2.72,1.137,2.324.939a18.482,18.482,0,0,1,8.554,6.329l.544.742c.495.692.989,1.384,1.385,2.027a26.65,26.65,0,0,1,3.758,8.6,13.7,13.7,0,0,1,.3,2.571" transform="translate(-362.893 -422.484)" fill="#143138"/>
      <path id="Path_194509" data-name="Path 194509" d="M174.43,781.249a30.254,30.254,0,0,1-2.917,3.461,29.082,29.082,0,0,1-2.67,2.472,1.038,1.038,0,0,1-.544.247c-.3.049-.544-.2-.791-.445L163.7,782.93a31.646,31.646,0,0,1,5.142-1.681,11.324,11.324,0,0,1,5.538,0" transform="translate(-82.758 -394.783)" fill="#143138"/>
      <path id="Path_194510" data-name="Path 194510" d="M308.01,833.121a41.733,41.733,0,0,1-2.225,9.147c-.148.4-.4.841-.791.791a.988.988,0,0,1-.495-.247,54.875,54.875,0,0,1-4.5-3.758,13.945,13.945,0,0,1,3.857-3.313c1.384-.791,4.5-3.807,4.2-2.621" transform="translate(-151.664 -421.043)" fill="#143138"/>
      <path id="Path_194511" data-name="Path 194511" d="M495.135,825.711a1.038,1.038,0,0,1-.791.1l-3.956-.593a.354.354,0,0,1-.4-.445q.544-3.164,1.137-6.28t1.038-4.994l.643-.2q.841,2.621,1.483,5.34t1.088,6.082c.049.346.049.791-.247.989" transform="translate(-247.71 -411.16)" fill="#143138"/>
      <path id="Path_194512" data-name="Path 194512" d="M605.256,788.931a20.224,20.224,0,0,1-4.055,4.994q-1.236-2.72-2.373-5.439h0l-1.928-4.7.2-.989a32.884,32.884,0,0,1,4.648,2.522,32.031,32.031,0,0,1,3.362,2.522.686.686,0,0,1,.148,1.038" transform="translate(-301.76 -395.741)" fill="#143138"/>
      <path id="Path_194513" data-name="Path 194513" d="M695.752,768.062a.445.445,0,0,1-.346.1q-3.263-.1-6.576-.346c-.494,0-1.829.148-1.829-.544a14.6,14.6,0,0,1,4.549-4.648,1.78,1.78,0,0,1,1.236-.247c.544.148.89.742,1.137,1.286l1.829,3.906c.1.2.148.4,0,.544" transform="translate(-347.31 -385.404)" fill="#143138"/>
      <path id="Path_194514" data-name="Path 194514" d="M508.061,851.6a1.731,1.731,0,0,1-.742.643l-1.286.791a33.961,33.961,0,0,0-3.956,3.016l-1.088-.643a3.34,3.34,0,0,1,.148-2.571c.3-.841.742-2.225,1.187-3.313s.692-1.632,1.088-2.423.494-.841.939-.742a.989.989,0,0,1,.494.346l2.67,3.016c.445.494.939,1.236.593,1.829" transform="translate(-253.17 -427.856)" fill="#143138"/>
      <path id="Path_194515" data-name="Path 194515" d="M378.28,825.722q-1.137,1.434-2.176,2.917a75.872,75.872,0,0,0-4.4,6.972c-.593-2.868-1.038-5.736-1.384-8.653-.1-.841-.2-1.681-.247-2.522a1.434,1.434,0,0,1,.049-.742c.2-.445.791-.494,1.236-.494a14.487,14.487,0,0,1,6.527,1.582Z" transform="translate(-187.074 -416.165)" fill="#143138"/>
      <path id="Path_194516" data-name="Path 194516" d="M36.713,800.51c-3.857,1.978-15.674,8.01-23.338,2.373-4.549-3.313-6.032-5.736-5.637-8.752h0a15.626,15.626,0,0,1,1.384-4.351c.89-1.928,4.8-5.686,6.378-3.56l.247.346c1.384,2.225-.148,4.6,1.286,7.219s6.873,3.857,7.713,3.956c8.356.841,15.279-7.219,18.641-11.125,4.055-4.7,9.3-9.84,7.713-13-1.928-3.956-12.955-1.978-12.164-5.192,0-.049.494-1.384.494-1.434,1.928-4.2,5.538-3.956,8.109-3.906a15.324,15.324,0,0,1,2.126.2c3.066.494,5.884,2.324,8.01,8.208,4.2,11.867-11.867,24.426-20.965,29.074" transform="translate(-3.881 -385.762)" fill="#d46d5c"/>
      <path id="Path_194517" data-name="Path 194517" d="M104.433,823.256a5.81,5.81,0,0,0-4.5,4.153c-.494,2.324,1.879,6.181,4.9,6.774,3.758.742,7.763-2.67,7.516-6.032s-4.45-5.637-7.911-4.9" transform="translate(-50.488 -416.123)" fill="#143138"/>
      <path id="Path_194518" data-name="Path 194518" d="M100.152,867.761c-1.731-2.769-6.181-3.609-8.257-1.483s-1.384,5.142.4,7.12,4.994,2.868,7.17,1.137,1.978-4.8.742-6.774" transform="translate(-45.812 -437.338)" fill="#143138"/>
      <path id="Path_194519" data-name="Path 194519" d="M79.717,876.57c-1.384-.3-3.758,1.681-3.362,3.758s3.758,3.115,4.9,2.274.346-5.637-1.483-6.032" transform="translate(-38.579 -443.131)" fill="#143138"/>
      <path id="Path_194520" data-name="Path 194520" d="M20.227,855.6a16.169,16.169,0,0,0-2.027,6.23" transform="translate(-9.201 -432.545)" fill="#eab6ae"/>
      <path id="Path_194521" data-name="Path 194521" d="M17.976,853.93A17.9,17.9,0,0,0,15.8,860.8a1.236,1.236,0,0,0,1.236,1.236,1.286,1.286,0,0,0,1.236-1.236v-.2h0v-.346l.148-.791a16.17,16.17,0,0,1,.445-1.582l.247-.742.148-.346h0v-.148A7.879,7.879,0,0,1,20,855.216a1.236,1.236,0,0,0-2.126-1.236" transform="translate(-7.988 -431.468)" fill="#de9284"/>
      <path id="Path_194522" data-name="Path 194522" d="M55.356,856.2a9.246,9.246,0,0,0,.3,5.835" transform="translate(-27.815 -432.848)" fill="#eab6ae"/>
      <path id="Path_194523" data-name="Path 194523" d="M52.907,854.691a10.482,10.482,0,0,0,.3,6.527,1.286,1.286,0,0,0,1.533.841,1.236,1.236,0,0,0,.841-1.533,9.391,9.391,0,0,1-.445-1.384v-.3c0-.049-.1-.494-.049-.2a4.251,4.251,0,0,1-.049-.692,9.344,9.344,0,0,1,.049-1.434v-.1a2.67,2.67,0,0,1,.049-.4l.148-.692a1.236,1.236,0,0,0-2.373-.643" transform="translate(-26.553 -431.686)" fill="#de9284"/>
      <path id="Path_194524" data-name="Path 194524" d="M86.4,843.9a18.543,18.543,0,0,0,2.373,3.313" transform="translate(-43.679 -426.63)" fill="#eab6ae"/>
      <path id="Path_194525" data-name="Path 194525" d="M83.958,843.193a20.227,20.227,0,0,0,2.571,3.61,1.236,1.236,0,0,0,1.731,0,1.286,1.286,0,0,0,0-1.731l-.841-1.038.2.247a18.98,18.98,0,0,1-1.533-2.324,1.236,1.236,0,1,0-2.126,1.236" transform="translate(-42.325 -425.28)" fill="#de9284"/>
      <path id="Path_194526" data-name="Path 194526" d="M115.5,808.6a19.567,19.567,0,0,0,2.373,1.384,1.286,1.286,0,0,0,1.137.148" transform="translate(-58.391 -408.784)" fill="#eab6ae"/>
      <path id="Path_194527" data-name="Path 194527" d="M113.558,808.283l1.879,1.088a7.76,7.76,0,0,0,1.187.544,2.225,2.225,0,0,0,1.731-.148,1.236,1.236,0,0,0,.445-1.681,1.286,1.286,0,0,0-1.681-.445h-.049l.3-.148h.247l-.445-.148.3.148a15.872,15.872,0,0,1-2.571-1.434,1.236,1.236,0,1,0-1.236,2.126" transform="translate(-57.091 -407.38)" fill="#de9284"/>
      <path id="Path_194528" data-name="Path 194528" d="M121.2,786.8a5.093,5.093,0,0,0,3.857.4" transform="translate(-61.272 -397.763)" fill="#eab6ae"/>
      <path id="Path_194529" data-name="Path 194529" d="M119.157,786.584a6.428,6.428,0,0,0,4.846.544,1.236,1.236,0,1,0-.643-2.373l-.791.148h.346a5.342,5.342,0,0,1-1.384,0h.346a5.293,5.293,0,0,1-1.286-.346l.3.148-.494-.247a1.236,1.236,0,1,0-1.236,2.126" transform="translate(-59.872 -396.46)" fill="#de9284"/>
      <path id="Path_194530" data-name="Path 194530" d="M114.5,757.724a3.263,3.263,0,0,1,1.829-1.483,19.241,19.241,0,0,0,2.274-.841" transform="translate(-57.885 -381.889)" fill="#eab6ae"/>
      <path id="Path_194531" data-name="Path 194531" d="M114.184,757.054l.1-.2c.049-.049.148-.2,0,0s-.049.049,0,0l.148-.2c.1-.1.346-.247,0-.049l.939-.544-.3.148c.89-.4,1.879-.593,2.72-1.038a1.236,1.236,0,0,0,.445-1.681,1.285,1.285,0,0,0-1.681-.445l-.445.2.3-.148c-.841.346-1.681.544-2.472.939a4.055,4.055,0,0,0-1.879,1.731A1.236,1.236,0,1,0,114.184,757" transform="translate(-56.531 -380.626)" fill="#de9284"/>
      <path id="Path_194532" data-name="Path 194532" d="M82.865,770.179l.247-.346-.2.247a5.14,5.14,0,0,1,.89-.89l-.247.2.544-.4a1.285,1.285,0,0,0,.544-.742,1.5,1.5,0,0,0-.148-.939,1.236,1.236,0,0,0-.742-.544,1.286,1.286,0,0,0-.939.148,6.377,6.377,0,0,0-2.176,2.077.94.94,0,0,0-.148.445,1.285,1.285,0,0,0,.593,1.236,1.236,1.236,0,0,0,.939.148,1.335,1.335,0,0,0,.742-.544" transform="translate(-40.688 -387.62)" fill="#ae3527"/>
      <path id="Path_194533" data-name="Path 194533" d="M96.282,777.367l.544-.1H96.48a5.145,5.145,0,0,1,1.335,0h.4l.445-.148a1.206,1.206,0,0,0-.3-2.225,6.677,6.677,0,0,0-1.384-.1l-1.384.2a1.266,1.266,0,0,0-.3,2.275,1.286,1.286,0,0,0,.939.148" transform="translate(-47.875 -391.693)" fill="#ae3527"/>
      <path id="Path_194534" data-name="Path 194534" d="M100.308,790.225l1.384.692.445.148h.494l.4-.2a.938.938,0,0,0,.3-.346,1.216,1.216,0,0,0-.4-1.681l-1.384-.692L101.1,788H100.6l-.4.2a.94.94,0,0,0-.3.346,1.216,1.216,0,0,0,.4,1.681" transform="translate(-50.418 -398.37)" fill="#ae3527"/>
      <path id="Path_194535" data-name="Path 194535" d="M91.444,806.227l.1.148.4.3.148.1.346.148h.593l.445-.148a1.385,1.385,0,0,0,.544-.742v-.346a1.236,1.236,0,0,0-.148-.643l-.2-.247a1.236,1.236,0,0,0-.544-.3l-.3-.1h-.494l-.445.148a1.385,1.385,0,0,0-.544.742v.346a1.236,1.236,0,0,0,.148.643l.2.247a1.236,1.236,0,0,0,.544.3l.3.1.643-2.373h-.148l.3.148-.247-.148.247.2-.2-.2-.4-.247-.494-.1-.494.1-.4.247-.2.247a1.236,1.236,0,0,0-.148.643v.346a1.236,1.236,0,0,0,.3.544" transform="translate(-46.003 -406.56)" fill="#ae3527"/>
      <path id="Path_194536" data-name="Path 194536" d="M78.75,817.975l.148.1-.247-.2.3.3-.2-.247.2.346-.148-.3h0a1.384,1.384,0,0,0,.544.742l.445.148h.494l.3-.148a1.237,1.237,0,0,0,.445-.445l.148-.3a1.236,1.236,0,0,0,0-.643,3.563,3.563,0,0,0-.247-.494l-.346-.445-.2-.2-.445-.346-.445-.148h-.445l-.445.2a.939.939,0,0,0-.3.346l-.148.3a1.236,1.236,0,0,0,0,.643l.148.3a1.236,1.236,0,0,0,.445.445" transform="translate(-39.49 -412.374)" fill="#ae3527"/>
      <path id="Path_194537" data-name="Path 194537" d="M66.657,828.533l.148.4a1.385,1.385,0,0,0,.544.742l.445.148h.494l.3-.148a1.236,1.236,0,0,0,.445-.445l.148-.3a1.236,1.236,0,0,0,0-.643l-.148-.4a1.384,1.384,0,0,0-.544-.742L68.041,827h-.494l-.3.148a1.236,1.236,0,0,0-.445.445l-.148.3a1.236,1.236,0,0,0,0,.643" transform="translate(-33.676 -418.086)" fill="#ae3527"/>
      <path id="Path_194538" data-name="Path 194538" d="M45.358,837.533h0v-.346a1.088,1.088,0,0,1,0,.247v-.049l.148-.3-.148.247.2-.247-.1.1a.939.939,0,0,0-.247.4,1.285,1.285,0,0,0,.247,1.335l.247.2a1.236,1.236,0,0,0,.643.148h.2a1.237,1.237,0,0,0,.544-.3l.1-.1.247-.346v-.1l.148-.4a2.621,2.621,0,0,0,.1-.544,2.422,2.422,0,0,0-.049-.593,1.384,1.384,0,0,0-.544-.742L46.643,836h-.494l-.3.148a1.237,1.237,0,0,0-.445.445l-.148.3a1.236,1.236,0,0,0,0,.643" transform="translate(-22.811 -422.636)" fill="#ae3527"/>
      <path id="Path_194539" data-name="Path 194539" d="M29.481,836.4l-1.137.989a.939.939,0,0,0-.247.4,1.137,1.137,0,0,0,0,.939.939.939,0,0,0,.247.4l.247.2a1.237,1.237,0,0,0,.643.148h.346a1.237,1.237,0,0,0,.544-.3l1.137-.989a1.286,1.286,0,0,0,0-1.731l-.247-.2a1.237,1.237,0,0,0-.643-.148h-.346a1.237,1.237,0,0,0-.544.3" transform="translate(-14.153 -422.686)" fill="#ae3527"/>
      <path id="Path_194540" data-name="Path 194540" d="M17.486,827.7l-1.038.445a5.241,5.241,0,0,0-.89.643,1.286,1.286,0,0,0,0,1.731,1.237,1.237,0,0,0,.89.346h.346a1.236,1.236,0,0,0,.544-.3l.148-.148-.247.2.791-.445-.3.148.4-.148a1.286,1.286,0,0,0,.742-.544,1.5,1.5,0,0,0,.148-.939,1.236,1.236,0,0,0-.544-.742,1.286,1.286,0,0,0-.939-.148" transform="translate(-7.696 -418.44)" fill="#ae3527"/>
      <path id="Path_194541" data-name="Path 194541" d="M15.819,816.538a2.125,2.125,0,0,0-.742-.742,2.424,2.424,0,0,0-1.038-.3h-.791a2.126,2.126,0,0,0-.89.544,1.286,1.286,0,0,0,0,1.731,1.236,1.236,0,0,0,1.731,0l.1-.1-.247.2.2-.1-.3.148h.148l-.3-.148.2.1-.247-.2.148.148-.2-.247h.049a.938.938,0,0,0,.3.346l.445.2h.494l.445-.148a1.236,1.236,0,0,0,.445-1.681" transform="translate(-6.078 -412.272)" fill="#ae3527"/>
      <path id="Path_194542" data-name="Path 194542" d="M821.333,917.256a5.81,5.81,0,0,0-4.5,4.153c-.494,2.324,1.879,6.181,4.9,6.774,3.758.742,7.763-2.67,7.516-6.032s-4.45-5.637-7.911-4.9" transform="translate(-412.913 -463.644)" fill="#de9284"/>
      <path id="Path_194543" data-name="Path 194543" d="M840.952,895.261c-1.731-2.769-6.181-3.609-8.257-1.483s-1.384,5.142.4,7.17,4.994,2.868,7.17,1.137,1.978-4.8.742-6.774" transform="translate(-420.32 -451.241)" fill="#de9284"/>
      <path id="Path_194544" data-name="Path 194544" d="M850.217,917.37c-1.384-.3-3.758,1.681-3.362,3.758s3.758,3.115,4.9,2.274.346-5.637-1.483-6.032" transform="translate(-428.102 -463.757)" fill="#de9284"/>
    </g>
  </g>
</svg>
