<svg xmlns="http://www.w3.org/2000/svg" xmlns:xlink="http://www.w3.org/1999/xlink" viewBox="0 0 1320.39 1265.87"><defs><style>.cls-1{fill:none;}.cls-2{clip-path:url(#clip-path);}.cls-3{fill:#dadee0;}.cls-4{fill:#62b8d6;}.cls-5{fill:#d5e5b2;}.cls-6{fill:#fed436;}.cls-7{fill:#ffea9a;}.cls-8{fill:#29424c;}.cls-9{fill:#fddd70;}.cls-10{fill:#abc866;}.cls-11{fill:#a3d4e4;}.cls-12{fill:#fff;}.cls-13{fill:#455b64;}.cls-14{fill:#fff4cc;}.cls-15{fill:#eaf1d7;}.cls-16{fill:#c1e4ef;}.cls-17{fill:#a9c65c;}.cls-18{fill:#d7563b;}.cls-19{fill:#feea98;}</style><clipPath id="clip-path" transform="translate(148.02 246.27)"><rect class="cls-1" width="1024" height="768"/></clipPath></defs><g id="Layer_2" data-name="Layer 2"><g id="Layer_1-2" data-name="Layer 1"><g class="cls-2"><rect class="cls-3" x="149.54" y="246.27" width="1024" height="768"/><path class="cls-4" d="M448.37,719.47c-13.12,13.42-34.48-8.1-129-34-16.7-4.59-26.9-7.22-33.61-9-10.4-2.75-12.48-3.39-17.54-5.83-1.27-.63-2.51-1.25-3.73-1.89h0c-1.35-.69-2.68-1.39-4-2.12-1.48-.82-2.94-1.68-4.35-2.53,0,0-.07,0-.09,0-1.07-.66-2.08-1.3-3.11-2l0,0h0c-1.69-1.07-3.34-2.17-4.93-3.3-.84-.58-1.67-1.18-2.47-1.78a160.2,160.2,0,0,1-16.66-14,195.76,195.76,0,0,1-31.3-39.73c-3.3-5.46-6.09-10.59-8.44-15.16s-4.21-8.48-5.71-11.7c-.94-2-1.86-4-2.76-6q-5.34-11.58-9.52-21.35c-31.11-72.9-16.85-77.87-2.89-113,3.45-8.69,16.8-40.82,29.52-36.3,10,3.6,16.5,12,10.16,32-6.65,21-10.78,18.63-3,45,5.62,18.95,8.9,29.44,17.49,32.31,10.75,3.58,18.46-8.47,35-14.82,24.4-9.32,56.86-2,78.11,16.17,29,24.74,35.29,68.09,22.89,95.6-8,17.77-19.36,19-18.86,31,1,23.75,30.08,50.42,69,44.5,13.79-2.08,40,6.65,45.52,12.35C459.43,699.28,456.15,711.52,448.37,719.47Z" transform="translate(148.02 246.27)"/><path class="cls-5" d="M225.67,204.77c2.24,23-24.15,29.48-35,72.71-5.39,21.54-7.1,52.95,5.18,59.25,5.58,2.86,13,0,19.43-4a366.1,366.1,0,0,0,22-70c4.2-20.5,6.2-39.62,16.84-43.09,8.21-2.68,12.28,7,24.61,6.73,19.44-.4,33.38-24.95,37.55-32.31,5.51-9.7,12.81-22.58,10.36-37.7-2.34-14.45-11.19-16.22-22-37.7-8-15.92-13.78-27.36-10.36-36.36C303,59.5,365.89,64.06,399.21,70.12s46.33,29.31,66.05,21.55c12.7-5,23.31-19.12,20.72-28.28-2.78-9.82-19.56-9.86-51.8-16.16C376.8,36,374.5,25.32,340.93,24.34a178.71,178.71,0,0,0-67.34,12.12c-51.53,20-110.82,71.39-102.32,109.07C178,175.49,222.79,175.15,225.67,204.77Z" transform="translate(148.02 246.27)"/><path class="cls-6" d="M770.93,110.37c-15.59,17.31-39.56,5.78-46.92,18.54-19.39,33.66.24,39,18.85,67.26,17.81,27,32.75,40.59,45.78,40.35,18.16-.33,22.21-28.83,40.4-29.67,17.49-.8,38.83,24.45,40.39,49,2.54,39.87-47.25,73.1-53.86,77.4C792.89,348,776.76,349,769.79,365.51c-6.4,15.2-2,36.37,8.08,40,3.24,1.16,13.69,2.88,66-59.34C877,306.7,893.59,287,900.4,270.06c21-52,6-101.41,0-121.25-6.34-20.93-26.37-87.1-94.25-125.12C725-21.76,634.23,5.94,590.71,32.72c-12.44,7.65-42.93,26.42-39.05,43.86,2.28,10.21,16.11,18.89,28.28,18,17.66-1.21,20-21.67,40.39-38.69,33.48-27.88,88-23.5,121.19-9,11.67,5.08,31.94,13.91,36.35,32.25C781,92.2,779,101.37,770.93,110.37Z" transform="translate(148.02 246.27)"/><path class="cls-7" d="M777.61,718.06c-1.89,2.25-3.86,4.44-5.9,6.6a179.58,179.58,0,0,1-22.83,20.52c-25.81,19.49-55,30.46-87.26,38.65-8.72,2.25-17.68,4.27-26.88,6.2q-8.21,1.74-16.66,3.36c-5.08-6.17-10.18-10-16.51-10.67-7.63-.8-16.57,3.11-17.81,8.42-.58,2.53.66,4.93,3.9,8.41-12.35,2.72-23.95,5.42-34.82,6.77-1.11.15-2.23.28-3.34.39-19.66,2-36.88-1.07-51.8-17.47-17.69-19.43-21.85-46.72-21.37-52.12,2.31-26.82,12.06-25.37,21.43-23.89,5.36.86,9.89,12.76,11.73,20.56,2.3,9.54,3.26,17.93,12.26,32.72,6.37,10.44,15.4,16.66,25.6,16a23.83,23.83,0,0,0,2.73-.32c6.43-1.15,13.24-5,20.13-12.17,16.61-17.31,6.51-47.11,5.34-50.41-7.94-22.4-23.07-23.43-24-37.82-1.67-25.57,43.78-58.33,76.07-51.66,2.53.51,13.29,6.23,34.69,17.64,28.94,15.41,30.38,16.38,36,18.91,24.74,10.95,39.89,17.69,53.38,13.85,28.32-8,38.16-59.58,37.37-92-.37-14.92-4.7-34.32-13.36-73.1-7.5-33.68-6.3-60.68.49-64.32,6.29-3.39,22.34,10.42,25.2,13C841.35,500,849.75,634,777.61,718.06Z" transform="translate(148.02 246.27)"/><path class="cls-8" d="M710.45,482.27c22.12-54.22-2.38-88.76,27.2-122.61,5.93-6.78,12.7-11.35,26.24-20.49,27.87-18.81,48.11-32.46,69.68-30.95,42.21,3,71.49,62.79,77.67,75.43,13.62,27.81,16.56,52.41,24.69,52.05,5.83-.26,12-13.21,12.09-25.4.1-24.2-24.08-33-22.49-52.83.72-8.91,6.48-14.81,18-26.24,33.17-33,66.52-38.54,64.92-47.88-1-5.53-13.65-9.35-23.83-7.67-12.46,2.05-16.9,11.65-29.15,22.76-6.06,5.5-27.82,25.22-52.05,24.69-20.62-.45-43.55-15.58-50.28-36.75-8.93-28.09,12.62-60.68,37-74,52.64-28.66,132.62,24.84,138.61,12.83,2-4-5.92-12.28-10.86-16.26-22.26-17.91-49.39-1.89-59.59-15.67-8.14-11,1.4-31.57,3-34.83,8.18-16.87,23.4-23.21,21-29-1.37-3.31-7.84-4.65-12.87-3.41-14.36,3.55-19.72,28.9-21.59,37.75-3.22,15.25-.31,18.42-4.67,23.15-7.91,8.57-19.55.44-41.58,7.4-16,5-18,11.92-24.69,10-12.06-3.49-7.18-26.5-22.64-53.36-13.84-24.06-37.49-39.9-41.34-36.89-2.92,2.29,4.47,16.29,6.62,20.37,9.5,18,18,21.36,27,34.6,3.82,5.64,15.92,23.46,13.31,44.39-2.75,22-20.26,35.46-30.63,43.42-6.22,4.77-33.4,25.64-51.28,16.37-7.93-4.1-9.16-11.6-14.36-23.14C745,208.88,718.69,211.5,702.8,172.32c-3-7.35-13.69-33.73-2.72-45.69,11.34-12.37,39.39-2.23,40.84-7.75.87-3.35-8.39-11.09-18.9-11.71-16.14-1-25.36,15.53-31.23,12.32-6.21-3.39,4.34-21.64-1.95-43.51-5.66-19.68-22.35-33.26-24.77-31.72-1.53,1,3,7.7,7,21.45,6.15,21.21,1.79,27.43,5.82,54.42,3.43,23,8.73,32.78,5.08,35-6.61,4.08-30-24.47-33-22s20.69,31.73,16.08,36.65c-4.46,4.77-28.63-20.75-64.38-36.08-64.17-27.51-155-17.65-184.18,13.85-3.12,3.36-12.57,14.59-21.35,12.49-5.87-1.4-9.34-8.25-13.2-19.87-11.08-33.39-17.42-52.48-8.32-70.11,11.52-22.32,39.87-26.94,37.77-33.67-1.09-3.49-9.6-5-16.54-3.34-16.25,4-17.14,24.14-28.38,27.27-12.91,3.6-34.41-16.7-45.07-40.47-25.87-57.7,16.25-126.77,7-130.79-3.63-1.58-12.07,8.12-17.23,17.17C293-62,310.4-29.15,300.42-23.67c-10.52,5.78-28.59-31.49-70.29-38.89C215.21-65.2,191.89-65,186-53.64c-3.43,6.61-.76,16.74,2.54,17.51,2.77.65,4.51-5.66,11.5-10.83s19-9.09,23.32-5.22c7.2,6.53-15.09,28.49-13.77,63.22.69,18.18,7.68,35.28,10.56,34.93,1.07-.13,1.76-2.71,3.23-22,2.32-30.4,1.65-37.34,6.39-47.71,3.28-7.18,7.12-15.57,15-18.22,18.64-6.26,42.61,25.33,44.09,27.32,10,13.44,13.63,27.79,20.49,56C316.45,70.33,320,84.85,317,92c-14.13,33.44-101.63,44.78-132.64,10.28C161.47,76.89,173.18,31,156.49,27.45c-5.81-1.24-13.41,3-14.49,7.6-1.36,5.79,8.37,9.32,15.8,22,1.27,2.16,11.43,19.51,5.68,28.07-6.85,10.18-28.77-3.19-43,8.52-12.86,10.56-11.45,34.93-8.08,36,2,.64,3.74-6.91,12.87-15.62,2.89-2.76,15-14.32,28.27-13.73,9.85.45,15.31,7.34,24.46,15.26,16.14,14,35.5,24,48.48,27.6,29.07,8.05,38-12.93,75.59-8.42,9,1.07,37.66,4.51,45.07,21.44,6.28,14.35-6.28,30.28-32.34,68-65.36,94.52-67,111-65.68,122.79,3.69,31.88,31.39,45.39,22.85,64.33-3.09,6.85-8.78,9.66-44.56,23.19-49.29,18.65-67.67,24.36-67.11,30.59.35,3.92,8.08,6.82,13.69,7.42,17.33,1.85,29.27-16.78,33.76-13.83,6.1,4-14.46,39.26-7.55,44.43,3.43,2.56,13.28-2.51,19.2-9.89C230,480,221,468.05,230,453.84c8.09-12.85,24.78-17.9,36.62-17.91,15,0,26.08,8.05,32.08,12.54,65.48,49,98.22,73.52,105.45,96.39,12.42,39.27-3.45,76.24-9.92,91.33C347,746,202,777,209.34,798.69c2.71,7.93,14.9,7,27.89-2.35,30.23-21.7,60.24-30.77,71.65-25.88,10.09,4.32.4,32.25,5.73,76.22,4.69,38.78,19.85,80,29.53,79.15,7.29-.63,13.34-25.26,11.81-46.88-1.77-25-12.61-30.93-17.22-56.49-.3-1.7-5.21-30.76,5.61-60.33,11.56-31.58,29.13-31.15,53.87-64.67,35-47.36,21-76.9,46.61-89.12,26.86-12.83,44.2,18.82,92.78,16.85C590.94,623,605.11,583.45,637.87,591c37.7,8.7,65.84,70.94,69.28,116.79,2.67,35.57-56.78,13.65-33.71,38.77,20.35,22.15,15.64,33.87,14.91,66.32-.29,12.47-9,88.62,4.38,68.83,28.86-42.66,7.35-83,17.83-86,8.58-2.43,10,8.53,25.16,26.8,43,51.65,50.95,38.18,54.81,34.15,3.35-3.5-23.33-28.12-39.49-46.09-15.88-17.67-24.37-31.61-25.73-41.44-4.31-31.29,8.77-34.08,4.55-71.33-7.39-65.12-63.51-99.12-53.11-113.47,4.93-6.81,17.84.45,67.1,4.63,54,4.57,68.11-1.65,76.14-10,9-9.31,12.73-23.74,8.8-27.32-4.14-3.76-14.64,6.46-35.38,12.57-3.93,1.15-39.89,11.73-50.06-.72-13-15.88,21.89-62.05,16.53-65.63-3.51-2.36-17.37,18.3-46,34.82-3.06,1.77-33.8,19.32-39.62,12.65C668.68,538.9,695.07,520,710.45,482.27Z" transform="translate(148.02 246.27)"/><path class="cls-9" d="M661.31,40.74c15.61,1,39.47-42.13,36-83.43-5.05-60.75-68.78-113.21-94.81-102.4-14.84,6.16-18.88,33.5-17.07,51.2,2.9,28.27,20.89,33.33,45.51,77.74C651.83,21.48,651.24,40.07,661.31,40.74Z" transform="translate(148.02 246.27)"/><path class="cls-10" d="M832.14,130.05c19.5-2.69,28.86-46.69,26.4-80.37C855,1.62,825.65-50,806-48.08c-20.55,2-25.83,62.16-26.33,67.89-1.33,15.16-4.47,51,17.23,82.52C802.11,109.87,817.43,132.09,832.14,130.05Z" transform="translate(148.02 246.27)"/><path class="cls-11" d="M409.59,38.52c23.62,6.25,66.32-49.23,78.3-105.93,15.59-73.87-19.51-156.72-46.06-156.6-26,.11-44.91,79.66-50.67,115.14C382.21-53.66,383,31.47,409.59,38.52Z" transform="translate(148.02 246.27)"/><path class="cls-10" d="M149.37,30c20.3-12.76,27.71-68.36,11.75-104-20.8-46.43-83.23-63.32-102.91-45.5C38.94-102,59.76-50.61,71-29.47,88.59,3.42,126.48,44.41,149.37,30Z" transform="translate(148.02 246.27)"/><path class="cls-7" d="M157.4,28.42c-3.76-15.2-57-22.83-99.76-5.18C-5.23,49.2-41,128-21.42,149c11.17,11.95,41.43,6.27,59.64-1.62,29.09-12.6,28.85-31.45,68.29-70.31C139.92,44.14,159.82,38.22,157.4,28.42Z" transform="translate(148.02 246.27)"/><path class="cls-6" d="M175.44,468.74c6.32-16.58-23-73.08-63.47-94.38-52.74-27.73-126.14-1.89-129,18.43-2.54,17.91,50.77,57.32,76.48,69C99.43,479.84,171.28,479.68,175.44,468.74Z" transform="translate(148.02 246.27)"/><path class="cls-4" d="M921.15,565.12c17.63,1.22,64.91-33,75.32-68.17,13.56-45.79-29.91-95.7-50.3-93.53-18,1.92-42.68,50.64-47.46,72.56C891.27,510.08,909.51,564.32,921.15,565.12Z" transform="translate(148.02 246.27)"/><path class="cls-9" d="M382.27,719.24c-15.37,2.89-27.68,50.66-14,89.79,20.07,57.57,94.89,92.43,117.39,75.46,12.83-9.68,9.91-37.15,3.73-53.84-9.87-26.65-28.55-27-63.49-63.91C396.27,735.53,392.19,717.38,382.27,719.24Z" transform="translate(148.02 246.27)"/><path class="cls-5" d="M840.4-137.25c-6.07,13.3-6.24,57.94,2.45,76.47,12.42,26.44,45.55,20.61,51,8.41C904-74.93,895-116.92,894.07-121c-2.53-10.78-8.53-36.27-27.67-34.2C861.81-154.69,847.84-153.54,840.4-137.25Z" transform="translate(148.02 246.27)"/><path class="cls-5" d="M240.1,776.88c-6.58-4.76-77.63,2.64-120.67,41.11C63.36,868.11,38.32,953.24,57.5,967.76c18.77,14.19,80.69-38.61,106.38-63.64C203.84,865.19,260.47,791.61,240.1,776.88Z" transform="translate(148.02 246.27)"/><path class="cls-6" d="M818.88,557.78c-16.47,17.43-9.75,73.12,14.61,103.64,31.75,39.75,96.41,40.51,111,18.34,14.29-21.7-18.71-66.29-34.92-83.94C884.38,568.36,837.45,538.13,818.88,557.78Z" transform="translate(148.02 246.27)"/><path class="cls-7" d="M819.46,124.36c6.26,11.65,52.56,5.93,84.89-18.23C951.9,70.6,965.89-2.33,945.15-15.17,933.33-22.49,909.06-11,895.36-.4,873.49,16.53,877.53,32,852.31,72.86,831,107.48,815.42,116.84,819.46,124.36Z" transform="translate(148.02 246.27)"/><path class="cls-4" d="M236.6,94.86c12.59-4.73,36.57-40.22,34.63-64.82-2.54-32-45.87-48.91-59.5-41.27-12,6.74-16.48,44-14.08,58.84C201.39,70.66,228.28,98,236.6,94.86Z" transform="translate(148.02 246.27)"/><path class="cls-4" d="M349,860.93c-14.12,2.74-45,37.63-46.6,65.59-2.13,36.43,41.46,64.14,57.11,58.34,13.8-5.1,24.16-46,23.83-63.07C382.81,895.21,358.3,859.13,349,860.93Z" transform="translate(148.02 246.27)"/><path class="cls-5" d="M1084.11,621.22c-2.54-14.46-38.33-47.39-65-54.27C981,557.13,941,587,943.52,600.23c4.6,24.38,50.52,48.32,55.09,50.57,12.11,6,40.77,20,64.91,3.71C1069.31,650.6,1087.23,638.94,1084.11,621.22Z" transform="translate(148.02 246.27)"/><path class="cls-6" d="M311.4-46.92c16.89-5.44,42.66-63.63,34-108.54C334-214,268-255.09,250.3-244.64c-15.57,9.21-13,75.46-6,102.81C255.2-99.3,300.25-43.33,311.4-46.92Z" transform="translate(148.02 246.27)"/><path class="cls-6" d="M759.05,496.82c-6.83-16.28-55.71-45.15-89-40.62-43.34,5.91-64.75,64.55-53.94,82,9.53,15.34,60.2,18.28,80.19,13.92C727.42,545.3,763.55,507.56,759.05,496.82Z" transform="translate(148.02 246.27)"/><path class="cls-10" d="M-11.44,575c18,15.73,60.68,8.72,85.59-4.86,35.54-19.38,52.95-62.06,35.51-78.17-18.25-16.87-70.58-.86-75.56.66-13.19,4-44.38,13.58-51.95,42.85C-19.66,542.43-25,563.08-11.44,575Z" transform="translate(148.02 246.27)"/><path class="cls-10" d="M863,928.18c9-16.33-8.8-48.44-27.62-65.7-26.87-24.65-69.44-31.65-79-15.66-10,16.74,18.46,54.93,21.17,58.56,7.17,9.62,24.13,32.39,52.13,33.8C836.39,939.52,856.15,940.51,863,928.18Z" transform="translate(148.02 246.27)"/><path class="cls-10" d="M1091.66,85.61c-9-16.39-45.63-18.51-70.29-11.86-35.2,9.49-63.91,41.7-55.51,58.31,8.79,17.39,56.28,13.82,60.79,13.48,12-.9,40.28-3,56.46-25.92C1087,114.14,1098.41,98,1091.66,85.61Z" transform="translate(148.02 246.27)"/><path class="cls-10" d="M130.13,260.85c8.43-.92,20.62-25.63,26-71.05,4.3-36.2-26.77-71.46-44.82-66.88-18.89,4.79-25.74,51.92-26.39,56.4-1.73,11.88-5.81,40,13,60.75C102.44,245.05,122.45,261.69,130.13,260.85Z" transform="translate(148.02 246.27)"/><path class="cls-6" d="M1171.89,342.38c4.94-17-28.87-71-71-88.87-54.83-23.35-125.88,8.4-127.1,28.88-1.08,18.06,55.27,53,81.85,62.49C1097,359.66,1168.63,353.64,1171.89,342.38Z" transform="translate(148.02 246.27)"/><path class="cls-6" d="M867.4,771c-1.37,18.86,20.6,71.27,44.32,84.13,30.9,16.76,66.37-27.5,65.51-49.49-.76-19.38-33.33-48.25-48.17-54.44C906,741.57,868.31,758.53,867.4,771Z" transform="translate(148.02 246.27)"/><path class="cls-11" d="M-43,804.94c5.62,13.31,67.69,1.31,96-10.49,36.89-15.37,59.84-57.92,50.49-70.66-9.15-12.47-66.89-14.37-84-6.16C-7.18,730.42-49.38,789.94-43,804.94Z" transform="translate(148.02 246.27)"/><path class="cls-11" d="M694.54,859.54c-13.25-5.73-49.8,45.86-62.1,74-16,36.61-3.19,83.23,12.38,86,15.23,2.68,58.26-35.87,64.95-53.65C720.16,938.18,709.49,866,694.54,859.54Z" transform="translate(148.02 246.27)"/><path class="cls-10" d="M578,974.36c23.45-5,49.55-54.65,46.82-93.61-3.56-50.75-56.36-88.09-81-78.13-24.09,9.74-22.24,65.18-18.92,88.92C530.07,928.46,551.54,980,578,974.36Z" transform="translate(148.02 246.27)"/><path class="cls-12" d="M376.11,539.5c-5.28-11.44-26.41-15-33.85-6.86-6.81,7.47-.13,22.62.71,24.5,1.66,3.78,5.83,13.22,12.59,14C366.09,572.35,382.12,552.5,376.11,539.5Z" transform="translate(148.02 246.27)"/><path class="cls-12" d="M312.58,477.25c-12.42-2.07-27.27,13.38-24.72,24.12,2.34,9.84,18.62,12.84,20.64,13.21,4.06.75,14.21,2.62,18.66-2.53C334.09,504,326.72,479.61,312.58,477.25Z" transform="translate(148.02 246.27)"/><path class="cls-8" d="M326.26,489.52a8,8,0,0,0-6.31-5.67c-4.67-.93-9.87,2-11,6.11-1.25,4.41,2.51,9,6.82,9.59C321.3,500.33,327.36,494.49,326.26,489.52Z" transform="translate(148.02 246.27)"/><path class="cls-8" d="M375.09,540.48a8.14,8.14,0,0,0-6-6.19A9.22,9.22,0,0,0,358.56,541c-1.19,4.81,2.4,9.8,6.51,10.47C370.36,552.27,376.14,545.9,375.09,540.48Z" transform="translate(148.02 246.27)"/><path class="cls-8" d="M273.58,499.63c3.08-.31,3.87,18.35,14,38.76,10.42,21,32.51,47.5,52.76,45.23,6.43-.72,14.49-4.54,16-2.06,1,1.66-1.44,5.21-3.24,6.94-8.69,8.41-30.15,2-42.58-4.63-25.93-13.72-40.09-42.52-40.26-67.1C270.22,509.46,271.39,499.85,273.58,499.63Z" transform="translate(148.02 246.27)"/><path class="cls-12" d="M568.82,665.72a14.75,14.75,0,0,0,13.31-13.31c.63-9.51-10-18-18.79-15.6-5.74,1.56-9.93,7.51-10,13.61C553.19,658.52,560.32,666.29,568.82,665.72Z" transform="translate(148.02 246.27)"/><path class="cls-12" d="M596.88,647.41a14.73,14.73,0,0,0,13.31-13.31c.63-9.5-10-18-18.78-15.6-5.74,1.56-9.94,7.51-10,13.61C581.25,640.22,588.39,648,596.88,647.41Z" transform="translate(148.02 246.27)"/><path class="cls-8" d="M593.11,632.4a6.51,6.51,0,0,0,5.89-5.88c.28-4.2-4.4-8-8.31-6.9a6.42,6.42,0,0,0-4.43,6C586.2,629.22,589.36,632.66,593.11,632.4Z" transform="translate(148.02 246.27)"/><path class="cls-8" d="M563.42,652.8a6.53,6.53,0,0,0,5.89-5.89c.28-4.2-4.4-8-8.31-6.89a6.42,6.42,0,0,0-4.43,6A6.73,6.73,0,0,0,563.42,652.8Z" transform="translate(148.02 246.27)"/><path class="cls-8" d="M571.1,680.57c1.92-2.81,11.5,2.8,23.42,1.11,10.59-1.5,22.69-8.71,26-18.37,4-11.95-7.06-22.92-1.9-26.71,2.47-1.81,7-.76,9.5.56,8.15,4.24,6.73,17,6.33,20.59-.3,2.69-2.76,21.48-21.53,30.61-10.75,5.24-27.35,7.53-36.71.56C572.91,686.49,569.83,682.43,571.1,680.57Z" transform="translate(148.02 246.27)"/><path class="cls-12" d="M759.32,146.69c-4.5-6.15-14.86-9.73-23.14-5.22-8.45,4.59-10.11,15.09-8.21,22.39,2.35,9.09,11.07,16.62,18.66,15.68C758,178.13,767.29,157.59,759.32,146.69Z" transform="translate(148.02 246.27)"/><path class="cls-12" d="M785.4,182.37c-4.5-6.15-14.87-9.73-23.15-5.22-8.44,4.59-10.1,15.09-8.21,22.39,2.36,9.09,11.08,16.62,18.67,15.68C784.09,213.81,793.36,193.26,785.4,182.37Z" transform="translate(148.02 246.27)"/><path class="cls-8" d="M747.29,158.94c-2.25-2.61-7.43-4.13-11.57-2.22a7.82,7.82,0,0,0-4.11,9.5c1.18,3.85,5.54,7,9.33,6.64C746.64,172.27,751.27,163.55,747.29,158.94Z" transform="translate(148.02 246.27)"/><path class="cls-8" d="M774.69,194.77c-2.25-2.61-7.43-4.13-11.57-2.22a7.81,7.81,0,0,0-4.1,9.5c1.17,3.86,5.54,7,9.33,6.65C774,208.1,778.68,199.39,774.69,194.77Z" transform="translate(148.02 246.27)"/><path class="cls-12" d="M299.29,213.85c4.91-7.33,2.82-19.11-4.64-22.28-4.74-2-10.95-.28-15.62,4.19-7.18,6.87-7.35,17.11-2.57,22C282.14,223.67,294.23,221.41,299.29,213.85Z" transform="translate(148.02 246.27)"/><path class="cls-12" d="M295,181.2c0,8.82,8.36,17.41,16.32,15.86,5.05-1,9.22-5.91,10.58-12.22,2.11-9.71-3.48-18.3-10.21-19.7C303.71,163.46,295,172.11,295,181.2Z" transform="translate(148.02 246.27)"/><path class="cls-8" d="M296.29,209.45a8,8,0,0,0-6.3-5.67c-4.68-.93-9.87,2-11,6.11-1.24,4.41,2.52,9,6.83,9.59C291.34,220.26,297.4,214.42,296.29,209.45Z" transform="translate(148.02 246.27)"/><path class="cls-8" d="M319.52,179a8,8,0,0,0-6.3-5.67c-4.68-.94-9.88,2-11,6.1-1.24,4.41,2.51,9,6.82,9.6C314.56,189.77,320.62,183.93,319.52,179Z" transform="translate(148.02 246.27)"/><path class="cls-8" d="M283.13,152.16c.29,2.25-9.42,2.51-15,8.8-6.42,7.22-3.94,18.55-5.69,18.62-1,0-2.11-3.59-2.32-6.6-.46-6.66,3.41-11.56,5.14-13.76.82-1,8.42-10.45,15.42-8.62C281.19,150.73,283,151.21,283.13,152.16Z" transform="translate(148.02 246.27)"/><path class="cls-8" d="M105.59,724.5c-2.57-4.15-17.5-2.44-23.74-11.47-3.82-5.54-1.65-13.44-3.38-13.53s-4.33,5.74-4.09,11.6c.37,9.22,4.31,10.83,10.84,14.39,4.48,2.45,12,4.28,15,4.16C105,729.45,108,728.46,105.59,724.5Z" transform="translate(148.02 246.27)"/><path class="cls-13" d="M-83,745.31c-1-.48-6-2.73-9.71-.44-1,.61-3.6,2.59-4,9.71-.71,13.52,7.66,26.4,12.22,37.47.65,1.57,14,35.1-.58,59a46.36,46.36,0,0,1-17.36,16.2" transform="translate(148.02 246.27)"/><path class="cls-14" d="M-25.34,237.76c-11.2,9.78-37-8.72-40.52-2.15C-70.43,244-39.73,248.74-40.5,260c-.74,10.84-27.33,16.86-26.38,20.29.91,3.28,33.63-3.53,37.09,1.67,3.1,4.65,3.72,36.52,6.54,36.89,3.18.41,4.41-31.86,17.25-34.5,7.42-1.52,28.61,28.9,34.49,22.32,5.44-6.07-18.32-25.74-13.19-36.52,3.46-7.26,37.43-11.25,37.54-15.22.09-3.11-37.11-.28-38.47-5.81C12.51,241.54,38,217,32.2,208.23c-5.62-8.5-26.15,29.41-33.09,27.24-5.76-1.8-15.07-36.16-21.53-35C-30.7,201.88-15.37,229.07-25.34,237.76Z" transform="translate(148.02 246.27)"/><path class="cls-14" d="M533.37,40C524.3,34.86,528.3,16.55,522,16.27c-5.52-.25-6.63,7.42-9.78,15.11-2.67,6.5-4,9.75-5.31,10.73-7.61,5.74-24.66-5.8-28.44-1.72C476,43,480.6,50.07,483.74,53.7c5.59,6.47,9.73,5.45,12.05,9.45,5.69,9.82-13.8,25.54-9.32,30.16,2.28,2.35,9.12.15,10.45-.28,13.41-4.32,15.44-18,21.87-17.5,4.09.29,4,5.86,12.68,13.27C537,93.52,544.4,97.47,546,96.13s-3.53-5.95-5.38-14.67c-.75-3.51-2.21-10.36,1-16.37,5.38-10.24,9.53-11.24,20-19.75,3.8-3.11,5.79-8.84,1.59-9C555.64,36,542.87,45.34,533.37,40Z" transform="translate(148.02 246.27)"/><path class="cls-15" d="M168.47,350.25c-5.53,8.82-23.63,4-24.21,10.31-.5,5.5,7.11,7,14.65,10.46,6.36,3,9.55,4.44,10.47,5.79,5.39,7.88-6.93,24.37-3,28.34,2.48,2.51,9.77-1.72,13.54-4.69,6.72-5.29,5.89-9.47,10-11.6,10.07-5.24,24.88,14.95,29.7,10.69,2.46-2.17.57-9.11.2-10.46-3.7-13.59-17.23-16.24-16.47-22.64.48-4.08,6-3.7,13.83-12.06,5-5.34,9.26-12.52,8-14.22s-6.11,3.25-14.91,4.71c-3.53.58-10.44,1.72-16.31-1.71-10-5.84-10.78-10-18.81-20.85-2.93-3.94-8.56-6.19-9-2C165.48,327.82,174.26,341,168.47,350.25Z" transform="translate(148.02 246.27)"/><path class="cls-3" d="M738.75,274.94c-6.69-4.76-5.67-13-8.66-20.75-9.11-23.72-48.27-24.46-47.62-33.79.23-3.2,4.95-5.19,7.22-6.15,15.39-6.5,35,7.31,45.46,19.2,13.17,15,21.32,37.7,15.87,43C748.35,279.08,742.41,277.53,738.75,274.94Z" transform="translate(148.02 246.27)"/><path class="cls-3" d="M419.9,538.1c1.26-1.13,13.85,14,36.27,26.8,33,18.88,88.62,33.53,121.26,12.44,10.84-7,20.41-18.76,24.87-16.27,3.15,1.76,1.83,9.52,0,14.36-7.31,19.4-35.66,26.34-41.45,27.75-46.63,11.41-90.6-16.59-103.64-25.84C433.49,560.53,418.46,539.39,419.9,538.1Z" transform="translate(148.02 246.27)"/><path class="cls-16" d="M757.72,395.94c3.34.31.89,12.77,8.82,18.27,7.17,5,18.09,1,20.79,0,12.74-4.64,17.31-14.79,20.16-13.23,2.51,1.38,1.93,10.94-3.15,17.64-5.81,7.66-14.24,7.28-14.49,11.34-.24,3.78,7,4.83,15.12,13.23,5.65,5.87,10.67,14.25,8.82,16.38-1.7,1.94-8.92-1.65-15.75-5-14.48-7.2-15.87-11.32-20.16-10.71-11.39,1.62-12.49,32.21-19.53,32.12-3.89,0-8.69-9.47-7.56-17.63s7.9-11.87,6.3-15.12c-2.25-4.6-16.63.73-18.89-3.78-1.61-3.19,3.22-10.5,9.44-12.6,5.55-1.87,10.52,1,11.34-.63.9-1.74-5.34-4.6-7.56-10.71C748.31,406.88,754.51,395.65,757.72,395.94Z" transform="translate(148.02 246.27)"/><path class="cls-5" d="M510,717.11c-3.1,1.27-6.71-10.91-16.28-12.1-8.65-1.08-16.49,7.5-18.43,9.63-9.14,10-8.48,21.12-11.73,21.06-2.87-.06-6.78-8.8-5.38-17.09,1.6-9.48,2.38-11.2,2.66-15.25.31-4.52-1.15-6.78-2.79-10.11-3.15-6.4-5.48-5.48-10.79-10.54-1.87-1.78-16.05-15.21-8.42-15.37,16.16-.33,28.1,14.9,31.62,12.37,9.34-6.71-4.37-30,1.91-33.21,3.47-1.76,12.09,4.37,14.87,12.13s-1.5,14.17,1.42,16.32c4.13,3,14.4-8.35,18.5-5.41,2.9,2.08,2,10.8-2.53,15.54-4.05,4.23-9.77,4-9.76,5.82,0,2,6.86,1.6,11.66,6C513.26,703.05,513,715.88,510,717.11Z" transform="translate(148.02 246.27)"/><path class="cls-5" d="M285.8,676.49c-1.55,11.17-8.11,21.41-17,25.21-21.76,9.3-56.51-19.9-52.52-42,1.31-7.2,6.6-12.9,12.62-16.72a151.51,151.51,0,0,0,39.39,27.66C273.32,673.1,275.4,673.74,285.8,676.49Z" transform="translate(148.02 246.27)"/><path class="cls-5" d="M197.57,603.27c-12,17.2-45.47,18.85-54.71-1.91-5.27-11.81-2.21-29.77,5-40.39,5.91-8.77,14.64-12.5,23.3-11.87,3.49,8.19,7.57,17.25,12.28,27.31A281.34,281.34,0,0,0,197.57,603.27Z" transform="translate(148.02 246.27)"/><path class="cls-17" d="M189.13,588.11c-5.32,6-14.8,9.16-18.7,10.45-7.37,2.44-9.24.92-9.73.42-2-2-.64-6.36,0-8.46s2.72-7.42,9.73-13.12c2.45-2,6.33-5.13,10.23-6.95.9,1.95,1.82,3.92,2.76,6C184.92,579.63,186.81,583.59,189.13,588.11Z" transform="translate(148.02 246.27)"/><path class="cls-12" d="M153.94,579.94c2.8,4.75,10.06,4.13,15.23,9.31,4.43,4.43,6.68,12.46,5.89,15.45-.07.28-.44,1.56,0,1.9s1.68-.45,2.09-.85c2.33-2.27-1-10.88-5.47-16.91,0,0-5-6.77-15.94-11.27-1.36-.56-2.24-.7-2.58-.32C152.69,577.83,153.64,579.44,153.94,579.94Z" transform="translate(148.02 246.27)"/><path class="cls-12" d="M163.93,570.22c2.41,1.41,10.47,5.14,15.61,11,4.4,5,6.17,13.6,5.1,16.67-.1.29-.6,1.59-.12,2s1.85-.33,2.32-.72c2.67-2.19-.25-11.47-4.53-18.15,0,0-4.8-7.49-16.21-13.1-1.42-.7-2.36-.92-2.74-.55C162.76,567.9,163.4,569.9,163.93,570.22Z" transform="translate(148.02 246.27)"/><path class="cls-17" d="M260.2,667.76a30.62,30.62,0,0,1-2.58,5.68c-2.42,4.27-7.37,13-12.79,12.22-3.22-.45-5.54-4.16-6.37-7-2.23-7.49,4.14-14.88,8.9-19.32a34.15,34.15,0,0,0,7.31,6.09A26.49,26.49,0,0,0,260.2,667.76Z" transform="translate(148.02 246.27)"/><path class="cls-12" d="M264.51,668.77a37.46,37.46,0,0,1-4.29-1h0a26.49,26.49,0,0,1-5.53-2.29,34.15,34.15,0,0,1-7.31-6.09,15.38,15.38,0,0,1-1.83-2.38c.8.6,1.63,1.2,2.47,1.78,1.59,1.13,3.24,2.23,4.93,3.3h0l0,0a18.31,18.31,0,0,0,3.11,2s.07,0,.09,0c1.41.85,2.87,1.71,4.35,2.53C261.83,667.38,263.16,668.08,264.51,668.77Z" transform="translate(148.02 246.27)"/><path class="cls-12" d="M265.26,677.14c-2.42-.36-10.22-.75-16.31-3.81-5.21-2.62-9.42-9-9.52-11.82,0-.27,0-1.49-.55-1.65s-1.4.87-1.66,1.34c-1.49,2.64,3.89,9.2,9.54,13.21,0,0,6.34,4.49,17.48,5.32,1.38.1,2.22,0,2.42-.45C267,678.63,265.8,677.22,265.26,677.14Z" transform="translate(148.02 246.27)"/><path class="cls-4" d="M855.65,774.27c-6.33,20.45,11.85,35.59,4.69,44.08-5,5.87-18.8,4.54-28.13-.94-16.68-9.82-9.47-27.27-23.43-45-16.53-21-45.41-20.48-59.9-27.23a179.58,179.58,0,0,0,22.83-20.52c2-2.16,4-4.35,5.9-6.6a73.3,73.3,0,0,1,17.11,8.4c12.09,8.17,18.41,18.91,24.37,29.07,12,20.37,14.43,37.07,17.8,36.56,2.06-.33,1.88-6.59,3.75-18.76,3.09-20,5.1-33.15,14.06-41.25,9.24-8.32,24.25-9.93,27.21-5.62,1.37,2,0,5.28-9.39,20.63C857.66,771.33,857,769.77,855.65,774.27Z" transform="translate(148.02 246.27)"/><path class="cls-4" d="M659.69,874.58c-4.8,4.08-13,6.82-18.73,3.76-9.5-5.09-1.31-20.54-11.26-38.44-2-3.67-11.36-12.14-30-29-5.39-4.91-9.37-8.47-12-11.3-3.24-3.48-4.48-5.88-3.9-8.41,1.24-5.31,10.18-9.22,17.81-8.42,6.33.64,11.43,4.5,16.51,10.67,4,4.85,8,11.13,12.56,18.38,10.14,16.16,14.58,28.62,15.93,28.13s-2.18-14-4.69-23.44c-4.27-16.14-6.28-20.34-7.14-26.43,9.2-1.93,18.16-3.95,26.88-6.2,2.06,18.78,3.54,35.42,4.63,49.51C667.84,853.79,668.48,867.19,659.69,874.58Z" transform="translate(148.02 246.27)"/><rect class="cls-1" x="149.54" y="246.27" width="1020.97" height="768"/><path class="cls-18" d="M216.64,731.43s0,0,0,0v0l0,0v0Z" transform="translate(148.02 246.27)"/><path class="cls-13" d="M114.22,663.84c1.63,2.29,8.23.88,14.84-1.07,3.83-1.13,7.57-2.42,11.29-3.83s7.52-3.14,9.66-3.55a5.87,5.87,0,0,1,2.34-.11,6.58,6.58,0,0,1,2.48,1.21c2.07,1.51,4.35,4.32,6.8,7.68,9.67,13,20.29,26.76,30.09,43,1.77,2.89,2.26,6.89,11.37,16.47.56.58,1.13,1.18,1.77,1.82l.13.13a17.39,17.39,0,0,0-1.48,2l-.06.08c-1,2-1.54,4.3-1,6.06.71,2.2,2.89,3.08,4.71,3.44l3.38.16a25.65,25.65,0,0,0,4.3-.9,10.59,10.59,0,0,0,4.46-3.42v0a7.74,7.74,0,0,0,1.4-5,8.19,8.19,0,0,0-.27-1.76,6.26,6.26,0,0,0-3.2-3.88s0,0-.05,0a9.28,9.28,0,0,0-7.1-.5L209,720.06c-5.42-8.34-9.75-15.47-20.87-35.57-6.36-11.45-11.29-20-16.38-28.55a44.34,44.34,0,0,0-5.07-6.91,22.07,22.07,0,0,0-9.8-6.44,20,20,0,0,0-7.13-.8,26.9,26.9,0,0,0-6.39,1.27c-3.88,1.26-7.84,1.78-11.06,3.11-3.91,1.65-17.49-4.88-21.89,0C108.08,648.67,113.23,662.44,114.22,663.84Zm102.42,67.65v0s0,0,0,0h0v0Z" transform="translate(148.02 246.27)"/><path class="cls-13" d="M216.64,731.49l0,0h0Z" transform="translate(148.02 246.27)"/><path class="cls-13" d="M18.64,808.78c.5,3.16,35.58-8.61,85.31-16.1,16.74-2.52,29.3-4.59,41.88-6.85,5.76-1.14,12-2.29,18-3.61l4.59-1c1.29-.42,4.15-.3,2.19-1.86l-5.41-7.29-5.81-7.66-4.84-6c-2.34-2.88-4.87-5.87-7.65-9-3.3-3.81-11.17-12-19.17-14.8-4.08-1.46-7.82-1.41-9.15.19-2.19,2.64,2.2,8.78,6.78,15,5.28,7.07,11.1,14.11,16.67,20.78-.06-.06.22,0,.57.21a.28.28,0,0,1,0,.36,1.37,1.37,0,0,1-.24.27s0,0-.12.08l-.93.25-1.88.51c-20,5.48-41.3,11.69-65.48,16.12a182.32,182.32,0,0,0-38.35,11.21C32.19,800.93,18.32,806.79,18.64,808.78Z" transform="translate(148.02 246.27)"/><path class="cls-13" d="M94.47,592c1.93,3.13,7.23,2.61,12.4,1.45,24-5.39,42-24.06,70.12-36,2.35-1,13.41-4.74,22.45-8.58.14,0,.28-.12.41-.16.41-.19.8-.34,1.19-.52l.08,0c.46-.19.91-.4,1.34-.6.23-.09.45-.21.66-.29a6.49,6.49,0,0,0,.59-.29A5.65,5.65,0,0,0,205,546a6,6,0,0,0,1-1c3.38-4.2.73-11-.59-12-1.92-1.59-5.15-.47-10,2.08l-1.21.65a1.26,1.26,0,0,0-.28.19c-8.21,4.52-20.52,12.42-38,18.71-19.89,7.17-29.59,11.5-49,20.2-2.93,1.3-9.38,4.28-12,9.48C93.54,587,93.29,590.09,94.47,592Z" transform="translate(148.02 246.27)"/><path class="cls-13" d="M22.77,732.6c-6.45,20-9.75,30.12-13.5,32.8-12.63,9-30.85-3.55-69.75-12.3-47.17-10.6-78.16-5.06-78.75-10.25-.44-3.85,17.48-22.11,59.39-33.06C-4,690,22.73,694.79,29.52,703.9,31.22,706.18,28.43,715,22.77,732.6Z" transform="translate(148.02 246.27)"/><path class="cls-13" d="M93.69,651.81c27.42,12.24,34.92,39.25,38.25,51.26,3.41,12.32,16.91,40.07,5,56.65-22.9,32-112.8,26.52-142.3-11.55a58.26,58.26,0,0,1-9-53.31c10-29.81,42.08-40.56,49.5-43.05C43.29,649.1,68.61,640.62,93.69,651.81Z" transform="translate(148.02 246.27)"/><path class="cls-13" d="M89.34,549.07c16.65,11.51,12.89,16.54,25.89,61.45,8.87,30.64,12.41,47.34,7.87,57.47-9.48,21.08-52.41,30.94-85.51,20.5-7.41-2.34-47.91-9-42.75-32.81C8.2,594.18,10.1,550.31,53.34,542.92,58.28,542.08,75.94,539.8,89.34,549.07Z" transform="translate(148.02 246.27)"/><path class="cls-17" d="M27.79,410.05c-6,6.09-31.77,33.69-29.25,73.8.59,9.4,2.6,41.31,31.5,63.56,19.52,15,52.36,26.46,76.5,16.4,12.68-5.28,13.39-12.5,38.26-26.65,18.11-10.31,21.28-8.49,27-14.35,4.41-4.52,14.1-17.47,0-67.66-12.88-45.86-19.33-68.79-38.25-77.91C100.22,361.18,52.27,385.23,27.79,410.05Z" transform="translate(148.02 246.27)"/><path class="cls-12" d="M82.62,440.16c9.83,8.36,9.26,22.3,2.25,30.75-9.47,11.41-30.64,12.79-40.5,2-8.45-9.2-6.18-24.7,4.5-32.8C58,433.27,72.9,431.89,82.62,440.16Z" transform="translate(148.02 246.27)"/><path class="cls-12" d="M138.07,397.37c9.83,8.37,9.26,22.3,2.25,30.76-9.47,11.4-30.64,12.78-40.5,2.05-8.46-9.21-6.18-24.7,4.5-32.81C113.4,390.48,128.35,389.11,138.07,397.37Z" transform="translate(148.02 246.27)"/><path class="cls-13" d="M81.25,458.8a12.45,12.45,0,0,1-9.35,4.86c-5.94.19-10.14-4-11.7-7.06a12.89,12.89,0,0,1-1.31-4.87c-.18-3.34.65-7.08,1.73-7.15,1.53-.15,2.05,7.91,4.47,7.93,1.44.07,3.44-2.7,2.94-5-.69-3.14-5.47-3.68-5.22-5.48.19-1.51,4.19-2.82,7.63-2.56,5.56.49,8.74,5.07,9.45,6.14S85.18,453.11,81.25,458.8Z" transform="translate(148.02 246.27)"/><path class="cls-13" d="M138.69,412.44a12.46,12.46,0,0,1-9.35,4.86c-5.94.19-10.14-4-11.7-7.06a12.89,12.89,0,0,1-1.31-4.87c-.19-3.34.65-7.08,1.72-7.15,1.54-.16,2,7.9,4.48,7.93,1.44.06,3.44-2.7,2.94-5-.69-3.14-5.47-3.68-5.22-5.48.18-1.51,4.18-2.82,7.62-2.57,5.57.5,8.75,5.08,9.46,6.15S142.62,406.75,138.69,412.44Z" transform="translate(148.02 246.27)"/><path class="cls-17" d="M94.72,583.81c10.59,5.9,17.14,24.31,10.29,34.12-4.22,6.05-12.66,7.26-22.46,8.53-6.43.83-51,6.61-61.79-14.5-5.89-11.49,1.39-24.74,1.88-25.59C28,577,33.52,563,50.72,573.58,71.16,586.12,77.87,574.43,94.72,583.81Z" transform="translate(148.02 246.27)"/><path class="cls-17" d="M102.78,639.35c10.3,6.32,14.33,16.64,7.49,26.44C106,671.85,89.84,683,70.61,682.85c-6.49,0-30.2-1.29-52.46-12.76C-.78,660.33,5,651.29,5.79,645.68c4.26-28.71,22.37-10.1,42.7-6.33C82.6,645.68,88.53,630.61,102.78,639.35Z" transform="translate(148.02 246.27)"/><path class="cls-17" d="M98.24,687.39c21.22-5.45,29.41,27.69,31.93,34.4,2.58,6.88,1,21.86-10.07,28.94-25.43,16.21-71.53,21.34-93.83.07-8.55-8.16-16.94-24.09-6.67-33.59,13.87-12.84-6.42-36.33,24.44-23.14C58.32,700.18,74.32,693.53,98.24,687.39Z" transform="translate(148.02 246.27)"/><path class="cls-19" d="M73,485.24c-.12-.41-1.93.38-5.25.92a28.37,28.37,0,0,1-13.4-1.24,39.63,39.63,0,0,1-8-3.94,29.8,29.8,0,0,1-6.58-5.66,25,25,0,0,0-3.47-3.53c-.76-.5-1.57-.75-2-.51-.66.37-.25,2.11.63,3.74,2,3.83,5.66,6.88,10,9.07a48.2,48.2,0,0,0,15.15,4.29,19.48,19.48,0,0,0,9.25-1C70.16,487.2,73.19,485.66,73,485.24Z" transform="translate(148.02 246.27)"/><path class="cls-19" d="M125.79,442.6c-.34-.23-.82,1.21-3.38,2.1s-6.79.77-11.29-.63a50.07,50.07,0,0,1-7.27-2.9,43,43,0,0,1-6.62-4,16,16,0,0,0-3.81-2.29c-.76-.26-1.49-.27-1.76,0-.44.48.39,1.76,1.48,2.92,5.2,5.42,13.38,7.78,22.91,9.16a11.85,11.85,0,0,0,7.91-1.5A5.81,5.81,0,0,0,125.4,444C125.84,443.36,126,442.7,125.79,442.6Z" transform="translate(148.02 246.27)"/><path class="cls-19" d="M101,746.24c-.06.09.1.16.22.33a1,1,0,0,1-.28,1.16,2.23,2.23,0,0,1-2.53.07,3.29,3.29,0,0,1-1.89-2.64,4.61,4.61,0,0,1,1.73-3.47,8.71,8.71,0,0,1,4.19-2.06c.6-.14,1.8-.18,2.79-.35.5-.07,1-.24,1.07-.45s-.91-.87-2.27-1A9.28,9.28,0,0,0,96.2,741a4.77,4.77,0,0,0,.58,7.17,4.64,4.64,0,0,0,2,.91,4,4,0,0,0,2-.12,2,2,0,0,0,1.32-1.34,1.23,1.23,0,0,0-.26-1.12C101.54,746.11,101,746.15,101,746.24Z" transform="translate(148.02 246.27)"/><path class="cls-17" d="M-14.85,731c1.09-.25-5-8.36-5.82-21.16a82.12,82.12,0,0,1,1.31-21.16c.23-1.28.86-4,.47-6.1-.23-1.06-.75-1.89-1.37-2-1-.14-2.09,1.74-2.9,3.81-3.78,9.72-1.88,20.56.67,33a26.69,26.69,0,0,0,4.1,9.73C-17.89,727.94-15.42,731.15-14.85,731Z" transform="translate(148.02 246.27)"/><path class="cls-17" d="M-35.34,729.14a.62.62,0,0,1-.24-.09c-.2-.09-.24-.25-.22-.1s-.38.62-.53.69.37-.2.71-.1c0,0,.1,0,.06,0l0-.06,0-.06v0h0c0,.08-.37-.75-.19-.4h0c0,.1,0,.13,0,0s.18-.48.12-.38a.64.64,0,0,1-.16-.11,1.73,1.73,0,0,1-.44-.68c-.19-.43-.39-.89-.61-1.37a61.84,61.84,0,0,1-4.84-16.08A121.21,121.21,0,0,1-43,687.8c.06-1.37.23-4.38-.57-6.49-.43-1.08-1.13-1.86-1.79-1.86-1,0-1.87,2.15-2.35,4.42-2.28,10.64,1.17,21.66,4.66,34.68a30.86,30.86,0,0,0,4.79,10.11,3.73,3.73,0,0,0,1,1,1.68,1.68,0,0,0,1.87.2c.41-.37-.28-.78-.46-.7s.14-.29.09-.28,0,0,.07,0A1.07,1.07,0,0,0-35.34,729.14Z" transform="translate(148.02 246.27)"/><path class="cls-17" d="M-56.06,728.55c1-.27-4.74-7.95-6.77-20a119.8,119.8,0,0,1-1.72-20.38,16.22,16.22,0,0,0-.75-5.84c-.43-1-1.09-1.64-1.68-1.62-1,.05-1.59,2-2,4.05-1.67,9.64,1.69,19.45,5,31.14a28.35,28.35,0,0,0,4.39,9.08C-59,725.71-56.61,728.74-56.06,728.55Z" transform="translate(148.02 246.27)"/><path class="cls-17" d="M-79.33,725.91c.75-.25-4.15-5.83-6.44-15a90.62,90.62,0,0,1-2.53-15.53,12.49,12.49,0,0,0-.9-4.44c-.38-.72-.93-1.21-1.38-1.16-.73.08-1.11,1.6-1.27,3.19-.73,7.47,2.43,14.84,5.69,23.63a22.6,22.6,0,0,0,3.94,6.73C-81.77,723.9-79.74,726.09-79.33,725.91Z" transform="translate(148.02 246.27)"/><path class="cls-17" d="M-94.84,729.41c.6-.32-4.63-4.21-7.64-11.75a53.23,53.23,0,0,1-3.43-12.9,11.62,11.62,0,0,0-1-3.72c-.35-.6-.83-1-1.22-.95-.61.08-.9,1.39-1,2.76-.3,6.45,3,12.61,7,19.66a18.08,18.08,0,0,0,4.36,5.16C-97.25,728.1-95.15,729.62-94.84,729.41Z" transform="translate(148.02 246.27)"/><path class="cls-1" d="M14,577.42C7.54,592.5,4.24,600.08.49,602.1c-12.63,6.8-30.85-2.68-69.75-9.26-47.17-8-78.16-3.8-78.75-7.71-.45-2.9,16.59-5.65,58.5-13.88C-13.7,556.36,14,549,20.74,555.83,22.44,557.55,19.65,564.2,14,577.42Z" transform="translate(148.02 246.27)"/><path class="cls-17" d="M14.91,694.21s-.09,0-.09,0-.18.24,0,.14.21.09,0-.11a.3.3,0,0,1,0-.17,1.12,1.12,0,0,1,.08-.3c.06-.14.14-.28.1-.23l-.2-.12-3.1-1.77a53.7,53.7,0,0,1-9.81-7.17A110.82,110.82,0,0,1-9.22,672.58a13.81,13.81,0,0,0-3.36-3.27c-.73-.41-1.48-.55-1.83-.29-.56.42,0,1.87.82,3.28C-9.84,678.87-3,683.52,4.75,689.44a25.67,25.67,0,0,0,7.09,3.89c.35.13,1.27.43,2.12.66C15.16,694.23,14.63,694.27,14.91,694.21Z" transform="translate(148.02 246.27)"/><path class="cls-17" d="M11.12,709.7c.6-.76-9-3.29-18.17-11.7a99.43,99.43,0,0,1-13.7-15.27,18.4,18.4,0,0,0-4-4.37c-.9-.58-1.84-.82-2.31-.52-.75.49-.16,2.39.75,4.24,4.27,8.69,13,14.93,23.07,22.22a30.85,30.85,0,0,0,9.31,4.58C7,709.2,10.84,710.15,11.12,709.7Z" transform="translate(148.02 246.27)"/><path class="cls-1" d="M93.69,522.51c27.43,9.21,34.92,29.52,38.26,38.56,3.41,9.26,9.62,26.08-2.25,38.55-22.9,24.06-105.51,24-135-4.63-11.31-11-15.07-26.41-9-40.09,10-22.43,42.07-30.52,49.5-32.39C43.3,520.47,68.62,514.09,93.69,522.51Z" transform="translate(148.02 246.27)"/><path class="cls-19" d="M87.06,593.82c-.16-.77-2.09-.16-5.51.3a32.38,32.38,0,0,1-13.78-1.06,79.78,79.78,0,0,1-8.6-3.31,53,53,0,0,1-7.89-4.31,8.94,8.94,0,0,0-5.11-1.8A4.78,4.78,0,0,0,43,584.9c-1,1.16-.18,3,1.14,4.51,3,3.62,7.75,5.69,12.82,6.92a147.29,147.29,0,0,0,16.59,2.34A16.94,16.94,0,0,0,83.25,597C84.11,596.67,87.28,594.74,87.06,593.82Z" transform="translate(148.02 246.27)"/><path class="cls-19" d="M86.45,608.42c-.45-.74-2.11.44-5.39,1.78a28.68,28.68,0,0,1-14.18,1.95,61.5,61.5,0,0,1-9.42-2,43.27,43.27,0,0,1-8.65-3.48,9.61,9.61,0,0,0-5.42-1.44,5.12,5.12,0,0,0-3.21,1.51c-1,1.26,0,3.14,1.59,4.69,3.62,3.64,9,5.34,14.58,5.89a96.76,96.76,0,0,0,17.89-.59,16.25,16.25,0,0,0,9.46-4C84.48,612.12,87,609.26,86.45,608.42Z" transform="translate(148.02 246.27)"/><path class="cls-19" d="M93.5,642c-.33-.87-1.85.42-2.85.78l-1.45.55c-1.26.59-2.93,1.35-5.94,2.58a30.62,30.62,0,0,1-11.49,2.31,151.56,151.56,0,0,1-20-1.75c-1.23-.18-4-.58-6.06.72a4,4,0,0,0-2,2.72c-.15,1.61,1.67,2.67,3.63,3.45,4.54,1.81,9.6,2,15,1.52A157.13,157.13,0,0,0,79.69,652a16.58,16.58,0,0,0,8.91-4.84A13.71,13.71,0,0,1,90,645.7l1-.86C91.63,644.18,94,643.55,93.5,642Z" transform="translate(148.02 246.27)"/><path class="cls-19" d="M92.16,664.56s0,.08-.11.1.19.14.18.22a.32.32,0,0,1,0-.17c0-.07.11,0-.16,0,0,0-.37-.1-.75-.73-.44-1-.54-.46-.82-.46l-.8.32c-.57.23-1.22.51-2,.78a34.17,34.17,0,0,1-12.49,2.44c-6.89-.2-10.32-.43-16.74-2a8.3,8.3,0,0,0-5-.17,4.08,4.08,0,0,0-2.31,1.91c-.54,1.27.79,2.62,2.44,3.6,3.84,2.3,8.6,2.82,13.35,2.43s9.63-1.48,15-2.34a15.79,15.79,0,0,0,8-3.61,19.69,19.69,0,0,0,1.71-1.69c.17-.18.28-.38.23-.51s.21.11.15.06h0l.22,0s0,0,0,.05c0,.31,0,.08-.17-.05S92.2,664.58,92.16,664.56Z" transform="translate(148.02 246.27)"/><path class="cls-13" d="M-79.82,775.94a4.8,4.8,0,0,0-1,3.59c0,1.69.48,1.62,1,3A8.05,8.05,0,0,0-77.21,786a17,17,0,0,0,8.38,3.12,23.65,23.65,0,0,0,5.23.11c2.14-.21,3.43-.55,5.12-.85,13.1-2.5,31.59-5.75,53.17-9.2,11.06-1.79,20-3.64,28.6-5.81,4.29-1.09,8.48-2.25,12.8-3.57,1.08-.32,2.17-.67,3.26-1l4.28-1.43c4.3-1.39,7.84-3.7,9.27-7.46,1.27-3.26.07-6.44-3-11.69-1.77-3.33-2.44-6.49-4.3-12.18-2.75-7.15-5.09-14.29-11.6-17.17-12.74-4.42-12.74,3.71-14.49,7.77-1,5.67,1.05,7.79,4.82,13.4,2.56,3.8,5.33,7.46,8.29,11l2.25,2.67L36,755.07c.17.2,0,.07.07.11s0,0,0,0a.14.14,0,0,1,.08.09.27.27,0,0,1,0,.09s.2,0-.78.37L27,759.07c-5.71,2.16-11.59,4.34-17.76,6.33a260.05,260.05,0,0,1-40.44,9.82c-2,.31-6.39,1-12.27,2.29-2.94.64-6.25,1.46-9.81,2.47-1.77.5-3.61,1.06-5.5,1.67l-5.57,1.88c-1.32.38-1.69,1.9-1.05-3.8.33-2.84,1.47-8-8.88-6.28C-78.14,774.47-78.79,774.63-79.82,775.94Z" transform="translate(148.02 246.27)"/><path class="cls-13" d="M154.27,605.82c-.69-2.51-26.85,10-65.57,17.69L71.21,627l-3.84.76-1,.09-.46,0c-.08-.05-.08-.17-.12-.25l-.09-.23c-.08-.16.09,0-.21-.42a290.37,290.37,0,0,1-15.38-26.55c-1.7-3.3-4.2-22.22-8.92-26.29-2.44-2.09-10.1.35-11.57,7.9-2.71,10.15,2.33,8.37,4.17,14.27a93.22,93.22,0,0,0,9,19.85c1.9,3.2,4,6.36,6.21,9.49,1.12,1.56,2.26,3.12,3.45,4.67l4.57,5.9,1.85,2.4,1.43,2,1.47-.27.5-.13.5-.14,2.61-.72,5.09-1.41,3-.93,12.43-3.82c8.45-2.57,17.28-5.14,26.68-7.52a126.27,126.27,0,0,0,29.34-11.22C144.43,613.06,154.73,607.36,154.27,605.82Z" transform="translate(148.02 246.27)"/><path class="cls-13" d="M214.33,228.65c-23.78-11-153.09,156.2-134.84,171.83,10.07,8.62,25.22-46.58,50.9-78.9,37.2-46.82,50.73-73.36,84.05-55.32C231.23,275.35,221.11,231.79,214.33,228.65Z" transform="translate(148.02 246.27)"/><path class="cls-13" d="M28.92,215.71C2.64,219.9,9.34,424.36,34.23,426.88,48,428.27,23.72,375.83,23,335.94c-1.08-57.8-7.74-86.43,30.8-90.22C73.2,243.81,36.41,214.51,28.92,215.71Z" transform="translate(148.02 246.27)"/><path class="cls-13" d="M16.67,640c-5.82,3.13-8,12.2-5.06,18,.63,1.23,2.37,9,17.73,9.23,14.38.24,23.77-11.65,30.39-7.39,9.68,6.22,11.77,32.55,12,46.22.28,19.29.25,30.13-12,54.66C46.84,786.61,38.64,790.67,42,792.83c3.15,2,14.36-8,15.2-8.77,0,0,39-35.19,16.84-130.94-.58-2.51-1.8-6.85-5.69-9-4.79-2.6-9.61.35-16.72,1.38C33.88,648.12,25.32,635.36,16.67,640Z" transform="translate(148.02 246.27)"/><path class="cls-19" d="M20.39,645.15c-5.05,2.46-6.15,10.39-1.92,13.74,5.24,4.13,10.33,2.36,16.45-2.49,9.39-7.45,22.49-7.72,28.23-4.39,8.37,4.87,13.56,30.45,13.74,41.15.24,15.09-.08,35.84-8.25,56-8.91,22-20.43,33.69-17.51,35.38,2.73,1.58,15-20.64,15.71-21.24,0,0,22.39-33,3.23-107.87-.5-2-1.56-5.36-4.93-7-4.14-2-10.39-.76-16.54,0C33.22,650.46,27.87,641.51,20.39,645.15Z" transform="translate(148.02 246.27)"/><path class="cls-19" d="M113.66,784.88c.16.84,11.59-2.29,27.79-4.28,5.46-.67,9.55-1.22,13.65-1.82,1.87-.3,3.91-.61,5.85-1l1.5-.26c.42-.11,1.35-.08.71-.49-.57-.64-1.16-1.28-1.76-1.94l-1.89-2c-.51-.53-1-1.06-1.58-1.61-.76-.76-1.58-1.56-2.49-2.39a17.38,17.38,0,0,0-6.25-3.93c-1.32-.39-2.54-.38-3,.05-.71.7.72,2.33,2.21,4,1.72,1.88,3.62,3.75,5.43,5.52,0,0,.08,0,.19.06s0,.05,0,.09a.29.29,0,0,1-.08.07l0,0-.3.06-.61.14c-6.53,1.46-13.46,3.11-21.34,4.28a71,71,0,0,0-12.49,3C118.07,782.8,113.56,784.35,113.66,784.88Z" transform="translate(148.02 246.27)"/><path class="cls-19" d="M-20.19,775.75c.19,2,22.1-4.59,41.42-9.35,6.5-1.6,12.64-4.23,17.52-5.66,2.24-.73,2.4-.64,4.72-1.48a33.13,33.13,0,0,1,4-.48c2,0,3.32.7,3.88-1.32.82-3.12-1.17-4.32-1.89-5.89s-1-1.68-1.73-3.34c-.62-1.25-2.22-6-2.86-7.35-.91-1.83-4.3-12.18-5.39-14.17-1.28-2.42-4-4.13-7.06-5.91-1.58-.93-5-.1-4.71,5.91S31.25,737.07,33,741c2,4.5,4.31,9,6.47,13.23,0,0,.09,0,.22.13a.27.27,0,0,1,0,.23,1,1,0,0,1-.09.17s0,0,0,0l-.36.16-.73.33c-7.78,3.49-16,7.44-25.43,10.26-1.77.53-8.83,2.93-17.34,5.87C-11.06,773.54-20.31,774.48-20.19,775.75Z" transform="translate(148.02 246.27)"/><path class="cls-19" d="M37.86,581.11c4-.22,10.68,22.47,21,45.15a10.5,10.5,0,0,0,3.92,5c5.25,3.34,12.22.19,28.39-4.64,10.66-3.18,24.71-6.91,25.07-6.06,0,.12.22,1.23-5.09,2.85-24,7.34-20.36,4.87-35.47,10.08-.62.21-11.22,1.75-12.48,1.52-5.3-1-8.3-8.79-12.76-20.16-6.46-16.46-18.16-22.52-14.69-31.05C36.07,582.88,36.77,581.17,37.86,581.11Z" transform="translate(148.02 246.27)"/><path class="cls-19" d="M106.84,586.53c6.8,4.12,37.6-16.2,45.47-21.32A460.19,460.19,0,0,1,198.06,539c-.1-.58-.21-1.14-.35-1.69-13.24,5.8-39.7,18.21-89.14,42.19-.47.17-4.07,1.61-4.28,3.72C104.14,584.89,106.14,586.09,106.84,586.53Z" transform="translate(148.02 246.27)"/><path class="cls-19" d="M121.58,655.15c0-3.83,18.13-11.58,32.84-8.18a23.92,23.92,0,0,1,4.84,1.58c10.35,4.75,31,46.55,29.73,47.25-1.39.79-23.76-43.92-35.26-45-9.33-.91-15,5.65-25.93,7.56C125.16,658.77,121.57,657,121.58,655.15Z" transform="translate(148.02 246.27)"/><path class="cls-13" d="M19.07,800l-.21.09,1.15-.44a5.16,5.16,0,0,1-1,.25l1.28-.16a4.92,4.92,0,0,1-1.15,0l1.28.16a6.1,6.1,0,0,1-1.19-.3l1.16.44a4.55,4.55,0,0,1-1-.53l1,.69a4.16,4.16,0,0,1-.76-.69l.76.9a3.36,3.36,0,0,1-.41-.6l-.76,5.34a1.76,1.76,0,0,1,.3-.24l-1,.69a2.61,2.61,0,0,1,.66-.35l-1.15.44a3.59,3.59,0,0,1,.8-.19l-1.29.15a5.16,5.16,0,0,1,1,0l-1.28-.16a5.17,5.17,0,0,1,1,.26l-1.16-.44a3.84,3.84,0,0,1,.9.47l-1-.69a3.78,3.78,0,0,1,.59.54l-.76-.89a2.92,2.92,0,0,1,.4.59l-.49-1.05a2.72,2.72,0,0,1,.2.63,3.25,3.25,0,0,0,.86,1.49,3.62,3.62,0,0,0,1.36,1.14l1.15.44a4.08,4.08,0,0,0,1.93.08,2.56,2.56,0,0,0,1.22-.3,3.63,3.63,0,0,0,1.55-.91l.76-.89a4.06,4.06,0,0,0,.66-2.23,2.73,2.73,0,0,0,0-.7,8.7,8.7,0,0,0-.32-1.75,8.42,8.42,0,0,0-1.93-3,4,4,0,0,0-.53-.48,10.28,10.28,0,0,0-1.56-1,9.35,9.35,0,0,0-3.77-.93,3.88,3.88,0,0,0-1.86.37,3.83,3.83,0,0,0-1.56.91,3.39,3.39,0,0,0-1,1.42,3.07,3.07,0,0,0-.41,1.7,4.21,4.21,0,0,0,1.41,3.11l1,.69a5.12,5.12,0,0,0,2.44.6l.25,0-1.29-.16a3.5,3.5,0,0,1,.86.22L17,804.24a3.58,3.58,0,0,1,.77.42l-1-.69a3.83,3.83,0,0,1,.69.64l-.75-.89a3.28,3.28,0,0,1,.45.71l-.49-1a3.09,3.09,0,0,1,.25.78L16.8,803a3.06,3.06,0,0,1,0,.74l9.49-1.17a6,6,0,0,0-.8-1.88,7,7,0,0,0-1.29-1.54,9.35,9.35,0,0,0-3.71-2,10,10,0,0,0-4.41-.13,7.62,7.62,0,0,0-3.76,1.9l-.76.89a3.12,3.12,0,0,0-.57,1.64,2,2,0,0,0,0,1.17,3.09,3.09,0,0,0,.57,1.63,9.1,9.1,0,0,0,1.21,1.55,4.44,4.44,0,0,0,.6.54,10.68,10.68,0,0,0,1.68,1.12,12.47,12.47,0,0,0,1.9.74,5.08,5.08,0,0,0,.86.19,12.33,12.33,0,0,0,2.1.19c.54,0,1.09-.11,1.63-.18a3.54,3.54,0,0,0,.45-.08,11,11,0,0,0,1.95-.7,3.59,3.59,0,0,0,1.35-1.14,3.19,3.19,0,0,0,.87-1.49,3.12,3.12,0,0,0,.09-1.76,3,3,0,0,0-.58-1.64,4.78,4.78,0,0,0-2.89-2l-1.28-.16a5.12,5.12,0,0,0-2.44.6Z" transform="translate(148.02 246.27)"/><path class="cls-13" d="M216.64,731.46v0l0,0v0h0S216.67,731.43,216.64,731.46Z" transform="translate(148.02 246.27)"/><path class="cls-13" d="M210.58,737.32l-3.38-.16a16.39,16.39,0,0,0,2.5.25,13,13,0,0,0,5.18-1A25.65,25.65,0,0,1,210.58,737.32Z" transform="translate(148.02 246.27)"/><path class="cls-13" d="M203.51,727.58a17.39,17.39,0,0,1,1.48-2l-.13-.13A13.82,13.82,0,0,0,203.51,727.58Z" transform="translate(148.02 246.27)"/><rect class="cls-1" x="148.02" y="246.27" width="1024" height="768"/></g></g></g></svg>