<svg xmlns="http://www.w3.org/2000/svg" xmlns:xlink="http://www.w3.org/1999/xlink" width="344" height="344" viewBox="0 0 344 344">
  <defs>
    <clipPath id="clip-path">
      <rect id="Rectangle_1971" data-name="Rectangle 1971" width="321" height="316" transform="translate(903 4736)" fill="#fff" stroke="#d46d5d" stroke-width="1"/>
    </clipPath>
    <clipPath id="clip-path-2">
      <rect id="Rectangle_1970" data-name="Rectangle 1970" width="321" height="274.768" fill="none"/>
    </clipPath>
    <clipPath id="clip-Your_brain_is_amazing_19">
      <rect width="344" height="344"/>
    </clipPath>
  </defs>
  <g id="Your_brain_is_amazing_19" data-name="Your brain is amazing 19" clip-path="url(#clip-Your_brain_is_amazing_19)">
    <rect width="344" height="344" fill="#fff"/>
    <g id="Mask_Group_100" data-name="Mask Group 100" transform="translate(-891 -4722)" clip-path="url(#clip-path)">
      <g id="aaaargh_" data-name="aaaargh!" transform="translate(1063.5 4894)">
        <g id="aaaargh_2" data-name="aaaargh!" transform="translate(-160.5 -137.384)" clip-path="url(#clip-path-2)">
          <path id="Path_102898" data-name="Path 102898" d="M320.032,152.426c-.773,5.65-7.554,49.188-43.538,71.135-20.877,12.728-42.051,12.312-51.21,12.133-10.349-.178-23.553-.416-31.7-8.684-3.271-3.331-4.52-6.661-11-12.728-.833-.773-16.237-8.684-22.066-13.918l-1.844,1.427c-14.156,11.6-38.839-8.922-78.57-13.263-35.984-3.926-50.437,9.1-65.842-4.282C2.66,174.016.935,157.719.281,151.89c-1.309-12.609.416-32.415,23.85-64.117C44.651,60,84.382,6.29,154.744.461,169.2-.729,210.3-1.978,250.622,24.728c33.188,21.947,77.44,70.54,69.41,127.7" transform="translate(0.016 0.015)" fill="#fff0bf"/>
          <path id="Path_102899" data-name="Path 102899" d="M168.078,212.291c20.7.595,24.8-12.55,43.121-11.717,15.821.714,28.133,11.182,30.928,13.739,8.743,7.851-2.8,43.538,19.925,29.263,11-6.9,4.818-17.546-7.316-15.881-5.056.714-7.97-11.42-6.6-11.539,29.263-2.736,32.475,13.68,40.088-3.807,9.933-22.78-9.635-11.836-18.616-1.9-2.974,3.331-23.2,2.26-24.5,2.022-3.033-.535-4.937-3.033-5.769-3.985-6.186-7.256-17.367-6.126-17.427-9.814-.059-1.487,1.844-2.676,2.914-3.331,4.877-3.033,11-.119,13.026.773,6.661,3.093,12.074,17.011,17.427,10.825,7.613-8.743-7.018-5.71-8.148-7.435-2.736-4.044-6.9-4.52-6.78-5.412s6.126-3.033,13.561-1.606c16.416,3.212,15.286-2.676,10.944-4.223a33.06,33.06,0,0,0-6.126.416c-4.163.595-6.007,1.309-6.126.952s3.509-2.26,8.267-5.294c8.267-5.234,10.409-8.446,12.55-7.435s-5.412,13.323,5.175,12.966c5.829-.178,6.245-4.223,5.531-6.3-2.022-5.71-9.992-7.316-9.457-8.565s1.309-.654,5-.119c6.959,1.011,7.97,1.9,10.528,1.487,3.926-.714,21.709,16.356,25.813,8.862,9.278-16.892-18.319-16-23.732-12.193-1.011.714-8.981,1.9-10.171-.535s-.357-4.7.892-5.293c7.435-3.569-1.071-7.435-1.606-7.137-6.543,3.45-.535,10.944-2.022,12.193s-2.2-.119-4.4,0-2.855.595-6.9,3.688c-5.948,4.52-7.2,6.483-8.029,5.948s.416-2.8,1.606-10.587c.357-2.5.714-5.412,2.022-5.71s1.13.654,2.141.535a3.773,3.773,0,0,0,2.617-3.152c.119-1.546-1.487-3.628-2.914-4.223-2.736-1.13-6.186.773-6.424,2.5s1.963,2.32,1.9,4.52a4.282,4.282,0,0,1-1.011,2.379c-2.676,3.807-.654,8.565-2.5,12.728s-6.543,5.531-10.171,6.6c-4.639,1.427-8.267.952-13.68.119-7.613-1.13-13.561-1.963-18.081-7.137-1.9-2.2-3.807-4.4-3.747-7.435.119-6.424,9.219-8.267,14.334-18.319.476-.952,1.19-2.5,1.9-2.379s2.617,5.472.773,9.16c-.595,1.249-1.427,1.963-1.9,3.866-.178.952-.595,2.676.238,3.45s3.45.178,3.866-1.071-1.071-1.9-1.13-3.985.654-1.844,1.13-3.45c1.13-3.747-1.368-6.364-.238-7.554s2.736.773,6.661,1.071,7.316-1.844,8.565-.416c.119.119.119.178.119,4.758a6.126,6.126,0,0,1-.714,3.39,2.915,2.915,0,0,1-.714.833c-1.011.833-1.963.238-2.617.773s-.773,2.439,0,3.569,3.509,1.546,4.639.535.773-2.141.773-5.175c-.059-5.65-.059-8.505,1.011-9.695s2.8-.357,8.267-.416c6.84,0,10.884-1.665,11.9.238s-.3,2.082.476,3.152,2.676,1.309,4.044.654,2.32-3.093,2.26-4.639-1.844-4.639-3.628-4.758-1.725,1.784-3.747,2.379c-4.877,1.368-9.695,2.855-11.063.654s1.725-6.364,2.617-7.673,11-12.014,13.68-11.539c5.472,1.011,7.256,9.041,13.858,5.531s5.472-8.029,4.52-12.609c-1.844-8.862-10.171-10.171-14.691-7.792-6.186,3.271-4.639,7.97-6.84,11.539-1.368,2.2-9.041,10.349-10.706,12.907-2.558,3.866-2.617,5-4.52,7.018a15.583,15.583,0,0,1-3.152,2.5c-6.126,3.688-12.907,1.308-15.167.535s-3.747-1.308-4.163-2.5c-.773-2.26,2.32-4.044,5.888-9.933s4.282-10.052,6.424-9.933c1.13.059,1.546,1.368,2.736,1.19s2.558-2.26,2.379-4.1a4.52,4.52,0,0,0-4.639-3.866,4.639,4.639,0,0,0-4.163,3.866c-.119,1.071.357,1.487.476,2.5.3,2.676-2.379,5.056-3.509,6.126-6.78,6.3-5.175,8.743-11.658,13.68-4.282,3.212-8.684,6.543-12.074,4.758-4.818-2.5-4.4-13.8-2.617-14.453.833-.3,1.844,1.725,3.033,1.309s1.725-2.855,1.13-4.639c-1.011-3.033-5.353-4.461-6.78-3.152s-.3,2.2,0,6.245c.119,1.844.059,4.044-.119,8.505-.238,6.721-.357,10.052-1.249,11.539-2.676,4.58-9.219,5.591-13.442,5.056-1.071-.119-8.743-1.13-10.171-6.364-1.13-4.223,2.26-9.278,3.628-9.041s.714,2.2,2.022,2.676,3.152-.892,3.866-2.5c1.19-2.617-.357-6.3-2.022-6.6s-2.26,1.13-4.877,3.688-2.379,2.558-3.152,2.379-1.19-.773-2.022-3.866c-1.368-5.115-2.082-7.732-.892-10.23s3.45-3.569,5.294-4.4c4.758-2.2,10.646-1.784,11.42.238.357.892-.595,1.487-.238,2.8s3.212,3.331,5,2.676,3.212-6.3,1.368-8.327c-.595-.654-1.309-.833-5.531-1.071a64.815,64.815,0,0,0-7.435-.238c-6.126.595-8.327,3.39-9.4,2.379s1.844-10.29,7.554-17.486c6.6-8.446,17.011-16.178,21.233-13.263,1.368.952,2.855,3.628,3.271,6.245s-.357,3.807.476,4.758,4.818,1.13,6.3-1.19.892-4.58-.357-5.412-2.5.773-4.282.119-3.688-4.044-2.914-5.412,8.624.535,11.9,1.725c1.546.535,11.182,4.1,10.765,7.316-.178,1.487-2.32,1.546-2.914,3.688a5.088,5.088,0,0,0,2.736,5.829c2.2.892,5.293-1.071,6.3-3.45s.119-6.007-1.606-7.018-1.427-.119-2.5-.773a5.115,5.115,0,0,1-2.26-3.45c-.416-4.4,10.587-10.409,13.442-7.792,1.309,1.19.238,3.688,1.784,4.639s4.163-.119,5.293-2.26,0-5.65-1.784-6.6-2.141-.059-6.126,1.19c-5.769,1.784-5.472,1.011-7.256,1.963-4.4,2.379-4.044,5.65-7.256,6.483s-3.033-1.071-7.792-2.379c-6.78-1.9-10.052.357-11.777-1.963-.416-.595-.892-1.606.773-8.624s3.033-12.907,5.65-13.263c1.487-.178,3.39,2.558,7.613,0s4.163-6.245,2.082-11.241c-1.546-3.628-12.728-7.316-17.248-1.309-5.293,7.018,2.8,8.386,2.8,12.609,0,2.5-.476,2.914-3.033,11.122-2.082,6.9-2.32,8.505-4.163,9.933s-4.044,1.487-5.769,1.725c-10.765,1.546-15.286,19.509-19.092,18.438-2.26-.654,0-6.721-3.509-15.88-3.033-7.911-8.446-13.145-6.661-15.88.952-1.427,8.327-4.044,8.8-5.531,2.082-6.543-5.234-8.446-7.078-9.16s-8.624-.714-9.695,4.937c-.773,4.163,2.2,7.792,5.175,11.955,4.282,6.007,4.163,6.84,4.044,7.316-.833,2.5-7.375,3.152-8.8.952-.833-1.309.714-2.8-.119-5.056a4.78,4.78,0,0,0-4.758-3.331c-3.331.3-6.007,5.888-4.163,8.862,1.249,1.963,4.461,2.736,7.554,1.309a11.9,11.9,0,0,0,5.888,1.844c2.974.059,4.1-1.19,5.531-.654,3.212,1.13,3.45,9.16,3.39,13.5-.119,8.148-1.606,11.6-4.044,23.077-2.141,10.111-2.32,13.977-5,22.661-3.39,10.825-5.115,11.6-6.007,11.777-2.141.416-4.52-1.665-13.323-16.059-13.2-21.65-12.907-25.337-11.777-27.6,2.2-4.461,8.981-6.364,10.646-4.639s-.476,3.569,1.011,5.591a4.818,4.818,0,0,0,6.007,1.19c2.914-1.665,3.152-6.126,1.784-7.792s-2.141-.416-7.018-1.19c-3.688-.595-3.509-1.071-4.877-.952-4.461.416-6.126,5.234-8.029,4.639s-1.9-6.6-1.9-8.624c.119-10.349,3.866-19.092,4.877-18.854s-.416,4.044,1.011,4.758,5.234-1.9,5.769-5.591c.416-2.676-.892-5.948-2.914-6.483s-5.769,3.926-6.424,4.877c-2.439,3.747-2.26,6.9-3.271,7.018s-1.368-4.937-4.4-10.052a34.392,34.392,0,0,0-12.431-9.4c-3.509-1.546-5.769-16-10.587-7.613-1.309,2.26-4.58,16.3,5.293,15.821,1.368-.059,1.368-3.569,3.747-4.52,1.368-.535,2.736.059,4.282.773.416.178,7.316,3.509,6.9,7.137s-4.758,4.282-7.137,5.056c-10.528,3.45-23.553.773-24.5-4.1C95.753,84.89,99.2,76.861,98.192,74.6s-10.825-7.018-13.977-5.829S78.742,80.251,87.069,86.08c1.725,1.19,3.45,1.071,7.911,3.688,2.141,1.309,1.844,1.665,4.163,3.212a25.04,25.04,0,0,0,20.1,3.331c5.353-1.427,6.245-3.569,8.565-2.914,3.569,1.011,6.186,7.554,4.877,12.966-1.606,6.84-9.219,10.884-13.8,9.4-3.093-1.011-3.093-4.044-6.543-5.056s-17.248-3.093-18.5.952,1.963,17.07,10.052,16.832c9.576-.238,4.1-10.646,7.732-11.3,2.022-.357,2.8,1.249,7.137,2.8,3.39,1.19,4.818.833,6.543,1.309,6.6,1.844,9.278,13.382,11.3,21.888,2.736,11.658,4.163,17.546,1.9,21.59-5.056,9.16-10.052-9.576-27.062,2.022S75.114,139.61,79.516,132.056c1.249-2.082,3.747-3.212,3.866-6.126s-2.439-7.435-6.424-7.435-6.126,3.747-6.3,6.6,2.26,3.926,4.044,7.792.833,7.851,1.249,12.074c1.309,12.49,17.13,17.367,15.583,22.007-.892,2.676-6.78,2.736-13.026,2.8-7.375.059-11.836.119-15.167-3.033s-1.9-7.792-6.78-13.145c-1.19-1.309-5.293-5.769-8.922-4.4s-5.175,8.505-3.509,9.933,4.1-2.439,8.148-1.487a8.457,8.457,0,0,1,6.007,6.6c.773,4.1-1.963,7.494-2.736,8.505-6.126,7.494-19.925,7.078-22.066,2.5-1.071-2.26,1.606-5.948-2.855-8.684-1.844-1.13-12.312.416-13.085,4.937s3.628,12.074,10.171,11.6c1.606-.119,3.688-3.747,5.769-4.163s3.093,1.19,5,2.26c6.245,3.39,14.81-1.606,16.594-2.676,3.985-2.32,3.212-3.45,6.126-4.758,5.175-2.32,9.814.178,17.546,2.676,15.048,4.818,21.233,3.152,21.59,5.71.535,3.628-11.3,11.717-22.245,10.052-4.937-.714-14.513-3.926-16.535-2.439-13.68,10.052,1.665,18.438,9.992,14.572,1.784-.833,1.725-5.769,5.65-7.494s6.543-1.19,10.528-1.19c8.029-.059,11.717-1.963,16.832-2.676,12.847-1.784,18.141,6.126,41.932,13.8,10.468,3.39,15.7,5.056,21.531,5.234" transform="translate(-7.072 -22.023)" fill="#ffd54e"/>
          <path id="Path_102900" data-name="Path 102900" d="M293.459,380.032c6.364-5.531,3.271-17.07-6.6-35.924-2.974-5.71-4.52-10.765-10.23-21.59-24.207-45.857-30.155-23.434-13.323-39.553,9.279-8.862,9.16,1.665,21.233-2.141,5.056-1.606,15.464-6.3,8.208-9.338-3.39-1.427-3.152,2.855-10.646,5.056s-18.795-10.409-22.364-2.736c-8.684,18.557-20.282,5.591-25.337,2.974s-9.457-6.126-15.762-9.754c-7.613-4.4-3.628,28.668-6.543,25.754-11.539-11.36-12.788-2.379-15.821,1.963s15.524,11.122,21,13.085c10.646,3.866-3.688-30.988,7.375-26.051,11.955,5.412,2.617,6.067,2.2,10.825-2.617,27.479.3,31.761-1.011,44.132-1.665,16-25.04,46.1-4.877,41.1,52.935-13.145,59.834,13.263,72.5,2.2" transform="translate(-79.4 -108.041)" fill="#bf3422"/>
          <path id="Path_102901" data-name="Path 102901" d="M247.521,267.473c-8.8-1.9-6.483-20.46-16.237-20.044-5.769.238-20.4-7.792-10.765-18.319,12.371-13.5,21.531,6.067,22.6,10.29,5.056,20.7,6.78,28.549,4.4,28.073" transform="translate(-88.062 -90.944)" fill="#bf3422"/>
          <path id="Path_102902" data-name="Path 102902" d="M267,281.254c-3.866-4.52,9.1-20.222,2.914-27.776-3.688-4.461-5.888-23.494,8.327-22.126,18.26,1.784,11.182,21.412,7.137,23.2-9.279,4.163-15.7,29.8-18.379,26.705" transform="translate(-107.898 -93.721)" fill="#bf3422"/>
          <path id="Path_102903" data-name="Path 102903" d="M285.379,252.954c2.141-1.487,5.293-4.1,5.293-8.267,0-5.412-4.7-10.23-10.052-9.992-7.91.357-9.278,8.267-7.494,13.62s8.565,7.256,12.193,4.639" transform="translate(-110.397 -95.101)" fill="#fff"/>
          <path id="Path_102904" data-name="Path 102904" d="M283.788,250.933c1.784-.773,4.163-2.8,4.223-5.591.119-3.747-3.747-7.316-7.375-6.959s-7.256,5.591-6.007,9.279,5.888,4.758,9.16,3.331" transform="translate(-111.185 -96.589)" fill="#051c22"/>
          <path id="Path_102905" data-name="Path 102905" d="M281.86,246.031a1.606,1.606,0,0,0,1.011-1.368A1.725,1.725,0,0,0,281.028,243a1.844,1.844,0,0,0-1.368,2.26,1.665,1.665,0,0,0,2.2.773" transform="translate(-113.301 -98.467)" fill="#fff"/>
          <path id="Path_102906" data-name="Path 102906" d="M281.331,346.3a17.367,17.367,0,0,0,4.877-7.554c1.963-6.245,0-12.252-.416-13.68a20.222,20.222,0,0,0-9.457-11.658c-1.606-.952-8.565-5.174-15.643-.892a16.773,16.773,0,0,0-7.078,8.446,24.689,24.689,0,0,0-1.309,12.55c.3,2.141,1.309,9.16,6.186,13.977,5.888,5.888,12.907,3.807,15.88,2.914a17.249,17.249,0,0,0,7.078-4.1" transform="translate(-102.125 -125.876)" fill="#104c56"/>
          <path id="Path_102907" data-name="Path 102907" d="M280.237,344.575a13.2,13.2,0,0,0,4.282-5.769A15.243,15.243,0,0,0,284.1,328.4a16.449,16.449,0,0,0-8.327-8.862c-1.784-.952-7.554-3.926-13.8-.654a13.561,13.561,0,0,0-6.245,6.424,16.713,16.713,0,0,0-1.19,9.516c.178,1.487,1.13,6.959,5.412,10.646,5.234,4.461,11.36,2.855,13.977,2.2a15.821,15.821,0,0,0,6.186-3.093" transform="translate(-103.053 -128.612)" fill="#051c22"/>
          <path id="Path_102908" data-name="Path 102908" d="M234.225,244.786c2.141-1.487,5.353-4.1,5.293-8.267,0-5.412-5.769-8.386-11.063-8.624-6.483-.3-8.267,6.9-6.424,12.193s8.565,7.256,12.193,4.639" transform="translate(-89.695 -92.345)" fill="#fff"/>
          <path id="Path_102909" data-name="Path 102909" d="M232.711,243.532c1.784-.833,4.1-2.855,4.1-5.71a7.308,7.308,0,0,0-7.554-6.84c-3.688.357-7.137,5.769-5.769,9.4s6.007,4.58,9.219,3.093" transform="translate(-90.44 -93.59)" fill="#051c22"/>
          <path id="Path_102910" data-name="Path 102910" d="M228.66,238.331a1.606,1.606,0,0,0,1.011-1.368,1.725,1.725,0,0,0-1.844-1.665,1.844,1.844,0,0,0-1.368,2.26,1.665,1.665,0,0,0,2.2.773" transform="translate(-91.743 -95.347)" fill="#fff"/>
          <path id="Path_102911" data-name="Path 102911" d="M347.139,291.9c2.676,1.606,6.364,4.58,2.26,8.089s-8.446,2.676-11.182,2.379c-1.13-.119-3.688-.952-4.58-.952s-1.011,1.13-1.487,1.665a23.435,23.435,0,0,0-4.58,6.543c-.714,1.368-1.427,3.331-2.617,4.52s-2.855,1.13-3.033-.178.476-2.676.476-4.044a28.814,28.814,0,0,1,2.022-8.505c0-1.011,1.13-1.963.654-2.439a8.25,8.25,0,0,0-4.223-.833c-2.855.714-6.543,5.531-7.792,7.2-.535.714-1.368,1.071-1.844-.833s.476-4.163,1.725-5.65,5.056-3.152,7.554-2.2a11.836,11.836,0,0,0,7.792-.119c1.784-.773,4.4-2.379,6.78-3.271a46.81,46.81,0,0,1,6.543-1.9c1.844-.357,4.282-.238,5.531.535m-6.186,7.613c1.546-.476,2.736-1.784,2.141-2.974s-4.639-1.963-6.245-1.784c-3.331,1.427-7.375,3.39-10.23,3.212,1.309.3,4.461.773,6.78,1.071s5.769,1.071,7.554.535" transform="translate(-126.062 -117.992)" fill="#bf3422"/>
          <path id="Path_102912" data-name="Path 102912" d="M383.528,318.032c-6.483,4.58-13.8,7.018-21.233,9.516-4.639,1.546-9.814,3.212-13.5,2.5a9.187,9.187,0,0,1-6.78-5.769,9.634,9.634,0,0,1,1.606-8.684,15.7,15.7,0,0,1,2.32-2.5,12.966,12.966,0,0,1,2.5-1.606c5.353-1.309,11.3-1.844,16.178-4.282,3.569-1.784,6.3-3.628,9.635-2.914,1.011.238,2.379.833,2.141,1.606s-4.461,2.974-6.245,3.926c-4.758,2.557-11.241,3.39-16.059,4.937a11.308,11.308,0,0,0-4.639,3.985c-.714,1.249-.892,4.223,1.011,5.115,3.688,1.725,11.6-2.439,16.118-3.807a32.138,32.138,0,0,0,3.39-1.13,36.041,36.041,0,0,0,6.3-3.569c1.249-.892,3.807-3.45,5.175-3.985a7.4,7.4,0,0,1,4.937.3c3.509,1.665.3,4.223-2.8,6.424" transform="translate(-138.422 -123.243)" fill="#bf3422"/>
          <path id="Path_102913" data-name="Path 102913" d="M395.951,350.284c6.483-2.557,8.8-3.807,12.55-6.3,1.844-1.19,3.747-3.331,5.175-4.163s2.082-.833,2.914-.3,1.487,1.368,1.249,2.2-4.044,4.282-6.245,5.472c-8.684,4.7-18.5,7.97-27.657,11.9a69.394,69.394,0,0,1-9.516,3.45c-2.914.714-5.175.714-5.293-.059s1.19-1.13,2.736-2.26a58.262,58.262,0,0,0,10.646-11.539c.833-1.19,6.6-5.293,10.052-8.029-6.661,2.974-13.68,5-20.044,8.446-2.974,1.606-9.16,5.175-11.063,5.293s-2.32-1.011-1.725-2.736,7.137-5.234,9.576-6.721c8.208-4.937,18.379-6.959,26.17-12.193,2.2-1.487,5.115-4.282,6.543-4.58a3.821,3.821,0,0,1,3.866,1.784c.654,1.249-.714,3.925-2.141,6.364a28.951,28.951,0,0,1-9.576,10.884c-2.5,1.784-7.613,5.591-8.446,7.018,1.9-.595,8.446-3.212,10.409-3.985" transform="translate(-145.669 -132.954)" fill="#bf3422"/>
          <path id="Path_102914" data-name="Path 102914" d="M395.515,374.261c-4.937.773-8.208.535-3.212-1.071a17.784,17.784,0,0,1,7.078-.833c2.8.178.952,1.13-3.866,1.9m39.85-16.892a4.937,4.937,0,0,1-1.844,3.985c-2.141,1.844-6.3,3.688-12.431,5.71-3.212,1.071-7.732,2.617-8.8,2.617s-5.115-.714-3.926-1.725,7.91-2.558,12.014-4.044a62.4,62.4,0,0,0,8.8-3.866c3.271-1.963,5-5.65,5.71-5.175s.416,1.13.416,2.5" transform="translate(-157.962 -143.786)" fill="#bf3422"/>
          <path id="Path_102915" data-name="Path 102915" d="M323.158,226.892c-1.784,2.676-4.4,4.758-4.342,7.316a16.059,16.059,0,0,0,5.234,5.234c2.082,1.427,4.342,2.8,5.234,2.5s2.5-2.2,4.1-3.569,2.736-2.914,4.758-2.617,3.747.952,2.974,1.963-6.3,4.7-5.769,5.65,3.271.178,4.461-.059c3.331-.714,5.412-1.546,5.353-1.19s.119.119-1.071.833a31.107,31.107,0,0,1-9.814,3.866c-6.3,1.19-11.3-2.26-15.464-5.769-2.141-1.844-3.747-5.888-3.985-7.316-.416-3.033.535-4.52,1.368-6.364a24.031,24.031,0,0,1,2.558-4.342c.952-1.309,1.844-3.212,3.569-3.926,3.093,1.665,2.439,5.591.952,7.851" transform="translate(-127.536 -88.785)" fill="#bf3422"/>
          <path id="Path_102916" data-name="Path 102916" d="M332.13,205.472c1.784.654,9.279,8.148,12.788,10.111,5.472,2.974,11.479,6.364,18.022,6.9,3.212.238,10.111-.357,10.765-.119s-.952,1.19-2.8,1.9c-2.736,1.071-5.888,1.249-8.446,1.725a33.958,33.958,0,0,1-8.208.178c-6.126-1.19-11.717-4.461-16.654-7.732-2.082-1.368-8.029-7.2-8.386-8.089a5.59,5.59,0,0,1,.654-3.747c.535-.833,1.011-1.487,2.141-1.011" transform="translate(-133.356 -83.245)" fill="#bf3422"/>
          <path id="Path_102917" data-name="Path 102917" d="M383.439,192.716c-4.818-1.427,0-5.591,1.844-7.732s4.4-5,7.494-5.234,5.888,4.163,7.673,5.829c3.866,3.688,5.888,4.52,7.256,7.732s.119,4.044-4.4,5.056c-7.613,1.725-16.535,3.271-24.207,3.271-5.65,0-12.371-3.747-16.059-8.029-3.807-3.212-6.661-9.1-8.208-13.323s-.476-7.97,3.033-12.49c1.546-2.022,8.8-9.4,13.382-6.3,2.439,1.665,2.32,3.39,2.617,4.342,1.249,3.628-.119,5.353-3.628,6.186-5.531,2.141-6.543,9.873-3.152,14.1s4.937,6.483,9.1,9.1a22.747,22.747,0,0,0,13.5,2.736c2.379-.357,8.327-1.725,9.695-3.212s-.476-2.855-5-5.472c-2.914.357-5.234,5.056-10.825,3.45" transform="translate(-143.506 -65.137)" fill="#bf3422"/>
          <path id="Path_102918" data-name="Path 102918" d="M415.685,148.29c1.071-.892,2.2-2.439,1.665-3.866-5.234-8.862-13.918-16.832-21.59-23.434-3.152-2.676-5.115-4.342-6.186-5.948s-1.011-5.71,1.19-5.175c5.888,1.546,12.55,10.468,17.605,15.7,9.992,10.23,18.2,21.412,26.289,33.188,1.784,2.617,6.007,8.208,6.78,9.933,1.784,3.331-1.011,2.5-2.082,1.9-5.056-2.855-8.8-10.884-13.858-15.643-1.071-.178-1.546.833-2.379,1.368s-3.271,1.249-3.569,2.558c4.1,5.888,10.171,10.111,14.929,15.464,1.071,1.309,1.9,3.212-.952,2.558s-4.163-2.26-7.494-4.937c-4.282-3.45-9.635-7.256-13.62-11.36-7.018-7.256-14.572-14.691-21.888-21.65-4.044-3.866-12.728-8.922-12.431-15.464a4.385,4.385,0,0,1,3.033-2.439c5.591,2.2,10.171,8.446,14.156,12.55,5.234,5.353,11.122,13.2,16.059,16.178,1.368.833,3.331-.476,4.4-1.368" transform="translate(-153.211 -44.502)" fill="#bf3422"/>
          <path id="Path_102919" data-name="Path 102919" d="M465.4,159.3c-1.844-2.26-5.472-8.565-7.494-11.9-3.331-5.472-6.78-10.944-10.349-16.237-4.58-6.78-9.873-13.382-16.416-18.379-2.379-1.368-2.855,5-7.2,3.152-1.19-.476-5.412-3.866-7.613-6.364-3.45-3.985,1.9-8.148,3.747-9.16s3.926-3.985,4.7-5.056,1.9-.833,4.639,1.011,6.245,5.175,6.78,6.483-2.558,3.152-.833,5.769c3.866,5.888,9.754,11.182,13.8,17.189,6.543,9.695,13.62,20.163,18.141,31.226,2.022,4.52.773,5.71-1.963,2.26" transform="translate(-168.247 -38.386)" fill="#bf3422"/>
          <path id="Path_102920" data-name="Path 102920" d="M476.707,141.167c2.082,5.948,1.725,9.695-1.368,2.974a19.4,19.4,0,0,1-2.082-8.446c-.059-1.844,1.427-.3,3.45,5.472M429.3,83.474c2.736.178,6.78,2.32,10.111,4.461A76.964,76.964,0,0,1,460.708,108.1a50.5,50.5,0,0,1,5.769,10.171c1.249,3.331,1.784,8.8-1.309,4.342s-5.65-9.695-8.981-14.275a73.32,73.32,0,0,0-13.026-13.858,122.642,122.642,0,0,0-16.178-10.765c-.178-.178.654-.357,2.379-.238" transform="translate(-173.015 -33.81)" fill="#bf3422"/>
          <path id="Path_102921" data-name="Path 102921" d="M149.089,40.764c-3.033-1.665-3.747-3.39-7.613-2.082-4.342,2.617-7.494,4.7-11.6,7.494s-9.754,6.067-10.29,7.792c-.178.595,1.249,1.9,2.082,3.033s2.022,2.32-.119,4.58-5.531,4.758-6.6,4.52-2.676-4.342-5.234-2.676c-1.309.892-4.639,5.472-5.948,7.613-3.747,6.067-6.424,11.539-7.554,12.907-.3.357-.654.773-.714-.654.238-6.6,4.58-12.847,7.911-18.141,6.543-10.349,17.07-16.832,27.36-23.315,4.818-3.033,9.754-6.067,14.81-8.624s7.613-2.676,9.754-2.617,2.2.3,3.866,1.606,3.628,2.379,2.855,4.877c-5.531,5.472-10.409,5.175-12.966,3.747" transform="translate(-38.699 -12.393)" fill="#bf3422"/>
          <path id="Path_102922" data-name="Path 102922" d="M175.174,47.032c-.773,7.851-5.353,12.907-10.587,18.319s-10.528,9.16-16.892,11c-1.249.416-3.688.416-5.056,1.487s-3.569,4.52-4.758,6.186A141.2,141.2,0,0,0,129.019,98.9c-1.309,2.914-2.26,6.126-3.807,8.267s-4.937,2.736-5.531.892.773-4.1,1.427-5.948a90.4,90.4,0,0,1,8.565-16.059c.892-1.9,3.271-4.461,3.212-5.65s-2.914-.595-4.52.476c-6.721,5.412-11.122,12.966-16.237,19.687-1.309,1.606-3.569,2.8-3.628.238s3.807-7.97,7.732-13.323c4.758-6.543,10.825-12.014,17.07-17.07s12.669-9.695,19.092-14.334,11.777-9.278,18.081-12.847c2.558-1.427,3.807-1.011,4.282-.595s.833,2.558.476,4.461m-20.4,20.46a36.247,36.247,0,0,0,8.624-8.684c2.022-3.152.952-5.888-.476-5.948a256.934,256.934,0,0,0-23.434,17.962c.833.952,3.985-.059,6.543-.654s5.472-.416,8.743-2.736" transform="translate(-43.966 -17.115)" fill="#bf3422"/>
          <path id="Path_102923" data-name="Path 102923" d="M154.107,112.021A16.985,16.985,0,0,0,160,114.1c2.082.476,5.888.476,6.424,1.606s-1.9,3.926-4.639,6.6c-3.807,3.688-6.126,2.5-8.446,1.725a81.844,81.844,0,0,0-8.148-2.32c-3.331-.773-3.271-1.9,2.617-9.635a68.221,68.221,0,0,1,10.884-10.409c6.9-5.353,13.858-10.765,20.282-16.356,4.52-3.926,9.933-9.219,12.193-10.349s4.223.714,5.65,2.914,3.45,5.412,1.309,8.565-4.044,4.639-5.293,3.569a15.289,15.289,0,0,1-1.309-1.309c-1.368-1.487-3.271-3.45-5-2.974s-2.5,1.606-4.342,3.212-7.673,5.948-8.327,7.732a1.13,1.13,0,0,0,.476,1.368c1.071.833,3.569,1.13,4.7,1.963s.714,1.665-.357,2.914a6.577,6.577,0,0,1-6.126,2.379l-2.2-.892c-1.665-.714-3.807-1.725-5.412-1.368s-3.271,1.784-5.293,3.569a56.561,56.561,0,0,0-4.58,4.4l-.773.833v.119" transform="translate(-57.932 -30.239)" fill="#bf3422"/>
          <path id="Path_102924" data-name="Path 102924" d="M186.807,131.927a25.226,25.226,0,0,0,6.067,2.379c2.082.654,5.888,1.011,6.364,2.022s-1.9,3.271-4.4,5.293c-3.45,2.736-5.65,1.427-8.029.535a73.937,73.937,0,0,0-8.446-2.617c-3.569-.892-3.747-1.725,1.725-8.029,2.617-2.974,7.613-6.424,10.349-8.089a75.774,75.774,0,0,0,16.237-13.145c3.271-3.509,6.959-8.386,8.624-9.338s3.628,1.13,5.175,3.509,3.747,5.829,2.558,8.8-2.379,4.223-3.628,3.033l-1.309-1.427c-1.427-1.606-3.39-3.747-4.818-3.45s-1.844,1.368-3.152,2.736-5.71,5-6.007,6.6a1.368,1.368,0,0,0,.654,1.309c1.13.892,3.45,1.427,4.58,2.379a1.784,1.784,0,0,1,.119,2.617,4.712,4.712,0,0,1-5.234,1.308l-2.141-1.071c-1.665-.833-3.807-1.963-5.353-1.9s-2.914,1.13-4.818,2.379a41.806,41.806,0,0,0-4.4,3.331l-.773.714v.119" transform="translate(-71.242 -40.808)" fill="#bf3422"/>
          <path id="Path_102925" data-name="Path 102925" d="M219.934,154.539c0,1.13,1.309,2.022,2.558,2.676a20.4,20.4,0,0,1,2.558,1.9,14.69,14.69,0,0,1,2.082,1.665c.535.595,1.13,1.071.714,1.725-1.606,2.676-5.056,3.628-6.6,2.855l-4.163-2.26-2.914-1.546a26.583,26.583,0,0,0-2.855-1.368c-1.071-.476-2.439-1.011-3.152-1.427a1.308,1.308,0,0,1-.595-1.9,27.269,27.269,0,0,1,5.829-4.758,19.271,19.271,0,0,1,7.2-2.676,46.746,46.746,0,0,1,5.115-.714c1.784-.119,3.569-.119,5.115-.178,3.331-.059,6.067-.3,8.565-1.725,1.13-.654,2.439-1.071,3.271-2.855a5.112,5.112,0,0,0-1.309-3.033c-.714-1.071-1.546-2.022-2.26-3.033a13.5,13.5,0,0,1-1.546-1.844,5.769,5.769,0,0,1-.476-5.472c1.011-2.5,2.379-4.58,2.914-3.866s1.844,2.855,2.736,4.223,1.309,2.141,2.022,3.331,4.4,6.543,4.044,10.468c-.3,3.033-2.439,4.044-3.985,4.937-3.688,2.141-7.435,2.855-13.561,2.558a25.158,25.158,0,0,0-5.948.3,15.948,15.948,0,0,0-5.531,1.963" transform="translate(-84.027 -51.286)" fill="#bf3422"/>
          <path id="Path_102926" data-name="Path 102926" d="M249.891,180.9a25.456,25.456,0,0,0,3.807,3.926c.892.833,3.866,2.26,3.866,3.45s-2.855,2.617-5.175,3.39c-3.271,1.011-3.926-.654-5.056-2.32a25.278,25.278,0,0,0-4.639-5.175c-2.2-1.9-2.8-2.141,2.32-5.591,2.439-1.665,7.613-2.914,9.814-3.152,3.45-.416,7.137-1.487,8.922-6.543.952-2.617,1.368-6.721,1.784-7.494s1.784,1.309,3.033,3.628a30.008,30.008,0,0,1,3.39,8.624c.476,2.974.238,3.866-.595,2.617l-.892-1.427c-.952-1.546-2.379-3.866-2.974-3.807s-.535,1.011-.892,2.022-2.2,3.331-2.2,4.58a2.379,2.379,0,0,0,.535,1.309c.773,1.071,2.32,2.32,2.914,3.212a1.844,1.844,0,0,1,.119,2.082c-.892,1.071-2.617.3-3.45-.357l-1.368-1.546c-1.071-1.19-2.5-2.8-3.688-3.271s-2.32-.3-4.1.059a20.52,20.52,0,0,0-4.52,1.368l-.833.416h-.059" transform="translate(-97.688 -65.332)" fill="#bf3422"/>
          <path id="Path_102927" data-name="Path 102927" d="M261.847,207.1c-3.212-.178-6.186-3.747-3.331-5.175,1.784-.892,3.509.119,5.175,1.19s1.309,4.1-1.844,3.985m19.33-24.088a87.431,87.431,0,0,1,3.152,8.684c1.487,5.175,1.606,9.278-.119,10.944s-2.676,1.13-4.163.654-6.126-3.569-4.163-4.282,3.985-.238,5.115-1.725,1.427-3.866,1.309-6.126c-.238-4.044-2.558-11.182-2.379-11.063a20.609,20.609,0,0,1,1.249,2.914" transform="translate(-104.291 -72.98)" fill="#bf3422"/>
          <path id="Path_102928" data-name="Path 102928" d="M29.029,242.282c1.309.416,3.45.535,4.044-.238,2.082-5.531,2.379-11.6,3.212-17.308.3-2.2.654-3.866,1.606-4.818s4.818-1.665,6.126.178-1.665,8.386-2.141,12.312c-.952,8.029-3.688,15.643-4.639,23.612-.357,2.558-.3,8.208-.654,9.457-.476,2.558-2.914,1.427-3.569.595-2.8-3.45-.535-11.182-1.13-16.654-.773-.654-2.022-.595-2.914-.892s-3.45-1.844-4.7-1.784c-1.249,5.412-.3,12.014.833,17.367.059,1.19-.595,1.963-2.379-1.309a28.311,28.311,0,0,1-2.914-7.137,65.577,65.577,0,0,1-1.844-13.2c-.3-5.412-.416-12.133.833-17.486s3.985-10.468,8.089-10.884c1.606-.119,2.914.476,3.033.952.476,1.546-3.093,7.613-3.807,10.944-1.13,5.175-2.439,10.646-1.487,13.442.476,1.309,3.033,2.26,4.4,2.676" transform="translate(-7.201 -86.748)" fill="#bf3422"/>
          <path id="Path_102929" data-name="Path 102929" d="M73.222,230.506c.476,1.9-1.487,9.576-2.141,12.49-1.249,5.65-4.342,10.825-5.531,16.178C64.9,262.148,64.9,269.345,64,270.951s-3.39,3.093-4.58,2.736-1.725-4.4-1.546-7.494c.119-1.963.357-7.375,1.011-9.338,1.665-5.412,3.807-11.479,4.937-17.308.416-2.082,1.606-9.4,2.32-10.111s3.331-1.011,4.58-.714,2.32.595,2.558,1.784" transform="translate(-23.44 -92.638)" fill="#bf3422"/>
          <path id="Path_102930" data-name="Path 102930" d="M97.986,237.62c5.175,1.9,10.825,4.4,15.167,7.792a23.733,23.733,0,0,1,4.163,4.342c3.807,5.115,2.379,8.743-2.32,13.918s-5.948,6.78-11.9,8.267-12.074,1.546-18.022,1.309c-3.688-.119-4.461-.595-4.58-2.141.892-8.148,5.234-14.156,7.316-21.412,1.071-3.747-.714-15.107,6.483-13.323.714.178,2.5.773,3.747,1.249m-6.78,23.018c-.773,2.141-1.487,5.234-.535,6.007,8.505,1.427,15.643-2.558,20.163-8.565,1.784-2.379.178-6.067-2.676-8.862-1.844-1.725-7.078-5.234-10.171-5-1.309.119-1.19,3.807-1.725,5.65-1.309,4.461-3.509,6.3-5.056,10.706" transform="translate(-32.621 -95.707)" fill="#bf3422"/>
          <path id="Path_102931" data-name="Path 102931" d="M150.65,280.631a36.341,36.341,0,0,0,6.9,1.546c1.427.178,5.056-.119,6.126.535s.773,2.141-.178,3.985-3.747,2.32-6.186,1.784l-9.16-2.082c-3.985-.833-4.4-2.32-4.1-6.424a22.066,22.066,0,0,1,2.32-7.494c1.784-3.271,6.245-5.948,6.84-11.241.3-2.736-1.368-6.6-.476-7.435s5.412.3,9.4,1.665c4.877,1.665,9.1,3.271,10.587,5.412s1.606,3.212-.714,2.558l-2.558-.773c-2.855-.892-6.84-2.082-8.029-1.665s-.595,1.427-.892,2.5-2.439,3.866-1.725,5a2.855,2.855,0,0,0,1.606.833c1.784.476,4.7.595,6.424,1.071s1.844.952,1.368,1.665-3.331,2.022-5,1.963l-2.736-.416c-2.082-.357-5-.952-6.483-.535s-2.022,1.784-2.558,3.271a14.394,14.394,0,0,0-.833,3.45c-.059.238,0,.416-.059.595h.059" transform="translate(-58.341 -102.734)" fill="#bf3422"/>
          <path id="Path_102932" data-name="Path 102932" d="M182.577,294.269c-1.784,2.26-4.877,2.439-3.985-.535.595-1.844,2.082-2.2,3.509-2.557s2.2.952.476,3.152m14.691-25.278a15.7,15.7,0,0,1,3.807,3.569c2.26,2.914.833,5.948-3.033,7.435l-6.424,2.617c-2.5,1.011-7.078,1.9-5-.416s5.175-2.8,7.316-4.223,3.152-3.45,2.676-5.353c-.892-3.39-4.818-6.84-2.8-5.888a35.872,35.872,0,0,1,3.45,2.2" transform="translate(-72.306 -108.045)" fill="#bf3422"/>
        </g>
      </g>
    </g>
  </g>
</svg>
