<svg xmlns="http://www.w3.org/2000/svg" xmlns:xlink="http://www.w3.org/1999/xlink" width="344" height="344" viewBox="0 0 344 344">
  <defs>
    <clipPath id="clip-path">
      <rect id="Rectangle_3170" data-name="Rectangle 3170" width="299" height="285" transform="translate(11358 982)" fill="#fff" stroke="#707070" stroke-width="1"/>
    </clipPath>
    <clipPath id="clip-path-2">
      <rect id="Rectangle_3174" data-name="Rectangle 3174" width="253.323" height="285" fill="none"/>
    </clipPath>
    <clipPath id="clip-Your_brain_is_amazing_5">
      <rect width="344" height="344"/>
    </clipPath>
  </defs>
  <g id="Your_brain_is_amazing_5" data-name="Your brain is amazing 5" clip-path="url(#clip-Your_brain_is_amazing_5)">
    <rect width="344" height="344" fill="#fff"/>
    <g id="Mask_Group_133" data-name="Mask Group 133" transform="translate(-11335 -952)" clip-path="url(#clip-path)">
      <g id="thinking_bud_musical" data-name="thinking bud musical" transform="translate(11507.5 1124.5)">
        <g id="thinking_bud_musical-2" data-name="thinking bud musical" transform="translate(-126.661 -142.5)" clip-path="url(#clip-path-2)">
          <path id="Path_469761" data-name="Path 469761" d="M195.781,165.864c4.635-6.872,10.868-9.43,16.462-12.307,36.28-19.658,38.678-72.241,16.142-116.193C221.193,23.14,198.018,4.6,193.543,1.884c-21.257-12.626,23.175,43.472,10.389,68.405-18.22,35.961-18.859,18.7-27.969,23.494a41.075,41.075,0,0,1-15.823,4.955c-3.836.32-6.553.8-9.909-5.594S148.472,77.481,144,69.33C131.531,46,120.5,37.525,92.534,27.136,54.5,13.071,14.379,36.086,15.178,40.4c.32,1.918,7.991,0,18.22,3.2C49.86,48.712,69.2,64.855,71.756,85.152c3.2,25.093-25.412,46.349-39,55.779S22.85,151.8,17.1,159.951c-17.741,25.412-2.4,109,11.348,77.515,1.438-3.356.639-8.79,13.265-18.859,2.717-2.078,27.969-22.376,31.965-18.7s-1.6,7.192-4.155,13.745c-11.028,28.289,1.119,61.692,5.274,61.533s.479-10.069,5.754-23.015c7.032-16.941,25.412-36.76,48.107-38.358s23.814,37.4,60.254,54.021c25.412,11.507,52.263,6.553,52.9,2.877s-15.343-7.192-38.038-19.019c-5.274-2.717-13.106-8.79-19.339-25.572-1.758-4.475-3.2-14.384,1.279-20.138,2.238-2.877,11.827-5.914,17.261-4.315,13.9,4,42.513-28.129,42.354-31.965s-30.207,6.713-41.395,4c-7.352-1.758-10.229-4.475-7.991-7.831" transform="translate(5.439 0.034)" fill="#d2dea1"/>
          <path id="Path_469762" data-name="Path 469762" d="M115.96,101.788a98.778,98.778,0,0,0,8.95,9.749,33.883,33.883,0,0,1-12.626-.959c-15.663-4.315-30.527-21.1-27.65-33.563A11.987,11.987,0,0,1,86.393,72.7l3.516,4.795c11.188,14.065,17.421,21.9,26.051,24.453" transform="translate(50.418 43.493)" fill="#e8e8e8"/>
          <path id="Path_469763" data-name="Path 469763" d="M168.279,84.808a94.137,94.137,0,0,1-13.265,17.1l-2.4-.639a27.17,27.17,0,0,1-8.631-4.795l-1.438.8,5.754,4.315,4.475,2.877a78.472,78.472,0,0,1-14.384,11.028l-4.795-4-4.635-4H127.2a92.7,92.7,0,0,0,9.27,8.311,48.748,48.748,0,0,1-16.142,5.594,102.124,102.124,0,0,1-10.069-9.27l2.4.479c4,.639,9.59.479,10.229-1.438h0a1.119,1.119,0,0,0-.16-.639v-.32c-1.279-1.438-4.955-3.037-9.27-7.512l-.479-.479h-.32A101.488,101.488,0,0,1,98.276,81.611l-1.6-2.877h0l-1.438-2.717L94.6,74.739l3.516-1.119a76.078,76.078,0,0,0,8.471,16.3l1.119,1.6c8.79,12.626,12.786,12.946,16.3,12.946h2.4c3.2.479,7.192,0,8.151-1.6v-.16c.639-2.238-5.434-5.274-9.59-8.631-8.151-6.713-10.708-16.782-12.147-25.732h0l3.356-1.6c1.119,8.471,2.717,15.823,4.795,18.859l.32.479a26.531,26.531,0,0,0,19.179,9.589h2.4c2.078-.32,4-1.119,4.315-2.078v-.32c.32-1.918-4.955-3.356-8.631-5.754-9.27-6.073-10.229-19.658-11.667-28.609l3.037-3.516h0a85.668,85.668,0,0,0,21.257,20.777,97.336,97.336,0,0,0,16.941,8.95" transform="translate(56.594 33.143)" fill="#e8e8e8"/>
          <path id="Path_469764" data-name="Path 469764" d="M164.608,71.545a74.642,74.642,0,0,1-7.831.32,70.672,70.672,0,0,0,7.831.32,76.875,76.875,0,0,1-.48,19.5,97.97,97.97,0,0,1-11.827-2.4l-1.279,1.6a84.708,84.708,0,0,0,12.946,2.4,69.2,69.2,0,0,1-5.754,18.06c-4.795-.639-10.229-.32-16.3-2.4s-12.466-7.991-21.9-18.859l-2.717-3.2a41.236,41.236,0,0,0,3.836-6.713c2.877,2.4,6.553,4,10.069,6.393s5.914,5.754,12.626,6.713c1.438.16,3.356.959,5.274-.479h0l1.119-1.119a1.439,1.439,0,0,0,.32-.639,1.76,1.76,0,0,0,0-.32,4.635,4.635,0,0,0-1.438-2.4h0a24.773,24.773,0,0,0-6.713-4.475h-.479c-8.311-2.717-13.106-9.11-16.462-13.425l-.8-.959.479-2.4A64.091,64.091,0,0,0,138.4,78.9c5.913,4.155,5.913,1.279,9.589,0s5.594.8,5.914.16,0-.479-.32-.959c-2.238-2.877-11.188-5.594-14.224-7.991a87.931,87.931,0,0,1-7.512-6.553h0A74.318,74.318,0,0,1,126.57,57.8l-.479-.479a135.373,135.373,0,0,0-1.438-22.535l13.425,4.955c3.356,1.279,5.754,2.238,6.872.959s.639-4-.639-5.754-5.274-2.717-8.151-3.2A26.691,26.691,0,0,1,122.894,24.4l-.479-2.877,5.914,3.516c6.553,3.836,7.991,3.836,9.11,3.356a4.475,4.475,0,0,0,1.918-4.955c-.959-3.2-6.073-2.4-12.466-6.233a26.69,26.69,0,0,1-5.914-4.475c-.16-1.6-.32-3.037-.32-4.315,1.438,3.037,4.795,4.955,8.151,6.872s5.114,3.037,6.073,1.918-.8-3.836-2.238-6.233S127.369,2.021,124.172.1c4.635-.32,11.507,7.991,15.024,12.466v.16l.479.639A117.152,117.152,0,0,1,147.187,24.4l.32.479a135.207,135.207,0,0,1,6.713,12.307v.32a122.1,122.1,0,0,1,5.274,12.946h-1.119a101.009,101.009,0,0,1-26.851.639,97.973,97.973,0,0,0,28.769.959,96.535,96.535,0,0,1,4.155,19.339" transform="translate(70.175 0.056)" fill="#e8e8e8"/>
          <path id="Path_469765" data-name="Path 469765" d="M128.273,103.9h0c-.639,1.918-6.233,2.078-10.229,1.438l-2.4-.479h-.479C106.7,102.3,100.3,94.47,89.116,80.406L85.6,75.611c2.717-4.155,7.991-6.233,14.224-8.311l.639,1.279L101.9,71.3h0A102.768,102.768,0,0,0,117.885,94.63h.16l.479.479c3.836,4,7.991,5.914,9.27,7.512v.32a1.6,1.6,0,0,1,.16.639" transform="translate(51.21 40.262)" fill="#354952"/>
          <path id="Path_469766" data-name="Path 469766" d="M133.3,97.922v.32a10.229,10.229,0,0,1-5.594,4.635h-2.238c-4.315-.639-8.471-.479-19.179-16.142l-1.119-1.6A76.078,76.078,0,0,1,96.7,68.674,120.345,120.345,0,0,0,111.564,63.4c1.279,8.95,3.836,19.179,12.147,25.732,4.155,3.356,10.229,6.233,9.589,8.631" transform="translate(57.851 37.929)" fill="#354952"/>
          <path id="Path_469767" data-name="Path 469767" d="M139.166,91.583c-.16.959-1.6,2.238-3.356,3.356l-1.438.8-1.918.8c-7.032,2.238-16.142-7.192-19.339-11.827l-.32-.479c-1.918-3.037-3.676-10.389-4.795-18.859l1.758-.959h.32a41.874,41.874,0,0,0,8.631-6.713c1.279,8.95,2.4,22.535,11.667,28.609,3.676,2.4,8.95,3.836,8.631,5.754" transform="translate(64.611 34.519)" fill="#354952"/>
          <path id="Path_469768" data-name="Path 469768" d="M151.026,63.338l-1.279,1.6-.8.8-1.119,1.119h0a6.713,6.713,0,0,1-4.635,1.918c-6.872,0-9.909-2.557-13.585-5.114s-7.032-7.192-9.909-9.59l.959-2.238a51.624,51.624,0,0,0,2.557-8.631l.8.959c3.356,4.155,8.151,10.229,16.462,13.425h.479c4.955,1.6,13.106.32,10.069,5.274" transform="translate(71.611 25.844)" fill="#354952"/>
          <path id="Path_469769" data-name="Path 469769" d="M149.43,59.134c-3.836,2.238-10.229,2.078-16.142-2.078s-8.631-8.311-11.188-11.507a74.314,74.314,0,0,0,.959-9.749c2.4,2.877,4.475,7.032,13.265,10.069s14.544,1.119,16.782,4-1.438,7.991-3.676,9.27" transform="translate(73.046 21.417)" fill="#354952"/>
          <path id="Path_469770" data-name="Path 469770" d="M142.7,31.6c-1.119,1.279-3.516.32-6.872-.959L122.4,25.689c-.479-3.676-1.119-7.192-1.6-10.389a26.691,26.691,0,0,0,13.266,7.352c2.877.479,6.233.479,8.151,3.2s1.758,4.635.639,5.754" transform="translate(72.269 9.153)" fill="#354952"/>
          <path id="Path_469771" data-name="Path 469771" d="M137.82,18.708a4.475,4.475,0,0,1-1.918,4.955c-.959.639-2.4.479-9.11-3.356l-5.914-3.516c-.479-3.2-.959-6.233-1.279-8.79a26.691,26.691,0,0,0,5.754,4.635c6.393,3.836,11.507,2.877,12.466,6.233" transform="translate(71.551 4.786)" fill="#354952"/>
          <path id="Path_469772" data-name="Path 469772" d="M133.635,17.141c-.959.959-4.315-.959-6.073-1.918s-6.553-3.836-8.151-6.872h0c-.16-4.315.32-7.192,2.557-8.151h.959c3.356,1.918,7.352,8.95,8.471,10.868s3.037,5.274,2.238,6.233" transform="translate(71.421 0.12)" fill="#354952"/>
          <path id="Path_469773" data-name="Path 469773" d="M158.574,78.693l-.959,1.758L154.9,85.406a97.333,97.333,0,0,1-16.941-8.95A85.666,85.666,0,0,1,116.7,55.679h0l.959-1.279,2.717,3.2c9.43,10.868,14.224,16.142,21.9,18.859s11.507,1.918,16.3,2.4" transform="translate(69.816 32.545)" fill="#a5b0b5"/>
          <path id="Path_469774" data-name="Path 469774" d="M109.6,42.4h0" transform="translate(65.568 25.366)" fill="#a5b0b5"/>
          <path id="Path_469775" data-name="Path 469775" d="M136.966,86.594l-2.238,2.238-4.475-2.717L124.5,81.8l1.438-.8a27.17,27.17,0,0,0,8.631,4.795l2.4.639" transform="translate(74.482 48.458)" fill="#a5b0b5"/>
          <path id="Path_469776" data-name="Path 469776" d="M107.7,58.3h0" transform="translate(64.432 34.878)" fill="#a5b0b5"/>
          <path id="Path_469777" data-name="Path 469777" d="M126.028,95.452l-1.758.959A92.7,92.7,0,0,1,115,88.1h1.758l4.635,3.836,4.635,3.676" transform="translate(68.799 52.706)" fill="#a5b0b5"/>
          <path id="Path_469778" data-name="Path 469778" d="M107,78.2h0" transform="translate(64.013 46.783)" fill="#a5b0b5"/>
          <path id="Path_469779" data-name="Path 469779" d="M114.548,100.549h-1.6A98.77,98.77,0,0,1,104,90.8h.479a102.125,102.125,0,0,0,10.069,9.27" transform="translate(62.218 54.321)" fill="#a5b0b5"/>
          <path id="Path_469780" data-name="Path 469780" d="M102.3,88.5h0" transform="translate(61.201 52.945)" fill="#a5b0b5"/>
          <path id="Path_469781" data-name="Path 469781" d="M151.665,58.3l-.32,1.6A84.708,84.708,0,0,1,138.4,57.5l1.279-1.6a98.132,98.132,0,0,0,11.827,2.4" transform="translate(82.798 33.442)" fill="#a5b0b5"/>
          <path id="Path_469782" data-name="Path 469782" d="M119.9,48.5h0" transform="translate(71.73 29.015)" fill="#a5b0b5"/>
          <path id="Path_469783" data-name="Path 469783" d="M155.069,33.3a97.973,97.973,0,0,1-28.769-.959,101.009,101.009,0,0,0,26.851-.639h1.119l.639,1.758" transform="translate(75.559 18.965)" fill="#a5b0b5"/>
          <path id="Path_469784" data-name="Path 469784" d="M126,32.1h0" transform="translate(75.38 19.204)" fill="#a5b0b5"/>
          <path id="Path_469785" data-name="Path 469785" d="M149.951,44.86v.479a73.479,73.479,0,0,1-8.151-.32,71.759,71.759,0,0,0,7.991-.32" transform="translate(84.832 26.742)" fill="#a5b0b5"/>
          <path id="Path_469786" data-name="Path 469786" d="M141.6,45h0" transform="translate(84.712 26.921)" fill="#a5b0b5"/>
          <path id="Path_469787" data-name="Path 469787" d="M143.591,23.679h0c-4.155.8-6.872,1.119-7.991,1.279a69.843,69.843,0,0,0,7.831-1.758v.32" transform="translate(81.123 13.879)" fill="#a5b0b5"/>
          <path id="Path_469788" data-name="Path 469788" d="M139.172,15.679A51.731,51.731,0,0,1,131.5,16.8a69.846,69.846,0,0,0,7.352-1.6Z" transform="translate(78.67 9.093)" fill="#a5b0b5"/>
          <path id="Path_469789" data-name="Path 469789" d="M132.775,8.06,128.3,8.7l4.315-.8v.16" transform="translate(76.756 4.726)" fill="#a5b0b5"/>
          <path id="Path_469790" data-name="Path 469790" d="M65.793,91.526A101.484,101.484,0,0,0,59.4,78.9a40.117,40.117,0,0,1,13.265,4.955c15.663,9.589,26.051,31.006,18.7,42.833a12.946,12.946,0,0,1-3.356,3.676,47.6,47.6,0,0,0-2.238-5.914C78.419,106.71,74.264,96.8,65.793,91.526" transform="translate(35.536 47.202)" fill="#e8e8e8"/>
          <path id="Path_469791" data-name="Path 469791" d="M17.9,100.91A107.4,107.4,0,0,1,38.038,87.964l2.4,1.438a29.727,29.727,0,0,1,7.672,7.672l1.918-.32a57.1,57.1,0,0,0-4.795-6.073l-3.836-4.315a93.817,93.817,0,0,1,19.339-6.553l3.836,5.114,3.676,5.594,2.078.32A97.172,97.172,0,0,0,63.13,79.493a59.455,59.455,0,0,1,19.339-.48A106.125,106.125,0,0,1,90.141,91.64l-2.4-1.279c-4-1.918-10.069-3.516-11.507-1.758h-.16a1.119,1.119,0,0,0,0,.8v.32c.8,1.758,4.315,4.635,7.512,10.548l.32.639h0v.32a102.288,102.288,0,0,1,8.631,25.412l.639,2.877h0l.639,3.2.32,1.438H90.3a75.438,75.438,0,0,0-3.676-19.339l-.639-1.918c-5.114-15.5-9.59-17.1-13.425-18.22L70.8,94.2l-.8-.32c-3.356-1.438-7.991-2.238-9.43-.959h-.16c-1.6,2.078,4.155,7.032,7.512,11.667,6.713,9.27,5.914,20.458,4.315,29.887h0l-4.155.639c1.758-8.95,2.4-16.941,1.279-20.617v-.479c-1.918-5.434-8.79-12.946-17.421-15.823h-.32l-2.4-.479c-2.4-.32-4.635-.16-5.434.639v.32c-.959,1.918,4.315,4.955,7.512,8.631,7.991,9.11,4.475,23.175,2.877,32.6l-4.475,2.557h0a88.863,88.863,0,0,0-15.983-27.81A107.243,107.243,0,0,0,18.379,100.27" transform="translate(10.709 46.929)" fill="#e8e8e8"/>
          <path id="Path_469792" data-name="Path 469792" d="M2.079,134.138a76.46,76.46,0,0,1,8.471,2.238,77.221,77.221,0,0,0-8.471-2.717,77.675,77.675,0,0,1,7.032-19.5A114.431,114.431,0,0,1,21.1,120.393l1.918-1.279a98.772,98.772,0,0,0-13.106-6.393A73.36,73.36,0,0,1,22.377,96.1c4.955,2.078,11.028,3.676,16.782,7.672s10.868,12.147,17.421,26.051l1.758,4a45.711,45.711,0,0,0-6.393,5.594c-2.238-3.2-5.754-6.073-8.79-9.589s-4.475-7.672-11.348-10.868c-1.6-.639-3.356-2.078-5.914-1.279h-.16l-1.438.639-.639.639v.32a4.635,4.635,0,0,0,.8,2.877h0a26.69,26.69,0,0,0,5.914,6.713l.479.32c8.151,5.274,11.188,13.265,13.265,18.7l.639,1.279L43.474,151.4a67.126,67.126,0,0,0-10.389-16.142c-4.955-6.073-6.073-3.2-10.389-3.2s-5.754-2.717-6.393-2.078-.16.479.16.959c1.6,3.676,10.229,9.11,12.626,12.466A85.807,85.807,0,0,1,35,152.518h0a76.553,76.553,0,0,1,3.836,7.512l.32.639a134.89,134.89,0,0,0-6.073,23.175L20.3,174.574c-3.2-2.4-5.594-4-7.192-3.2s-2.078,3.836-1.279,6.073,4.795,4.475,7.672,5.754a29.088,29.088,0,0,1,11.827,11.667l-.479,3.037-5.274-5.434c-5.914-5.914-7.352-6.553-8.79-6.233a4.955,4.955,0,0,0-3.676,4.475c0,3.676,5.754,4.315,11.507,10.229A28.129,28.129,0,0,1,29.25,207.5a36.619,36.619,0,0,1-1.119,4.475c-.479-3.516-3.516-6.553-6.393-9.43s-4.635-4.635-5.914-4-.479,4.155.32,6.872,2.557,10.708,5.594,13.745C16.624,218.047,11.989,207.5,9.751,201.9v-.32l-.32-.8A117.631,117.631,0,0,1,4.956,187.36v-.479A134.891,134.891,0,0,1,1.92,172.337v-.48A120.667,120.667,0,0,1,.641,156.993h.8a121.307,121.307,0,0,1,29.408,7.831A116.829,116.829,0,0,0,0,154.916a95.415,95.415,0,0,1,2.078-20.777" transform="translate(-0.002 57.492)" fill="#e8e8e8"/>
          <path id="Path_469793" data-name="Path 469793" d="M54.3,85.173h.16c1.438-1.758,7.512,0,11.507,1.758l2.4,1.279.479.32c8.311,5.274,12.626,15.183,19.978,32.924a59.515,59.515,0,0,1,2.238,5.914c-4.475,3.2-10.868,3.836-18.38,3.836l-.32-1.438-.639-3.2h0a103.406,103.406,0,0,0-9.43-28.609h0l-.32-.639c-2.877-5.114-6.713-8.471-7.512-10.548v-.32a1.6,1.6,0,0,1,0-.8" transform="translate(32.485 50.519)" fill="#354952"/>
          <path id="Path_469794" data-name="Path 469794" d="M44.527,89.2h.16A12.147,12.147,0,0,1,52.358,86l2.078.32h.479c4.475,2.078,8.95,3.2,15.343,22.376l.639,1.918a75.437,75.437,0,0,1,3.676,19.339,146.88,146.88,0,0,0-18.06.8c1.6-9.43,2.238-20.458-4.315-29.887-3.356-4.635-8.95-9.59-7.512-11.667" transform="translate(26.595 51.45)" fill="#354952"/>
          <path id="Path_469795" data-name="Path 469795" d="M34,92.457C34.482,91.5,36.56,90.7,38.8,90.22l1.918-.32h2.238c8.471,0,15.024,12.466,16.941,18.06v.479c1.119,3.676.479,11.667-1.279,20.617l-2.238.479H55.9a49.705,49.705,0,0,0-11.667,4.155c1.6-9.43,5.114-23.494-2.877-32.6-3.2-3.676-8.471-6.713-7.512-8.631" transform="translate(20.178 53.783)" fill="#354952"/>
          <path id="Path_469796" data-name="Path 469796" d="M13.89,112.448l1.918-1.279,1.119-.639,1.438-.639h.16a7.991,7.991,0,0,1,5.594-.479c7.352,2.078,9.909,5.754,12.946,9.43s5.274,9.43,7.512,12.786l-1.758,1.918a54.821,54.821,0,0,0-5.594,7.831l-.639-1.279c-2.238-5.274-5.274-12.786-13.265-18.7l-.479-.32c-4.795-3.2-14.065-4.475-9.11-8.471" transform="translate(7.367 65.278)" fill="#354952"/>
          <path id="Path_469797" data-name="Path 469797" d="M14.233,116.7c4.795-1.119,11.827,1.119,16.782,7.192s6.553,11.188,8.311,15.183a75.755,75.755,0,0,0-4.315,9.43c-1.6-3.676-2.557-8.631-10.868-14.384S8.8,128.531,7.2,124.855s4.315-7.512,7.032-8.151" transform="translate(4.147 69.652)" fill="#354952"/>
          <path id="Path_469798" data-name="Path 469798" d="M8.774,143.4c1.6-.959,4,.8,7.192,3.2l12.786,9.27c-.639,3.836-1.279,7.512-1.758,11.028a29.088,29.088,0,0,0-11.827-11.667c-2.877-1.438-6.553-2.4-7.672-5.754s-.32-5.274,1.279-6.073" transform="translate(4.172 85.629)" fill="#354952"/>
          <path id="Path_469799" data-name="Path 469799" d="M8.2,157a4.955,4.955,0,0,1,3.676-4.475c1.279-.32,2.877.32,8.79,6.233l5.274,5.434c-.479,3.516-.959,6.553-1.6,9.43a28.289,28.289,0,0,0-4.635-6.553C13.954,161.155,8.2,160.516,8.2,156.84" transform="translate(4.906 91.208)" fill="#354952"/>
          <path id="Path_469800" data-name="Path 469800" d="M10.169,160.233c1.279-.639,4.475,2.4,5.914,4s5.914,5.914,6.393,9.43h0c-1.279,4.475-2.877,7.192-5.434,7.352H15.923c-2.877-3.037-4.955-11.348-5.594-13.745s-1.438-6.393-.32-6.872" transform="translate(5.653 95.807)" fill="#354952"/>
          <path id="Path_469801" data-name="Path 469801" d="M14,98.254l1.6-1.6L20.233,92.5a107.081,107.081,0,0,1,15.343,14.384,88.862,88.862,0,0,1,15.982,27.81h0l-1.438,1.119-1.758-4c-6.553-13.9-9.909-20.777-17.421-26.051S18.955,100.331,14,98.254" transform="translate(8.376 55.338)" fill="#a5b0b5"/>
          <path id="Path_469802" data-name="Path 469802" d="M40.9,134.1h0" transform="translate(24.468 80.225)" fill="#a5b0b5"/>
          <path id="Path_469803" data-name="Path 469803" d="M30.5,85l3.2-1.6,4,4.315c1.758,2.078,3.356,4.155,4.795,6.073l-1.918.32A29.727,29.727,0,0,0,32.9,86.437L30.5,85" transform="translate(18.247 49.894)" fill="#a5b0b5"/>
          <path id="Path_469804" data-name="Path 469804" d="M48.4,118.6h0" transform="translate(28.955 70.952)" fill="#a5b0b5"/>
          <path id="Path_469805" data-name="Path 469805" d="M44.7,79.579l2.4-.479A96.693,96.693,0,0,1,54.29,90.448l-2.078-.32-3.676-5.434L44.7,79.579" transform="translate(26.742 47.322)" fill="#a5b0b5"/>
          <path id="Path_469806" data-name="Path 469806" d="M55.9,98.8h0" transform="translate(33.442 59.107)" fill="#a5b0b5"/>
          <path id="Path_469807" data-name="Path 469807" d="M58.3,78.8l1.918.32a101.492,101.492,0,0,1,6.393,12.626l-.479-.32A106.122,106.122,0,0,0,58.46,78.8" transform="translate(34.878 47.142)" fill="#a5b0b5"/>
          <path id="Path_469808" data-name="Path 469808" d="M64.6,89.8h0" transform="translate(38.647 53.723)" fill="#a5b0b5"/>
          <path id="Path_469809" data-name="Path 469809" d="M5.8,107.838l.8-1.438A98.612,98.612,0,0,1,19.7,112.793l-1.918,1.279A114.763,114.763,0,0,0,5.8,107.838" transform="translate(3.47 63.654)" fill="#a5b0b5"/>
          <path id="Path_469810" data-name="Path 469810" d="M31.92,124.82l-.32-.32.32.32" transform="translate(18.905 74.482)" fill="#a5b0b5"/>
          <path id="Path_469811" data-name="Path 469811" d="M0,132.9a116.672,116.672,0,0,1,30.846,10.069,121.148,121.148,0,0,0-29.408-7.831H0V133.06" transform="translate(0 79.507)" fill="#a5b0b5"/>
          <path id="Path_469812" data-name="Path 469812" d="M19.7,139.3h0" transform="translate(11.786 83.336)" fill="#a5b0b5"/>
          <path id="Path_469813" data-name="Path 469813" d="M1.36,120.139V119.5a71.23,71.23,0,0,1,8.631,2.877,87.264,87.264,0,0,0-8.79-2.238" transform="translate(0.718 71.491)" fill="#a5b0b5"/>
          <path id="Path_469814" data-name="Path 469814" d="M7,121.4H7" transform="translate(4.188 72.628)" fill="#a5b0b5"/>
          <path id="Path_469815" data-name="Path 469815" d="M.9,143.4h0c4.795.479,7.991,1.119,9.11,1.279a85.832,85.832,0,0,0-8.95-.639v-.48" transform="translate(0.538 85.789)" fill="#a5b0b5"/>
          <path id="Path_469816" data-name="Path 469816" d="M2.8,152.8a69.815,69.815,0,0,1,8.631,1.279c1.119.32-4.155-.479-8.471-.639Z" transform="translate(1.675 91.413)" fill="#a5b0b5"/>
          <path id="Path_469817" data-name="Path 469817" d="M5.9,162.1l5.114.8L6.06,162.42v-.32" transform="translate(3.53 96.976)" fill="#a5b0b5"/>
          <path id="Path_469818" data-name="Path 469818" d="M92.728,132.926A88.546,88.546,0,0,0,81.7,137.082a30.527,30.527,0,0,1,4.955-10.069c8.79-11.667,27.65-18.38,37.079-11.987a10.708,10.708,0,0,1,2.877,2.877l-5.114,1.438c-15.5,4.635-23.974,7.352-28.928,13.585" transform="translate(48.877 67.335)" fill="#e8e8e8"/>
          <path id="Path_469819" data-name="Path 469819" d="M96.629,183.276a84.549,84.549,0,0,1-9.749-16.782l1.438-1.758a24.453,24.453,0,0,1,6.872-5.594c0-.479-.16-.959-.16-1.438L89.6,161.061l-3.836,2.717a70.643,70.643,0,0,1-4.315-15.663L85.92,145.4l4.795-2.557a4.954,4.954,0,0,1,.32-1.6,82.63,82.63,0,0,0-9.909,4.955,43.952,43.952,0,0,1,.8-15.343,91.1,91.1,0,0,1,11.028-5.274l-1.279,1.758c-1.758,3.037-3.676,7.831-2.238,8.95h1.279c1.6-.639,4.155-3.2,9.27-5.274h.959a90.779,90.779,0,0,1,21.9-5.274l2.4-.32h0l2.717-.32h1.279l-.32,3.356a68.084,68.084,0,0,0-16.462,1.758l-1.6.32c-13.425,3.037-15.024,6.393-16.142,9.43l-.479,1.279-.32.639c-1.438,2.557-2.4,6.073-1.279,7.352h.16c1.758,1.279,6.233-2.877,10.389-5.114,8.311-4.635,17.581-3.356,25.412-1.6h0a23.846,23.846,0,0,0,.32,3.356c-7.512-1.918-14.065-2.877-17.261-2.238h-.479a23.814,23.814,0,0,0-14.384,12.786h0a13.1,13.1,0,0,0-.639,1.918c-.479,1.758-.479,3.676.32,4.315h.16c1.438.8,4.315-3.037,7.672-5.274,8.151-5.754,19.818-2.078,27.65-.16a37.079,37.079,0,0,0,1.918,3.676h0a76.717,76.717,0,0,0-24.293,10.868,87.265,87.265,0,0,0-13.106,11.188" transform="translate(48.333 74.841)" fill="#e8e8e8"/>
          <path id="Path_469820" data-name="Path 469820" d="M124.406,193.151a67.127,67.127,0,0,1,2.4-6.553c-.479.959-1.6,3.2-2.877,6.393a68.724,68.724,0,0,1-16.142-6.872,88.551,88.551,0,0,1,5.914-9.11l-.959-1.6a75.76,75.76,0,0,0-6.233,9.909A62.012,62.012,0,0,1,93.4,174.451c2.078-3.836,3.676-8.471,7.352-12.786s10.868-7.831,23.015-12.147l3.516-1.119a37.081,37.081,0,0,0,4.315,5.434c-2.877,1.6-5.434,4.155-8.631,6.393s-6.713,3.037-9.749,8.311c-.639,1.119-1.918,2.4-1.438,4.475h0l.479,1.279.479.479h.16a4,4,0,0,0,2.4-.479h0a22.056,22.056,0,0,0,5.914-4.155l.32-.32c4.955-6.073,11.827-7.831,16.622-9.27l1.119-.32,1.758,1.119a57.377,57.377,0,0,0-14.224,7.192c-5.434,3.516-3.037,4.635-3.2,7.991s-2.557,4.315-2.078,4.955h.8c3.2-.959,8.311-7.512,11.348-9.27s5.754-3.037,7.991-4.155h0l6.553-2.557h.639a120.507,120.507,0,0,0,19.179,6.233l-8.631,9.589c-2.238,2.4-3.836,4.155-3.037,5.434s3.2,1.918,5.114,1.438,4-3.516,5.434-5.754a23.814,23.814,0,0,1,10.548-8.631l2.557.479-4.955,3.836c-5.434,4.315-5.914,5.434-5.754,6.393a4.155,4.155,0,0,0,3.516,3.2c3.037.32,4-4.315,9.27-8.311a23.973,23.973,0,0,1,5.754-3.2l3.676,1.119c-3.037.16-5.754,2.4-8.311,4.475s-4.155,3.356-3.676,4.475,3.516.639,5.914.32,9.11-1.438,11.827-3.516c-1.279,4-10.389,6.872-15.343,8.311h-.959a104.528,104.528,0,0,1-11.667,2.557h-.479a120.978,120.978,0,0,1-12.466,1.438h-.32a108.836,108.836,0,0,1-12.626.16l.32-1.119a90.94,90.94,0,0,1,8.311-22.7,88.223,88.223,0,0,0-10.229,23.654,86.144,86.144,0,0,1-17.421-2.877" transform="translate(55.877 88.78)" fill="#e8e8e8"/>
          <path id="Path_469821" data-name="Path 469821" d="M86.817,142.151H86.5c-1.438-1.279.32-5.914,2.238-8.95l1.279-1.758.32-.32c4.955-6.233,13.425-8.95,28.928-13.585l5.114-1.438c2.557,3.676,2.557,8.79,2.238,14.7h-1.279l-2.717.32h0A91.9,91.9,0,0,0,98,136.717h-.639c-4.475,1.918-7.512,4.635-9.27,5.274h-.959" transform="translate(51.432 69.457)" fill="#354952"/>
          <path id="Path_469822" data-name="Path 469822" d="M89.24,147.98h-.16A9.27,9.27,0,0,1,87,141.747a4.955,4.955,0,0,1,.32-1.6h0v-.32c1.918-3.356,3.2-6.872,19.818-10.548l1.6-.32A68.087,68.087,0,0,1,125.2,127.2a108.519,108.519,0,0,0-.479,14.224c-7.831-1.918-17.1-3.037-25.412,1.6-4.155,2.4-8.631,6.553-10.389,5.114" transform="translate(52.045 76.094)" fill="#354952"/>
          <path id="Path_469823" data-name="Path 469823" d="M91.468,156.153a6.073,6.073,0,0,1-1.6-3.836c0-.479-.16-.959-.16-1.438a14.708,14.708,0,0,1,0-1.758c.479-6.713,11.348-11.028,16.3-12.147h.479c3.2-.639,9.749.32,17.261,2.238l.32,1.758v.32a37.559,37.559,0,0,0,2.877,9.43c-7.831-1.918-19.5-5.594-27.65.16-3.2,2.238-6.233,6.233-7.672,5.274" transform="translate(53.653 81.827)" fill="#354952"/>
          <path id="Path_469824" data-name="Path 469824" d="M107.114,174.915l-.959-1.6-.479-.959-.479-1.279h0a5.913,5.913,0,0,1-.16-4.475c2.238-5.754,5.434-7.352,8.79-9.59s8.311-3.516,11.188-5.114l1.6,1.6a46.67,46.67,0,0,0,6.233,4.955l-1.119.32c-4.635,1.438-11.188,3.356-16.622,9.27l-.32.32c-3.037,3.516-4.635,10.868-7.672,6.553" transform="translate(62.62 90.874)" fill="#354952"/>
          <path id="Path_469825" data-name="Path 469825" d="M110.74,174.98c-.639-3.836,1.6-9.27,7.032-12.786A40.436,40.436,0,0,1,131.2,156.6a66.8,66.8,0,0,0,7.831,4c-3.2.959-7.352,1.438-12.786,7.672s-5.754,11.667-8.95,12.626-6.073-3.836-6.393-6.073" transform="translate(66.187 93.686)" fill="#354952"/>
          <path id="Path_469826" data-name="Path 469826" d="M133.12,178.024c-.639-1.279.959-3.037,3.037-5.434l8.631-9.59,9.11,2.078a23.814,23.814,0,0,0-10.548,8.631c-1.438,2.238-2.4,5.114-5.434,5.754s-4.475-.16-5.114-1.438" transform="translate(79.448 97.515)" fill="#354952"/>
          <path id="Path_469827" data-name="Path 469827" d="M144.424,178.125a4.156,4.156,0,0,1-3.516-3.2c-.16-1.119.479-2.238,5.754-6.393l4.955-3.836,7.831,1.758a23.974,23.974,0,0,0-5.754,3.2c-5.274,4.155-6.233,8.63-9.27,8.311" transform="translate(84.286 98.532)" fill="#354952"/>
          <path id="Path_469828" data-name="Path 469828" d="M147.321,175.45c-.479-1.119,2.238-3.356,3.676-4.475s5.274-4.315,8.311-4.475h0c3.676,1.279,5.914,2.717,5.914,4.795a3.2,3.2,0,0,1-.16.959c-2.717,2.078-9.749,3.2-11.827,3.516s-5.434.8-5.914-.32" transform="translate(88.101 99.609)" fill="#354952"/>
          <path id="Path_469829" data-name="Path 469829" d="M95.175,174.97,93.9,173.692l-3.2-3.836a87.106,87.106,0,0,1,13.106-11.188A76.716,76.716,0,0,1,128.1,147.8h0l.8,1.279-3.516,1.119c-12.147,4.315-18.22,6.393-23.015,12.147s-5.274,8.95-7.352,12.786" transform="translate(54.261 88.421)" fill="#a5b0b5"/>
          <path id="Path_469830" data-name="Path 469830" d="M127.2,146h0" transform="translate(76.097 87.345)" fill="#a5b0b5"/>
          <path id="Path_469831" data-name="Path 469831" d="M85.019,154.39,83.9,151.673l3.836-2.717L93.17,145.6a4.425,4.425,0,0,0,.16,1.438,24.453,24.453,0,0,0-6.872,5.594l-1.438,1.758" transform="translate(50.193 87.105)" fill="#a5b0b5"/>
          <path id="Path_469832" data-name="Path 469832" d="M114.6,139.2h0" transform="translate(68.559 83.276)" fill="#a5b0b5"/>
          <path id="Path_469833" data-name="Path 469833" d="M81.32,142.172,81,140.255a82.632,82.632,0,0,1,9.909-4.955,4.955,4.955,0,0,0-.32,1.6l-4.795,2.557-4.475,2.717" transform="translate(48.458 80.943)" fill="#a5b0b5"/>
          <path id="Path_469834" data-name="Path 469834" d="M98.3,132h0" transform="translate(58.808 78.969)" fill="#a5b0b5"/>
          <path id="Path_469835" data-name="Path 469835" d="M81.5,130.894l.32-1.438A88.062,88.062,0,0,1,92.848,125.3l-.32.32A91.107,91.107,0,0,0,81.5,130.894" transform="translate(48.757 74.961)" fill="#a5b0b5"/>
          <path id="Path_469836" data-name="Path 469836" d="M91.2,124.6h0" transform="translate(54.56 74.542)" fill="#a5b0b5"/>
          <path id="Path_469837" data-name="Path 469837" d="M102.879,176.008l-1.279-.8a75.759,75.759,0,0,1,6.233-9.909l.959,1.6a88.54,88.54,0,0,0-5.914,9.11" transform="translate(60.782 98.891)" fill="#a5b0b5"/>
          <path id="Path_469838" data-name="Path 469838" d="M118.7,152.6h0" transform="translate(71.012 91.293)" fill="#a5b0b5"/>
          <path id="Path_469839" data-name="Path 469839" d="M123.76,187.054A88.224,88.224,0,0,1,133.989,163.4a90.941,90.941,0,0,0-8.311,22.7l-.32,1.119H123.6" transform="translate(73.944 97.754)" fill="#a5b0b5"/>
          <path id="Path_469840" data-name="Path 469840" d="M130.3,163.1h0" transform="translate(77.952 97.575)" fill="#a5b0b5"/>
          <path id="Path_469841" data-name="Path 469841" d="M112.979,178.913H112.5c1.438-3.516,2.557-5.754,2.877-6.713a64.892,64.892,0,0,0-2.4,6.713" transform="translate(67.303 103.019)" fill="#a5b0b5"/>
          <path id="Path_469842" data-name="Path 469842" d="M114.4,171.9h0" transform="translate(68.44 102.839)" fill="#a5b0b5"/>
          <path id="Path_469843" data-name="Path 469843" d="M132.66,180.832h-.16a48.511,48.511,0,0,1,1.6-7.032,63.291,63.291,0,0,0-1.119,7.032h-.32" transform="translate(79.268 103.976)" fill="#a5b0b5"/>
          <path id="Path_469844" data-name="Path 469844" d="M140.7,179.713A45.575,45.575,0,0,1,142.3,173a62.983,62.983,0,0,0-1.119,6.713Z" transform="translate(84.174 103.497)" fill="#a5b0b5"/>
          <path id="Path_469845" data-name="Path 469845" d="M148.7,176.933c.479-1.918.8-3.356.959-4a36.161,36.161,0,0,0-.639,3.836h-.32" transform="translate(88.96 103.4)" fill="#a5b0b5"/>
          <path id="Path_469846" data-name="Path 469846" d="M131.309,96.759c2.078-12.466,2.557-15.343,2.4-19.818C132.587,50.25,96.627,36.026,94.868,34.907c-9.43-5.434-20.138-9.27-21.576-7.192s11.188,9.909,18.38,23.494c.639,1.279,14.065,26.691,3.2,42.354-2.877,4-9.27,7.032-22.056,12.946-17.261,7.831-20.777,7.991-29.568,12.307C21.349,129.363,8.883,145.825,9.2,146.3s9.909-10.389,27.65-19.5a131.7,131.7,0,0,1,27.17-9.909c17.741-4.475,25.093-7.352,34.682-3.676,13.745,5.114,19.978,16.142,20.617,34.362.16,4.155-2.717,13.425-9.27,17.9-15.983,10.708-15.983,15.5-20.937,24.933s-8.151,21.417-6.713,21.9,5.114-7.672,14.7-19.5c7.352-9.11,13.106-13.9,18.22-13.745,2.238,0,4.155.16,4.955,12.946,1.6,23.974,4.315,28.129,8.311,34.682a140.167,140.167,0,0,0,12.946,17.741c.639.8-8.151-11.987-11.348-19.339-1.758-4.155-11.827-27.01-.639-46.349,2.877-4.955,9.749-10.389,21.576-12.307s19.658,1.758,35.8,8.471c10.708,4.475,15.982,3.2,21.417,2.078,9.749-2.238,17.421-9.11,16.941-10.229s-4.475,1.438-10.708,2.4c-11.507,1.758-28.769-1.438-31.805-11.188s4.475-15.982,5.274-16.941a26.691,26.691,0,0,1,9.27-7.192c19.179-9.59,28.449-44.431,27.969-44.751a67.447,67.447,0,0,1-9.27,15.823,77.355,77.355,0,0,1-20.937,17.741c-9.43,5.594-22.535,13.585-39.8,12.626-4.475-.16-16.782-6.393-21.736-17.261-1.6-3.516-4.475-8.311-2.4-21.576" transform="translate(5.502 16.237)" fill="#a5b0b5"/>
          <path id="Path_469847" data-name="Path 469847" d="M89.466,56.013c-.16-3.676-3.836-5.594-4.635-5.914a8.95,8.95,0,0,0-9.27.479c-2.717,2.078-4.795,6.073-3.516,9.59s6.393,4.955,9.909,4.155,7.672-4.315,7.512-8.311" transform="translate(42.869 29.333)" fill="#fff"/>
          <path id="Path_469848" data-name="Path 469848" d="M67.211,39.374c3.356-1.758,7.192.16,7.991.479S80.476,42.571,80,47.365A9.11,9.11,0,0,1,73.444,55.2c-4.475,1.119-8.151-2.4-9.43-5.594s-.479-8.311,3.037-10.229" transform="translate(37.954 23.117)" fill="#fff"/>
          <path id="Path_469849" data-name="Path 469849" d="M71.51,43.16a3.6,3.6,0,0,1,1.758,6.233,5.754,5.754,0,0,1-5.274,1.119,3.2,3.2,0,0,1-1.438-4.475A5.434,5.434,0,0,1,71.51,43" transform="translate(39.569 25.725)" fill="#051c22"/>
          <path id="Path_469850" data-name="Path 469850" d="M80.858,51.8c1.758.16,2.4,2.078,2.557,2.4a4.155,4.155,0,0,1-.8,4.315,4.635,4.635,0,0,1-4.795,1.279c-1.918-.8-1.918-3.2-1.279-4.795a4.955,4.955,0,0,1,4.475-3.2" transform="translate(45.563 30.989)" fill="#051c22"/>
          <path id="Path_469851" data-name="Path 469851" d="M69.031,62.56c-.479,0-2.078,4.955-1.6,11.028.32,3.516.639,8.311,3.836,11.348,5.754,5.434,16.941,1.918,16.941,1.6a17.261,17.261,0,0,1-9.749-1.6,18.06,18.06,0,0,1-7.672-9.27C67.913,68.633,69.511,62.56,69.031,62.4" transform="translate(40.289 37.331)" fill="#354952"/>
          <path id="Path_469852" data-name="Path 469852" d="M104.387,43.755A89.662,89.662,0,0,0,83.45,30.33C58.837,19.3,35.023,25.375,34.7,23.138s8.79-3.676,17.261-4.475a70.8,70.8,0,0,1,33.563,5.914c5.434,2.4,17.741,7.991,27.01,20.617,5.114,7.032,8.151,14.7,7.352,15.183s-5.754-8.311-15.5-16.941" transform="translate(20.756 11.065)" fill="#354952"/>
          <path id="Path_469853" data-name="Path 469853" d="M120.319,160.15c-.16-2.078-4.475-21.736,14.065-16.462,5.434,1.6,11.188.959,20.3-3.356,19.818-9.27,27.81-33.4,27.33-34.2s-3.2,4.635-10.708,12.466-9.11,9.59-14.065,12.307c-10.708,6.073-27.65,8.311-37.239,1.438-1.6-1.119-5.274-4-5.274-2.877-.8,23.814,5.914,33.883,5.594,30.686" transform="translate(68.595 63.445)" fill="#354952"/>
          <path id="Path_469854" data-name="Path 469854" d="M65.606,120.5c-5.114,1.6-7.672,6.872-10.229,12.946-3.676,9.27-7.352,18.38-7.672,33.4-.16,9.749.959,19.339,2.078,19.339s.959-6.073,2.877-17.581,3.2-19.658,5.914-26.211c5.274-12.466,13.265-19.658,11.188-21.9s-3.2-.32-4,0" transform="translate(28.531 71.45)" fill="#354952"/>
        </g>
      </g>
    </g>
  </g>
</svg>
