<svg xmlns="http://www.w3.org/2000/svg" xmlns:xlink="http://www.w3.org/1999/xlink" width="344" height="344" viewBox="0 0 344 344">
  <defs>
    <clipPath id="clip-path">
      <rect id="Rectangle_3186" data-name="Rectangle 3186" width="292" height="285" transform="translate(13485 982)" fill="#fff" stroke="#707070" stroke-width="1"/>
    </clipPath>
    <clipPath id="clip-path-2">
      <rect id="Rectangle_3187" data-name="Rectangle 3187" width="228.718" height="285" fill="none"/>
    </clipPath>
    <clipPath id="clip-Your_brain_is_amazing_11">
      <rect width="344" height="344"/>
    </clipPath>
  </defs>
  <g id="Your_brain_is_amazing_11" data-name="Your brain is amazing 11" clip-path="url(#clip-Your_brain_is_amazing_11)">
    <rect width="344" height="344" fill="#fff"/>
    <g id="Mask_Group_138" data-name="Mask Group 138" transform="translate(-13459 -952)" clip-path="url(#clip-path)">
      <g id="thinking_bud_paint" data-name="thinking bud paint" transform="translate(13631 1124.5)">
        <g id="thinking_bud_paint-2" data-name="thinking bud paint" transform="translate(-114.359 -142.5)" clip-path="url(#clip-path-2)">
          <path id="Path_470011" data-name="Path 470011" d="M74.287,139.915a29.58,29.58,0,0,0,20.69,9.375,195.582,195.582,0,0,1,43.966,5.819c21.175,5.334,35.722,12.769,35.075,15.032s-28.287-5.5-33.782,3.879c-3.394,5.819,5.011,12.446,2.1,18.912-5.981,13.254-52.532,9.537-55.28-1.778-1.293-5.819,9.375-11.638,7.759-14.547s-21.659,8.728-45.744,6.466c-19.558-1.778-34.267-12.608-33.459-15.356s25.862,5.011,31.681-4.2c3.718-5.819-4.041-12.931,0-20.043s17.3-10.83,25.216-4.687l1.616,1.455" transform="translate(9.603 83.63)" fill="#bf3422"/>
          <path id="Path_470012" data-name="Path 470012" d="M181.593,81.315c-2.1-3.718-14.386,5.657-32.328.647-13.254-3.718-13.578-10.83-30.55-18.265-9.537-4.2-22.791-10.022-32.651-3.879S75.559,75.012,76.044,83.093c1.616,19.4,25.862,36.692,48.491,37.823,34.429,1.778,60.453-33.782,57.058-39.6" transform="translate(46.801 35.226)" fill="#d2dea1"/>
          <path id="Path_470013" data-name="Path 470013" d="M12.137,45.368c1.293,4.041,15.194-2.748,31.843,5.657,12.284,6.3,11.153,13.254,26.347,23.922,8.567,5.981,20.528,14.224,31.2,10.183S114.939,72.2,115.908,64.279c2.425-19.558-17.942-41.056-39.925-46.713C42.525,9.161,10.036,38.9,12.137,45.368" transform="translate(7.421 9.912)" fill="#d2dea1"/>
          <path id="Path_470014" data-name="Path 470014" d="M28.579,171.785c4.2,0,2.263-15.356,15.517-28.287,9.86-9.537,16.164-6.3,31.034-17.457,8.244-6.142,19.881-14.871,19.558-26.185-.323-8.89-7.92-16.81-15.194-20.2C61.715,71.084,34.721,83.53,22.437,102.6c-18.588,28.933-.808,69.343,5.981,69.181" transform="translate(8.76 47.396)" fill="#d2dea1"/>
          <path id="Path_470015" data-name="Path 470015" d="M3.714,125.433c3.879,1.455,7.759-13.416,24.569-20.851,12.446-5.5,17.134-.323,34.752-5.334C72.9,96.5,86.8,92.459,90.675,81.791s-.97-18.265-6.3-23.922C71.441,43.806,42.184,45.907,23.919,59.323c-27.64,20.2-26.509,63.685-20.2,66.11" transform="translate(0.003 29.739)" fill="#bcce72"/>
          <path id="Path_470016" data-name="Path 470016" d="M114.679,141.385a48.329,48.329,0,0,1-4.687,4.688,40.571,40.571,0,0,1-12.284,7.92c-1.94.808-14.386,5.819-23.761,1.455S63.44,141.87,61.5,134.6c4.2-7.274,8.244-10.83,10.022-20.2,3.233-18.427-7.759-29.418-4.2-32s45.42,16.81,47.522,51.4a49.3,49.3,0,0,1-.162,7.759" transform="translate(37.907 50.64)" fill="#bcce72"/>
          <path id="Path_470017" data-name="Path 470017" d="M169.153,29.5c-.323,4.041-14.709.808-27.963,12.608-9.86,8.728-7.274,15.194-18.912,28.61-6.466,7.6-15.679,18.1-26.509,16.81s-15.356-9.213-18.1-16.487c-6.789-18.1,7.112-43.157,26.185-53.5,28.933-15.517,65.787,5.334,65.3,11.961" transform="translate(46.795 7.35)" fill="#bcce72"/>
          <path id="Path_470018" data-name="Path 470018" d="M63.68,130.61c12.446,3.879,23.6-1.94,26.347-3.394,24.084-12.284,36.045-50.593,24.569-73.222-1.455-2.909-5.819-11.315-14.386-13.9-16.81-5.011-35.075,16-38.793,20.366S34.424,91.978,44.93,114.446c5.5,11.961,17.78,15.841,18.75,16.164" transform="translate(26.029 24.239)" fill="#e6a69c"/>
          <path id="Path_470019" data-name="Path 470019" d="M84.847,60.819c-.162-2.425-2.586-3.718-3.071-3.879a5.926,5.926,0,0,0-8.405,6.789c.97,2.748,4.364,3.233,6.627,2.586s5.011-2.909,5.011-5.5" transform="translate(45.11 34.709)" fill="#fff"/>
          <path id="Path_470020" data-name="Path 470020" d="M68.119,52.491a4.849,4.849,0,0,1,4.849.323,5.819,5.819,0,0,1,3.071,5.172,6.142,6.142,0,0,1-3.879,5.5c-2.748.808-5.011-1.616-5.819-3.879s-.323-5.819,1.778-7.274" transform="translate(40.663 32.046)" fill="#fff"/>
          <path id="Path_470021" data-name="Path 470021" d="M70.813,55.1a2.263,2.263,0,0,1,1.778,1.616,2.748,2.748,0,0,1-.485,2.909,3.071,3.071,0,0,1-3.233.808A2.425,2.425,0,0,1,67.9,57.2a3.233,3.233,0,0,1,2.909-2.1" transform="translate(41.687 33.962)" fill="#051c22"/>
          <path id="Path_470022" data-name="Path 470022" d="M78.113,58.9a2.263,2.263,0,0,1,1.778,1.616,2.748,2.748,0,0,1-.485,2.909,3.071,3.071,0,0,1-3.233.808A2.425,2.425,0,0,1,75.2,61a3.233,3.233,0,0,1,2.909-2.1" transform="translate(46.186 36.305)" fill="#051c22"/>
          <path id="Path_470023" data-name="Path 470023" d="M71.335,16.314c-3.879-1.778-13.416-6.3-23.922-4.364S33.188,20.031,29.955,17.93s-2.586-6.789-.485-10.345c5.172-9.213,27.64-10.506,41.864-1.131,9.86,6.466,14.709,17.457,13.578,18.427s-4.849-4.526-13.578-8.728" transform="translate(17.081 0.012)" fill="#d2dea1"/>
          <path id="Path_470024" data-name="Path 470024" d="M57.068,69C56.26,69,54,76.112,54.644,84.517c.323,5.011.97,11.8,5.5,16.164,8.082,7.6,23.922,2.748,23.922,2.263s-6.789,1.616-13.739-2.1-9.7-10.506-10.668-13.093C55.452,77.728,57.876,69,57.068,69" transform="translate(33.611 42.53)" fill="#051c22"/>
          <path id="Path_470025" data-name="Path 470025" d="M77.455,117.462c1.131.162.97,6.142,0,10.83s-3.071,9.86-3.394,9.86.162-3.718.808-6.95.808-3.071.162-3.233-2.586,1.94-3.071,1.778.323-1.616.323-1.778c3.071-6.3,3.879-10.668,5.011-10.668" transform="translate(44.259 72.301)" fill="#cb5646"/>
          <path id="Path_470026" data-name="Path 470026" d="M121.429,121.45c-1.94,20.69-16,42.026-33.944,45.744H86.354c-8.082,1.293-30.226,2.263-35.722-4.364-1.131-1.455,9.537-5.657,9.052-7.274a20.367,20.367,0,0,1-1.131-4.849,40.248,40.248,0,0,1,1.293-13.416c.808-3.556,1.94-6.95,2.909-10.022A61.907,61.907,0,0,1,68.412,114.5c1.94,7.274,4.041,16.972,12.446,20.851s21.821-.647,23.761-1.455a40.571,40.571,0,0,0,12.284-7.92,48.325,48.325,0,0,0,4.688-4.687" transform="translate(31.157 70.575)" fill="#e6a69c"/>
          <path id="Path_470027" data-name="Path 470027" d="M87.785,154.385a41.38,41.38,0,0,0,5.657-6.789c8.89-13.416,9.7-31.2,9.375-31.2a84.212,84.212,0,0,1-3.233,11.961,53.017,53.017,0,0,1-9.213,17.457,37.662,37.662,0,0,1-12.446,9.537c-6.789,3.233-11.961,2.748-12.123,4.2s3.556,3.071,7.274,3.071c6.142.162,10.991-4.526,14.709-8.244" transform="translate(40.556 71.747)" fill="#bf3422"/>
          <path id="Path_470028" data-name="Path 470028" d="M85.3,169.858c-8.082,1.293-20.528,1.616-26.024-5.011a16.163,16.163,0,0,1-2.748-4.687,20.366,20.366,0,0,1-1.131-4.849l.647-1.778q2.667-6.789,6.789-16.487c6.789-15.679,15.517-30.226,16.487-29.741s-.97,3.394-3.394,10.83c-5.819,17.134-8.728,31.358-8.405,31.519s1.455-5.172,5.334-12.608,6.95-11.961,7.435-11.8-.808,2.586-2.1,5.981-9.052,23.114-7.112,24.084,4.849-4.687,5.819-5.981c3.071-4.2,3.879-6.95,4.2-6.789s-.162,6.627-4.2,12.123a16.649,16.649,0,0,1-7.92,6.3c-3.556,1.293-6.3.323-6.789,1.455s2.586,3.718,5.334,5.334c5.334,3.071,13.093,1.94,17.619,1.94" transform="translate(34.147 66.133)" fill="#bf3422"/>
          <path id="Path_470029" data-name="Path 470029" d="M71.808,156.6c-.323-.323,3.394-4.041,6.3-8.405,10.991-16.972,4.041-39.6,6.789-40.086s3.071,4.364,3.394,5.334c4.2,10.668,1.94,23.761-5.011,33.3-4.687,6.3-10.991,10.506-11.476,10.022" transform="translate(44.249 66.618)" fill="#bf3422"/>
        </g>
      </g>
    </g>
  </g>
</svg>
