<svg xmlns="http://www.w3.org/2000/svg" xmlns:xlink="http://www.w3.org/1999/xlink" width="344" height="344" viewBox="0 0 344 344">
  <defs>
    <clipPath id="clip-path">
      <rect id="Rectangle_3179" data-name="Rectangle 3179" width="292" height="285" transform="translate(12064 982)" fill="#fff" stroke="#707070" stroke-width="1"/>
    </clipPath>
    <clipPath id="clip-path-2">
      <rect id="Rectangle_3190" data-name="Rectangle 3190" width="228.438" height="240.002" fill="none"/>
    </clipPath>
    <clipPath id="clip-Your_brain_is_amazing_7">
      <rect width="344" height="344"/>
    </clipPath>
  </defs>
  <g id="Your_brain_is_amazing_7" data-name="Your brain is amazing 7" clip-path="url(#clip-Your_brain_is_amazing_7)">
    <rect width="344" height="344" fill="#fff"/>
    <g id="Mask_Group_139" data-name="Mask Group 139" transform="translate(-12038 -952)" clip-path="url(#clip-path)">
      <g id="thinkbudcode" transform="translate(12210 1124.5)">
        <g id="Group_3367" data-name="Group 3367" transform="translate(-114.219 -120.001)">
          <path id="Path_470049" data-name="Path 470049" d="M132.893,0l-.3,30.148-26.4-.3-.15,27.6-24.3-.3v-20.1L44.1,36.6l.3-22.049-35.7-.3L10.949,64.5l33,.45,1.65,35.248,35.548.3-.3,31.348-28.049-.15-.3,30.9-31.5-.3-1.65,30.148L.3,192.14,0,221.688l56.1.6,1.35-29.548,34.5.3.3-30.148,30.6.3-.3,33.748,31.5.3-.3,18.6,17.4.15,1.2,23.549,54.747.45.15-23.549-25.949-.15.3-30-21.9-.3.15-21-25.5-.3.15-23.4,47.4.45.3-21,25.949.15.3-23.4-52.5-.45.3-37.2H146.992V36.3h29.4l.15-5.1-16.5-.15L160.342.3Z" fill="#bcce72"/>
          <path id="Path_470050" data-name="Path 470050" d="M79.7,66.8H97.546V46.549h19.649V24.2h20.249V47h12.3V95.746h38.848v17.4h-19.2v15.449H134.144v17.4h18.9v15.749h16.349v22.2h19.2v20.7l-40.2-.9-1.35-19.8h-12.9v-13.8H110.9v-24.9H88.246v22.2H62.6l-.75,21.9H20.3v-21.9H34.4l1.05-22.2H58.7V122.295H79.547V99.046h-26.4L51.648,72.8H27.35l-2.1-37.2h26.4V51.949h27.9Z" transform="translate(10.148 12.098)" fill="#b4deec"/>
          <g id="Group_3366" data-name="Group 3366" clip-path="url(#clip-path-2)">
            <path id="Path_470051" data-name="Path 470051" d="M109.818,56.618c-.45-3.6-4.5-5.1-5.25-5.4a9.15,9.15,0,0,0-9.3,1.5c-2.55,2.4-4.05,6.6-2.7,9.9s7.05,4.35,10.349,3.15,7.2-5.1,6.75-9" transform="translate(46.024 25.277)" fill="#fff"/>
            <path id="Path_470052" data-name="Path 470052" d="M82.439,45.672c2.85-2.25,6.6-.45,7.35-.15a8.7,8.7,0,0,1,5.25,7.5c.15,3.45-1.8,7.5-5.1,8.85s-7.8-1.8-9.15-5.1-1.35-8.7,1.65-11.1" transform="translate(39.955 22.275)" fill="#fff"/>
            <path id="Path_470053" data-name="Path 470053" d="M87.111,49.5a3.45,3.45,0,0,1,2.85,2.25,4.2,4.2,0,0,1-.45,4.35,4.65,4.65,0,0,1-4.65,1.65c-1.95-.6-2.25-3-1.8-4.65s2.25-3.6,4.2-3.6" transform="translate(41.432 24.746)" fill="#051c22"/>
            <path id="Path_470054" data-name="Path 470054" d="M99.661,54.7a3.45,3.45,0,0,1,2.85,2.25,4.2,4.2,0,0,1-.45,4.35,4.65,4.65,0,0,1-4.8,1.8c-1.95-.6-2.25-3-1.8-4.65s2.25-3.6,4.2-3.6" transform="translate(47.631 27.346)" fill="#051c22"/>
            <rect id="Rectangle_3189" data-name="Rectangle 3189" width="13.349" height="36.583" transform="translate(19.949 20.849)" fill="#4bacce"/>
            <path id="Path_470055" data-name="Path 470055" d="M53.6,73.7V99.349H70.7L70.249,73.7Z" transform="translate(26.796 36.844)" fill="#4bacce"/>
            <path id="Path_470056" data-name="Path 470056" d="M92.4,88.4v25.649h16.949l-.3-25.649Z" transform="translate(46.193 44.193)" fill="#4bacce"/>
            <path id="Path_470057" data-name="Path 470057" d="M96.2,121.5v33.6h14.249l-.3-33.6Z" transform="translate(48.092 60.74)" fill="#4bacce"/>
            <path id="Path_470058" data-name="Path 470058" d="M61.3,104.9v35.7H92.5l-.75-35.7Z" transform="translate(30.645 52.442)" fill="#4bacce"/>
            <path id="Path_470059" data-name="Path 470059" d="M132.5,130.7v20.7h28.648l-.75-20.7Z" transform="translate(66.24 65.34)" fill="#4bacce"/>
            <path id="Path_470060" data-name="Path 470060" d="M127.4,24.2l-.15,21.9v1.65H98V24.2Z" transform="translate(48.992 12.098)" fill="#4bacce"/>
          </g>
        </g>
      </g>
    </g>
  </g>
</svg>
